<?xml version="1.0" encoding="UTF-8" standalone="no"?>
<!-- Created with Inkscape (http://www.inkscape.org/) -->

<svg
   width="150mm"
   height="100mm"
   viewBox="0 0 150 100"
   version="1.1"
   id="svg5"
   inkscape:version="1.2 (dc2aedaf03, 2022-05-15)"
   sodipodi:docname="badondo.svg"
   xmlns:inkscape="http://www.inkscape.org/namespaces/inkscape"
   xmlns:sodipodi="http://sodipodi.sourceforge.net/DTD/sodipodi-0.dtd"
   xmlns="http://www.w3.org/2000/svg"
   xmlns:svg="http://www.w3.org/2000/svg">
  <sodipodi:namedview
     id="namedview7"
     pagecolor="#ffffff"
     bordercolor="#666666"
     borderopacity="1.0"
     inkscape:showpageshadow="2"
     inkscape:pageopacity="0.0"
     inkscape:pagecheckerboard="0"
     inkscape:deskcolor="#d1d1d1"
     inkscape:document-units="mm"
     showgrid="false"
     inkscape:zoom="0.26362494"
     inkscape:cx="-434.32916"
     inkscape:cy="682.7882"
     inkscape:window-width="1920"
     inkscape:window-height="1017"
     inkscape:window-x="-8"
     inkscape:window-y="-8"
     inkscape:window-maximized="1"
     inkscape:current-layer="layer1" />
  <defs
     id="defs2" />
  <g
     inkscape:label="Layer 1"
     inkscape:groupmode="layer"
     id="layer1"
     transform="translate(-10.645162,-60.677647)">
    <rect
       style="fill:#cc092f;fill-opacity:1;stroke:none;stroke-width:6.38754;stroke-linecap:round;stroke-linejoin:round"
       id="rect401"
       width="150"
       height="100"
       x="10.645162"
       y="60.677647" />
    <path
       d="m 30.787518,103.80329 h 9.69539 l 2.94005,-9.137918 3.018888,9.137918 h 9.694337 l -7.787487,5.80125 3.018637,9.29614 -7.944375,-5.64198 -7.86633,5.64198 3.0189,-9.29614 z"
       fill="#ffcb00"
       fill-rule="evenodd"
       id="path238-5"
       style="stroke-width:0.264583" />
    <path
       d="m 61.293474,121.8278 -1.93865,2.47441 -4.182147,-0.445 c 2.13173,-2.18305 4.485347,-6.84184 5.451747,-11.15876 1.04245,-4.65662 -0.023,-9.53168 -1.4886,-12.6747 C 54.809937,90.746841 44.557372,86.042359 34.959165,88.270248 l -0.794766,-3.467673 c 1.342188,-0.296718 3.007543,-0.450038 4.367091,-0.591283 l 0.244542,-2.415714 c 1.487306,0.01843 3.112488,-0.02688 4.573559,0.168996 l 0.09005,2.425824 c 1.46233,0.195844 3.342085,0.678073 4.507809,1.204455 l 1.07505,-2.109451 c 1.36268,0.570183 2.92652,1.101149 4.196457,1.825938 l -0.79612,2.290283 c 1.66564,0.990458 2.35938,1.480259 3.86808,2.81262 l 1.913417,-1.505635 c 0.99369,1.071583 2.32948,2.327939 3.16406,3.528113 l -1.66141,1.748127 c 0.71603,0.901296 1.85698,2.526725 2.53185,4.026838 0.0401,0.09046 0.0808,0.195251 0.12293,0.285516 l 2.265687,-0.687554 c 0.5192,1.348334 1.16782,2.855572 1.50575,4.287702 l -2.20639,1.02886 c 0.31476,1.49715 0.6786,3.33836 0.77147,4.82946 l 2.34997,0.22097 c -0.0392,1.44315 0.0273,3.11214 -0.21365,4.59529 l -2.42522,0.0898 c -0.24147,1.4827 -0.59239,2.96167 -1.07602,4.39408 l 2.1033,1.1022 c -0.21274,0.48257 -1.32753,3.59036 -1.52015,4.11923 z m -1.93865,2.47441 c -0.17455,0.4204 -0.86637,1.31787 -1.06348,1.52626 l 1.48941,1.8003 c -1.07129,0.99392 -2.150107,2.20895 -3.419117,3.13005 l -1.75537,-1.64837 c -1.18021,0.87895 -2.401787,1.66765 -3.752997,2.29773 l 0.71593,2.24277 c -1.3023,0.4981 -2.79164,1.30177 -4.33483,1.63763 l -0.986617,-2.11582 c -1.366554,0.36228 -2.729197,0.61434 -4.088782,0.75432 l -0.174566,2.33088 c -1.29117,0.0526 -2.984132,0.18391 -4.491259,0.0103 l -0.178999,-2.38362 c -1.177432,-0.0547 -2.326728,-0.28585 -3.431662,-0.53936 l 0.829644,-3.51193 c 4.572011,1.10332 9.494331,0.72595 14.087951,-1.41608 2.43237,-1.13425 4.629637,-2.65127 6.372597,-4.56003 z"
       fill="#ffcb00"
       fill-rule="evenodd"
       id="path240"
       style="stroke-width:0.165453"
       sodipodi:nodetypes="cccssccccccccccccccccccccccccccccccccccccccccccscc" />
    <path
       d="m 28.990963,131.70361 -2.274667,-47.734087 -0.600994,0.0519 2.172821,47.691737 -3.605094,0.0861 -5.599451,-43.570647 c -1.626459,-11.70443 2.402534,-14.56637 7.808994,-16.40579 l 4.410725,-1.41871 c -3.647881,4.30607 -3.198201,11.39536 -2.957676,18.97343 l 1.823435,42.304637 z m -0.470613,12.8579 a 0.59002083,0.59002083 0 0 1 0.07435,-0.8326 0.59002083,0.59002083 0 0 1 0.831642,0.0724 c 0.210379,0.25073 0.17827,0.62409 -0.07143,0.83361 a 0.59213749,0.59213749 0 0 1 -0.83478,-0.0732 m -0.18238,-2.81385 a 0.59266666,0.59266666 0 0 1 0.07255,-0.8335 0.59160833,0.59160833 0 1 1 -0.07255,0.8335 m -0.07493,-2.97309 c -0.209527,-0.24971 -0.177598,-0.62327 0.0719,-0.83262 a 0.59160833,0.59160833 0 0 1 0.760217,0.90599 c -0.249501,0.20936 -0.622252,0.17674 -0.832111,-0.0734 m 2.513003,8.09895 -0.561593,-14.40294 -5.39693,0.20637 1.044978,12.04416 c 0.08542,0.96622 -1.813802,2.66174 -0.229658,5.16872 0.646734,1.01608 1.825983,1.06117 1.825983,1.06117 2.017342,-0.0211 3.436983,-1.66786 3.31725,-4.07734"
       fill="#ffcb00"
       fill-rule="evenodd"
       id="path242"
       style="stroke-width:0.264583" />
    <rect
       style="fill:#000000;fill-opacity:1;stroke:#000000;stroke-width:4;stroke-opacity:0;paint-order:stroke markers fill"
       id="rect1144-1"
       width="10"
       height="100"
       x="109.47849"
       y="60.677647" />
    <rect
       style="fill:#000000;fill-opacity:1;stroke:#000000;stroke-width:4;stroke-opacity:0;paint-order:stroke markers fill"
       id="rect1144-1-3"
       width="10"
       height="100"
       x="129.47847"
       y="60.677647" />
  </g>
</svg>
