<?xml version="1.0" encoding="UTF-8" standalone="no"?>
<!-- Created with Inkscape (http://www.inkscape.org/) -->

<svg
   width="150mm"
   height="100mm"
   viewBox="0 0 150 100"
   version="1.1"
   id="svg5"
   inkscape:version="1.2 (dc2aedaf03, 2022-05-15)"
   sodipodi:docname="kingdomofelysee.svg"
   xml:space="preserve"
   xmlns:inkscape="http://www.inkscape.org/namespaces/inkscape"
   xmlns:sodipodi="http://sodipodi.sourceforge.net/DTD/sodipodi-0.dtd"
   xmlns="http://www.w3.org/2000/svg"
   xmlns:svg="http://www.w3.org/2000/svg"><sodipodi:namedview
     id="namedview7"
     pagecolor="#ffffff"
     bordercolor="#666666"
     borderopacity="1.0"
     inkscape:showpageshadow="2"
     inkscape:pageopacity="0.0"
     inkscape:pagecheckerboard="0"
     inkscape:deskcolor="#d1d1d1"
     inkscape:document-units="mm"
     showgrid="false"
     inkscape:zoom="0.74564394"
     inkscape:cx="358.75032"
     inkscape:cy="328.57506"
     inkscape:window-width="1920"
     inkscape:window-height="1017"
     inkscape:window-x="-8"
     inkscape:window-y="-8"
     inkscape:window-maximized="1"
     inkscape:current-layer="layer1" /><defs
     id="defs2" /><g
     inkscape:label="Layer 1"
     inkscape:groupmode="layer"
     id="layer1"
     transform="translate(-10.645162,-60.677647)"><rect
       style="fill:#ffffff;fill-opacity:1;stroke:none;stroke-width:6.388;stroke-linecap:round;stroke-linejoin:round;stroke-dasharray:none"
       id="rect401"
       width="150"
       height="100"
       x="10.645162"
       y="60.677647" /><path
       style="fill:#d4aa00;fill-opacity:1;stroke:none;stroke-width:0.264583px;stroke-linecap:butt;stroke-linejoin:miter;stroke-opacity:1"
       d="M 160.64515,80.677642 V 60.677647 h -30 L 10.645162,140.67764 v 20 h 29.99999 z"
       id="path3337" /><path
       style="fill:#2618ce;stroke:none;stroke-width:0.264583px;stroke-linecap:butt;stroke-linejoin:miter;stroke-opacity:1;fill-opacity:1"
       d="m 160.64515,70.677645 v -9.999998 h -15 L 10.645162,150.67764 v 10 h 15 z"
       id="path3335" /><path
       d="m 56.451858,84.478045 c -6.56038,-0.751714 -13.46212,3.826866 -14.76051,12.983756 -0.0453,0.31919 -0.0833,0.64513 -0.11347,0.974368 h -0.38694 c 0.55852,-6.210617 3.12954,-10.520265 4.66877,-13.386525 1.9953,-3.71519 0.37579,-7.375162 -0.41269,-9.012848 -0.89451,-1.857595 -4.94679,-9.366053 -5.97873,-11.911605 -1.03194,2.545552 -5.05392,10.05401 -5.94843,11.911605 -0.78876,1.637686 -2.40813,5.297658 -0.41283,9.012848 1.5289,2.846706 4.11314,7.203999 4.71297,13.386525 h -0.44174 c -0.0302,-0.329378 -0.0682,-0.655178 -0.11347,-0.974368 -1.29853,-9.157028 -8.20027,-13.73547 -14.76052,-12.983756 -7.33729,0.840668 -11.275281,12.437076 0.0683,15.238898 -1.84506,-3.416799 1.02492,-9.567105 7.65388,-6.081877 2.15585,1.13356 3.65749,2.944475 4.27866,4.801103 h -1.11056 c -1.04764,0 -1.89698,0.615387 -1.89698,1.374684 0,0.759277 0.84934,1.374677 1.89698,1.374677 h 1.35181 c -0.11057,0.59873 -0.33819,1.16551 -0.69319,1.67473 -1.572,2.25514 -6.83674,1.02505 -3.89833,-3.895044 -4.96621,-0.653665 -6.28594,4.031784 -4.85095,6.560264 1.57709,3.22373 8.46576,4.18998 11.07259,-0.41008 0.62516,-1.10326 0.93898,-2.4851 1.04033,-3.92987 h 0.53208 c -0.005,1.09225 -0.073,2.23408 -0.21894,3.42698 -1.74152,1.12172 -1.06265,3.54238 -3.26835,4.98949 1.38555,0.0365 2.51594,-0.2352 2.88072,-0.74566 0,1.4803 1.32427,2.72815 2.18752,4.5246 0.80198,-1.8065 2.09417,-3.31778 2.09417,-4.5246 0.36463,0.51046 1.49503,0.78215 2.88072,0.74566 -2.02243,-1.2407 -1.22527,-3.5136 -3.20308,-5.1371 -0.13977,-1.14196 -0.20765,-2.23352 -0.21881,-3.27937 h 0.45607 c 0.10121,1.44477 0.41531,2.82661 1.04034,3.92987 2.60683,4.59993 9.49549,3.63381 11.07259,0.41008 1.43512,-2.52834 0.11539,-7.213929 -4.85096,-6.560264 2.93856,4.920094 -2.32633,6.150184 -3.89833,3.895044 -0.35486,-0.50922 -0.58248,-1.076 -0.69305,-1.67473 h 1.45578 c 1.04763,0 1.89698,-0.61553 1.89698,-1.374677 0,-0.759427 -0.84935,-1.374684 -1.89698,-1.374684 h -1.21467 c 0.62131,-1.856628 2.12281,-3.667543 4.27867,-4.801103 6.62896,-3.485228 9.49893,2.665078 7.65387,6.081877 11.34413,-2.801692 7.406,-14.398092 0.0687,-15.238898 z"
       id="path3629"
       style="fill:#c83737;stroke:#d4aa00;stroke-width:1;stroke-dasharray:none;stroke-opacity:1" /></g></svg>
