<?xml version="1.0" encoding="UTF-8" standalone="no"?>
<!-- Created with Inkscape (http://www.inkscape.org/) -->

<svg
   width="150mm"
   height="100mm"
   viewBox="0 0 150 100"
   version="1.1"
   id="svg5"
   inkscape:version="1.2 (dc2aedaf03, 2022-05-15)"
   sodipodi:docname="tsardomofperm.svg"
   xmlns:inkscape="http://www.inkscape.org/namespaces/inkscape"
   xmlns:sodipodi="http://sodipodi.sourceforge.net/DTD/sodipodi-0.dtd"
   xmlns="http://www.w3.org/2000/svg"
   xmlns:svg="http://www.w3.org/2000/svg">
  <sodipodi:namedview
     id="namedview7"
     pagecolor="#ffffff"
     bordercolor="#666666"
     borderopacity="1.0"
     inkscape:showpageshadow="2"
     inkscape:pageopacity="0.0"
     inkscape:pagecheckerboard="0"
     inkscape:deskcolor="#d1d1d1"
     inkscape:document-units="mm"
     showgrid="false"
     inkscape:zoom="0.18641099"
     inkscape:cx="-1520.8331"
     inkscape:cy="10.728981"
     inkscape:window-width="1920"
     inkscape:window-height="1017"
     inkscape:window-x="-8"
     inkscape:window-y="-8"
     inkscape:window-maximized="1"
     inkscape:current-layer="layer1" />
  <defs
     id="defs2" />
  <g
     inkscape:label="Layer 1"
     inkscape:groupmode="layer"
     id="layer1"
     transform="translate(53.451607,-34.064743)">
    <rect
       style="fill:#802f80;fill-opacity:1;stroke:none;stroke-width:2.4685;stroke-linecap:round;paint-order:fill markers stroke"
       id="rect462"
       width="75"
       height="100"
       x="-53.451607"
       y="34.064743" />
    <rect
       style="fill:#67ff67;fill-opacity:1;stroke:none;stroke-width:2.4685;stroke-linecap:round;paint-order:fill markers stroke"
       id="rect462-4"
       width="75"
       height="100"
       x="21.548391"
       y="34.064743" />
    <path
       d="m -19.175049,50.130816 4.32144,0.159391 c 0.212529,0.01764 0.371927,0.123985 0.371927,0.371928 -0.01763,1.558551 -0.318795,2.568069 -1.434578,3.382765 0.141679,0.867831 0.05314,1.3106 -0.850119,2.036745 -0.08856,-0.708433 -0.371925,-1.027227 -0.814696,-1.328312 -0.03542,0.01764 -0.07085,0.01764 -0.08856,0.03542 0.05314,0.318797 0.05314,0.655302 -0.01764,0.850121 -0.177103,0.495902 -1.044938,0.513614 -1.275179,0.159391 -0.212529,0.513614 -0.6553,0.531326 -1.009516,0.531326 -0.371927,0 -0.549036,-0.265664 -0.673012,-0.513614 -0.212529,0.177103 -0.425058,0.371926 -0.619877,0.619878 -0.61988,0.850119 -0.726145,1.948191 -0.726145,2.993129 l 0.584457,0.05314 v -0.42506 c 0.01763,-0.602168 1.416865,-0.708433 1.73566,-0.194819 0.354217,-0.389638 1.452288,-0.318795 1.452288,0.301084 v 0.194819 c 0.247952,-0.318795 0.442771,-0.6553 0.602167,-0.991805 0.442771,0.283372 0.708433,0.495902 0.63759,1.505419 0.194819,0.01764 0.389638,0.03542 0.566747,0.05314 -0.01764,1.168913 -0.531324,1.48771 -4.711078,1.399155 -0.106273,1.168914 1.062648,1.824214 1.930479,2.37325 2.266985,1.29289 4.657945,2.709755 5.950835,5.083006 1.080361,1.877346 1.346023,4.10891 1.222047,6.269629 l -1.239757,-0.549034 -0.141679,0.67301 c 2.231562,1.06265 6.3050534,3.223369 8.9793854,4.463128 0.655302,0.301085 2.35554,0.726143 2.709756,0.123967 1.22204605,-2.107587 2.19614105,-3.701561 3.6130091,-5.313246 0.726143,-0.832408 5.5434859,3.152527 4.6579449,4.498549 -2.019033,3.063971 -5.3132469,7.456257 -10.803601,7.491677 -5.6851732,0.0354 -10.6264924,-2.05446 -11.7068534,-2.37325 l -0.230241,0.72614 c 0.726145,0.3188 1.363735,0.54904 2.125298,0.79699 -0.991805,3.89638 -2.143008,5.41951 -4.817341,7.79276 l 0.549034,0.40735 c 0.478194,-0.28337 1.29289,-1.18662 1.735661,-1.61169 5.685173,2.69205 7.8104732,5.38409 9.1742064,8.164687 1.505419,3.34735 1.222044,7.15517 0.584457,10.67963 -0.123967,0.58446 0.513613,0.86783 0.991805,0.69072 1.310602,-0.30108 2.036745,-1.61169 3.294212,-2.08988 0.566747,-0.24795 1.310602,-0.53132 1.93048105,-0.42506 1.009516,0.1771 2.08987605,5.27783 1.062649,5.77373 -1.91277005,0.93868 -4.00264505,1.13349 -6.12794405,2.23155 -1.399155,0.56676 -2.7451782,1.48771 -4.3391524,1.23976 -0.903252,-0.0886 -1.806504,-0.70843 -1.895057,-1.66481 -0.796986,-3.4359 -1.912769,-7.08433 -4.533971,-9.56384 -1.257467,-1.23975 -2.886862,-2.23156 -4.498547,-2.99313 0.637588,-2.44409 1.115781,-4.888187 1.062649,-7.438537 l -0.779276,-0.0355 c -0.566747,9.705527 -3.152526,11.742277 -7.704208,16.258527 -0.460481,0.46049 -0.425058,1.32832 0.247952,1.59398 0.885541,0.44277 1.930479,0.46049 2.939997,0.51362 1.08036,0.0531 0.265662,6.03938 -1.328313,5.98624 -2.798308,-0.0886 -5.702884,-2.26697 -7.385412,-4.40997 -0.708433,-0.88555 -1.558552,-1.77109 -2.231562,-2.63893 -0.832411,-1.08035 0.07085,-2.33782 0.318793,-3.32962 0.690722,-2.83374 1.009517,-10.980717 1.04494,-12.114207 l -0.991807,0.0176 -0.141679,-2.05445 c 2.957707,-3.66612 2.479514,-9.40442 3.701562,-13.10598 0.478192,-1.505423 1.009516,-3.063975 1.009516,-4.657949 0,-2.160721 -2.444093,-6.216499 -2.390961,-9.829506 0.01764,-1.523131 0.867832,-3.506741 0.850119,-4.409993 -0.01763,-2.621202 -1.523129,-2.054455 -1.487708,-7.509389 0.01763,-1.505419 0.194819,-2.621202 0.584457,-4.162043 -2.638913,-2.780599 0.991807,-5.561197 3.081683,-3.825537 1.682527,-0.44277 1.895058,-0.885541 5.189271,-0.885541 2.816021,0 4.427705,0.761566 6.181076,1.930479 m 5.100719,16.258592 c 1.859636,2.284695 2.904574,3.435899 2.833731,8.979385 C 6.3109064,65.326598 1.1747675,63.892021 5.0180164,57.905763 5.6201834,56.967091 1.7060925,54.78866 0.46633545,55.709622 c -2.49722705,1.841926 -1.57626305,5.313247 -3.64843005,6.889509 -2.054453,1.558552 -5.7205932,2.249274 -10.8921544,3.772405 M -24.789295,53.49577 c 0.265662,0 0.743854,-0.141679 0.88554,-0.336505 1.540841,-2.35554 1.930479,-1.505421 2.160721,-0.690723 0.194819,0.726143 1.044938,0.743854 0.796986,-0.230241 -0.619878,-2.390961 -2.302405,-2.054455 -4.392283,1.257469 m -4.516259,-2.39096 c -0.42506,-0.566747 -1.08036,-1.115783 -1.788793,-1.346023 -1.044938,-0.354217 -1.469999,0.495902 -0.63759,0.779276 0.690723,0.301084 1.27518,0.726143 1.771083,1.222047 m 14.398898,2.40867 c -0.265662,0.159391 -0.63759,0.354218 -1.186626,0.513614 0.301084,0.247952 0.584457,0.602169 0.673012,0.991807 0.478191,-0.336507 0.67301,-0.956384 0.513614,-1.505421 m -2.833733,0.938675 c 0,0.230239 0.05314,0.460481 0.123985,0.566746 0.177103,0.283373 0.832409,0.265662 0.974097,-0.123985 0.05314,-0.159391 0.05314,-0.442771 -0.01764,-0.708433 -0.354215,0.08856 -0.726143,0.159391 -1.080358,0.265662 m -0.212531,0.05314 c -0.478192,0.141678 -0.938673,0.301084 -1.346023,0.566746 0.08856,0.21253 0.247952,0.425061 0.566747,0.425061 0.283374,0 0.602169,-0.01764 0.779276,-0.354218 0.08856,-0.177103 0.05314,-0.42506 0,-0.637589 m 2.001322,4.693367 c 0.05314,-0.495903 0,-0.920962 -0.389638,-1.204336 -0.194819,0.354217 -0.407348,0.690722 -0.6553,0.991807 v 0.123985 m -0.177103,-0.0088 v -0.557891 c 0,-0.584457 -1.239757,-0.549034 -1.257467,0 v 0.442771 m -0.159391,-0.01764 v -0.495903 c 0,-0.584457 -1.434576,-0.549037 -1.434576,-0.01764 v 0.389638"
       id="path3298"
       style="fill:#ffffff;stroke-width:0.0177108" />
    <path
       d="m 62.271834,50.130816 -4.32144,0.159391 c -0.212529,0.01764 -0.371927,0.123985 -0.371927,0.371928 0.01763,1.558551 0.318795,2.568069 1.434578,3.382765 -0.141679,0.867831 -0.05314,1.3106 0.850119,2.036745 0.08856,-0.708433 0.371925,-1.027227 0.814696,-1.328312 0.03542,0.01764 0.07085,0.01764 0.08856,0.03542 -0.05314,0.318797 -0.05314,0.655302 0.01764,0.850121 0.177103,0.495902 1.044938,0.513614 1.275179,0.159391 0.212529,0.513614 0.6553,0.531326 1.009516,0.531326 0.371927,0 0.549036,-0.265664 0.673012,-0.513614 0.212529,0.177103 0.425058,0.371926 0.619877,0.619878 0.61988,0.850119 0.726145,1.948191 0.726145,2.993129 l -0.584457,0.05314 v -0.42506 c -0.01763,-0.602168 -1.416865,-0.708433 -1.73566,-0.194819 -0.354217,-0.389638 -1.452288,-0.318795 -1.452288,0.301084 v 0.194819 c -0.247952,-0.318795 -0.442771,-0.6553 -0.602167,-0.991805 -0.442771,0.283372 -0.708433,0.495902 -0.63759,1.505419 -0.194819,0.01764 -0.389638,0.03542 -0.566747,0.05314 0.01764,1.168913 0.531324,1.48771 4.711078,1.399155 0.106273,1.168914 -1.062648,1.824214 -1.930479,2.37325 -2.266985,1.29289 -4.657945,2.709755 -5.950835,5.083006 -1.080361,1.877346 -1.346023,4.10891 -1.222047,6.269629 l 1.239757,-0.549034 0.141679,0.67301 c -2.231562,1.06265 -6.305053,3.223369 -8.979385,4.463128 -0.655302,0.301085 -2.35554,0.726143 -2.709756,0.123967 -1.222046,-2.107587 -2.196141,-3.701561 -3.613009,-5.313246 -0.726143,-0.832408 -5.543486,3.152527 -4.657945,4.498549 2.019033,3.063971 5.313247,7.456257 10.803601,7.491677 5.685173,0.0354 10.626492,-2.05446 11.706853,-2.37325 l 0.230241,0.72614 c -0.726145,0.3188 -1.363735,0.54904 -2.125298,0.79699 0.991805,3.89638 2.143008,5.41951 4.817341,7.79276 l -0.549034,0.40735 c -0.478194,-0.28337 -1.29289,-1.18662 -1.735661,-1.61169 -5.685173,2.69205 -7.810473,5.38409 -9.174206,8.164687 -1.505419,3.34736 -1.222044,7.15518 -0.584457,10.67964 0.123967,0.58446 -0.513613,0.86783 -0.991805,0.69072 -1.310602,-0.30108 -2.036745,-1.61169 -3.294212,-2.08988 -0.566747,-0.24795 -1.310602,-0.53132 -1.930481,-0.42506 -1.009516,0.1771 -2.089876,5.27783 -1.062649,5.77373 1.91277,0.93868 4.002645,1.13349 6.127944,2.23155 1.399155,0.56676 2.745178,1.48771 4.339152,1.23976 0.903252,-0.0886 1.806504,-0.70843 1.895057,-1.66481 0.796986,-3.4359 1.912769,-7.08433 4.533971,-9.56384 1.257467,-1.23975 2.886862,-2.23156 4.498547,-2.99313 -0.637588,-2.4441 -1.115781,-4.888197 -1.062649,-7.438547 l 0.779276,-0.0355 c 0.566747,9.705537 3.152526,11.742287 7.704208,16.258537 0.460481,0.46049 0.425058,1.32832 -0.247952,1.59398 -0.885541,0.44277 -1.930479,0.46049 -2.939997,0.51362 -1.08036,0.0531 -0.265662,6.03938 1.328313,5.98624 2.798308,-0.0886 5.702884,-2.26697 7.385412,-4.40997 0.708433,-0.88555 1.558552,-1.77109 2.231562,-2.63893 0.832411,-1.08035 -0.07085,-2.33782 -0.318793,-3.32962 -0.690722,-2.83374 -1.009517,-10.980727 -1.04494,-12.114217 l 0.991807,0.0176 0.141679,-2.05445 C 76.033061,92.902283 76.511254,87.163983 75.289206,83.462423 74.811014,81.957 74.27969,80.398448 74.27969,78.804474 c 0,-2.160721 2.444093,-6.216499 2.390961,-9.829506 -0.01764,-1.523131 -0.867832,-3.506741 -0.850119,-4.409993 0.01763,-2.621202 1.523129,-2.054455 1.487708,-7.509389 -0.01763,-1.505419 -0.194819,-2.621202 -0.584457,-4.162043 2.638913,-2.780599 -0.991807,-5.561197 -3.081683,-3.825537 -1.682527,-0.44277 -1.895058,-0.885541 -5.189271,-0.885541 -2.816021,0 -4.427705,0.761566 -6.181076,1.930479 m -5.100719,16.258592 c -1.859636,2.284695 -2.904574,3.435899 -2.833731,8.979385 -17.551424,-10.024323 -12.415286,-11.4589 -16.258534,-17.445158 -0.602167,-0.938672 3.311924,-3.117103 4.551681,-2.196141 2.497227,1.841926 1.576263,5.313247 3.64843,6.889509 2.054453,1.558552 5.720593,2.249274 10.892154,3.772405 M 67.88608,53.49577 c -0.265662,0 -0.743854,-0.141679 -0.88554,-0.336505 -1.540841,-2.35554 -1.930479,-1.505421 -2.160721,-0.690723 -0.194819,0.726143 -1.044938,0.743854 -0.796986,-0.230241 0.619878,-2.390961 2.302405,-2.054455 4.392283,1.257469 m 4.516259,-2.39096 c 0.42506,-0.566747 1.08036,-1.115783 1.788793,-1.346023 1.044938,-0.354217 1.469999,0.495902 0.63759,0.779276 -0.690723,0.301084 -1.27518,0.726143 -1.771083,1.222047 m -14.398898,2.40867 c 0.265662,0.159391 0.63759,0.354218 1.186626,0.513614 -0.301084,0.247952 -0.584457,0.602169 -0.673012,0.991807 -0.478191,-0.336507 -0.67301,-0.956384 -0.513614,-1.505421 m 2.833733,0.938675 c 0,0.230239 -0.05314,0.460481 -0.123985,0.566746 -0.177103,0.283373 -0.832409,0.265662 -0.974097,-0.123985 -0.05314,-0.159391 -0.05314,-0.442771 0.01764,-0.708433 0.354215,0.08856 0.726143,0.159391 1.080358,0.265662 m 0.212531,0.05314 c 0.478192,0.141678 0.938673,0.301084 1.346023,0.566746 -0.08856,0.21253 -0.247952,0.425061 -0.566747,0.425061 -0.283374,0 -0.602169,-0.01764 -0.779276,-0.354218 -0.08856,-0.177103 -0.05314,-0.42506 0,-0.637589 m -2.001322,4.693367 c -0.05314,-0.495903 0,-0.920962 0.389638,-1.204336 0.194819,0.354217 0.407348,0.690722 0.6553,0.991807 v 0.123985 m 0.177103,-0.0088 v -0.557891 c 0,-0.584457 1.239757,-0.549034 1.257467,0 v 0.442771 m 0.159391,-0.01764 v -0.495903 c 0,-0.584457 1.434576,-0.549037 1.434576,-0.01764 v 0.389638"
       id="path3298-7"
       style="fill:#000000;stroke-width:0.0177108" />
  </g>
</svg>
