<?xml version="1.0" encoding="UTF-8" standalone="no"?>
<!-- Created with Inkscape (http://www.inkscape.org/) -->

<svg
   width="150mm"
   height="100mm"
   viewBox="0 0 150 100"
   version="1.1"
   id="svg5"
   inkscape:version="1.2 (dc2aedaf03, 2022-05-15)"
   sodipodi:docname="hunantoilers.svg"
   xmlns:inkscape="http://www.inkscape.org/namespaces/inkscape"
   xmlns:sodipodi="http://sodipodi.sourceforge.net/DTD/sodipodi-0.dtd"
   xmlns="http://www.w3.org/2000/svg"
   xmlns:svg="http://www.w3.org/2000/svg">
  <sodipodi:namedview
     id="namedview7"
     pagecolor="#ffffff"
     bordercolor="#666666"
     borderopacity="1.0"
     inkscape:showpageshadow="2"
     inkscape:pageopacity="0.0"
     inkscape:pagecheckerboard="0"
     inkscape:deskcolor="#d1d1d1"
     inkscape:document-units="mm"
     showgrid="false"
     inkscape:zoom="0.74564394"
     inkscape:cx="-6.0350521"
     inkscape:cy="210.55626"
     inkscape:window-width="1920"
     inkscape:window-height="1017"
     inkscape:window-x="-8"
     inkscape:window-y="-8"
     inkscape:window-maximized="1"
     inkscape:current-layer="layer1" />
  <defs
     id="defs2" />
  <g
     inkscape:label="Layer 1"
     inkscape:groupmode="layer"
     id="layer1"
     transform="translate(-10.645162,-60.677647)">
    <rect
       style="fill:#800000;fill-opacity:1;stroke:none;stroke-width:6.38754;stroke-linecap:round;stroke-linejoin:round"
       id="rect401"
       width="150"
       height="100"
       x="10.645162"
       y="60.677647" />
    <g
       transform="matrix(0.20217683,0,0,0.20217683,-2.9303336,10.661468)"
       id="layer1-3"
       style="fill:#39b939;fill-opacity:1">
      <g
         id="text3396"
         style="font-style:normal;font-variant:normal;font-weight:normal;font-stretch:normal;font-size:231.556px;line-height:125%;font-family:KaiTi;-inkscape-font-specification:'KaiTi, Normal';text-align:start;letter-spacing:0px;word-spacing:0px;writing-mode:lr-tb;text-anchor:start;fill:#39b939;fill-opacity:1;stroke:none;stroke-width:1px;stroke-linecap:butt;stroke-linejoin:miter;stroke-opacity:1">
        <path
           id="path3401"
           d="m 492.37999,562.53524 q 4.52258,-0.90452 9.04516,-2.71355 5.42709,-1.80903 10.85419,0.90452 5.4271,2.71354 -1.80903,6.33161 -6.33161,2.71355 -18.09032,1.80903 -0.90452,13.56774 -1.80903,28.04 7.23612,-0.90452 11.7587,-2.71355 5.4271,-1.80903 9.94968,1.80903 4.52258,2.71355 1.80903,5.4271 -1.80903,1.80903 -8.14064,2.71355 -6.33161,0.90451 -15.37677,0 -5.4271,32.56257 -17.18581,48.84386 -11.75871,16.28129 -24.42193,21.70839 -11.75871,6.33161 -0.90452,-4.52258 11.75871,-10.8542 20.80387,-31.65807 9.94968,-20.80386 11.75871,-59.69805 1.80903,-39.79871 -2.71355,-46.13032 -4.52258,-7.23613 -0.90452,-7.23613 4.52258,-0.90452 8.14065,0 4.52258,0.90452 17.1858,-1.80903 12.66323,-3.61807 15.37678,-6.33161 2.71354,-2.71355 9.04516,-0.90452 6.33161,1.80903 11.75871,6.33161 6.33161,4.52258 3.61806,9.04516 -2.71355,4.52258 -4.52258,17.18581 -1.80903,11.75871 -1.80903,35.27612 0,22.6129 0.90451,40.70322 1.80904,18.09033 1.80904,29.84903 0,10.8542 -2.71355,18.99484 -1.80903,8.14064 -6.33162,12.66323 -4.52258,4.52258 -7.23612,-5.4271 -2.71355,-9.94968 -13.56774,-18.99484 -10.8542,-9.94967 0,-6.33161 10.85419,2.71355 12.66322,2.71355 2.71355,-0.90452 2.71355,-10.85419 0.90451,-9.94968 0.90451,-48.84387 0,-39.79871 -1.80903,-55.17548 -0.90451,-15.37677 -6.33161,-15.37677 -4.52258,0 -24.42193,5.42709 z m -41.60774,62.4116 q 8.14064,8.14065 -1.80903,9.04516 -9.94968,0.90452 -32.56258,5.4271 -1.80903,11.75871 -4.52258,13.56774 -1.80903,0.90452 -3.61806,-7.23613 -1.80904,-8.14064 -4.52258,-23.51741 -1.80904,-16.28129 -6.33162,-21.70839 -3.61806,-5.4271 0.90452,-5.4271 5.4271,0 9.94968,1.80904 4.52258,0.90451 18.99483,-1.80904 2.71355,-11.7587 5.4271,-29.84902 -6.33161,0.90451 -13.56774,1.80903 -6.33161,0 -11.75871,-3.61807 -4.52258,-3.61806 2.71355,-4.52258 7.23613,-1.80903 24.42193,-6.33161 3.61806,-18.99484 5.4271,-35.27612 1.80903,-16.28129 -1.80904,-22.61291 -2.71354,-7.23612 4.52259,-5.42709 7.23612,1.80903 12.66322,5.42709 6.33161,3.61807 2.71355,9.04516 -3.61807,5.4271 -10.85419,45.22581 l 14.47225,-3.61807 q 5.4271,-1.80903 9.94968,1.80903 5.42709,3.61807 0,6.33162 -5.4271,2.71355 -26.23097,9.04516 -3.61806,15.37677 -8.14064,29.84903 7.23613,-1.80904 9.94968,-3.61807 3.61806,-2.71355 8.14064,0 5.4271,1.80903 9.04516,5.4271 4.52258,3.61806 -0.90452,8.14064 -5.42709,4.52258 -12.66322,22.6129 z m -67.8387,0 q -4.52258,15.37678 -6.33162,30.75355 -0.90451,14.47226 -8.14064,8.14064 -6.33161,-6.33161 -9.94968,-14.47225 -2.71354,-8.14065 0.90452,-9.94968 4.52258,-1.80903 10.85419,-12.66322 7.23613,-11.75871 14.47226,-28.04 8.14064,-16.28129 5.42709,-2.71355 -1.80903,12.66323 -7.23612,28.94451 z m 29.84903,-18.99483 q 0.90451,14.47225 1.80903,26.23096 13.56774,-2.71355 28.04,-6.33161 0.90451,-11.75871 1.80903,-18.99484 0.90451,-8.14064 -6.33162,-7.23612 -6.33161,0.90451 -25.32644,6.33161 z m -24.42194,-75.07483 q -10.85419,-12.66323 -12.66322,-17.18581 -0.90452,-5.4271 9.04516,-2.71355 10.85419,1.80904 15.37677,7.23613 4.52258,4.52258 1.80903,14.47226 -2.71354,9.94967 -13.56774,-1.80903 z m -31.65806,33.46709 q -4.52258,-7.23613 1.80903,-6.33161 7.23613,0 13.56774,2.71355 7.23613,2.71354 9.04516,8.14064 1.80904,4.52258 -0.90451,11.75871 -2.71355,6.33161 -10.85419,-0.90452 -8.14065,-8.14064 -12.66323,-15.37677 z"
           style="fill:#39b939;fill-opacity:1" />
        <path
           id="path3403"
           d="m 686.85094,529.97266 q 14.47225,-2.71355 23.51741,-5.4271 9.94968,-2.71354 15.37678,2.71355 5.42709,4.52258 -7.23613,8.14065 -11.75871,3.61806 -34.37161,7.23612 -3.61807,11.75871 -6.33161,23.51742 27.13548,-4.52258 38.89419,-6.33161 12.66322,-2.71355 19.89935,-5.4271 7.23613,-2.71355 13.56774,0.90452 6.33161,2.71355 14.47226,9.04516 9.04516,5.4271 2.71354,13.56774 -6.33161,7.23613 -6.33161,41.60774 0,33.46709 -1.80903,46.13032 -1.80903,12.66322 -9.94968,23.51741 -7.23613,10.8542 -11.75871,0 -4.52258,-10.85419 -16.28128,-20.80387 -10.8542,-10.85419 0,-6.33161 11.7587,3.61807 16.28128,3.61807 4.52258,-0.90452 6.33162,-8.14065 1.80903,-8.14064 2.71354,-25.32645 1.80904,-18.09032 1.80904,-31.65806 0.90451,-13.56774 -0.90452,-23.51742 -1.80903,-9.94967 -9.04516,-11.7587 -6.33161,-1.80904 -16.28129,0 -9.04516,1.80903 -24.42193,4.52258 9.04516,5.42709 4.52258,9.94967 -3.61807,4.52258 -13.56774,20.80387 7.23613,-1.80903 13.56774,-3.61806 7.23613,-2.71355 11.75871,1.80903 4.52258,4.52258 -3.61807,7.23613 -8.14064,2.71355 -29.84903,7.23613 3.61807,5.42709 2.71355,9.04516 -0.90451,3.61806 -0.90451,8.14064 16.28128,-4.52258 24.42193,-7.23613 8.14064,-2.71355 15.37677,2.71355 7.23613,5.4271 -5.42709,7.23613 -11.75871,1.80903 -34.37161,6.33161 0,21.70839 -1.80904,33.46709 -0.90451,10.8542 -3.61806,12.66323 -2.71355,2.71355 -5.4271,-8.14065 -1.80903,-10.85419 -1.80903,-35.27612 -15.37677,3.61806 -22.6129,5.4271 -7.23613,1.80903 -14.47226,-1.80904 -6.33161,-4.52258 0.90452,-5.42709 8.14064,-0.90452 36.18064,-7.23613 0,-9.94968 -1.80903,-17.18581 -9.04516,2.71355 -14.47226,3.61807 -4.52258,0 -10.85419,-2.71355 -6.33161,-3.61806 2.71355,-4.52258 9.04516,-1.80903 35.27612,-9.04516 8.14065,-23.51742 3.61807,-31.65806 -28.04,4.52258 -67.83871,12.66322 0.90452,28.04 1.80904,56.08 0.90451,27.13548 -1.80904,36.18064 -2.71354,9.04516 -8.14064,-1.80903 -4.52258,-9.94968 -2.71355,-20.80387 2.71355,-10.85419 1.80903,-36.18064 -0.90451,-25.32645 -7.23612,-33.4671 -5.4271,-9.04516 0.90451,-9.04516 6.33161,0 11.75871,0.90452 5.4271,0.90451 54.27096,-8.14065 3.61807,-14.47225 5.4271,-23.51741 -9.04516,0.90451 -15.37677,0.90451 -6.33162,-0.90451 -14.47226,-3.61806 -8.14064,-3.61807 0.90452,-4.52258 9.04516,-0.90452 30.75354,-4.52258 6.33161,-30.75355 1.80903,-37.98968 -3.61806,-7.23612 3.61807,-5.42709 8.14064,1.80903 14.47225,6.33161 7.23613,3.61806 2.71355,9.04516 -4.52258,4.52258 -9.94967,25.32645 z m -40.70323,55.17548 q -1.80903,-8.14065 7.23613,-2.71355 9.94968,4.52258 9.94968,11.75871 0,6.33161 -3.61807,8.14064 -2.71354,1.80904 -7.23612,-3.61806 -3.61807,-6.33161 -6.33162,-13.56774 z"
           style="fill:#39b939;fill-opacity:1" />
      </g>
    </g>
    <path
       id="path16"
       inkscape:connector-curvature="0"
       fill="#da251d"
       d="m 39.181032,66.498481 c 8.217782,0.05436 15.913051,6.58444 16.930172,14.809818 0.852592,4.383921 -0.625005,8.7317 -2.865056,12.445681 1.008523,1.038721 2.024822,2.071126 3.054391,3.090537 -1.420679,1.43065 -2.840625,2.861673 -4.271275,4.282353 -1.019044,-1.03854 -2.046783,-2.066644 -3.090259,-3.07892 -4.167688,2.62412 -9.321109,3.80907 -14.171453,2.67582 -3.599049,-0.64514 -6.644561,-2.830285 -9.415637,-5.094861 -2.009263,1.742606 -4.033992,3.467277 -6.041882,5.211441 -0.992965,-1.17973 -1.996727,-2.348764 -2.982645,-3.533165 2.877226,-2.593548 5.745668,-5.213267 8.830803,-7.559926 3.332667,3.279594 7.77122,5.440851 12.487228,5.563932 2.436702,0.323027 4.781437,-0.628851 6.964659,-1.580359 -3.853444,-3.905789 -7.844884,-7.674496 -11.649005,-11.630249 -1.159419,1.122907 -2.309871,2.254875 -3.466453,3.38071 -1.591617,-1.6532 -3.228621,-3.261108 -4.824813,-4.909366 3.026844,-2.562528 8.548406,-8.253929 8.548406,-8.253929 l 8.345256,1.321755 c 0,0 -2.914928,2.714524 -4.311996,4.134101 3.856921,3.912834 7.729766,7.810845 11.661177,11.649464 3.159989,-5.967029 1.26987,-13.557881 -3.238322,-18.301435 -1.764202,-2.049343 -4.179857,-3.312261 -6.493296,-4.623402 z"
       style="fill:#39b939;fill-opacity:1;stroke-width:0.0915089" />
  </g>
</svg>
