<?xml version="1.0" encoding="UTF-8" standalone="no"?>
<!-- Created with Inkscape (http://www.inkscape.org/) -->

<svg
   width="150mm"
   height="150mm"
   viewBox="0 0 150 150"
   version="1.1"
   id="svg5"
   xml:space="preserve"
   inkscape:version="1.2 (dc2aedaf03, 2022-05-15)"
   sodipodi:docname="Ranch.svg"
   xmlns:inkscape="http://www.inkscape.org/namespaces/inkscape"
   xmlns:sodipodi="http://sodipodi.sourceforge.net/DTD/sodipodi-0.dtd"
   xmlns="http://www.w3.org/2000/svg"
   xmlns:svg="http://www.w3.org/2000/svg"><sodipodi:namedview
     id="namedview7"
     pagecolor="#ffffff"
     bordercolor="#666666"
     borderopacity="1.0"
     inkscape:showpageshadow="2"
     inkscape:pageopacity="0.0"
     inkscape:pagecheckerboard="0"
     inkscape:deskcolor="#d1d1d1"
     inkscape:document-units="mm"
     showgrid="false"
     inkscape:zoom="0.52724989"
     inkscape:cx="-244.66577"
     inkscape:cy="381.22341"
     inkscape:window-width="1920"
     inkscape:window-height="1017"
     inkscape:window-x="-8"
     inkscape:window-y="-8"
     inkscape:window-maximized="1"
     inkscape:current-layer="layer1" /><defs
     id="defs2" /><g
     inkscape:label="Layer 1"
     inkscape:groupmode="layer"
     id="layer1"
     transform="translate(-306.1088,-73.767204)"><g
       id="g1925"
       transform="matrix(0.8181625,0,0,0.8181625,280.94138,80.048782)"><path
         id="rect1593"
         style="fill:#945d39;stroke-width:5.64075;stroke-linecap:round;paint-order:markers stroke fill"
         d="m 94.793396,63.795685 55.272664,5.291667 c 5.51478,0.527971 10,0.384697 10,7.435606 v 9.672697 c 0,7.050909 -4.46,13.25644 -10,13.25644 -10.08596,0 -19.76665,4.915145 -29.88072,4.762495 -8.64484,-0.13047 -25.391944,-5.291662 -25.391944,-5.291662 -5.42348,-1.13025 -10,-5.676364 -10,-12.727273 v -9.672697 c 0,-7.050909 4.485216,-13.255245 10,-12.727273 z"
         sodipodi:nodetypes="ssssssssss" /><path
         style="fill:none;stroke:#999999;stroke-width:5;stroke-linecap:round;stroke-linejoin:miter;stroke-dasharray:none;stroke-opacity:1"
         d="m 60,50.387096 c 0,0 2.473344,5.228082 4.708333,6.879167 4.294056,3.172209 9.952956,4.762499 15.291667,4.762499 5.338711,0 10.997611,-1.59029 15.291667,-4.762499 C 97.526656,55.615178 100,50.387096 100,50.387096"
         id="path403"
         sodipodi:nodetypes="caaac" /><path
         id="rect1113"
         style="fill:#a76940;fill-opacity:1;stroke-width:3;stroke-linecap:round;paint-order:markers stroke fill"
         d="m 74.370964,53.935482 h 11.82258 c 2.77,0 5.334376,2.250256 5,5 l -2.645833,21.758064 c -0.334376,2.749744 -2.23,5 -5,5 h -6.530914 c -2.77,0 -4.665624,-2.250256 -5,-5 L 69.370964,58.935482 c -0.334376,-2.749744 2.23,-5 5,-5 z"
         sodipodi:nodetypes="sssssssss" /><ellipse
         style="fill:#000000;stroke:none;stroke-width:3;stroke-linecap:round;stroke-linejoin:miter;stroke-dasharray:none;paint-order:markers stroke fill"
         id="path1335"
         cx="73.362907"
         cy="64.976349"
         rx="1.3306452"
         ry="2.6612904" /><ellipse
         style="fill:#000000;stroke:none;stroke-width:3;stroke-linecap:round;stroke-linejoin:miter;stroke-dasharray:none;paint-order:markers stroke fill"
         id="path1335-1"
         cx="86.935486"
         cy="64.976349"
         rx="1.3306452"
         ry="2.6612904" /><rect
         style="fill:#803300;stroke:none;stroke-width:3.92308;stroke-linecap:round;stroke-linejoin:miter;stroke-dasharray:none;paint-order:markers stroke fill"
         id="rect1411"
         width="15.080646"
         height="6.4428391"
         x="72.741928"
         y="81.359306"
         rx="2.6153846"
         ry="2.6153846" /><circle
         style="fill:#000000;stroke:none;stroke-width:3;stroke-linecap:round;stroke-linejoin:miter;stroke-dasharray:none;paint-order:markers stroke fill"
         id="path1517"
         cx="76.1129"
         cy="84.580727"
         r="1.1532258" /><circle
         style="fill:#000000;stroke:none;stroke-width:3;stroke-linecap:round;stroke-linejoin:miter;stroke-dasharray:none;paint-order:markers stroke fill"
         id="path1517-6"
         cx="84.274193"
         cy="84.580727"
         r="1.1532258" /><path
         id="rect1648-4"
         style="fill:#945d39;stroke-width:4.99999;stroke-linecap:round;paint-order:markers stroke fill"
         d="m 149.08945,85.693546 c -1.56448,0 -3.31247,2.27341 -2.82397,5 l 5.29166,29.535704 c 0.4885,2.72659 1.2595,5 2.82398,5 1.56449,0 2.82398,-2.23 2.82398,-5 V 90.693546 c 0,-2.77 -6.55116,-5 -8.11565,-5 z"
         sodipodi:nodetypes="sssssss" /><path
         style="fill:#000000;stroke:none;stroke-width:0.264583px;stroke-linecap:butt;stroke-linejoin:miter;stroke-opacity:1"
         d="m 149.57607,125.22925 h 8.87097 c 0,0 0.002,-3.57497 -2.75,-3.80753 -3.32366,-0.28092 -6.12097,3.80753 -6.12097,3.80753 z"
         id="path1681-1"
         sodipodi:nodetypes="ccsc" /><path
         id="rect1648-4-1"
         style="fill:#945d39;stroke-width:4.99999;stroke-linecap:round;paint-order:markers stroke fill"
         d="m 100.22772,85.693542 c 1.56448,0 3.31247,2.27341 2.82397,5 l -5.291662,29.535708 c -0.4885,2.72659 -1.2595,5 -2.82398,5 -1.564482,0 -2.823972,-2.23 -2.823972,-5 V 90.693542 c 0,-2.77 6.551152,-5 8.115644,-5 z"
         sodipodi:nodetypes="sssssss" /><path
         style="fill:#000000;stroke:none;stroke-width:0.264583px;stroke-linecap:butt;stroke-linejoin:miter;stroke-opacity:1"
         d="m 89.282635,125.22925 h 8.870962 c 0,0 0.002,-3.57497 -2.75,-3.80753 -3.323652,-0.28092 -6.120962,3.80753 -6.120962,3.80753 z"
         id="path1681-1-5"
         sodipodi:nodetypes="ccsc" /></g><g
       id="g1911"
       transform="matrix(0.6560875,0,0,0.6560875,324.59531,76.04985)"><rect
         style="fill:#2b1100;fill-opacity:1;stroke:none;stroke-width:4.99999;stroke-linecap:round;stroke-linejoin:miter;stroke-dasharray:none;paint-order:markers stroke fill"
         id="rect1817"
         width="6.7419353"
         height="72.136765"
         x="-6.7419353"
         y="110.83485"
         rx="2"
         ry="2" /><rect
         style="fill:#2b1100;fill-opacity:1;stroke:none;stroke-width:4.99999;stroke-linecap:round;stroke-linejoin:miter;stroke-dasharray:none;paint-order:markers stroke fill"
         id="rect1817-6"
         width="6.7419353"
         height="72.136765"
         x="36.326614"
         y="110.83485"
         rx="2"
         ry="2" /><rect
         style="fill:#2b1100;fill-opacity:1;stroke:none;stroke-width:4.99999;stroke-linecap:round;stroke-linejoin:miter;stroke-dasharray:none;paint-order:markers stroke fill"
         id="rect1817-4"
         width="6.7419353"
         height="72.136765"
         x="79.395164"
         y="110.83485"
         rx="2"
         ry="2" /><rect
         style="fill:#2b1100;fill-opacity:1;stroke:none;stroke-width:4.99999;stroke-linecap:round;stroke-linejoin:miter;stroke-dasharray:none;paint-order:markers stroke fill"
         id="rect1817-7"
         width="6.7419353"
         height="72.136765"
         x="122.46371"
         y="110.83485"
         rx="2"
         ry="2" /><rect
         style="fill:#2b1100;fill-opacity:1;stroke:none;stroke-width:4.99999;stroke-linecap:round;stroke-linejoin:miter;stroke-dasharray:none;paint-order:markers stroke fill"
         id="rect1817-1"
         width="6.7419353"
         height="72.136765"
         x="165.53226"
         y="110.83485"
         rx="2"
         ry="2" /><rect
         style="fill:#2b1100;fill-opacity:1;stroke:none;stroke-width:4.99999;stroke-linecap:round;stroke-linejoin:miter;stroke-dasharray:none;paint-order:markers stroke fill"
         id="rect1880"
         width="196.93547"
         height="7.7534113"
         x="-14.193548"
         y="126.69955"
         rx="2"
         ry="2" /><rect
         style="fill:#2b1100;fill-opacity:1;stroke:none;stroke-width:4.99999;stroke-linecap:round;stroke-linejoin:miter;stroke-dasharray:none;paint-order:markers stroke fill"
         id="rect1880-6"
         width="196.93547"
         height="7.7534113"
         x="-15.701603"
         y="150.12329"
         rx="2"
         ry="2" /></g></g></svg>
