<?xml version="1.0" encoding="UTF-8" standalone="no"?>
<!-- Created with Inkscape (http://www.inkscape.org/) -->

<svg
   width="150mm"
   height="150mm"
   viewBox="0 0 150 150"
   version="1.1"
   id="svg5"
   xml:space="preserve"
   inkscape:version="1.3 (0e150ed6c4, 2023-07-21)"
   sodipodi:docname="Ranch.svg"
   xmlns:inkscape="http://www.inkscape.org/namespaces/inkscape"
   xmlns:sodipodi="http://sodipodi.sourceforge.net/DTD/sodipodi-0.dtd"
   xmlns="http://www.w3.org/2000/svg"
   xmlns:svg="http://www.w3.org/2000/svg"><sodipodi:namedview
     id="namedview7"
     pagecolor="#ffffff"
     bordercolor="#666666"
     borderopacity="1.0"
     inkscape:showpageshadow="2"
     inkscape:pageopacity="0.0"
     inkscape:pagecheckerboard="0"
     inkscape:deskcolor="#d1d1d1"
     inkscape:document-units="mm"
     showgrid="false"
     inkscape:zoom="0.52724989"
     inkscape:cx="-245.61409"
     inkscape:cy="380.27509"
     inkscape:window-width="1920"
     inkscape:window-height="1017"
     inkscape:window-x="-8"
     inkscape:window-y="-8"
     inkscape:window-maximized="1"
     inkscape:current-layer="g15" /><defs
     id="defs2" /><g
     inkscape:label="shadow"
     inkscape:groupmode="layer"
     id="g15"
     transform="translate(-306.1088,-73.767204)"><path
       id="path1"
       style="fill:#000000;stroke-width:5;stroke-linecap:round;paint-order:markers stroke fill;stroke:#000000;stroke-dasharray:none"
       d="M 330.1988 119.23471 A 2.0454049 2.0454049 0 0 0 329.15649 119.42385 A 2.0454049 2.0454049 0 0 0 328.18187 122.14823 C 328.18187 122.14823 328.72367 123.2969 329.51151 124.62508 C 330.29935 125.95326 331.21376 127.47258 332.6679 128.54681 C 334.31609 129.76439 336.15262 130.71148 338.07946 131.40555 L 339.86281 146.06925 C 339.9543 146.82158 340.19136 147.52584 340.54752 148.13321 C 340.48848 148.32956 340.45606 148.53775 340.45606 148.75384 L 340.45606 149.74551 C 340.45606 150.93097 341.41053 151.88543 342.59598 151.88543 L 348.4287 151.88543 L 348.4287 159.17594 L 324.59553 159.17594 L 324.59553 150.07934 C 324.59553 149.35239 324.00989 148.76728 323.28295 148.76728 L 321.48409 148.76728 C 320.75715 148.76728 320.17202 149.35239 320.17202 150.07934 L 320.17202 159.17594 L 316.5955 159.17594 C 315.86855 159.17594 315.28292 159.76106 315.28292 160.48801 L 315.28292 162.95039 C 315.28292 163.67734 315.86855 164.26297 316.5955 164.26297 L 320.17202 164.26297 L 320.17202 174.544 L 315.60589 174.544 C 314.87895 174.544 314.29383 175.12912 314.29383 175.85606 L 314.29383 178.31845 C 314.29383 179.04539 314.87895 179.63103 315.60589 179.63103 L 320.17202 179.63103 L 320.17202 194.78307 C 320.17202 195.51001 320.75715 196.09514 321.48409 196.09514 L 323.28295 196.09514 C 324.00989 196.09514 324.59553 195.51001 324.59553 194.78307 L 324.59553 179.63103 L 348.4287 179.63103 L 348.4287 194.78307 C 348.4287 195.51001 349.01381 196.09514 349.74076 196.09514 L 351.53962 196.09514 C 352.26656 196.09514 352.8522 195.51001 352.8522 194.78307 L 352.8522 179.63103 L 356.40702 179.63103 C 356.43444 179.78833 356.46879 179.9399 356.50624 180.08836 C 355.0141 181.01064 353.98908 182.50682 353.98908 182.50682 L 361.24704 182.50682 C 361.24704 182.50682 361.24774 181.11967 360.51271 180.19378 C 360.56664 180.01292 360.61724 179.82506 360.66516 179.63103 L 376.68537 179.63103 L 376.68537 194.78307 C 376.68537 195.51001 377.2705 196.09514 377.99744 196.09514 L 379.79681 196.09514 C 380.52376 196.09514 381.10887 195.51001 381.10887 194.78307 L 381.10887 179.63103 L 404.94204 179.63103 L 404.94204 180.7431 C 403.9499 181.58547 403.31889 182.50682 403.31889 182.50682 L 404.94204 182.50682 L 404.94204 194.78307 C 404.94204 195.51001 405.52768 196.09514 406.25463 196.09514 L 408.05348 196.09514 C 408.78043 196.09514 409.36555 195.51001 409.36555 194.78307 L 409.36555 182.50682 L 410.57684 182.50682 C 410.57684 182.50682 410.57664 180.63667 409.42497 179.79019 C 409.43565 179.73696 409.44808 179.68525 409.45753 179.63103 L 433.19872 179.63103 L 433.19872 194.78307 C 433.19872 195.51001 433.78435 196.09514 434.5113 196.09514 L 436.31015 196.09514 C 437.03709 196.09514 437.62222 195.51001 437.62222 194.78307 L 437.62222 179.63103 L 442.18835 179.63103 C 442.91529 179.63103 443.50041 179.04539 443.50041 178.31845 L 443.50041 175.85606 C 443.50041 175.12912 442.91529 174.544 442.18835 174.544 L 437.62222 174.544 L 437.62222 164.26297 L 443.17795 164.26297 C 443.9049 164.26297 444.49002 163.67734 444.49002 162.95039 L 444.49002 160.48801 C 444.49002 159.76106 443.9049 159.17594 443.17795 159.17594 L 437.62222 159.17594 L 437.62222 150.07934 C 437.62222 149.35239 437.03709 148.76728 436.31015 148.76728 L 434.5113 148.76728 C 433.78435 148.76728 433.19872 149.35239 433.19872 150.07934 L 433.19872 159.17594 L 409.56088 159.17594 L 409.56088 158.08195 C 411.00844 156.09845 411.90131 153.42051 411.90131 150.57078 L 411.90131 142.65706 C 411.90131 136.88827 408.23188 137.00568 403.7199 136.57371 L 358.49785 132.24425 C 357.23191 132.12306 356.03715 132.44745 354.96628 133.0871 L 355.19263 131.22726 C 356.94327 130.5519 358.61098 129.66233 360.12101 128.54681 C 361.57516 127.47258 362.48956 125.95326 363.2774 124.62508 C 364.06524 123.2969 364.60755 122.14823 364.60755 122.14823 A 2.0454049 2.0454049 0 0 0 363.63294 119.42385 A 2.0454049 2.0454049 0 0 0 360.90804 120.39847 C 360.90804 120.39847 360.43883 121.38911 359.75772 122.53735 C 359.07662 123.68559 358.06407 124.97944 357.68963 125.25605 C 356.96704 125.78986 356.17867 126.26274 355.34714 126.67819 C 354.76588 125.21185 353.1609 124.17653 351.46159 124.17653 L 341.78879 124.17653 C 340.01686 124.17653 338.35332 125.30415 337.8402 126.87042 C 336.86101 126.41135 335.93677 125.87436 335.0998 125.25605 C 334.72536 124.97944 333.71229 123.68559 333.03119 122.53735 C 332.35009 121.38911 331.88087 120.39847 331.88087 120.39847 A 2.0454049 2.0454049 0 0 0 330.72073 119.34788 A 2.0454049 2.0454049 0 0 0 330.1988 119.23471 z M 352.8522 157.71195 C 353.33237 158.26236 353.86737 158.75035 354.44487 159.17594 L 352.8522 159.17594 L 352.8522 157.71195 z M 324.59553 164.26297 L 348.4287 164.26297 L 348.4287 174.544 L 324.59553 174.544 L 324.59553 164.26297 z M 352.8522 164.26297 L 356.30419 164.26297 L 356.30419 174.544 L 352.8522 174.544 L 352.8522 164.26297 z M 363.46085 164.26297 L 371.32497 164.26297 C 373.18126 164.6379 375.01704 164.94476 376.68537 165.12959 L 376.68537 174.544 L 361.61859 174.544 L 363.46085 164.26297 z M 387.87952 164.26297 L 402.40421 164.26297 L 404.24648 174.544 L 381.10887 174.544 L 381.10887 165.27015 C 383.38404 165.14691 385.63629 164.75501 387.87952 164.26297 z M 409.56088 164.26297 L 433.19872 164.26297 L 433.19872 174.544 L 409.56088 174.544 L 409.56088 164.26297 z " /></g><g
     inkscape:label="Layer 1"
     inkscape:groupmode="layer"
     id="layer1"
     transform="translate(-306.1088,-73.767204)"><g
       id="g1925"
       transform="matrix(0.8181625,0,0,0.8181625,280.94138,80.048782)"><path
         id="rect1593"
         style="fill:#945d39;stroke-width:5.64075;stroke-linecap:round;paint-order:markers stroke fill"
         d="m 94.793396,63.795685 55.272664,5.291667 c 5.51478,0.527971 10,0.384697 10,7.435606 v 9.672697 c 0,7.050909 -4.46,13.25644 -10,13.25644 -10.08596,0 -19.76665,4.915145 -29.88072,4.762495 -8.64484,-0.13047 -25.391944,-5.291662 -25.391944,-5.291662 -5.42348,-1.13025 -10,-5.676364 -10,-12.727273 v -9.672697 c 0,-7.050909 4.485216,-13.255245 10,-12.727273 z"
         sodipodi:nodetypes="ssssssssss" /><path
         style="fill:none;stroke:#999999;stroke-width:5;stroke-linecap:round;stroke-linejoin:miter;stroke-dasharray:none;stroke-opacity:1"
         d="m 60,50.387096 c 0,0 2.473344,5.228082 4.708333,6.879167 4.294056,3.172209 9.952956,4.762499 15.291667,4.762499 5.338711,0 10.997611,-1.59029 15.291667,-4.762499 C 97.526656,55.615178 100,50.387096 100,50.387096"
         id="path403"
         sodipodi:nodetypes="caaac" /><path
         id="rect1113"
         style="fill:#a76940;fill-opacity:1;stroke-width:3;stroke-linecap:round;paint-order:markers stroke fill"
         d="m 74.370964,53.935482 h 11.82258 c 2.77,0 5.334376,2.250256 5,5 l -2.645833,21.758064 c -0.334376,2.749744 -2.23,5 -5,5 h -6.530914 c -2.77,0 -4.665624,-2.250256 -5,-5 L 69.370964,58.935482 c -0.334376,-2.749744 2.23,-5 5,-5 z"
         sodipodi:nodetypes="sssssssss" /><ellipse
         style="fill:#000000;stroke:none;stroke-width:3;stroke-linecap:round;stroke-linejoin:miter;stroke-dasharray:none;paint-order:markers stroke fill"
         id="path1335"
         cx="73.362907"
         cy="64.976349"
         rx="1.3306452"
         ry="2.6612904" /><ellipse
         style="fill:#000000;stroke:none;stroke-width:3;stroke-linecap:round;stroke-linejoin:miter;stroke-dasharray:none;paint-order:markers stroke fill"
         id="path1335-1"
         cx="86.935486"
         cy="64.976349"
         rx="1.3306452"
         ry="2.6612904" /><rect
         style="fill:#803300;stroke:none;stroke-width:3.92308;stroke-linecap:round;stroke-linejoin:miter;stroke-dasharray:none;paint-order:markers stroke fill"
         id="rect1411"
         width="15.080646"
         height="6.4428391"
         x="72.741928"
         y="81.359306"
         rx="2.6153846"
         ry="2.6153846" /><circle
         style="fill:#000000;stroke:none;stroke-width:3;stroke-linecap:round;stroke-linejoin:miter;stroke-dasharray:none;paint-order:markers stroke fill"
         id="path1517"
         cx="76.1129"
         cy="84.580727"
         r="1.1532258" /><circle
         style="fill:#000000;stroke:none;stroke-width:3;stroke-linecap:round;stroke-linejoin:miter;stroke-dasharray:none;paint-order:markers stroke fill"
         id="path1517-6"
         cx="84.274193"
         cy="84.580727"
         r="1.1532258" /><path
         id="rect1648-4"
         style="fill:#945d39;stroke-width:4.99999;stroke-linecap:round;paint-order:markers stroke fill"
         d="m 149.08945,85.693546 c -1.56448,0 -3.31247,2.27341 -2.82397,5 l 5.29166,29.535704 c 0.4885,2.72659 1.2595,5 2.82398,5 1.56449,0 2.82398,-2.23 2.82398,-5 V 90.693546 c 0,-2.77 -6.55116,-5 -8.11565,-5 z"
         sodipodi:nodetypes="sssssss" /><path
         style="fill:#000000;stroke:none;stroke-width:0.264583px;stroke-linecap:butt;stroke-linejoin:miter;stroke-opacity:1"
         d="m 149.57607,125.22925 h 8.87097 c 0,0 0.002,-3.57497 -2.75,-3.80753 -3.32366,-0.28092 -6.12097,3.80753 -6.12097,3.80753 z"
         id="path1681-1"
         sodipodi:nodetypes="ccsc" /><path
         id="rect1648-4-1"
         style="fill:#945d39;stroke-width:4.99999;stroke-linecap:round;paint-order:markers stroke fill"
         d="m 100.22772,85.693542 c 1.56448,0 3.31247,2.27341 2.82397,5 l -5.291662,29.535708 c -0.4885,2.72659 -1.2595,5 -2.82398,5 -1.564482,0 -2.823972,-2.23 -2.823972,-5 V 90.693542 c 0,-2.77 6.551152,-5 8.115644,-5 z"
         sodipodi:nodetypes="sssssss" /><path
         style="fill:#000000;stroke:none;stroke-width:0.264583px;stroke-linecap:butt;stroke-linejoin:miter;stroke-opacity:1"
         d="m 89.282635,125.22925 h 8.870962 c 0,0 0.002,-3.57497 -2.75,-3.80753 -3.323652,-0.28092 -6.120962,3.80753 -6.120962,3.80753 z"
         id="path1681-1-5"
         sodipodi:nodetypes="ccsc" /></g><g
       id="g1911"
       transform="matrix(0.6560875,0,0,0.6560875,324.59531,76.04985)"><rect
         style="fill:#2b1100;fill-opacity:1;stroke:none;stroke-width:4.99999;stroke-linecap:round;stroke-linejoin:miter;stroke-dasharray:none;paint-order:markers stroke fill"
         id="rect1817"
         width="6.7419353"
         height="72.136765"
         x="-6.7419353"
         y="110.83485"
         rx="2"
         ry="2" /><rect
         style="fill:#2b1100;fill-opacity:1;stroke:none;stroke-width:4.99999;stroke-linecap:round;stroke-linejoin:miter;stroke-dasharray:none;paint-order:markers stroke fill"
         id="rect1817-6"
         width="6.7419353"
         height="72.136765"
         x="36.326614"
         y="110.83485"
         rx="2"
         ry="2" /><rect
         style="fill:#2b1100;fill-opacity:1;stroke:none;stroke-width:4.99999;stroke-linecap:round;stroke-linejoin:miter;stroke-dasharray:none;paint-order:markers stroke fill"
         id="rect1817-4"
         width="6.7419353"
         height="72.136765"
         x="79.395164"
         y="110.83485"
         rx="2"
         ry="2" /><rect
         style="fill:#2b1100;fill-opacity:1;stroke:none;stroke-width:4.99999;stroke-linecap:round;stroke-linejoin:miter;stroke-dasharray:none;paint-order:markers stroke fill"
         id="rect1817-7"
         width="6.7419353"
         height="72.136765"
         x="122.46371"
         y="110.83485"
         rx="2"
         ry="2" /><rect
         style="fill:#2b1100;fill-opacity:1;stroke:none;stroke-width:4.99999;stroke-linecap:round;stroke-linejoin:miter;stroke-dasharray:none;paint-order:markers stroke fill"
         id="rect1817-1"
         width="6.7419353"
         height="72.136765"
         x="165.53226"
         y="110.83485"
         rx="2"
         ry="2" /><rect
         style="fill:#2b1100;fill-opacity:1;stroke:none;stroke-width:4.99999;stroke-linecap:round;stroke-linejoin:miter;stroke-dasharray:none;paint-order:markers stroke fill"
         id="rect1880"
         width="196.93547"
         height="7.7534113"
         x="-14.193548"
         y="126.69955"
         rx="2"
         ry="2" /><rect
         style="fill:#2b1100;fill-opacity:1;stroke:none;stroke-width:4.99999;stroke-linecap:round;stroke-linejoin:miter;stroke-dasharray:none;paint-order:markers stroke fill"
         id="rect1880-6"
         width="196.93547"
         height="7.7534113"
         x="-15.701603"
         y="150.12329"
         rx="2"
         ry="2" /></g></g></svg>
