<?xml version="1.0" encoding="UTF-8" standalone="no"?>
<!-- Created with Inkscape (http://www.inkscape.org/) -->

<svg
   width="100mm"
   height="100mm"
   viewBox="0 0 100 100"
   version="1.1"
   id="svg267"
   xml:space="preserve"
   inkscape:version="1.2 (dc2aedaf03, 2022-05-15)"
   sodipodi:docname="Workshop.svg"
   xmlns:inkscape="http://www.inkscape.org/namespaces/inkscape"
   xmlns:sodipodi="http://sodipodi.sourceforge.net/DTD/sodipodi-0.dtd"
   xmlns="http://www.w3.org/2000/svg"
   xmlns:svg="http://www.w3.org/2000/svg"><sodipodi:namedview
     id="namedview269"
     pagecolor="#ffffff"
     bordercolor="#666666"
     borderopacity="1.0"
     inkscape:showpageshadow="2"
     inkscape:pageopacity="0.0"
     inkscape:pagecheckerboard="0"
     inkscape:deskcolor="#d1d1d1"
     inkscape:document-units="mm"
     showgrid="false"
     inkscape:zoom="0.067953502"
     inkscape:cx="-5577.3431"
     inkscape:cy="735.79725"
     inkscape:window-width="1920"
     inkscape:window-height="1017"
     inkscape:window-x="-8"
     inkscape:window-y="-8"
     inkscape:window-maximized="1"
     inkscape:current-layer="layer1" /><defs
     id="defs264" /><g
     inkscape:label="Layer 1"
     inkscape:groupmode="layer"
     id="layer1"
     transform="translate(307.59387,-99.286636)"><rect
       style="fill:#b3b3b3;fill-opacity:1;stroke:none;stroke-width:6.00001;stroke-linecap:round;stroke-miterlimit:100;paint-order:fill markers stroke"
       id="rect2663"
       width="100"
       height="100"
       x="-307.59387"
       y="99.286636"
       rx="2.1190426"
       ry="1.4910098" /><g
       id="g2719"
       transform="matrix(1.5165909,0,0,1.5165909,122.47337,-75.944326)"><path
         id="path3159"
         style="fill:#333333;stroke:#000000;stroke-width:3.95624;stroke-linecap:round;stroke-linejoin:round;stroke-miterlimit:0;stroke-dasharray:none;paint-order:normal"
         d="m -257.84242,125.54737 -21.48439,16.05332 1.43213,1.91667 2.50036,-1.86828 v 24.86896 h 49.57608 v -25.43698 h -1.24541 v -0.33426 c 0.3676,-0.0321 0.64332,-0.17507 0.64332,-0.34756 v -0.51281 c 0,-0.17249 -0.27572,-0.31545 -0.64332,-0.34756 v -0.43785 h 0.16185 c 0.26284,0 0.47431,-0.35684 0.47431,-0.80006 v -1.15818 c 0,-0.44322 -0.21147,-0.80006 -0.47431,-0.80006 h -0.16185 v -0.68966 c 0.14632,-0.0223 0.25589,-0.12182 0.25589,-0.24226 v -0.35778 c 0,-0.12044 -0.10956,-0.22035 -0.25589,-0.24261 v -0.56324 c 0.16821,-0.0755 0.29372,-0.39629 0.29372,-0.78302 v -1.15852 c 0,-0.38675 -0.12551,-0.7075 -0.29372,-0.78303 v -0.34823 h 0.10665 c 0.20669,0 0.37311,-0.15598 0.37311,-0.3496 v -0.506 c 0,-0.19363 -0.16642,-0.34926 -0.37311,-0.34926 h -0.10665 v -0.50055 c 0.14848,-0.13266 0.24976,-0.40049 0.24976,-0.71113 v -1.15851 c 0,-0.44322 -0.20573,-0.80006 -0.46136,-0.80006 h -2.13099 c -0.25563,0 -0.46137,0.35684 -0.46137,0.80006 v 0.15128 h -0.55166 v -0.15128 c 0,-0.44322 -0.35684,-0.80006 -0.80006,-0.80006 h -3.69431 c -0.44322,0 -0.80006,0.35684 -0.80006,0.80006 v 1.15851 c 0,0.36038 0.23579,0.66351 0.56223,0.76429 v 0.4542 h -0.37243 c -0.31408,0 -0.567,0.35684 -0.567,0.80006 v 1.15818 c 0,0.44322 0.25292,0.80006 0.567,0.80006 h 0.37243 v 1.00927 c -0.31666,0.0404 -0.56223,0.38016 -0.56223,0.79597 v 1.15818 c 0,0.41581 0.24557,0.75554 0.56223,0.79597 v 0.53497 c -0.38439,0.0453 -0.66922,0.21809 -0.66922,0.42558 v 0.63276 c 0,0.20748 0.28483,0.38028 0.66922,0.42558 v 0.43104 h -0.25795 c -0.32907,0 -0.59391,0.23394 -0.59391,0.52474 v 0.75985 c 0,0.2908 0.26484,0.52508 0.59391,0.52508 h 0.25795 v 0.32745 h -1.90168 z" /></g><g
       id="g2886"
       transform="matrix(1.5165909,0,0,1.5165909,122.47337,-75.944326)"><rect
         style="fill:#333333;fill-opacity:1;stroke:none;stroke-width:2.46193;stroke-linecap:round;stroke-miterlimit:100;paint-order:fill markers stroke"
         id="rect2782"
         width="8.0879717"
         height="16.068686"
         x="-235.15154"
         y="127.75076" /><rect
         style="display:inline;fill:#550000;stroke:none;stroke-width:2.30763;stroke-linecap:round;stroke-linejoin:round"
         id="rect2784"
         width="49.576202"
         height="25.437199"
         x="-275.39441"
         y="141.0809" /><g
         id="g2792"
         transform="matrix(0.54300956,0,0,0.53019518,-321.50749,117.1028)"
         style="display:inline;fill:#008000"><rect
           style="fill:#3d0000;fill-opacity:1;stroke:none;stroke-width:6.18943;stroke-linecap:round;stroke-linejoin:round"
           id="rect2786"
           width="9.5404472"
           height="6.0388303"
           x="88.624443"
           y="72.403465"
           rx="2.4463899"
           ry="2.5055172" /><rect
           style="display:inline;fill:#3d0000;fill-opacity:1;stroke:none;stroke-width:6.18943;stroke-linecap:round;stroke-linejoin:round"
           id="rect2788"
           width="9.5404472"
           height="6.0388303"
           x="88.624443"
           y="79.187576"
           rx="2.4463899"
           ry="2.5055172" /><rect
           style="display:inline;fill:#3d0000;fill-opacity:1;stroke:none;stroke-width:6.18943;stroke-linecap:round;stroke-linejoin:round"
           id="rect2790"
           width="9.5404472"
           height="6.0388303"
           x="98.164886"
           y="75.422882"
           rx="2.4463899"
           ry="2.5055172" /></g><g
         id="g2800"
         transform="matrix(0.65263398,0,0,0.63723256,-403.41596,80.010662)"
         style="display:inline;fill:#008000"><rect
           style="display:inline;opacity:1;fill:#806600;fill-opacity:1;stroke:none;stroke-width:7.83947;stroke-linecap:round;stroke-linejoin:round"
           id="rect2794"
           width="9.5252485"
           height="16.597275"
           x="128.06493"
           y="106.00052"
           transform="translate(75.146484,1.4966373)" /><path
           id="path2796"
           style="display:inline;fill:#d4aa00;fill-opacity:1;stroke:none;stroke-width:6.22724;stroke-linecap:round;stroke-linejoin:round"
           d="m 211.68212,122.82468 v -4.62489 c 0,2.56239 -1.82894,4.62489 -4.10109,4.62489 z"
           sodipodi:nodetypes="cccc" /><path
           id="path2798"
           style="display:inline;fill:#d4aa00;fill-opacity:1;stroke:none;stroke-width:6.22724;stroke-linecap:round;stroke-linejoin:round"
           d="m 204.26596,108.76691 v 4.62489 c 0,-2.56239 1.82894,-4.62489 4.10109,-4.62489 z"
           sodipodi:nodetypes="cccc" /></g><g
         id="g2808"
         transform="matrix(-0.54300956,0,0,0.53019518,-185.92163,110.12338)"
         style="display:inline;fill:#008000"><rect
           style="fill:#3d0000;fill-opacity:1;stroke:none;stroke-width:6.18943;stroke-linecap:round;stroke-linejoin:round"
           id="rect2802"
           width="9.5404472"
           height="6.0388303"
           x="88.624443"
           y="72.403465"
           rx="2.4463899"
           ry="2.5055172" /><rect
           style="display:inline;fill:#3d0000;fill-opacity:1;stroke:none;stroke-width:6.18943;stroke-linecap:round;stroke-linejoin:round"
           id="rect2804"
           width="9.5404472"
           height="6.0388303"
           x="88.624443"
           y="79.187576"
           rx="2.4463899"
           ry="2.5055172" /><rect
           style="display:inline;fill:#3d0000;fill-opacity:1;stroke:none;stroke-width:6.18943;stroke-linecap:round;stroke-linejoin:round"
           id="rect2806"
           width="9.5404472"
           height="6.0388303"
           x="98.164886"
           y="75.422882"
           rx="2.4463899"
           ry="2.5055172" /></g><g
         id="g2824"
         transform="matrix(0.65263398,0,0,0.63723256,-386.33723,80.010662)"
         style="display:inline;fill:#008000"><rect
           style="display:inline;opacity:1;fill:#806600;fill-opacity:1;stroke:none;stroke-width:7.83947;stroke-linecap:round;stroke-linejoin:round"
           id="rect2818"
           width="9.5252485"
           height="16.597275"
           x="128.06493"
           y="106.00052"
           transform="translate(75.146484,1.4966373)" /><path
           id="path2820"
           style="display:inline;fill:#d4aa00;fill-opacity:1;stroke:none;stroke-width:6.22724;stroke-linecap:round;stroke-linejoin:round"
           d="m 211.68212,122.82468 v -4.62489 c 0,2.56239 -1.82894,4.62489 -4.10109,4.62489 z"
           sodipodi:nodetypes="cccc" /><path
           id="path2822"
           style="display:inline;fill:#d4aa00;fill-opacity:1;stroke:none;stroke-width:6.22724;stroke-linecap:round;stroke-linejoin:round"
           d="m 204.26596,108.76691 v 4.62489 c 0,-2.56239 1.82894,-4.62489 4.10109,-4.62489 z"
           sodipodi:nodetypes="cccc" /></g><g
         id="g2834"
         transform="matrix(0.38250866,0,0,0.37348191,-377.63078,85.712568)"
         style="display:inline;fill:#008000"><path
           style="fill:#550000;fill-opacity:1;stroke:none;stroke-width:0.28723px;stroke-linecap:butt;stroke-linejoin:miter;stroke-opacity:1"
           d="m 267.27857,148.24907 47.75908,-39.02506 52.42337,42.98277 z"
           id="path2826" /><g
           id="g2832"
           style="display:inline;fill:#008000"
           transform="matrix(-2.1015691,0,0,2.1015691,910.75445,34.768725)"><rect
             style="fill:#502d16;fill-opacity:1;stroke:none;stroke-width:5.05293;stroke-linecap:round;stroke-linejoin:round"
             id="rect2828"
             width="33.654469"
             height="3.0230045"
             x="175.95566"
             y="200.02734"
             transform="matrix(0.7941465,-0.60772637,0.58938226,0.80785429,0,0)" /><rect
             style="display:inline;fill:#502d16;fill-opacity:1;stroke:none;stroke-width:5.05293;stroke-linecap:round;stroke-linejoin:round"
             id="rect2830"
             width="33.654469"
             height="3.0230045"
             x="175.95566"
             y="200.02734"
             transform="matrix(-0.79414649,-0.60772637,-0.58938225,0.8078543,568.70743,-1.220213e-7)" /></g></g><g
         id="g2842"
         transform="matrix(0.54300956,0,0,0.53019518,-312.45015,104.42468)"
         style="display:inline;fill:#008000"><rect
           style="fill:#3d0000;fill-opacity:1;stroke:none;stroke-width:6.18943;stroke-linecap:round;stroke-linejoin:round"
           id="rect2836"
           width="9.5404472"
           height="6.0388303"
           x="88.624443"
           y="72.403465"
           rx="2.4463899"
           ry="2.5055172" /><rect
           style="display:inline;fill:#3d0000;fill-opacity:1;stroke:none;stroke-width:6.18943;stroke-linecap:round;stroke-linejoin:round"
           id="rect2838"
           width="9.5404472"
           height="6.0388303"
           x="88.624443"
           y="79.187576"
           rx="2.4463899"
           ry="2.5055172" /><rect
           style="display:inline;fill:#3d0000;fill-opacity:1;stroke:none;stroke-width:6.18943;stroke-linecap:round;stroke-linejoin:round"
           id="rect2840"
           width="9.5404472"
           height="6.0388303"
           x="98.164886"
           y="75.422882"
           rx="2.4463899"
           ry="2.5055172" /></g><g
         id="g2850"
         transform="matrix(-0.54300956,0,0,0.53019518,-205.51989,94.543554)"
         style="display:inline;fill:#008000"><rect
           style="fill:#3d0000;fill-opacity:1;stroke:none;stroke-width:6.18943;stroke-linecap:round;stroke-linejoin:round"
           id="rect2844"
           width="9.5404472"
           height="6.0388303"
           x="88.624443"
           y="72.403465"
           rx="2.4463899"
           ry="2.5055172" /><rect
           style="display:inline;fill:#3d0000;fill-opacity:1;stroke:none;stroke-width:6.18943;stroke-linecap:round;stroke-linejoin:round"
           id="rect2846"
           width="9.5404472"
           height="6.0388303"
           x="88.624443"
           y="79.187576"
           rx="2.4463899"
           ry="2.5055172" /><rect
           style="display:inline;fill:#3d0000;fill-opacity:1;stroke:none;stroke-width:6.18943;stroke-linecap:round;stroke-linejoin:round"
           id="rect2848"
           width="9.5404472"
           height="6.0388303"
           x="98.164886"
           y="75.422882"
           rx="2.4463899"
           ry="2.5055172" /></g><rect
         style="fill:#1a1a1a;fill-opacity:1;stroke:none;stroke-width:2.1927;stroke-linecap:round;stroke-linejoin:round;stroke-miterlimit:0;stroke-dasharray:none;stroke-dashoffset:0;paint-order:normal"
         id="rect3842"
         width="15.048584"
         height="17.937323"
         x="-243.02475"
         y="148.51135"
         rx="0.7383222"
         ry="0.57151663" /><rect
         style="fill:#4d4d4d;fill-opacity:1;stroke:none;stroke-width:1.60008;stroke-linecap:round;stroke-miterlimit:100;paint-order:fill markers stroke"
         id="rect2860"
         width="5.2945051"
         height="2.7583456"
         x="-235.71384"
         y="126.79936"
         rx="0.80003935"
         ry="0.80003935" /><rect
         style="fill:#999999;fill-opacity:1;stroke:none;stroke-width:1.08818;stroke-linecap:round;stroke-miterlimit:100;paint-order:fill markers stroke"
         id="rect2862"
         width="2.4487433"
         height="2.7583456"
         x="-229.21854"
         y="131.50568"
         rx="0.37002343"
         ry="0.80003935" /><rect
         style="fill:#999999;fill-opacity:1;stroke:none;stroke-width:0.826968;stroke-linecap:round;stroke-miterlimit:100;paint-order:fill markers stroke"
         id="rect2864"
         width="1.4142271"
         height="2.7583456"
         x="-231.02402"
         y="133.67079"
         rx="0.21370031"
         ry="0.80003935" /><rect
         style="fill:#666666;fill-opacity:1;stroke:none;stroke-width:1.2322;stroke-linecap:round;stroke-miterlimit:100;paint-order:fill markers stroke"
         id="rect2866"
         width="3.1398199"
         height="2.7583456"
         x="-229.56723"
         y="136.34265"
         rx="0.47445032"
         ry="0.80003935" /><rect
         style="fill:#666666;fill-opacity:1;stroke:none;stroke-width:0.560608;stroke-linecap:round;stroke-miterlimit:100;paint-order:fill markers stroke"
         id="rect2868"
         width="2.1041007"
         height="0.85199666"
         x="-228.9117"
         y="134.80586"
         rx="0.31794539"
         ry="0.24711581" /><rect
         style="fill:#666666;fill-opacity:1;stroke:none;stroke-width:0.722217;stroke-linecap:round;stroke-miterlimit:100;paint-order:fill markers stroke"
         id="rect2870"
         width="2.4690673"
         height="1.2050242"
         x="-229.0529"
         y="129.96939"
         rx="0.37309459"
         ry="0.34950906" /><rect
         style="fill:#999999;fill-opacity:1;stroke:none;stroke-width:1.06478;stroke-linecap:round;stroke-miterlimit:100;paint-order:fill markers stroke"
         id="rect2872"
         width="5.2945051"
         height="1.2214818"
         x="-231.71483"
         y="139.53207"
         rx="0.80003935"
         ry="0.35428247" /><path
         id="path2874"
         style="fill:#666666;stroke-width:1.08818;stroke-linecap:round;stroke-miterlimit:100;paint-order:fill markers stroke"
         d="m -231.53753,130.11358 h 1.7087 c 0.20499,0 0.37002,0.35682 0.37002,0.80004 v 1.15827 c 0,0.44322 -0.16503,0.80004 -0.37002,0.80004 h -1.7087 c -0.20499,0 -0.37002,-0.35682 -0.37002,-0.80004 v -1.15827 c 0,-0.44322 0.16503,-0.80004 0.37002,-0.80004 z" /><path
         id="path2876"
         style="fill:#b3b3b3;stroke-width:1.11677;stroke-linecap:round;stroke-miterlimit:100;paint-order:fill markers stroke"
         d="m -235.4094,138.9438 h 2.74295 c 0.32907,0 0.59399,0.23411 0.59399,0.52491 v 0.75994 c 0,0.2908 -0.26492,0.52491 -0.59399,0.52491 h -2.74295 c -0.32907,0 -0.59399,-0.23411 -0.59399,-0.52491 v -0.75994 c 0,-0.2908 0.26492,-0.52491 0.59399,-0.52491 z" /><rect
         style="fill:#999999;fill-opacity:1;stroke:none;stroke-width:1.34693;stroke-linecap:round;stroke-miterlimit:100;paint-order:fill markers stroke"
         id="rect2878"
         width="3.7517471"
         height="2.7583456"
         x="-236.09091"
         y="129.9763"
         rx="0.56691706"
         ry="0.80003935" /><rect
         style="fill:#999999;fill-opacity:1;stroke:none;stroke-width:1.21517;stroke-linecap:round;stroke-miterlimit:100;paint-order:fill markers stroke"
         id="rect2880"
         width="3.0536363"
         height="2.7583456"
         x="-229.86757"
         y="126.79936"
         rx="0.4614273"
         ry="0.80003935" /><rect
         style="fill:#999999;fill-opacity:1;stroke:none;stroke-width:1.41517;stroke-linecap:round;stroke-miterlimit:100;paint-order:fill markers stroke"
         id="rect2882"
         width="4.1415324"
         height="2.7583456"
         x="-235.71384"
         y="133.73985"
         rx="0.62581658"
         ry="0.80003935" /><rect
         style="fill:#999999;fill-opacity:1;stroke:none;stroke-width:1.23313;stroke-linecap:round;stroke-miterlimit:100;paint-order:fill markers stroke"
         id="rect2884"
         width="5.7540908"
         height="1.5073907"
         x="-235.82059"
         y="137.01723"
         rx="0.86948621"
         ry="0.43720838" /><path
         id="rect3931"
         style="fill:#550000;stroke-width:3.95625;stroke-linecap:round;stroke-linejoin:round;stroke-miterlimit:0"
         d="m -245.09014,146.03273 h 19.26336 v 13.19775 c 0,0 -2.6831,-5.11849 -4.80958,-6.97837 -1.35344,-1.18375 -3.01151,-2.44149 -4.80958,-2.44243 -1.80179,-9.5e-4 -3.46452,1.25776 -4.8221,2.44243 -2.13037,1.85903 -4.8221,6.97837 -4.8221,6.97837 z"
         sodipodi:nodetypes="cccssscc" /><g
         id="g2858"
         transform="matrix(-0.54300956,0,0,0.53019518,-188.34512,104.24784)"
         style="display:inline;fill:#008000"><rect
           style="fill:#3d0000;fill-opacity:1;stroke:none;stroke-width:6.18943;stroke-linecap:round;stroke-linejoin:round"
           id="rect2852"
           width="9.5404472"
           height="6.0388303"
           x="88.624443"
           y="72.403465"
           rx="2.4463899"
           ry="2.5055172" /><rect
           style="display:inline;fill:#3d0000;fill-opacity:1;stroke:none;stroke-width:6.18943;stroke-linecap:round;stroke-linejoin:round"
           id="rect2854"
           width="9.5404472"
           height="6.0388303"
           x="88.624443"
           y="79.187576"
           rx="2.4463899"
           ry="2.5055172" /><rect
           style="display:inline;fill:#3d0000;fill-opacity:1;stroke:none;stroke-width:6.18943;stroke-linecap:round;stroke-linejoin:round"
           id="rect2856"
           width="9.5404472"
           height="6.0388303"
           x="98.164886"
           y="75.422882"
           rx="2.4463899"
           ry="2.5055172" /></g></g><g
       id="g72"
       transform="matrix(0.21201957,0,0,0.21201957,-245.53666,161.06287)"><path
         d="m 92.676,34.299 v 5.946 h -5.707 l -8.735,7.469 h -2.513 c -4.273,0 -8.099,2.376 -8.476,6.414 -0.001,0.233 -0.001,-0.058 -0.001,0.173 0,2.891 1.432,5.444 3.623,6.999 l 9.511,4.841 c 0.666,0.78 0.607,1.415 0.607,1.415 v 4.815 H 70.5 l -1.614,-1.702 h -27.34 l -1.614,1.702 H 29.446 v -4.815 c 0,0 -0.058,-0.635 0.607,-1.415 l 8.981,-4.865 h 0.002 c 1.971,-1.121 3.304,-3.234 3.304,-5.663 0,-4.502 -4.008,-6.558 -8.509,-6.558 L 29.71,49.054 29.706,46.895 C 6.994,46.666 2.643,33.87 2.643,33.87 2.549,33.731 2.495,33.564 2.495,33.385 c 0,-0.48 0.389,-0.869 0.869,-0.869 0.04,0 9.176,0.036 9.176,0.036 h 10.745 v -1.484 l 6.546,0.002 v -2.684 l 54.295,0.078 z"
         id="path70"
         inkscape:connector-curvature="0" /></g><g
       id="g5773"
       transform="matrix(0.75735725,0,0,0.75735725,45.410117,52.45956)"><rect
         style="fill:#4d4d4d;fill-opacity:1;stroke:none;stroke-width:2.50993;stroke-linecap:round;stroke-linejoin:round;stroke-miterlimit:0;stroke-dasharray:none;stroke-dashoffset:0;paint-order:normal"
         id="rect4959"
         width="19.799845"
         height="12.236979"
         x="-379.25143"
         y="137.81169"
         rx="1.2549628"
         ry="1.2549628" /><rect
         style="fill:#1a1a1a;fill-opacity:1;stroke:none;stroke-width:1.83373;stroke-linecap:round;stroke-linejoin:round;stroke-miterlimit:0;stroke-dasharray:none;stroke-dashoffset:0;paint-order:normal"
         id="rect4959-0"
         width="14.465546"
         height="8.9401999"
         x="-376.58429"
         y="139.46008"
         rx="0.91686183"
         ry="0.91686183" /><path
         id="path4986-2-4"
         style="fill:#d45500;fill-opacity:1;stroke-width:2.83349;stroke-linecap:round;stroke-linejoin:round;stroke-miterlimit:0"
         d="m -366.10594,146.12978 c 0.27488,0.47612 0.88369,0.63925 1.35981,0.36436 0.47612,-0.27489 0.63925,-0.8837 0.36436,-1.35982 -0.11616,-0.2012 -0.34863,-0.79974 -0.57834,-1.42387 -0.31388,-0.85278 0.48993,-2.02034 0.48993,-2.02034 0,0 -1.30128,1.14101 -1.46355,2.09378 -0.17146,1.00667 -0.31344,2.10128 -0.17221,2.34589 z"
         sodipodi:nodetypes="sssscss" /><path
         id="path4983-8"
         style="fill:#d45500;stroke-width:3.49985;stroke-linecap:round;stroke-linejoin:round;stroke-miterlimit:0"
         d="m -366.817,146.0047 c 0,0 -0.86506,1.93217 -1.93216,1.93217 -1.06711,0 -1.93217,-0.86506 -1.93217,-1.93217 0,-0.55486 0.74855,-2.59314 2.19411,-3.72128 1.24311,-0.97013 2.54847,-3.22949 2.54847,-3.22949 0,0 -2.13091,5.9811 -0.87825,6.95077 z"
         sodipodi:nodetypes="sssscs" /><path
         id="path4983-8-9"
         style="fill:#a02c2c;fill-opacity:1;stroke-width:3.49985;stroke-linecap:round;stroke-linejoin:round;stroke-miterlimit:0"
         d="m -372.33437,144.48103 c 0,0 0.86506,1.93217 1.93216,1.93217 1.06711,0 1.93217,-0.86506 1.93217,-1.93217 0,-0.55486 -0.74855,-2.59314 -2.19411,-3.72128 -1.24311,-0.97013 -2.54847,-3.22949 -2.54847,-3.22949 0,0 2.13091,5.9811 0.87825,6.95077 z"
         sodipodi:nodetypes="sssscs" /><path
         id="path4983-8-8"
         style="fill:#aa8800;fill-opacity:1;stroke-width:2.31431;stroke-linecap:round;stroke-linejoin:round;stroke-miterlimit:0"
         d="m -372.59293,145.37739 c 0,0 0.14346,1.39251 -0.46767,1.74533 -0.61108,0.35282 -1.39249,0.14346 -1.74531,-0.46766 -0.18346,-0.31775 -0.4287,-1.73251 0.0262,-2.85649 0.39113,-0.96659 0.39165,-2.69204 0.39165,-2.69204 0,0 0.75723,4.12973 1.7952,4.27086 z"
         sodipodi:nodetypes="sssscs" /><path
         id="path4986-2"
         style="fill:#aa8800;fill-opacity:1;stroke-width:2.83349;stroke-linecap:round;stroke-linejoin:round;stroke-miterlimit:0"
         d="m -365.5595,146.92867 c -0.27488,0.47612 -0.88369,0.63925 -1.35981,0.36436 -0.47612,-0.27489 -0.63925,-0.8837 -0.36436,-1.35982 0.11616,-0.2012 0.34863,-0.79974 0.57834,-1.42387 0.31388,-0.85278 -0.48993,-2.02034 -0.48993,-2.02034 0,0 1.30128,1.14101 1.46355,2.09378 0.17146,1.00667 0.31344,2.10128 0.17221,2.34589 z"
         sodipodi:nodetypes="sssscss" /><path
         id="path4986-3"
         style="fill:#a02c2c;stroke-width:2.3224;stroke-linecap:round;stroke-linejoin:round;stroke-miterlimit:0"
         d="m -364.91422,147.31712 c -0.39024,0.22531 -0.88923,0.0916 -1.11454,-0.29864 -0.22531,-0.39024 -0.0916,-0.88924 0.29864,-1.11455 0.16491,-0.0952 0.57521,-0.42479 0.99404,-0.77367 0.57228,-0.47669 0.4802,-1.63486 0.4802,-1.63486 0,0 0.45607,1.3432 0.18079,2.086 -0.29083,0.78481 -0.63864,1.61997 -0.83913,1.73572 z"
         sodipodi:nodetypes="sssscss" /><path
         id="path4986-3-1"
         style="fill:#d45500;fill-opacity:1;stroke-width:2.3224;stroke-linecap:round;stroke-linejoin:round;stroke-miterlimit:0"
         d="m -373.01146,144.34514 c 0.39024,0.22531 0.88923,0.0916 1.11454,-0.29864 0.22531,-0.39024 0.0916,-0.88924 -0.29864,-1.11455 -0.16491,-0.0952 -0.57521,-0.42479 -0.99404,-0.77367 -0.57228,-0.47669 -0.4802,-1.63486 -0.4802,-1.63486 0,0 -0.45607,1.3432 -0.18079,2.086 0.29083,0.78481 0.63864,1.61997 0.83913,1.73572 z"
         sodipodi:nodetypes="sssscss" /><path
         id="path4986-3-4"
         style="fill:#a02c2c;stroke-width:3.00527;stroke-linecap:round;stroke-linejoin:round;stroke-miterlimit:0"
         d="m -372.79538,146.10396 c 0.4123,0.41233 1.0808,0.41232 1.49311,1e-5 0.41233,-0.41232 0.41233,-1.08082 1e-5,-1.49316 -0.17425,-0.17421 -0.5767,-0.72361 -0.98336,-1.29997 -0.5557,-0.78749 -0.0527,-2.20431 -0.0527,-2.20431 0,0 -1.01992,1.52618 -0.92462,2.54683 0.10068,1.07838 0.25572,2.23877 0.46755,2.45061 z"
         sodipodi:nodetypes="sssscss" /><path
         id="path4989-9"
         style="fill:#aa8800;stroke-width:2.4299;stroke-linecap:round;stroke-linejoin:round;stroke-miterlimit:0"
         d="m -370.27023,145.55263 c -0.26032,0.54743 -0.4914,1.09757 -1.09758,1.09757 -0.60617,0 -0.91155,-1.62264 -0.47038,-2.03835 1.53522,-1.44662 0.50523,-2.94427 0.50523,-2.94427 0,0 2.21256,1.46701 1.06273,3.88505 z"
         sodipodi:nodetypes="ssscs" /></g></g></svg>
