<?xml version="1.0" encoding="UTF-8" standalone="no"?>
<!-- Created with Inkscape (http://www.inkscape.org/) -->

<svg
   width="150mm"
   height="100mm"
   viewBox="0 0 150 100"
   version="1.1"
   id="svg5"
   inkscape:version="1.2 (dc2aedaf03, 2022-05-15)"
   sodipodi:docname="indiccongress.svg"
   xml:space="preserve"
   xmlns:inkscape="http://www.inkscape.org/namespaces/inkscape"
   xmlns:sodipodi="http://sodipodi.sourceforge.net/DTD/sodipodi-0.dtd"
   xmlns="http://www.w3.org/2000/svg"
   xmlns:svg="http://www.w3.org/2000/svg"><sodipodi:namedview
     id="namedview7"
     pagecolor="#ffffff"
     bordercolor="#666666"
     borderopacity="1.0"
     inkscape:showpageshadow="2"
     inkscape:pageopacity="0.0"
     inkscape:pagecheckerboard="0"
     inkscape:deskcolor="#d1d1d1"
     inkscape:document-units="mm"
     showgrid="false"
     inkscape:zoom="0.74564394"
     inkscape:cx="-72.420625"
     inkscape:cy="380.87884"
     inkscape:window-width="1920"
     inkscape:window-height="1017"
     inkscape:window-x="-8"
     inkscape:window-y="-8"
     inkscape:window-maximized="1"
     inkscape:current-layer="layer1" /><defs
     id="defs2" /><g
     inkscape:label="Layer 1"
     inkscape:groupmode="layer"
     id="layer1"
     transform="translate(-10.645162,-60.677647)"><rect
       style="fill:#f4c430;fill-opacity:1;stroke:none;stroke-width:6.38754;stroke-linecap:round;stroke-linejoin:round"
       id="rect401"
       width="150"
       height="100"
       x="10.645162"
       y="60.677647" /><rect
       style="fill:#128807;fill-opacity:1;stroke:none;stroke-width:6.38799;paint-order:fill markers stroke"
       id="rect1286"
       width="150"
       height="50"
       x="10.645164"
       y="60.677647" /><g
       id="g3688"
       transform="matrix(1.5875,0,0,1.5875,85.645159,110.67764)"><circle
         r="20"
         fill="#000088"
         id="circle651"
         cx="0"
         cy="0" /><circle
         r="17.5"
         fill="#ffffff"
         id="circle653"
         cx="0"
         cy="0"
         style="fill:#f4c430;fill-opacity:1" /><circle
         r="3.5"
         fill="#000088"
         id="circle655"
         cx="0"
         cy="0" /><circle
         r="0.875"
         fill="#000088"
         transform="rotate(7.5)"
         id="circle657"
         cx="17.5"
         cy="1.9440053e-08" /><path
         fill="#000088"
         d="M 0,17.5 0.6,7 C 0.6,7 0,2 0,2 0,2 -0.6,7 -0.6,7 Z"
         id="path659" /><circle
         r="0.875"
         fill="#000088"
         transform="rotate(22.5)"
         id="circle3321"
         cx="17.5"
         cy="4.0623407e-09" /><path
         fill="#000088"
         d="m -4.5293333,16.903702 3.2971555,-9.9869298 c 0,0 0.71453971,-4.9849205 0.71453971,-4.9849205 0,0 -1.87365071,4.6743377 -1.87365071,4.6743377 z"
         id="path3323" /><circle
         r="0.875"
         fill="#000088"
         transform="rotate(37.5)"
         id="circle3307"
         cx="17.5"
         cy="1.0232836e-07" /><path
         fill="#000088"
         d="m -8.75,15.155445 5.7696152,-8.7932672 c 0,0 1.9803848,-4.630127 1.9803848,-4.630127 0,0 -3.0196152,4.030127 -3.0196152,4.030127 z"
         id="path3309" /><circle
         r="0.875"
         fill="#000088"
         transform="rotate(52.5)"
         id="circle3327"
         cx="17.5"
         cy="2.2090339e-07" /><path
         fill="#000088"
         d="m -12.374369,12.374369 7.8488856,-7.0003575 c 0,0 3.1112698,-3.9597979 3.1112698,-3.9597979 0,0 -3.9597979,3.1112698 -3.9597979,3.1112698 z"
         id="path3329" /><circle
         r="0.875"
         fill="#000088"
         transform="rotate(67.5)"
         id="circle3237"
         cx="17.5"
         cy="1.6893637e-07" /><path
         fill="#000088"
         d="m -15.155445,8.75 9.3932672,-4.7303848 c 0,0 4.030127,-3.0196152 4.030127,-3.0196152 0,0 -4.630127,1.9803848 -4.630127,1.9803848 z"
         id="path3239" /><circle
         r="0.875"
         fill="#000088"
         transform="rotate(82.5)"
         id="circle3333"
         cx="17.5"
         cy="3.9072333e-08" /><path
         fill="#000088"
         d="M -16.903702,4.5293333 -6.6061894,2.3912888 c 0,0 4.6743377,-1.87365071 4.6743377,-1.87365071 0,0 -4.9849205,0.71453971 -4.9849205,0.71453971 z"
         id="path3335" /><circle
         r="0.875"
         fill="#000088"
         transform="rotate(97.5)"
         id="circle3297"
         cx="17.5"
         cy="7.1775951e-08" /><path
         fill="#000088"
         d="M -17.5,0 -7,0.6 c 0,0 5,-0.6 5,-0.6 0,0 -5,-0.6 -5,-0.6 z"
         id="path3299" /><circle
         r="0.875"
         fill="#000088"
         transform="rotate(112.5)"
         id="circle3339"
         cx="17.5"
         cy="2.0707072e-08" /><path
         fill="#000088"
         d="m -16.903702,-4.5293333 9.9869298,3.2971555 c 0,0 4.9849205,0.71453971 4.9849205,0.71453971 0,0 -4.6743377,-1.87365071 -4.6743377,-1.87365071 z"
         id="path3341" /><circle
         r="0.875"
         fill="#000088"
         transform="rotate(127.5)"
         id="circle3165"
         cx="17.5"
         cy="4.5784333e-08" /><path
         fill="#000088"
         d="m -15.155445,-8.75 8.7932672,5.7696152 c 0,0 4.630127,1.9803848 4.630127,1.9803848 0,0 -4.030127,-3.0196152 -4.030127,-3.0196152 z"
         id="path3167" /><circle
         r="0.875"
         fill="#000088"
         transform="rotate(142.5)"
         id="circle3345"
         cx="17.5"
         cy="5.5789627e-08" /><path
         fill="#000088"
         d="m -12.374369,-12.374369 7.0003575,7.8488856 c 0,0 3.9597979,3.1112698 3.9597979,3.1112698 0,0 -3.1112698,-3.9597979 -3.1112698,-3.9597979 z"
         id="path3347" /><circle
         r="0.875"
         fill="#000088"
         transform="rotate(157.5)"
         id="circle3257"
         cx="17.5"
         cy="-1.0233554e-08" /><path
         fill="#000088"
         d="m -8.75,-15.155445 4.7303848,9.3932672 c 0,0 3.0196152,4.030127 3.0196152,4.030127 0,0 -1.9803848,-4.630127 -1.9803848,-4.630127 z"
         id="path3259" /><circle
         r="0.875"
         fill="#000088"
         transform="rotate(172.5)"
         id="circle3351"
         cx="17.5"
         cy="2.6046084e-08" /><path
         fill="#000088"
         d="m -4.5293333,-16.903702 2.1380445,10.2975126 c 0,0 1.87365071,4.6743377 1.87365071,4.6743377 0,0 -0.71453971,-4.9849205 -0.71453971,-4.9849205 z"
         id="path3353" /><circle
         r="0.875"
         fill="#000088"
         transform="rotate(-172.5)"
         id="circle3209"
         cx="17.5"
         cy="1.3782813e-08" /><path
         fill="#000088"
         d="M 0,-17.5 -0.6,-7 c 0,0 0.6,5 0.6,5 0,0 0.6,-5 0.6,-5 z"
         id="path3211" /><circle
         r="0.875"
         fill="#000088"
         transform="rotate(-157.5)"
         id="circle3357"
         cx="17.5"
         cy="4.8501899e-08" /><path
         fill="#000088"
         d="m 4.5293333,-16.903702 -3.2971555,9.9869298 c 0,0 -0.71453971,4.9849205 -0.71453971,4.9849205 0,0 1.87365071,-4.6743377 1.87365071,-4.6743377 z"
         id="path3359" /><circle
         r="0.875"
         fill="#000088"
         transform="rotate(-142.5)"
         id="circle3277"
         cx="17.5"
         cy="5.0865143e-09" /><path
         fill="#000088"
         d="m 8.75,-15.155445 -5.7696152,8.7932672 c 0,0 -1.9803848,4.630127 -1.9803848,4.630127 0,0 3.0196152,-4.030127 3.0196152,-4.030127 z"
         id="path3279" /><circle
         r="0.875"
         fill="#000088"
         transform="rotate(-127.5)"
         id="circle3363"
         cx="17.5"
         cy="3.3551004e-08" /><path
         fill="#000088"
         d="m 12.374369,-12.374369 -7.8488856,7.0003575 c 0,0 -3.1112698,3.9597979 -3.1112698,3.9597979 0,0 3.9597979,-3.1112698 3.9597979,-3.1112698 z"
         id="path3365" /><circle
         r="0.875"
         fill="#000088"
         transform="rotate(-112.5)"
         id="circle3183"
         cx="17.5"
         cy="7.1680887e-08" /><path
         fill="#000088"
         d="m 15.155445,-8.75 -9.3932672,4.7303848 c 0,0 -4.030127,3.0196152 -4.030127,3.0196152 0,0 4.630127,-1.9803848 4.630127,-1.9803848 z"
         id="path3185" /><circle
         r="0.875"
         fill="#000088"
         transform="rotate(-97.5)"
         id="circle3369"
         cx="17.5"
         cy="2.7368536e-08" /><path
         fill="#000088"
         d="M 16.903702,-4.5293333 6.6061894,-2.3912888 c 0,0 -4.6743377,1.87365071 -4.6743377,1.87365071 0,0 4.9849205,-0.71453971 4.9849205,-0.71453971 z"
         id="path3371" /><circle
         r="0.875"
         fill="#000088"
         transform="rotate(-82.5)"
         id="circle3267"
         cx="17.5"
         cy="6.0072153e-08" /><path
         fill="#000088"
         d="M 17.5,0 7,-0.6 C 7,-0.6 2,0 2,0 2,0 7,0.6 7,0.6 Z"
         id="path3269" /><circle
         r="0.875"
         fill="#000088"
         transform="rotate(-67.5)"
         id="circle3375"
         cx="17.5"
         cy="-7.654841e-08" /><path
         fill="#000088"
         d="M 16.903702,4.5293333 6.9167722,1.2321778 c 0,0 -4.9849205,-0.71453971 -4.9849205,-0.71453971 0,0 4.6743377,1.87365071 4.6743377,1.87365071 z"
         id="path3377" /><circle
         r="0.875"
         fill="#000088"
         transform="rotate(-52.5)"
         id="circle3223"
         cx="17.5"
         cy="-1.4156805e-07" /><path
         fill="#000088"
         d="M 15.155445,8.75 6.3621778,2.9803848 c 0,0 -4.630127,-1.9803848 -4.630127,-1.9803848 0,0 4.030127,3.0196152 4.030127,3.0196152 z"
         id="path3225" /><circle
         r="0.875"
         fill="#000088"
         transform="rotate(-37.5)"
         id="circle3381"
         cx="17.5"
         cy="-4.1452211e-08" /><path
         fill="#000088"
         d="M 12.374369,12.374369 5.3740115,4.5254834 c 0,0 -3.9597979,-3.1112698 -3.9597979,-3.1112698 0,0 3.1112698,3.9597979 3.1112698,3.9597979 z"
         id="path3383" /><circle
         r="0.875"
         fill="#000088"
         transform="rotate(-22.5)"
         id="circle3287"
         cx="17.5"
         cy="3.4206003e-08" /><path
         fill="#000088"
         d="M 8.75,15.155445 4.0196152,5.7621778 c 0,0 -3.0196152,-4.030127 -3.0196152,-4.030127 0,0 1.9803848,4.630127 1.9803848,4.630127 z"
         id="path3289" /><circle
         r="0.875"
         fill="#000088"
         transform="rotate(-7.5)"
         id="circle3387"
         cx="17.5"
         cy="1.9717787e-08" /><path
         fill="#000088"
         d="M 4.5293333,16.903702 2.3912888,6.6061894 c 0,0 -1.87365071,-4.6743377 -1.87365071,-4.6743377 0,0 0.71453971,4.9849205 0.71453971,4.9849205 z"
         id="path3389" /></g></g></svg>
