<?xml version="1.0" encoding="UTF-8" standalone="no"?>
<!-- Created with Inkscape (http://www.inkscape.org/) -->

<svg
   width="150mm"
   height="100mm"
   viewBox="0 0 150 100"
   version="1.1"
   id="svg5"
   inkscape:version="1.2 (dc2aedaf03, 2022-05-15)"
   sodipodi:docname="karnatak.svg"
   xmlns:inkscape="http://www.inkscape.org/namespaces/inkscape"
   xmlns:sodipodi="http://sodipodi.sourceforge.net/DTD/sodipodi-0.dtd"
   xmlns="http://www.w3.org/2000/svg"
   xmlns:svg="http://www.w3.org/2000/svg">
  <sodipodi:namedview
     id="namedview7"
     pagecolor="#ffffff"
     bordercolor="#666666"
     borderopacity="1.0"
     inkscape:showpageshadow="2"
     inkscape:pageopacity="0.0"
     inkscape:pagecheckerboard="0"
     inkscape:deskcolor="#d1d1d1"
     inkscape:document-units="mm"
     showgrid="false"
     inkscape:zoom="1.0544998"
     inkscape:cx="-76.813673"
     inkscape:cy="137.50596"
     inkscape:window-width="1920"
     inkscape:window-height="1017"
     inkscape:window-x="-8"
     inkscape:window-y="-8"
     inkscape:window-maximized="1"
     inkscape:current-layer="g3551" />
  <defs
     id="defs2" />
  <g
     inkscape:label="Layer 1"
     inkscape:groupmode="layer"
     id="layer1"
     transform="translate(-10.645162,-60.677647)">
    <rect
       style="fill:#ff2a2a;fill-opacity:1;stroke:none;stroke-width:6.38754;stroke-linecap:round;stroke-linejoin:round"
       id="rect401"
       width="150"
       height="100"
       x="10.645162"
       y="-160.67764"
       transform="scale(1,-1)" />
    <path
       id="rect401-8"
       style="fill:#ffff00;stroke-width:6.38754;stroke-linecap:round;stroke-linejoin:round"
       d="m 10.64516,160.67765 h 150 V 60.677652 Z"
       sodipodi:nodetypes="cccc" />
    <path
       d="m 18.527775,95.334934 c 0,0.653034 -0.747514,0.693724 -1.163641,1.183034 -0.758694,0.892126 -1.357582,-0.879092 -1.357582,-1.532127 0,-0.653036 0.870404,-0.756367 1.241218,-1.338188 0.345225,-0.541671 1.280005,1.034244 1.280005,1.687281 z"
       id="path3950"
       style="fill:#e4ae01;fill-opacity:1;fill-rule:evenodd;stroke:#471913;stroke-width:0.139451;stroke-linecap:round;stroke-linejoin:round;stroke-miterlimit:4;stroke-dashoffset:0;stroke-opacity:1" />
    <g
       id="g3868"
       transform="matrix(0.13945125,0,0,0.13945125,11.739868,53.099876)">
      <path
         d="m 40.331412,291.04482 c 2.933431,8.51312 -7.944061,10.25986 -5.562953,18.35775 1.499851,10.82182 -9.054411,11.22561 -0.278148,26.42403 5.567863,-9.08616 4.564302,-18.17231 5.284806,-27.25847 l 0.278148,16.13256 c 7.146496,-4.91394 4.748517,-10.38418 3.894067,-15.29813 2.627465,-21.40796 9.014613,-21.95853 13.629236,-31.15253 -4.350166,9.08335 -15.180487,10.22399 -11.96035,44.50363 5.727923,-5.76683 10.110329,-15.79446 11.404054,-35.60291 l 11.682203,-14.46367 c -17.895222,-0.4438 -23.590018,8.60162 -28.371063,18.35774 z"
         id="path3866"
         style="fill:#e4ae01;fill-opacity:1;fill-rule:evenodd;stroke:#471913;stroke-width:1px;stroke-linecap:butt;stroke-linejoin:miter;stroke-opacity:1" />
      <g
         id="g3786">
        <g
           id="g3782">
          <path
             d="m 66.714013,279.20187 c -20.13188,-0.272 -14.245481,38.88509 -22.927433,44.54699 15.149661,-6.78026 15.63227,7.57742 25.632942,-19.24412 -6.393449,-13.01283 -1.787426,-16.93343 -2.705509,-25.30287 z"
             id="path3774"
             style="fill:#e4ae01;fill-opacity:1;fill-rule:evenodd;stroke:#4e2012;stroke-width:1.23479px;stroke-linecap:butt;stroke-linejoin:miter;stroke-opacity:1" />
          <path
             d="m 67.311736,279.08447 c -13.354641,2.45149 -9.379502,35.90853 -15.854417,40.88771 6.314959,-5.82609 13.083764,-14.90795 18.079599,-18.63589 -4.768172,-11.44372 -1.540485,-14.89158 -2.225182,-22.25182 z"
             id="path3772"
             style="fill:#e4ae01;fill-opacity:1;fill-rule:evenodd;stroke:#4e2012;stroke-width:1px;stroke-linecap:butt;stroke-linejoin:miter;stroke-opacity:1" />
        </g>
        <g
           id="g3696">
          <path
             d="m 168.00119,408.42314 c -2.49765,3.82912 -6.98933,4.31132 -4.45036,18.0796 -2.34757,4.07653 -1.81008,6.88394 -9.73517,11.96035 -2.98592,1.03467 -4.12342,19.85476 10.29147,16.96701 5.69201,0.30191 12.31851,-5.93761 16.68886,3.61591 5.86516,2.20634 14.31322,8.60988 8.90072,-7.50998 11.80628,9.80578 13.92093,5.32917 11.6822,-5.56296 23.57752,11.36328 17.68829,-12.11029 12.2385,-10.84775 -9.02843,0.61978 -21.71978,10.65848 -26.14588,-0.5563 0.38606,-6.48317 0.56749,-12.82567 12.51665,-27.25847 7.69029,-14.78894 31.76536,-33.07331 -12.7948,-36.71549 -47.71042,-3.16183 -61.93094,8.7456 -67.31173,52.29176 14.91393,5.99156 26.39839,2.83076 48.11954,-14.46368 z"
             id="path3694"
             style="fill:#e4ae01;fill-opacity:1;fill-rule:evenodd;stroke:#4b1d12;stroke-width:1px;stroke-linecap:butt;stroke-linejoin:miter;stroke-opacity:1" />
          <g
             id="g3618">
            <g
               id="g3614">
              <path
                 d="m 32.538756,343.66764 c 5.982733,-3.85965 1.82666,-9.16771 2.076942,-13.84628 1.261935,-7.24677 4.752497,-11.30979 12.461652,-9.34624 11.627181,2.87554 15.092482,-9.29991 19.038634,-16.26937 2.264912,-6.80929 -3.894863,-18.38667 2.076942,-31.50029 19.136814,-14.97934 33.121594,-12.21276 43.961934,1.38463 11.23683,22.9795 -2.79408,39.65119 -12.461649,46.73119 -6.209703,4.54765 -46.35333,36.22063 -49.154291,46.73119 -3.000027,25.92461 25.500231,29.77353 31.500285,11.42318 7.175819,-17.61019 19.292155,-25.33934 32.884915,-30.11565 23.94432,-17.47601 19.85629,-29.85523 25.26946,-43.96194 3.09325,-5.47814 2.47337,-12.44154 9.69239,-16.26938 54.85941,3.10314 91.18014,-20.6748 128.07809,-43.61578 l 6.23082,15.92322 c -3.69234,0.58931 -7.38468,2.30948 -11.07702,0.34616 -6.98577,7.89898 -20.67059,35.753 -24.9233,30.80797 -1.0094,-1.17372 1.38462,57.46206 1.38462,57.46206 4.62676,5.35977 10.494,10.09929 16.9617,14.53859 -1.21552,3.72395 4.11924,8.17572 -4.50004,11.07703 3.23194,3.46008 11.33898,0.58254 6.23082,14.88475 11.79109,3.08521 8.8164,7.09327 6.23083,11.07702 -18.18857,4.83528 -20.6171,-7.01655 -23.53868,-18.34632 -3.91535,-14.69675 -19.01315,-21.18101 -29.42334,-34.26954 4.94843,-23.3937 1.80288,-28.57595 -0.34616,-36.00033 5.78411,11.42318 3.29763,22.84636 0,34.26954 -25.52983,-4.71889 -58.06664,26.04811 -86.8854,41.885 -0.61811,-10.28199 1.91332,-20.3671 13.15396,-27.00024 -14.67315,9.12957 -11.73902,19.43296 -13.50012,29.42334 5.94759,27.97386 -10.01726,46.02555 -23.19252,57.80821 -13.348651,11.93773 -30.655931,23.27862 -30.115653,43.26963 0.980265,22.94782 20.436333,13.33914 21.461733,26.30793 -13.20319,1.53706 -26.090635,8.75751 -40.15421,-5.19236 14.557818,-28.0541 0.454203,-33.17904 -1.384628,-48.11582 20.374827,-14.11849 13.113702,-21.95608 14.88475,-31.84644 0.05805,-10.86528 -2.021717,-22.91824 5.884669,-29.42334 -26.230955,7.53496 -40.797686,-1.89623 -46.731193,-23.88483 1.801662,-17.04321 5.87347,-33.67367 27.692559,-47.07735 41.016643,-24.50179 45.880923,-40.49714 40.154213,-54.00049 -7.167887,-10.03175 -15.112438,-6.86021 -23.192521,-1.38463 2.742575,14.55755 5.06456,28.63443 -4.846198,28.73103 -2.096292,25.13328 -4.565366,10.11239 -11.077023,22.5002 l 2.076942,-9.34624 c -4.156637,8.39838 -9.5288,5.85701 -14.538593,6.57699 -13.802306,9.76418 -6.88064,9.85718 -8.307768,13.84628 -4.875971,3.35971 -6.798901,7.32888 -10.038553,3.80772 z"
                 id="path3610"
                 style="fill:#e4ae01;fill-opacity:1;fill-rule:evenodd;stroke:#4b1d12;stroke-width:1px;stroke-linecap:butt;stroke-linejoin:miter;stroke-opacity:1" />
              <path
                 d="m 74.425888,276.36118 c 0.271303,2.55576 0.67917,5.10188 0.731556,7.67607 0.05971,1.04994 0.277066,2.08304 0.552322,3.09402 0.491842,1.92458 -0.418859,3.31378 -1.249988,4.97811 0.02722,-1.20016 -0.05913,-2.41811 -0.443523,-3.56244 -0.454116,-4.2037 -1.432557,-8.24974 0.409633,-12.18576 z"
                 id="path3612"
                 style="fill:#e4ae01;fill-opacity:1;fill-rule:evenodd;stroke:#471913;stroke-width:0.838766;stroke-linecap:round;stroke-linejoin:round;stroke-miterlimit:4;stroke-dasharray:none;stroke-dashoffset:0;stroke-opacity:1" />
            </g>
            <g
               id="g3551">
              <path
                 d="m 246.22968,269.24695 c 9.39235,-3.62365 17.55079,-9.94846 24.1677,-17.46132 7.25581,-6.77996 17.61723,-8.05593 25.86193,-13.19896 8.14594,-4.19376 18.21374,-4.49047 25.1618,-10.95615 3.04608,-3.07158 2.94548,-8.67929 -0.83227,-11.14298 -3.42426,-2.73723 -8.8187,-1.84747 -11.29795,1.71784 -7.04136,2.28986 -15.29633,0.32071 -21.58197,4.94379 -7.89324,4.68086 -14.47054,11.19012 -21.87502,16.5496 -9.54639,8.16394 -20.9704,13.79641 -30.54704,21.89012 -2.93791,3.58255 0.63376,8.44028 4.30613,9.6981 2.35477,1.04444 5.44463,0.4212 6.63669,-2.04004 z"
                 id="path2666"
                 style="fill:#e4ae01;fill-opacity:1;fill-rule:evenodd;stroke:#471913;stroke-width:1px;stroke-linecap:butt;stroke-linejoin:miter;stroke-opacity:1" />
              <g
                 id="g2618"
                 style="fill:#e4ae01;fill-opacity:1">
                <path
                   d="m 148.75845,281.20706 c -11.73456,8.14151 -4.30391,13.75764 -6.23256,21.04961 7.21608,-2.98196 12.8935,-11.50313 18.5801,-19.99125 -3.8425,-4.04299 -10.01612,-37.17752 -12.34754,-1.05836 z"
                   id="path2602"
                   style="fill:#e4ae01;fill-opacity:1;fill-rule:evenodd;stroke:#2c0404;stroke-width:1px;stroke-linecap:butt;stroke-linejoin:miter;stroke-opacity:1" />
                <path
                   d="m 159.60116,279.50749 c -10.82544,9.31633 -2.85165,14.13027 -4.01246,21.58312 6.86732,-3.71535 11.62895,-12.78014 16.40314,-21.813 2.29116,-5.8747 -11.78063,-36.64051 -12.39068,0.22988 z"
                   id="path2604"
                   style="fill:#e4ae01;fill-opacity:1;fill-rule:evenodd;stroke:#2c0404;stroke-width:1px;stroke-linecap:butt;stroke-linejoin:miter;stroke-opacity:1" />
                <path
                   d="m 173.00707,280.33066 c -10.82544,9.31633 -2.85165,14.13027 -4.01246,21.58312 6.86732,-3.71535 11.62895,-12.78014 16.40314,-21.813 6.35152,-7.9839 -8.87832,-37.97233 -12.39068,0.22988 z"
                   id="path2606"
                   style="fill:#e4ae01;fill-opacity:1;fill-rule:evenodd;stroke:#2c0404;stroke-width:1px;stroke-linecap:butt;stroke-linejoin:miter;stroke-opacity:1" />
                <path
                   d="m 184.8677,280.63011 c -9.53997,10.62888 -1.0142,14.37942 -1.2087,21.91962 15.27084,-10.44593 5.89394,-17.10707 13.46736,-23.73815 5.27411,-8.73317 -13.67925,-36.5185 -12.25866,1.81853 z"
                   id="path2608"
                   style="fill:#e4ae01;fill-opacity:1;fill-rule:evenodd;stroke:#2c0404;stroke-width:1px;stroke-linecap:butt;stroke-linejoin:miter;stroke-opacity:1" />
                <path
                   d="m 200.80225,275.92799 c -10.83477,10.61233 -1.15185,14.35703 -1.37275,21.88548 17.34346,-10.42966 6.69389,-17.08043 15.2952,-23.70118 5.98993,-8.71957 -15.53585,-36.46163 -13.92245,1.8157 z"
                   id="path2610"
                   style="fill:#e4ae01;fill-opacity:1;fill-rule:evenodd;stroke:#2c0404;stroke-width:1.06487px;stroke-linecap:butt;stroke-linejoin:miter;stroke-opacity:1" />
                <path
                   d="m 215.78259,276.68109 c -9.94314,11.45198 0.0104,14.40316 0.39765,21.92489 16.44535,-11.79508 5.29386,-17.56486 13.3329,-24.85806 5.26683,-9.17446 -18.42725,-35.08916 -13.73055,2.93317 z"
                   id="path2612"
                   style="fill:#e4ae01;fill-opacity:1;fill-rule:evenodd;stroke:#2c0404;stroke-width:1.06487px;stroke-linecap:butt;stroke-linejoin:miter;stroke-opacity:1" />
                <path
                   d="m 225.02799,276.44397 c -6.13063,13.87189 4.25058,13.76167 6.8353,20.83597 12.24361,-16.11421 -0.11236,-18.34494 5.42303,-27.68177 2.33216,-10.31849 -27.94164,-28.10832 -12.25833,6.8458 z"
                   id="path2614"
                   style="fill:#e4ae01;fill-opacity:1;fill-rule:evenodd;stroke:#2c0404;stroke-width:1.06487px;stroke-linecap:butt;stroke-linejoin:miter;stroke-opacity:1" />
                <path
                   d="m 235.19123,258.86389 c 16.06917,11.67721 13.13584,23.55839 7.52612,34.9259 -0.25807,-13.73581 -13.62612,-13.53847 -15.40503,-26.69421 z"
                   id="path2616"
                   style="fill:#e4ae01;fill-opacity:1;fill-rule:evenodd;stroke:#2c0404;stroke-width:1px;stroke-linecap:butt;stroke-linejoin:miter;stroke-opacity:1" />
              </g>
              <g
                 id="g2592"
                 style="fill:#e4ae01;fill-opacity:1">
                <path
                   d="m 139.93878,259.56946 c -0.94297,15.41838 2.37547,26.34157 0.58798,28.69333 9.32811,0.58569 13.67815,-10.43109 12.81792,-28.57573 z"
                   id="path2575"
                   style="fill:#e4ae01;fill-opacity:1;fill-rule:evenodd;stroke:#2c0404;stroke-width:1px;stroke-linecap:butt;stroke-linejoin:miter;stroke-opacity:1" />
                <path
                   d="m 152.47,249.17123 c -0.93363,20.08118 2.35193,34.30773 0.58215,37.37071 13.96353,-0.26979 18.28618,-22.92309 12.69094,-37.21754 z"
                   id="path2577"
                   style="fill:#e4ae01;fill-opacity:1;fill-rule:evenodd;stroke:#2c0404;stroke-width:1.13557px;stroke-linecap:butt;stroke-linejoin:miter;stroke-opacity:1" />
                <path
                   d="m 165.7583,247.4073 c 2.00626,20.08118 2.35193,34.30773 0.58215,37.37071 14.47872,-0.2584 16.35521,-13.52221 12.69094,-37.21754 z"
                   id="path2579"
                   style="fill:#e4ae01;fill-opacity:1;fill-rule:evenodd;stroke:#2c0404;stroke-width:1.13557px;stroke-linecap:butt;stroke-linejoin:miter;stroke-opacity:1" />
                <path
                   d="m 179.51699,247.64249 c 2.53028,22.24814 4.09086,35.53294 0.58215,37.37071 13.36157,-0.37012 11.67344,-13.99039 12.69094,-37.21754 z"
                   id="path2581"
                   style="fill:#e4ae01;fill-opacity:1;fill-rule:evenodd;stroke:#2c0404;stroke-width:1.13557px;stroke-linecap:butt;stroke-linejoin:miter;stroke-opacity:1" />
                <path
                   d="m 190.33232,246.31881 c 0.61018,20.09361 5.34833,34.45936 3.11325,38.47229 19.40552,-5.17016 9.5082,-15.62899 10.13245,-39.33816 z"
                   id="path2583"
                   style="fill:#e4ae01;fill-opacity:1;fill-rule:evenodd;stroke:#2c0404;stroke-width:1.13557px;stroke-linecap:butt;stroke-linejoin:miter;stroke-opacity:1"
                   sodipodi:nodetypes="cccc" />
                <path
                   d="m 201.00986,246.54602 c 2.62364,19.93093 8.98685,32.46491 7.16578,36.68188 18.24889,-6.50465 5.82696,-13.20104 5.92616,-38.87268 z"
                   id="path2585"
                   style="fill:#e4ae01;fill-opacity:1;fill-rule:evenodd;stroke:#2c0404;stroke-width:1.13557px;stroke-linecap:butt;stroke-linejoin:miter;stroke-opacity:1" />
                <path
                   d="m 213.59259,249.01553 c 2.62364,19.93093 8.98685,32.46491 7.16578,36.68188 12.01632,-6.26946 13.97729,-12.52185 5.92616,-38.87268 -7.71889,-8.07638 -12.88127,-9.44189 -13.09194,2.1908 z"
                   id="path2587"
                   style="fill:#e4ae01;fill-opacity:1;fill-rule:evenodd;stroke:#2c0404;stroke-width:1.13557px;stroke-linecap:butt;stroke-linejoin:miter;stroke-opacity:1" />
                <path
                   d="m 224.9456,242.92399 c 6.80436,14.73565 3.70069,26.28275 2.81883,28.86849 7.14228,-0.83318 12.7112,-11.16193 7.30262,-30.77887 z"
                   id="path2590"
                   style="fill:#e4ae01;fill-opacity:1;fill-rule:evenodd;stroke:#2c0404;stroke-width:0.87837px;stroke-linecap:butt;stroke-linejoin:miter;stroke-opacity:1" />
              </g>
              <g
                 id="g2556"
                 style="fill:#e4ae01;fill-opacity:1;stroke:#2c0404;stroke-opacity:1">
                <path
                   d="m 132.41266,262.15657 c 3.55948,-2.24235 5.06419,-7.28291 3.29268,-15.16984 -0.22019,-6.16906 5.26942,-8.76108 6.46776,-13.75868 l 10.46601,0.47038 c -3.50552,13.02801 -1.2425,32.36878 -20.22645,28.45814 z"
                   id="path2542"
                   style="fill:#e4ae01;fill-opacity:1;fill-rule:evenodd;stroke:#2c0404;stroke-width:1px;stroke-linecap:butt;stroke-linejoin:miter;stroke-opacity:1" />
                <path
                   d="m 143.11386,262.74455 c 3.55948,-2.24235 5.06419,-7.28291 3.29268,-15.16984 -0.22019,-6.16906 5.26942,-8.76108 6.46776,-13.75868 l 10.46601,0.47038 c -3.50552,13.02801 -1.2425,32.36878 -20.22645,28.45814 z"
                   id="path2544"
                   style="fill:#e4ae01;fill-opacity:1;fill-rule:evenodd;stroke:#2c0404;stroke-width:1px;stroke-linecap:butt;stroke-linejoin:miter;stroke-opacity:1" />
                <path
                   d="m 165.39671,265.67422 c 2.14706,-3.61776 1.19016,-8.79035 -3.97996,-15.00419 -3.00651,-5.39135 0.69943,-10.19971 -0.51062,-15.19449 l 9.53108,-4.34938 c 2.81471,13.19451 13.64052,29.38057 -5.0405,34.54806 z"
                   id="path2546"
                   style="fill:#e4ae01;fill-opacity:1;fill-rule:evenodd;stroke:#2c0404;stroke-width:1px;stroke-linecap:butt;stroke-linejoin:miter;stroke-opacity:1" />
                <path
                   d="m 179.50818,264.73346 c 2.14706,-3.61776 1.19016,-8.79035 -3.97996,-15.00419 -3.00651,-5.39135 -3.7692,-10.78769 -4.97925,-15.78247 l 13.99971,-3.7614 c 2.81471,13.19451 13.64052,29.38057 -5.0405,34.54806 z"
                   id="path2548"
                   style="fill:#e4ae01;fill-opacity:1;fill-rule:evenodd;stroke:#2c0404;stroke-width:1px;stroke-linecap:butt;stroke-linejoin:miter;stroke-opacity:1" />
                <path
                   d="m 192.56129,263.6751 c 2.14706,-3.61776 1.19016,-8.79035 -3.97996,-15.00419 -3.00651,-5.39135 -3.7692,-10.78769 -4.97925,-15.78247 l 13.99971,-3.7614 c 2.81471,13.19451 13.64052,29.38057 -5.0405,34.54806 z"
                   id="path2550"
                   style="fill:#e4ae01;fill-opacity:1;fill-rule:evenodd;stroke:#2c0404;stroke-width:1px;stroke-linecap:butt;stroke-linejoin:miter;stroke-opacity:1" />
                <path
                   d="m 207.96632,264.85106 c 2.14706,-3.61776 1.19016,-8.79035 -3.97996,-15.00419 -3.00651,-5.39135 -3.7692,-10.78769 -4.97925,-15.78247 l 13.99971,-3.7614 c 2.81471,13.19451 13.64052,29.38057 -5.0405,34.54806 z"
                   id="path2552"
                   style="fill:#e4ae01;fill-opacity:1;fill-rule:evenodd;stroke:#2c0404;stroke-width:1px;stroke-linecap:butt;stroke-linejoin:miter;stroke-opacity:1" />
                <path
                   d="m 230.55054,258.59098 c 0.88663,-4.11241 -3.66298,-9.41868 -10.53922,-13.66831 -4.56341,-4.15704 -7.00082,-9.03159 -9.73485,-13.38327 3.3045,-3.58959 1.93099,-15.41087 4.93214,-19.00046 l 12.00426,0.073 c -3.03103,2.97306 -7.47188,5.20411 -4.85668,11.14887 6.86033,11.61695 24.26624,23.99605 8.19435,34.83015 z"
                   id="path2554"
                   style="fill:#e4ae01;fill-opacity:1;fill-rule:evenodd;stroke:#2c0404;stroke-width:1px;stroke-linecap:butt;stroke-linejoin:miter;stroke-opacity:1" />
              </g>
              <g
                 id="g3527">
                <path
                   d="m 228.72935,170.88505 c -2.38667,4.1574 -1.19015,7.33756 -0.2352,10.5836 20.7462,-5.89039 27.06325,-17.05297 31.75082,-28.81093 -10.58884,6.88342 -21.21212,16.46091 -31.51562,18.22733 z"
                   id="path2573"
                   style="fill:#f1fff7;fill-opacity:1;fill-rule:evenodd;stroke:#4c574f;stroke-width:1px;stroke-linecap:butt;stroke-linejoin:miter;stroke-opacity:1" />
                <path
                   d="m 153.46543,204.64038 c -9.32619,-3.00624 -14.71711,-7.22333 -15.86676,-12.74543 7.02299,-7.47012 14.04599,-11.41375 21.06898,-11.9651 0.4744,-4.38002 2.48431,-10.85602 -0.52022,-15.60666 4.62854,2.05902 20.5803,2.97424 23.75838,0.66823 -3.62232,1.74123 -25.35348,0.91308 -29.47518,-4.59462 -8.04308,-3.95366 -15.65198,6.7275 -3.64719,12.77016 -7.85644,9.24148 -29.73091,-5.63122 -11.18477,-21.06898 5.64216,-1.36799 11.33319,-2.58937 18.20776,-0.26011 11.23753,4.92883 22.43528,9.63885 31.21331,1.04044 8.12798,-3.76149 20.43511,6.64734 32.77398,1.30056 4.48713,-1.61621 7.19514,-4.7574 7.2831,-10.14433 2.72325,-9.7279 -2.06296,-21.40858 -1.04044,-32.25375 10.023,-20.863955 23.65379,-17.91647 36.67563,-18.988097 17.98211,5.678605 10.5344,19.096837 21.58921,28.872307 1.59622,1.5256 2.56257,5.82263 1.04044,21.06899 -5.10094,8.99097 -7.46426,-3.23469 -10.14432,-13.00555 -17.01423,16.19347 -7.32047,-8.15826 -9.36399,-13.00554 -2.76976,-5.883 -19.95113,-4.33613 -20.28866,3.12133 -3.85609,18.42989 5.80631,27.48134 2.341,43.69863 -3.22203,10.39744 -4.07902,21.9774 -10.66454,30.69309 10.95523,-0.94117 10.22124,3.51268 13.78587,5.98255 -16.62496,17.38316 -21.6939,11.65427 -30.17286,12.74543 z"
                   id="path2673"
                   style="fill:#e4ae01;fill-opacity:1;fill-rule:evenodd;stroke:#471913;stroke-width:1px;stroke-linecap:butt;stroke-linejoin:miter;stroke-opacity:1" />
                <g
                   id="g3478">
                  <path
                     d="m 155.32388,192.27239 c 0.90331,-0.0845 1.80809,-0.14462 2.71435,-0.18539 0.64688,-0.0278 1.29435,-0.0343 1.94173,-0.0369 0.49939,0.008 0.98694,0.0221 1.47517,-0.0871 0.34553,-0.18868 0.71501,-0.31135 1.07392,-0.46918 0.41844,-0.13669 0.86172,-0.2001 1.19274,-0.50844 0.28472,-0.25937 0.57413,-0.53072 0.81217,-0.83559 0.18967,-0.16532 0.10425,-0.0756 0.25737,-0.26812 l -0.97193,2.3879 c -0.17438,0.17839 -0.0893,0.0888 -0.25552,0.26851 -0.27428,0.28369 -0.53658,0.58428 -0.86269,0.81096 -0.38898,0.23043 -0.82728,0.32307 -1.24506,0.48747 -0.36711,0.16441 -0.74653,0.30705 -1.12443,0.44222 -0.50218,0.0874 -1.00859,0.0568 -1.51654,0.0587 -0.64151,4.5e-4 -1.28313,0.003 -1.92433,0.0251 -0.90396,0.0355 -1.80859,0.0882 -2.70514,0.21407 l 1.13819,-2.30422 z"
                     id="path2675"
                     style="fill:#572513;fill-opacity:1;fill-rule:evenodd;stroke:#471913;stroke-width:1;stroke-linecap:round;stroke-linejoin:round;stroke-miterlimit:4;stroke-dasharray:none;stroke-dashoffset:0;stroke-opacity:1" />
                  <g
                     transform="translate(68.402075,46.937976)"
                     id="g3474">
                    <path
                       d="m 136.54462,123.1196 c -0.23035,-0.0658 -0.80632,-0.35235 -1.27992,-0.63685 -1.275,-0.76595 -1.75313,-0.99143 -2.71628,-1.28093 l -0.87062,-0.26171 0.23066,-0.26522 c 0.33964,-0.39052 1.3291,-1.108 1.84671,-1.33909 0.70973,-0.31685 2.16183,-0.40411 3.43606,-0.2065 2.6936,0.41774 4.59617,0.81637 4.86943,1.02025 0.40201,0.29993 0.66247,0.74251 0.66247,1.12567 0,0.72509 -0.76112,1.31268 -2.29404,1.77101 -0.81064,0.24236 -3.13845,0.28633 -3.88447,0.0734 v 0 z"
                       id="path3472"
                       style="fill:#ffffff;fill-opacity:1;fill-rule:evenodd;stroke:none" />
                    <path
                       d="m 136.03125,117.40625 c -2.41896,0.7697 -3.16738,0.45632 -4.52273,1.87739 -0.94124,0.56598 -1.39189,1.61529 -2.07102,2.43511 -0.23708,0.75789 -0.63308,1.43213 -1.11899,2.05825 -0.37608,0.87144 -3.86985,3.84966 -3.15277,4.81566 0.85667,-0.33261 3.55125,-4.24703 3.70996,0.57903 0.57736,1.04302 1.39793,2.06713 2.62291,2.33603 0.95902,0.27794 1.97372,0.10022 2.9589,0.15634 1.21841,0.0177 2.43328,-0.0653 3.63717,-0.24259 1.03998,-0.0801 2.0828,-0.004 3.12407,-0.0152 0.2819,-0.72545 1.06398,-1.79083 1.02169,-2.30792 -1.48634,0.0208 -2.9825,-0.0506 -4.45321,0.21003 -1.54105,0.12214 -3.08757,0.0477 -4.63098,0.0354 -0.97532,-0.1718 -1.89838,-0.67553 -2.41224,-1.54271 -0.73342,-0.93834 -0.92217,-2.21677 -1.76154,-3.07435 -8.4e-4,-0.407 0.43955,-1.47935 0.84605,-1.52328 0.32935,0.0958 0.88968,0.16518 1.38229,0.19661 1.21923,0.10652 2.31336,0.67604 3.41419,1.16248 1.43906,0.46385 2.99515,0.40571 4.47521,0.2168 0.95511,-0.26492 1.97981,-0.44914 2.83087,-0.97335 1.02139,-0.8112 1.27936,-2.17078 1.83843,-3.28266 0.11483,-0.64877 1.2561,-2.05212 -7e-4,-2.11127 -1.03436,0.10362 -2.00987,-0.22928 -2.94557,-0.63347 -0.95094,-0.23595 -1.96173,-0.11158 -2.91699,-0.3723 -0.62488,-0.008 -1.2507,-0.0461 -1.875,0 z m -0.4375,2.28125 c 0.74337,-0.0354 1.47691,0.0663 2.20447,0.19541 0.73627,0.0662 1.50889,-0.002 2.20178,0.30459 0.84598,0.0283 1.87263,0.0385 2.46625,0.73597 0.35941,0.9083 -0.89628,1.12939 -1.50909,1.34772 -1.2203,0.4031 -2.5329,0.34047 -3.79858,0.29406 -1.02324,-0.097 -1.96686,-0.53302 -2.88259,-0.96418 -0.74142,-0.29328 -1.87088,-0.42564 -2.43224,-0.56982 0.89998,-0.74903 2.02121,-1.2622 3.20671,-1.31404 0.18074,-0.0155 0.36195,-0.0252 0.54329,-0.0297 z"
                       id="path2677"
                       style="fill:#471913;fill-opacity:1;fill-rule:evenodd;stroke:none" />
                  </g>
                </g>
                <g
                   id="g3510"
                   style="stroke:#471913;stroke-opacity:1">
                  <path
                     d="m 236.10509,159.76357 c 3.40831,2.45206 6.65398,5.51402 12.50107,-1.17934"
                     id="path3484"
                     style="fill:none;stroke:#471913;stroke-width:1px;stroke-linecap:butt;stroke-linejoin:miter;stroke-opacity:1" />
                  <path
                     d="m 248.60616,152.45163 c -2.92054,3.61488 -6.63405,1.67893 -10.14237,1.17934"
                     id="path3486"
                     style="fill:none;stroke:#471913;stroke-width:1px;stroke-linecap:butt;stroke-linejoin:miter;stroke-opacity:1" />
                  <path
                     d="m 235.63336,144.66794 c 3.69253,1.10624 6.59976,3.78306 12.02933,1.41522"
                     id="path3488"
                     style="fill:none;stroke:#471913;stroke-width:1px;stroke-linecap:butt;stroke-linejoin:miter;stroke-opacity:1" />
                  <path
                     d="m 246.24747,139.95056 c -3.49301,1.11144 -7.02354,2.4105 -9.90651,0.47174"
                     id="path3490"
                     style="fill:none;stroke:#471913;stroke-width:1px;stroke-linecap:butt;stroke-linejoin:miter;stroke-opacity:1" />
                  <path
                     d="m 233.98227,132.87448 c 4.67702,2.11306 9.88915,5.18933 11.55759,1.88695"
                     id="path3492"
                     style="fill:none;stroke:#471913;stroke-width:1px;stroke-linecap:butt;stroke-linejoin:miter;stroke-opacity:1" />
                  <path
                     d="m 245.06812,129.33644 c -4.90062,0.60916 -6.93652,-0.93021 -9.43476,-2.12282"
                     id="path3494"
                     style="fill:none;stroke:#471913;stroke-width:1px;stroke-linecap:butt;stroke-linejoin:miter;stroke-opacity:1" />
                  <path
                     d="m 232.09532,120.37341 c 2.25163,3.66652 7.66149,3.54314 12.9728,3.53804"
                     id="path3496"
                     style="fill:none;stroke:#471913;stroke-width:1px;stroke-linecap:butt;stroke-linejoin:miter;stroke-opacity:1" />
                  <path
                     d="m 235.39749,114.00494 c 2.41303,2.02609 3.91912,4.35449 9.9065,5.18913"
                     id="path3498"
                     style="fill:none;stroke:#471913;stroke-width:1px;stroke-linecap:butt;stroke-linejoin:miter;stroke-opacity:1" />
                  <path
                     d="m 236.34096,109.05169 c 12.4073,2.29582 13.1763,3.97911 13.91629,5.66086"
                     id="path3500"
                     style="fill:none;stroke:#471913;stroke-width:1px;stroke-linecap:butt;stroke-linejoin:miter;stroke-opacity:1" />
                  <path
                     d="m 246.24747,103.6267 c 5.62219,1.75119 8.52974,5.01051 8.49129,9.9065"
                     id="path3502"
                     style="fill:none;stroke:#471913;stroke-width:1px;stroke-linecap:butt;stroke-linejoin:miter;stroke-opacity:1" />
                  <path
                     d="m 253.32355,102.68322 c 4.84054,3.05739 7.56629,6.53774 6.1326,10.84998"
                     id="path3504"
                     style="fill:none;stroke:#471913;stroke-width:1px;stroke-linecap:butt;stroke-linejoin:miter;stroke-opacity:1" />
                  <path
                     d="m 266.76809,105.51365 c -0.96804,4.59454 -2.41709,6.78404 -4.00977,8.25542"
                     id="path3506"
                     style="fill:none;stroke:#471913;stroke-width:1px;stroke-linecap:butt;stroke-linejoin:miter;stroke-opacity:1" />
                  <path
                     d="m 272.19309,109.28756 c -2.20145,4.10422 -4.40289,5.86223 -6.60434,6.84021"
                     id="path3508"
                     style="fill:none;stroke:#471913;stroke-width:1px;stroke-linecap:butt;stroke-linejoin:miter;stroke-opacity:1" />
                </g>
                <path
                   d="m 225.19131,187.63176 c -2.38667,4.1574 -1.19015,7.33756 -0.2352,10.5836 20.7462,-5.89039 27.06325,-17.05297 31.75082,-28.81093 -10.58884,6.88342 -21.21212,16.46091 -31.51562,18.22733 z"
                   id="path3525"
                   style="fill:#f1fff7;fill-opacity:1;fill-rule:evenodd;stroke:#4c574f;stroke-width:1px;stroke-linecap:butt;stroke-linejoin:miter;stroke-opacity:1" />
              </g>
              <g
                 id="g2565"
                 style="stroke:#2c0404;stroke-opacity:1;fill:#e4ae01;fill-opacity:1">
                <path
                   d="m 150.92382,199.18407 c -0.41445,8.48663 -3.01069,11.82904 -9.42908,15.13025 -5.92645,3.04819 4.6958,14.46992 -9.15205,19.23577 7.30133,-1.57642 19.00929,11.93685 19.20601,-13.96827 2.01075,-0.94005 16.46096,-6.4907 20.30933,-18.19404 -7.16409,-2.06733 -14.47961,-0.29807 -20.93421,-2.20371 z"
                   id="path2532"
                   style="fill:#e4ae01;fill-opacity:1;fill-rule:evenodd;stroke:#2c0404;stroke-width:0.880974px;stroke-linecap:butt;stroke-linejoin:miter;stroke-opacity:1" />
                <path
                   d="m 161.87884,200.40351 c 1.63883,8.38264 -1.56999,10.56227 -10.84485,14.86953 -8.56398,3.97712 11.35258,13.38905 -9.29558,20.3736 11.1401,-2.76537 33.34229,8.5138 26.64733,-16.89518 2.96288,-1.26595 17.48527,-12.75225 11.8685,-19.427 -5.33354,-2.70657 0.9608,0.33932 -18.3754,1.07905 z"
                   id="path2534"
                   style="fill:#e4ae01;fill-opacity:1;fill-rule:evenodd;stroke:#2c0404;stroke-width:1.11332px;stroke-linecap:butt;stroke-linejoin:miter;stroke-opacity:1" />
                <path
                   d="m 173.75571,199.16382 c 1.63691,9.11188 -1.56814,10.43815 -10.83211,15.12012 -8.55392,4.3231 11.33925,14.55381 -9.28466,22.14597 11.12701,-3.00594 33.30313,9.25445 26.61603,-18.36495 2.9594,-1.37608 17.46474,-13.86162 11.85457,-21.11703 -5.32728,-2.94202 -9.37756,-0.61274 -18.35383,2.21589 z"
                   id="path2536"
                   style="fill:#e4ae01;fill-opacity:1;fill-rule:evenodd;stroke:#2c0404;stroke-width:1.16006px;stroke-linecap:butt;stroke-linejoin:miter;stroke-opacity:1" />
                <path
                   d="m 185.53794,195.77176 c 1.31814,8.40834 -1.02758,13.06884 -8.48752,17.3893 -6.88817,3.98932 9.13109,14.25327 -7.47661,21.25924 7.43145,2.98834 29.16973,5.24722 21.43294,-17.77015 0.15646,-3.46208 19.32732,-5.09677 11.67333,-19.62775 -4.28986,-2.71487 -7.83985,-1.9811 -17.14214,-1.25064 z"
                   id="path2538"
                   style="fill:#e4ae01;fill-opacity:1;fill-rule:evenodd;stroke:#2c0404;stroke-width:1px;stroke-linecap:butt;stroke-linejoin:miter;stroke-opacity:1" />
                <path
                   d="m 198.59105,195.30138 c 1.31814,8.40834 -1.26277,14.36239 -8.72271,18.68285 -6.88817,3.98932 9.13109,14.25327 -7.47661,21.25924 8.96019,-2.77385 29.16973,5.24722 21.43294,-17.77015 0.15646,-3.46208 19.32732,-5.09677 11.67333,-19.62775 -4.28986,-2.71487 -7.60466,-3.27465 -16.90695,-2.54419 z"
                   id="path2540"
                   style="fill:#e4ae01;fill-opacity:1;fill-rule:evenodd;stroke:#2c0404;stroke-width:1px;stroke-linecap:butt;stroke-linejoin:miter;stroke-opacity:1" />
                <path
                   d="m 212.82012,196.59492 c 1.31814,8.40834 -1.26277,12.12808 -8.72271,16.44854 -6.88817,3.98932 7.24956,14.84125 -9.35814,21.84722 8.96019,-2.77385 28.69935,7.12875 23.31447,-18.35813 0.15646,-3.46208 1.92317,-4.50879 4.73519,-3.98753 -4.28986,-2.71487 -2.07767,-12.9175 -9.96881,-15.9501 z"
                   id="path2530"
                   style="fill:#e4ae01;fill-opacity:1;fill-rule:evenodd;stroke:#2c0404;stroke-width:1px;stroke-linecap:butt;stroke-linejoin:miter;stroke-opacity:1" />
              </g>
            </g>
            <g
               id="g2652"
               style="fill:#e4ae01;fill-opacity:1">
              <path
                 d="m 164.37414,345.88776 c 0,4.31809 -0.3775,7.79895 -3.65706,7.79895 -3.27956,0 -9.61948,-2.43934 -6.82861,-6.85016 2.21308,-3.49765 3.39424,-8.56298 5.84342,-9.01423 3.22076,-0.59341 4.64225,3.74735 4.64225,8.06544 z"
                 transform="matrix(0.8731627,-0.5977919,0.593107,0.8800598,-204.46126,182.83446)"
                 id="path2649"
                 style="fill:#e4ae01;fill-opacity:1;fill-rule:evenodd;stroke:#2c0404;stroke-width:1;stroke-linecap:round;stroke-linejoin:round;stroke-miterlimit:4;stroke-dashoffset:0;stroke-opacity:1" />
              <path
                 d="m 164.37414,345.88776 a 5.941235,7.8226264 0 1 1 -11.88247,0 5.941235,7.8226264 0 1 1 11.88247,0 z"
                 transform="matrix(0.8731627,-0.5977919,0.593107,0.8800598,-199.51023,177.48735)"
                 id="path2628"
                 style="fill:#e4ae01;fill-opacity:1;fill-rule:evenodd;stroke:#2c0404;stroke-width:1;stroke-linecap:round;stroke-linejoin:round;stroke-miterlimit:4;stroke-dasharray:none;stroke-dashoffset:0;stroke-opacity:1" />
              <path
                 d="m 164.37414,345.88776 a 5.941235,7.8226264 0 1 1 -11.88247,0 5.941235,7.8226264 0 1 1 11.88247,0 z"
                 transform="matrix(0.9418965,-0.6553405,0.6397953,0.9647819,-219.22132,151.75545)"
                 id="path2630"
                 style="fill:#e4ae01;fill-opacity:1;fill-rule:evenodd;stroke:#2c0404;stroke-width:1;stroke-linecap:round;stroke-linejoin:round;stroke-miterlimit:4;stroke-dasharray:none;stroke-dashoffset:0;stroke-opacity:1" />
              <path
                 d="m 164.37414,345.88776 a 5.941235,7.8226264 0 1 1 -11.88247,0 5.941235,7.8226264 0 1 1 11.88247,0 z"
                 transform="matrix(0.9418965,-0.6553405,0.6397953,0.9647819,-213.67617,147.59659)"
                 id="path2632"
                 style="fill:#e4ae01;fill-opacity:1;fill-rule:evenodd;stroke:#2c0404;stroke-width:1;stroke-linecap:round;stroke-linejoin:round;stroke-miterlimit:4;stroke-dasharray:none;stroke-dashoffset:0;stroke-opacity:1" />
              <path
                 d="m 164.37414,345.88776 a 5.941235,7.8226264 0 1 1 -11.88247,0 5.941235,7.8226264 0 1 1 11.88247,0 z"
                 transform="matrix(0.9418965,-0.6553405,0.6397953,0.9647819,-204.56628,142.64556)"
                 id="path2634"
                 style="fill:#e4ae01;fill-opacity:1;fill-rule:evenodd;stroke:#2c0404;stroke-width:1;stroke-linecap:round;stroke-linejoin:round;stroke-miterlimit:4;stroke-dasharray:none;stroke-dashoffset:0;stroke-opacity:1" />
              <path
                 d="m 164.37414,345.88776 a 5.941235,7.8226264 0 1 1 -11.88247,0 5.941235,7.8226264 0 1 1 11.88247,0 z"
                 transform="matrix(0.9418965,-0.6553405,0.6397953,0.9647819,-196.44659,137.49649)"
                 id="path2636"
                 style="fill:#e4ae01;fill-opacity:1;fill-rule:evenodd;stroke:#2c0404;stroke-width:1;stroke-linecap:round;stroke-linejoin:round;stroke-miterlimit:4;stroke-dasharray:none;stroke-dashoffset:0;stroke-opacity:1" />
              <path
                 d="m 164.37414,345.88776 a 5.941235,7.8226264 0 1 1 -11.88247,0 5.941235,7.8226264 0 1 1 11.88247,0 z"
                 transform="matrix(1.0242007,-0.6830314,0.6957015,1.0055481,-219.21854,121.04973)"
                 id="path2638"
                 style="fill:#e4ae01;fill-opacity:1;fill-rule:evenodd;stroke:#2c0404;stroke-width:1;stroke-linecap:round;stroke-linejoin:round;stroke-miterlimit:4;stroke-dasharray:none;stroke-dashoffset:0;stroke-opacity:1" />
              <path
                 d="m 164.37414,345.88776 c 0,4.49558 -2.66167,8.14416 -5.94123,8.14416 -3.27956,0 -5.94124,-3.64858 -5.94124,-8.14416 0,-4.49558 2.88205,-9.07459 6.16161,-9.07459 3.27956,0 5.72086,4.57901 5.72086,9.07459 z"
                 transform="matrix(0.8675648,-1.0224278,1.056888,0.8220865,-306.85567,232.04012)"
                 id="path2640"
                 style="fill:#e4ae01;fill-opacity:1;fill-rule:evenodd;stroke:#2c0404;stroke-width:1;stroke-linecap:round;stroke-linejoin:round;stroke-miterlimit:4;stroke-dashoffset:0;stroke-opacity:1" />
              <path
                 d="m 164.37414,345.88776 c 0,4.31809 -2.66167,7.82262 -5.94123,7.82262 -3.27956,0 -5.94124,-3.50453 -5.94124,-7.82262 0,-4.31809 2.66227,-7.52982 5.94124,-7.82263 4.2351,-0.37819 8.36983,2.54334 5.94123,7.82263 z"
                 transform="matrix(0.8675648,-1.0224278,1.056888,0.8220865,-297.15165,224.11847)"
                 id="path2642"
                 style="fill:#e4ae01;fill-opacity:1;fill-rule:evenodd;stroke:#2c0404;stroke-width:1;stroke-linecap:round;stroke-linejoin:round;stroke-miterlimit:4;stroke-dashoffset:0;stroke-opacity:1" />
              <path
                 d="m 164.37414,345.88776 c 0,4.31809 -2.66167,7.82262 -5.94123,7.82262 -3.27956,0 -3.73971,-3.64953 -5.94124,-7.82262 -2.60079,-4.9299 2.66168,-7.82263 5.94124,-7.82263 3.27956,0 5.94123,3.50454 5.94123,7.82263 z"
                 transform="matrix(1.0581477,-0.4611453,0.3572977,1.3129232,-75.068408,-41.413981)"
                 id="path2644"
                 style="fill:#e4ae01;fill-opacity:1;fill-rule:evenodd;stroke:#2c0404;stroke-width:1;stroke-linecap:round;stroke-linejoin:round;stroke-miterlimit:4;stroke-dashoffset:0;stroke-opacity:1" />
            </g>
          </g>
        </g>
      </g>
    </g>
  </g>
</svg>
