<?xml version="1.0" encoding="UTF-8" standalone="no"?>
<!-- Created with Inkscape (http://www.inkscape.org/) -->

<svg
   width="150mm"
   height="100mm"
   viewBox="0 0 150 100"
   version="1.1"
   id="svg5"
   inkscape:version="1.2 (dc2aedaf03, 2022-05-15)"
   sodipodi:docname="baycommonwealth.svg"
   xmlns:inkscape="http://www.inkscape.org/namespaces/inkscape"
   xmlns:sodipodi="http://sodipodi.sourceforge.net/DTD/sodipodi-0.dtd"
   xmlns="http://www.w3.org/2000/svg"
   xmlns:svg="http://www.w3.org/2000/svg">
  <sodipodi:namedview
     id="namedview7"
     pagecolor="#ffffff"
     bordercolor="#666666"
     borderopacity="1.0"
     inkscape:showpageshadow="2"
     inkscape:pageopacity="0.0"
     inkscape:pagecheckerboard="0"
     inkscape:deskcolor="#d1d1d1"
     inkscape:document-units="mm"
     showgrid="false"
     inkscape:zoom="0.52724989"
     inkscape:cx="676.14998"
     inkscape:cy="398.29312"
     inkscape:window-width="1920"
     inkscape:window-height="1017"
     inkscape:window-x="-8"
     inkscape:window-y="-8"
     inkscape:window-maximized="1"
     inkscape:current-layer="layer1" />
  <defs
     id="defs2" />
  <g
     inkscape:label="Layer 1"
     inkscape:groupmode="layer"
     id="layer1"
     transform="translate(-10.645162,-60.677647)">
    <rect
       style="fill:#000080;fill-opacity:1;stroke:none;stroke-width:6.38754;stroke-linecap:round;stroke-linejoin:round"
       id="rect401"
       width="150"
       height="100"
       x="10.645162"
       y="60.677647" />
    <rect
       style="fill:#d40000;stroke-width:3;stroke-linecap:round;paint-order:fill markers stroke"
       id="rect516"
       width="15"
       height="99.999992"
       x="78.145157"
       y="60.677647" />
    <rect
       style="fill:#d40000;stroke-width:3;stroke-linecap:round;paint-order:fill markers stroke"
       id="rect540"
       width="150"
       height="15"
       x="10.645159"
       y="103.17764" />
    <rect
       style="fill:#ffffff;stroke-width:3;stroke-linecap:round;paint-order:fill markers stroke"
       id="rect718"
       width="67.499992"
       height="42.499996"
       x="10.645162"
       y="60.677647" />
    <path
       id="path3777"
       d="m 48.876472,99.396567 c 0,0 -0.752065,-1.05377 -1.162902,-1.80184 -1.071473,-1.888962 -1.267587,-5.236315 -1.542259,-8.655684 0,0 1.65543,2.232083 2.80315,2.99942 0.352282,0.235529 1.28166,0.463726 1.28166,0.463726 l 2.027098,1.508305 c 0,0 3.523103,2.253863 3.974495,1.73125 0.391006,-0.452786 -2.480086,-2.435656 -3.502112,-3.637288 -1.022021,-1.201624 -2.783599,-3.282452 -2.499481,-3.528711 0,0 1.365348,1.602646 2.386896,1.99053 0.216316,0.08222 0.705069,-0.02836 0.885251,0.117773 1.196272,0.969702 2.668181,1.67608 4.0871,2.3551 1.913056,0.91553 5.975949,1.735621 5.989288,1.094036 0.006,-0.285767 -2.605033,-1.571236 -5.131626,-3.649429 -2.707496,-2.227158 -5.21461,-5.546381 -5.620922,-6.037692 -0.39595,-0.478836 3.132334,2.314385 4.76326,2.135653 0.151483,-0.01653 0.128303,-0.41218 0.273835,-0.36665 1.160177,0.363043 2.377742,0.743477 3.330617,0.941907 2.593022,0.54013 2.60386,0.05495 2.581926,-0.305028 -0.02087,-0.342572 -7.700425,-2.247512 -12.777423,-8.127279 -0.194961,-0.225789 1.963337,1.438915 3.065851,1.130933 0.159426,-0.04455 0.133978,-0.342907 0.298299,-0.323636 0.976439,0.114258 4.096137,1.210928 4.072689,0.362925 -0.01346,-0.487041 -2.624554,-1.253069 -4.92586,-2.860421 -1.975459,-1.379702 -3.47413,-2.758849 -4.326625,-3.579602 -0.217023,-0.208935 1.480806,1.072919 2.23301,0.829176 0.112608,-0.03641 0.02198,-0.22448 0.139394,-0.210033 0.655846,0.0802 2.889737,1.317861 3.111775,0.560483 0.04888,-0.166793 -2.031159,-1.293121 -3.817489,-2.686505 -1.786333,-1.393385 -3.299344,-2.971508 -3.299344,-2.971508 0.477992,0.285221 1.084203,0.678357 1.477118,0.627239 0.05797,-0.03322 0.176017,-0.06754 0.108074,-0.263433 0.250936,0.04673 1.803582,0.840997 1.924905,0.32867 0.06297,-0.155853 -2.394784,-1.439242 -3.761808,-2.530106 -1.454331,-1.160591 -2.929141,-2.580126 -2.929141,-2.580126 0,0 -1.474834,1.419535 -2.929162,2.580126 -1.367024,1.090864 -3.824781,2.374253 -3.76181,2.530106 0.121322,0.512327 1.673971,-0.28194 1.924903,-0.32867 -0.06794,0.195905 0.0501,0.230168 0.108076,0.263433 0.392917,0.05109 0.999121,-0.342018 1.477121,-0.627239 0,0 -1.513015,1.578123 -3.299344,2.971508 -1.786331,1.393384 -3.866371,2.519712 -3.817492,2.686505 0.222039,0.757378 2.455929,-0.480254 3.111778,-0.560483 0.117406,-0.01443 0.02679,0.173589 0.13939,0.210033 0.752204,0.243743 2.450036,-1.038111 2.233014,-0.829176 -0.852495,0.820753 -2.351166,2.1999 -4.326629,3.579602 -2.301305,1.607352 -4.912395,2.37338 -4.92586,2.860421 -0.02345,0.848003 3.096251,-0.248667 4.07269,-0.362925 0.164321,-0.0193 0.138875,0.279088 0.298302,0.323636 1.102512,0.307982 3.260808,-1.356722 3.065846,-1.130933 -5.076992,5.879767 -12.75655,7.784707 -12.777422,8.127279 -0.02193,0.359972 -0.0111,0.845158 2.581929,0.305028 0.952872,-0.19843 2.170439,-0.578864 3.330617,-0.941907 0.145529,-0.04555 0.122353,0.350123 0.273832,0.36665 1.630926,0.178732 5.159213,-2.614489 4.763263,-2.135653 -0.406316,0.491311 -2.913424,3.810534 -5.620923,6.037692 -2.526591,2.078193 -5.137567,3.363662 -5.131625,3.649429 0.01334,0.641585 4.076225,-0.178506 5.989285,-1.094036 1.418924,-0.67902 2.890831,-1.385398 4.087101,-2.3551 0.180181,-0.146121 0.668938,-0.03557 0.88525,-0.117773 1.021549,-0.387884 2.386898,-1.99053 2.386898,-1.99053 0.284117,0.246259 -1.477459,2.327087 -2.499482,3.528711 -1.022024,1.201632 -3.893116,3.184502 -3.50211,3.637288 0.451391,0.522613 3.974493,-1.73125 3.974493,-1.73125 l 2.027099,-1.508305 c 0,0 0.929375,-0.228197 1.281662,-0.463726 1.147714,-0.767337 2.803146,-2.99942 2.803146,-2.99942 -0.274672,3.419369 -0.470786,6.766722 -1.542258,8.655684 -0.410835,0.74807 -1.162953,1.80184 -1.162953,1.80184 z"
       fill="#006338"
       stroke-width="0.0386466" />
  </g>
</svg>
