<?xml version="1.0" encoding="UTF-8" standalone="no"?>
<!-- Created with Inkscape (http://www.inkscape.org/) -->

<svg
   width="150mm"
   height="100mm"
   viewBox="0 0 150 100"
   version="1.1"
   id="svg5"
   inkscape:version="1.2 (dc2aedaf03, 2022-05-15)"
   sodipodi:docname="bigmsokeysyndicate.svg"
   xmlns:inkscape="http://www.inkscape.org/namespaces/inkscape"
   xmlns:sodipodi="http://sodipodi.sourceforge.net/DTD/sodipodi-0.dtd"
   xmlns="http://www.w3.org/2000/svg"
   xmlns:svg="http://www.w3.org/2000/svg">
  <sodipodi:namedview
     id="namedview7"
     pagecolor="#ffffff"
     bordercolor="#666666"
     borderopacity="1.0"
     inkscape:showpageshadow="2"
     inkscape:pageopacity="0.0"
     inkscape:pagecheckerboard="0"
     inkscape:deskcolor="#d1d1d1"
     inkscape:document-units="mm"
     showgrid="false"
     inkscape:zoom="0.52724989"
     inkscape:cx="979.6114"
     inkscape:cy="610.71611"
     inkscape:window-width="1920"
     inkscape:window-height="1017"
     inkscape:window-x="-8"
     inkscape:window-y="-8"
     inkscape:window-maximized="1"
     inkscape:current-layer="layer1" />
  <defs
     id="defs2" />
  <g
     inkscape:label="Layer 1"
     inkscape:groupmode="layer"
     id="layer1"
     transform="translate(-10.645162,-60.677647)">
    <rect
       style="fill:#000000;stroke-width:3.67423;stroke-linecap:round;paint-order:fill markers stroke"
       id="rect1168-4"
       width="74.999992"
       height="100"
       x="10.645162"
       y="60.677647" />
    <rect
       style="fill:#000000;stroke-width:3;stroke-linecap:round;paint-order:fill markers stroke"
       id="rect1168-4-5"
       width="50"
       height="100"
       x="-30.096783"
       y="-191.58087" />
    <rect
       style="fill:#d50032;fill-opacity:1;stroke-width:3.67423;stroke-linecap:round;paint-order:fill markers stroke"
       id="rect1168-4-1"
       width="74.999992"
       height="100"
       x="85.645164"
       y="60.677647" />
    <path
       style="fill:#d50032;fill-opacity:1;stroke-width:0.0814607"
       d="m 45.089249,141.83332 c -9.36415,-0.91585 -17.93007,-6.08795 -23.05385,-13.91988 -2.85572,-4.36512 -4.47162,-8.8952 -5.01239,-14.052 -1.20989,-11.53717 4.20527,-22.952546 13.89207,-29.285036 1.35599,-0.88645 2.1585,-1.3499 3.3512,-1.93535 4.38749,-2.15368 9.03086,-3.23643 13.88286,-3.23725 7.76134,-10e-4 15.05924,2.79828 20.93031,8.02917 4.522584,4.02941 7.815524,9.46673 9.370174,15.472006 3.16063,12.20882 -1.44056,25.29051 -11.544274,32.82172 -4.66774,3.47928 -10.08494,5.56659 -15.86946,6.11465 -1.58284,0.14997 -4.36966,0.14626 -5.94664,-0.008 z m 6.55759,-1.69729 c 2.82218,-0.38394 4.8511,-0.89176 7.17312,-1.79536 9.0591,-3.52535 15.751274,-11.11053 18.111544,-20.52837 0.24404,-0.97377 0.47317,-2.22437 0.67161,-3.66575 0.2072,-1.50493 0.2072,-5.41922 0,-6.92415 -0.49113,-3.56733 -1.27429,-6.28649 -2.6515,-9.206166 -2.60606,-5.52482 -7.039674,-10.27037 -12.351764,-13.22082 -3.42956,-1.90485 -6.75736,-2.9856 -10.99373,-3.5704 -1.44829,-0.19991 -5.50219,-0.20329 -6.88343,-0.006 -4.01584,0.5744 -6.77299,1.41023 -9.95654,3.01831 -2.93404,1.48205 -5.15323,3.09813 -7.56205,5.50695 -1.40953,1.40955 -2.14783,2.2701 -3.18374,3.71097 -2.49201,3.46622 -4.34515,7.843676 -5.04325,11.913196 -0.39409,2.29726 -0.43216,2.75853 -0.43548,5.27503 -0.004,2.53938 0.0565,3.26588 0.44996,5.45787 1.28299,7.14823 5.43475,13.8388 11.34132,18.27654 3.20508,2.40806 6.79317,4.11885 10.6833,5.09379 1.36711,0.34262 3.66131,0.709 5.0913,0.81308 0.99331,0.0722 4.63212,-0.0256 5.53933,-0.14899 z m -6.39466,-2.45315 c -1.745,-0.21067 -4.84743,-0.85061 -4.84663,-0.9997 0.005,-0.92629 0.32902,-4.65599 0.4045,-4.65599 0.028,0 0.38306,0.0725 0.78907,0.1611 1.41194,0.30815 4.22998,0.65269 5.34336,0.65327 l 0.46841,2.4e-4 v 2.48456 2.48454 l -0.63133,-0.01 c -0.34722,-0.004 -1.03455,-0.0586 -1.52738,-0.11814 z m 3.625,-2.35652 v -2.48455 l 0.4684,-2.5e-4 c 1.03568,-6.2e-4 3.90632,-0.3415 5.19278,-0.61679 0.31381,-0.0672 0.66474,-0.14236 0.77982,-0.16716 l 0.20927,-0.0449 0.098,1.00515 c 0.0756,0.77467 0.25531,3.33773 0.25708,3.6653 8e-4,0.0693 -2.18778,0.59678 -3.13596,0.75598 -1.09353,0.18355 -2.78314,0.37019 -3.36026,0.37103 l -0.50913,6e-4 z m -10.89223,0.53248 c -1.22578,-0.49101 -3.1333,-1.46251 -4.21874,-2.14863 -0.77304,-0.48864 -0.81355,-0.52812 -0.79386,-0.77367 0.0253,-0.31585 1.06448,-3.51609 1.14171,-3.51609 0.0304,0 0.64263,0.29011 1.36067,0.64468 1.08562,0.53609 2.38793,1.06574 3.74936,1.52484 0.1344,0.0453 0.23546,0.12477 0.22457,0.17671 -0.0278,0.1324 -0.34546,4.09003 -0.34617,4.31324 -3.1e-4,0.10076 -0.028,0.18199 -0.0617,0.18043 -0.0336,-10e-4 -0.50873,-0.18219 -1.05584,-0.4014 z m 19.20123,0.21723 c 0,-0.22446 -0.31801,-4.17479 -0.34658,-4.3054 -0.0111,-0.0502 0.4235,-0.24694 0.96556,-0.43713 1.33575,-0.46871 2.42229,-0.93686 3.50363,-1.50961 l 0.90491,-0.47926 0.49665,1.52454 c 0.66399,2.03825 0.70655,2.21294 0.5712,2.34459 -0.21689,0.21099 -1.92852,1.20583 -2.99986,1.7436 -0.91309,0.45833 -2.89378,1.30576 -3.05198,1.30576 -0.024,0 -0.0436,-0.0842 -0.0436,-0.18707 z m -26.39329,-4.51221 c -0.95692,-0.7901 -3.22468,-3.04918 -3.30042,-3.28778 -0.0289,-0.0912 0.032,-0.2973 0.14868,-0.50292 0.10867,-0.19175 0.40837,-0.75173 0.66588,-1.24456 0.25751,-0.49284 0.50477,-0.94149 0.54946,-0.99699 0.062,-0.0769 0.15397,-0.0381 0.38707,0.16285 0.16821,0.14509 0.71032,0.61393 1.2047,1.04182 0.49438,0.4279 1.25071,1.02739 1.68074,1.33223 0.43004,0.30481 0.78188,0.56795 0.78188,0.58473 0,0.0176 -0.2178,0.68197 -0.48399,1.47818 -0.26619,0.79621 -0.52421,1.60347 -0.57337,1.79388 -0.0491,0.19039 -0.11546,0.34588 -0.14733,0.34545 -0.0319,-3.1e-4 -0.44287,-0.31854 -0.9133,-0.70697 z m 33.64205,0.36152 c -0.0489,-0.19039 -0.29781,-0.96939 -0.55301,-1.73104 -0.2552,-0.76167 -0.47489,-1.42564 -0.48819,-1.47549 -0.0133,-0.05 0.32938,-0.34125 0.76152,-0.64757 0.43212,-0.30632 1.19018,-0.90703 1.68457,-1.33492 0.49437,-0.42789 1.03649,-0.89671 1.20468,-1.04182 0.35578,-0.30694 0.31987,-0.33303 0.81184,0.58968 0.19109,0.35841 0.49199,0.91735 0.66865,1.24202 0.21488,0.39493 0.30392,0.64482 0.26897,0.75491 -0.11991,0.37785 -3.94047,3.99044 -4.22015,3.99044 -0.0274,0 -0.0899,-0.15582 -0.13889,-0.34621 z m -17.96085,-0.43998 c -1.35893,-0.0619 -3.21288,-0.30339 -4.66363,-0.60768 -0.83329,-0.17476 -0.83497,-0.17554 -0.83497,-0.41817 0,-0.52556 0.76601,-4.65599 0.89011,-4.79959 0.0257,-0.0297 0.4675,0.0336 0.98182,0.14059 1.17955,0.24552 2.47074,0.41899 3.64703,0.49001 l 0.91644,0.0553 v 2.59628 2.59626 l -0.22402,-0.0156 c -0.12324,-0.008 -0.44396,-0.0254 -0.71278,-0.0377 z m 2.40309,-2.54553 v -2.59174 l 0.91643,-0.0553 c 1.16454,-0.0701 2.45572,-0.24442 3.64704,-0.49237 0.51433,-0.10701 0.95615,-0.17028 0.98183,-0.1406 0.1241,0.14352 0.8901,4.27403 0.8901,4.7996 0,0.24254 -10e-4,0.24338 -0.83497,0.4183 -1.49262,0.31333 -3.15253,0.52586 -4.76545,0.61014 l -0.83498,0.0435 z m -10.30479,1.01712 c -1.12435,-0.40409 -1.90784,-0.74683 -2.89924,-1.26821 -1.11382,-0.58577 -1.10279,-0.5755 -0.97146,-0.90425 0.54017,-1.35236 1.91187,-4.22926 2.01648,-4.22926 0.0322,0 0.53594,0.23546 1.11934,0.52323 0.5834,0.28778 1.43931,0.66182 1.90202,0.83122 0.73974,0.27082 0.83645,0.32811 0.80113,0.47468 -0.15135,0.62804 -0.63772,3.18741 -0.75569,3.97659 -0.0785,0.52553 -0.16357,0.95367 -0.18894,0.95143 -0.0253,-0.002 -0.486,-0.16227 -1.02365,-0.35543 z m 17.93071,-0.596 c -0.13172,-0.88123 -0.6146,-3.45243 -0.73926,-3.93643 -0.0516,-0.20042 -0.0231,-0.21911 0.78621,-0.51439 0.46189,-0.16852 1.31789,-0.54234 1.90225,-0.83066 0.58435,-0.28833 1.09067,-0.52424 1.12514,-0.52424 0.11855,0 2.08908,4.22324 2.08908,4.47734 0,0.0392 -0.11917,0.14411 -0.26475,0.23331 -0.38916,0.23831 -1.98124,1.02737 -2.54564,1.26165 -0.40277,0.16715 -2.1305,0.78895 -2.19233,0.78895 -0.01,0 -0.0821,-0.43 -0.16069,-0.95553 z m -24.15552,-2.77407 c -0.51143,-0.38843 -1.32649,-1.08626 -1.81125,-1.55078 -0.80141,-0.76796 -0.8731,-0.86052 -0.79012,-1.02017 0.28545,-0.54919 2.2279,-3.3531 2.59838,-3.75072 0.0378,-0.0404 0.3654,0.2044 0.74451,0.55644 0.3724,0.3458 1.07118,0.92571 1.55281,1.28867 0.48164,0.36297 0.8757,0.69045 0.8757,0.72775 0,0.0373 -0.23318,0.53467 -0.51819,1.10528 -0.46841,0.93778 -1.34284,2.85802 -1.46474,3.21653 -0.0267,0.0785 -0.0954,0.1404 -0.15285,0.13786 -0.0574,-0.002 -0.52283,-0.32247 -1.03426,-0.71088 z m 30.01538,-0.3638 c -0.26364,-0.59364 -0.72979,-1.58291 -1.03592,-2.19836 -0.30612,-0.61545 -0.55659,-1.14947 -0.55659,-1.18673 0,-0.0373 0.39406,-0.3647 0.87571,-0.72767 0.48164,-0.36296 1.18261,-0.94488 1.55771,-1.29319 0.56922,-0.52853 0.6972,-0.61337 0.77388,-0.51306 1.02537,1.34136 1.98517,2.719 2.44229,3.50546 l 0.21882,0.37648 -0.88469,0.84776 c -0.82314,0.78877 -2.6754,2.26867 -2.83948,2.26867 -0.0399,0 -0.28811,-0.48573 -0.55173,-1.07936 z m -36.26966,0.28927 c -0.55822,-0.77067 -1.11381,-1.64167 -1.6216,-2.54219 l -0.43209,-0.76627 0.66179,-0.96867 c 0.36398,-0.53278 0.68754,-0.98459 0.71903,-1.00406 0.0315,-0.0195 0.34581,0.35803 0.69848,0.83888 0.35266,0.48083 0.90707,1.18389 1.23203,1.56236 0.32495,0.37847 0.59082,0.70985 0.59082,0.7364 0,0.0266 -0.32561,0.64435 -0.72359,1.37292 l -0.72359,1.32463 z m 43.63784,0.49407 c 0,-0.0395 -0.31158,-0.63717 -0.69241,-1.32842 -0.38084,-0.69125 -0.69243,-1.27946 -0.69243,-1.30715 0,-0.0277 0.26587,-0.35998 0.59083,-0.73845 0.32496,-0.37847 0.87985,-1.08218 1.2331,-1.56383 0.353254,-0.48163 0.652344,-0.8757 0.664664,-0.8757 0.0328,0 0.76239,1.02653 1.10893,1.56038 l 0.29902,0.46063 -0.45017,0.80199 c -0.49457,0.8811 -1.762694,2.81412 -1.945894,2.96616 -0.0636,0.0527 -0.11558,0.0637 -0.11558,0.0244 z m -23.60267,-2.07573 c -1.29239,-0.0875 -3.55968,-0.46193 -3.83618,-0.63367 -0.0874,-0.0543 -0.0495,-0.26578 0.19275,-1.07673 0.31913,-1.0681 1.05866,-3.221 1.16478,-3.39086 0.0498,-0.0797 0.18171,-0.0768 0.62902,0.0137 0.59402,0.12048 1.65433,0.2593 2.5822,0.33819 l 0.54986,0.0467 v 2.39661 c 0,2.23265 -0.01,2.39582 -0.14255,2.38492 -0.0784,-0.006 -0.59135,-0.042 -1.13986,-0.0791 z m 2.74871,-2.30296 v -2.39941 l 0.54985,-0.0472 c 1.05888,-0.091 2.10215,-0.22732 2.62099,-0.34255 0.42233,-0.0937 0.53596,-0.0961 0.58857,-0.0117 0.11287,0.17984 0.71693,1.9282 1.10194,3.18915 0.29946,0.98076 0.34885,1.22471 0.25921,1.28038 -0.2629,0.16324 -2.45332,0.53431 -3.54606,0.60065 -0.44033,0.0267 -0.97474,0.067 -1.18756,0.0896 l -0.38694,0.041 z m -8.79776,0.99981 c -0.82405,-0.32145 -2.68821,-1.22781 -2.68821,-1.30705 0,-0.16285 1.47576,-2.51003 2.25416,-3.58523 l 0.27538,-0.38041 0.75139,0.35026 c 0.41325,0.19253 0.96216,0.41631 1.21978,0.49707 0.25762,0.0808 0.46841,0.17047 0.46841,0.19935 0,0.0289 -0.16491,0.50093 -0.36647,1.04897 -0.3954,1.07517 -1.01837,3.09581 -1.01837,3.30315 0,0.17672 -0.18773,0.15016 -0.89607,-0.12615 z m 15.2755,0.15173 c -0.0188,-0.0561 -0.20048,-0.65945 -0.40398,-1.34097 -0.20349,-0.68153 -0.51695,-1.63042 -0.69659,-2.10865 -0.17963,-0.47826 -0.3266,-0.89453 -0.3266,-0.92507 0,-0.0305 0.21078,-0.12165 0.46839,-0.20238 0.25762,-0.0808 0.80653,-0.30446 1.2198,-0.49709 l 0.75138,-0.35024 0.27538,0.38039 c 0.78212,1.08034 2.25416,3.42257 2.25416,3.58668 0,0.13746 -3.14964,1.55916 -3.45413,1.55916 -0.0296,0 -0.0692,-0.0459 -0.0878,-0.10193 z m -26.92738,-0.92712 c -0.3518,-0.39066 -1.22967,-1.52398 -1.72733,-2.22997 l -0.37359,-0.52998 0.82794,-0.91665 c 0.45536,-0.50415 1.19451,-1.24703 1.64255,-1.65084 0.81121,-0.73115 0.81511,-0.73343 0.93679,-0.55055 0.23993,0.36065 0.93075,1.25336 1.33309,1.72272 0.4767,0.55611 0.51101,0.41981 -0.4069,1.61654 -0.47711,0.62205 -1.50589,2.11978 -1.86513,2.71529 -0.0738,0.12243 -0.11669,0.10193 -0.36742,-0.17652 z m 38.45247,-0.77743 c -0.38082,-0.5811 -0.99484,-1.44643 -1.36446,-1.923 -0.36964,-0.47656 -0.67205,-0.89836 -0.67205,-0.93733 0,-0.0391 0.17849,-0.27877 0.39668,-0.53285 0.21818,-0.25409 0.63404,-0.7794 0.92413,-1.16734 l 0.52746,-0.70539 0.83976,0.7512 c 0.46187,0.41315 1.19802,1.15127 1.63589,1.64024 l 0.79611,0.88904 -0.37446,0.53142 c -0.54031,0.76679 -1.61796,2.14341 -1.83275,2.3412 l -0.1839,0.1693 z m -43.86145,-1.10584 c -1.96423,-4.95597 -2.48307,-9.84739 -1.59533,-15.04016 1.41895,-8.299926 6.89978,-15.655896 14.51294,-19.478246 5.29435,-2.65814 11.16418,-3.51365 17.01405,-2.47972 8.38549,1.48205 15.638,6.92148 19.488854,14.61678 1.88971,3.776216 2.82993,7.795346 2.82993,12.096916 0,3.63724 -0.61147,6.78228 -1.99949,10.28443 -0.17313,0.43681 -0.33443,0.79306 -0.35846,0.79164 -0.024,-0.001 -0.22621,-0.26719 -0.44933,-0.59059 -1.14291,-1.65665 -3.408624,-4.10868 -5.092944,-5.51174 -5.51373,-4.59306 -12.14257,-7.01027 -19.22474,-7.01027 -6.7978,0 -13.37055,2.30851 -18.69525,6.56621 -1.83528,1.46752 -4.31232,4.07956 -5.53934,5.84123 -0.26882,0.38597 -0.50841,0.70311 -0.53243,0.70475 -0.0241,0.001 -0.18531,-0.35442 -0.35846,-0.79123 z m 12.36399,0.0535 c -0.4103,-0.31356 -1.05067,-0.85578 -1.42304,-1.20492 l -0.67705,-0.6348 0.52699,-0.59563 c 0.60795,-0.68717 2.59178,-2.5262 2.72509,-2.5262 0.0494,0 0.30821,0.18512 0.57509,0.41151 0.26688,0.22634 0.73267,0.58104 1.03509,0.78826 0.30243,0.20722 0.54987,0.40419 0.54987,0.43772 0,0.0336 -0.33971,0.56776 -0.75492,1.18718 -0.41519,0.61939 -0.96768,1.48359 -1.22774,1.92043 -0.26005,0.43683 -0.49769,0.79251 -0.5281,0.79041 -0.0304,-0.002 -0.39096,-0.2604 -0.80128,-0.57396 z m 24.21902,-0.17867 c -0.24488,-0.4161 -0.79687,-1.2803 -1.22666,-1.92045 -0.42978,-0.64015 -0.77983,-1.18866 -0.77789,-1.21889 0.002,-0.0303 0.25362,-0.23135 0.55926,-0.44691 0.30566,-0.21556 0.76987,-0.57296 1.03158,-0.79424 0.26169,-0.22128 0.51686,-0.40233 0.56701,-0.40233 0.13253,0 2.19395,1.91245 2.7648,2.56501 l 0.48658,0.55621 -0.66933,0.62757 c -0.63129,0.5919 -2.13076,1.79054 -2.23994,1.79054 -0.0275,0 -0.25053,-0.34043 -0.49541,-0.75651 z m -13.16822,-2.0267 c -0.86514,-0.0801 -2.11596,-0.28314 -2.18793,-0.35509 -0.0636,-0.0637 1.34249,-2.82447 1.92793,-3.78525 l 0.47117,-0.77327 0.32209,0.0264 c 0.17715,0.0137 0.35015,0.0533 0.38444,0.0861 0.0956,0.0916 0.0346,4.83882 -0.0624,4.85722 -0.0448,0.008 -0.42971,-0.0176 -0.85535,-0.0562 z m 2.49666,0.0392 c -0.0743,-0.0744 -0.0663,-4.81394 0.009,-4.85987 0.0336,-0.0207 0.20772,-0.0504 0.38694,-0.0658 l 0.32583,-0.0283 0.46706,0.77389 c 0.59207,0.98101 1.9867,3.7237 1.92489,3.7855 -0.0755,0.0756 -1.27719,0.26856 -2.02551,0.3254 -0.38075,0.0289 -0.76932,0.0682 -0.86346,0.0873 -0.0941,0.0195 -0.19496,0.0117 -0.22403,-0.0176 z m -16.80486,-0.94357 c -0.61115,-0.70016 -1.42906,-1.85721 -1.38817,-1.96377 0.0617,-0.16109 1.44129,-1.1348 2.61888,-1.84863 l 0.97449,-0.5907 0.24742,0.31143 c 0.13608,0.17125 0.42461,0.51625 0.64116,0.76655 l 0.39372,0.45511 -0.55665,0.48501 c -0.30615,0.26676 -1.03853,0.97246 -1.62749,1.5682 l -1.07083,1.0832 z m 30.72255,-0.82693 c -0.58244,-0.59041 -1.30725,-1.29166 -1.6107,-1.55828 l -0.55171,-0.4848 0.38879,-0.45583 c 0.21384,-0.25071 0.49908,-0.59436 0.63388,-0.76366 l 0.24508,-0.3078 0.73245,0.4291 c 0.73447,0.43027 1.97585,1.25944 2.62955,1.75634 l 0.34934,0.26555 -0.73191,0.9675 c -0.40256,0.53211 -0.79803,1.02551 -0.87884,1.09644 -0.13761,0.12067 -0.21418,0.0607 -1.20593,-0.94456 z m -21.07133,0.65243 c -0.478,-0.19583 -0.90921,-0.38089 -0.95827,-0.41119 -0.0562,-0.0348 0.0545,-0.23806 0.29884,-0.5492 0.62719,-0.79859 2.65177,-3.01968 3.01404,-3.3066 l 0.33362,-0.26422 0.41287,0.18472 0.41288,0.18473 -0.45916,0.77387 c -0.43878,0.73952 -1.64873,3.0952 -1.81668,3.53696 -0.045,0.11833 -0.14315,0.20952 -0.2245,0.20865 -0.0795,-9.4e-4 -0.53566,-0.16188 -1.01364,-0.35768 z m 11.4967,0.14782 c -0.2356,-0.6197 -1.45809,-2.96418 -2.10314,-4.03341 l -0.1774,-0.29406 0.42066,-0.17477 0.42065,-0.17476 0.27556,0.21017 c 0.31434,0.23975 2.10972,2.19779 2.90798,3.17142 0.47715,0.58198 0.51987,0.66256 0.39945,0.75331 -0.17858,0.13454 -1.76641,0.75371 -1.933,0.75371 -0.0716,0 -0.16652,-0.0953 -0.21075,-0.21151 z m -14.05882,-1.47891 c -0.64739,-0.43181 -1.56864,-1.19247 -1.52662,-1.26046 0.14952,-0.2419 3.06431,-2.02837 4.40972,-2.7027 0.61504,-0.30827 0.7458,-0.30956 0.99455,-0.01 0.0931,0.11209 -0.0111,0.24979 -0.79408,1.04309 -0.81697,0.82835 -2.17193,2.36445 -2.58498,2.93054 l -0.16291,0.22329 z m 17.37025,0.0232 c -0.26428,-0.40333 -1.72252,-2.06813 -2.59093,-2.95793 -0.76213,-0.7809 -0.88114,-0.93735 -0.7934,-1.04307 0.24917,-0.30023 0.3749,-0.29369 1.0719,0.0558 1.30396,0.65385 3.69833,2.11312 4.24231,2.58547 0.16982,0.14743 0.23014,0.084 -0.87126,0.91767 -0.89011,0.67381 -0.90318,0.67926 -1.05862,0.44203 z m -20.4857,-2.84702 c -0.27485,-0.33227 -0.49935,-0.6347 -0.49889,-0.67204 9.2e-4,-0.0734 0.16193,-0.1486 1.70984,-0.79787 1.31897,-0.55329 3.50852,-1.26585 3.88967,-1.26585 0.14929,0 0.49228,0.29166 0.42047,0.35752 -0.0183,0.0176 -0.30132,0.16481 -0.62873,0.32874 -1.12827,0.56491 -3.06478,1.75824 -3.93751,2.42639 -0.16326,0.12497 -0.33246,0.22725 -0.37598,0.22725 -0.0435,0 -0.30402,-0.27185 -0.57887,-0.60414 z m 23.33569,0.53584 c -0.14511,-0.23479 -2.97682,-2.00417 -4.13759,-2.58534 -0.3274,-0.16403 -0.61068,-0.31222 -0.62954,-0.32954 -0.0189,-0.0176 0.0478,-0.11892 0.14809,-0.22561 l 0.18236,-0.1941 0.66652,0.18707 c 1.45807,0.40918 2.83367,0.89571 3.96569,1.40259 0.29121,0.13044 0.64862,0.2891 0.79424,0.35264 0.14561,0.0635 0.26475,0.14606 0.26475,0.18355 0,0.0373 -0.22231,0.34004 -0.49401,0.67255 -0.4607,0.5638 -0.65764,0.70267 -0.7605,0.53625 z m -12.10507,-1.48903 c -1.45005,-0.16598 -2.81806,-0.74048 -3.9115,-1.64281 l -0.60185,-0.49667 0.24054,-0.0654 c 0.13227,-0.0359 0.82702,-0.14489 1.54389,-0.24196 1.07194,-0.14528 1.70113,-0.17653 3.54354,-0.17653 1.8424,0 2.4716,0.0312 3.54354,0.17653 0.71685,0.097 1.40966,0.20544 1.53956,0.2408 l 0.23618,0.0642 -0.43984,0.37013 c -0.92873,0.78156 -1.66895,1.18903 -2.70577,1.48949 -0.56918,0.165 -2.07726,0.40138 -2.31303,0.36263 -0.0353,-0.006 -0.33923,-0.042 -0.67526,-0.0804 z"
       id="path14"
       sodipodi:nodetypes="ssssssccssssssssscsssssssssssssssssscccssscccsscscssccsssssssssssssscscsssssssssssssssssssssssscsssssssscccssccsscsssccsssssssssssssssssssssssssssssssssssscscssssscsssssscsssssssscssssssssscsssccsssssssccssscsssssssssssscsssssscsssssssssssscsscsscsssssssssssssssssscssssssssssscsssscsssssscscsscsscsssscssscsscsscssscsccsscscssssscccsssscscccsssscsssssscscssssscssssssssssssscsssssssscssssscssss" />
    <path
       sodipodi:type="star"
       style="fill:#000000;stroke-width:3;stroke-linecap:round;paint-order:fill markers stroke"
       id="path1407"
       inkscape:flatsided="false"
       sodipodi:sides="5"
       sodipodi:cx="-770.47498"
       sodipodi:cy="435.19431"
       sodipodi:r1="80.804726"
       sodipodi:r2="30.705797"
       sodipodi:arg1="-1.5707963"
       sodipodi:arg2="-0.9424778"
       inkscape:rounded="0"
       inkscape:randomized="0"
       d="m -770.47497,354.38958 18.04841,55.96321 58.80145,-0.12852 -47.64692,34.45865 18.29288,55.88378 -47.49583,-34.6666 -47.49582,34.6666 18.29288,-55.88378 -47.64692,-34.45865 58.80145,0.12852 z"
       transform="matrix(0.15656148,0,0,0.15656148,168.77186,29.726624)"
       inkscape:transform-center-x="-5.1653313e-06"
       inkscape:transform-center-y="-1.2080561" />
  </g>
</svg>
