<?xml version="1.0" encoding="UTF-8" standalone="no"?>
<!-- Created with Inkscape (http://www.inkscape.org/) -->

<svg
   width="150mm"
   height="100mm"
   viewBox="0 0 150 100"
   version="1.1"
   id="svg5"
   inkscape:version="1.2 (dc2aedaf03, 2022-05-15)"
   sodipodi:docname="tudeh.svg"
   xmlns:inkscape="http://www.inkscape.org/namespaces/inkscape"
   xmlns:sodipodi="http://sodipodi.sourceforge.net/DTD/sodipodi-0.dtd"
   xmlns="http://www.w3.org/2000/svg"
   xmlns:svg="http://www.w3.org/2000/svg">
  <sodipodi:namedview
     id="namedview7"
     pagecolor="#ffffff"
     bordercolor="#666666"
     borderopacity="1.0"
     inkscape:showpageshadow="2"
     inkscape:pageopacity="0.0"
     inkscape:pagecheckerboard="0"
     inkscape:deskcolor="#d1d1d1"
     inkscape:document-units="mm"
     showgrid="false"
     inkscape:zoom="0.74564393"
     inkscape:cx="166.96978"
     inkscape:cy="387.58446"
     inkscape:window-width="1920"
     inkscape:window-height="1017"
     inkscape:window-x="-8"
     inkscape:window-y="-8"
     inkscape:window-maximized="1"
     inkscape:current-layer="layer1" />
  <defs
     id="defs2" />
  <g
     inkscape:label="Layer 1"
     inkscape:groupmode="layer"
     id="layer1"
     transform="translate(-10.645162,-60.677647)">
    <rect
       style="fill:#800000;fill-opacity:1;stroke:none;stroke-width:6.38754;stroke-linecap:round;stroke-linejoin:round"
       id="rect401"
       width="150"
       height="100"
       x="10.645162"
       y="60.677647" />
    <g
       id="g13218"
       transform="matrix(0.04308406,0,0,0.04308406,64.964814,94.635749)"
       inkscape:r_cx="true"
       inkscape:r_cy="true"
       style="display:inline">
      <circle
         transform="translate(0,-17.66044)"
         inkscape:r_cy="true"
         inkscape:r_cx="true"
         id="path6793"
         style="fill:none;fill-opacity:1;stroke:#333333;stroke-width:1;stroke-linecap:round;stroke-linejoin:round;stroke-miterlimit:4;stroke-dasharray:none;stroke-opacity:1"
         cx="480"
         cy="390"
         r="50" />
      <circle
         transform="translate(0,-17.66044)"
         inkscape:r_cy="true"
         inkscape:r_cx="true"
         id="path7668"
         style="fill:none;fill-opacity:1;stroke:#333333;stroke-width:1;stroke-linecap:round;stroke-linejoin:round;stroke-miterlimit:4;stroke-dasharray:none;stroke-opacity:1"
         cx="480"
         cy="390"
         r="295" />
      <path
         inkscape:r_cy="true"
         inkscape:r_cx="true"
         sodipodi:nodetypes="cccccc"
         id="sepales"
         d="M 743.27673,-8.820883 C 713.9508,189.88334 756.02179,364.78931 914.99992,500.72744 680.99846,513.40829 555.18718,639.19358 483.44123,821.5 398.07055,629.17619 259.67785,514.11068 45.000081,510.20002 253.66065,356.38082 261.43014,180.24106 205.58725,-2.966509 375.04397,94.43898 551.69983,118.65525 743.27673,-8.820883 Z"
         style="fill:#5ab532;fill-opacity:1;stroke:#000000;stroke-width:25;stroke-linecap:round;stroke-linejoin:miter;stroke-miterlimit:4;stroke-dasharray:none;stroke-opacity:1;marker-start:none" />
      <g
         inkscape:r_cy="true"
         inkscape:r_cx="true"
         id="g13210">
        <path
           inkscape:r_cy="true"
           inkscape:r_cx="true"
           style="fill:#e20909;fill-opacity:1;stroke:#000000;stroke-width:25;stroke-linecap:round;stroke-linejoin:miter;stroke-miterlimit:4;stroke-opacity:1"
           d="m 400.09696,-5.460655 c 20.50609,0 63.63959,21.213203 84.14568,21.213203 20.50609,0 52.32589,-22.627417 72.83198,-22.627417 61.5533,5.2919181 118.30972,116.800749 86.26704,162.634579 C 611.61762,201.13775 487.71163,377.54463 483.53555,372.13438 472.52391,357.86842 362.01087,197.97901 329.38626,145.86021 292.99782,87.72858 355.50495,-3.6237352 400.09696,-5.460655 Z"
           id="petale1"
           sodipodi:nodetypes="cscsssc" />
        <path
           sodipodi:nodetypes="cszzssz"
           id="petale2"
           d="m 810.79116,174.16457 c 18.44046,33.17216 0.70954,69.64523 7.04627,89.14769 6.33673,19.50246 30.4804,44.23193 27.05573,84.90253 -3.31399,39.35608 -75.78117,112.57778 -129.00752,96.3479 C 662.65929,428.33281 474.82452,378.41137 478.67949,372.76783 488.84445,357.8867 606.75798,203.37396 646.24438,156.2405 690.28622,103.66936 792.3507,140.99241 810.79116,174.16457 Z"
           style="fill:#e20909;fill-opacity:1;stroke:#000000;stroke-width:25;stroke-linecap:round;stroke-linejoin:miter;stroke-miterlimit:4;stroke-opacity:1"
           inkscape:r_cx="true"
           inkscape:r_cy="true" />
        <path
           inkscape:r_cy="true"
           inkscape:r_cx="true"
           style="fill:#e20909;fill-opacity:1;stroke:#000000;stroke-width:25;stroke-linecap:round;stroke-linejoin:miter;stroke-miterlimit:4;stroke-opacity:1"
           d="m 774.55776,611.7536 c -18.88836,24.31217 -62.45461,28.77345 -79.0444,40.82663 -16.5898,12.05319 -39.7997,37.65067 -69.66394,63.94401 -29.86425,26.29334 -139.60376,-35.01619 -140.62113,-90.93081 -1.00724,-55.35858 -5.17757,-263.67044 1.38101,-261.7481 17.29395,5.06894 186.53952,63.80751 243.56809,86.79629 63.60783,25.64092 64.38035,135.369 44.38037,161.11198 z"
           id="petale3"
           sodipodi:nodetypes="cszsssz" />
        <path
           sodipodi:nodetypes="cscsssz"
           id="petale4"
           d="m 339.58073,719.62299 c -28.08091,-17.06609 -48.33408,-49.28894 -64.92387,-61.34214 -16.5898,-12.0532 -55.63267,-12.45047 -72.22247,-24.50366 -51.88025,-28.50183 -32.56671,-154.05049 20.2969,-172.29664 52.33791,-18.06468 261.77556,-97.93498 261.97401,-91.10336 0.52328,18.01392 4.43476,192.52639 0.19392,253.86773 -4.73008,68.41815 -117.23758,112.44416 -145.31849,95.37807 z"
           style="fill:#e20909;fill-opacity:1;stroke:#000000;stroke-width:25;stroke-linecap:round;stroke-linejoin:miter;stroke-miterlimit:4;stroke-opacity:1"
           inkscape:r_cx="true"
           inkscape:r_cy="true" />
        <path
           inkscape:r_cy="true"
           inkscape:r_cx="true"
           style="fill:#e20909;fill-opacity:1;stroke:#000000;stroke-width:25;stroke-linecap:round;stroke-linejoin:miter;stroke-miterlimit:4;stroke-opacity:1"
           d="m 107.79494,351.28162 c 4.46503,-38.79274 29.469,-68.92886 35.80575,-88.43134 6.33675,-19.50248 4.54916,-68.07096 10.8859,-87.57344 11.07499,-39.76385 135.03292,-70.09174 168.7218,-25.45381 33.35385,44.19405 165.54957,221.52834 159.11363,223.82816 -16.97056,6.06428 -189.04307,67.41673 -248.69267,82.33896 -66.53123,16.6438 -130.34787,-65.495 -125.83441,-104.70853 z"
           id="petale5"
           sodipodi:nodetypes="czcsssz" />
      </g>
      <path
         sodipodi:nodetypes="czzzzzzzzzz"
         id="path2244"
         d="m 200,273 c 0,4 242,64 254,55 11,-9 29,-252 26,-252 -3,0 20,244 29,254 9,11 252,-47 251,-50 -1,-3 -226,94 -231,106 -4,12 123,221 126,219 3,-2 -160,-188 -175,-187 -12.5,0 -178,184 -176,187 3,2 131,-211 126,-223 C 426,370 204,268 202,273 Z"
         style="fill:#e20909;fill-opacity:1;stroke:#000000;stroke-width:10;stroke-linecap:round;stroke-linejoin:round;stroke-miterlimit:4;stroke-dasharray:none;stroke-opacity:1"
         inkscape:r_cx="true"
         inkscape:r_cy="true" />
      <circle
         transform="matrix(0.9,0,0,0.9,48,21.33956)"
         inkscape:r_cy="true"
         inkscape:r_cx="true"
         id="path1365"
         style="fill:#fcef3c;fill-opacity:1;stroke:#000000;stroke-width:33.3333;stroke-linecap:butt;stroke-miterlimit:4;stroke-dasharray:none;stroke-opacity:1"
         cx="480"
         cy="390"
         r="137" />
      <path
         style="fill:none;fill-opacity:0.75;fill-rule:evenodd;stroke:#000000;stroke-width:8;stroke-linecap:round;stroke-linejoin:miter;stroke-miterlimit:4;stroke-dasharray:none;stroke-opacity:1"
         d="m 364.21393,98.824841 c 5.75926,-21.595703 25.08508,-46.079307 47.1789,-44.739649 20.74732,1.258012 41.21046,18.253927 68.93054,18.660094 27.72009,0.406168 50.61927,-24.591735 90.72303,-11.464151 23.80723,7.79307 27.23025,23.177576 34.14026,43.243635"
         id="path3105"
         inkscape:r_cx="true"
         inkscape:r_cy="true"
         sodipodi:nodetypes="cszsc" />
      <path
         sodipodi:nodetypes="cszsc"
         inkscape:r_cy="true"
         inkscape:r_cx="true"
         id="path1348"
         d="m 708.98891,169.09247 c 23.39683,3.54273 36.96815,20.86288 46.57357,47.21891 7.11728,19.52891 -2.42611,37.85775 5.75357,64.34664 8.17969,26.48889 14.23417,23.38156 25.98653,52.41454 7.2499,17.91013 2.84886,30.88734 -10.05918,56.79189"
         style="fill:none;fill-opacity:0.75;fill-rule:evenodd;stroke:#000000;stroke-width:8;stroke-linecap:round;stroke-linejoin:miter;stroke-miterlimit:4;stroke-dasharray:none;stroke-opacity:1" />
      <path
         sodipodi:nodetypes="cszsc"
         inkscape:r_cy="true"
         inkscape:r_cx="true"
         id="path1350"
         d="m 741.21411,511.18725 c 3.73733,17.23141 4.10567,46.67603 -22.17798,68.03632 -20.78746,16.89362 -40.57078,11.01475 -63.23553,26.97961 -22.66476,15.96486 -29.14723,38.69632 -54.02442,50.70978 -23.99097,11.58549 -42.35169,5.13686 -59.73654,-7.03532"
         style="fill:none;fill-opacity:0.75;fill-rule:evenodd;stroke:#000000;stroke-width:8;stroke-linecap:round;stroke-linejoin:miter;stroke-miterlimit:4;stroke-dasharray:none;stroke-opacity:1" />
      <path
         sodipodi:nodetypes="cszsc"
         inkscape:r_cy="true"
         inkscape:r_cx="true"
         id="path1352"
         d="m 418.40662,658.31737 c -20.26696,8.47283 -39.75595,11.97642 -56.8428,-2.09381 -16.04549,-13.21272 -34.4552,-32.57144 -56.64248,-49.19349 -22.18729,-16.62206 -38.10633,-10.45616 -63.85045,-36.61225 -13.55373,-13.77063 -13.81241,-39.75324 -7.60819,-60.04862"
         style="fill:none;fill-opacity:0.75;fill-rule:evenodd;stroke:#000000;stroke-width:8;stroke-linecap:round;stroke-linejoin:miter;stroke-miterlimit:4;stroke-dasharray:none;stroke-opacity:1" />
      <path
         sodipodi:nodetypes="cszsc"
         inkscape:r_cy="true"
         inkscape:r_cx="true"
         id="path1354"
         d="m 190.3016,399.55172 c -14.32097,-16.65677 -33.42907,-30.04558 -22.32761,-67.64407 5.88597,-19.93463 22.06286,-32.91103 31.01513,-59.14888 8.95226,-26.23786 1.59619,-45.72029 17.63698,-71.64259 13.30521,-21.50153 32.14589,-26.01452 53.36515,-26.38558"
         style="fill:none;fill-opacity:0.75;fill-rule:evenodd;stroke:#000000;stroke-width:8;stroke-linecap:round;stroke-linejoin:miter;stroke-miterlimit:4;stroke-dasharray:none;stroke-opacity:1" />
    </g>
    <path
       id="path866-1"
       style="color:#000000;fill:#5ab532;fill-opacity:1;stroke:#1a1a1a;stroke-width:0.829092;-inkscape-stroke:none"
       d="m 84.453672,67.638619 -1.957562,3.668782 -1.745488,3.271174 c -2.522628,0.70666 -4.629724,1.80413 -6.030367,3.204773 -0.691952,0.691952 -1.269847,1.527776 -1.844026,2.420285 -0.800538,-0.195748 -1.649147,-0.349395 -2.554392,-0.403593 l -0.354328,-1.204787 -0.739069,-2.51583 -0.739062,2.51583 -0.37489,1.274621 c -2.575218,0.305637 -4.789748,1.34735 -6.590778,2.73777 l -2.544532,-1.291766 -3.707767,-1.882587 1.209927,3.97854 1.10925,3.647781 c -1.328446,2.176209 -2.028266,4.426887 -2.028266,6.429257 0,1.1829 0.266587,2.39876 0.553129,3.67263 -1.092428,0.69115 -2.130965,1.35761 -2.959701,2.18636 -0.09091,0.091 -0.179979,0.18513 -0.268211,0.28149 l -0.290481,-0.15853 -2.30161,-1.25621 1.256199,2.301611 0.274637,0.50342 c -0.775359,1.21228 -1.384526,2.67474 -1.779331,4.30674 l -3.366727,1.79689 -3.668775,1.95758 3.953261,1.2909 2.713776,0.88645 c 0.331106,2.57251 1.361021,5.20547 3.44341,7.43567 0.895552,0.95911 1.875904,1.67631 2.848736,2.2699 -0.225563,1.03946 -0.408312,2.04125 -0.408312,3.02183 0,0.12868 0.0036,0.2588 0.0094,0.38945 l -0.317906,0.0934 -2.5154,0.73907 2.5154,0.73906 0.550558,0.16195 c 0.308895,1.40618 0.910924,2.87247 1.786187,4.30631 l -1.10925,3.64822 -1.209927,3.97853 3.707767,-1.88258 2.544964,-1.29177 c 2.05304,1.58485 4.642924,2.71809 7.692309,2.82261 1.679168,0.0576 3.178516,-0.26044 4.529944,-0.64996 0.950653,1.6217 1.787075,3.82297 3.518393,5.77458 l -0.601962,1.10283 -1.256199,2.3016 2.301601,-1.2562 1.166657,-0.63667 c 2.036905,1.60462 4.339402,2.43404 6.595917,2.72448 l 0.886026,2.71334 1.290474,3.95284 1.958,-3.66877 1.795614,-3.36544 c 2.477717,-0.59918 4.564592,-1.69401 5.980229,-3.10965 1.07375,-1.07376 1.48358,-2.27922 1.9353,-3.38258 0.43484,-1.06216 0.860642,-2.04386 1.159362,-2.48327 0.80639,0.25279 1.72184,0.4265 2.75276,0.39116 0.0797,-0.002 0.15864,-0.008 0.23779,-0.012 l 0.23308,0.79347 0.73906,2.51541 0.73949,-2.51541 0.31106,-1.05826 c 2.44874,-0.51964 4.53282,-1.7082 6.20088,-3.1842 l 2.99783,1.52184 3.70821,1.88258 -1.20994,-3.97853 -1.20993,-3.97855 -1.39416,1.16965 c 1.50565,-2.30837 2.30075,-4.7248 2.30075,-6.86026 0,-0.38901 -0.031,-0.78227 -0.0797,-1.17907 0.12179,-0.0945 0.2409,-0.19069 0.35732,-0.28878 l 0.84232,0.45971 2.30117,1.25621 -1.25576,-2.30161 -0.48801,-0.89416 c 1.39968,-1.84567 2.37112,-4.42629 2.67778,-7.37955 l 3.37229,-1.79947 3.66879,-1.95756 -3.95327,-1.2909 -3.74719,-1.22365 c -0.5617,-1.66061 -1.46938,-3.27829 -2.8213,-4.72618 -0.48182,-0.51601 -1.22316,-1.57013 -2.04112,-2.77675 0.15525,-0.713351 0.35152,-1.553171 0.54328,-2.407001 0.17381,-0.77399 0.34521,-1.52413 0.46485,-2.25876 l 1.68894,-0.49615 2.5154,-0.73949 -2.5154,-0.73907 -1.55869,-0.45801 c -0.146,-1.86957 -0.86326,-3.913535 -2.10024,-5.889403 l 0.10241,0.08612 1.20993,-3.978548 1.20993,-3.978539 -3.70777,1.882586 -2.92971,1.487134 c -2.00641,-1.472964 -4.49897,-2.510731 -7.41039,-2.610512 -1.76454,-0.06044 -3.18612,0.298399 -4.355992,0.646518 -0.0723,0.02152 -0.1372,0.04131 -0.20779,0.06256 -0.57353,-1.339598 -1.38663,-2.445408 -2.844451,-3.826012 l -0.0069,-0.0051 -0.0047,-0.0047 c -0.03696,-0.03452 -0.07458,-0.06766 -0.111828,-0.10154 l 0.997469,-1.82775 -1.938288,1.05783 C 92.416607,74.478617 89.649322,73.807974 86.9639,73.749149 v 4.23e-4 c -0.172294,-0.0037 -0.34394,-0.004 -0.515413,-0.0029 l -0.703943,-2.155157 z m 2.089959,10.252694 c 2.427771,-0.0023 4.74491,0.629753 6.429676,2.199216 0.847231,0.802296 1.292305,1.216137 1.574105,1.613952 -2.746425,0.132422 -7.058782,-0.04898 -7.602326,-0.07283 l -4.32e-4,-0.0089 c 0,0 -0.101857,0.0039 -0.110966,0.0044 -0.0091,-4.06e-4 -0.110965,-0.0044 -0.110965,-0.0044 l -4.31e-4,0.0089 c -0.61769,0.0271 -6.156001,0.260982 -8.619035,8.29e-4 -0.330327,-0.03488 -0.673894,-0.103339 -1.028696,-0.190226 0.252566,-0.347017 0.460511,-0.612185 0.576684,-0.728358 0.697191,-0.697192 3.701033,-2.250197 6.838417,-2.678216 0.685668,-0.09353 1.374187,-0.143732 2.053969,-0.144386 z m -16.984856,6.035086 c 0.2834,0.0033 0.576848,0.03323 0.880023,0.08268 -0.02329,0.03286 -0.04915,0.07051 -0.07112,0.100689 -1.869288,2.566646 -2.911855,3.324718 -5.063797,5.443828 l -0.0012,-0.0013 c -0.04323,0.04323 -0.07694,0.07888 -0.119107,0.121246 -0.08556,0.08466 -0.169176,0.167037 -0.258353,0.256217 l 0.0029,0.003 c -1.999232,2.03131 -2.806121,3.0875 -5.065083,4.77973 -0.09673,-0.56972 -0.155518,-1.02178 -0.155518,-1.22364 0,-1.12398 0.836206,-3.75366 2.519685,-5.813145 1.683489,-2.059491 4.02875,-3.640843 7.13147,-3.747182 0.06616,-0.0023 0.132862,-0.0029 0.200085,-0.0022 z m 33.105965,0.404447 c 0.13564,-0.0023 0.27559,-0.0012 0.42115,0.0038 3.10273,0.106339 5.44799,1.687701 7.13147,3.747181 1.68348,2.059492 2.51968,4.690892 2.51968,5.814862 0,0.25488 -0.0931,0.90822 -0.23906,1.69536 -0.69018,-0.91278 -1.41799,-1.74401 -2.23648,-2.40615 -0.93608,-0.75725 -3.94495,-3.638924 -6.53594,-6.193607 -0.91829,-0.905418 -1.75274,-1.735555 -2.50812,-2.488834 0.46261,-0.100329 0.92204,-0.163581 1.4473,-0.172667 z m -28.01432,0.83376 c 0.485242,0.131676 0.991752,0.254058 1.518408,0.358607 l 0.556121,1.892013 0.73907,2.515403 0.739069,-2.515403 0.464432,-1.579677 c 3.199541,0.202746 7.405584,-0.01333 8.170454,-0.0557 0.866228,0.04792 5.978153,0.311374 9.160158,-0.02484 0.185544,-0.0196 0.36549,-0.0427 0.541555,-0.06812 0.419451,0.421859 0.936001,0.940066 1.951141,1.951567 l -1.04412,1.913014 -1.256209,2.301599 2.301609,-1.2562 1.923282,-1.049254 c 0.13774,0.136094 0.26083,0.258924 0.4006,0.396734 2.61117,2.57457 5.39845,5.30115 6.83799,6.46568 0.67353,0.54486 2.05782,2.37347 3.32773,4.272021 0.11785,0.17617 0.23281,0.35207 0.34961,0.5287 -0.16715,1.14453 -0.25221,2.10082 -0.28962,2.97769 l -2.0694,0.60796 -2.5154,0.73907 2.5154,0.7395 2.06254,0.60582 c 0.0156,0.69815 0.033,1.43558 0.0369,2.26433 -0.014,3.02605 -0.24295,4.75917 0.32005,8.34054 0.17622,1.12087 0.5235,2.49374 0.82262,3.82559 -0.57132,0.3614 -1.15748,0.72157 -1.71464,1.07413 l -1.32304,-0.72194 -2.30118,-1.25621 1.25577,2.30161 0.51243,0.93914 c -2.67589,1.99136 -3.74795,3.35384 -5.7733,5.40185 -1.39911,1.38878 -2.47799,2.3286 -3.637932,3.60195 -0.88364,-0.39964 -1.94223,-0.79413 -3.234326,-0.93059 -0.38542,-0.0407 -0.805546,-0.0712 -1.242063,-0.0956 l -0.460154,-1.56597 -0.739069,-2.5154 -0.739062,2.5154 -0.440016,1.49785 c -2.599377,-0.0168 -4.970273,0.10547 -5.54408,0.13711 -0.857638,-0.0472 -5.980673,-0.30985 -9.166161,0.0265 -0.691388,0.0731 -1.347896,0.19042 -1.974275,0.33076 l 0.556984,-1.02013 1.256199,-2.30161 -2.301609,1.25622 -1.370167,0.74763 c -1.826299,-1.84978 -3.589314,-3.43958 -4.0171,-3.82259 -0.571941,-0.6388 -4.007914,-4.44732 -6.498665,-6.46224 -0.861013,-0.69654 -1.740148,-1.25375 -2.586518,-1.73735 0.127886,-0.57746 0.241945,-1.13227 0.320899,-1.63452 0.005,-0.0316 0.0088,-0.0603 0.01371,-0.0917 l 1.645657,-0.48372 2.51583,-0.73906 -2.51583,-0.73907 -1.364595,-0.40103 c 0.16368,-2.10166 0.03566,-3.64044 0.02528,-5.88555 0.014,-3.02578 0.242924,-4.75891 -0.320055,-8.34011 -0.06341,-0.403361 -0.149302,-0.840361 -0.246779,-1.295621 0.398496,-0.25748 0.782415,-0.51162 1.118239,-0.7562 0.02562,-0.0187 0.04836,-0.0363 0.0737,-0.0547 l 1.505558,0.82175 2.3016,1.255771 -1.256198,-2.301171 -0.681224,-1.24892 c 1.599601,-1.36887 2.595971,-2.54651 4.172622,-4.13836 2.156013,-2.13723 3.541069,-3.193772 5.679049,-6.129338 0.299999,-0.411927 0.612061,-0.885843 0.930581,-1.385587 z M 57.032751,101.54406 c 0.394681,2.77128 0.219618,4.08747 0.197084,6.92667 h -0.0047 c 0,0.0959 0.0017,0.174 0.0022,0.2665 -3.82e-4,0.0925 -0.0022,0.17061 -0.0022,0.26649 h 0.0047 c 0.02385,3.00666 0.220438,4.30076 -0.271637,7.43096 -0.0053,0.0344 -0.01346,0.0763 -0.01971,0.11311 -0.29519,-0.2148 -0.559397,-0.43959 -0.786626,-0.68295 -2.118761,-2.26914 -2.659595,-5.04692 -2.393722,-7.69359 0.265874,-2.64667 1.533838,-5.09807 2.328597,-5.89283 0.139851,-0.13985 0.488493,-0.40879 0.946012,-0.73436 z m 58.137449,4.86457 c 1.75038,2.16793 2.19695,4.73118 1.9507,7.18246 -0.17272,1.71944 -0.7685,3.35337 -1.38258,4.50724 -0.10809,-0.49211 -0.20122,-0.93716 -0.2515,-1.25706 -0.4921,-3.13028 -0.29548,-4.42301 -0.27163,-7.42967 h 0.004 c 0,-0.0959 -0.002,-0.17396 -0.002,-0.26649 3.7e-4,-0.0924 0.002,-0.17034 0.002,-0.26607 h -0.004 c -0.008,-0.95394 -0.0299,-1.751 -0.0451,-2.47041 z m -55.354701,16.64939 c 0.325378,0.19588 0.628717,0.39705 0.896306,0.61353 1.925393,1.55756 5.674863,5.63698 6.092924,6.09334 l -0.006,0.007 c 0,0 0.07469,0.0693 0.08141,0.0754 0.0062,0.007 0.07583,0.0818 0.07583,0.0818 l 0.0064,-0.005 c 0.291824,0.26734 1.991687,1.82988 3.676485,3.50769 -0.447926,0.0842 -0.874137,0.12959 -1.280194,0.11568 -3.102719,-0.10634 -5.44798,-1.68598 -7.131468,-3.74548 -1.683481,-2.05948 -2.519686,-4.69088 -2.519686,-5.81486 0,-0.16489 0.04101,-0.50137 0.107964,-0.92758 z m 52.597211,3.03038 c -0.38544,1.24265 -1.11515,2.79718 -2.19535,4.11865 -1.54845,1.89431 -3.65701,3.3828 -6.39968,3.69234 0.51338,-0.49182 1.08567,-1.03283 1.75577,-1.69235 l 0.003,0.003 c 0.0633,-0.0633 0.11339,-0.11593 0.17437,-0.17737 0.07,-0.0695 0.13064,-0.12721 0.20308,-0.19966 l -0.003,-0.003 c 2.10875,-2.14259 2.88483,-3.19681 5.44597,-5.06209 0.25115,-0.18292 0.61403,-0.42071 1.01627,-0.67908 z m -31.104249,9.63403 c 2.474633,-0.005 5.00037,0.10263 5.413831,0.12081 l 4.31e-4,0.009 c 0,0 0.101856,-0.004 0.110965,-0.004 0.0092,4.2e-4 0.110966,0.004 0.110966,0.004 l 4.32e-4,-0.009 c 0.617499,-0.0272 6.154706,-0.26098 8.61774,-8.3e-4 0.366724,0.0387 0.707796,0.11782 1.048412,0.2288 -0.489248,0.87317 -0.807892,1.75892 -1.131097,2.54839 -0.430183,1.05076 -0.91793,1.90849 -1.029982,2.02055 -0.794767,0.79477 -3.247437,2.06443 -5.894123,2.33031 -2.646678,0.26587 -5.422727,-0.27455 -7.691878,-2.3933 -1.091715,-1.01936 -1.812594,-2.7895 -2.925848,-4.71418 0.05521,-0.008 0.110376,-0.0148 0.164947,-0.0206 0.814302,-0.0859 1.982997,-0.11757 3.205204,-0.11996 z" />
  </g>
</svg>
