<?xml version="1.0" encoding="UTF-8" standalone="no"?>
<!-- Created with Inkscape (http://www.inkscape.org/) -->

<svg
   width="75.000008mm"
   height="150mm"
   viewBox="0 0 75.000005 150"
   version="1.1"
   id="svg5"
   xml:space="preserve"
   inkscape:version="1.2 (dc2aedaf03, 2022-05-15)"
   sodipodi:docname="Builder.svg"
   xmlns:inkscape="http://www.inkscape.org/namespaces/inkscape"
   xmlns:sodipodi="http://sodipodi.sourceforge.net/DTD/sodipodi-0.dtd"
   xmlns="http://www.w3.org/2000/svg"
   xmlns:svg="http://www.w3.org/2000/svg"><sodipodi:namedview
     id="namedview7"
     pagecolor="#0c1d50"
     bordercolor="#666666"
     borderopacity="1.0"
     inkscape:showpageshadow="2"
     inkscape:pageopacity="0"
     inkscape:pagecheckerboard="0"
     inkscape:deskcolor="#0d1568"
     inkscape:document-units="mm"
     showgrid="false"
     inkscape:zoom="0.5272499"
     inkscape:cx="320.53112"
     inkscape:cy="608.81946"
     inkscape:window-width="1920"
     inkscape:window-height="1017"
     inkscape:window-x="-8"
     inkscape:window-y="-8"
     inkscape:window-maximized="1"
     inkscape:current-layer="layer3" /><defs
     id="defs2"><inkscape:path-effect
       effect="spiro"
       id="path-effect1806"
       is_visible="true"
       lpeversion="1" /><inkscape:path-effect
       effect="spiro"
       id="path-effect8447"
       is_visible="true"
       lpeversion="1" /><inkscape:path-effect
       effect="spiro"
       id="path-effect7278"
       is_visible="true"
       lpeversion="1" /><inkscape:path-effect
       effect="spiro"
       id="path-effect7274"
       is_visible="true"
       lpeversion="1" /><pattern
       id="EMFhbasepattern"
       patternUnits="userSpaceOnUse"
       width="6"
       height="6"
       x="0"
       y="0" /><inkscape:path-effect
       effect="spiro"
       id="path-effect7278-6"
       is_visible="true"
       lpeversion="1" /><inkscape:path-effect
       effect="spiro"
       id="path-effect1806-9"
       is_visible="true"
       lpeversion="1" /></defs><g
     inkscape:label="Layer 1"
     inkscape:groupmode="layer"
     id="layer1"
     transform="translate(-19.790319,-32.209669)"
     style="display:none"
     sodipodi:insensitive="true"><rect
       style="fill:#ffffff;fill-opacity:0.501961;stroke:#008000;stroke-width:2.5322;stroke-linecap:square"
       id="rect2969"
       width="72.467804"
       height="147.4678"
       x="21.056419"
       y="33.475769" /></g><g
     inkscape:groupmode="layer"
     id="layer3"
     inkscape:label="Layer 2"
     style="display:inline"
     transform="translate(-3.9770164,-0.75272654)"><g
       id="g3123"
       transform="translate(1.5412369,-4.346e-5)"
       inkscape:label="shadow"><g
         id="g2334"><path
           id="rect3045"
           style="fill:#ffcc00;fill-opacity:1;stroke:#000000;stroke-width:5;stroke-linecap:square;stroke-dasharray:none"
           d="M 34.45398 14.849584 C 34.281455 14.849584 34.142371 14.988668 34.142371 15.161193 L 34.142371 16.491344 A 13.306451 16.379862 0 0 0 30.23925 18.328441 A 13.306451 16.379862 0 0 0 23.592111 32.266609 L 22.499154 32.266609 C 22.314933 32.266609 22.166875 32.414667 22.166875 32.598888 L 22.166875 32.905846 C 22.166875 33.090068 22.314933 33.238126 22.499154 33.238126 L 25.08866 33.238126 A 12.281818 12.281818 0 0 0 24.610653 36.605879 A 12.281818 12.281818 0 0 0 31.124468 47.439326 L 31.124468 49.742545 L 25.589922 49.742545 C 25.589922 49.742545 25.762879 50.193437 25.904114 51.181733 L 25.321721 51.181733 C 25.293279 51.181733 25.265284 51.184071 25.236972 51.184834 A 4.571883 4.571883 0 0 0 25.104163 51.189485 A 5.4435887 5.4778226 48.954308 0 0 24.580681 51.227208 A 4.571883 4.571883 0 0 0 24.453557 51.242195 A 5.4435887 5.4778226 48.954308 0 0 21.624272 52.534622 L 13.913632 59.248424 L 14.429363 59.840636 C 14.401283 59.877088 14.372563 59.913118 14.344613 59.949673 C 7.1154939 69.40463 4.7016758 82.024901 7.8096117 93.46339 A 5.1095204 5.1095204 0 0 0 7.7377815 94.303132 A 5.1095204 5.1095204 0 0 0 12.847547 99.412381 A 5.1095204 5.1095204 0 0 0 17.956796 94.303132 A 5.1095204 5.1095204 0 0 0 16.568767 90.802571 C 14.514668 82.825427 16.033596 73.776295 20.595911 66.922891 L 20.843958 67.207628 L 20.843958 68.80443 C 20.580764 68.883347 20.420728 68.88918 20.420728 68.88918 L 20.420728 96.595499 L 20.843958 96.598082 L 20.843958 101.57194 L 20.843958 136.02513 C 20.843958 137.40369 21.834833 138.54149 23.146143 138.76967 L 23.146143 140.85843 L 16.148121 140.85843 C 14.551669 140.85843 13.266643 142.10134 13.266643 143.64534 L 13.266643 145.4659 C 13.266643 147.0099 14.551669 148.25281 16.148121 148.25281 L 30.144166 148.25281 C 31.740618 148.25281 33.025644 147.0099 33.025644 145.4659 L 33.025644 143.64534 C 33.025644 142.59473 32.430461 141.6839 31.547181 141.2088 L 31.547181 138.76967 C 32.858491 138.54149 33.849883 137.40369 33.849883 136.02513 L 33.849883 104.01262 A 3.4673768 3.8256393 0 0 1 35.158847 102.53054 A 3.4673768 3.8256393 0 0 1 38.626335 102.53054 A 3.4673768 3.8256393 0 0 1 39.935299 104.00952 L 39.935299 136.02513 C 39.935299 137.40369 40.926174 138.54149 42.237484 138.76967 L 42.237484 141.20931 C 41.354376 141.68446 40.759022 142.59485 40.759022 143.64534 L 40.759022 145.4659 C 40.759022 147.0099 42.044565 148.25281 43.641016 148.25281 L 57.636544 148.25281 C 59.232996 148.25281 60.518539 147.0099 60.518539 145.4659 L 60.518539 143.64534 C 60.518539 142.10134 59.232996 140.85843 57.636544 140.85843 L 50.638522 140.85843 L 50.638522 138.76967 C 51.949833 138.54149 52.941224 137.40369 52.941224 136.02513 L 52.941224 101.57194 L 52.941224 96.598082 L 53.364454 96.595499 L 53.364454 78.27827 C 55.184426 81.25528 57.747653 83.664449 61.301954 85.520722 A 5.1095204 5.1095204 0 0 0 63.072388 86.940274 L 63.072388 141.35607 C 63.072388 141.91007 63.518845 142.35601 64.072844 142.35601 L 65.543039 142.35601 C 66.097038 142.35601 66.542978 141.91007 66.542978 141.35607 L 66.542978 87.298392 A 5.1095204 5.1095204 0 0 0 70.413542 82.344689 A 5.1095204 5.1095204 0 0 0 66.542978 77.387886 L 66.542978 62.47355 A 1.8788713 11.273229 0 0 0 66.687155 58.141515 A 1.8788713 11.273229 0 0 0 66.685088 57.65524 L 76.405941 55.136531 C 76.405941 55.136531 76.614576 50.253868 73.691895 41.706343 C 70.769202 33.158814 64.8082 31.476993 64.8082 31.476993 C 64.8082 31.476993 58.846682 33.158814 55.923988 41.706343 C 53.544264 48.665963 53.24061 53.194434 53.209941 54.637336 L 52.792912 53.895263 A 5.4778226 5.4435887 60.66143 0 0 47.89347 51.099051 C 48.032195 50.17015 48.194744 49.742545 48.194744 49.742545 L 42.660714 49.742545 L 42.660714 47.439326 A 12.281818 12.281818 0 0 0 49.174012 36.605879 A 12.281818 12.281818 0 0 0 48.702723 33.238126 L 51.68497 33.238126 C 51.869191 33.238126 52.017249 33.090068 52.017249 32.905846 L 52.017249 32.598888 C 52.017249 32.414667 51.869191 32.266609 51.68497 32.266609 L 50.197205 32.266609 A 13.306451 16.379862 0 0 0 43.545415 18.328441 A 13.306451 16.379862 0 0 0 39.642294 16.491344 L 39.642294 15.161193 C 39.642294 14.988668 39.503727 14.849584 39.331202 14.849584 L 34.45398 14.849584 z M 53.538087 55.221797 L 62.931312 57.65524 A 1.8788713 11.273229 0 0 0 62.929245 58.141515 A 1.8788713 11.273229 0 0 0 63.072388 62.445645 L 63.072388 76.100626 C 62.065038 75.311843 61.547709 74.374242 60.685454 72.635204 C 59.716014 70.679989 58.602176 67.665265 56.799386 63.37117 L 57.801909 62.807897 L 53.538087 55.221797 z " /></g></g><g
       id="g2262"
       transform="translate(1.5412369,-4.346e-5)"><g
         id="g2260"
         transform="matrix(1.093617,0,0,1.093617,-9.574722,-4.6069422)"><g
           id="g2194"
           inkscape:label="head"
           transform="matrix(1.0581387,0,0,1.0581387,1.608131,-7.1552174)"><rect
             style="opacity:1;fill:#ffcc00;fill-opacity:1;stroke:none;stroke-width:2.63388;stroke-linecap:square"
             id="rect2190"
             width="9.9690962"
             height="9.1902609"
             x="33.650558"
             y="50.377213" /><circle
             style="opacity:1;fill:#ffcc00;fill-opacity:1;stroke:none;stroke-width:3.14848;stroke-linecap:square"
             id="circle2192"
             cx="38.635105"
             cy="42.37645"
             r="10.613407" /></g><g
           id="g2202"
           inkscape:label="leftArm"
           style="display:inline"
           transform="matrix(1.0581387,0,0,1.0581387,1.608131,-7.3224887)"><path
             style="color:#000000;fill:#ffcc00;fill-opacity:1;stroke-linecap:round;stroke-linejoin:round;-inkscape-stroke:none"
             d="m 29.154297,55.183594 a 3.95082,3.95082 0 0 0 -2.945313,0.685547 c -2.676115,1.915154 -5.059792,4.223659 -7.058593,6.83789 -6.673293,8.727992 -8.59884,20.577264 -5.03125,30.96875 a 3.95082,3.95082 0 0 0 5.019531,2.455078 3.95082,3.95082 0 0 0 2.455078,-5.019531 c -2.665034,-7.762568 -1.151047,-17.085552 3.833984,-23.605469 1.520405,-1.988536 3.343296,-3.754158 5.378907,-5.210937 a 3.95082,3.95082 0 0 0 0.914062,-5.513672 3.95082,3.95082 0 0 0 -2.566406,-1.597656 z"
             id="path2196" /><circle
             style="display:inline;fill:#ffcc00;fill-opacity:1;stroke:none;stroke-width:8.83079;stroke-linecap:square;stroke-linejoin:round;stroke-dasharray:none;stroke-opacity:1"
             id="circle2198"
             cx="17.856539"
             cy="92.393829"
             r="4.4154224" /><path
             id="path2200"
             style="display:inline;stroke-width:4.32077;stroke-dasharray:none;fill:#ffffff;fill-opacity:1;stroke:none;stroke-linecap:round;stroke-linejoin:round"
             d="m 21.193442,56.94863 a 4.7041097,4.7336931 48.954308 0 0 -6.659015,-0.439417 l -6.6631143,5.801492 6.1780153,7.095559 6.663115,-5.801493 a 4.7041097,4.7336931 48.954308 0 0 0.480999,-6.656141 z"
             transform="translate(10.906703,-0.2096111)" /></g><g
           id="g2206"
           inkscape:label="torso"
           transform="matrix(1.0581387,0,0,1.0581387,1.608131,-7.1552174)"
           style="fill:#008080"><rect
             style="opacity:1;fill:#ffffff;fill-opacity:1;stroke:none;stroke-width:2.80559;stroke-linecap:square"
             id="rect2204"
             width="27.737171"
             height="40.499451"
             x="24.766521"
             y="54.972347"
             rx="3.8697224"
             ry="5.650239" /></g><g
           id="g2216"
           style="display:inline"
           transform="matrix(-0.92900362,0,0,0.92900362,78.305194,11.680324)"
           inkscape:label="shoes"><rect
             style="display:inline;opacity:1;fill:#803300;fill-opacity:1;stroke:none;stroke-width:7.17952;stroke-linecap:square;stroke-linejoin:round;stroke-dasharray:none;stroke-opacity:1"
             id="rect2208"
             width="8.2692204"
             height="13.765817"
             x="65.856903"
             y="120.24144"
             transform="translate(-40.834227,1.4669458)" /><rect
             style="display:inline;opacity:1;fill:#803300;fill-opacity:1;stroke:none;stroke-width:10.2762;stroke-linecap:square;stroke-linejoin:round;stroke-dasharray:none;stroke-opacity:1"
             id="rect2210"
             width="19.448647"
             height="7.277873"
             x="56.132584"
             y="129.13843"
             rx="2.836376"
             ry="2.7431908"
             transform="translate(-40.834227,1.4669458)" /><rect
             style="display:inline;opacity:1;fill:#803300;fill-opacity:1;stroke:none;stroke-width:7.17952;stroke-linecap:square;stroke-linejoin:round;stroke-dasharray:none;stroke-opacity:1"
             id="rect2212"
             width="8.2692204"
             height="13.765817"
             x="65.856903"
             y="120.24144"
             transform="matrix(-1,0,0,1,117.93998,1.4669458)" /><rect
             style="display:inline;opacity:1;fill:#803300;fill-opacity:1;stroke:none;stroke-width:10.2762;stroke-linecap:square;stroke-linejoin:round;stroke-dasharray:none;stroke-opacity:1"
             id="rect2214"
             width="19.448647"
             height="7.277873"
             x="56.132584"
             y="129.13843"
             rx="2.836376"
             ry="2.7431908"
             transform="matrix(-1,0,0,1,117.93998,1.4669458)" /></g><g
           id="g2226"
           transform="matrix(0.92900362,0,0,0.92900362,-31.337863,13.043122)"
           inkscape:label="pants"
           style="fill:#262680;fill-opacity:1"><rect
             style="opacity:1;fill:#262680;fill-opacity:1;stroke:none;stroke-width:7.12338;stroke-linecap:square;stroke-linejoin:round;stroke-dasharray:none;stroke-opacity:1"
             id="rect2218"
             width="31.592743"
             height="10.8081"
             x="63.672962"
             y="79.661285" /><rect
             style="opacity:1;fill:#262680;fill-opacity:1;stroke:none;stroke-width:2.67632;stroke-linecap:square"
             id="rect2220"
             width="12.801557"
             height="47.463066"
             x="63.672962"
             y="79.661285"
             rx="2.7431908"
             ry="2.7431908" /><rect
             style="opacity:1;fill:#262680;fill-opacity:1;stroke:none;stroke-width:2.67632;stroke-linecap:square"
             id="rect2222"
             width="12.801557"
             height="47.463066"
             x="82.464142"
             y="79.661285"
             rx="2.7431908"
             ry="2.7431908" /><path
             id="path2224"
             style="display:inline;opacity:1;fill:#262680;fill-opacity:1;stroke:none;stroke-width:7.67683;stroke-linecap:square;stroke-linejoin:round;stroke-dasharray:none;stroke-opacity:1"
             d="m 73.636923,88.154733 v 6.519519 h 2.419661 a 3.4128591,3.7654886 0 0 1 1.706271,-3.261389 3.4128591,3.7654886 0 0 1 3.412953,0 3.4128591,3.7654886 0 0 1 1.706271,3.261389 h 2.419661 v -6.519519 z" /></g><g
           id="g2236"
           transform="matrix(1.0581387,0,0,1.0581387,27.556785,12.469147)"
           inkscape:label="hat"><path
             style="display:inline;fill:#d45500;stroke:none;stroke-width:3.79874;stroke-linecap:round;stroke-linejoin:round"
             id="path2228"
             sodipodi:type="arc"
             sodipodi:cx="14.112182"
             sodipodi:cy="-20.294304"
             sodipodi:rx="11.498849"
             sodipodi:ry="14.154756"
             sodipodi:start="0"
             sodipodi:end="3.1415927"
             sodipodi:arc-type="slice"
             d="m 25.611031,-20.294304 a 11.498849,14.154756 0 0 1 -5.749425,12.2583781 11.498849,14.154756 0 0 1 -11.4988491,-3e-7 A 11.498849,14.154756 0 0 1 2.6133327,-20.294304 H 14.112182 Z"
             transform="scale(1,-1)" /><rect
             style="display:inline;fill:#aa4400;stroke:none;stroke-width:4.18136;stroke-linecap:round;stroke-linejoin:round"
             id="rect2230"
             width="4.7528582"
             height="15.264928"
             x="11.735753"
             y="5.0293789"
             ry="0.26911336" /><rect
             style="display:inline;fill:#aa4400;stroke:none;stroke-width:4.32077;stroke-linecap:round;stroke-linejoin:round"
             id="rect2232"
             width="25.795755"
             height="0.83976614"
             x="1.3867806"
             y="20.080315"
             ry="0.28735808" /><path
             style="display:inline;fill:#aa4400;stroke:none;stroke-width:3.69426;stroke-linecap:round;stroke-linejoin:round"
             id="path2234"
             sodipodi:type="arc"
             sodipodi:cx="14.284655"
             sodipodi:cy="20.658447"
             sodipodi:rx="9.4286861"
             sodipodi:ry="2.3402565"
             sodipodi:start="0"
             sodipodi:end="3.1415927"
             sodipodi:arc-type="slice"
             d="m 23.713341,20.658447 a 9.4286861,2.3402565 0 0 1 -4.714343,2.026722 9.4286861,2.3402565 0 0 1 -9.4286867,0 9.4286861,2.3402565 0 0 1 -4.7143428,-2.026722 h 9.4286865 z" /></g><g
           id="g2244"
           inkscape:label="rightArm"
           style="display:inline;stroke-width:5;stroke-dasharray:none"
           transform="matrix(1.0581387,0,0,1.0581387,13.148936,-7.5442864)"><path
             style="color:#000000;fill:#ffcc00;fill-opacity:1;stroke-linecap:round;stroke-linejoin:round;-inkscape-stroke:none"
             d="m 38.945312,55.5625 a 3.95082,3.95082 0 0 0 -3.019531,0.167969 3.95082,3.95082 0 0 0 -1.847656,5.273437 c 3.864509,8.031325 5.266199,12.624026 7.130859,16.384766 1.864661,3.76074 4.866901,6.594831 9.564453,8.533203 a 3.95082,3.95082 0 0 0 5.158204,-2.144531 3.95082,3.95082 0 0 0 -2.144532,-5.160157 C 50.013464,77.060051 49.649999,76.623711 48.289062,73.878906 46.928126,71.134102 45.244479,65.985092 41.199219,57.578125 A 3.95082,3.95082 0 0 0 38.945312,55.5625 Z"
             id="path2238" /><circle
             style="opacity:1;fill:#ffcc00;fill-opacity:1;stroke:none;stroke-width:8.83079;stroke-linecap:square;stroke-linejoin:round;stroke-dasharray:none;stroke-opacity:1"
             id="circle2240"
             cx="52.280228"
             cy="82.269485"
             r="4.4154224" /><path
             id="path2242"
             style="fill:#ffffff;fill-opacity:1;stroke:none;stroke-width:4.32077;stroke-linecap:round;stroke-linejoin:round"
             d="m 35.048745,55.863364 a 4.7336931,4.7041097 60.66143 0 0 -1.78145,6.43133 l 4.328801,7.701681 8.201529,-4.609746 -4.328802,-7.701681 a 4.7336931,4.7041097 60.66143 0 0 -6.420078,-1.821584 z" /></g><path
           style="fill:#d45500;stroke:none;stroke-width:0.290899px;stroke-linecap:butt;stroke-linejoin:miter;stroke-opacity:1"
           d="m 27.427676,76.522221 v 16.017062 l 9.787413,0.05478 V 49.697167 h -5.060517 c 0,0 1.103457,2.866313 -0.137932,10.13801 -1.241389,7.2717 -4.588968,7.369232 -4.588968,7.369232 l 4e-6,25.334874"
           id="path2246"
           sodipodi:nodetypes="cccccscc" /><path
           style="display:inline;fill:#d45500;stroke:none;stroke-width:0.290899px;stroke-linecap:butt;stroke-linejoin:miter;stroke-opacity:1"
           d="m 57.55119,76.522222 v 16.017061 l -9.787413,0.05478 V 49.697167 h 5.060517 c 0,0 -1.103457,2.866313 0.137932,10.138011 1.241389,7.271699 4.588968,7.369231 4.588968,7.369231 l -4e-6,25.334874"
           id="path2248"
           sodipodi:nodetypes="cccccscc" /><g
           id="g2258"
           transform="translate(0.84170535,-7.6780167)"><rect
             style="fill:#803300;fill-opacity:1;stroke:none;stroke-width:4.57198;stroke-linecap:round;stroke-linejoin:round"
             id="rect2250"
             width="3.1734698"
             height="76.163269"
             x="65.586769"
             y="65.897171"
             rx="0.91439688"
             ry="0.91439688" /><g
             id="g2256"
             transform="matrix(1.176667,0,0,1.176667,-58.863575,-21.407119)"><path
               id="path2252"
               style="fill:#b3b3b3;stroke:none;stroke-width:0.241934px;stroke-linecap:butt;stroke-linejoin:miter;stroke-opacity:1"
               d="m 107.11387,52.759455 c 0,0 -4.63285,1.306977 -6.9041,7.949333 -2.271239,6.642354 -2.108891,10.436719 -2.108891,10.436719 l 9.012991,2.335232 9.01252,-2.335232 c 0,0 0.16235,-3.794365 -2.10889,-10.436719 -2.27125,-6.642356 -6.90363,-7.949333 -6.90363,-7.949333 z" /><path
               id="path2254"
               style="fill:#808080;fill-opacity:1;stroke:none;stroke-width:4.57198;stroke-linecap:round;stroke-linejoin:round"
               d="m 107.11387,64.720076 a 1.4600853,8.7605124 0 0 0 -1.46011,8.760663 1.4600853,8.7605124 0 0 0 0.12995,3.613419 h 2.66033 a 1.4600853,8.7605124 0 0 0 0.12994,-3.613419 1.4600853,8.7605124 0 0 0 -1.46011,-8.760663 z" /></g></g></g></g></g></svg>
