<?xml version="1.0" encoding="UTF-8" standalone="no"?>
<!-- Created with Inkscape (http://www.inkscape.org/) -->

<svg
   width="75.000008mm"
   height="150mm"
   viewBox="0 0 75.000005 150"
   version="1.1"
   id="svg5"
   xml:space="preserve"
   inkscape:version="1.2 (dc2aedaf03, 2022-05-15)"
   sodipodi:docname="Bureaucrat.svg"
   xmlns:inkscape="http://www.inkscape.org/namespaces/inkscape"
   xmlns:sodipodi="http://sodipodi.sourceforge.net/DTD/sodipodi-0.dtd"
   xmlns="http://www.w3.org/2000/svg"
   xmlns:svg="http://www.w3.org/2000/svg"><sodipodi:namedview
     id="namedview7"
     pagecolor="#ffffff"
     bordercolor="#666666"
     borderopacity="1.0"
     inkscape:showpageshadow="2"
     inkscape:pageopacity="0.0"
     inkscape:pagecheckerboard="0"
     inkscape:deskcolor="#d1d1d1"
     inkscape:document-units="mm"
     showgrid="false"
     inkscape:zoom="0.37282198"
     inkscape:cx="-726.88847"
     inkscape:cy="995.113"
     inkscape:window-width="1920"
     inkscape:window-height="1017"
     inkscape:window-x="-8"
     inkscape:window-y="-8"
     inkscape:window-maximized="1"
     inkscape:current-layer="g1076" /><defs
     id="defs2"><inkscape:path-effect
       effect="spiro"
       id="path-effect1806"
       is_visible="true"
       lpeversion="1" /><inkscape:path-effect
       effect="spiro"
       id="path-effect8447"
       is_visible="true"
       lpeversion="1" /><inkscape:path-effect
       effect="spiro"
       id="path-effect7278"
       is_visible="true"
       lpeversion="1" /><inkscape:path-effect
       effect="spiro"
       id="path-effect7274"
       is_visible="true"
       lpeversion="1" /><pattern
       id="EMFhbasepattern"
       patternUnits="userSpaceOnUse"
       width="6"
       height="6"
       x="0"
       y="0" /><inkscape:path-effect
       effect="spiro"
       id="path-effect7278-6"
       is_visible="true"
       lpeversion="1" /><inkscape:path-effect
       effect="spiro"
       id="path-effect1806-9"
       is_visible="true"
       lpeversion="1" /></defs><g
     inkscape:label="Layer 1"
     inkscape:groupmode="layer"
     id="layer1"
     transform="translate(-19.790319,-32.209669)"
     style="display:none"
     sodipodi:insensitive="true"><rect
       style="fill:#ffffff;fill-opacity:0.501961;stroke:#008000;stroke-width:2.5322;stroke-linecap:square"
       id="rect2969"
       width="72.467804"
       height="147.4678"
       x="21.056419"
       y="33.475769" /></g><g
     inkscape:groupmode="layer"
     id="layer3"
     inkscape:label="Layer 2"
     style="display:inline"
     transform="translate(-3.9770164,-0.75272654)" /><g
     id="g1076"
     transform="translate(-52.827146,26.31013)"><g
       id="g553"
       transform="translate(44.357518,-21.050954)"
       style="display:inline"
       inkscape:label="shadow"><path
         id="rect483"
         style="fill:#000000;fill-opacity:1;stroke:#000000;stroke-width:5;stroke-linecap:square;stroke-dasharray:none"
         d="M 40.100772 17.958528 C 38.262189 17.975287 35.095756 18.536362 32.232002 21.656494 C 27.868186 26.41098 28.732991 30.939131 28.732991 30.939131 C 28.732991 30.939131 28.972063 30.913103 29.373778 30.851281 A 12.281818 12.281818 0 0 0 35.877774 41.42738 L 35.877774 45.169787 L 35.850902 45.169787 L 35.849869 45.168237 L 35.849352 45.169787 L 30.692044 45.169787 C 30.555934 45.169787 30.421322 45.180233 30.288451 45.198209 A 4.571883 4.571883 0 0 0 27.266413 46.024515 C 24.169621 48.240726 21.411444 50.912547 19.098437 53.937727 C 11.869188 63.392852 9.4552475 76.013311 12.563435 87.451961 A 5.1095204 5.1095204 0 0 0 12.491605 88.291186 A 5.1095204 5.1095204 0 0 0 17.600854 93.400435 A 5.1095204 5.1095204 0 0 0 22.710619 88.291186 A 5.1095204 5.1095204 0 0 0 21.322073 84.790108 C 19.129506 76.275036 21.008519 66.538984 26.314017 59.555472 L 26.314017 85.497558 L 26.314017 96.025598 L 26.314017 131.94123 C 26.314017 133.34306 27.235762 134.50642 28.470991 134.78344 L 28.470991 134.84648 L 21.472969 134.84648 C 19.876517 134.84648 18.591491 136.08939 18.591491 137.63339 L 18.591491 139.45344 C 18.591491 140.99744 19.876517 142.24086 21.472969 142.24086 L 35.469014 142.24086 C 37.065465 142.24086 38.350491 140.99744 38.350491 139.45344 L 38.350491 137.63339 C 38.350491 136.58303 37.755486 135.67256 36.872545 135.19737 L 36.872545 134.78344 C 38.10756 134.50625 39.02952 133.3429 39.02952 131.94123 L 39.02952 98.570662 A 3.3899593 3.9879789 0 0 1 40.309028 97.02502 A 3.3899593 3.9879789 0 0 1 43.699002 97.02502 A 3.3899593 3.9879789 0 0 1 44.979027 98.567045 L 44.979027 131.94123 C 44.979027 133.28744 45.829373 134.41361 46.990791 134.74623 L 46.990791 135.19737 C 46.107851 135.67256 45.512328 136.58303 45.512328 137.63339 L 45.512328 139.45344 C 45.512328 140.99744 46.797871 142.24086 48.394323 142.24086 L 62.390368 142.24086 C 63.98682 142.24086 65.271846 140.99744 65.271846 139.45344 L 65.271846 137.63339 C 65.271846 136.08939 63.98682 134.84648 62.390368 134.84648 L 55.392345 134.84648 L 55.392345 134.81238 C 56.699714 134.59702 57.69453 133.39738 57.69453 131.94123 L 57.69453 87.484517 L 57.69453 84.579268 L 57.69453 71.953682 C 59.524663 75.074629 62.140532 77.58711 65.818065 79.507743 A 5.1095204 5.1095204 0 0 0 69.819888 81.441475 A 5.1095204 5.1095204 0 0 0 74.929654 76.331709 A 5.1095204 5.1095204 0 0 0 72.919958 72.270975 C 72.926347 71.425404 72.931536 70.126521 72.912206 69.34764 C 72.894154 68.620013 72.344877 68.438189 71.901932 68.410229 L 71.901932 67.210302 C 71.901932 66.343524 71.437339 65.64554 70.860652 65.64554 C 70.283964 65.64554 69.819888 66.343524 69.819888 67.210302 L 69.819888 71.222461 A 5.1095204 5.1095204 0 0 0 69.555305 71.232279 C 67.010335 70.034072 66.491708 69.224246 65.201566 66.622225 C 63.626694 63.445945 61.678063 57.487813 56.996899 47.759293 A 4.571883 4.571883 0 0 0 55.29261 45.869486 C 54.699456 45.422644 54.028632 45.169787 53.316503 45.169787 L 47.414021 45.169787 L 47.414021 41.42738 A 12.281818 12.281818 0 0 0 53.918017 30.851281 C 54.319732 30.913103 54.558804 30.939131 54.558804 30.939131 C 54.558804 30.939131 55.423609 26.41098 51.059793 21.656494 C 46.774108 16.987132 41.822268 18.04713 41.645898 18.086686 C 41.58738 18.073562 41.013678 17.950207 40.100772 17.958528 z M 71.901932 70.093331 L 72.547887 72.012076 A 5.1095204 5.1095204 0 0 0 71.901932 71.665844 L 71.901932 70.093331 z " /></g><rect
       style="fill:#aa8800;fill-opacity:1;stroke:none;stroke-width:4.99999;stroke-linecap:round;stroke-linejoin:round;stroke-dasharray:none"
       id="rect2461"
       width="0.86524743"
       height="2.1458032"
       x="114.7966"
       y="43.637447" /><g
       id="g1621"
       transform="translate(44.357518,-21.050954)"
       style="display:inline"><g
         id="g1539"
         inkscape:label="head"
         transform="matrix(1.1571985,0,0,1.1571985,-3.0625947,-18.444005)"><rect
           style="opacity:1;fill:#ffcc00;fill-opacity:1;stroke:none;stroke-width:2.63388;stroke-linecap:square"
           id="rect1535"
           width="9.9690962"
           height="9.1902609"
           x="33.650558"
           y="50.377213" /><circle
           style="opacity:1;fill:#ffcc00;fill-opacity:1;stroke:none;stroke-width:3.14848;stroke-linecap:square"
           id="circle1537"
           cx="38.635105"
           cy="42.37645"
           r="10.613407" /></g><g
         id="g1545"
         inkscape:label="leftArm"
         style="display:inline"
         transform="matrix(1.1571985,0,0,1.1571985,-3.0625947,-18.626936)"><path
           style="color:#000000;fill:#666666;stroke-linecap:round;stroke-linejoin:round;-inkscape-stroke:none"
           d="m 29.154297,55.183594 a 3.95082,3.95082 0 0 0 -2.945313,0.685547 c -2.676115,1.915154 -5.059792,4.223659 -7.058593,6.83789 -6.673293,8.727992 -8.59884,20.577264 -5.03125,30.96875 a 3.95082,3.95082 0 0 0 5.019531,2.455078 3.95082,3.95082 0 0 0 2.455078,-5.019531 c -2.665034,-7.762568 -1.151047,-17.085552 3.833984,-23.605469 1.520405,-1.988536 3.343296,-3.754158 5.378907,-5.210937 a 3.95082,3.95082 0 0 0 0.914062,-5.513672 3.95082,3.95082 0 0 0 -2.566406,-1.597656 z"
           id="path1541" /><circle
           style="display:inline;fill:#ffcc00;fill-opacity:1;stroke:none;stroke-width:8.83079;stroke-linecap:square;stroke-linejoin:round;stroke-dasharray:none;stroke-opacity:1"
           id="circle1543"
           cx="17.856539"
           cy="92.393829"
           r="4.4154224" /></g><g
         id="g1551"
         inkscape:label="rightArm"
         style="display:inline"
         transform="matrix(1.1571985,0,0,1.1571985,9.3212993,-18.870209)"><path
           style="color:#000000;fill:#666666;stroke-linecap:round;stroke-linejoin:round;-inkscape-stroke:none"
           d="m 38.945312,55.5625 a 3.95082,3.95082 0 0 0 -3.019531,0.167969 3.95082,3.95082 0 0 0 -1.847656,5.273437 c 3.864509,8.031325 5.266199,12.624026 7.130859,16.384766 1.864661,3.76074 4.866901,6.594831 9.564453,8.533203 a 3.95082,3.95082 0 0 0 5.158204,-2.144531 3.95082,3.95082 0 0 0 -2.144532,-5.160157 C 50.013464,77.060051 49.649999,76.623711 48.289062,73.878906 46.928126,71.134102 45.244479,65.985092 41.199219,57.578125 A 3.95082,3.95082 0 0 0 38.945312,55.5625 Z"
           id="path1547" /><circle
           style="opacity:1;fill:#ffcc00;fill-opacity:1;stroke:none;stroke-width:8.83079;stroke-linecap:square;stroke-linejoin:round;stroke-dasharray:none;stroke-opacity:1"
           id="circle1549"
           cx="52.280228"
           cy="82.269485"
           r="4.4154224" /></g><g
         id="g1555"
         inkscape:label="torso"
         transform="matrix(1.1571985,0,0,1.1571985,-3.0625947,-18.444005)"
         style="fill:#666666;fill-opacity:1"><path
           id="path1553"
           style="opacity:1;fill:#666666;stroke-width:2.77409;stroke-linecap:square;fill-opacity:1"
           d="m 29.16915,54.972347 h 19.551222 c 2.095959,0 3.783321,2.520007 3.783321,5.650239 v 29.198973 c 0,3.130232 -1.687362,5.650239 -3.783321,5.650239 H 29.16915 c -2.095959,0 -3.783321,-2.520007 -3.783321,-5.650239 V 60.622586 c 0,-3.130232 1.687362,-5.650239 3.783321,-5.650239 z"
           sodipodi:nodetypes="sssssssss" /><path
           style="display:inline;fill:#cccccc;stroke:none;stroke-width:0.264583px;stroke-linecap:butt;stroke-linejoin:miter;stroke-opacity:1"
           d="M 35.877781,45.169907 H 47.414006 L 42.187162,57.564839 Z"
           id="path1577"
           transform="matrix(0.86415599,0,0,0.86415599,2.6465596,15.938497)" /><path
           style="display:inline;fill:#333333;stroke:none;stroke-width:0.264583px;stroke-linecap:butt;stroke-linejoin:miter;stroke-opacity:1"
           d="m 35.849923,45.16844 6.790083,11.760767 -0.905685,1.271267 -0.813783,0.88996 -8.232948,-4.753294 z"
           id="path1579"
           inkscape:transform-center-x="-1.8629032"
           inkscape:transform-center-y="-3.9919354"
           sodipodi:nodetypes="cccccc"
           transform="matrix(0.86415599,0,0,0.86415599,2.6465596,15.938497)" /><path
           style="display:inline;fill:#808080;stroke:none;stroke-width:0.264583px;stroke-linecap:butt;stroke-linejoin:miter;stroke-opacity:1"
           d="M 47.414005,45.169908 37.89251,61.661619 50.576338,54.338608 Z"
           id="path1581"
           inkscape:transform-center-x="1.8629028"
           inkscape:transform-center-y="-3.9919354"
           transform="matrix(0.86415599,0,0,0.86415599,2.6465596,15.938497)" /><path
           id="path1583"
           style="display:inline;fill:#808080;stroke-width:4.99999;stroke-linecap:round;stroke-linejoin:round"
           d="m 37.892509,61.661617 1.136994,-0.959173 V 84.57905 h -1.136994 z"
           sodipodi:nodetypes="ccccc"
           transform="matrix(0.86415599,0,0,0.86415599,2.6465596,15.938497)" /><ellipse
           style="display:inline;fill:#000000;fill-opacity:1;stroke:none;stroke-width:4.99999;stroke-linecap:round;stroke-linejoin:round"
           id="ellipse1585"
           cx="41.134018"
           cy="64.336662"
           rx="0.87020451"
           ry="0.84681737"
           transform="matrix(0.86415599,0,0,0.86415599,2.6465596,15.938497)" /><ellipse
           style="display:inline;fill:#000000;fill-opacity:1;stroke:none;stroke-width:4.99999;stroke-linecap:round;stroke-linejoin:round"
           id="ellipse1587"
           cx="41.134018"
           cy="81.058472"
           rx="0.87020451"
           ry="0.84681737"
           transform="matrix(0.86415599,0,0,0.86415599,2.6465596,15.938497)" /><ellipse
           style="display:inline;fill:#000000;fill-opacity:1;stroke:none;stroke-width:4.99999;stroke-linecap:round;stroke-linejoin:round"
           id="ellipse1589"
           cx="41.134018"
           cy="77.714111"
           rx="0.87020451"
           ry="0.84681737"
           transform="matrix(0.86415599,0,0,0.86415599,2.6465596,15.938497)" /><ellipse
           style="display:inline;fill:#000000;fill-opacity:1;stroke:none;stroke-width:4.99999;stroke-linecap:round;stroke-linejoin:round"
           id="ellipse1591"
           cx="41.134018"
           cy="74.369751"
           rx="0.87020451"
           ry="0.84681737"
           transform="matrix(0.86415599,0,0,0.86415599,2.6465596,15.938497)" /><ellipse
           style="display:inline;fill:#000000;fill-opacity:1;stroke:none;stroke-width:4.99999;stroke-linecap:round;stroke-linejoin:round"
           id="ellipse1593"
           cx="41.134018"
           cy="71.025383"
           rx="0.87020451"
           ry="0.84681737"
           transform="matrix(0.86415599,0,0,0.86415599,2.6465596,15.938497)" /><ellipse
           style="display:inline;fill:#000000;fill-opacity:1;stroke:none;stroke-width:4.99999;stroke-linecap:round;stroke-linejoin:round"
           id="ellipse1595"
           cx="41.134018"
           cy="67.681023"
           rx="0.87020451"
           ry="0.84681737"
           transform="matrix(0.86415599,0,0,0.86415599,2.6465596,15.938497)" /></g><g
         id="g1565"
         style="display:inline;fill:#000000"
         transform="matrix(-1.0159742,0,0,1.0159742,80.814617,2.1548629)"
         inkscape:label="shoes"><rect
           style="display:inline;opacity:1;fill:#000000;fill-opacity:1;stroke:none;stroke-width:7.17952;stroke-linecap:square;stroke-linejoin:round;stroke-dasharray:none;stroke-opacity:1"
           id="rect1557"
           width="8.2692204"
           height="13.765817"
           x="65.856903"
           y="120.24144"
           transform="translate(-40.834227,1.4669458)" /><rect
           style="display:inline;opacity:1;fill:#000000;fill-opacity:1;stroke:none;stroke-width:10.2762;stroke-linecap:square;stroke-linejoin:round;stroke-dasharray:none;stroke-opacity:1"
           id="rect1559"
           width="19.448647"
           height="7.277873"
           x="56.132584"
           y="129.13843"
           rx="2.836376"
           ry="2.7431908"
           transform="translate(-40.834227,1.4669458)" /><rect
           style="display:inline;opacity:1;fill:#000000;fill-opacity:1;stroke:none;stroke-width:7.17952;stroke-linecap:square;stroke-linejoin:round;stroke-dasharray:none;stroke-opacity:1"
           id="rect1561"
           width="8.2692204"
           height="13.765817"
           x="-51.520599"
           y="121.70839"
           transform="scale(-1,1)" /><rect
           style="display:inline;opacity:1;fill:#000000;fill-opacity:1;stroke:none;stroke-width:10.2762;stroke-linecap:square;stroke-linejoin:round;stroke-dasharray:none;stroke-opacity:1"
           id="rect1563"
           width="19.448647"
           height="7.277873"
           x="-61.244919"
           y="130.60538"
           rx="2.836376"
           ry="2.7431908"
           transform="scale(-1,1)" /></g><g
         id="g1575"
         transform="matrix(0.99329015,0,0,1.0590867,-36.931882,0.21084188)"
         inkscape:label="pants"
         style="fill:#4d4d4d"><rect
           style="opacity:1;fill:#4d4d4d;fill-opacity:1;stroke:none;stroke-width:7.12338;stroke-linecap:square;stroke-linejoin:round;stroke-dasharray:none;stroke-opacity:1"
           id="rect1567"
           width="31.592743"
           height="10.8081"
           x="63.672962"
           y="79.661285" /><rect
           style="opacity:1;fill:#4d4d4d;fill-opacity:1;stroke:none;stroke-width:2.67632;stroke-linecap:square"
           id="rect1569"
           width="12.801557"
           height="47.463066"
           x="63.672962"
           y="79.661285"
           rx="2.7431908"
           ry="2.7431908" /><rect
           style="opacity:1;fill:#4d4d4d;fill-opacity:1;stroke:none;stroke-width:2.67632;stroke-linecap:square"
           id="rect1571"
           width="12.801557"
           height="47.463066"
           x="82.464142"
           y="79.661285"
           rx="2.7431908"
           ry="2.7431908" /><path
           id="path1573"
           style="display:inline;opacity:1;fill:#4d4d4d;fill-opacity:1;stroke:none;stroke-width:7.67683;stroke-linecap:square;stroke-linejoin:round;stroke-dasharray:none;stroke-opacity:1"
           d="m 73.636923,88.154733 v 6.519519 h 2.419661 a 3.4128591,3.7654886 0 0 1 1.706271,-3.261389 3.4128591,3.7654886 0 0 1 3.412953,0 3.4128591,3.7654886 0 0 1 1.706271,3.261389 h 2.419661 v -6.519519 z" /></g><g
         id="g1605"
         transform="translate(-27.560786,10.461559)"
         inkscape:label="bowtie"><ellipse
           style="fill:#000000;fill-opacity:1;stroke:none;stroke-width:4.99999;stroke-linecap:round;stroke-linejoin:round"
           id="ellipse1597"
           cx="68.981651"
           cy="37.75705"
           rx="1.4279313"
           ry="1.4637096" /><g
           id="g1603"
           transform="translate(11.354838,-3.3950002)"><path
             sodipodi:type="star"
             style="fill:#000000;fill-opacity:1;stroke:none;stroke-width:4.99999;stroke-linecap:round;stroke-linejoin:round"
             id="path1599"
             inkscape:flatsided="true"
             sodipodi:sides="3"
             sodipodi:cx="10.45013"
             sodipodi:cy="140.81789"
             sodipodi:r1="18.629852"
             sodipodi:r2="9.3149261"
             sodipodi:arg1="2.0943951"
             sodipodi:arg2="3.1415927"
             inkscape:rounded="0"
             inkscape:randomized="0"
             d="m 1.1352044,156.95181 -10e-8,-32.26785 27.9447787,16.13393 z"
             transform="matrix(0.17638888,0,0,0.1298742,52.45925,22.863439)"
             inkscape:transform-center-x="-0.82152466" /><path
             sodipodi:type="star"
             style="display:inline;fill:#000000;fill-opacity:1;stroke:none;stroke-width:4.99999;stroke-linecap:round;stroke-linejoin:round"
             id="path1601"
             inkscape:flatsided="true"
             sodipodi:sides="3"
             sodipodi:cx="10.45013"
             sodipodi:cy="140.81789"
             sodipodi:r1="18.629852"
             sodipodi:r2="9.3149261"
             sodipodi:arg1="2.0943951"
             sodipodi:arg2="3.1415927"
             inkscape:rounded="0"
             inkscape:randomized="0"
             d="m 1.1352044,156.95181 -10e-8,-32.26785 27.9447787,16.13393 z"
             transform="matrix(-0.17638888,0,0,0.1298742,62.756196,22.863439)"
             inkscape:transform-center-x="0.82152434" /></g></g><g
         id="g1611"
         transform="translate(0.07835101,0.34499967)"
         inkscape:label="hair"><path
           style="display:inline;fill:#b3b3b3;stroke:none;stroke-width:0.278534px;stroke-linecap:butt;stroke-linejoin:miter;stroke-opacity:1"
           d="m 54.480363,30.593958 c 0,0 -7.141921,-0.764169 -10.558924,-4.330039 -3.417008,-3.565869 -2.370474,-8.518464 -2.370474,-8.518464 0,0 5.066821,-1.188623 9.430641,3.565869 4.36382,4.754491 3.498757,9.282634 3.498757,9.282634 z"
           id="path1607" /><path
           style="display:inline;fill:#b3b3b3;stroke:none;stroke-width:0.278534px;stroke-linecap:butt;stroke-linejoin:miter;stroke-opacity:1"
           d="m 28.654717,30.593958 c 0,0 7.141921,-0.764169 10.558924,-4.330039 3.417008,-3.565869 2.370474,-8.518464 2.370474,-8.518464 0,0 -5.066821,-1.188623 -9.430641,3.565869 -4.36382,4.754491 -3.498757,9.282634 -3.498757,9.282634 z"
           id="path1609" /></g><g
         id="g1619"
         transform="matrix(1.5645836,0,0,1.5645836,-43.016023,-9.7962877)"
         inkscape:label="pen"
         style="fill:#a05a2c"><path
           sodipodi:type="star"
           style="fill:#aa8800;fill-opacity:1;stroke:none;stroke-width:4.99999;stroke-linecap:round;stroke-linejoin:round"
           id="path1615"
           inkscape:flatsided="true"
           sodipodi:sides="3"
           sodipodi:cx="220.44704"
           sodipodi:cy="226.31445"
           sodipodi:r1="2.3529441"
           sodipodi:r2="1.1764721"
           sodipodi:arg1="1.5707963"
           sodipodi:arg2="2.6179939"
           inkscape:rounded="0"
           inkscape:randomized="0"
           d="m 220.44704,228.6674 -2.03771,-3.52942 4.07542,0 z"
           transform="matrix(0.1322916,0,0,0.26458333,43.62085,-2.8196597)"
           inkscape:transform-center-y="0.1556367" /><rect
           style="fill:#a05a2c;fill-opacity:1;stroke:none;stroke-width:4.99999;stroke-linecap:round;stroke-linejoin:round"
           id="rect1613"
           width="1.3306452"
           height="8.8407621"
           x="72.11882"
           y="48.218609"
           rx="1"
           ry="1" /><path
           style="fill:none;stroke:#aa8800;stroke-width:0.264583px;stroke-linecap:butt;stroke-linejoin:miter;stroke-opacity:1"
           d="m 73.094625,50.00695 c 0,0 0.981324,-0.204864 1.000741,0.577779 0.01942,0.782643 0,2.393995 0,2.393995"
           id="path1617" /></g></g></g></svg>
