<?xml version="1.0" encoding="UTF-8" standalone="no"?>
<!-- Created with Inkscape (http://www.inkscape.org/) -->

<svg
   width="75.000008mm"
   height="150mm"
   viewBox="0 0 75.000005 150"
   version="1.1"
   id="svg5"
   xml:space="preserve"
   inkscape:version="1.2 (dc2aedaf03, 2022-05-15)"
   sodipodi:docname="Farmer.svg"
   xmlns:inkscape="http://www.inkscape.org/namespaces/inkscape"
   xmlns:sodipodi="http://sodipodi.sourceforge.net/DTD/sodipodi-0.dtd"
   xmlns="http://www.w3.org/2000/svg"
   xmlns:svg="http://www.w3.org/2000/svg"><sodipodi:namedview
     id="namedview7"
     pagecolor="#ffffff"
     bordercolor="#666666"
     borderopacity="1.0"
     inkscape:showpageshadow="2"
     inkscape:pageopacity="0.0"
     inkscape:pagecheckerboard="0"
     inkscape:deskcolor="#d1d1d1"
     inkscape:document-units="mm"
     showgrid="false"
     inkscape:zoom="0.13181248"
     inkscape:cx="-2385.9654"
     inkscape:cy="1919.3934"
     inkscape:window-width="1920"
     inkscape:window-height="1017"
     inkscape:window-x="-8"
     inkscape:window-y="-8"
     inkscape:window-maximized="1"
     inkscape:current-layer="svg5" /><defs
     id="defs2"><inkscape:path-effect
       effect="spiro"
       id="path-effect1806"
       is_visible="true"
       lpeversion="1" /><inkscape:path-effect
       effect="spiro"
       id="path-effect8447"
       is_visible="true"
       lpeversion="1" /><inkscape:path-effect
       effect="spiro"
       id="path-effect7278"
       is_visible="true"
       lpeversion="1" /><inkscape:path-effect
       effect="spiro"
       id="path-effect7274"
       is_visible="true"
       lpeversion="1" /><pattern
       id="EMFhbasepattern"
       patternUnits="userSpaceOnUse"
       width="6"
       height="6"
       x="0"
       y="0" /><inkscape:path-effect
       effect="spiro"
       id="path-effect7278-6"
       is_visible="true"
       lpeversion="1" /><inkscape:path-effect
       effect="spiro"
       id="path-effect1806-9"
       is_visible="true"
       lpeversion="1" /></defs><g
     inkscape:label="Layer 1"
     inkscape:groupmode="layer"
     id="layer1"
     transform="translate(-19.790319,-32.209669)"
     style="display:none"
     sodipodi:insensitive="true"><rect
       style="fill:#ffffff;fill-opacity:0.501961;stroke:#008000;stroke-width:2.5322;stroke-linecap:square"
       id="rect2969"
       width="72.467804"
       height="147.4678"
       x="21.056419"
       y="33.475769" /></g><g
     inkscape:groupmode="layer"
     id="layer3"
     inkscape:label="Layer 2"
     style="display:inline"
     transform="translate(-3.9770164,-0.75272654)" /><g
     id="g1076"
     transform="translate(-52.827146,26.31013)"
     style="stroke-width:5;stroke-dasharray:none"><g
       id="g447"
       transform="translate(44.357518,-21.050954)"
       style="display:inline;stroke-width:5;stroke-dasharray:none"><path
         id="rect377"
         style="fill:#ffcc00;fill-opacity:1;stroke:#000000;stroke-width:5;stroke-linecap:square;stroke-dasharray:none"
         d="M 41.324987 5.2497433 A 11.639525 18.833149 0 0 0 35.826098 7.7658688 A 11.639525 18.833149 0 0 0 30.028519 22.943237 L 19.211608 22.943237 L 19.211608 25.208215 L 30.610395 25.208215 A 12.281818 12.281818 0 0 0 29.36396 30.593933 A 12.281818 12.281818 0 0 0 35.877774 41.42738 L 35.877774 45.008557 L 35.126399 45.008557 C 35.126957 45.062315 35.126113 45.116024 35.126399 45.169787 L 30.692044 45.169787 C 30.555934 45.169787 30.421322 45.180233 30.288451 45.198209 A 4.571883 4.571883 0 0 0 27.266413 46.024515 C 24.169621 48.240726 21.411444 50.912547 19.098437 53.937727 C 11.869188 63.392852 9.4552475 76.013311 12.563435 87.451961 A 5.1095204 5.1095204 0 0 0 12.491605 88.291186 A 5.1095204 5.1095204 0 0 0 17.600854 93.400435 A 5.1095204 5.1095204 0 0 0 22.710619 88.291186 A 5.1095204 5.1095204 0 0 0 21.322073 84.790108 C 19.129506 76.275036 21.008519 66.538984 26.314017 59.555472 L 26.314017 63.03588 L 26.314017 85.108435 L 26.314017 85.497558 L 26.314017 95.559993 L 26.314017 130.01319 C 26.314017 131.35794 27.235778 132.47388 28.470991 132.73964 L 28.470991 134.84648 L 21.472969 134.84648 C 19.876517 134.84648 18.591491 136.08939 18.591491 137.63339 L 18.591491 139.45344 C 18.591491 140.99744 19.876517 142.24086 21.472969 142.24086 L 35.469014 142.24086 C 37.065465 142.24086 38.350491 140.99744 38.350491 139.45344 L 38.350491 137.63339 C 38.350491 136.58303 37.755486 135.67256 36.872545 135.19737 L 36.872545 132.73964 C 38.107544 132.47371 39.02952 131.35778 39.02952 130.01319 L 39.02952 98.001188 A 3.3899593 3.8256393 0 0 1 40.309028 96.518591 A 3.3899593 3.8256393 0 0 1 43.699002 96.518591 A 3.3899593 3.8256393 0 0 1 44.979027 97.99757 L 44.979027 130.01319 C 44.979027 131.30459 45.829369 132.3849 46.990791 132.70398 L 46.990791 135.19737 C 46.107851 135.67256 45.512328 136.58303 45.512328 137.63339 L 45.512328 139.45344 C 45.512328 140.99744 46.797871 142.24086 48.394323 142.24086 L 62.390368 142.24086 C 63.98682 142.24086 65.271846 140.99744 65.271846 139.45344 L 65.271846 137.63339 C 65.271846 136.08939 63.98682 134.84648 62.390368 134.84648 L 55.392345 134.84648 L 55.392345 132.76702 C 56.699706 132.56043 57.69453 131.41005 57.69453 130.01319 L 57.69453 87.366178 L 57.69453 84.579268 L 57.69453 71.953682 C 59.524663 75.074629 62.140532 77.58711 65.818065 79.507743 A 5.1095204 5.1095204 0 0 0 68.878344 81.350008 L 68.878344 140.07769 C 68.878344 140.67675 69.360353 141.15876 69.959415 141.15876 L 71.330391 141.15876 C 71.929453 141.15876 72.411461 140.67675 72.411461 140.07769 L 72.411461 80.733508 A 5.1095204 5.1095204 0 0 0 74.929654 76.331709 A 5.1095204 5.1095204 0 0 0 72.411461 71.928877 L 72.411461 50.602014 L 72.541169 50.602014 L 72.541169 48.339103 L 79.868887 48.339103 C 79.883776 48.339103 79.898119 48.337981 79.912812 48.337553 C 79.920458 48.337798 79.927849 48.339103 79.93555 48.339103 C 79.989077 48.339103 80.041205 48.332886 80.091613 48.321533 C 80.447724 48.266515 80.708629 48.083497 80.708629 47.864196 C 80.708629 47.818451 80.696715 47.774221 80.675557 47.732421 C 80.696991 47.653778 80.708629 47.570435 80.708629 47.483858 L 80.708629 28.853987 C 80.708629 28.380267 80.363766 27.999259 79.93555 27.999259 C 79.507334 27.999259 79.162471 28.380267 79.162471 28.853987 L 79.162471 47.38929 L 74.514692 47.38929 L 74.514692 28.853987 C 74.514692 28.380267 74.169828 27.999259 73.741613 27.999259 C 73.313397 27.999259 72.96905 28.380267 72.96905 28.853987 L 72.96905 47.38929 L 68.320755 47.38929 L 68.320755 28.853987 C 68.320755 28.380267 67.976408 27.999259 67.548192 27.999259 C 67.119977 27.999259 66.775113 28.380267 66.775113 28.853987 L 66.775113 47.38929 L 62.127335 47.38929 L 62.127335 28.853987 C 62.127335 28.380267 61.782471 27.999259 61.354255 27.999259 C 60.92604 27.999259 60.581176 28.380267 60.581176 28.853987 L 60.581176 47.483858 C 60.581176 47.957578 60.92604 48.339103 61.354255 48.339103 C 61.384979 48.339103 61.414921 48.336205 61.444689 48.332385 C 61.487617 48.336182 61.531594 48.339103 61.576464 48.339103 L 68.748636 48.339103 L 68.748636 50.602014 L 68.878344 50.602014 L 68.878344 70.897933 C 66.903081 69.863123 66.368695 68.976147 65.201566 66.622225 C 63.626694 63.445945 61.678063 57.487813 56.996899 47.759293 A 4.571883 4.571883 0 0 0 55.29261 45.869486 C 54.699456 45.422644 54.028632 45.169787 53.316503 45.169787 L 48.881632 45.169787 C 48.881918 45.116024 48.880556 45.062315 48.881115 45.008557 L 47.414021 45.008557 L 47.414021 41.42738 A 12.281818 12.281818 0 0 0 53.927835 30.593933 A 12.281818 12.281818 0 0 0 52.68295 25.208215 L 64.080187 25.208215 L 64.080187 22.943237 L 53.26431 22.943237 A 11.639525 18.833149 0 0 0 47.465697 7.7658688 A 11.639525 18.833149 0 0 0 41.324987 5.2497433 z " /></g><g
       id="g553"
       transform="translate(44.357518,-21.050954)"
       style="display:inline;stroke-width:5;stroke-dasharray:none"><g
         id="g487"
         inkscape:label="head"
         transform="matrix(1.1571985,0,0,1.1571985,-3.0625947,-18.444005)"
         style="stroke-width:4.32077988;stroke-dasharray:none"><rect
           style="opacity:1;fill:#ffcc00;fill-opacity:1;stroke:none;stroke-width:4.32077988;stroke-linecap:square;stroke-dasharray:none"
           id="rect483"
           width="9.9690962"
           height="9.1902609"
           x="33.650558"
           y="50.377213" /><circle
           style="opacity:1;fill:#ffcc00;fill-opacity:1;stroke:none;stroke-width:4.32077988;stroke-linecap:square;stroke-dasharray:none"
           id="circle485"
           cx="38.635105"
           cy="42.37645"
           r="10.613407" /></g><g
         id="g493"
         inkscape:label="leftArm"
         style="display:inline;stroke-width:4.32077988;stroke-dasharray:none"
         transform="matrix(1.1571985,0,0,1.1571985,-3.0625947,-18.626936)"><path
           style="color:#000000;fill:#ff0000;stroke-linecap:round;stroke-linejoin:round;stroke-width:4.32077988;stroke-dasharray:none"
           d="m 29.154297,55.183594 a 3.95082,3.95082 0 0 0 -2.945313,0.685547 c -2.676115,1.915154 -5.059792,4.223659 -7.058593,6.83789 -6.673293,8.727992 -8.59884,20.577264 -5.03125,30.96875 a 3.95082,3.95082 0 0 0 5.019531,2.455078 3.95082,3.95082 0 0 0 2.455078,-5.019531 c -2.665034,-7.762568 -1.151047,-17.085552 3.833984,-23.605469 1.520405,-1.988536 3.343296,-3.754158 5.378907,-5.210937 a 3.95082,3.95082 0 0 0 0.914062,-5.513672 3.95082,3.95082 0 0 0 -2.566406,-1.597656 z"
           id="path489" /><circle
           style="display:inline;fill:#ffcc00;fill-opacity:1;stroke:none;stroke-width:4.32077988;stroke-linecap:square;stroke-linejoin:round;stroke-dasharray:none;stroke-opacity:1"
           id="circle491"
           cx="17.856539"
           cy="92.393829"
           r="4.4154224" /></g><g
         id="g501"
         inkscape:label="rightArm"
         style="display:inline;stroke-width:4.32077988;stroke-dasharray:none"
         transform="matrix(1.1571985,0,0,1.1571985,9.3212993,-18.870209)"><path
           style="display:none;fill:none;stroke:#ff0000;stroke-width:4.32077988;stroke-linecap:round;stroke-linejoin:round;stroke-dasharray:none;stroke-opacity:1"
           d="m 37.638536,59.29147 c 7.909778,16.438308 6.170487,19.482501 14.641693,22.978013"
           id="path495"
           sodipodi:nodetypes="cc" /><path
           style="color:#000000;fill:#ff0000;stroke-linecap:round;stroke-linejoin:round;stroke-width:4.32077988;stroke-dasharray:none"
           d="m 38.945312,55.5625 a 3.95082,3.95082 0 0 0 -3.019531,0.167969 3.95082,3.95082 0 0 0 -1.847656,5.273437 c 3.864509,8.031325 5.266199,12.624026 7.130859,16.384766 1.864661,3.76074 4.866901,6.594831 9.564453,8.533203 a 3.95082,3.95082 0 0 0 5.158204,-2.144531 3.95082,3.95082 0 0 0 -2.144532,-5.160157 C 50.013464,77.060051 49.649999,76.623711 48.289062,73.878906 46.928126,71.134102 45.244479,65.985092 41.199219,57.578125 A 3.95082,3.95082 0 0 0 38.945312,55.5625 Z"
           id="path497" /><circle
           style="opacity:1;fill:#ffcc00;fill-opacity:1;stroke:none;stroke-width:4.32077988;stroke-linecap:square;stroke-linejoin:round;stroke-dasharray:none;stroke-opacity:1"
           id="circle499"
           cx="52.280228"
           cy="82.269485"
           r="4.4154224" /></g><g
         id="g507"
         inkscape:label="torso"
         transform="matrix(1.1571985,0,0,1.1571985,-3.0625947,-18.444005)"
         style="stroke-width:4.32077988;stroke-dasharray:none"><path
           id="path503"
           style="opacity:1;fill:#ff0000;stroke-width:4.32077988;stroke-linecap:square;stroke-dasharray:none"
           d="m 29.16915,54.972347 h 19.551222 c 2.095959,0 3.783321,2.520007 3.783321,5.650239 v 29.198973 c 0,3.130232 -1.687362,5.650239 -3.783321,5.650239 H 29.16915 c -2.095959,0 -3.783321,-2.520007 -3.783321,-5.650239 V 60.622586 c 0,-3.130232 1.687362,-5.650239 3.783321,-5.650239 z"
           sodipodi:nodetypes="sssssssss" /><path
           id="path505"
           style="display:inline;fill:#0000ff;fill-opacity:1;stroke:none;stroke-width:4.32077988;stroke-linecap:square;stroke-dasharray:none"
           d="m 33.001406,54.832945 c 0.03667,3.533026 -0.606331,7.081957 -1.79484,9.84893 -1.25603,2.924203 -3.108997,4.948554 -5.098983,5.570625 -0.238665,0.0746 -0.479814,0.129139 -0.721689,0.158705 V 89.485274 H 52.503628 V 70.411205 c -0.242035,-0.02955 -0.483336,-0.08404 -0.722128,-0.158705 -1.989986,-0.622067 -3.842505,-2.646429 -5.098544,-5.570625 -1.1885,-2.766969 -1.831989,-6.315915 -1.79528,-9.84893 H 42.74662 v 5.748323 c 0,3.744715 -1.69562,6.759385 -3.801859,6.759385 -2.106239,0 -3.801868,-3.01467 -3.801868,-6.759385 v -5.748323 z" /></g><g
         id="g517"
         style="display:inline;stroke-width:4.92138482;stroke-dasharray:none"
         transform="matrix(-1.0159742,0,0,1.0159742,80.814617,2.1548629)"
         inkscape:label="shoes"><rect
           style="display:inline;opacity:1;fill:#803300;fill-opacity:1;stroke:none;stroke-width:4.92138482;stroke-linecap:square;stroke-linejoin:round;stroke-dasharray:none;stroke-opacity:1"
           id="rect509"
           width="8.2692204"
           height="13.765817"
           x="65.856903"
           y="120.24144"
           transform="translate(-40.834227,1.4669458)" /><rect
           style="display:inline;opacity:1;fill:#803300;fill-opacity:1;stroke:none;stroke-width:4.92138482;stroke-linecap:square;stroke-linejoin:round;stroke-dasharray:none;stroke-opacity:1"
           id="rect511"
           width="19.448647"
           height="7.277873"
           x="56.132584"
           y="129.13843"
           rx="2.836376"
           ry="2.7431908"
           transform="translate(-40.834227,1.4669458)" /><rect
           style="display:inline;opacity:1;fill:#803300;fill-opacity:1;stroke:none;stroke-width:4.92138482;stroke-linecap:square;stroke-linejoin:round;stroke-dasharray:none;stroke-opacity:1"
           id="rect513"
           width="8.2692204"
           height="13.765817"
           x="-51.520599"
           y="121.70839"
           transform="scale(-1,1)" /><rect
           style="display:inline;opacity:1;fill:#803300;fill-opacity:1;stroke:none;stroke-width:4.92138482;stroke-linecap:square;stroke-linejoin:round;stroke-dasharray:none;stroke-opacity:1"
           id="rect515"
           width="19.448647"
           height="7.277873"
           x="-61.244919"
           y="130.60538"
           rx="2.836376"
           ry="2.7431908"
           transform="scale(-1,1)" /></g><g
         id="g527"
         transform="matrix(0.99329015,0,0,1.0159742,-36.931882,3.645242)"
         inkscape:label="pants"
         style="stroke-width:4.97726312;stroke-dasharray:none"><rect
           style="opacity:1;fill:#0000ff;fill-opacity:1;stroke:none;stroke-width:4.97726312;stroke-linecap:square;stroke-linejoin:round;stroke-dasharray:none;stroke-opacity:1"
           id="rect519"
           width="31.592743"
           height="10.8081"
           x="63.672962"
           y="79.661285" /><rect
           style="opacity:1;fill:#0000ff;fill-opacity:1;stroke:none;stroke-width:4.97726312;stroke-linecap:square;stroke-dasharray:none"
           id="rect521"
           width="12.801557"
           height="47.463066"
           x="63.672962"
           y="79.661285"
           rx="2.7431908"
           ry="2.7431908" /><rect
           style="opacity:1;fill:#0000ff;fill-opacity:1;stroke:none;stroke-width:4.97726312;stroke-linecap:square;stroke-dasharray:none"
           id="rect523"
           width="12.801557"
           height="47.463066"
           x="82.464142"
           y="79.661285"
           rx="2.7431908"
           ry="2.7431908" /><path
           id="path525"
           style="display:inline;opacity:1;fill:#0000ff;fill-opacity:1;stroke:none;stroke-width:4.97726312;stroke-linecap:square;stroke-linejoin:round;stroke-dasharray:none;stroke-opacity:1"
           d="m 73.636923,88.154733 v 6.519519 h 2.419661 a 3.4128591,3.7654886 0 0 1 1.706271,-3.261389 3.4128591,3.7654886 0 0 1 3.412953,0 3.4128591,3.7654886 0 0 1 1.706271,3.261389 h 2.419661 v -6.519519 z" /></g><g
         id="g533"
         transform="matrix(1.1571985,0,0,1.1571985,67.895938,-0.79698284)"
         inkscape:label="hat"
         style="stroke-width:4.32077988;stroke-dasharray:none"><rect
           style="opacity:1;fill:#aa4400;fill-opacity:1;stroke:none;stroke-width:4.32077988;stroke-linecap:square;stroke-linejoin:round;stroke-dasharray:none;stroke-opacity:1"
           id="rect529"
           width="38.773376"
           height="1.9571744"
           x="-42.070827"
           y="20.515234" /><path
           style="opacity:1;fill:#aa4400;fill-opacity:1;stroke:none;stroke-width:4.32077988;stroke-linecap:square;stroke-linejoin:round;stroke-dasharray:none;stroke-opacity:1"
           id="path531"
           sodipodi:type="arc"
           sodipodi:cx="-22.684137"
           sodipodi:cy="-21.493822"
           sodipodi:rx="10.058366"
           sodipodi:ry="16.274778"
           sodipodi:start="0"
           sodipodi:end="3.1415927"
           sodipodi:arc-type="slice"
           d="m -12.625772,-21.493822 a 10.058366,16.274778 0 0 1 -5.029183,14.0943715 10.058366,16.274778 0 0 1 -10.058366,-3e-7 10.058366,16.274778 0 0 1 -5.029182,-14.0943712 h 10.058366 z"
           transform="scale(1,-1)" /></g><g
         id="g551"
         transform="translate(-16.010455,17.886202)"
         inkscape:label="pitchfork"
         style="display:inline;stroke-width:5;stroke-dasharray:none"><rect
           style="fill:#803300;stroke-width:5;stroke-linecap:square;stroke-linejoin:round;stroke-dasharray:none"
           id="rect535"
           width="3.5335002"
           height="92.112419"
           x="84.888611"
           y="31.160372"
           ry="1.0813404" /><g
           id="g549"
           transform="matrix(1.7603505,0,0,1.0813405,-151.319,1.2416645)"
           style="stroke-width:3.6240084;stroke-dasharray:none"><rect
             style="fill:#808080;stroke-width:3.6240084;stroke-linecap:square;stroke-linejoin:round;stroke-dasharray:none"
             id="rect537"
             width="0.87818098"
             height="18.809877"
             x="129.59442"
             y="6.3981757"
             ry="0.79076988"
             class="UnoptimicedTransforms"
             transform="translate(-0.12545443,1.8057593)" /><rect
             style="display:inline;fill:#808080;stroke-width:3.6240084;stroke-linecap:square;stroke-linejoin:round;stroke-dasharray:none"
             id="rect539"
             width="0.87818098"
             height="18.809877"
             x="129.59442"
             y="6.3981757"
             ry="0.79076988"
             class="UnoptimicedTransforms"
             transform="translate(3.3930204,1.8057561)" /><rect
             style="display:inline;fill:#808080;stroke-width:3.6240084;stroke-linecap:square;stroke-linejoin:round;stroke-dasharray:none"
             id="rect541"
             width="0.87818098"
             height="18.809877"
             x="129.59442"
             y="6.3981757"
             ry="0.79076988"
             class="UnoptimicedTransforms"
             transform="translate(6.9114952,1.8057561)" /><rect
             style="display:inline;fill:#808080;stroke-width:3.6240084;stroke-linecap:square;stroke-linejoin:round;stroke-dasharray:none"
             id="rect543"
             width="0.87818098"
             height="18.809877"
             x="129.59442"
             y="6.3981757"
             ry="0.79076988"
             class="UnoptimicedTransforms"
             transform="translate(10.42997,1.8057516)" /><rect
             style="display:inline;fill:#808080;stroke-width:4.66630839;stroke-linecap:square;stroke-linejoin:round;stroke-dasharray:none"
             id="rect545"
             width="0.87818098"
             height="18.809877"
             x="129.59442"
             y="6.3981757"
             ry="0.79076988"
             class="UnoptimicedTransforms"
             transform="matrix(0,1,-0.60315859,0,144.76168,-103.45879)" /><rect
             style="fill:#808080;stroke-width:3.6240084;stroke-linecap:square;stroke-linejoin:round;stroke-dasharray:none"
             id="rect547"
             width="2.154202"
             height="2.8768938"
             x="134.10867"
             y="26.229719"
             ry="2.3841858e-07" /></g></g></g></g></svg>
