<?xml version="1.0" encoding="UTF-8" standalone="no"?>
<!-- Created with Inkscape (http://www.inkscape.org/) -->

<svg
   width="75.000008mm"
   height="150mm"
   viewBox="0 0 75.000005 150"
   version="1.1"
   id="svg5"
   xml:space="preserve"
   inkscape:version="1.3 (0e150ed6c4, 2023-07-21)"
   sodipodi:docname="Fisher.svg"
   xmlns:inkscape="http://www.inkscape.org/namespaces/inkscape"
   xmlns:sodipodi="http://sodipodi.sourceforge.net/DTD/sodipodi-0.dtd"
   xmlns="http://www.w3.org/2000/svg"
   xmlns:svg="http://www.w3.org/2000/svg"><sodipodi:namedview
     id="namedview7"
     pagecolor="#ffffff"
     bordercolor="#666666"
     borderopacity="1.0"
     inkscape:showpageshadow="2"
     inkscape:pageopacity="0.0"
     inkscape:pagecheckerboard="0"
     inkscape:deskcolor="#d1d1d1"
     inkscape:document-units="mm"
     showgrid="false"
     inkscape:zoom="0.74564396"
     inkscape:cx="39.563118"
     inkscape:cy="301.08203"
     inkscape:window-width="1920"
     inkscape:window-height="1017"
     inkscape:window-x="-8"
     inkscape:window-y="-8"
     inkscape:window-maximized="1"
     inkscape:current-layer="layer1" /><defs
     id="defs2"><inkscape:path-effect
       effect="spiro"
       id="path-effect1806"
       is_visible="true"
       lpeversion="1" /><inkscape:path-effect
       effect="spiro"
       id="path-effect8447"
       is_visible="true"
       lpeversion="1" /><inkscape:path-effect
       effect="spiro"
       id="path-effect7278"
       is_visible="true"
       lpeversion="1" /><inkscape:path-effect
       effect="spiro"
       id="path-effect7274"
       is_visible="true"
       lpeversion="1" /><pattern
       id="EMFhbasepattern"
       patternUnits="userSpaceOnUse"
       width="6"
       height="6"
       x="0"
       y="0" /><inkscape:path-effect
       effect="spiro"
       id="path-effect7278-6"
       is_visible="true"
       lpeversion="1" /><inkscape:path-effect
       effect="spiro"
       id="path-effect1806-9"
       is_visible="true"
       lpeversion="1" /></defs><g
     inkscape:groupmode="layer"
     id="g42"
     inkscape:label="shadow"><path
       id="rect1"
       style="fill:#000000;stroke:#000000;stroke-width:5;stroke-linecap:square;stroke-dasharray:none"
       d="m 28.573413,14.662154 c -5.117741,0 -11.476377,2.723339 -9.597347,5.470984 a 27.349064,8.7814717 0 0 1 -0.0041,-0.001 c 0.04453,0.06519 0.09233,0.13016 0.146244,0.195337 l 2.896981,3.501595 0.10542,0.254249 c 0.552501,1.335541 1.080577,2.334462 1.634525,3.086116 l -3.045809,3.279903 a 0.62826281,0.62826281 0 0 0 0.521415,1.052649 c 0,0 1.163298,-0.105726 2.663921,-0.234611 a 12.281818,12.281818 0 0 0 -0.95033,4.67465 12.281818,12.281818 0 0 0 6.152079,10.611239 c -1.403475,0.572489 -2.298051,1.44444 -2.298051,2.425175 0,0.560605 0.293404,1.085386 0.805636,1.539441 h -3.332097 c -0.169585,0 -0.336288,0.01772 -0.500744,0.04547 a 4.571883,4.571883 0 0 0 -2.924886,0.809253 c -3.096793,2.216211 -5.85497,4.887514 -8.167977,7.912695 C 5.4470542,68.742954 3.0338223,81.3677 6.1458413,92.808805 a 5.1095204,5.1095204 0 0 0 -0.074414,0.829924 5.1095204,5.1095204 0 0 0 5.1092488,5.109765 5.1095204,5.1095204 0 0 0 5.109766,-5.109765 5.1095204,5.1095204 0 0 0 -1.379761,-3.477824 c -2.202,-8.520376 -0.326832,-18.266976 4.983158,-25.256856 v 0.84801 h -0.02481 v 0.999939 h 0.02481 v 3.370854 h -0.02481 v 0.999939 h 0.02481 v 3.37137 h -0.02481 V 75.4941 h 0.02481 v 3.372921 h -0.02481 v 0.999939 h 0.02481 v 3.37137 h -0.02481 v 0.999939 h 0.02481 v 3.370854 h -0.02481 v 1.000455 h 0.02481 v 2.235523 10.062949 34.4532 c 0,1.34459 0.922047,2.459 2.156974,2.7249 v 2.10839 h -6.998022 c -1.596451,0 -2.881478,1.24291 -2.881478,2.78691 v 1.82005 c 0,1.54401 1.285027,2.78691 2.881478,2.78691 h 13.996045 c 1.596451,0 2.881995,-1.2429 2.881995,-2.78691 v -1.82005 c 0,-1.05036 -0.595527,-1.96031 -1.478463,-2.43551 v -2.45979 c 1.235028,-0.2659 2.156974,-1.38031 2.156974,-2.7249 v -32.012 a 3.3899593,3.8256393 0 0 1 1.279509,-1.4826 3.3899593,3.8256393 0 0 1 3.389973,0 3.3899593,3.8256393 0 0 1 1.280026,1.47898 v 32.01562 c 0,1.28985 0.852969,2.3584 2.01228,2.6789 v 2.50579 c -0.882961,0.47519 -1.478463,1.38513 -1.478463,2.43551 v 1.82005 c 0,1.54401 1.285027,2.78691 2.881478,2.78691 H 55.97019 c 1.596451,0 2.881478,-1.2429 2.881478,-2.78691 v -1.82005 c 0,-1.544 -1.285027,-2.78691 -2.881478,-2.78691 h -6.998022 v -2.08307 c 1.30701,-0.2069 2.302185,-1.35363 2.302185,-2.75022 v -21.22351 c 1.138397,1.71166 2.818963,3.20908 3.687113,2.01331 0.146309,0.55453 0.296143,1.18785 0.437699,2.03502 0.605895,3.73116 0.435663,8.51112 0.918291,12.78991 -0.356603,0.84519 -0.615595,2.35083 -2.226738,3.47731 -1.42329,0.99512 -0.24908,5.58727 -0.24908,5.22759 0,-0.35969 3.046857,-1.68432 3.665926,-2.16989 0.129297,-0.10142 0.250675,-0.21642 0.364319,-0.3421 0.370301,0.76773 0.814901,1.46509 1.357023,2.06912 0.765553,-0.0851 1.330019,-0.76284 1.752864,-1.80609 0.05542,0.0533 0.112031,0.1042 0.171566,0.1509 0.496879,0.38973 2.942456,1.45332 2.942456,1.74201 0,0.28869 0.942375,-3.39689 -0.199988,-4.19561 -1.443647,-1.00936 -1.534921,-2.39891 -1.89239,-3.0055 0.378145,-4.24204 0.260932,-9.14676 0.58601,-11.01018 0.712595,-2.62242 1.62891,-4.46464 2.027267,-7.35253 1.46574,0.97309 3.184604,1.7922 3.515547,1.59112 0.76391,-0.46415 0.319169,-5.68078 -1.081587,-7.96489 -0.452032,-0.73709 -1.569424,-1.62604 -2.482536,-2.18643 -0.53102,-5.750566 -1.872553,-10.271625 -3.569808,-11.976009 -0.176086,0.647805 -0.189202,0.706559 -0.359668,1.338936 4.7e-5,-0.0051 -4.9e-5,-0.0099 0,-0.01499 0.02621,-2.76533 0.298746,-5.958226 0.903821,-8.122502 a 5.1095204,5.1095204 0 0 0 1.857251,0.363286 5.1095204,5.1095204 0 0 0 3.137276,-1.091407 c 0.0095,0.01724 0.01901,0.03448 0.02842,0.05168 l -0.01447,0.0078 0.142627,0.264067 2.636531,-1.431954 -0.01189,-0.02222 0.01602,-0.0088 c -0.273196,-0.505074 -0.590875,-1.097806 -0.975651,-1.698604 a 5.1095204,5.1095204 0 0 0 0.150895,-1.18029 5.1095204,5.1095204 0 0 0 -5.109765,-5.109249 5.1095204,5.1095204 0 0 0 -0.231511,0.01654 c -2.546361,-1.198623 -3.096398,-2.014203 -4.386812,-4.616772 -1.574871,-3.17628 -3.523503,-9.134929 -8.204667,-18.863448 a 4.571883,4.571883 0 0 0 -1.666565,-1.856734 c -0.602608,-0.465315 -1.286133,-0.732255 -2.013831,-0.732255 h -4.048848 c 0.512347,-0.454093 0.805635,-0.978768 0.805635,-1.539441 0,-0.980831 -0.894338,-1.852689 -2.298051,-2.425175 a 12.281818,12.281818 0 0 0 6.152596,-10.611239 12.281818,12.281818 0 0 0 -0.90227,-4.615222 c 1.109874,0.09966 1.906344,0.175183 1.906344,0.175183 a 0.62826281,0.62826281 0 0 0 0.521415,-1.052649 l -2.66237,-2.867008 c 0.676118,-0.785241 1.301195,-1.903814 1.961121,-3.499011 l 0.10542,-0.254249 2.896464,-3.501595 c 0.05388,-0.06514 0.10168,-0.13019 0.146244,-0.195337 a 27.349064,8.7814717 0 0 1 -0.0047,0.001 c 1.879184,-2.747667 -4.479577,-5.470984 -9.597347,-5.470984 z m 22.70094,62.630803 c 1.758012,3.000217 4.24043,5.44041 7.69462,7.331335 -0.970187,2.551362 -1.240454,5.796865 -1.310514,8.772591 l -0.0041,0.165365 h 0.0016 c -0.0068,0.321406 -0.01408,0.643774 -0.01705,0.957047 -3.43e-4,0.03623 2.83e-4,0.06984 0,0.105937 l -0.237195,-0.675928 c -1.152697,1.686632 -2.093386,4.7288 -2.656685,8.533846 -0.857689,0.9721 -2.399845,3.45916 -3.470589,5.6286 v -15.397513 -2.78691 z" /></g><g
     inkscape:groupmode="layer"
     id="layer1"
     inkscape:label="real"><g
       id="g5059"
       transform="translate(-49.190049,26.39884)"><g
         id="g5043"
         transform="translate(42.770017,-21.050954)"
         style="display:inline"><g
           id="g5001"
           inkscape:label="head"
           transform="matrix(1.1571985,0,0,1.1571985,-3.0625947,-18.444005)"><rect
             style="opacity:1;fill:#ffcc00;fill-opacity:1;stroke:none;stroke-width:2.63388;stroke-linecap:square"
             id="rect4997"
             width="9.9690962"
             height="9.1902609"
             x="33.650558"
             y="50.377213" /><circle
             style="opacity:1;fill:#ffcc00;fill-opacity:1;stroke:none;stroke-width:3.14848;stroke-linecap:square"
             id="circle4999"
             cx="38.635105"
             cy="42.37645"
             r="10.613407" /></g><g
           id="g5011"
           style="display:inline"
           transform="matrix(-1.0159742,0,0,1.0159742,80.814617,2.1548629)"
           inkscape:label="shoes"><rect
             style="display:inline;opacity:1;fill:#803300;fill-opacity:1;stroke:none;stroke-width:7.17952;stroke-linecap:square;stroke-linejoin:round;stroke-dasharray:none;stroke-opacity:1"
             id="rect5003"
             width="8.2692204"
             height="13.765817"
             x="65.856903"
             y="120.24144"
             transform="translate(-40.834227,1.4669458)" /><rect
             style="display:inline;opacity:1;fill:#803300;fill-opacity:1;stroke:none;stroke-width:10.2762;stroke-linecap:square;stroke-linejoin:round;stroke-dasharray:none;stroke-opacity:1"
             id="rect5005"
             width="19.448647"
             height="7.277873"
             x="56.132584"
             y="129.13843"
             rx="2.836376"
             ry="2.7431908"
             transform="translate(-40.834227,1.4669458)" /><rect
             style="display:inline;opacity:1;fill:#803300;fill-opacity:1;stroke:none;stroke-width:7.17952;stroke-linecap:square;stroke-linejoin:round;stroke-dasharray:none;stroke-opacity:1"
             id="rect5007"
             width="8.2692204"
             height="13.765817"
             x="-51.520599"
             y="121.70839"
             transform="scale(-1,1)" /><rect
             style="display:inline;opacity:1;fill:#803300;fill-opacity:1;stroke:none;stroke-width:10.2762;stroke-linecap:square;stroke-linejoin:round;stroke-dasharray:none;stroke-opacity:1"
             id="rect5009"
             width="19.448647"
             height="7.277873"
             x="-61.244919"
             y="130.60538"
             rx="2.836376"
             ry="2.7431908"
             transform="scale(-1,1)" /></g><g
           id="g5025"
           inkscape:label="leftArm"
           style="display:inline"
           transform="matrix(1.1571985,0,0,1.1571985,-3.0625947,-18.626936)"><path
             style="color:#000000;fill:#a59e82;fill-opacity:1;stroke-linecap:round;stroke-linejoin:round;-inkscape-stroke:none"
             d="m 29.154297,55.183594 a 3.95082,3.95082 0 0 0 -2.945313,0.685547 c -2.676115,1.915154 -5.059792,4.223659 -7.058593,6.83789 -6.673293,8.727992 -8.59884,20.577264 -5.03125,30.96875 a 3.95082,3.95082 0 0 0 5.019531,2.455078 3.95082,3.95082 0 0 0 2.455078,-5.019531 c -2.665034,-7.762568 -1.151047,-17.085552 3.833984,-23.605469 1.520405,-1.988536 3.343296,-3.754158 5.378907,-5.210937 a 3.95082,3.95082 0 0 0 0.914062,-5.513672 3.95082,3.95082 0 0 0 -2.566406,-1.597656 z"
             id="path5021" /><circle
             style="display:inline;fill:#ffcc00;fill-opacity:1;stroke:none;stroke-width:8.83079;stroke-linecap:square;stroke-linejoin:round;stroke-dasharray:none;stroke-opacity:1"
             id="circle5023"
             cx="17.856539"
             cy="92.393829"
             r="4.4154224" /></g><g
           id="g5033"
           inkscape:label="rightArm"
           style="display:inline"
           transform="matrix(1.1571985,0,0,1.1571985,9.3212993,-18.870209)"><path
             style="color:#000000;fill:#a59e82;fill-opacity:1;stroke-linecap:round;stroke-linejoin:round"
             d="m 38.945312,55.5625 a 3.95082,3.95082 0 0 0 -3.019531,0.167969 3.95082,3.95082 0 0 0 -1.847656,5.273437 c 3.864509,8.031325 5.266199,12.624026 7.130859,16.384766 1.864661,3.76074 4.866901,6.594831 9.564453,8.533203 a 3.95082,3.95082 0 0 0 5.158204,-2.144531 3.95082,3.95082 0 0 0 -2.144532,-5.160157 C 50.013464,77.060051 49.649999,76.623711 48.289062,73.878906 46.928126,71.134102 45.244479,65.985092 41.199219,57.578125 A 3.95082,3.95082 0 0 0 38.945312,55.5625 Z"
             id="path5029" /><circle
             style="opacity:1;fill:#ffcc00;fill-opacity:1;stroke:none;stroke-width:8.83079;stroke-linecap:square;stroke-linejoin:round;stroke-dasharray:none;stroke-opacity:1"
             id="circle5031"
             cx="52.280228"
             cy="82.269485"
             r="4.4154224" /></g><g
           id="g5015"
           inkscape:label="torso"
           transform="matrix(1.1571985,0,0,1.1571985,-3.0625947,-18.444005)"><path
             id="path5013-6"
             style="display:inline;fill:#a59e82;fill-opacity:1;stroke-width:2.77409;stroke-linecap:square"
             d="m 29.16915,54.972349 h 19.551222 c 2.095959,0 3.783321,2.520007 3.783321,5.650239 v 29.198973 c 0,3.130235 -1.687362,5.650235 -3.783321,5.650235 H 29.16915 c -2.095959,0 -3.783321,-2.52 -3.783321,-5.650235 V 60.622588 c 0,-3.130232 1.687362,-5.650239 3.783321,-5.650239 z"
             sodipodi:nodetypes="sssssssss" /><path
             id="rect12723"
             style="fill:#a59e82;stroke-width:4.65268;stroke-miterlimit:0;stop-color:#000000"
             d="m 36.753478,50.939732 h 3.763259 c 2.99214,0 5.400975,1.205194 5.400975,2.702229 0,1.497036 -2.408835,2.70223 -5.400975,2.70223 h -3.763259 c -2.99214,0 -5.400975,-1.205194 -5.400975,-2.70223 0,-1.497035 2.408835,-2.702229 5.400975,-2.702229 z" /><path
             id="path13216"
             style="fill:none;stroke:#77725d;stroke-width:1;stroke-linecap:butt;stroke-linejoin:miter;stroke-dasharray:none;stroke-opacity:1"
             d="m 70.124054,26.738485 h 27.381817 z m -1.064516,4.371309 h 31.373752 z m 0,4.37131 h 31.373752 z m 0,4.371826 h 31.373752 z m 0,4.371309 h 31.373752 z m 0,4.371827 h 31.373752 z m 0,4.371309 h 31.373752 z m 0,4.371309 h 31.373752 z m 0,4.371827 h 31.295352 z"
             transform="matrix(0.86415599,0,0,0.86415599,-34.313406,34.129805)"
             sodipodi:nodetypes="ccccccccccccccccccccccccccc" /></g><g
           id="g5019"
           transform="matrix(0.99329015,0,0,1.0159742,-36.931882,3.645242)"
           inkscape:label="pants"
           style="fill:#424280;fill-opacity:1;stroke-width:1.00043;stroke-dasharray:none"><path
             id="path5017"
             style="opacity:1;fill:#424280;fill-opacity:1;stroke-linecap:square;stroke-linejoin:round"
             d="m 63.673136,79.661497 v 10.808075 33.911488 c 0,1.51973 1.223059,2.74309 2.742785,2.74309 h 7.315308 c 1.519726,0 2.743305,-1.22336 2.743305,-2.74309 V 92.872384 a 3.4128591,3.7654886 0 0 1 1.288152,-1.459286 3.4128591,3.7654886 0 0 1 3.412874,0 3.4128591,3.7654886 0 0 1 1.288672,1.455725 v 31.512237 c 0,1.51973 1.223579,2.74309 2.743305,2.74309 h 7.314788 c 1.519725,0 2.743305,-1.22336 2.743305,-2.74309 V 82.404589 79.661497 Z" /></g></g><g
         id="g5057"
         inkscape:label="rope"
         transform="matrix(-1,0,0,1,235.76926,0)"><path
           style="fill:none;stroke:#ffe680;stroke-width:3;stroke-linecap:butt;stroke-linejoin:miter;stroke-dasharray:none;stroke-opacity:1"
           d="m 118.56526,58.873423 c 0.91102,-1.684253 2.19413,-4.025668 4.10895,-4.014541 1.54493,0.009 2.63104,1.874069 3.27734,3.277343 2.27827,4.946677 1.27007,16.288898 1.27007,16.288898"
           id="path5049"
           sodipodi:nodetypes="caac" /><path
           style="fill:none;stroke:#d45500;stroke-width:3;stroke-linecap:butt;stroke-linejoin:miter;stroke-dasharray:0.3, 3;stroke-dashoffset:0;stroke-opacity:1"
           d="m 118.56671,58.906094 c 0.91102,-1.684253 2.19413,-4.025668 4.10895,-4.014541 1.54493,0.009 2.63104,1.874069 3.27734,3.277343 2.27827,4.946677 1.27007,16.288898 1.27007,16.288898"
           id="path5051"
           sodipodi:nodetypes="caac" /><g
           id="g14748"
           transform="translate(88.539282,-3.4957883)"
           inkscape:label="fish"><path
             id="path13657"
             style="fill:#3434c6;fill-opacity:1;stroke:#77725d;stroke-width:0;stroke-linecap:round;stroke-linejoin:round;stroke-miterlimit:0;stop-color:#000000"
             d="m 37.0414,70.321871 c -2.20746,2.216732 -3.818885,9.189031 -3.818889,17.448548 5.74e-4,4.899932 1.2912,6.993516 2.227771,10.440189 0.60969,3.494872 -0.353621,17.711562 3.360519,18.124472 4.116935,-4.58708 2.759005,-14.45825 3.82974,-21.051942 0.541948,-3.24336 1.226844,-3.43668 1.226798,-7.512719 -3e-6,-7.503977 -1.330524,-13.945806 -3.22926,-16.724044 l -1.927014,5.490104 c 0,0 -0.852359,-3.207815 -1.669665,-6.214608 z" /><path
             style="fill:#000080;stroke:none;stroke-width:0.207388px;stroke-linecap:butt;stroke-linejoin:miter;stroke-opacity:1"
             d="m 34.824241,81.828888 c -0.05582,-0.488495 -3.022235,1.329623 -3.835068,2.655048 -1.400758,2.284109 -1.845596,7.500992 -1.081686,7.96514 0.588806,0.357756 5.572826,-2.513326 5.703435,-3.736733 0.245157,-2.296372 -0.786681,-6.883455 -0.786681,-6.883455 z"
             id="path13756"
             sodipodi:nodetypes="sssss" /><path
             style="fill:#000080;fill-opacity:1;stroke:none;stroke-width:0.152212px;stroke-linecap:butt;stroke-linejoin:miter;stroke-opacity:1"
             d="m 36.814356,108.97824 c -1.322373,-0.46441 -0.584303,1.78924 -2.670402,3.24779 -1.142364,0.79872 -0.199895,4.48439 -0.199895,4.1957 0,-0.28869 2.445592,-1.35209 2.942471,-1.74182 1.614101,-1.266 1.721153,-5.07185 -0.07218,-5.70167 z"
             id="path13789"
             sodipodi:nodetypes="ssssss" /><path
             style="fill:#000080;fill-opacity:1;stroke:none;stroke-width:0.189644px;stroke-linecap:butt;stroke-linejoin:miter;stroke-opacity:1"
             d="m 40.622201,107.50394 c 1.647567,-0.57863 0.727994,2.22924 3.3271,4.04648 1.423292,0.99512 0.249054,5.58717 0.249054,5.22749 0,-0.35969 -3.047007,-1.6846 -3.666077,-2.17017 -2.011037,-1.57733 -2.144415,-6.31911 0.08993,-7.1038 z"
             id="path13789-4"
             sodipodi:nodetypes="ssssss" /><path
             style="fill:#000080;fill-opacity:1;stroke:none;stroke-width:0.25915px;stroke-linecap:butt;stroke-linejoin:miter;stroke-opacity:1"
             d="m 42.665496,79.27275 c 0.205132,-1.201135 5.378919,7.304295 5.267333,9.270468 -0.111317,1.961429 -4.166295,7.536246 -5.187525,3.973054 -1.005676,-3.508922 -0.922383,-8.309901 -0.07981,-13.243522 z"
             id="path14000"
             sodipodi:nodetypes="ssss" /><path
             style="fill:#2b2ba3;fill-opacity:1;stroke:none;stroke-width:0.264583px;stroke-linecap:butt;stroke-linejoin:miter;stroke-opacity:1"
             d="m 36.640913,80.174693 c -0.190136,0.894664 1.371967,2.376316 1.371967,2.376316 0,0 0.841195,-1.569692 0.630896,-2.354538 -0.104379,-0.389546 -0.453457,-0.823873 -0.855502,-0.855501 -0.471305,-0.03708 -1.049084,0.371289 -1.147361,0.833723 z"
             id="path14209"
             sodipodi:nodetypes="scsss" /><path
             style="fill:#2b2ba3;fill-opacity:1;stroke:none;stroke-width:0.264583px;stroke-linecap:butt;stroke-linejoin:miter;stroke-opacity:1"
             d="m 36.634266,89.566379 c -0.190136,0.894664 1.371967,2.376316 1.371967,2.376316 0,0 0.841195,-1.569692 0.630896,-2.354538 -0.104379,-0.389546 -0.453457,-0.823873 -0.855502,-0.855501 -0.471305,-0.03708 -1.049084,0.371289 -1.147361,0.833723 z"
             id="path14209-2"
             sodipodi:nodetypes="scsss" /><path
             style="fill:#2b2ba3;fill-opacity:1;stroke:none;stroke-width:0.264583px;stroke-linecap:butt;stroke-linejoin:miter;stroke-opacity:1"
             d="m 39.874173,89.572683 c -0.190136,0.894664 1.371967,2.376316 1.371967,2.376316 0,0 0.841195,-1.569692 0.630896,-2.354538 -0.104379,-0.389546 -0.453457,-0.823873 -0.855502,-0.855501 -0.471305,-0.03708 -1.049084,0.371289 -1.147361,0.833723 z"
             id="path14209-3"
             sodipodi:nodetypes="scsss" /><path
             style="fill:#2b2ba3;fill-opacity:1;stroke:none;stroke-width:0.264583px;stroke-linecap:butt;stroke-linejoin:miter;stroke-opacity:1"
             d="m 39.080627,96.905463 c -0.190136,0.894664 1.371967,2.376316 1.371967,2.376316 0,0 0.841195,-1.569692 0.630896,-2.354538 -0.104379,-0.389546 -0.453457,-0.823873 -0.855502,-0.855501 -0.471305,-0.03708 -1.049084,0.371289 -1.147361,0.833723 z"
             id="path14209-4"
             sodipodi:nodetypes="scsss" /><path
             style="fill:#2b2ba3;fill-opacity:1;stroke:none;stroke-width:0.264583px;stroke-linecap:butt;stroke-linejoin:miter;stroke-opacity:1"
             d="m 35.787448,93.330011 c -0.190136,0.894664 1.371967,2.376316 1.371967,2.376316 0,0 0.841195,-1.569692 0.630896,-2.354538 -0.104379,-0.389546 -0.453457,-0.823873 -0.855502,-0.855501 -0.471305,-0.03708 -1.049084,0.371289 -1.147361,0.833723 z"
             id="path14209-8"
             sodipodi:nodetypes="scsss" /><path
             style="fill:#2b2ba3;fill-opacity:1;stroke:none;stroke-width:0.264583px;stroke-linecap:butt;stroke-linejoin:miter;stroke-opacity:1"
             d="m 37.982901,84.924565 c -0.190136,0.894664 1.371967,2.376316 1.371967,2.376316 0,0 0.841195,-1.569692 0.630896,-2.354538 -0.104379,-0.389546 -0.453457,-0.823873 -0.855502,-0.855501 -0.471305,-0.03708 -1.049084,0.371289 -1.147361,0.833723 z"
             id="path14209-7"
             sodipodi:nodetypes="scsss" /><path
             style="fill:#2b2ba3;fill-opacity:1;stroke:none;stroke-width:0.264583px;stroke-linecap:butt;stroke-linejoin:miter;stroke-opacity:1"
             d="m 40.209717,77.773663 c -0.190136,0.894664 1.371967,2.376316 1.371967,2.376316 0,0 0.841195,-1.569692 0.630896,-2.354538 -0.104379,-0.389546 -0.453457,-0.823873 -0.855502,-0.855501 -0.471305,-0.03708 -1.049084,0.371289 -1.147361,0.833723 z"
             id="path14209-78"
             sodipodi:nodetypes="scsss" /><path
             style="fill:#2b2ba3;fill-opacity:1;stroke:none;stroke-width:0.264583px;stroke-linecap:butt;stroke-linejoin:miter;stroke-opacity:1"
             d="m 36.853811,101.61 c -0.190136,0.89467 1.371967,2.37632 1.371967,2.37632 0,0 0.841195,-1.56969 0.630896,-2.35454 -0.104379,-0.38954 -0.453457,-0.82387 -0.855502,-0.8555 -0.471305,-0.0371 -1.049084,0.37129 -1.147361,0.83372 z"
             id="path14209-1"
             sodipodi:nodetypes="scsss" /><path
             style="fill:#2b2ba3;fill-opacity:1;stroke:none;stroke-width:0.264583px;stroke-linecap:butt;stroke-linejoin:miter;stroke-opacity:1"
             d="m 39.0179,104.58955 c -0.190136,0.89466 1.371967,2.37631 1.371967,2.37631 0,0 0.841195,-1.56969 0.630896,-2.35454 -0.104379,-0.38954 -0.453457,-0.82387 -0.855502,-0.8555 -0.471305,-0.0371 -1.049084,0.37129 -1.147361,0.83373 z"
             id="path14209-25"
             sodipodi:nodetypes="scsss" /><path
             style="fill:#2b2ba3;fill-opacity:1;stroke:none;stroke-width:0.143302px;stroke-linecap:butt;stroke-linejoin:miter;stroke-opacity:1"
             d="m 35.439234,77.083195 c -0.102981,0.484565 0.743079,1.287051 0.743079,1.287051 0,0 0.455604,-0.85017 0.341703,-1.275255 -0.05653,-0.210985 -0.245599,-0.446223 -0.463353,-0.463353 -0.255267,-0.02008 -0.568201,0.201096 -0.621429,0.451557 z"
             id="path14209-9"
             sodipodi:nodetypes="scsss" /><path
             style="fill:#2b2ba3;fill-opacity:1;stroke:none;stroke-width:0.143302px;stroke-linecap:butt;stroke-linejoin:miter;stroke-opacity:1"
             d="m 36.179154,83.494529 c -0.102981,0.484565 0.743079,1.287051 0.743079,1.287051 0,0 0.455604,-0.85017 0.341703,-1.275255 -0.05653,-0.210985 -0.245599,-0.446223 -0.463353,-0.463353 -0.255267,-0.02008 -0.568201,0.201096 -0.621429,0.451557 z"
             id="path14209-9-0"
             sodipodi:nodetypes="scsss" /><path
             style="fill:#2b2ba3;fill-opacity:1;stroke:none;stroke-width:0.143302px;stroke-linecap:butt;stroke-linejoin:miter;stroke-opacity:1"
             d="m 39.150928,92.67598 c -0.102981,0.484565 0.743079,1.287051 0.743079,1.287051 0,0 0.455605,-0.85017 0.341704,-1.275255 -0.05653,-0.210985 -0.245599,-0.446223 -0.463353,-0.463353 -0.255267,-0.02008 -0.568201,0.201096 -0.62143,0.451557 z"
             id="path14209-9-8"
             sodipodi:nodetypes="scsss" /><path
             style="fill:#2b2ba3;fill-opacity:1;stroke:none;stroke-width:0.143302px;stroke-linecap:butt;stroke-linejoin:miter;stroke-opacity:1"
             d="m 36.533993,97.599367 c -0.102981,0.484565 0.743079,1.287051 0.743079,1.287051 0,0 0.455604,-0.85017 0.341703,-1.275255 -0.05653,-0.210985 -0.245599,-0.446223 -0.463353,-0.463353 -0.255267,-0.02008 -0.568201,0.201096 -0.621429,0.451557 z"
             id="path14209-9-1"
             sodipodi:nodetypes="scsss" /><path
             style="fill:#2b2ba3;fill-opacity:1;stroke:none;stroke-width:0.143302px;stroke-linecap:butt;stroke-linejoin:miter;stroke-opacity:1"
             d="m 39.816251,101.41388 c -0.102981,0.48457 0.743079,1.28705 0.743079,1.28705 0,0 0.455604,-0.85017 0.341703,-1.27525 -0.05653,-0.21099 -0.245599,-0.44622 -0.463353,-0.46335 -0.255267,-0.0201 -0.568201,0.20109 -0.621429,0.45155 z"
             id="path14209-9-9"
             sodipodi:nodetypes="scsss" /><path
             style="fill:#2b2ba3;fill-opacity:1;stroke:none;stroke-width:0.143302px;stroke-linecap:butt;stroke-linejoin:miter;stroke-opacity:1"
             d="m 36.533993,105.98243 c -0.102981,0.48457 0.743079,1.28705 0.743079,1.28705 0,0 0.455604,-0.85017 0.341703,-1.27525 -0.05653,-0.21099 -0.245599,-0.44623 -0.463353,-0.46336 -0.255267,-0.0201 -0.568201,0.2011 -0.621429,0.45156 z"
             id="path14209-9-11"
             sodipodi:nodetypes="scsss" /><path
             style="fill:#2b2ba3;fill-opacity:1;stroke:none;stroke-width:0.143302px;stroke-linecap:butt;stroke-linejoin:miter;stroke-opacity:1"
             d="m 38.130767,114.14372 c -0.102981,0.48457 0.743079,1.28705 0.743079,1.28705 0,0 0.455604,-0.85017 0.341703,-1.27525 -0.05653,-0.21099 -0.245599,-0.44623 -0.463353,-0.46336 -0.255267,-0.0201 -0.568201,0.2011 -0.621429,0.45156 z"
             id="path14209-9-92"
             sodipodi:nodetypes="scsss" /><path
             style="fill:none;stroke:#000080;stroke-width:0.264583px;stroke-linecap:butt;stroke-linejoin:miter;stroke-opacity:1"
             d="m 35.355006,85.098779 -2.979543,1.850454 -2.383634,5.363175"
             id="path14515" /></g></g><g
         id="g12813"
         transform="translate(76.476058,-11.544462)"><g
           id="g13002"
           transform="matrix(1.16872,0,0,1.16872,98.152791,-7.5773669)"><g
             id="g13214"
             transform="translate(76.203899,1.1242747)"><path
               id="rect12756"
               style="fill:#2f2f5b;fill-opacity:1;stroke-width:2.50502;stroke-miterlimit:0;stop-color:#000000"
               d="m -159.08531,5.1945691 h 11.38378 c 4.48219,0 10.08141,2.4414498 8.0906,4.8475669 l -2.56876,3.10466 c -1.9908,2.406122 -3.60841,2.282399 -8.09061,2.282399 h -6.24625 c -4.48219,0 -6.0998,0.123722 -8.0906,-2.282399 l -2.56877,-3.10466 c -1.9908,-2.4061171 3.60841,-4.8475669 8.09061,-4.8475669 z"
               sodipodi:nodetypes="sssssssss" /><path
               id="rect12756-69"
               style="fill:#424280;fill-opacity:1;stroke-width:2.50502;stroke-miterlimit:0;stop-color:#000000"
               d="m -167.30098,9.8751904 c 0.0381,0.05578 0.079,0.11137 0.12513,0.1671376 l 2.56896,3.104866 c 1.9908,2.406118 3.60807,2.282001 8.09025,2.282001 h 6.24643 c 4.4822,0 6.0999,0.124118 8.0907,-2.282001 l 2.56852,-3.104866 c 0.0461,-0.05574 0.087,-0.1113956 0.12513,-0.1671376 a 23.400869,7.5137515 0 0 1 -13.90734,1.4750546 23.400869,7.5137515 0 0 1 -13.90778,-1.4750546 z" /><path
               id="rect12756-6"
               style="fill:#1a1a1a;fill-opacity:1;stroke-width:3.54263;stroke-miterlimit:0;stop-color:#000000"
               d="m -164.69685,13.038261 0.0901,0.217448 c 1.99078,4.812237 3.60802,4.564411 8.09021,4.564411 h 6.24633 c 4.4822,0 6.09999,0.247826 8.09079,-4.564411 l 0.09,-0.217448 a 23.963206,15.165365 0 0 1 -11.30399,1.797449 23.963206,15.165365 0 0 1 -11.30344,-1.797449 z" /><path
               style="fill:#000000;stroke:#000000;stroke-width:1.07502;stroke-linecap:round;stroke-linejoin:round;stroke-dasharray:none;stroke-opacity:1"
               d="m -165.42096,19.068471 c 0,0 7.94469,-0.776256 12.08653,-0.756612 3.90711,0.01853 11.36132,0.756612 11.36132,0.756612 l -2.78719,-3.001562 c 0,0 -5.63559,-0.771215 -8.61384,-0.78534 -3.15717,-0.01498 -9.25962,0.78534 -9.25962,0.78534 z"
               id="path12754"
               sodipodi:nodetypes="csccscc" /></g></g></g></g></g></svg>
