<?xml version="1.0" encoding="UTF-8" standalone="no"?>
<!-- Created with Inkscape (http://www.inkscape.org/) -->

<svg
   width="75.000008mm"
   height="150mm"
   viewBox="0 0 75.000005 150"
   version="1.1"
   id="svg5"
   xml:space="preserve"
   inkscape:version="1.2 (dc2aedaf03, 2022-05-15)"
   sodipodi:docname="Fisher.svg"
   xmlns:inkscape="http://www.inkscape.org/namespaces/inkscape"
   xmlns:sodipodi="http://sodipodi.sourceforge.net/DTD/sodipodi-0.dtd"
   xmlns="http://www.w3.org/2000/svg"
   xmlns:svg="http://www.w3.org/2000/svg"><sodipodi:namedview
     id="namedview7"
     pagecolor="#ffffff"
     bordercolor="#666666"
     borderopacity="1.0"
     inkscape:showpageshadow="2"
     inkscape:pageopacity="0.0"
     inkscape:pagecheckerboard="0"
     inkscape:deskcolor="#d1d1d1"
     inkscape:document-units="mm"
     showgrid="false"
     inkscape:zoom="0.18641099"
     inkscape:cx="-718.84174"
     inkscape:cy="1346.4871"
     inkscape:window-width="1920"
     inkscape:window-height="1017"
     inkscape:window-x="-8"
     inkscape:window-y="-8"
     inkscape:window-maximized="1"
     inkscape:current-layer="g13214" /><defs
     id="defs2"><inkscape:path-effect
       effect="spiro"
       id="path-effect1806"
       is_visible="true"
       lpeversion="1" /><inkscape:path-effect
       effect="spiro"
       id="path-effect8447"
       is_visible="true"
       lpeversion="1" /><inkscape:path-effect
       effect="spiro"
       id="path-effect7278"
       is_visible="true"
       lpeversion="1" /><inkscape:path-effect
       effect="spiro"
       id="path-effect7274"
       is_visible="true"
       lpeversion="1" /><pattern
       id="EMFhbasepattern"
       patternUnits="userSpaceOnUse"
       width="6"
       height="6"
       x="0"
       y="0" /><inkscape:path-effect
       effect="spiro"
       id="path-effect7278-6"
       is_visible="true"
       lpeversion="1" /><inkscape:path-effect
       effect="spiro"
       id="path-effect1806-9"
       is_visible="true"
       lpeversion="1" /></defs><g
     inkscape:groupmode="layer"
     id="layer2"
     inkscape:label="shadow" /><g
     inkscape:groupmode="layer"
     id="layer1"
     inkscape:label="real"><g
       id="g5059"
       transform="translate(-51.319081,26.39884)"><g
         id="g5043"
         transform="translate(42.770017,-21.050954)"
         style="display:inline"><g
           id="g5001"
           inkscape:label="head"
           transform="matrix(1.1571985,0,0,1.1571985,-3.0625947,-18.444005)"><rect
             style="opacity:1;fill:#ffcc00;fill-opacity:1;stroke:none;stroke-width:2.63388;stroke-linecap:square"
             id="rect4997"
             width="9.9690962"
             height="9.1902609"
             x="33.650558"
             y="50.377213" /><circle
             style="opacity:1;fill:#ffcc00;fill-opacity:1;stroke:none;stroke-width:3.14848;stroke-linecap:square"
             id="circle4999"
             cx="38.635105"
             cy="42.37645"
             r="10.613407" /></g><g
           id="g5011"
           style="display:inline"
           transform="matrix(-1.0159742,0,0,1.0159742,80.814617,2.1548629)"
           inkscape:label="shoes"><rect
             style="display:inline;opacity:1;fill:#803300;fill-opacity:1;stroke:none;stroke-width:7.17952;stroke-linecap:square;stroke-linejoin:round;stroke-dasharray:none;stroke-opacity:1"
             id="rect5003"
             width="8.2692204"
             height="13.765817"
             x="65.856903"
             y="120.24144"
             transform="translate(-40.834227,1.4669458)" /><rect
             style="display:inline;opacity:1;fill:#803300;fill-opacity:1;stroke:none;stroke-width:10.2762;stroke-linecap:square;stroke-linejoin:round;stroke-dasharray:none;stroke-opacity:1"
             id="rect5005"
             width="19.448647"
             height="7.277873"
             x="56.132584"
             y="129.13843"
             rx="2.836376"
             ry="2.7431908"
             transform="translate(-40.834227,1.4669458)" /><rect
             style="display:inline;opacity:1;fill:#803300;fill-opacity:1;stroke:none;stroke-width:7.17952;stroke-linecap:square;stroke-linejoin:round;stroke-dasharray:none;stroke-opacity:1"
             id="rect5007"
             width="8.2692204"
             height="13.765817"
             x="-51.520599"
             y="121.70839"
             transform="scale(-1,1)" /><rect
             style="display:inline;opacity:1;fill:#803300;fill-opacity:1;stroke:none;stroke-width:10.2762;stroke-linecap:square;stroke-linejoin:round;stroke-dasharray:none;stroke-opacity:1"
             id="rect5009"
             width="19.448647"
             height="7.277873"
             x="-61.244919"
             y="130.60538"
             rx="2.836376"
             ry="2.7431908"
             transform="scale(-1,1)" /></g><g
           id="g5025"
           inkscape:label="leftArm"
           style="display:inline"
           transform="matrix(1.1571985,0,0,1.1571985,-3.0625947,-18.626936)"><path
             style="color:#000000;fill:#a59e82;fill-opacity:1;stroke-linecap:round;stroke-linejoin:round;-inkscape-stroke:none"
             d="m 29.154297,55.183594 a 3.95082,3.95082 0 0 0 -2.945313,0.685547 c -2.676115,1.915154 -5.059792,4.223659 -7.058593,6.83789 -6.673293,8.727992 -8.59884,20.577264 -5.03125,30.96875 a 3.95082,3.95082 0 0 0 5.019531,2.455078 3.95082,3.95082 0 0 0 2.455078,-5.019531 c -2.665034,-7.762568 -1.151047,-17.085552 3.833984,-23.605469 1.520405,-1.988536 3.343296,-3.754158 5.378907,-5.210937 a 3.95082,3.95082 0 0 0 0.914062,-5.513672 3.95082,3.95082 0 0 0 -2.566406,-1.597656 z"
             id="path5021" /><circle
             style="display:inline;fill:#ffcc00;fill-opacity:1;stroke:none;stroke-width:8.83079;stroke-linecap:square;stroke-linejoin:round;stroke-dasharray:none;stroke-opacity:1"
             id="circle5023"
             cx="17.856539"
             cy="92.393829"
             r="4.4154224" /></g><g
           id="g5033"
           inkscape:label="rightArm"
           style="display:inline"
           transform="matrix(1.1571985,0,0,1.1571985,9.3212993,-18.870209)"><path
             style="color:#000000;fill:#a59e82;fill-opacity:1;stroke-linecap:round;stroke-linejoin:round"
             d="m 38.945312,55.5625 a 3.95082,3.95082 0 0 0 -3.019531,0.167969 3.95082,3.95082 0 0 0 -1.847656,5.273437 c 3.864509,8.031325 5.266199,12.624026 7.130859,16.384766 1.864661,3.76074 4.866901,6.594831 9.564453,8.533203 a 3.95082,3.95082 0 0 0 5.158204,-2.144531 3.95082,3.95082 0 0 0 -2.144532,-5.160157 C 50.013464,77.060051 49.649999,76.623711 48.289062,73.878906 46.928126,71.134102 45.244479,65.985092 41.199219,57.578125 A 3.95082,3.95082 0 0 0 38.945312,55.5625 Z"
             id="path5029" /><circle
             style="opacity:1;fill:#ffcc00;fill-opacity:1;stroke:none;stroke-width:8.83079;stroke-linecap:square;stroke-linejoin:round;stroke-dasharray:none;stroke-opacity:1"
             id="circle5031"
             cx="52.280228"
             cy="82.269485"
             r="4.4154224" /></g><g
           id="g5015"
           inkscape:label="torso"
           transform="matrix(1.1571985,0,0,1.1571985,-3.0625947,-18.444005)"><path
             id="path5013-6"
             style="display:inline;fill:#a59e82;fill-opacity:1;stroke-width:2.77409;stroke-linecap:square"
             d="m 29.16915,54.972349 h 19.551222 c 2.095959,0 3.783321,2.520007 3.783321,5.650239 v 29.198973 c 0,3.130235 -1.687362,5.650235 -3.783321,5.650235 H 29.16915 c -2.095959,0 -3.783321,-2.52 -3.783321,-5.650235 V 60.622588 c 0,-3.130232 1.687362,-5.650239 3.783321,-5.650239 z"
             sodipodi:nodetypes="sssssssss" /><path
             id="rect12723"
             style="fill:#a59e82;stroke-width:4.65268;stroke-miterlimit:0;stop-color:#000000"
             d="m 36.753478,50.939732 h 3.763259 c 2.99214,0 5.400975,1.205194 5.400975,2.702229 0,1.497036 -2.408835,2.70223 -5.400975,2.70223 h -3.763259 c -2.99214,0 -5.400975,-1.205194 -5.400975,-2.70223 0,-1.497035 2.408835,-2.702229 5.400975,-2.702229 z" /><path
             id="path13216"
             style="fill:none;stroke:#77725d;stroke-width:1;stroke-linecap:butt;stroke-linejoin:miter;stroke-dasharray:none;stroke-opacity:1"
             d="m 70.124054,26.738485 h 27.381817 z m -1.064516,4.371309 h 31.373752 z m 0,4.37131 h 31.373752 z m 0,4.371826 h 31.373752 z m 0,4.371309 h 31.373752 z m 0,4.371827 h 31.373752 z m 0,4.371309 h 31.373752 z m 0,4.371309 h 31.373752 z m 0,4.371827 h 31.295352 z"
             transform="matrix(0.86415599,0,0,0.86415599,-34.313406,34.129805)"
             sodipodi:nodetypes="ccccccccccccccccccccccccccc" /></g><g
           id="g5019"
           transform="matrix(0.99329015,0,0,1.0159742,-36.931882,3.645242)"
           inkscape:label="pants"
           style="stroke-width:1.00043;stroke-dasharray:none;fill:#424280;fill-opacity:1"><path
             id="path5017"
             style="opacity:1;fill:#424280;fill-opacity:1;stroke-linecap:square;stroke-linejoin:round"
             d="m 63.673136,79.661497 v 10.808075 33.911488 c 0,1.51973 1.223059,2.74309 2.742785,2.74309 h 7.315308 c 1.519726,0 2.743305,-1.22336 2.743305,-2.74309 V 92.872384 a 3.4128591,3.7654886 0 0 1 1.288152,-1.459286 3.4128591,3.7654886 0 0 1 3.412874,0 3.4128591,3.7654886 0 0 1 1.288672,1.455725 v 31.512237 c 0,1.51973 1.223579,2.74309 2.743305,2.74309 h 7.314788 c 1.519725,0 2.743305,-1.22336 2.743305,-2.74309 V 82.404589 79.661497 Z" /></g></g><g
         id="g5057"
         inkscape:label="rope"
         transform="matrix(-1,0,0,1,235.76926,0)"><path
           style="fill:none;stroke:#ffe680;stroke-width:3;stroke-linecap:butt;stroke-linejoin:miter;stroke-dasharray:none;stroke-opacity:1"
           d="m 118.56526,58.873423 c 0.91102,-1.684253 2.19413,-4.025668 4.10895,-4.014541 1.54493,0.009 2.63104,1.874069 3.27734,3.277343 2.27827,4.946677 1.27007,16.288898 1.27007,16.288898"
           id="path5049"
           sodipodi:nodetypes="caac" /><path
           style="fill:none;stroke:#d45500;stroke-width:3;stroke-linecap:butt;stroke-linejoin:miter;stroke-dasharray:0.3, 3;stroke-dashoffset:0;stroke-opacity:1"
           d="m 118.56671,58.906094 c 0.91102,-1.684253 2.19413,-4.025668 4.10895,-4.014541 1.54493,0.009 2.63104,1.874069 3.27734,3.277343 2.27827,4.946677 1.27007,16.288898 1.27007,16.288898"
           id="path5051"
           sodipodi:nodetypes="caac" /><g
           id="g14748"
           transform="translate(88.539282,-3.4957883)"
           inkscape:label="fish"><path
             id="path13657"
             style="fill:#3434c6;fill-opacity:1;stroke:#77725d;stroke-width:0;stroke-linecap:round;stroke-linejoin:round;stroke-miterlimit:0;stop-color:#000000"
             d="m 37.0414,70.321871 c -2.20746,2.216732 -3.818885,9.189031 -3.818889,17.448548 5.74e-4,4.899932 1.2912,6.993516 2.227771,10.440189 0.60969,3.494872 -0.353621,17.711562 3.360519,18.124472 4.116935,-4.58708 2.759005,-14.45825 3.82974,-21.051942 0.541948,-3.24336 1.226844,-3.43668 1.226798,-7.512719 -3e-6,-7.503977 -1.330524,-13.945806 -3.22926,-16.724044 l -1.927014,5.490104 c 0,0 -0.852359,-3.207815 -1.669665,-6.214608 z" /><path
             style="fill:#000080;stroke:none;stroke-width:0.207388px;stroke-linecap:butt;stroke-linejoin:miter;stroke-opacity:1"
             d="m 34.824241,81.828888 c -0.05582,-0.488495 -3.022235,1.329623 -3.835068,2.655048 -1.400758,2.284109 -1.845596,7.500992 -1.081686,7.96514 0.588806,0.357756 5.572826,-2.513326 5.703435,-3.736733 0.245157,-2.296372 -0.786681,-6.883455 -0.786681,-6.883455 z"
             id="path13756"
             sodipodi:nodetypes="sssss" /><path
             style="fill:#000080;fill-opacity:1;stroke:none;stroke-width:0.152212px;stroke-linecap:butt;stroke-linejoin:miter;stroke-opacity:1"
             d="m 36.814356,108.97824 c -1.322373,-0.46441 -0.584303,1.78924 -2.670402,3.24779 -1.142364,0.79872 -0.199895,4.48439 -0.199895,4.1957 0,-0.28869 2.445592,-1.35209 2.942471,-1.74182 1.614101,-1.266 1.721153,-5.07185 -0.07218,-5.70167 z"
             id="path13789"
             sodipodi:nodetypes="ssssss" /><path
             style="fill:#000080;fill-opacity:1;stroke:none;stroke-width:0.189644px;stroke-linecap:butt;stroke-linejoin:miter;stroke-opacity:1"
             d="m 40.622201,107.50394 c 1.647567,-0.57863 0.727994,2.22924 3.3271,4.04648 1.423292,0.99512 0.249054,5.58717 0.249054,5.22749 0,-0.35969 -3.047007,-1.6846 -3.666077,-2.17017 -2.011037,-1.57733 -2.144415,-6.31911 0.08993,-7.1038 z"
             id="path13789-4"
             sodipodi:nodetypes="ssssss" /><path
             style="fill:#000080;fill-opacity:1;stroke:none;stroke-width:0.25915px;stroke-linecap:butt;stroke-linejoin:miter;stroke-opacity:1"
             d="m 42.665496,79.27275 c 0.205132,-1.201135 5.378919,7.304295 5.267333,9.270468 -0.111317,1.961429 -4.166295,7.536246 -5.187525,3.973054 -1.005676,-3.508922 -0.922383,-8.309901 -0.07981,-13.243522 z"
             id="path14000"
             sodipodi:nodetypes="ssss" /><path
             style="fill:#2b2ba3;fill-opacity:1;stroke:none;stroke-width:0.264583px;stroke-linecap:butt;stroke-linejoin:miter;stroke-opacity:1"
             d="m 36.640913,80.174693 c -0.190136,0.894664 1.371967,2.376316 1.371967,2.376316 0,0 0.841195,-1.569692 0.630896,-2.354538 -0.104379,-0.389546 -0.453457,-0.823873 -0.855502,-0.855501 -0.471305,-0.03708 -1.049084,0.371289 -1.147361,0.833723 z"
             id="path14209"
             sodipodi:nodetypes="scsss" /><path
             style="fill:#2b2ba3;fill-opacity:1;stroke:none;stroke-width:0.264583px;stroke-linecap:butt;stroke-linejoin:miter;stroke-opacity:1"
             d="m 36.634266,89.566379 c -0.190136,0.894664 1.371967,2.376316 1.371967,2.376316 0,0 0.841195,-1.569692 0.630896,-2.354538 -0.104379,-0.389546 -0.453457,-0.823873 -0.855502,-0.855501 -0.471305,-0.03708 -1.049084,0.371289 -1.147361,0.833723 z"
             id="path14209-2"
             sodipodi:nodetypes="scsss" /><path
             style="fill:#2b2ba3;fill-opacity:1;stroke:none;stroke-width:0.264583px;stroke-linecap:butt;stroke-linejoin:miter;stroke-opacity:1"
             d="m 39.874173,89.572683 c -0.190136,0.894664 1.371967,2.376316 1.371967,2.376316 0,0 0.841195,-1.569692 0.630896,-2.354538 -0.104379,-0.389546 -0.453457,-0.823873 -0.855502,-0.855501 -0.471305,-0.03708 -1.049084,0.371289 -1.147361,0.833723 z"
             id="path14209-3"
             sodipodi:nodetypes="scsss" /><path
             style="fill:#2b2ba3;fill-opacity:1;stroke:none;stroke-width:0.264583px;stroke-linecap:butt;stroke-linejoin:miter;stroke-opacity:1"
             d="m 39.080627,96.905463 c -0.190136,0.894664 1.371967,2.376316 1.371967,2.376316 0,0 0.841195,-1.569692 0.630896,-2.354538 -0.104379,-0.389546 -0.453457,-0.823873 -0.855502,-0.855501 -0.471305,-0.03708 -1.049084,0.371289 -1.147361,0.833723 z"
             id="path14209-4"
             sodipodi:nodetypes="scsss" /><path
             style="fill:#2b2ba3;fill-opacity:1;stroke:none;stroke-width:0.264583px;stroke-linecap:butt;stroke-linejoin:miter;stroke-opacity:1"
             d="m 35.787448,93.330011 c -0.190136,0.894664 1.371967,2.376316 1.371967,2.376316 0,0 0.841195,-1.569692 0.630896,-2.354538 -0.104379,-0.389546 -0.453457,-0.823873 -0.855502,-0.855501 -0.471305,-0.03708 -1.049084,0.371289 -1.147361,0.833723 z"
             id="path14209-8"
             sodipodi:nodetypes="scsss" /><path
             style="fill:#2b2ba3;fill-opacity:1;stroke:none;stroke-width:0.264583px;stroke-linecap:butt;stroke-linejoin:miter;stroke-opacity:1"
             d="m 37.982901,84.924565 c -0.190136,0.894664 1.371967,2.376316 1.371967,2.376316 0,0 0.841195,-1.569692 0.630896,-2.354538 -0.104379,-0.389546 -0.453457,-0.823873 -0.855502,-0.855501 -0.471305,-0.03708 -1.049084,0.371289 -1.147361,0.833723 z"
             id="path14209-7"
             sodipodi:nodetypes="scsss" /><path
             style="fill:#2b2ba3;fill-opacity:1;stroke:none;stroke-width:0.264583px;stroke-linecap:butt;stroke-linejoin:miter;stroke-opacity:1"
             d="m 40.209717,77.773663 c -0.190136,0.894664 1.371967,2.376316 1.371967,2.376316 0,0 0.841195,-1.569692 0.630896,-2.354538 -0.104379,-0.389546 -0.453457,-0.823873 -0.855502,-0.855501 -0.471305,-0.03708 -1.049084,0.371289 -1.147361,0.833723 z"
             id="path14209-78"
             sodipodi:nodetypes="scsss" /><path
             style="fill:#2b2ba3;fill-opacity:1;stroke:none;stroke-width:0.264583px;stroke-linecap:butt;stroke-linejoin:miter;stroke-opacity:1"
             d="m 36.853811,101.61 c -0.190136,0.89467 1.371967,2.37632 1.371967,2.37632 0,0 0.841195,-1.56969 0.630896,-2.35454 -0.104379,-0.38954 -0.453457,-0.82387 -0.855502,-0.8555 -0.471305,-0.0371 -1.049084,0.37129 -1.147361,0.83372 z"
             id="path14209-1"
             sodipodi:nodetypes="scsss" /><path
             style="fill:#2b2ba3;fill-opacity:1;stroke:none;stroke-width:0.264583px;stroke-linecap:butt;stroke-linejoin:miter;stroke-opacity:1"
             d="m 39.0179,104.58955 c -0.190136,0.89466 1.371967,2.37631 1.371967,2.37631 0,0 0.841195,-1.56969 0.630896,-2.35454 -0.104379,-0.38954 -0.453457,-0.82387 -0.855502,-0.8555 -0.471305,-0.0371 -1.049084,0.37129 -1.147361,0.83373 z"
             id="path14209-25"
             sodipodi:nodetypes="scsss" /><path
             style="fill:#2b2ba3;fill-opacity:1;stroke:none;stroke-width:0.143302px;stroke-linecap:butt;stroke-linejoin:miter;stroke-opacity:1"
             d="m 35.439234,77.083195 c -0.102981,0.484565 0.743079,1.287051 0.743079,1.287051 0,0 0.455604,-0.85017 0.341703,-1.275255 -0.05653,-0.210985 -0.245599,-0.446223 -0.463353,-0.463353 -0.255267,-0.02008 -0.568201,0.201096 -0.621429,0.451557 z"
             id="path14209-9"
             sodipodi:nodetypes="scsss" /><path
             style="fill:#2b2ba3;fill-opacity:1;stroke:none;stroke-width:0.143302px;stroke-linecap:butt;stroke-linejoin:miter;stroke-opacity:1"
             d="m 36.179154,83.494529 c -0.102981,0.484565 0.743079,1.287051 0.743079,1.287051 0,0 0.455604,-0.85017 0.341703,-1.275255 -0.05653,-0.210985 -0.245599,-0.446223 -0.463353,-0.463353 -0.255267,-0.02008 -0.568201,0.201096 -0.621429,0.451557 z"
             id="path14209-9-0"
             sodipodi:nodetypes="scsss" /><path
             style="fill:#2b2ba3;fill-opacity:1;stroke:none;stroke-width:0.143302px;stroke-linecap:butt;stroke-linejoin:miter;stroke-opacity:1"
             d="m 39.150928,92.67598 c -0.102981,0.484565 0.743079,1.287051 0.743079,1.287051 0,0 0.455605,-0.85017 0.341704,-1.275255 -0.05653,-0.210985 -0.245599,-0.446223 -0.463353,-0.463353 -0.255267,-0.02008 -0.568201,0.201096 -0.62143,0.451557 z"
             id="path14209-9-8"
             sodipodi:nodetypes="scsss" /><path
             style="fill:#2b2ba3;fill-opacity:1;stroke:none;stroke-width:0.143302px;stroke-linecap:butt;stroke-linejoin:miter;stroke-opacity:1"
             d="m 36.533993,97.599367 c -0.102981,0.484565 0.743079,1.287051 0.743079,1.287051 0,0 0.455604,-0.85017 0.341703,-1.275255 -0.05653,-0.210985 -0.245599,-0.446223 -0.463353,-0.463353 -0.255267,-0.02008 -0.568201,0.201096 -0.621429,0.451557 z"
             id="path14209-9-1"
             sodipodi:nodetypes="scsss" /><path
             style="fill:#2b2ba3;fill-opacity:1;stroke:none;stroke-width:0.143302px;stroke-linecap:butt;stroke-linejoin:miter;stroke-opacity:1"
             d="m 39.816251,101.41388 c -0.102981,0.48457 0.743079,1.28705 0.743079,1.28705 0,0 0.455604,-0.85017 0.341703,-1.27525 -0.05653,-0.21099 -0.245599,-0.44622 -0.463353,-0.46335 -0.255267,-0.0201 -0.568201,0.20109 -0.621429,0.45155 z"
             id="path14209-9-9"
             sodipodi:nodetypes="scsss" /><path
             style="fill:#2b2ba3;fill-opacity:1;stroke:none;stroke-width:0.143302px;stroke-linecap:butt;stroke-linejoin:miter;stroke-opacity:1"
             d="m 36.533993,105.98243 c -0.102981,0.48457 0.743079,1.28705 0.743079,1.28705 0,0 0.455604,-0.85017 0.341703,-1.27525 -0.05653,-0.21099 -0.245599,-0.44623 -0.463353,-0.46336 -0.255267,-0.0201 -0.568201,0.2011 -0.621429,0.45156 z"
             id="path14209-9-11"
             sodipodi:nodetypes="scsss" /><path
             style="fill:#2b2ba3;fill-opacity:1;stroke:none;stroke-width:0.143302px;stroke-linecap:butt;stroke-linejoin:miter;stroke-opacity:1"
             d="m 38.130767,114.14372 c -0.102981,0.48457 0.743079,1.28705 0.743079,1.28705 0,0 0.455604,-0.85017 0.341703,-1.27525 -0.05653,-0.21099 -0.245599,-0.44623 -0.463353,-0.46336 -0.255267,-0.0201 -0.568201,0.2011 -0.621429,0.45156 z"
             id="path14209-9-92"
             sodipodi:nodetypes="scsss" /><path
             style="fill:none;stroke:#000080;stroke-width:0.264583px;stroke-linecap:butt;stroke-linejoin:miter;stroke-opacity:1"
             d="m 35.355006,85.098779 -2.979543,1.850454 -2.383634,5.363175"
             id="path14515" /></g></g><g
         id="g12813"
         transform="translate(76.476058,-11.544462)"><g
           id="g13002"
           transform="matrix(1.16872,0,0,1.16872,98.152791,-7.5773669)"><g
             id="g13214"
             transform="translate(76.203899,1.1242747)"><path
               id="rect12756"
               style="fill:#2f2f5b;fill-opacity:1;stroke-width:2.50502;stroke-miterlimit:0;stop-color:#000000"
               d="m -159.08531,5.1945691 h 11.38378 c 4.48219,0 10.08141,2.4414498 8.0906,4.8475669 l -2.56876,3.10466 c -1.9908,2.406122 -3.60841,2.282399 -8.09061,2.282399 h -6.24625 c -4.48219,0 -6.0998,0.123722 -8.0906,-2.282399 l -2.56877,-3.10466 c -1.9908,-2.4061171 3.60841,-4.8475669 8.09061,-4.8475669 z"
               sodipodi:nodetypes="sssssssss" /><path
               id="rect12756-69"
               style="fill:#424280;fill-opacity:1;stroke-width:2.50502;stroke-miterlimit:0;stop-color:#000000"
               d="m -167.30098,9.8751904 c 0.0381,0.05578 0.079,0.11137 0.12513,0.1671376 l 2.56896,3.104866 c 1.9908,2.406118 3.60807,2.282001 8.09025,2.282001 h 6.24643 c 4.4822,0 6.0999,0.124118 8.0907,-2.282001 l 2.56852,-3.104866 c 0.0461,-0.05574 0.087,-0.1113956 0.12513,-0.1671376 a 23.400869,7.5137515 0 0 1 -13.90734,1.4750546 23.400869,7.5137515 0 0 1 -13.90778,-1.4750546 z" /><path
               id="rect12756-6"
               style="fill:#1a1a1a;fill-opacity:1;stroke-width:3.54263;stroke-miterlimit:0;stop-color:#000000"
               d="m -164.69685,13.038261 0.0901,0.217448 c 1.99078,4.812237 3.60802,4.564411 8.09021,4.564411 h 6.24633 c 4.4822,0 6.09999,0.247826 8.09079,-4.564411 l 0.09,-0.217448 a 23.963206,15.165365 0 0 1 -11.30399,1.797449 23.963206,15.165365 0 0 1 -11.30344,-1.797449 z" /><path
               style="fill:#000000;stroke:#000000;stroke-width:1.07502;stroke-linecap:round;stroke-linejoin:round;stroke-dasharray:none;stroke-opacity:1"
               d="m -165.42096,19.068471 c 0,0 7.94469,-0.776256 12.08653,-0.756612 3.90711,0.01853 11.36132,0.756612 11.36132,0.756612 l -2.78719,-3.001562 c 0,0 -5.63559,-0.771215 -8.61384,-0.78534 -3.15717,-0.01498 -9.25962,0.78534 -9.25962,0.78534 z"
               id="path12754"
               sodipodi:nodetypes="csccscc" /></g></g></g></g></g></svg>
