<?xml version="1.0" encoding="UTF-8" standalone="no"?>
<!-- Created with Inkscape (http://www.inkscape.org/) -->

<svg
   width="75.000008mm"
   height="150mm"
   viewBox="0 0 75.000005 150"
   version="1.1"
   id="svg5"
   xml:space="preserve"
   inkscape:version="1.2 (dc2aedaf03, 2022-05-15)"
   sodipodi:docname="Herder.svg"
   xmlns:inkscape="http://www.inkscape.org/namespaces/inkscape"
   xmlns:sodipodi="http://sodipodi.sourceforge.net/DTD/sodipodi-0.dtd"
   xmlns="http://www.w3.org/2000/svg"
   xmlns:svg="http://www.w3.org/2000/svg"><sodipodi:namedview
     id="namedview7"
     pagecolor="#ffffff"
     bordercolor="#666666"
     borderopacity="1.0"
     inkscape:showpageshadow="2"
     inkscape:pageopacity="0.0"
     inkscape:pagecheckerboard="0"
     inkscape:deskcolor="#d1d1d1"
     inkscape:document-units="mm"
     showgrid="false"
     inkscape:zoom="0.37282198"
     inkscape:cx="-254.8133"
     inkscape:cy="319.18719"
     inkscape:window-width="1920"
     inkscape:window-height="1017"
     inkscape:window-x="-8"
     inkscape:window-y="-8"
     inkscape:window-maximized="1"
     inkscape:current-layer="layer2" /><defs
     id="defs2"><inkscape:path-effect
       effect="spiro"
       id="path-effect1806"
       is_visible="true"
       lpeversion="1" /><inkscape:path-effect
       effect="spiro"
       id="path-effect8447"
       is_visible="true"
       lpeversion="1" /><inkscape:path-effect
       effect="spiro"
       id="path-effect7278"
       is_visible="true"
       lpeversion="1" /><inkscape:path-effect
       effect="spiro"
       id="path-effect7274"
       is_visible="true"
       lpeversion="1" /><pattern
       id="EMFhbasepattern"
       patternUnits="userSpaceOnUse"
       width="6"
       height="6"
       x="0"
       y="0" /><inkscape:path-effect
       effect="spiro"
       id="path-effect7278-6"
       is_visible="true"
       lpeversion="1" /><inkscape:path-effect
       effect="spiro"
       id="path-effect1806-9"
       is_visible="true"
       lpeversion="1" /></defs><g
     inkscape:groupmode="layer"
     id="layer2"
     inkscape:label="shadow"><path
       id="rect483"
       style="fill:#000000;stroke-width:5;stroke-linecap:square;stroke:#000000;stroke-dasharray:none"
       d="M 26.915153 10.290845 C 26.669684 10.288128 26.427768 10.401631 26.189616 10.67015 C 23.344635 13.877891 21.431189 19.402722 20.925338 25.624276 L 20.542415 25.624276 L 20.542415 27.664978 L 10.776086 27.664978 L 10.776086 30.201257 L 20.693827 30.201257 A 12.281818 12.281818 0 0 0 19.306832 35.853109 A 12.281818 12.281818 0 0 0 25.820646 46.686556 L 25.820646 48.622872 L 23.857975 48.622872 C 23.86423 49.225468 23.854338 49.827993 23.830587 50.428963 L 20.634916 50.428963 C 20.498806 50.428963 20.364194 50.439409 20.231323 50.457385 A 4.571883 4.571883 0 0 0 17.209285 51.283691 C 14.112493 53.499902 11.354316 56.171723 9.0413086 59.196903 C 1.8120606 68.652028 -0.6018805 81.272487 2.506307 92.711137 A 5.1095204 5.1095204 0 0 0 2.4344767 93.550362 A 5.1095204 5.1095204 0 0 0 7.5437256 98.659611 A 5.1095204 5.1095204 0 0 0 12.653491 93.550362 A 5.1095204 5.1095204 0 0 0 11.264945 90.049284 C 9.0723774 81.534212 10.95139 71.79816 16.256889 64.814648 L 16.256889 68.073881 C 15.809831 68.330644 15.353406 68.534134 14.891597 68.678495 C 14.581175 68.775525 14.267753 68.846745 13.953153 68.885201 L 13.953153 93.694023 L 16.256889 93.694023 L 16.256889 100.81917 L 16.256889 135.27236 C 16.256889 136.61705 17.178805 137.7325 18.413863 137.9983 L 18.413863 140.10566 L 11.415841 140.10566 C 9.8193889 140.10566 8.5343628 141.34857 8.5343628 142.89257 L 8.5343628 144.71261 C 8.5343628 146.25661 9.8193889 147.50004 11.415841 147.50004 L 25.411886 147.50004 C 27.008337 147.50004 28.293363 146.25661 28.293363 144.71261 L 28.293363 142.89257 C 28.293363 141.84221 27.698357 140.93174 26.815417 140.45654 L 26.815417 137.9983 C 28.050329 137.73231 28.972392 136.61687 28.972392 135.27236 L 28.972392 103.26036 A 3.3899593 3.8256393 0 0 1 30.2519 101.77777 A 3.3899593 3.8256393 0 0 1 33.641874 101.77777 A 3.3899593 3.8256393 0 0 1 34.921899 103.25675 L 34.921899 135.27236 C 34.921899 136.56328 35.772889 137.64054 36.933663 137.96005 L 36.933663 140.45654 C 36.050723 140.93174 35.4552 141.84221 35.4552 142.89257 L 35.4552 144.71261 C 35.4552 146.25661 36.740742 147.50004 38.337195 147.50004 L 52.33324 147.50004 C 53.929692 147.50004 55.214718 146.25661 55.214718 144.71261 L 55.214718 142.89257 C 55.214718 141.34857 53.929692 140.10566 52.33324 140.10566 L 45.335217 140.10566 L 45.335217 138.02258 C 46.642076 137.81555 47.637402 136.66884 47.637402 135.27236 L 47.637402 93.694023 L 49.224386 93.694023 L 49.224386 79.517627 C 49.275918 79.581741 49.326985 79.646379 49.379415 79.709863 C 49.474531 79.825005 49.571218 79.938892 49.66932 80.051961 C 49.767499 80.165154 49.8668 80.277255 49.968009 80.388375 C 50.069135 80.499374 50.171811 80.609139 50.276001 80.71807 C 50.380269 80.827119 50.485918 80.935102 50.593294 81.042082 C 52.022774 82.466284 53.730521 83.706511 55.760937 84.766919 A 5.1095204 5.1095204 0 0 0 56.242045 85.290918 C 55.929115 88.402863 55.721745 91.610611 55.390417 94.7198 L 55.381116 94.718766 L 55.347526 95.017456 L 55.359928 95.019006 C 55.251808 96.006111 55.128785 96.981163 54.985274 97.939758 L 54.956852 97.935624 L 54.947034 98.009521 L 54.911894 98.222428 L 54.941866 98.227079 C 54.931626 98.2932 54.92235 98.360089 54.911894 98.426034 C 54.76562 99.348536 54.611307 100.25813 54.451973 101.15507 L 54.4158 101.14835 L 54.36309 101.44549 L 54.399264 101.45169 C 54.220368 102.44762 54.033977 103.41935 53.844775 104.37244 L 53.808602 104.36521 L 53.750208 104.65821 L 53.787415 104.66545 C 53.5864 105.66891 53.382526 106.63742 53.177116 107.57948 L 53.14456 107.57225 L 53.082031 107.86525 L 53.113037 107.87197 C 52.891515 108.87988 52.669835 109.85579 52.452096 110.77567 L 52.425741 110.76947 L 52.423674 110.78135 L 52.359078 111.05472 L 52.383366 111.0604 C 52.138398 112.08797 51.898358 113.06361 51.670748 113.95532 L 51.654211 113.95118 L 51.626823 114.06074 L 51.581864 114.23644 L 51.596851 114.24006 C 51.318539 115.32292 51.061524 116.28267 50.832556 117.11482 L 50.827905 117.11326 L 50.749874 117.4042 L 50.752458 117.40472 C 50.2143 119.34659 49.859489 120.49032 49.859489 120.49032 L 49.869307 120.49342 L 49.855355 120.5389 L 52.728564 121.40241 L 52.814347 121.11509 L 52.806079 121.1125 C 53.2197 119.7597 56.082804 110.19768 57.87502 98.894739 C 58.513882 94.865628 58.830836 90.628007 59.223775 86.668612 A 5.1095204 5.1095204 0 0 0 59.76276 86.700651 A 5.1095204 5.1095204 0 0 0 64.872526 81.590885 A 5.1095204 5.1095204 0 0 0 60.880005 76.606177 C 60.931592 76.433447 60.985518 76.26435 61.040202 76.096647 L 61.042786 76.097681 L 61.113066 75.886841 L 61.130636 75.837748 L 61.125468 75.836198 C 61.402246 75.02563 61.717653 74.276845 62.081999 73.603259 C 62.134233 73.506691 62.19034 73.407457 62.244263 73.30922 L 62.257699 73.316455 L 62.396708 73.062724 L 62.383789 73.055489 C 62.760691 72.381793 63.16983 71.707151 63.585783 71.216842 C 63.677778 71.108401 63.76458 71.016051 63.849333 70.931071 L 63.865352 70.947091 L 63.880855 70.933655 L 63.97439 70.843738 L 64.001778 70.822034 L 63.984208 70.801363 C 64.326368 70.492929 64.611104 70.373567 64.863224 70.375033 C 64.933987 70.375445 65.023967 70.398726 65.131942 70.456165 L 65.119023 70.48252 L 65.123157 70.48252 L 65.1738 70.511975 L 65.232194 70.548665 L 65.246147 70.526444 C 65.376838 70.616717 65.528654 70.753177 65.705033 70.961043 C 66.004158 71.313567 66.303115 71.811173 66.559245 72.311348 L 66.54891 72.316516 L 66.552527 72.324268 L 66.666215 72.552677 L 66.674483 72.548543 C 66.711913 72.625713 66.752288 72.70387 66.787138 72.779537 C 67.708872 74.780843 68.106508 78.792906 68.138477 82.166044 C 68.156394 84.056482 68.087905 85.736047 68.023755 86.866016 C 67.490025 87.050319 67.025749 87.378238 66.621257 87.787406 L 66.619189 87.785339 L 66.498267 87.911947 L 66.449174 87.963106 L 66.367008 88.058708 L 66.369076 88.060775 C 66.123269 88.346524 65.901227 88.659323 65.701416 88.984233 C 65.305186 89.628535 64.956143 90.374951 64.641532 91.213037 L 64.589856 91.35153 L 64.580037 91.374784 L 64.554716 91.447131 L 64.55575 91.447648 C 64.309343 92.1315 64.083782 92.871866 63.875171 93.673869 C 63.805794 93.940589 63.738957 94.215274 63.673633 94.494491 L 63.672083 94.493974 L 63.611104 94.759591 L 63.607487 94.77561 L 63.601286 94.800932 L 63.604386 94.801449 C 63.386234 95.770731 63.192167 96.809777 63.025094 97.909269 L 63.011658 97.998153 L 63.009591 98.011589 L 62.988403 98.152148 L 62.98892 98.152148 C 62.551575 101.12328 62.307138 104.51682 62.305241 108.13552 L 62.304724 108.16601 L 62.304724 108.17583 L 62.304724 108.17634 L 62.304724 108.17789 C 62.304724 113.79997 62.888012 118.88628 63.875171 122.6814 C 64.36875 124.57896 64.951992 126.15241 65.701416 127.37104 C 66.45084 128.58967 67.505375 129.65616 69.00199 129.65617 C 69.753226 129.65617 70.545158 129.26982 71.013753 128.73633 C 71.482349 128.20284 71.716989 127.60079 71.886568 126.95918 C 72.225725 125.67596 72.295089 124.13698 72.294812 122.27161 C 72.294258 118.54087 71.935661 113.56275 71.935661 108.11123 C 71.935661 102.65971 72.294258 97.715568 72.294812 94.017517 C 72.295089 92.168491 72.225864 90.646475 71.885018 89.372839 C 71.828494 89.161629 71.763124 88.954856 71.686064 88.752722 L 71.687614 88.752205 L 71.640588 88.628699 L 71.609583 88.554801 L 71.548604 88.414242 L 71.509847 88.332076 L 71.502096 88.32019 L 71.495378 88.323808 C 71.36657 88.073167 71.210053 87.832305 71.008069 87.605505 C 71.001152 87.597739 70.993417 87.590467 70.986365 87.582768 C 71.02786 86.939724 71.076299 86.018955 71.108321 84.924015 L 71.111422 84.924015 L 71.119173 84.662016 L 71.12124 84.61344 L 71.11814 84.61344 C 71.137303 83.849429 71.147115 83.012859 71.13881 82.136589 C 71.137023 81.947981 71.13156 81.752141 71.128475 81.560396 L 71.131059 81.560396 L 71.131059 81.499935 L 71.123307 81.264807 C 71.056829 77.937387 70.758534 74.230855 69.511519 71.523283 C 69.160441 70.761007 68.689937 69.841818 67.992232 69.01956 C 67.294529 68.197303 66.254788 67.38322 64.880794 67.375216 C 63.310079 67.366116 62.115575 68.310492 61.297034 69.275358 C 60.478493 70.240223 59.900727 71.330473 59.4434 72.175956 C 58.858681 73.25696 58.380866 74.42949 57.985091 75.672384 C 56.660815 74.806227 56.127555 73.864198 55.144438 71.881401 C 53.569566 68.705121 51.620935 62.746989 46.939771 53.018469 A 4.571883 4.571883 0 0 0 45.866968 51.592716 A 4.571883 4.571883 0 0 0 45.235482 51.128662 C 44.642328 50.68182 43.971504 50.428963 43.259375 50.428963 L 39.345402 50.428963 C 39.321619 49.827995 39.311752 49.225465 39.318014 48.622872 L 37.356893 48.622872 L 37.356893 46.695858 A 12.281818 12.281818 0 0 0 43.870707 35.853109 A 12.281818 12.281818 0 0 0 42.491463 30.201257 L 52.401453 30.201257 L 52.401453 27.664978 L 42.635124 27.664978 L 42.635124 25.624276 L 42.252201 25.624276 C 41.74635 19.402722 39.832904 13.877892 36.987923 10.67015 C 35.340437 8.8125959 33.504368 14.72496 31.665767 14.699361 C 30.041563 14.676742 28.415244 10.307447 26.915153 10.290845 z M 68.869181 89.85343 C 68.913121 89.94349 68.934947 89.950132 68.988037 90.148503 C 69.113504 90.617335 69.203765 91.351564 69.25262 92.273954 L 69.172005 92.275505 L 69.174072 92.468774 L 69.175623 92.560758 L 69.265023 92.560242 C 69.284003 93.010071 69.295073 93.494959 69.294995 94.017517 C 69.294925 94.482666 69.287959 94.978487 69.276908 95.494946 L 69.109477 95.488228 L 69.101725 95.67168 L 69.097591 95.779167 L 69.269157 95.786918 C 69.246739 96.715411 69.212249 97.713471 69.172005 98.780534 L 68.951347 98.769682 L 68.935327 99.068372 L 69.160636 99.07974 C 69.124144 100.04097 69.085369 101.04088 69.050049 102.09196 L 68.798901 102.08214 L 68.787016 102.38083 L 69.040747 102.39117 C 69.008775 103.37105 68.981242 104.38239 68.962199 105.42354 L 68.701233 105.41992 L 68.697099 105.71861 L 68.956514 105.72223 C 68.947278 106.28205 68.940864 106.84895 68.937911 107.4229 L 68.683663 107.42393 L 68.68573 107.72469 L 68.936877 107.72366 C 68.936497 107.85307 68.935327 107.98119 68.935327 108.11123 C 68.935327 109.00782 68.94562 109.8886 68.961165 110.75345 L 68.730688 110.75965 L 68.73844 111.05885 L 68.966333 111.05265 C 68.986714 112.0873 69.015584 113.09546 69.047982 114.07004 L 68.847477 114.07831 L 68.859363 114.37906 L 69.058317 114.3708 C 69.094011 115.41539 69.132465 116.41737 69.168388 117.3732 L 68.997856 117.38095 L 69.011808 117.67964 L 69.17924 117.67189 C 69.218776 118.73373 69.252535 119.72596 69.273291 120.65 L 69.136865 120.65413 L 69.144617 120.95489 L 69.280526 120.95076 C 69.289469 121.41062 69.294933 121.85263 69.294995 122.27161 C 69.29508 122.84404 69.282228 123.37297 69.259855 123.85911 L 69.162187 123.85549 L 69.152368 124.13661 L 69.246419 124.14126 C 69.196158 125.02445 69.108146 125.73095 68.986487 126.19126 C 68.932717 126.39469 68.908604 126.40479 68.863497 126.49822 C 68.834355 126.48023 68.782096 126.46825 68.68573 126.37678 L 68.607699 126.28738 L 68.56274 126.23054 L 68.558089 126.23467 C 68.478112 126.13621 68.381272 126.00128 68.257849 125.80059 C 67.956749 125.31098 67.639589 124.61539 67.336458 123.75937 L 67.326123 123.73043 L 67.325606 123.73043 C 67.135192 123.18974 66.950654 122.5864 66.779386 121.92796 C 66.703036 121.63443 66.629831 121.3261 66.558211 121.01174 L 66.558728 121.01174 L 66.553044 120.98796 C 66.53649 120.91506 66.519723 120.84232 66.503434 120.76834 L 66.4962 120.73423 L 66.495683 120.73423 C 65.935662 118.17855 65.535098 114.99064 65.378438 111.47278 L 65.378955 111.47278 L 65.365002 111.17203 L 65.364486 111.17203 C 65.325838 110.21376 65.305786 109.23188 65.305058 108.23267 L 65.306608 108.23267 L 65.304541 108.17014 L 65.306608 107.94328 L 65.306091 107.94328 C 65.309211 106.94343 65.331714 105.96174 65.372754 105.00393 L 65.373271 105.00393 L 65.374821 104.96827 C 65.553484 100.84646 66.066439 97.170812 66.779386 94.429895 C 67.226173 92.712233 67.763895 91.359959 68.257849 90.556746 C 68.663756 89.896708 68.81523 89.887039 68.869181 89.85343 z " /></g><g
     inkscape:groupmode="layer"
     id="layer1"
     inkscape:label="real"><g
       id="g5059"
       transform="translate(-52.827145,26.31013)"><g
         id="g5043"
         transform="translate(42.770017,-21.050954)"
         style="display:inline"><g
           id="g5001"
           inkscape:label="head"
           transform="matrix(1.1571985,0,0,1.1571985,-3.0625947,-18.444005)"><rect
             style="opacity:1;fill:#ffcc00;fill-opacity:1;stroke:none;stroke-width:2.63388;stroke-linecap:square"
             id="rect4997"
             width="9.9690962"
             height="9.1902609"
             x="33.650558"
             y="50.377213" /><circle
             style="opacity:1;fill:#ffcc00;fill-opacity:1;stroke:none;stroke-width:3.14848;stroke-linecap:square"
             id="circle4999"
             cx="38.635105"
             cy="42.37645"
             r="10.613407" /></g><g
           id="g5011"
           style="display:inline"
           transform="matrix(-1.0159742,0,0,1.0159742,80.814617,2.1548629)"
           inkscape:label="shoes"><rect
             style="display:inline;opacity:1;fill:#803300;fill-opacity:1;stroke:none;stroke-width:7.17952;stroke-linecap:square;stroke-linejoin:round;stroke-dasharray:none;stroke-opacity:1"
             id="rect5003"
             width="8.2692204"
             height="13.765817"
             x="65.856903"
             y="120.24144"
             transform="translate(-40.834227,1.4669458)" /><rect
             style="display:inline;opacity:1;fill:#803300;fill-opacity:1;stroke:none;stroke-width:10.2762;stroke-linecap:square;stroke-linejoin:round;stroke-dasharray:none;stroke-opacity:1"
             id="rect5005"
             width="19.448647"
             height="7.277873"
             x="56.132584"
             y="129.13843"
             rx="2.836376"
             ry="2.7431908"
             transform="translate(-40.834227,1.4669458)" /><rect
             style="display:inline;opacity:1;fill:#803300;fill-opacity:1;stroke:none;stroke-width:7.17952;stroke-linecap:square;stroke-linejoin:round;stroke-dasharray:none;stroke-opacity:1"
             id="rect5007"
             width="8.2692204"
             height="13.765817"
             x="-51.520599"
             y="121.70839"
             transform="scale(-1,1)" /><rect
             style="display:inline;opacity:1;fill:#803300;fill-opacity:1;stroke:none;stroke-width:10.2762;stroke-linecap:square;stroke-linejoin:round;stroke-dasharray:none;stroke-opacity:1"
             id="rect5009"
             width="19.448647"
             height="7.277873"
             x="-61.244919"
             y="130.60538"
             rx="2.836376"
             ry="2.7431908"
             transform="scale(-1,1)" /></g><g
           id="g5015"
           inkscape:label="torso"
           transform="matrix(1.1571985,0,0,1.1571985,-3.0625947,-18.444005)"><path
             id="path5013"
             style="opacity:1;fill:#a02c2c;stroke-width:2.77409;stroke-linecap:square"
             d="m 29.16915,54.972347 h 19.551222 c 2.095959,0 3.783321,2.520007 3.783321,5.650239 v 29.198973 c 0,3.130232 -1.687362,5.650239 -3.783321,5.650239 H 29.16915 c -2.095959,0 -3.783321,-2.520007 -3.783321,-5.650239 V 60.622586 c 0,-3.130232 1.687362,-5.650239 3.783321,-5.650239 z"
             sodipodi:nodetypes="sssssssss" /></g><g
           id="g5019"
           transform="matrix(0.99329015,0,0,1.0159742,-36.931882,3.645242)"
           inkscape:label="pants"
           style="stroke-width:1.00043;stroke-dasharray:none"><path
             id="path5017"
             style="opacity:1;fill:#2d2dd1;fill-opacity:1;stroke-linecap:square;stroke-linejoin:round"
             d="m 63.673136,79.661497 v 10.808075 33.911488 c 0,1.51973 1.223059,2.74309 2.742785,2.74309 h 7.315308 c 1.519726,0 2.743305,-1.22336 2.743305,-2.74309 V 92.872384 a 3.4128591,3.7654886 0 0 1 1.288152,-1.459286 3.4128591,3.7654886 0 0 1 3.412874,0 3.4128591,3.7654886 0 0 1 1.288672,1.455725 v 31.512237 c 0,1.51973 1.223579,2.74309 2.743305,2.74309 h 7.314788 c 1.519725,0 2.743305,-1.22336 2.743305,-2.74309 V 82.404589 79.661497 Z" /></g><g
           id="g5025"
           inkscape:label="leftArm"
           style="display:inline"
           transform="matrix(1.1571985,0,0,1.1571985,-3.0625947,-18.626936)"><path
             style="color:#000000;fill:#a02c2c;fill-opacity:1;stroke-linecap:round;stroke-linejoin:round;-inkscape-stroke:none"
             d="m 29.154297,55.183594 a 3.95082,3.95082 0 0 0 -2.945313,0.685547 c -2.676115,1.915154 -5.059792,4.223659 -7.058593,6.83789 -6.673293,8.727992 -8.59884,20.577264 -5.03125,30.96875 a 3.95082,3.95082 0 0 0 5.019531,2.455078 3.95082,3.95082 0 0 0 2.455078,-5.019531 c -2.665034,-7.762568 -1.151047,-17.085552 3.833984,-23.605469 1.520405,-1.988536 3.343296,-3.754158 5.378907,-5.210937 a 3.95082,3.95082 0 0 0 0.914062,-5.513672 3.95082,3.95082 0 0 0 -2.566406,-1.597656 z"
             id="path5021" /><circle
             style="display:inline;fill:#ffcc00;fill-opacity:1;stroke:none;stroke-width:8.83079;stroke-linecap:square;stroke-linejoin:round;stroke-dasharray:none;stroke-opacity:1"
             id="circle5023"
             cx="17.856539"
             cy="92.393829"
             r="4.4154224" /></g><g
           id="g5033"
           inkscape:label="rightArm"
           style="display:inline"
           transform="matrix(1.1571985,0,0,1.1571985,9.3212993,-18.870209)"><path
             style="display:none;fill:none;stroke:#ff0000;stroke-width:7.90164;stroke-linecap:round;stroke-linejoin:round;stroke-dasharray:none;stroke-opacity:1"
             d="m 37.638536,59.29147 c 7.909778,16.438308 6.170487,19.482501 14.641693,22.978013"
             id="path5027"
             sodipodi:nodetypes="cc" /><path
             style="color:#000000;fill:#a02c2c;fill-opacity:1;stroke-linecap:round;stroke-linejoin:round;-inkscape-stroke:none"
             d="m 38.945312,55.5625 a 3.95082,3.95082 0 0 0 -3.019531,0.167969 3.95082,3.95082 0 0 0 -1.847656,5.273437 c 3.864509,8.031325 5.266199,12.624026 7.130859,16.384766 1.864661,3.76074 4.866901,6.594831 9.564453,8.533203 a 3.95082,3.95082 0 0 0 5.158204,-2.144531 3.95082,3.95082 0 0 0 -2.144532,-5.160157 C 50.013464,77.060051 49.649999,76.623711 48.289062,73.878906 46.928126,71.134102 45.244479,65.985092 41.199219,57.578125 A 3.95082,3.95082 0 0 0 38.945312,55.5625 Z"
             id="path5029" /><circle
             style="opacity:1;fill:#ffcc00;fill-opacity:1;stroke:none;stroke-width:8.83079;stroke-linecap:square;stroke-linejoin:round;stroke-dasharray:none;stroke-opacity:1"
             id="circle5031"
             cx="52.280228"
             cy="82.269485"
             r="4.4154224" /></g><g
           id="g5039"
           transform="matrix(1.0735679,0,0,1.2957534,65.998855,-4.1767737)"
           inkscape:label="hat"><rect
             style="opacity:1;fill:#aa4400;fill-opacity:1;stroke:none;stroke-width:8.22956;stroke-linecap:square;stroke-linejoin:round;stroke-dasharray:none;stroke-opacity:1"
             id="rect5035"
             width="38.773376"
             height="1.9571744"
             x="-42.070827"
             y="20.515234" /><path
             id="path5037"
             style="opacity:1;fill:#aa4400;stroke-width:8.22956;stroke-linecap:square;stroke-linejoin:round"
             transform="scale(1,-1)"
             d="m -12.625772,-21.493822 c 0,5.814418 -1.917114,11.187162 -5.029183,14.0943715 -1.534591,1.4335723 -3.244779,-3.1292345 -4.957388,-3.1094785 -1.760471,0.02031 -3.5235,4.583115 -5.100978,3.1094782 -3.112069,-2.9072092 -5.029182,-8.2799532 -5.029182,-14.0943712 h 10.058366 z"
             sodipodi:nodetypes="csssccc" /></g><rect
           style="fill:#2b1100;stroke:none;stroke-width:6.03398;stroke-linecap:round;stroke-linejoin:round;stroke-miterlimit:0;stop-color:#000000"
           id="rect5041"
           width="22.092842"
           height="2.0410199"
           x="30.59947"
           y="20.364889" /></g><g
         id="g5047"
         inkscape:label="vest"
         style="fill:#a05a2c"
         transform="translate(-1.5875)"><path
           id="path5045"
           style="display:inline;fill:#a05a2c;fill-opacity:1;stroke:none;stroke-width:4.19463;stroke-linecap:square"
           d="m 31.954666,53.411339 c 0.04122,3.97105 -0.681399,7.960056 -2.017259,11.070077 -1.411752,3.286745 -3.494339,5.561886 -5.731042,6.261081 -0.268254,0.08385 -0.539257,0.145456 -0.81112,0.178688 v 21.438956 h 10.96668 v -32.487952 -6.46085 z m 10.990771,0 V 92.360141 H 53.874974 V 70.921185 c -0.272043,-0.03321 -0.543224,-0.09477 -0.811622,-0.178688 -2.236704,-0.699191 -4.318778,-2.974344 -5.73054,-6.261081 -1.33585,-3.110017 -2.059523,-7.099039 -2.018262,-11.070077 z"
           transform="matrix(1.1571985,0,0,1.1571985,41.294923,-39.494959)" /></g><g
         id="g5057"
         inkscape:label="rope"
         transform="translate(-1.5875)"><path
           style="fill:none;stroke:#ffe680;stroke-width:3;stroke-linecap:butt;stroke-linejoin:miter;stroke-dasharray:none;stroke-opacity:1"
           d="m 105.70544,94.627936 c 0,0 3.18844,-10.209955 5.10202,-22.278305 1.44459,-9.110603 1.02952,-19.594028 4.37053,-25.770742 0.91102,-1.684253 2.19413,-4.025668 4.10895,-4.014541 1.54493,0.009 2.63104,1.874069 3.27734,3.277343 2.27827,4.946677 1.27007,16.288898 1.27007,16.288898"
           id="path5049"
           sodipodi:nodetypes="cssaac" /><path
           style="fill:none;stroke:#d45500;stroke-width:3;stroke-linecap:butt;stroke-linejoin:miter;stroke-dasharray:0.3, 3;stroke-dashoffset:0;stroke-opacity:1"
           d="m 105.70689,94.660607 c 0,0 3.081,-10.013605 5.0702,-22.310976 1.44629,-8.941005 1.13271,-19.6933 4.40235,-25.738071 0.91102,-1.684253 2.19413,-4.025668 4.10895,-4.014541 1.54493,0.009 2.63104,1.874069 3.27734,3.277343 2.27827,4.946677 1.27007,16.288898 1.27007,16.288898"
           id="path5051"
           sodipodi:nodetypes="cssaac" /><path
           id="path5053"
           style="fill:none;stroke:#ffe680;stroke-width:3;stroke-linecap:round;stroke-linejoin:round;stroke-miterlimit:0;stroke-dasharray:none;stop-color:#000000"
           d="m 124.8494,81.800825 c 0,11.033312 1.43711,20.044815 -1.4328,20.044805 -2.8699,-2e-5 -5.19642,-8.944279 -5.19642,-19.977576 0,-11.033298 2.32652,-19.977557 5.19642,-19.977572 2.86991,-6e-6 1.4328,8.877031 1.4328,19.910343 z"
           sodipodi:nodetypes="sssss" /><path
           id="path5055"
           style="fill:none;fill-opacity:1;stroke:#d45500;stroke-width:3;stroke-linecap:butt;stroke-linejoin:miter;stroke-miterlimit:0;stroke-dasharray:0.3, 3;stroke-dashoffset:0;stroke-opacity:1;stop-color:#000000"
           d="m 124.5985,81.107715 c 0,11.033313 1.68802,20.730315 -1.18189,20.730305 -2.8699,-2e-5 -5.19642,-8.94428 -5.19642,-19.977578 0,-11.033297 2.32652,-19.977556 5.19642,-19.977571 2.86991,-6e-6 1.18189,8.191532 1.18189,19.224844 z"
           sodipodi:nodetypes="sssss" /></g></g></g></svg>
