<?xml version="1.0" encoding="UTF-8" standalone="no"?>
<!-- Created with Inkscape (http://www.inkscape.org/) -->

<svg
   width="75.000008mm"
   height="150mm"
   viewBox="0 0 75.000005 150"
   version="1.1"
   id="svg5"
   xml:space="preserve"
   inkscape:version="1.2 (dc2aedaf03, 2022-05-15)"
   sodipodi:docname="Miner.svg"
   xmlns:inkscape="http://www.inkscape.org/namespaces/inkscape"
   xmlns:sodipodi="http://sodipodi.sourceforge.net/DTD/sodipodi-0.dtd"
   xmlns="http://www.w3.org/2000/svg"
   xmlns:svg="http://www.w3.org/2000/svg"><sodipodi:namedview
     id="namedview7"
     pagecolor="#ffffff"
     bordercolor="#666666"
     borderopacity="1.0"
     inkscape:showpageshadow="2"
     inkscape:pageopacity="0.0"
     inkscape:pagecheckerboard="0"
     inkscape:deskcolor="#d1d1d1"
     inkscape:document-units="mm"
     showgrid="false"
     inkscape:zoom="1.4912879"
     inkscape:cx="4.6939293"
     inkscape:cy="390.26669"
     inkscape:window-width="1920"
     inkscape:window-height="1017"
     inkscape:window-x="-8"
     inkscape:window-y="-8"
     inkscape:window-maximized="1"
     inkscape:current-layer="layer3" /><defs
     id="defs2"><inkscape:path-effect
       effect="spiro"
       id="path-effect1806"
       is_visible="true"
       lpeversion="1" /><inkscape:path-effect
       effect="spiro"
       id="path-effect8447"
       is_visible="true"
       lpeversion="1" /><inkscape:path-effect
       effect="spiro"
       id="path-effect7278"
       is_visible="true"
       lpeversion="1" /><inkscape:path-effect
       effect="spiro"
       id="path-effect7274"
       is_visible="true"
       lpeversion="1" /><pattern
       id="EMFhbasepattern"
       patternUnits="userSpaceOnUse"
       width="6"
       height="6"
       x="0"
       y="0" /><inkscape:path-effect
       effect="spiro"
       id="path-effect7278-6"
       is_visible="true"
       lpeversion="1" /><inkscape:path-effect
       effect="spiro"
       id="path-effect1806-9"
       is_visible="true"
       lpeversion="1" /></defs><g
     inkscape:groupmode="layer"
     id="layer3"
     inkscape:label="Layer 2"
     style="display:inline"
     transform="translate(-3.9770164,-0.75272654)"><g
       id="g2979"
       transform="translate(1.5412369,-4.346e-5)"><path
         id="rect2907"
         style="fill:#ffcc00;fill-opacity:1;stroke:#000000;stroke-width:5;stroke-linecap:round;stroke-linejoin:round;stroke-dasharray:none"
         d="m 34.453824,14.849541 c -0.172525,0 -0.311609,0.139083 -0.311609,0.311608 v 1.330152 a 13.306451,16.379862 0 0 0 -3.903121,1.837614 13.306451,16.379862 0 0 0 -6.647139,13.93765 h -1.092957 c -0.184221,0 -0.332279,0.148058 -0.332279,0.33228 v 0.306958 c 0,0.184221 0.148058,0.332279 0.332279,0.332279 h 2.589506 a 12.281818,12.281818 0 0 0 -0.478007,3.367753 12.281818,12.281818 0 0 0 6.513815,10.833448 v 3.742407 h -5.802747 c -0.0281,0 -0.05575,0.0024 -0.08372,0.0031 a 4.571883,4.571883 0 0 0 -2.724898,0.852145 c -3.096793,2.21621 -5.854969,4.887514 -8.167977,7.912695 -7.2292478,9.455125 -9.643189,22.075583 -6.5350015,33.514233 a 5.1095204,5.1095204 0 0 0 -0.07183,0.839226 5.1095204,5.1095204 0 0 0 5.1092485,5.109249 5.1095204,5.1095204 0 0 0 5.109766,-5.109249 5.1095204,5.1095204 0 0 0 -1.388546,-3.501079 C 14.477914,82.68212 16.089098,73.451333 20.843802,66.556462 v 24.952999 10.062439 34.45319 c 0,1.37838 0.991123,2.51615 2.302185,2.74454 v 2.08876 h -6.998022 c -1.596452,0 -2.881478,1.24342 -2.881478,2.78742 v 1.82005 c 0,1.544 1.285026,2.78691 2.881478,2.78691 H 30.14401 c 1.596451,0 2.881994,-1.24291 2.881994,-2.78691 v -1.82005 c 0,-1.05036 -0.595522,-1.96135 -1.478462,-2.43654 v -2.43964 c 1.311169,-0.2283 2.302185,-1.36608 2.302185,-2.74454 v -32.01148 a 3.4673768,3.8256393 0 0 1 1.308964,-1.48312 3.4673768,3.8256393 0 0 1 3.467488,0 3.4673768,3.8256393 0 0 1 1.308964,1.47898 v 32.01562 c 0,1.37838 0.991124,2.51615 2.302185,2.74454 v 2.43964 c -0.88294,0.47519 -1.478462,1.38618 -1.478462,2.43654 v 1.82005 c 0,1.544 1.285543,2.78691 2.881994,2.78691 h 13.996045 c 1.596452,0 2.881478,-1.24291 2.881478,-2.78691 v -1.82005 c 0,-1.544 -1.285026,-2.78742 -2.881478,-2.78742 h -6.998022 v -2.08876 c 1.311169,-0.2283 2.302185,-1.36608 2.302185,-2.74454 V 93.378081 90.591171 77.55114 c 1.839067,3.313976 4.521521,5.96447 8.36073,7.969539 a 5.1095204,5.1095204 0 0 0 2.019515,1.529622 v 6.487976 c 0,0.697239 0.561599,1.258838 1.258838,1.258838 h 0.460953 c 0.697239,0 1.258322,-0.561599 1.258322,-1.258838 v -6.185152 a 5.1095204,5.1095204 0 0 0 4.11396,-5.00848 5.1095204,5.1095204 0 0 0 -4.11396,-5.011063 V 45.710189 a 44.085126,44.085126 0 0 1 10.998811,1.779736 18.075597,17.718121 0 0 0 -10.998811,-4.838464 v -0.95188 c 0,-0.697238 -0.561083,-1.258321 -1.258322,-1.258321 h -0.460953 c -0.697239,0 -1.258838,0.561083 -1.258838,1.258321 v 0.95343 a 18.075597,17.718121 0 0 0 -10.998812,4.854484 44.085126,44.085126 0 0 1 10.998812,-1.795239 v 30.574361 c -1.177404,-0.830268 -1.705225,-1.774192 -2.636015,-3.651456 -1.574871,-3.17628 -3.523503,-9.134929 -8.204667,-18.863448 a 4.571883,4.571883 0 0 0 -2.60811,-2.332158 4.571883,4.571883 0 0 0 -0.720369,-0.180867 c -0.224499,-0.05021 -0.454436,-0.077 -0.688847,-0.077 H 42.660558 V 47.439281 A 12.281818,12.281818 0 0 0 49.174373,36.605833 12.281818,12.281818 0 0 0 48.703084,33.23808 h 2.98173 c 0.184221,0 0.332796,-0.148058 0.332796,-0.332279 v -0.306958 c 0,-0.184222 -0.148575,-0.33228 -0.332796,-0.33228 h -1.487248 a 13.306451,16.379862 0 0 0 -6.65179,-13.93765 13.306451,16.379862 0 0 0 -3.903121,-1.837614 v -1.330152 c 0,-0.172525 -0.139084,-0.311608 -0.311609,-0.311608 z" /></g><g
       id="g3123"
       transform="translate(1.5412369,-4.346e-5)"><g
         id="g3115"
         transform="matrix(1.093617,0,0,1.093617,-9.574722,-4.6069422)"><g
           id="g3049"
           inkscape:label="head"
           transform="matrix(1.0581387,0,0,1.0581387,1.608131,-7.1552174)"><rect
             style="opacity:1;fill:#ffcc00;fill-opacity:1;stroke:none;stroke-width:2.63388;stroke-linecap:square"
             id="rect3045"
             width="9.9690962"
             height="9.1902609"
             x="33.650558"
             y="50.377213" /><circle
             style="opacity:1;fill:#ffcc00;fill-opacity:1;stroke:none;stroke-width:3.14848;stroke-linecap:square"
             id="circle3047"
             cx="38.635105"
             cy="42.37645"
             r="10.613407" /></g><g
           id="g3055"
           inkscape:label="leftArm"
           style="display:inline"
           transform="matrix(1.0581387,0,0,1.0581387,1.608131,-7.3224887)"><path
             style="color:#000000;fill:#008080;fill-opacity:1;stroke-linecap:round;stroke-linejoin:round;-inkscape-stroke:none"
             d="m 29.154297,55.183594 a 3.95082,3.95082 0 0 0 -2.945313,0.685547 c -2.676115,1.915154 -5.059792,4.223659 -7.058593,6.83789 -6.673293,8.727992 -8.59884,20.577264 -5.03125,30.96875 a 3.95082,3.95082 0 0 0 5.019531,2.455078 3.95082,3.95082 0 0 0 2.455078,-5.019531 c -2.665034,-7.762568 -1.151047,-17.085552 3.833984,-23.605469 1.520405,-1.988536 3.343296,-3.754158 5.378907,-5.210937 a 3.95082,3.95082 0 0 0 0.914062,-5.513672 3.95082,3.95082 0 0 0 -2.566406,-1.597656 z"
             id="path3051" /><circle
             style="display:inline;fill:#ffcc00;fill-opacity:1;stroke:none;stroke-width:8.83079;stroke-linecap:square;stroke-linejoin:round;stroke-dasharray:none;stroke-opacity:1"
             id="circle3053"
             cx="17.856539"
             cy="92.393829"
             r="4.4154224" /></g><g
           id="g3077"
           inkscape:label="torso"
           transform="matrix(1.0581387,0,0,1.0581387,1.608131,-7.1552174)"
           style="fill:#008080"><rect
             style="opacity:1;fill:#008080;fill-opacity:1;stroke:none;stroke-width:2.80559;stroke-linecap:square"
             id="rect3057"
             width="27.737171"
             height="40.499451"
             x="24.766521"
             y="54.972347"
             rx="3.8697224"
             ry="5.650239" /><rect
             style="display:inline;fill:#808080;fill-opacity:1;stroke:none;stroke-width:4.32077;stroke-linecap:round;stroke-linejoin:round;stroke-dasharray:none"
             id="rect3059"
             width="6.3626966"
             height="5.0997896"
             x="35.453758"
             y="54.972347" /><path
             sodipodi:type="star"
             style="fill:#005757;fill-opacity:1;stroke:none;stroke-width:4.32077;stroke-linecap:round;stroke-linejoin:round"
             id="path3061"
             inkscape:flatsided="true"
             sodipodi:sides="3"
             sodipodi:cx="-414.41449"
             sodipodi:cy="170.5009"
             sodipodi:r1="136.90146"
             sodipodi:r2="68.450729"
             sodipodi:arg1="0.26179939"
             sodipodi:arg2="1.3089969"
             inkscape:rounded="0"
             inkscape:randomized="0"
             d="m -282.17784,205.93361 -229.0406,61.37124 61.37125,-229.040604 z"
             transform="matrix(0.03615558,0,0,0.03615558,51.718244,53.588881)"
             inkscape:transform-center-x="-0.74123753"
             inkscape:transform-center-y="-0.74123725" /><path
             sodipodi:type="star"
             style="display:inline;fill:#006868;fill-opacity:1;stroke:none;stroke-width:4.32077;stroke-linecap:round;stroke-linejoin:round"
             id="path3063"
             inkscape:flatsided="true"
             sodipodi:sides="3"
             sodipodi:cx="-414.41449"
             sodipodi:cy="170.5009"
             sodipodi:r1="136.90146"
             sodipodi:r2="68.450729"
             sodipodi:arg1="0.26179939"
             sodipodi:arg2="1.3089969"
             inkscape:rounded="0"
             inkscape:randomized="0"
             d="m -282.17784,205.93361 -229.0406,61.37124 61.37125,-229.040604 z"
             transform="matrix(-0.03615558,0,0,0.03615558,25.55197,53.588881)"
             inkscape:transform-center-x="0.74123729"
             inkscape:transform-center-y="-0.74123725" /><rect
             style="fill:#006868;fill-opacity:1;stroke:none;stroke-width:4.61687;stroke-linecap:round;stroke-linejoin:round"
             id="rect3065"
             width="2.964927"
             height="27.784727"
             x="35.754272"
             y="61.034531" /><circle
             style="fill:#806600;fill-opacity:1;stroke:none;stroke-width:6.04117;stroke-linecap:round;stroke-linejoin:round"
             id="circle3067"
             cx="40.219707"
             cy="65.476135"
             r="1.296234" /><circle
             style="display:inline;fill:#806600;fill-opacity:1;stroke:none;stroke-width:6.04117;stroke-linecap:round;stroke-linejoin:round"
             id="circle3069"
             cx="40.219707"
             cy="75.469589"
             r="1.296234" /><circle
             style="display:inline;fill:#806600;fill-opacity:1;stroke:none;stroke-width:6.04117;stroke-linecap:round;stroke-linejoin:round"
             id="circle3071"
             cx="40.219707"
             cy="85.463036"
             r="1.296234" /><circle
             style="display:inline;fill:#806600;fill-opacity:1;stroke:none;stroke-width:6.04117;stroke-linecap:round;stroke-linejoin:round"
             id="circle3073"
             cx="40.219707"
             cy="80.466309"
             r="1.296234" /><circle
             style="display:inline;fill:#806600;fill-opacity:1;stroke:none;stroke-width:6.04117;stroke-linecap:round;stroke-linejoin:round"
             id="circle3075"
             cx="40.219707"
             cy="70.472862"
             r="1.296234" /></g><g
           id="g3087"
           style="display:inline"
           transform="matrix(-0.92900362,0,0,0.92900362,78.305194,11.680324)"
           inkscape:label="shoes"><rect
             style="display:inline;opacity:1;fill:#803300;fill-opacity:1;stroke:none;stroke-width:7.17952;stroke-linecap:square;stroke-linejoin:round;stroke-dasharray:none;stroke-opacity:1"
             id="rect3079"
             width="8.2692204"
             height="13.765817"
             x="65.856903"
             y="120.24144"
             transform="translate(-40.834227,1.4669458)" /><rect
             style="display:inline;opacity:1;fill:#803300;fill-opacity:1;stroke:none;stroke-width:10.2762;stroke-linecap:square;stroke-linejoin:round;stroke-dasharray:none;stroke-opacity:1"
             id="rect3081"
             width="19.448647"
             height="7.277873"
             x="56.132584"
             y="129.13843"
             rx="2.836376"
             ry="2.7431908"
             transform="translate(-40.834227,1.4669458)" /><rect
             style="display:inline;opacity:1;fill:#803300;fill-opacity:1;stroke:none;stroke-width:7.17952;stroke-linecap:square;stroke-linejoin:round;stroke-dasharray:none;stroke-opacity:1"
             id="rect3083"
             width="8.2692204"
             height="13.765817"
             x="65.856903"
             y="120.24144"
             transform="matrix(-1,0,0,1,117.93998,1.4669458)" /><rect
             style="display:inline;opacity:1;fill:#803300;fill-opacity:1;stroke:none;stroke-width:10.2762;stroke-linecap:square;stroke-linejoin:round;stroke-dasharray:none;stroke-opacity:1"
             id="rect3085"
             width="19.448647"
             height="7.277873"
             x="56.132584"
             y="129.13843"
             rx="2.836376"
             ry="2.7431908"
             transform="matrix(-1,0,0,1,117.93998,1.4669458)" /></g><g
           id="g3097"
           transform="matrix(0.92900362,0,0,0.92900362,-31.337863,13.043122)"
           inkscape:label="pants"
           style="fill:#000080"><rect
             style="opacity:1;fill:#008080;fill-opacity:1;stroke:none;stroke-width:7.12338;stroke-linecap:square;stroke-linejoin:round;stroke-dasharray:none;stroke-opacity:1"
             id="rect3089"
             width="31.592743"
             height="10.8081"
             x="63.672962"
             y="79.661285" /><rect
             style="opacity:1;fill:#008080;fill-opacity:1;stroke:none;stroke-width:2.67632;stroke-linecap:square"
             id="rect3091"
             width="12.801557"
             height="47.463066"
             x="63.672962"
             y="79.661285"
             rx="2.7431908"
             ry="2.7431908" /><rect
             style="opacity:1;fill:#008080;fill-opacity:1;stroke:none;stroke-width:2.67632;stroke-linecap:square"
             id="rect3093"
             width="12.801557"
             height="47.463066"
             x="82.464142"
             y="79.661285"
             rx="2.7431908"
             ry="2.7431908" /><path
             id="path3095"
             style="display:inline;opacity:1;fill:#008080;fill-opacity:1;stroke:none;stroke-width:7.67683;stroke-linecap:square;stroke-linejoin:round;stroke-dasharray:none;stroke-opacity:1"
             d="m 73.636923,88.154733 v 6.519519 h 2.419661 a 3.4128591,3.7654886 0 0 1 1.706271,-3.261389 3.4128591,3.7654886 0 0 1 3.412953,0 3.4128591,3.7654886 0 0 1 1.706271,3.261389 h 2.419661 v -6.519519 z" /></g><g
           id="g3107"
           transform="matrix(1.0581387,0,0,1.0581387,27.556785,12.469147)"
           inkscape:label="hat"><path
             style="display:inline;fill:#d45500;stroke:none;stroke-width:3.79874;stroke-linecap:round;stroke-linejoin:round"
             id="path3099"
             sodipodi:type="arc"
             sodipodi:cx="14.112182"
             sodipodi:cy="-20.294304"
             sodipodi:rx="11.498849"
             sodipodi:ry="14.154756"
             sodipodi:start="0"
             sodipodi:end="3.1415927"
             sodipodi:arc-type="slice"
             d="m 25.611031,-20.294304 a 11.498849,14.154756 0 0 1 -5.749425,12.2583781 11.498849,14.154756 0 0 1 -11.4988491,-3e-7 A 11.498849,14.154756 0 0 1 2.6133327,-20.294304 H 14.112182 Z"
             transform="scale(1,-1)" /><rect
             style="display:inline;fill:#aa4400;stroke:none;stroke-width:4.18136;stroke-linecap:round;stroke-linejoin:round"
             id="rect3101"
             width="4.7528582"
             height="15.264928"
             x="11.735753"
             y="5.0293789"
             ry="0.26911336" /><rect
             style="display:inline;fill:#aa4400;stroke:none;stroke-width:4.32077;stroke-linecap:round;stroke-linejoin:round"
             id="rect3103"
             width="25.795755"
             height="0.83976614"
             x="1.3867806"
             y="20.080315"
             ry="0.28735808" /><path
             style="display:inline;fill:#aa4400;stroke:none;stroke-width:3.69426;stroke-linecap:round;stroke-linejoin:round"
             id="path3105"
             sodipodi:type="arc"
             sodipodi:cx="14.284655"
             sodipodi:cy="20.658447"
             sodipodi:rx="9.4286861"
             sodipodi:ry="2.3402565"
             sodipodi:start="0"
             sodipodi:end="3.1415927"
             sodipodi:arc-type="slice"
             d="m 23.713341,20.658447 a 9.4286861,2.3402565 0 0 1 -4.714343,2.026722 9.4286861,2.3402565 0 0 1 -9.4286867,0 9.4286861,2.3402565 0 0 1 -4.7143428,-2.026722 h 9.4286865 z" /></g><g
           id="g3113"
           inkscape:label="rightArm"
           style="display:inline;stroke-width:5;stroke-dasharray:none"
           transform="matrix(1.0581387,0,0,1.0581387,13.148936,-7.5442864)"><path
             style="color:#000000;fill:#008080;fill-opacity:1;stroke-linecap:round;stroke-linejoin:round;-inkscape-stroke:none"
             d="m 38.945312,55.5625 a 3.95082,3.95082 0 0 0 -3.019531,0.167969 3.95082,3.95082 0 0 0 -1.847656,5.273437 c 3.864509,8.031325 5.266199,12.624026 7.130859,16.384766 1.864661,3.76074 4.866901,6.594831 9.564453,8.533203 a 3.95082,3.95082 0 0 0 5.158204,-2.144531 3.95082,3.95082 0 0 0 -2.144532,-5.160157 C 50.013464,77.060051 49.649999,76.623711 48.289062,73.878906 46.928126,71.134102 45.244479,65.985092 41.199219,57.578125 A 3.95082,3.95082 0 0 0 38.945312,55.5625 Z"
             id="path3109" /><circle
             style="opacity:1;fill:#ffcc00;fill-opacity:1;stroke:none;stroke-width:8.83079;stroke-linecap:square;stroke-linejoin:round;stroke-dasharray:none;stroke-opacity:1"
             id="circle3111"
             cx="52.280228"
             cy="82.269485"
             r="4.4154224" /></g></g><g
         id="g3121"
         inkscape:label="pickaxe"
         transform="translate(-20.886959,9.1718666)"><rect
           style="fill:#2b1100;fill-opacity:1;stroke:none;stroke-width:19.6409;stroke-linecap:square;stroke-linejoin:round;stroke-dasharray:none"
           id="rect3117"
           width="2.9778888"
           height="54.355801"
           x="84.208473"
           y="31.269312"
           ry="1.2585543" /><path
           id="path3119"
           style="fill:#666666;fill-opacity:1;stroke:none;stroke-width:6.96042;stroke-linecap:round;stroke-linejoin:round"
           d="m 85.701015,33.412822 a 18.075597,17.718121 0 0 0 -12.491333,4.922723 44.085126,44.085126 0 0 1 12.491333,-1.82363 44.085126,44.085126 0 0 1 12.484138,1.806366 18.075597,17.718121 0 0 0 -12.484138,-4.905459 z" /></g></g></g></svg>
