<?xml version="1.0" encoding="UTF-8" standalone="no"?>
<!-- Created with Inkscape (http://www.inkscape.org/) -->

<svg
   width="150mm"
   height="100mm"
   viewBox="0 0 150 100"
   version="1.1"
   id="svg5"
   inkscape:version="1.2 (dc2aedaf03, 2022-05-15)"
   sodipodi:docname="greatzimbabwe.svg"
   xmlns:inkscape="http://www.inkscape.org/namespaces/inkscape"
   xmlns:sodipodi="http://sodipodi.sourceforge.net/DTD/sodipodi-0.dtd"
   xmlns="http://www.w3.org/2000/svg"
   xmlns:svg="http://www.w3.org/2000/svg">
  <sodipodi:namedview
     id="namedview7"
     pagecolor="#ffffff"
     bordercolor="#666666"
     borderopacity="1.0"
     inkscape:showpageshadow="2"
     inkscape:pageopacity="0.0"
     inkscape:pagecheckerboard="0"
     inkscape:deskcolor="#d1d1d1"
     inkscape:document-units="mm"
     showgrid="false"
     inkscape:zoom="0.13181247"
     inkscape:cx="-292.08162"
     inkscape:cy="-531.05749"
     inkscape:window-width="1920"
     inkscape:window-height="1017"
     inkscape:window-x="-8"
     inkscape:window-y="-8"
     inkscape:window-maximized="1"
     inkscape:current-layer="layer1" />
  <defs
     id="defs2">
    <clipPath
       id="svg_60">
      <path
         id="svg_61"
         d="M 0,0 H 1260 V 630 H 0 Z"
         fill-rule="evenodd"
         fill="#0000ff" />
    </clipPath>
  </defs>
  <g
     inkscape:label="Layer 1"
     inkscape:groupmode="layer"
     id="layer1"
     transform="translate(-10.645162,-60.677647)">
    <rect
       style="fill:#ff0000;fill-opacity:1;stroke:none;stroke-width:6.38754;stroke-linecap:round;stroke-linejoin:round"
       id="rect401"
       width="150"
       height="100"
       x="10.645162"
       y="60.677647" />
    <rect
       style="fill:#008000;stroke-width:10;paint-order:fill markers stroke"
       id="rect16915"
       width="150"
       height="10"
       x="10.645159"
       y="60.677647" />
    <rect
       style="fill:#000000;stroke-width:10;paint-order:fill markers stroke"
       id="rect16915-5"
       width="150"
       height="10"
       x="10.645159"
       y="70.677643" />
    <rect
       style="fill:#ff0000;stroke-width:10;paint-order:fill markers stroke;fill-opacity:1"
       id="rect16915-3"
       width="150"
       height="10"
       x="10.645159"
       y="80.677643" />
    <rect
       style="fill:#008000;stroke-width:10;paint-order:fill markers stroke"
       id="rect16915-5-6"
       width="150"
       height="10"
       x="10.645159"
       y="90.677643" />
    <rect
       style="fill:#000000;stroke-width:10;paint-order:fill markers stroke"
       id="rect16915-2"
       width="150"
       height="10"
       x="10.645159"
       y="100.67764" />
    <rect
       style="fill:#ff0000;stroke-width:10;paint-order:fill markers stroke"
       id="rect16915-5-1"
       width="150"
       height="10"
       x="10.645159"
       y="110.67764" />
    <rect
       style="fill:#008000;stroke-width:10;paint-order:fill markers stroke"
       id="rect16915-3-0"
       width="150"
       height="10"
       x="10.645159"
       y="120.67764" />
    <rect
       style="fill:#000000;stroke-width:10;paint-order:fill markers stroke"
       id="rect16915-5-6-4"
       width="150"
       height="10"
       x="10.645159"
       y="130.67764" />
    <rect
       style="fill:#ff0000;stroke-width:10;paint-order:fill markers stroke"
       id="rect16915-3-0-6"
       width="150"
       height="10"
       x="10.645159"
       y="140.67764" />
    <rect
       style="fill:#008000;stroke-width:10;paint-order:fill markers stroke"
       id="rect16915-5-6-4-0"
       width="150"
       height="10"
       x="10.645159"
       y="150.67766" />
    <g
       id="g16305"
       transform="matrix(0.12283802,0,0,0.12283802,69.562956,89.044729)">
      <title
         id="title16247">Layer 1</title>
      <defs
         transform="translate(1160 758) translate(-621.925 0) translate(0 142.855)"
         id="svg_59">
        <clipPath
           id="clipPath16747">
          <path
             id="path16745"
             d="M 0,0 H 1260 V 630 H 0 Z"
             fill-rule="evenodd"
             fill="#0000ff" />
        </clipPath>
      </defs>
      <metadata
         id="svg_58">image/svg+xmlFischximage/svg+xml</metadata>
      <g
         transform="matrix(3.60585,0,0,3.60585,-596.217,-101.204)"
         id="svg_6">
        <path
           stroke-miterlimit="4"
           stroke-width="0"
           fill-rule="evenodd"
           fill="#ffd200"
           id="svg_57"
           d="m 191.34662,34.08563 c -1.58363,-1.81358 -3.92806,-2.77657 -6.32944,-2.59907 -2.40116,0.17709 -4.5787,1.47428 -5.87874,3.50065 -1.3788,-0.03353 -2.75761,0.06772 -4.11661,0.30131 -1.27127,0.21873 -2.37402,1.00299 -2.99751,2.13247 -0.62412,1.12886 -0.70044,2.48032 -0.20873,3.67244 l 4.64522,-0.27547 c 1.90313,1.07398 3.10444,3.06649 3.16687,5.25077 l 0.52333,18.45889 c -0.8975,1.85396 -1.35084,3.89155 -1.32493,5.95159 0.0318,2.47991 0.2285,4.95453 0.59003,7.40853 0.36257,2.4642 -0.44763,4.95575 -2.19019,6.73525 -2.70088,2.75799 -5.0494,5.84059 -6.99151,9.17639 -1.49101,2.56274 -1.22843,5.78226 0.65819,8.06895 l 5.2928,20.47895 h 39.72433 l 2.20448,-17.37552 c 0.93586,-7.3767 5.14203,-13.93976 11.45354,-17.87069 l 1.56322,0.44375 c 1.05008,0.29767 2.16409,-0.18911 2.65863,-1.16254 0.49437,-0.97339 0.23077,-2.16062 -0.62942,-2.83329 L 195.58216,54.16447 194.5945,41.79672 c -0.22793,-2.85246 -1.36656,-5.55558 -3.24788,-7.71109" />
        <path
           stroke-miterlimit="4"
           stroke-width="0"
           fill-rule="nonzero"
           fill="#000000"
           id="svg_56"
           d="m 190.96591,34.42227 -0.0313,-0.03532 0.76122,-0.67308 0.0313,0.03532 z m -0.0313,-0.03532 c -0.20526,-0.23238 -0.42908,-0.45336 -0.6645,-0.65879 l 0.66981,-0.7657 c 0.2632,0.22971 0.51698,0.48128 0.75591,0.75141 z m 0.006,-1.42613 v 0.0016 l -0.3348,0.38297 z M 190.2708,33.73 c -0.23585,-0.20526 -0.48234,-0.39339 -0.73387,-0.56047 l 0.56208,-0.84894 c 0.29622,0.19669 0.57781,0.41067 0.8416,0.64022 z m -0.73387,-0.56047 c -1.30559,-0.86753 -2.88025,-1.29088 -4.48347,-1.17274 l -0.0718,-1.02033 c 1.82478,-0.13464 3.62286,0.35111 5.11713,1.34412 z m -4.48324,-1.17273 -0.0468,0.0043 -0.0716,-1.02033 0.0468,-0.0043 z m -0.12255,-1.01687 h 0.005 l 0.0358,0.51005 z m 0.0797,1.02034 c -0.32502,0.02547 -0.6343,0.07038 -0.92422,0.13238 l -0.21156,-0.99604 c 0.35747,-0.07628 0.71143,-0.12954 1.05602,-0.15667 z m -0.92422,0.13238 c -0.30236,0.06408 -0.60023,0.14915 -0.88934,0.25157 l -0.33886,-0.96014 c 0.33012,-0.1167 0.67083,-0.21341 1.01665,-0.28749 z m -0.88934,0.25157 c -1.47878,0.52334 -2.7633,1.52794 -3.6298,2.87777 l -0.85689,-0.54943 c 0.98952,-1.54242 2.45727,-2.69046 4.14781,-3.28846 z m -3.6298,2.87777 -0.44069,0.23544 0.0121,-0.51027 z m -0.44069,0.23544 c -0.0498,-0.0011 -0.10116,-0.0022 -0.13631,-0.0022 l 0.0121,-1.02013 c 0.0602,5.4e-4 0.10589,0.0022 0.14933,0.0022 l -0.0243,1.02033 z m -0.13631,-0.0022 h -0.002 l 0.008,-0.51004 z m -0.002,0 c -0.18726,-0.0022 -0.3758,-0.0043 -0.56086,-0.0022 l -0.008,-1.02013 c 0.19548,-0.0016 0.39275,-0.0011 0.58535,0.0022 z m -0.56086,-0.0022 c -0.17709,0.0011 -0.36563,0.0064 -0.55886,0.01211 l -0.0358,-1.02013 c 0.18726,-0.0063 0.38338,-0.01212 0.58636,-0.01212 z m -0.55886,0.01211 c -0.92933,0.03299 -1.85356,0.12955 -2.76024,0.28524 l -0.17136,-1.004 c 0.96237,-0.16547 1.93109,-0.26668 2.89591,-0.30138 z m -2.76024,0.28524 -0.0202,0.0043 -0.17119,-1.004 0.0202,-0.0043 0.17136,1.004 z m -0.19386,-1.00054 h 0.002 l 0.0857,0.50188 -0.088,-0.50188 z m 0.17587,1.004 c -0.15973,0.02774 -0.31421,0.06593 -0.46046,0.11099 l -0.29826,-0.97279 c 0.19299,-0.05957 0.3891,-0.10815 0.5829,-0.14222 z m -0.46046,0.11099 c -0.14401,0.04451 -0.29091,0.10179 -0.43602,0.16708 L 173.7754,35.1432 c 0.17563,-0.07935 0.36134,-0.151 0.55635,-0.21116 z m -0.85649,-0.76162 h 0.002 l 0.20931,0.46434 z m 0.42212,0.92871 c -0.72347,0.32907 -1.3329,0.88486 -1.72401,1.59405 l -0.89282,-0.49049 c 0.49906,-0.90566 1.27456,-1.61424 2.1947,-2.03228 z m -2.61866,1.10765 0.002,-0.0043 0.44642,0.24521 z m 0.89649,0.48234 -0.0277,0.05149 -0.89649,-0.48233 0.0277,-0.05149 z m -0.92423,-0.42867 v -0.0022 l 0.4482,0.24116 -0.4482,-0.2389 z m 0.89648,0.47782 c -0.0705,0.13239 -0.13649,0.27644 -0.19443,0.42907 l -0.95178,-0.36314 c 0.0669,-0.17709 0.15193,-0.3603 0.24973,-0.54375 z m -1.14621,0.06813 v -0.0022 l 0.4758,0.18159 -0.4758,-0.17934 z m 0.95178,0.35868 c -0.0555,0.1473 -0.10284,0.29767 -0.14002,0.44763 l -0.98767,-0.24302 c 0.0468,-0.19078 0.10636,-0.3799 0.17587,-0.56329 z m -1.12765,0.20647 v -0.0016 l 0.49396,0.12139 z m 0.98768,0.23932 c -0.18669,0.76223 -0.1299,1.57485 0.17529,2.31628 l -0.94036,0.38622 c -0.38806,-0.94198 -0.45966,-1.97313 -0.2226,-2.94184 z m -0.26482,3.01955 -0.50026,-0.31704 0.4703,-0.19299 z m -0.0601,-1.02011 4.64523,-0.27547 0.0601,1.02033 -4.64522,0.27523 z m 4.64523,-0.27547 0.27709,0.06593 -0.24683,0.44416 z m 0.27709,0.06593 c 0.0693,0.03878 0.0996,0.0561 0.11734,0.06651 l -0.51922,0.87669 c -0.0515,-0.03007 -0.0932,-0.05492 -0.0932,-0.05492 l 0.49396,-0.88833 z m 0.11734,0.06651 c 0.28055,0.16546 0.54902,0.35232 0.80101,0.55537 l -0.63717,0.79345 c -0.21243,-0.17118 -0.4407,-0.3297 -0.68185,-0.47192 z m 0.80101,0.55537 c 0.25117,0.20243 0.48822,0.42277 0.70572,0.65758 l -0.7449,0.69286 c -0.18402,-0.19849 -0.38459,-0.38517 -0.59799,-0.557 z m 0.70572,0.65758 c 1.10111,1.18252 1.75867,2.74249 1.80601,4.40161 l -1.02011,0.02775 c -0.0399,-1.41062 -0.59738,-2.73433 -1.5308,-3.73649 z m 1.80601,4.40161 0.52351,18.45869 -1.02033,0.02774 -0.52334,-18.45889 z m 0.52351,18.45869 -0.0521,0.23481 -0.45828,-0.22076 0.51027,-0.01385 z m -0.0521,0.23481 c -0.0295,0.06136 -0.0711,0.14997 -0.11278,0.24076 l -0.92423,-0.42681 c 0.0335,-0.07345 0.0711,-0.15343 0.12076,-0.25563 z m -1.03707,-0.18386 v -0.0016 l 0.46209,0.21341 -0.46209,-0.21116 z m 0.92422,0.42213 c -0.11214,0.24464 -0.21872,0.49922 -0.31808,0.75714 l -0.94851,-0.36661 c 0.10346,-0.26893 0.21808,-0.54149 0.34232,-0.81264 z m -1.2684,0.39211 0.002,-0.0016 0.47417,0.18322 z m 0.95197,0.3632 c -0.0978,0.25505 -0.18726,0.5135 -0.26829,0.77264 l -0.97278,-0.30299 c 0.0874,-0.27928 0.1838,-0.55805 0.28911,-0.83284 z m -0.26829,0.77264 c -0.39679,1.27475 -0.59228,2.6119 -0.57556,3.95888 l -1.02013,0.01211 c -0.0186,-1.45041 0.19323,-2.89387 0.6229,-4.27329 l 0.97278,0.30299 z m -0.57556,3.95888 c 5.3e-4,0.08617 0.002,0.17402 0.005,0.26829 l -1.02012,0.01623 c -0.001,-0.08507 -0.002,-0.17974 -0.005,-0.27297 l 1.02012,-0.01217 z m 0.005,0.26829 c 0.006,0.33075 0.0138,0.67247 0.0277,1.02012 l -1.02013,0.0358 c -0.0121,-0.33665 -0.022,-0.68471 -0.0277,-1.03991 l 1.02011,-0.01622 z m 0.0277,1.02012 c 0.011,0.32503 0.0272,0.66574 0.0468,1.01972 l -1.02012,0.05553 c -0.0186,-0.33092 -0.0341,-0.67839 -0.0468,-1.0393 z m 0.0468,1.01972 c 0.0926,1.69218 0.26135,3.3721 0.50535,5.03266 l -1.0085,0.14689 c -0.25094,-1.70788 -0.42398,-3.41862 -0.51697,-5.12405 z m 0.50535,5.03266 0.005,0.02369 -1.00849,0.14689 -0.005,-0.02369 z m 0.005,0.02369 v 0.0016 l -0.50413,0.07177 z m 0,0.0016 c 0.0532,0.36908 0.0822,0.73755 0.0869,1.09948 l -1.02032,0.01212 c -0.005,-0.32398 -0.0295,-0.64838 -0.0751,-0.96768 l 1.0085,-0.14337 z m 0.0869,1.09948 c 0.005,0.3603 -0.0139,0.7253 -0.0567,1.08786 l -1.01217,-0.11568 c 0.0358,-0.31276 0.0526,-0.63552 0.0486,-0.96054 l 1.02033,-0.01211 z m -0.0567,1.08786 c -0.21526,1.846 -1.03522,3.59429 -2.36546,4.95289 l -0.7251,-0.71369 c 1.16865,-1.19373 1.88925,-2.73085 2.07839,-4.35489 z m -2.36546,4.95289 -0.002,0.0049 -0.36093,-0.36094 z m -0.002,0.0049 c -0.0138,0.01384 0.0862,-0.114 0.0589,-0.07281 l -0.84895,-0.56573 c 0.0295,-0.04451 0.0498,-0.06472 0.0681,-0.08322 z m 0.0589,-0.07281 -0.0619,0.07391 -0.36255,-0.35684 z m -0.0619,0.07391 c -0.34971,0.35747 -0.71694,0.74673 -1.09927,1.16478 l -0.75307,-0.6892 c 0.3452,-0.37789 0.72124,-0.77449 1.12723,-1.18926 z m -1.85234,0.47718 v -0.0016 l 0.37644,0.34458 z m 0.75307,0.68593 c -0.36847,0.40357 -0.72348,0.8057 -1.06134,1.20171 l -0.77282,-0.66154 c 0.36152,-0.42375 0.72285,-0.83384 1.08092,-1.22598 z m -1.83622,0.54006 h 0.002 l 0.38638,0.33092 -0.38863,-0.33092 z m 0.77732,0.66165 c -1.78134,2.09309 -3.37293,4.33756 -4.75112,6.70464 l -0.88016,-0.51003 c 1.41573,-2.43177 3.0414,-4.72663 4.85396,-6.85625 z m -5.63372,6.1946 h 0.002 l 0.44005,0.25504 -0.44254,-0.25504 z m 0.88485,0.51002 -0.0202,0.03413 -0.88487,-0.51027 0.0202,-0.03413 z m -0.0202,0.03413 c -0.19485,0.3389 -0.35522,0.68471 -0.48072,1.02931 l -0.95646,-0.34706 c 0.15043,-0.41398 0.3348,-0.81427 0.55231,-1.19252 z m -0.48072,1.02931 c -0.1284,0.35399 -0.22606,0.71613 -0.29073,1.07744 l -1.00079,-0.17905 c 0.0758,-0.42271 0.1879,-0.84016 0.3348,-1.24515 z m -0.29073,1.07744 c -0.33602,1.86582 0.14505,3.83035 1.39941,5.35035 l -0.78529,0.64532 c -1.4472,-1.7533 -2.00256,-4.02144 -1.61491,-6.17471 z m 1.39941,5.35035 0.0996,0.19485 -0.4921,0.12775 z m 0.0996,0.19485 5.29301,20.47892 -0.98441,0.25562 -5.29301,-20.47892 z m 4.8007,21.1167 -0.4921,-0.38211 0.4921,-0.12793 z m 0,-1.02011 h 39.72403 v 1.02011 h -39.72609 z m 40.22848,0.57371 -0.50413,0.44642 v -0.51004 z m -1.00849,-0.1273 2.20448,-17.37552 1.00871,0.12729 -2.2047,17.37552 z m 3.21502,-17.25004 -0.002,0.002 -0.50437,-0.0637 z m -1.01241,-0.12336 c 0.008,-0.062 -0.0138,0.12423 0.006,-0.0313 l 1.00869,0.13175 c -0.0185,0.13816 0.008,-0.0573 -0.002,0.0232 l -1.01216,-0.12365 z m 1.01379,0.0984 v 0.002 l -0.50436,-0.0659 0.50436,0.0637 z m -1.00869,-0.1273 c 0.13544,-1.06071 0.33601,-2.09879 0.59575,-3.10503 l 0.98789,0.25093 c -0.25342,0.98136 -0.447,1.97842 -0.57492,2.98142 z m 0.59575,-3.10503 c 0.26257,-1.01789 0.5876,-2.01395 0.96993,-2.97958 l 0.94851,0.37458 c -0.36788,0.93056 -0.68021,1.88498 -0.93055,2.85594 z m 0.96993,-2.97958 c 1.96741,-4.97085 5.48845,-9.24313 10.11961,-12.12783 l 0.538,0.86527 c -4.44282,2.76738 -7.82084,6.86705 -9.70908,11.63714 z m 10.11961,-12.12783 0.40663,-0.05783 -0.13759,0.49026 z m 0.40663,-0.05783 1.56322,0.44353 -0.27523,0.98074 -1.56322,-0.44358 z m 1.56322,0.44353 v 0 l -0.13937,0.49048 z m 0,0 0.0119,0.0049 -0.27869,0.98076 -0.0119,-0.0049 z m -0.26257,0.98422 h -0.005 l 0.13937,-0.49027 z m 0.27058,-0.98077 c 0.10524,0.02888 0.22152,0.04857 0.34478,0.05725 l -0.0753,1.02033 c -0.17058,-0.01211 -0.35273,-0.04511 -0.54007,-0.0967 z m 0.34478,0.05725 c 0.12076,0.0075 0.23585,0.0064 0.34115,-0.0063 l 0.1192,1.01216 c -0.18161,0.02136 -0.36192,0.02661 -0.53553,0.01385 z m 0.34115,-0.0063 c 0.57372,-0.06807 1.09665,-0.41582 1.37064,-0.95606 l 0.90935,0.45805 c -0.43337,0.85364 -1.25743,1.40205 -2.16084,1.51017 z m 2.28161,-0.49968 v 0.0016 l -0.45457,-0.22891 z m -0.9126,-0.45457 0.006,-0.01217 0.9126,0.45458 -0.006,0.01211 z m 0.006,-0.01217 c 0.0544,-0.10942 0.0971,-0.21994 0.12672,-0.32745 l 0.98096,0.27072 c -0.0487,0.17627 -0.11401,0.34931 -0.19508,0.51124 z m 1.1093,-0.05858 v 0.0016 l -0.49048,-0.13539 z m -0.98442,-0.26708 c 0.0281,-0.10589 0.0481,-0.21936 0.0567,-0.33664 l 1.02028,0.07512 c -0.0119,0.1724 -0.0444,0.35053 -0.0926,0.52865 z m 1.07702,-0.2632 v 0.0016 l -0.51028,-0.03759 z m -1.02029,-0.07177 c 0.0427,-0.57881 -0.19772,-1.15947 -0.67371,-1.53202 l 0.62574,-0.8014 c 0.75365,0.58923 1.13478,1.5008 1.06826,2.40524 z m -0.67371,-1.53202 -37.57799,-29.38459 0.62574,-0.80161 37.57799,29.3848 z m -37.57799,-29.38459 -0.19734,-0.36094 0.5101,-0.03991 z m -0.19734,-0.36094 -0.98766,-12.36774 1.02011,-0.07975 0.98788,12.36775 z m -0.98766,-12.36774 -0.005,-0.04337 1.02013,-0.07998 0.005,0.04337 z m 1.01665,-0.12486 v 0.0016 l -0.51009,0.03991 z m -1.02013,0.08322 c -0.033,-0.4013 -0.0815,-0.78304 -0.144,-1.14151 l 1.004,-0.17136 c 0.0735,0.42294 0.12776,0.83527 0.16014,1.22965 z m -0.144,-1.14151 c -0.0649,-0.37378 -0.14811,-0.74673 -0.24689,-1.11581 l 0.98421,-0.26239 c 0.10648,0.39501 0.19548,0.79855 0.26667,1.2068 z m -0.24689,-1.11581 c -0.50437,-1.88233 -1.43387,-3.63592 -2.72637,-5.11693 l 0.7657,-0.66982 c 1.39675,1.60077 2.40075,3.49371 2.94488,5.52437" />
        <path
           stroke-miterlimit="4"
           stroke-width="0"
           fill-rule="nonzero"
           fill="#000000"
           id="svg_55"
           d="m 191.24482,67.64598 c -0.005,0.01098 0.008,-0.02136 -0.006,0.02023 l -0.97625,-0.29502 c 0.005,-0.0139 0.008,-0.02255 0.0214,-0.05939 l 0.96013,0.33416 z m -0.006,0.02023 -0.005,0.01217 -0.48395,-0.15974 z m -0.005,0.01217 c -0.0913,0.27459 -0.16523,0.54699 -0.22093,0.81305 l -0.99584,-0.20711 c 0.0666,-0.31808 0.14979,-0.62737 0.24874,-0.92524 z m -0.22093,0.81305 c -0.0578,0.27644 -0.0999,0.55352 -0.1255,0.82527 l -1.01195,-0.09138 c 0.0295,-0.31809 0.0776,-0.6333 0.14151,-0.94098 z m -0.1255,0.82527 c -0.13296,1.41347 0.14459,2.85001 0.81733,4.12884 l -0.90118,0.47412 c -0.76425,-1.45304 -1.07886,-3.08624 -0.92787,-4.69416 z m 0.81733,4.12884 0.006,0.01098 -0.90098,0.47418 -0.006,-0.01098 0.90116,-0.47412 z m 0.006,0.01098 c 0.13174,0.25036 0.27829,0.49211 0.436,0.72224 l -0.84028,0.57326 c -0.17991,-0.26258 -0.34642,-0.5378 -0.49615,-0.82182 z m 0.436,0.72224 c 0.15917,0.23261 0.33093,0.45521 0.51027,0.66288 l -0.76937,0.66492 c -0.20809,-0.24115 -0.4042,-0.49435 -0.58168,-0.75407 z m 0.51027,0.66288 c 0.93342,1.07909 2.17041,1.87539 3.56756,2.271 l -0.27523,0.98094 c -1.58916,-0.45007 -2.99753,-1.35675 -4.06172,-2.58702" />
        <path
           stroke-miterlimit="4"
           stroke-width="0"
           fill-rule="nonzero"
           fill="#000000"
           id="svg_54"
           d="m 195.86903,54.58476 -15.42587,10.54133 -0.57371,-0.8408 15.42607,-10.54132" />
        <path
           stroke-miterlimit="4"
           stroke-width="0"
           fill-rule="evenodd"
           fill="#ffd200"
           id="svg_53"
           d="m 187.38142,37.86578 c 0,-1.11804 -0.90629,-2.02432 -2.02413,-2.02432 -1.11783,0 -2.02412,0.90628 -2.02412,2.02432 0,1.11786 0.90629,2.02413 2.02412,2.02413 1.11784,0 2.02413,-0.90627 2.02413,-2.02413" />
        <path
           stroke-miterlimit="4"
           stroke-width="0"
           fill-rule="nonzero"
           fill="#000000"
           id="svg_52"
           d="m 186.87136,37.86578 v -0.0043 h 1.02011 v 0.0043 z m 0,-0.0043 c -5.3e-4,-0.41704 -0.16997,-0.79591 -0.44232,-1.06766 l 0.71716,-0.72184 c 0.45903,0.45868 0.74428,1.09194 0.74529,1.7895 z m -0.44232,-1.06766 c -0.27192,-0.27136 -0.64959,-0.44128 -1.0648,-0.44255 l 0.005,-1.02012 c 0.69286,0.0022 1.32208,0.28564 1.77848,0.74081 l -0.71717,0.72186 z m -1.06318,-1.46265 h 0.002 l -0.002,0.51003 z m 0,1.02012 h -0.008 v -1.02012 h 0.008 z m -0.008,0 h -0.005 v -1.02012 h 0.005 z m -0.005,0 c -0.41704,5.3e-4 -0.79569,0.17015 -1.06765,0.44255 l -0.72164,-0.71715 c 0.45863,-0.45926 1.09195,-0.74427 1.78929,-0.74551 z m -1.06765,0.44255 c -0.27112,0.27175 -0.4411,0.64941 -0.44231,1.06479 l -1.02013,-0.0043 c 0.002,-0.69327 0.28564,-1.32248 0.74082,-1.77828 l 0.72164,0.71716 z m -1.46246,1.06295 v -0.0016 l 0.5101,0.0016 z m 1.02013,0 v 0.0081 h -1.02013 v -0.0081 z m 0,0.0081 v 0.0043 h -1.02013 v -0.0043 z m 0,0.0043 c 5.4e-4,0.41762 0.16998,0.7959 0.44231,1.06766 l -0.71715,0.72184 c -0.45908,-0.45868 -0.74428,-1.09255 -0.7453,-1.7895 z m 0.44231,1.06766 c 0.27194,0.27136 0.64962,0.44134 1.0648,0.44255 l -0.005,1.02012 c -0.69348,-0.0022 -1.32269,-0.28564 -1.77848,-0.74081 l 0.71767,-0.72178 z m 1.06296,1.46266 h -0.002 l 0.002,-0.51004 z m 0,-1.02013 h 0.008 v 1.02013 h -0.008 z m 0.008,0 h 0.005 v 1.02013 h -0.005 z m 0.005,0 c 0.41745,-5.3e-4 0.7957,-0.17015 1.06767,-0.44255 l 0.72166,0.71716 c -0.45868,0.45926 -1.09235,0.74429 -1.7893,0.74552 z m 1.06767,-0.44255 c 0.27113,-0.27175 0.4411,-0.64941 0.44231,-1.06459 l 1.02013,0.0043 c -0.002,0.69266 -0.28564,1.32207 -0.74081,1.77827 l -0.72163,-0.71715 z m 1.46245,-1.06296 v 0.0016 l -0.51004,-0.0016 z m -1.02013,0 v -0.0081 h 1.02013 v 0.0081" />
        <path
           stroke-miterlimit="4"
           stroke-width="0"
           fill-rule="nonzero"
           fill="#000000"
           id="svg_51"
           d="m 183.28746,86.18444 0.0358,-0.01855 0.45458,0.9126 -0.0358,0.0185 -0.45457,-0.91279 z m 0.49211,0.89301 -0.002,0.0016 -0.22729,-0.45642 z m -0.45804,-0.90913 c 0.41761,-0.21115 0.81202,-0.45393 1.17641,-0.72407 l 0.60595,0.8167 c -0.41398,0.30646 -0.85752,0.58066 -1.32433,0.8165 z m 1.17641,-0.72407 c 0.36538,-0.27055 0.70714,-0.57187 1.01952,-0.8969 l 0.73325,0.70551 c -0.34931,0.36315 -0.73325,0.70205 -1.14682,1.00809 z m 1.01952,-0.8969 c 1.59688,-1.66055 2.44745,-3.96398 2.23996,-6.35127 l 1.02012,-0.08796 c 0.2336,2.68108 -0.72572,5.27198 -2.52683,7.14472" />
        <path
           stroke-miterlimit="4"
           stroke-width="0"
           fill-rule="nonzero"
           fill="#000000"
           id="svg_50"
           d="m 190.28692,75.41544 -0.0358,0.01855 -0.45457,-0.9126 0.0359,-0.01855 0.45457,0.9128 z m -0.49436,-0.89302 0.005,-0.0016 0.22729,0.45642 z m 0.46273,0.90912 c -0.14522,0.07467 -0.2783,0.15667 -0.3946,0.244 l -0.60942,-0.81304 c 0.17402,-0.13081 0.35561,-0.24522 0.54126,-0.34012 z m -0.3946,0.244 c -0.12133,0.09075 -0.23648,0.1938 -0.34116,0.30357 L 188.7828,75.2783 c 0.14153,-0.14876 0.29952,-0.28935 0.46846,-0.41583 z m -0.34116,0.30357 c -0.52982,0.55636 -0.81139,1.32859 -0.74203,2.12899 l -1.02013,0.08797 c -0.0949,-1.09194 0.29443,-2.14982 1.02543,-2.91775" />
        <path
           stroke-miterlimit="4"
           stroke-width="0"
           fill-rule="nonzero"
           fill="#000000"
           id="svg_49"
           d="m 196.0149,90.38449 -0.008,0.0049 -0.37823,-0.94504 0.008,-0.0049 z m -0.008,0.0049 c -0.52559,0.21156 -1.07154,0.43537 -1.62975,0.66675 l -0.39142,-0.94085 c 0.52924,-0.21913 1.07684,-0.44358 1.64239,-0.67145 z m -1.62975,0.66675 c -0.5441,0.22566 -1.08662,0.45457 -1.62505,0.6841 l -0.39906,-0.93689 c 0.54411,-0.23238 1.09011,-0.46256 1.63323,-0.68755 z m -1.62505,0.6841 c -2.77208,1.18272 -5.51845,2.44073 -8.23441,3.77138 l -0.44646,-0.9166 c 2.72229,-1.33371 5.48438,-2.59908 8.28174,-3.7922" />
        <path
           stroke-miterlimit="4"
           stroke-width="0"
           fill-rule="nonzero"
           fill="#000000"
           id="svg_48"
           d="m 195.64236,89.43761 0.0185,-0.0063 0.36661,0.94852 -0.0186,0.0064 z m 0.39275,0.93994 -0.008,0.0016 -0.18321,-0.47412 z m -0.38291,-0.94504 c 0.58024,-0.2348 1.13478,-0.5072 1.6581,-0.81202 l 0.51027,0.88016 c -0.57331,0.33376 -1.17069,0.62758 -1.78542,0.8769 z m 1.6581,-0.81202 c 0.51761,-0.30073 1.02094,-0.64493 1.50365,-1.02603 l 0.63391,0.8016 c -0.50436,0.39784 -1.04848,0.76815 -1.6273,1.10459 z m 1.50361,-1.02603 c 2.44075,-1.92641 4.14272,-4.69603 4.71643,-7.82944 l 1.00055,0.18282 c -0.61942,3.38496 -2.45381,6.37309 -5.08307,8.44822" />
        <path
           stroke-miterlimit="4"
           stroke-width="0"
           fill-rule="nonzero"
           fill="#000000"
           id="svg_47"
           d="m 190.6254,91.59597 h 33.14966 V 92.6163 H 190.6254" />
        <path
           stroke-miterlimit="4"
           stroke-width="0"
           fill-rule="evenodd"
           fill="#ffd200"
           id="svg_46"
           d="m 198.2657,98.32266 c 0,-2.12307 -1.72114,-3.84422 -3.84361,-3.84422 -2.12308,0 -3.84362,1.72115 -3.84362,3.84422 0,2.12246 1.72054,3.84361 3.84362,3.84361 2.12247,0 3.84361,-1.72115 3.84361,-3.84361" />
        <path
           stroke-miterlimit="4"
           stroke-width="0"
           fill-rule="nonzero"
           fill="#000000"
           id="svg_45"
           d="m 197.75563,98.32266 v -0.0049 h 1.02013 v 0.0049 z m 0,-0.0049 c -5.3e-4,-0.91832 -0.37539,-1.75237 -0.97788,-2.35486 l 0.72164,-0.72184 c 0.78652,0.78652 1.27535,1.8756 1.27637,3.0767 z m -0.25851,-3.0767 h 0.002 l -0.36071,0.36095 0.35845,-0.36095 z m -0.71715,0.72184 c -0.60142,-0.60045 -1.43242,-0.97339 -2.34911,-0.97523 v -1.02013 c 1.1966,0.0016 2.281,0.48927 3.06628,1.27353 z m -2.34911,-0.97523 h -0.008 v -1.02013 h 0.008 z m -0.008,0 h -0.005 v -1.02013 h 0.005 z m -0.005,0 c -0.92015,5.3e-4 -1.75338,0.37354 -2.35424,0.97564 l -0.72184,-0.71715 c 0.78775,-0.78875 1.87662,-1.2774 3.07608,-1.27862 z m -2.35424,0.97564 c -0.60044,0.60147 -0.97339,1.43266 -0.97523,2.34995 h -1.02013 c 0.002,-1.19721 0.48928,-2.28159 1.27352,-3.0671 z m -0.97523,2.34995 v 0.0075 h -1.02013 v -0.0075 z m 0,0.0075 v 0.0049 h -1.02013 v -0.0049 z m 0,0.0049 c 5.4e-4,0.91954 0.37418,1.75358 0.97565,2.35444 l -0.71716,0.72164 c -0.78888,-0.78802 -1.27752,-1.8771 -1.27874,-3.07595 z m 0.97565,2.35444 c 0.60105,0.60024 1.43265,0.97319 2.34934,0.97504 v 1.02012 c -1.19661,-0.002 -2.28162,-0.48928 -3.0665,-1.27352 z m 2.34934,0.97504 h 0.008 v 1.02012 h -0.008 z m 0.008,0 h 0.005 v 1.02012 h -0.005 z m 0.005,0 c 0.91791,-5.3e-4 1.75175,-0.3754 2.35445,-0.9779 l 0.72184,0.72164 c -0.78672,0.7865 -1.8756,1.27535 -3.07629,1.27638 z m 3.07629,-0.25852 v 0.002 l -0.36095,-0.36094 0.36095,0.35869 z m -0.72184,-0.71716 c 0.60022,-0.60147 0.9734,-1.43266 0.97503,-2.34913 h 1.02011 c -0.002,1.1964 -0.48927,2.28078 -1.2733,3.06629 z m 0.97503,-2.34913 v -0.0075 h 1.02011 v 0.0075" />
        <path
           stroke-miterlimit="4"
           stroke-width="0"
           fill-rule="evenodd"
           fill="#ffd200"
           id="svg_44"
           d="m 213.55874,98.32266 c 0,-2.12307 -1.72115,-3.84422 -3.8436,-3.84422 -2.12308,0 -3.84422,1.72115 -3.84422,3.84422 0,2.12246 1.72114,3.84361 3.84422,3.84361 2.12245,0 3.8436,-1.72115 3.8436,-3.84361" />
        <path
           stroke-miterlimit="4"
           stroke-width="0"
           fill-rule="nonzero"
           fill="#000000"
           id="svg_43"
           d="m 213.04868,98.32266 v -0.0049 h 1.02013 v 0.0049 z m 0,-0.0049 c -5.3e-4,-0.91832 -0.37539,-1.75237 -0.97809,-2.35486 l 0.72184,-0.72184 c 0.78651,0.78652 1.27516,1.8756 1.27638,3.0767 z m -0.25851,-3.0767 h 0.002 l -0.36094,0.36095 0.35868,-0.36095 z m -0.71715,0.72184 c -0.60147,-0.60045 -1.43266,-0.97339 -2.34934,-0.97523 v -1.02013 c 1.19661,0.0016 2.28099,0.48927 3.06649,1.27353 z m -2.34934,-0.97523 h -0.008 v -1.02013 h 0.008 z m -0.008,0 h -0.005 v -1.02013 h 0.005 z m -0.005,0 c -0.92016,5.3e-4 -1.75421,0.37418 -2.35506,0.97564 l -0.72163,-0.71715 c 0.78815,-0.78874 1.87661,-1.2774 3.07669,-1.27862 z m -2.35506,0.97564 c -0.60024,0.60147 -0.97339,1.43266 -0.97503,2.34995 h -1.02012 c 0.002,-1.19721 0.48927,-2.28159 1.27352,-3.0671 z m -0.97503,2.34995 v 0.0075 h -1.02012 v -0.0075 z m 0,0.0075 v 0.0049 h -1.02012 v -0.0049 z m 0,0.0049 c 5.3e-4,0.91954 0.37418,1.75358 0.97564,2.35444 l -0.71714,0.72164 c -0.78886,-0.78802 -1.27772,-1.8771 -1.27874,-3.07595 z m 0.97564,2.35444 c 0.60147,0.60024 1.43245,0.97319 2.34975,0.97504 v 1.02012 c -1.19722,-0.002 -2.28139,-0.48928 -3.06689,-1.27352 z m 2.34975,0.97504 h 0.008 v 1.02012 h -0.008 z m 0.008,0 h 0.005 v 1.02012 h -0.005 z m 0.005,0 c 0.9177,-5.3e-4 1.75175,-0.3754 2.35423,-0.9779 l 0.72186,0.72164 c -0.78652,0.7865 -1.87561,1.27535 -3.07609,1.27638 z m 3.07609,-0.25852 v 0.002 l -0.36095,-0.36094 0.36095,0.35869 z m -0.72184,-0.717 c 0.60045,-0.60147 0.97341,-1.43266 0.97525,-2.34914 h 1.02012 c -0.002,1.19641 -0.48928,2.28079 -1.27352,3.0663 z m 0.97525,-2.34914 v -0.0075 h 1.02012 v 0.0075" />
        <path
           stroke-miterlimit="4"
           stroke-width="0"
           fill-rule="nonzero"
           fill="#000000"
           id="svg_42"
           d="m 201.91039,84.73647 c 0.17992,0.05381 0.35966,0.10468 0.5378,0.15257 l -0.26258,0.98421 c -0.18951,-0.05089 -0.38048,-0.10514 -0.56659,-0.16077 z m 0.5378,0.15257 c 0.28298,0.07576 0.55531,0.144 0.81446,0.20236 l -0.22341,0.99239 c -0.29726,-0.06715 -0.58291,-0.13759 -0.85364,-0.21057 z m 0.81446,0.20236 c 0.27402,0.06119 0.54821,0.11798 0.82119,0.1683 l -0.18281,1.00054 c -0.28911,-0.05322 -0.57782,-0.11278 -0.8618,-0.17645 z m 0.82119,0.1683 c 1.27862,0.23486 2.58622,0.3499 3.90034,0.34237 l 0.005,1.02011 c -1.36553,0.0075 -2.73494,-0.11381 -4.08659,-0.36192" />
        <path
           stroke-miterlimit="4"
           stroke-width="0"
           fill-rule="nonzero"
           fill="#000000"
           id="svg_41"
           d="m 207.9842,85.60216 c 0.18032,-5.3e-4 0.35336,-0.01098 0.51229,-0.02601 l 0.10404,1.01217 c -0.21156,0.02142 -0.41681,0.03299 -0.6129,0.03413 l -0.005,-1.02011 z m 0.51229,-0.02601 h 0.002 l 0.0498,0.50616 -0.0521,-0.50616 z m 0.002,0 c 0.28749,-0.02834 0.57371,-0.08143 0.85323,-0.15488 l 0.25892,0.98422 c -0.32664,0.08629 -0.66613,0.1481 -1.01256,0.1828 z m 0.85323,-0.15488 c 0.27459,-0.07235 0.54636,-0.16829 0.80794,-0.28339 l 0.4105,0.9322 c -0.30646,0.13539 -0.6286,0.2481 -0.95954,0.33543 z m 0.80794,-0.28339 c 1.2329,-0.54369 2.25017,-1.53486 2.81124,-2.81594 l 0.93219,0.406 c -0.66614,1.52161 -1.87212,2.6978 -3.33293,3.34212" />
        <path
           stroke-miterlimit="4"
           stroke-width="0"
           fill-rule="nonzero"
           fill="#000000"
           id="svg_40"
           d="m 229.43,87.5916 -33.47936,-9.49795 0.27523,-0.98094 33.47936,9.49815" />
        <path
           stroke-miterlimit="4"
           stroke-width="0"
           fill-rule="nonzero"
           fill="#000000"
           id="svg_39"
           d="m 171.56627,103.96557 h 46.61629 v 1.02011 h -46.61629" />
        <path
           stroke-miterlimit="4"
           stroke-width="0"
           fill-rule="nonzero"
           fill="#000000"
           id="svg_38"
           d="m 182.32733,114.0968 h 34.56436 v 1.02012 h -34.56436" />
        <path
           stroke-miterlimit="4"
           stroke-width="0"
           fill-rule="nonzero"
           fill="#000000"
           id="svg_37"
           d="m 198.48595,110.63289 -3.7717,3.72117 -0.71368,-0.72508 3.7717,-3.72139" />
        <path
           stroke-miterlimit="4"
           stroke-width="0"
           fill-rule="nonzero"
           fill="#000000"
           id="svg_36"
           d="m 191.29848,110.26991 3.7721,3.72184 -0.71368,0.72509 -3.77209,-3.72162" />
        <path
           stroke-miterlimit="4"
           stroke-width="0"
           fill-rule="nonzero"
           fill="#000000"
           id="svg_35"
           d="m 191.65522,110.63289 -3.77232,3.72117 -0.71367,-0.72508 3.77231,-3.72139" />
        <path
           stroke-miterlimit="4"
           stroke-width="0"
           fill-rule="nonzero"
           fill="#000000"
           id="svg_34"
           d="m 184.46714,110.26991 3.77271,3.72184 -0.71368,0.72509 -3.7727,-3.72162" />
        <path
           stroke-miterlimit="4"
           stroke-width="0"
           fill-rule="nonzero"
           fill="#000000"
           id="svg_33"
           d="m 205.31668,110.63289 -3.7717,3.72117 -0.71367,-0.72508 3.77169,-3.72139" />
        <path
           stroke-miterlimit="4"
           stroke-width="0"
           fill-rule="nonzero"
           fill="#000000"
           id="svg_32"
           d="m 198.12921,110.26991 3.77211,3.35907 -0.71369,0.72508 -3.77209,-3.35884" />
        <path
           stroke-miterlimit="4"
           stroke-width="0"
           fill-rule="nonzero"
           fill="#000000"
           id="svg_31"
           d="m 212.14894,110.63289 -3.77262,3.72117 -0.71367,-0.72508 3.77261,-3.72139" />
        <path
           stroke-miterlimit="4"
           stroke-width="0"
           fill-rule="nonzero"
           fill="#000000"
           id="svg_30"
           d="m 204.96056,110.26991 3.77302,3.35907 -0.71368,0.72508 -3.77301,-3.35884" />
        <path
           stroke-miterlimit="4"
           stroke-width="0"
           fill-rule="nonzero"
           fill="#000000"
           id="svg_29"
           d="m 217.62842,111.9731 -2.42094,2.38096 -0.71369,-0.72508 2.42095,-2.38097" />
        <path
           stroke-miterlimit="4"
           stroke-width="0"
           fill-rule="nonzero"
           fill="#000000"
           id="svg_28"
           d="m 211.7919,110.26991 3.77241,3.72184 -0.71368,0.72509 -3.7724,-3.72162" />
        <path
           stroke-miterlimit="4"
           stroke-width="0"
           fill-rule="nonzero"
           fill="#000000"
           id="svg_27"
           d="m 198.48595,105.45629 -3.7717,3.72169 -0.71368,-0.72511 3.7717,-3.72189" />
        <path
           stroke-miterlimit="4"
           stroke-width="0"
           fill-rule="nonzero"
           fill="#000000"
           id="svg_26"
           d="m 191.29848,105.09381 3.7721,3.72133 -0.71368,0.72509 -3.77209,-3.7211" />
        <path
           stroke-miterlimit="4"
           stroke-width="0"
           fill-rule="nonzero"
           fill="#000000"
           id="svg_25"
           d="m 191.65522,105.45629 -3.77232,3.72169 -0.71367,-0.72511 3.77231,-3.72189" />
        <path
           stroke-miterlimit="4"
           stroke-width="0"
           fill-rule="nonzero"
           fill="#000000"
           id="svg_24"
           d="m 184.46714,105.09381 3.77271,3.72133 -0.71368,0.72509 -3.7727,-3.7211" />
        <path
           stroke-miterlimit="4"
           stroke-width="0"
           fill-rule="nonzero"
           fill="#000000"
           id="svg_23"
           d="m 205.31668,105.45629 -3.7717,3.72169 -0.71367,-0.72511 3.77169,-3.72189" />
        <path
           stroke-miterlimit="4"
           stroke-width="0"
           fill-rule="nonzero"
           fill="#000000"
           id="svg_22"
           d="m 198.12921,105.09381 3.77211,3.72133 -0.71369,0.72509 -3.77209,-3.7211" />
        <path
           stroke-miterlimit="4"
           stroke-width="0"
           fill-rule="nonzero"
           fill="#000000"
           id="svg_21"
           d="m 212.14894,105.45629 -3.77262,3.72169 -0.71367,-0.72511 3.77261,-3.72189" />
        <path
           stroke-miterlimit="4"
           stroke-width="0"
           fill-rule="nonzero"
           fill="#000000"
           id="svg_20"
           d="m 204.96056,105.09381 3.77302,3.72133 -0.71368,0.72509 -3.77301,-3.7211" />
        <path
           stroke-miterlimit="4"
           stroke-width="0"
           fill-rule="nonzero"
           fill="#000000"
           id="svg_19"
           d="m 218.37924,106.05906 -3.17176,3.11892 -0.71369,-0.72511 3.17176,-3.11912" />
        <path
           stroke-miterlimit="4"
           stroke-width="0"
           fill-rule="nonzero"
           fill="#000000"
           id="svg_18"
           d="m 211.7919,105.09381 3.77241,3.72133 -0.71368,0.72509 -3.7724,-3.7211" />
        <path
           stroke-miterlimit="4"
           stroke-width="0"
           fill-rule="nonzero"
           fill="#000000"
           id="svg_17"
           d="m 180.95546,41.06326 -4.46465,0.265 -0.0601,-1.02033 4.46485,-0.26482" />
        <path
           stroke-miterlimit="4"
           stroke-width="0"
           fill-rule="nonzero"
           fill="#000000"
           id="svg_16"
           d="m 183.73388,87.10113 -0.0138,0.0064 -0.43826,-0.92056 0.0138,-0.0064 0.43845,0.92056 z m -0.46087,-0.90954 0.008,-0.0049 0.21913,0.4603 z m 0.45456,0.91259 c -0.86689,0.43312 -1.67605,0.94137 -2.41911,1.50937 l -0.61778,-0.80854 c 0.79875,-0.61065 1.66218,-1.15375 2.58234,-1.61342 z m -2.41911,1.50937 c -0.74387,0.56903 -1.42858,1.20477 -2.04738,1.89354 l -0.75755,-0.68143 c 0.65697,-0.73142 1.38901,-1.4098 2.18715,-2.02065 z m -2.04738,1.89354 c -3.17278,3.53188 -4.57525,8.4611 -3.50759,13.31381 l -0.99588,0.21873 c -1.14007,-5.18019 0.35845,-10.44258 3.74589,-14.21397" />
        <path
           stroke-miterlimit="4"
           stroke-width="0"
           fill-rule="nonzero"
           fill="#000000"
           id="svg_15"
           d="m 184.51692,95.51018 -0.0625,0.03072 -0.44642,-0.91606 0.0625,-0.03067 z m -0.51292,-0.88362 0.005,-0.0016 0.22319,0.45804 z m 0.45456,0.91261 c -0.43496,0.21744 -0.8461,0.46781 -1.22843,0.7455 l -0.59799,-0.82468 c 0.42907,-0.31172 0.88832,-0.59166 1.37186,-0.83343 z m -1.22843,0.7455 c -0.38523,0.27992 -0.74366,0.5886 -1.07051,0.91953 l -0.72511,-0.71368 c 0.3695,-0.37476 0.7708,-0.72061 1.19763,-1.03053 z m -1.07051,0.91953 c -1.68238,1.70259 -2.62212,4.16722 -2.49828,6.64773 l -1.00686,0.0361 c -0.13817,-2.76656 0.89913,-5.49417 2.78003,-7.39752" />
        <path
           stroke-miterlimit="4"
           stroke-width="0"
           fill-rule="nonzero"
           fill="#000000"
           id="svg_14"
           d="m 172.55109,99.04042 -0.95645,-0.06368 -0.0139,0.37476 c -0.005,-0.01385 0.0162,-0.36724 0.0139,-0.37476 l 0.95687,0.06426 z m -0.97014,0.31114 0.9722,-0.30298 -0.95851,-0.07179 z m 0.9722,-0.30298 c 0.0718,0.24521 0.15609,0.49025 0.25036,0.73163 l -0.94832,0.37008 c -0.103,-0.26378 -0.19258,-0.52125 -0.27419,-0.79875 z m 0.25036,0.73163 c 0.0938,0.24118 0.19848,0.47702 0.31074,0.70429 l -0.91261,0.44988 c -0.12671,-0.25724 -0.24359,-0.51986 -0.34642,-0.78406 z m 0.31074,0.70429 c 0.58107,1.17804 1.41981,2.22203 2.45911,3.04792 l -0.63391,0.79692 c -1.15625,-0.91953 -2.09028,-2.08146 -2.73785,-3.39497" />
        <path
           stroke-miterlimit="4"
           stroke-width="0"
           fill-rule="nonzero"
           fill="#000000"
           id="svg_13"
           d="m 172.52683,99.38276 -1.16826,2.68864 -0.93218,-0.40599 1.16825,-2.68864" />
        <path
           stroke-miterlimit="4"
           stroke-width="0"
           fill-rule="nonzero"
           fill="#000000"
           id="svg_12"
           d="m 174.75761,104.03963 0.0457,-0.34683 0.9126,0.45458 -0.005,0.011 z m 0.95832,0.10775 -0.90853,-0.46273 v 0 z m -0.90853,-0.46273 c 0.12609,-0.24053 0.24522,-0.47598 0.35748,-0.70389 l 0.91605,0.4466 c -0.12318,0.25093 -0.24683,0.49557 -0.36909,0.72795 z m 0.35748,-0.70389 c 0.13296,-0.27112 0.24811,-0.51067 0.34052,-0.71246 l 0.92424,0.42213 c -0.1296,0.28241 -0.24626,0.52866 -0.34869,0.73695 z m 0.34052,-0.71246 c 0.56232,-1.22313 1.04523,-2.48807 1.4443,-3.78282 l 0.97258,0.29831 c -0.40986,1.33145 -0.90914,2.63721 -1.49264,3.90664" />
        <path
           stroke-miterlimit="4"
           stroke-width="0"
           fill-rule="nonzero"
           fill="#000000"
           id="svg_11"
           d="m 178.6549,103.88804 -0.005,-0.0139 0.99236,-0.22665 0.005,0.0138 z m 0.98889,-0.24401 v 0.002 l -0.49615,0.1134 0.49615,-0.11566 z m -0.99236,0.23117 c -0.0625,-0.26644 -0.12319,-0.51108 -0.17871,-0.72511 l 0.98442,-0.25563 c 0.0716,0.2746 0.13417,0.52456 0.18668,0.74958 z m -0.17871,-0.72511 c -0.0532,-0.20299 -0.12012,-0.44353 -0.19953,-0.72 l 0.98095,-0.27893 c 0.0602,0.20896 0.1284,0.45805 0.20301,0.74327 z m 0.77917,-1.00114 0.002,0.002 -0.49049,0.13955 0.48823,-0.14186 z m -0.97626,0.28339 c -0.35272,-1.21906 -0.78957,-2.42035 -1.30473,-3.59267 l -0.0214,-0.35418 0.95339,-0.0561 c 0.52924,1.20355 0.98035,2.44748 1.34882,3.71978" />
        <path
           stroke-miterlimit="4"
           stroke-width="0"
           fill-rule="nonzero"
           fill="#000000"
           id="svg_10"
           d="m 183.28522,122.23618 -1.47696,-7.59828 1.00139,-0.19465 1.47695,7.59828" />
        <path
           stroke-miterlimit="4"
           stroke-width="0"
           fill-rule="nonzero"
           fill="#000000"
           id="svg_9"
           d="m 181.84502,114.77049 -3.46658,-10.13124 0.96462,-0.32723 3.46659,10.13123" />
        <path
           stroke-miterlimit="4"
           stroke-width="0"
           fill-rule="nonzero"
           fill="#000000"
           id="svg_8"
           d="m 184.82449,110.63289 -2.70874,2.67453 -0.71367,-0.7253 2.70873,-2.67453" />
        <path
           stroke-miterlimit="4"
           stroke-width="0"
           fill-rule="nonzero"
           fill="#000000"
           id="svg_7"
           d="m 184.82449,105.45629 -4.03367,3.97855 -0.71369,-0.72531 4.03368,-3.97855" />
      </g>
    </g>
  </g>
</svg>
