<?xml version="1.0" encoding="UTF-8" standalone="no"?>
<!-- Created with Inkscape (http://www.inkscape.org/) -->

<svg
   width="150mm"
   height="100.00001mm"
   viewBox="0 0 150 100.00001"
   version="1.1"
   id="svg5"
   inkscape:version="1.2 (dc2aedaf03, 2022-05-15)"
   sodipodi:docname="columbiadconfederacy.svg"
   xml:space="preserve"
   xmlns:inkscape="http://www.inkscape.org/namespaces/inkscape"
   xmlns:sodipodi="http://sodipodi.sourceforge.net/DTD/sodipodi-0.dtd"
   xmlns="http://www.w3.org/2000/svg"
   xmlns:svg="http://www.w3.org/2000/svg"><sodipodi:namedview
     id="namedview7"
     pagecolor="#ffffff"
     bordercolor="#666666"
     borderopacity="1.0"
     inkscape:showpageshadow="2"
     inkscape:pageopacity="0.0"
     inkscape:pagecheckerboard="0"
     inkscape:deskcolor="#d1d1d1"
     inkscape:document-units="mm"
     showgrid="false"
     inkscape:zoom="0.093205495"
     inkscape:cx="-1603.9827"
     inkscape:cy="-3883.8912"
     inkscape:window-width="1920"
     inkscape:window-height="1017"
     inkscape:window-x="-8"
     inkscape:window-y="-8"
     inkscape:window-maximized="1"
     inkscape:current-layer="layer1" /><defs
     id="defs2" /><g
     inkscape:label="Layer 1"
     inkscape:groupmode="layer"
     id="layer1"
     transform="translate(259.83456,19.613194)"><rect
       style="fill:#3434ff;fill-opacity:1;stroke-width:3;stroke-linecap:round;paint-order:fill markers stroke"
       id="rect2359"
       width="150"
       height="100"
       x="-259.83456"
       y="-19.613188" /><rect
       style="fill:#ffffff;stroke-width:3.67423;stroke-linecap:round;paint-order:fill markers stroke"
       id="rect2476-4"
       width="30"
       height="100"
       x="-199.83456"
       y="-19.613194" /><rect
       style="fill:#ffffff;stroke-width:4.49999;stroke-linecap:round;paint-order:fill markers stroke"
       id="rect2476-4-3"
       width="30"
       height="150"
       x="-45.38681"
       y="-259.83456"
       transform="rotate(-90)" /><rect
       style="fill:#ff3737;fill-opacity:1;stroke-width:3.67423;stroke-linecap:round;paint-order:fill markers stroke"
       id="rect2476-0"
       width="20"
       height="150"
       x="-40.38681"
       y="-259.83456"
       transform="rotate(-90)" /><rect
       style="fill:#ff3737;fill-opacity:1;stroke-width:3;stroke-linecap:round;paint-order:fill markers stroke"
       id="rect2476"
       width="20"
       height="100"
       x="-194.83456"
       y="-19.613194" /><path
       sodipodi:type="star"
       style="fill:#ffffff;stroke-width:3;stroke-linecap:round;paint-order:fill markers stroke"
       id="path2579"
       inkscape:flatsided="false"
       sodipodi:sides="5"
       sodipodi:cx="-956.22046"
       sodipodi:cy="-502.92099"
       sodipodi:r1="32.21487"
       sodipodi:r2="12.241652"
       sodipodi:arg1="-1.5707963"
       sodipodi:arg2="-0.9424778"
       inkscape:rounded="0"
       inkscape:randomized="0"
       d="m -956.22046,-535.13586 7.19546,22.31117 23.4427,-0.0512 -18.99566,13.73782 7.29293,22.2795 -18.93543,-13.82073 -18.93543,13.82073 7.29293,-22.2795 -18.99566,-13.73782 23.4427,0.0512 z"
       transform="matrix(0.26458333,0,0,0.26458333,68.165429,163.45132)"
       inkscape:transform-center-x="-3.1874015e-06"
       inkscape:transform-center-y="-0.81392188" /><path
       sodipodi:type="star"
       style="fill:#ffffff;stroke-width:3;stroke-linecap:round;paint-order:fill markers stroke"
       id="path2579-1"
       inkscape:flatsided="false"
       sodipodi:sides="5"
       sodipodi:cx="-956.22046"
       sodipodi:cy="-502.92099"
       sodipodi:r1="32.21487"
       sodipodi:r2="12.241652"
       sodipodi:arg1="-1.5707963"
       sodipodi:arg2="-0.9424778"
       inkscape:rounded="0"
       inkscape:randomized="0"
       d="m -956.22046,-535.13586 7.19546,22.31117 23.4427,-0.0512 -18.99566,13.73782 7.29293,22.2795 -18.93543,-13.82073 -18.93543,13.82073 7.29293,-22.2795 -18.99566,-13.73782 23.4427,0.0512 z"
       transform="matrix(0.26458333,0,0,0.26458333,68.165429,122.66426)"
       inkscape:transform-center-x="-3.1874015e-06"
       inkscape:transform-center-y="-0.81392188" /><path
       sodipodi:type="star"
       style="fill:#ffffff;stroke-width:3;stroke-linecap:round;paint-order:fill markers stroke"
       id="path2579-11"
       inkscape:flatsided="false"
       sodipodi:sides="5"
       sodipodi:cx="-956.22046"
       sodipodi:cy="-502.92099"
       sodipodi:r1="32.21487"
       sodipodi:r2="12.241652"
       sodipodi:arg1="-1.5707963"
       sodipodi:arg2="-0.9424778"
       inkscape:rounded="0"
       inkscape:randomized="0"
       d="m -956.22046,-535.13586 7.19546,22.31117 23.4427,-0.0512 -18.99566,13.73782 7.29293,22.2795 -18.93543,-13.82073 -18.93543,13.82073 7.29293,-22.2795 -18.99566,-13.73782 23.4427,0.0512 z"
       transform="matrix(0.26458333,0,0,0.26458333,68.165429,143.05779)"
       inkscape:transform-center-x="-3.1874015e-06"
       inkscape:transform-center-y="-0.81392188" /><path
       sodipodi:type="star"
       style="fill:#ffffff;stroke-width:3;stroke-linecap:round;paint-order:fill markers stroke"
       id="path2579-5"
       inkscape:flatsided="false"
       sodipodi:sides="5"
       sodipodi:cx="-956.22046"
       sodipodi:cy="-502.92099"
       sodipodi:r1="32.21487"
       sodipodi:r2="12.241652"
       sodipodi:arg1="-1.5707963"
       sodipodi:arg2="-0.9424778"
       inkscape:rounded="0"
       inkscape:randomized="0"
       d="m -956.22046,-535.13586 7.19546,22.31117 23.4427,-0.0512 -18.99566,13.73782 7.29293,22.2795 -18.93543,-13.82073 -18.93543,13.82073 7.29293,-22.2795 -18.99566,-13.73782 23.4427,0.0512 z"
       transform="matrix(0.26458333,0,0,0.26458333,68.165429,204.23837)"
       inkscape:transform-center-x="-3.1874015e-06"
       inkscape:transform-center-y="-0.81392188" /><path
       sodipodi:type="star"
       style="fill:#ffffff;stroke-width:3;stroke-linecap:round;paint-order:fill markers stroke"
       id="path2579-11-9"
       inkscape:flatsided="false"
       sodipodi:sides="5"
       sodipodi:cx="-956.22046"
       sodipodi:cy="-502.92099"
       sodipodi:r1="32.21487"
       sodipodi:r2="12.241652"
       sodipodi:arg1="-1.5707963"
       sodipodi:arg2="-0.9424778"
       inkscape:rounded="0"
       inkscape:randomized="0"
       d="m -956.22046,-535.13586 7.19546,22.31117 23.4427,-0.0512 -18.99566,13.73782 7.29293,22.2795 -18.93543,-13.82073 -18.93543,13.82073 7.29293,-22.2795 -18.99566,-13.73782 23.4427,0.0512 z"
       transform="matrix(0.26458333,0,0,0.26458333,68.165429,183.84484)"
       inkscape:transform-center-x="-3.1874015e-06"
       inkscape:transform-center-y="-0.81392188" /><path
       sodipodi:type="star"
       style="fill:#ffffff;stroke-width:3;stroke-linecap:round;paint-order:fill markers stroke"
       id="path2579-11-9-8"
       inkscape:flatsided="false"
       sodipodi:sides="5"
       sodipodi:cx="-956.22046"
       sodipodi:cy="-502.92099"
       sodipodi:r1="32.21487"
       sodipodi:r2="12.241652"
       sodipodi:arg1="-1.5707963"
       sodipodi:arg2="-0.9424778"
       inkscape:rounded="0"
       inkscape:randomized="0"
       d="m -956.22046,-535.13586 7.19546,22.31117 23.4427,-0.0512 -18.99566,13.73782 7.29293,22.2795 -18.93543,-13.82073 -18.93543,13.82073 7.29293,-22.2795 -18.99566,-13.73782 23.4427,0.0512 z"
       transform="matrix(0.26458333,0,0,0.26458333,133.60603,163.45132)"
       inkscape:transform-center-x="-3.1874015e-06"
       inkscape:transform-center-y="-0.81392188" /><path
       sodipodi:type="star"
       style="fill:#ffffff;stroke-width:3;stroke-linecap:round;paint-order:fill markers stroke"
       id="path2579-11-9-5"
       inkscape:flatsided="false"
       sodipodi:sides="5"
       sodipodi:cx="-956.22046"
       sodipodi:cy="-502.92099"
       sodipodi:r1="32.21487"
       sodipodi:r2="12.241652"
       sodipodi:arg1="-1.5707963"
       sodipodi:arg2="-0.9424778"
       inkscape:rounded="0"
       inkscape:randomized="0"
       d="m -956.22046,-535.13586 7.19546,22.31117 23.4427,-0.0512 -18.99566,13.73782 7.29293,22.2795 -18.93543,-13.82073 -18.93543,13.82073 7.29293,-22.2795 -18.99566,-13.73782 23.4427,0.0512 z"
       transform="matrix(0.26458333,0,0,0.26458333,111.7925,163.45132)"
       inkscape:transform-center-x="-3.1874015e-06"
       inkscape:transform-center-y="-0.81392188" /><path
       sodipodi:type="star"
       style="fill:#ffffff;stroke-width:3;stroke-linecap:round;paint-order:fill markers stroke"
       id="path2579-11-9-1"
       inkscape:flatsided="false"
       sodipodi:sides="5"
       sodipodi:cx="-956.22046"
       sodipodi:cy="-502.92099"
       sodipodi:r1="32.21487"
       sodipodi:r2="12.241652"
       sodipodi:arg1="-1.5707963"
       sodipodi:arg2="-0.9424778"
       inkscape:rounded="0"
       inkscape:randomized="0"
       d="m -956.22046,-535.13586 7.19546,22.31117 23.4427,-0.0512 -18.99566,13.73782 7.29293,22.2795 -18.93543,-13.82073 -18.93543,13.82073 7.29293,-22.2795 -18.99566,-13.73782 23.4427,0.0512 z"
       transform="matrix(0.26458333,0,0,0.26458333,89.978963,163.45132)"
       inkscape:transform-center-x="-3.1874015e-06"
       inkscape:transform-center-y="-0.81392188" /><path
       sodipodi:type="star"
       style="fill:#ffffff;stroke-width:3;stroke-linecap:round;paint-order:fill markers stroke"
       id="path2579-4"
       inkscape:flatsided="false"
       sodipodi:sides="5"
       sodipodi:cx="-956.22046"
       sodipodi:cy="-502.92099"
       sodipodi:r1="32.21487"
       sodipodi:r2="12.241652"
       sodipodi:arg1="-1.5707963"
       sodipodi:arg2="-0.9424778"
       inkscape:rounded="0"
       inkscape:randomized="0"
       d="m -956.22046,-535.13586 7.19546,22.31117 23.4427,-0.0512 -18.99566,13.73782 7.29293,22.2795 -18.93543,-13.82073 -18.93543,13.82073 7.29293,-22.2795 -18.99566,-13.73782 23.4427,0.0512 z"
       transform="matrix(0.26458333,0,0,0.26458333,2.7248221,163.45132)"
       inkscape:transform-center-x="-3.1874015e-06"
       inkscape:transform-center-y="-0.81392188" /><path
       sodipodi:type="star"
       style="fill:#ffffff;stroke-width:3;stroke-linecap:round;paint-order:fill markers stroke"
       id="path2579-11-9-5-5"
       inkscape:flatsided="false"
       sodipodi:sides="5"
       sodipodi:cx="-956.22046"
       sodipodi:cy="-502.92099"
       sodipodi:r1="32.21487"
       sodipodi:r2="12.241652"
       sodipodi:arg1="-1.5707963"
       sodipodi:arg2="-0.9424778"
       inkscape:rounded="0"
       inkscape:randomized="0"
       d="m -956.22046,-535.13586 7.19546,22.31117 23.4427,-0.0512 -18.99566,13.73782 7.29293,22.2795 -18.93543,-13.82073 -18.93543,13.82073 7.29293,-22.2795 -18.99566,-13.73782 23.4427,0.0512 z"
       transform="matrix(0.26458333,0,0,0.26458333,46.351893,163.45132)"
       inkscape:transform-center-x="-3.1874015e-06"
       inkscape:transform-center-y="-0.81392188" /><path
       sodipodi:type="star"
       style="fill:#ffffff;stroke-width:3;stroke-linecap:round;paint-order:fill markers stroke"
       id="path2579-11-9-1-1"
       inkscape:flatsided="false"
       sodipodi:sides="5"
       sodipodi:cx="-956.22046"
       sodipodi:cy="-502.92099"
       sodipodi:r1="32.21487"
       sodipodi:r2="12.241652"
       sodipodi:arg1="-1.5707963"
       sodipodi:arg2="-0.9424778"
       inkscape:rounded="0"
       inkscape:randomized="0"
       d="m -956.22046,-535.13586 7.19546,22.31117 23.4427,-0.0512 -18.99566,13.73782 7.29293,22.2795 -18.93543,-13.82073 -18.93543,13.82073 7.29293,-22.2795 -18.99566,-13.73782 23.4427,0.0512 z"
       transform="matrix(0.26458333,0,0,0.26458333,24.538358,163.45132)"
       inkscape:transform-center-x="-3.1874015e-06"
       inkscape:transform-center-y="-0.81392188" /></g></svg>
