<?xml version="1.0" encoding="UTF-8" standalone="no"?>
<!-- Created with Inkscape (http://www.inkscape.org/) -->

<svg
   width="150mm"
   height="100mm"
   viewBox="0 0 150 100"
   version="1.1"
   id="svg5"
   inkscape:version="1.2 (dc2aedaf03, 2022-05-15)"
   sodipodi:docname="eire.svg"
   xmlns:inkscape="http://www.inkscape.org/namespaces/inkscape"
   xmlns:sodipodi="http://sodipodi.sourceforge.net/DTD/sodipodi-0.dtd"
   xmlns="http://www.w3.org/2000/svg"
   xmlns:svg="http://www.w3.org/2000/svg">
  <sodipodi:namedview
     id="namedview7"
     pagecolor="#ffffff"
     bordercolor="#666666"
     borderopacity="1.0"
     inkscape:showpageshadow="2"
     inkscape:pageopacity="0.0"
     inkscape:pagecheckerboard="0"
     inkscape:deskcolor="#d1d1d1"
     inkscape:document-units="mm"
     showgrid="false"
     inkscape:zoom="1.0544998"
     inkscape:cx="-150.30824"
     inkscape:cy="281.65014"
     inkscape:window-width="1920"
     inkscape:window-height="1017"
     inkscape:window-x="-8"
     inkscape:window-y="-8"
     inkscape:window-maximized="1"
     inkscape:current-layer="layer1" />
  <defs
     id="defs2" />
  <g
     inkscape:label="Layer 1"
     inkscape:groupmode="layer"
     id="layer1"
     transform="translate(-10.645162,-60.677647)">
    <rect
       style="fill:#ffffff;stroke-width:4.99999"
       id="rect1191"
       width="150"
       height="100"
       x="10.645162"
       y="60.677647" />
    <rect
       style="fill:#006521;fill-opacity:0.980392;stroke:none;stroke-width:3.68785;stroke-linecap:round;stroke-linejoin:round"
       id="rect401"
       width="50"
       height="100"
       x="10.645162"
       y="60.677647" />
    <rect
       style="fill:#ffdb43;fill-opacity:1;stroke:none;stroke-width:3.68784;stroke-linecap:round;stroke-linejoin:round"
       id="rect401-9"
       width="50"
       height="100"
       x="110.64517"
       y="60.677647" />
    <g
       id="g3128"
       transform="translate(10.391592,37.538604)"
       style="stroke:#000000">
      <g
         style="stroke:#000000"
         id="g2879"
         transform="matrix(0.11752232,0,0,0.11752232,5.1761522,34.958675)">
        <path
           style="fill:none;fill-rule:evenodd;stroke:#000000;stroke-width:0.138889;stroke-linecap:butt;stroke-linejoin:miter;stroke-miterlimit:4;stroke-dasharray:none;stroke-opacity:1"
           d="m 46.869438,7.172716 3.24817,3.248171 m -3.214006,-4.3630368 3.471547,3.4715485 m -3.743441,-5.0113368 4.060415,4.0604159 m -3.604765,-4.8132283 4.060415,4.0604159 m -3.350661,-4.6270467 3.583235,3.6725882 m -2.957778,-4.1863564 3.583235,3.6725882 m -2.723889,-4.076689 3.24817,3.248171"
           transform="matrix(34.8349,0,0,34.8349,-1115.69,107.41974)"
           id="path2877" />
      </g>
      <g
         style="fill:#ffff00;fill-opacity:1;stroke:#000000;stroke-width:8.50902;stroke-dasharray:none"
         id="g2891"
         transform="matrix(0.11752232,0,0,0.11752232,5.1761522,34.958675)">
        <path
           style="color:#000000;font-style:normal;font-variant:normal;font-weight:400;font-stretch:normal;font-size:medium;line-height:normal;font-family:sans-serif;text-indent:0;text-align:start;text-decoration:none;text-decoration-line:none;text-decoration-style:solid;text-decoration-color:#000000;letter-spacing:normal;word-spacing:normal;text-transform:none;writing-mode:lr-tb;direction:ltr;baseline-shift:baseline;text-anchor:start;white-space:normal;clip-rule:nonzero;display:inline;overflow:visible;visibility:visible;opacity:1;isolation:auto;mix-blend-mode:normal;color-interpolation:sRGB;color-interpolation-filters:linearRGB;solid-color:#000000;solid-opacity:1;fill:#ffdb43;fill-opacity:1;fill-rule:evenodd;stroke:#000000;stroke-width:0.244267;stroke-linecap:butt;stroke-linejoin:miter;stroke-miterlimit:4;stroke-dasharray:none;stroke-dashoffset:0;stroke-opacity:1;color-rendering:auto;image-rendering:auto;shape-rendering:auto;text-rendering:auto;enable-background:accumulate"
           d="m 51.28125,1.2714844 c -0.360612,0.054535 -0.710996,0.1850435 -1.037109,0.3320312 -0.652228,0.2939754 -1.26736,0.6678022 -1.806641,0.828125 -0.616524,0.1832865 -1.197266,0.09375 -1.197266,0.09375 l -0.126953,0.7890625 c 0,0 0.738405,0.1229513 1.552735,-0.1191406 0.691579,-0.2055996 1.32203,-0.601912 1.90625,-0.8652344 0.584219,-0.2633224 1.065942,-0.3831172 1.509765,-0.2011719 0.09472,0.038832 0.262122,0.087691 0.38053,0.230165 0.118407,0.1424743 0.214235,0.3797359 0.232092,0.4749132 0.02778,0.1480592 -0.0276,0.5023806 -0.119141,0.7871094 C 52.483972,3.9058225 52.3802,4.1230469 52.3802,4.1230469 l 0.627309,0.3417969 c 0,0 0.125495,-0.260944 0.234375,-0.5996094 C 53.350764,3.5265689 53.466529,3.1145242 53.386415,2.6875 53.331544,2.3950297 53.250231,2.1395531 53.064453,1.9160156 52.878675,1.6924782 52.654979,1.5013988 52.384766,1.390625 52.012608,1.2380589 51.641862,1.2169492 51.28125,1.2714844 Z"
           transform="matrix(34.8349,0,0,34.8349,-1115.69,107.41974)"
           id="path2881" />
        <path
           d="m 52.881795,3.8799592 -0.304365,0.011706 -1.872221,8.6718478 0.306885,-0.0048 c 0.07436,0.01087 0.822474,-0.0557 0.948809,-0.711777 l 0.05358,-0.278264 1.202185,-7.1863968 -0.251154,-0.4744013 z"
           style="fill:#ffdb43;fill-opacity:1;fill-rule:evenodd;stroke:#000000;stroke-width:0.244267;stroke-linecap:butt;stroke-linejoin:miter;stroke-miterlimit:4;stroke-dasharray:none;stroke-opacity:1"
           transform="matrix(34.8349,0,0,34.8349,-1115.69,107.41974)"
           id="path2883" />
        <path
           style="fill:#ffdb43;fill-opacity:1;fill-rule:evenodd;stroke:#000000;stroke-width:0.244267;stroke-linecap:butt;stroke-linejoin:miter;stroke-miterlimit:4;stroke-dasharray:none;stroke-opacity:1"
           d="m 49.226114,12.586627 1.78598,-0.02791 1.869701,-8.6787538 -0.725555,0.027906 z"
           transform="matrix(34.8349,0,0,34.8349,-1115.69,107.41974)"
           id="path2885" />
        <path
           d="m 49.992484,10.316712 -0.591867,1.753053 c 1.316514,0.238616 1.731767,-1.314695 0.591867,-1.753053 z"
           style="fill:#ffdb43;fill-opacity:1;fill-rule:evenodd;stroke:#000000;stroke-width:0.244267;stroke-linecap:butt;stroke-linejoin:miter;stroke-miterlimit:4;stroke-dasharray:none;stroke-opacity:1"
           transform="matrix(34.8349,0,0,34.8349,-1115.69,107.41974)"
           id="path2887" />
        <path
           style="fill:#ffdb43;fill-opacity:1;fill-rule:evenodd;stroke:#000000;stroke-width:0.244267;stroke-linecap:butt;stroke-linejoin:miter;stroke-miterlimit:4;stroke-dasharray:none;stroke-opacity:1"
           d="M 49.571501,11.738107 C 49.108959,11.406721 48.338697,11.675018 47.483377,10.736952 46.013346,9.1247083 46.277292,5.4524671 44.565723,4.8730409 44.365834,3.7516167 46.963642,4.115412 47.025705,2.6991032 47.041065,2.3485895 46.659981,1.8661737 46.310594,1.8981787 c -1.085314,0.099418 -0.689137,1.1441778 -0.51488,1.1441778 0.0049,0.2359528 -0.444779,0.1762693 -0.543484,0.085813 -0.315032,0.4992942 -0.666422,0.4319927 -0.743719,0.3146488 0.432456,-0.3972864 0.05007,-1.4854859 0.68465,-2.0047564 0.356213,-0.2914885 0.877175,-0.4713927 1.546496,-0.2549945 1.055868,0.3413728 1.013526,1.5498808 0.764942,2.9923356 -0.32049,1.8596965 -0.827213,4.693831 0.436445,6.075272 0.894766,0.978165 1.973706,0.457671 1.973706,0.457671 0.237571,0.127437 0.525213,0.958677 -0.343249,1.029761 z m 2.42551,-7.4133016 c 0.263691,-0.2641328 1.03895,-0.411583 1.198354,0.3574038 0.41284,0.003 0.417361,-0.4624723 0.294333,-0.7148077 C 53.37063,3.7231899 52.936902,3.3319435 52.275577,3.5101347 51.92389,3.6048954 51.602431,4.0667429 51.997011,4.3248054 Z"
           transform="matrix(34.8349,0,0,34.8349,-1115.69,107.41974)"
           id="path2889" />
      </g>
    </g>
  </g>
</svg>
