<?xml version="1.0" encoding="UTF-8" standalone="no"?>
<!-- Created with Inkscape (http://www.inkscape.org/) -->

<svg
   width="150mm"
   height="100mm"
   viewBox="0 0 150 100"
   version="1.1"
   id="svg5"
   inkscape:version="1.2 (dc2aedaf03, 2022-05-15)"
   sodipodi:docname="dignidad.svg"
   xmlns:inkscape="http://www.inkscape.org/namespaces/inkscape"
   xmlns:sodipodi="http://sodipodi.sourceforge.net/DTD/sodipodi-0.dtd"
   xmlns="http://www.w3.org/2000/svg"
   xmlns:svg="http://www.w3.org/2000/svg">
  <sodipodi:namedview
     id="namedview7"
     pagecolor="#ffffff"
     bordercolor="#666666"
     borderopacity="1.0"
     inkscape:showpageshadow="2"
     inkscape:pageopacity="0.0"
     inkscape:pagecheckerboard="0"
     inkscape:deskcolor="#d1d1d1"
     inkscape:document-units="mm"
     showgrid="false"
     inkscape:zoom="0.26362494"
     inkscape:cx="290.18498"
     inkscape:cy="-110.00477"
     inkscape:window-width="1920"
     inkscape:window-height="1017"
     inkscape:window-x="-8"
     inkscape:window-y="-8"
     inkscape:window-maximized="1"
     inkscape:current-layer="layer1" />
  <defs
     id="defs2" />
  <g
     inkscape:label="Layer 1"
     inkscape:groupmode="layer"
     id="layer1"
     transform="translate(-10.645162,-60.677647)">
    <rect
       style="fill:#ffffff;fill-opacity:1;stroke:none;stroke-width:2;stroke-linecap:square;stroke-dasharray:none;paint-order:fill markers stroke"
       id="rect1672"
       width="150"
       height="100"
       x="10.645162"
       y="60.677647" />
    <rect
       style="fill:#ffffff;stroke:none;stroke-width:2;stroke-linecap:square;paint-order:fill markers stroke"
       id="rect486-3"
       width="50"
       height="100"
       x="60.645195"
       y="60.677647" />
    <rect
       style="fill:#1a1a1a;fill-opacity:1;stroke:none;stroke-width:1.41421;stroke-linecap:square;stroke-dasharray:none;paint-order:fill markers stroke"
       id="rect1469-5-0"
       width="150"
       height="10"
       x="10.645162"
       y="140.67764" />
    <rect
       style="fill:#1a1a1a;fill-opacity:1;stroke:none;stroke-width:1.41421;stroke-linecap:square;stroke-dasharray:none;paint-order:fill markers stroke"
       id="rect1469-5-3"
       width="150"
       height="10"
       x="10.645162"
       y="70.677643" />
    <g
       id="g1911"
       transform="translate(161.2195,-4.9999958)">
      <circle
         style="fill:#1a1a1a;fill-opacity:1;stroke:none;stroke-width:3.24395;stroke-linecap:square;stroke-dasharray:none;paint-order:fill markers stroke"
         id="path1746"
         cx="-75.57431"
         cy="115.67764"
         r="39.999996" />
      <circle
         style="fill:#ffffff;fill-opacity:1;stroke:none;stroke-width:2.43297;stroke-linecap:square;stroke-dasharray:none;paint-order:fill markers stroke"
         id="path1746-9"
         cx="-75.57431"
         cy="115.67764"
         r="30" />
      <path
         d="m -52.398497,115.06659 c -4.044416,-4.13242 -6.293618,-9.56205 -6.355941,-15.344219 l 5.215765,-5.215728 -0.864,-0.864023 -5.216384,5.216374 c -5.7828,-0.06355 -11.211816,-2.312746 -15.344224,-6.355926 v -7.376997 h -1.222064 v 7.376373 c -4.133015,4.044428 -9.562643,6.293626 -15.344834,6.355949 l -5.215764,-5.215773 -0.864,0.864023 5.216377,5.216329 c -0.06292,5.782208 -2.312145,11.211788 -6.355951,15.344218 h -7.376363 v 1.22207 h 7.376363 c 4.044417,4.13302 6.293015,9.56265 6.35534,15.34483 l -5.215156,5.21515 0.863999,0.86401 5.216377,-5.21639 c 5.781582,0.063 11.211206,2.31214 15.343612,6.35535 v 7.377 h 1.222064 v -7.37578 c 4.133017,-4.04381 9.562037,-6.29301 15.344837,-6.35534 l 5.21517,5.21516 0.864,-0.86401 -5.215776,-5.21578 c 0.0623,-5.78219 2.311524,-11.21182 6.355941,-15.34482 h 7.376373 v -1.22205 z m -21.700786,0 3.433998,-3.434 c 0.204683,1.24222 0.688632,2.41051 1.422481,3.434 z m -0.863998,-0.86403 v -4.85645 c 1.022867,0.73384 2.191159,1.21778 3.43461,1.42248 z m -1.222064,6.3e-4 -3.434608,-3.4346 c 1.242839,-0.20461 2.41113,-0.68864 3.434608,-1.42248 z m -0.864609,0.8634 h -4.852812 c 0.733238,-1.02289 1.216562,-2.18994 1.42126,-3.43156 z m 6.09e-4,1.22205 -3.433384,3.4334 c -0.204706,-1.24224 -0.688633,-2.41055 -1.42248,-3.4334 z m 0.864,0.86462 v 4.85526 c -1.022866,-0.73387 -2.19116,-1.21717 -3.433387,-1.42189 z m 1.222064,0 3.435219,3.43522 c -1.242839,0.2046 -2.411742,0.68863 -3.435219,1.42368 z m 0.863998,-0.86462 h 4.856479 c -0.734458,1.02348 -1.218396,2.19116 -1.422481,3.43399 z m 6.43233,-1.22205 c -1.165236,-1.24713 -1.826373,-2.84377 -1.88381,-4.54851 l 4.231394,-4.2314 c 0.283518,3.24458 1.542848,6.28505 3.636252,8.77991 z m -2.747197,-5.41251 c -1.706001,-0.058 -3.302628,-0.7192 -4.549131,-1.88382 v -5.98442 c 2.494842,2.09399 5.535335,3.35331 8.780525,3.63684 z m -5.771195,-1.88382 c -1.246505,1.16523 -2.843129,1.82638 -4.54913,1.88382 l -4.232004,-4.23203 c 3.245188,-0.2835 6.286292,-1.54222 8.781134,-3.63621 z m -5.410684,2.75026 c -0.05743,1.70414 -0.718572,3.30016 -1.882587,4.54607 h -5.984444 c 2.092782,-2.49425 3.351509,-5.53413 3.635638,-8.77746 z m -1.885641,5.76812 c 1.165235,1.2465 1.826371,2.84314 1.883809,4.54792 l -4.232617,4.2326 c -0.282907,-3.24457 -1.542243,-6.28567 -3.635637,-8.78052 z m 2.748417,5.41252 c 1.705391,0.058 3.302016,0.71856 4.547908,1.8832 v 5.98445 c -2.494842,-2.09342 -5.535334,-3.35274 -8.779911,-3.63625 z m 5.769972,1.88747 c 1.246503,-1.16585 2.843741,-1.82759 4.549741,-1.88502 l 4.468478,4.46847 c -3.340513,0.26334 -6.469607,1.55996 -9.018219,3.73525 z m 5.412518,-2.75086 c 0.05743,-1.70539 0.718574,-3.30201 1.88381,-4.54851 h 5.984449 c -2.093405,2.49484 -3.352734,5.53593 -3.636865,8.78051 z m 15.482333,-5.77118 h -5.969186 c -2.601771,-2.68917 -4.056637,-6.20136 -4.117735,-9.94333 l 4.219776,-4.21976 c 0.314079,5.27195 2.361031,10.21337 5.867145,14.16309 z m -6.731146,-15.02708 -4.219775,4.21975 c -3.742571,-0.0613 -7.254781,-1.51593 -9.94393,-4.11893 v -5.967329 c 3.949708,3.505502 8.890509,5.552422 14.163705,5.866509 z M -76.185345,94.1724 v 5.96854 c -2.68976,2.60239 -6.20197,4.05721 -9.944539,4.11772 l -4.219171,-4.21915 c 5.27259,-0.314087 10.214004,-2.361007 14.16371,-5.86711 z m -15.027709,6.7311 4.222228,4.2222 c -0.06171,3.74075 -1.515969,7.25233 -4.117131,9.94089 h -5.971611 c 3.505489,-3.94972 5.552445,-8.89051 5.866514,-14.16309 z m -5.866514,15.38576 h 5.968555 c 2.602385,2.68915 4.05664,6.20196 4.117743,9.94393 l -4.219784,4.21977 c -0.313458,-5.27199 -2.360416,-10.21337 -5.866514,-14.1637 z m 6.731124,15.02648 4.220394,-4.21978 c 3.741959,0.0616 7.253555,1.51656 9.942705,4.11834 v 5.96794 c -3.949706,-3.50548 -8.890508,-5.55242 -14.163099,-5.8665 z m 15.385163,5.86835 v -5.6221 c 2.736199,-2.69831 6.345565,-4.19352 10.188343,-4.2204 l 3.975362,3.97537 c -5.272583,0.31408 -10.213997,2.36039 -14.163705,5.86713 z m 15.027706,-6.73113 -4.219776,-4.21977 c 0.06173,-3.74197 1.516577,-7.25418 4.118348,-9.94393 h 5.968573 c -3.506715,3.94969 -5.553679,8.89111 -5.867145,14.1637 z"
         id="path234"
         style="fill:#ffffff;stroke:#1a1a1a;stroke-width:1.46473;stroke-dasharray:none" />
    </g>
  </g>
</svg>
