<?xml version="1.0" encoding="UTF-8" standalone="no"?>
<!-- Created with Inkscape (http://www.inkscape.org/) -->

<svg
   width="150mm"
   height="100mm"
   viewBox="0 0 150 100"
   version="1.1"
   id="svg5"
   inkscape:version="1.2 (dc2aedaf03, 2022-05-15)"
   sodipodi:docname="granbolivaria.svg"
   xmlns:inkscape="http://www.inkscape.org/namespaces/inkscape"
   xmlns:sodipodi="http://sodipodi.sourceforge.net/DTD/sodipodi-0.dtd"
   xmlns="http://www.w3.org/2000/svg"
   xmlns:svg="http://www.w3.org/2000/svg">
  <sodipodi:namedview
     id="namedview7"
     pagecolor="#ffffff"
     bordercolor="#666666"
     borderopacity="1.0"
     inkscape:showpageshadow="2"
     inkscape:pageopacity="0.0"
     inkscape:pagecheckerboard="0"
     inkscape:deskcolor="#d1d1d1"
     inkscape:document-units="mm"
     showgrid="false"
     inkscape:zoom="0.37282197"
     inkscape:cx="108.63094"
     inkscape:cy="152.88799"
     inkscape:window-width="1920"
     inkscape:window-height="1017"
     inkscape:window-x="-8"
     inkscape:window-y="-8"
     inkscape:window-maximized="1"
     inkscape:current-layer="layer1" />
  <defs
     id="defs2" />
  <g
     inkscape:label="Layer 1"
     inkscape:groupmode="layer"
     id="layer1"
     transform="translate(-10.645162,-60.677647)">
    <rect
       style="fill:#db322b;stroke:none;stroke-width:0.2;stroke-linecap:round;paint-order:fill markers stroke"
       id="rect286"
       width="50"
       height="100"
       x="10.645162"
       y="60.677647" />
    <rect
       style="fill:#2929ff;fill-opacity:1;stroke:none;stroke-width:0.2;stroke-linecap:round;paint-order:fill markers stroke"
       id="rect286-3"
       width="50"
       height="100"
       x="60.645164"
       y="60.677647" />
    <rect
       style="fill:#ffff28;fill-opacity:1;stroke:none;stroke-width:0.2;stroke-linecap:round;paint-order:fill markers stroke"
       id="rect286-3-2"
       width="50"
       height="100"
       x="110.64516"
       y="60.677647" />
    <g
       id="g4651"
       transform="translate(-1.3054999,-8.92417)">
      <g
         id="g3873"
         transform="matrix(0.08514007,0,0,0.08514007,67.297831,101.36109)"
         style="fill:#ffffff">
			<g
   id="g3849"
   style="fill:#ffffff">
				<path
   class="st0"
   d="m 35.8,244 1.2,1 c -1.3,-9 -2,-18.8 0.6,-27.4 3.9,-13.8 8.8,-27.2 11.3,-41.5 2,-11.1 4.3,-23.6 3,-34.3 -1.5,5.8 -3,11.5 -6.2,16.5 -12.1,18.7 -24.5,40.7 -16,64.5 -0.2,0.3 -0.5,0.6 -0.8,0.4 -3.4,-7.9 -4.2,-16.8 -6.4,-25.2 -5.9,-22.3 -23,-41 -18,-66.8 -2.7,5.6 -3.7,11.9 -5.1,18 -3,15.8 0,32.5 4.3,47.1 5.3,18.1 23,31.1 32.1,47.7 z"
   id="path3833"
   style="fill:#ffffff" />

				<path
   class="st0"
   d="m 31.2,128.2 c 4,-8.2 10.5,-16 18.3,-21.8 17.2,-13 36,-29.8 36.3,-51.8 C 80,70.4 62.7,77 51.2,87.8 45.1,93.5 40.4,100.4 37.7,107.6 l -0.4,-0.3 c 1.4,-6.4 4.1,-12.1 6,-18.3 5,-16.8 4.1,-36.9 20.5,-48.2 C 55.4,43 48.3,48.4 42,55.4 v 0 C 28.7,70.1 29.9,91.8 31.6,111 c 0.6,6 0.3,11.1 -0.4,17.2 z"
   id="path3835"
   style="fill:#ffffff" />

				<path
   class="st0"
   d="M 51.2,80.3 C 60.4,71.7 71,65.3 78.8,55.1 88.1,42.8 96.2,29 108.4,18.4 c -16.5,6.4 -34.3,13 -45,30 -6.3,9.9 -7.3,21.6 -12.2,31.9 z"
   id="path3837"
   style="fill:#ffffff" />

				<path
   class="st0"
   d="m 58.1,123.8 c 4,-8.1 6.5,-17.3 7.6,-26.2 -1.5,3.8 -3.8,7.3 -7,10.3 -13.4,12.7 -29.1,25.1 -32.1,43.1 -0.4,2.6 -0.7,5.2 -1.4,7.7 -0.6,0.3 -0.6,-0.4 -0.8,-0.6 l 1.7,-22.2 c 1.6,-21.7 -9.8,-45.8 2.7,-64.9 -0.4,-0.1 -0.7,0.3 -1,0.4 -11.4,14.5 -19,30.5 -19,50 0,24.1 13.9,41 15.6,63.6 3.6,-23.6 23.4,-40.4 33.7,-61.2 z"
   id="path3839"
   style="fill:#ffffff" />

				<path
   class="st0"
   d="m 31.6,271.9 c 12.9,10.2 28.3,18.1 40.1,27.1 -2.3,-5.9 -6.1,-11.3 -7.6,-17.4 -6.9,-27.9 -3.1,-60.3 -15,-86.1 2.2,14.7 -3.6,27.7 -4.9,41.7 -1.1,11.5 0.9,22.7 5.4,32.3 1.3,2.9 3.7,5.4 4.4,8.4 -4.3,-3.9 -7.4,-8.8 -10.3,-13.6 -13.9,-22.5 -43,-37.1 -45,-64.5 v 0 c -1,12.2 0.1,25.1 4.1,35.9 5.5,14.8 16.3,26.3 28.8,36.2 z"
   id="path3841"
   style="fill:#ffffff" />

				<path
   class="st0"
   d="m 207,345.8 c -22.5,0 -42.7,10.9 -62.4,19.1 -17.9,7.4 -41.6,6 -57.5,-5 7.8,9.8 18.3,15.9 29.2,20 20.1,8 43.6,1.9 60.8,-9.1 12.3,-7.9 22.9,-19.1 37.6,-19.1 23.7,0 48.6,24.3 69.9,46.3 3.3,-2.7 6.8,-5.5 9.5,-8.6 -22.3,-21.2 -53.8,-43.6 -87.1,-43.6 z"
   id="path3843"
   style="fill:#ffffff" />

				<path
   class="st0"
   d="m 166.8,348.2 c 3.5,-0.9 7.7,-0.6 10.9,-1.8 -13.4,-2.7 -26.3,-6.8 -36.7,-16.3 -14.9,-13.6 -28.1,-28.1 -44,-38.7 12.5,16.8 16,41.2 38.8,49.7 4,1.5 8.7,1.8 12.2,4 -4.4,0.7 -8.2,-0.7 -12.3,-1.6 -29.4,-6.3 -65.2,1.8 -87.2,-23.2 8.3,16.4 25.5,29.3 42.1,34.7 25.5,8.6 52.2,-0.9 76.2,-6.8 z"
   id="path3845"
   style="fill:#ffffff" />

				<path
   class="st0"
   d="M 117.6,335.9 C 98.5,320.5 95.6,297.4 87.1,277.2 81.8,264.6 73.2,253.3 64,242.3 c 10.1,20.2 5.7,46.2 18.8,65.2 4.1,6 9.8,11.7 15.1,16.4 l -0.2,0.3 C 92.9,322 88.6,318.6 84.2,315 61.3,295.9 26.8,293.5 13.1,262.4 v 0 c 3.7,22.8 21.8,43 41.4,55.8 18.6,12.2 42.5,10.9 63.1,17.7 z"
   id="path3847"
   style="fill:#ffffff" />

			</g>

			<g
   id="g3871"
   style="fill:#ffffff">
				<path
   class="st0"
   d="m 383.7,55.1 c 7.8,10.3 18.4,16.6 27.6,25.2 -4.9,-10.3 -5.9,-22 -12.1,-31.9 -10.7,-17 -28.5,-23.6 -45,-30 12,10.6 20.1,24.3 29.5,36.7 z"
   id="path3851"
   style="fill:#ffffff" />

				<path
   class="st0"
   d="m 419.2,89 c 1.8,6.1 4.5,11.9 6,18.3 l -0.4,0.3 c -2.7,-7.2 -7.4,-14.1 -13.5,-19.8 -11.5,-10.9 -28.8,-17.4 -34.5,-33.3 0.3,22.1 19.1,38.9 36.3,51.8 7.7,5.8 14.3,13.6 18.3,21.8 -0.7,-6.1 -1,-11.2 -0.4,-17.1 1.8,-19.3 2.9,-40.9 -10.3,-55.6 v 0 c -6.3,-7 -13.4,-12.5 -21.8,-14.6 16.2,11.3 15.3,31.4 20.3,48.2 z"
   id="path3853"
   style="fill:#ffffff" />

				<path
   class="st0"
   d="m 436.4,135.8 1.7,22.2 c -0.2,0.2 -0.2,0.8 -0.8,0.6 -0.7,-2.5 -1,-5.1 -1.4,-7.7 -3,-17.9 -18.8,-30.4 -32.1,-43.1 -3.2,-3 -5.5,-6.5 -7,-10.3 1.1,8.9 3.6,18.1 7.6,26.2 10.3,20.8 30.1,37.6 33.7,61.3 1.7,-22.7 15.6,-39.5 15.6,-63.6 0,-19.5 -7.6,-35.5 -19,-50 -0.3,-0.2 -0.6,-0.5 -1,-0.4 12.5,19.1 1,43.2 2.7,64.8 z"
   id="path3855"
   style="fill:#ffffff" />

				<path
   class="st0"
   d="m 440,197.9 c -2.2,8.4 -3,17.4 -6.4,25.2 -0.3,0.2 -0.6,-0.2 -0.8,-0.4 8.5,-23.8 -3.9,-45.7 -16,-64.5 -3.2,-4.9 -4.7,-10.7 -6.2,-16.5 -1.3,10.8 1,23.2 3,34.3 2.6,14.3 7.4,27.7 11.3,41.5 2.6,8.6 1.9,18.3 0.6,27.4 l 1.2,-1 c 9,-16.6 26.8,-29.6 32.2,-47.8 4.3,-14.5 7.3,-31.3 4.3,-47.1 v 0 c -1.4,-6.1 -2.5,-12.4 -5.1,-18 4.9,25.9 -12.2,44.6 -18.1,66.9 z"
   id="path3857"
   style="fill:#ffffff" />

				<path
   class="st0"
   d="m 317.8,364.9 c -19.8,-8.2 -39.9,-19.1 -62.4,-19.1 -33.2,0 -64.8,22.5 -86.9,43.6 2.7,3.1 6.2,6 9.5,8.6 21.2,-21.9 46.2,-46.3 69.9,-46.3 14.7,0 25.3,11.2 37.6,19.1 17.1,10.9 40.6,17.1 60.8,9.1 10.8,-4.1 21.3,-10.2 29.2,-20 -16,10.9 -39.8,12.4 -57.7,5 z"
   id="path3859"
   style="fill:#ffffff" />

				<path
   class="st0"
   d="M 463.9,199.6 Z"
   id="path3861"
   style="fill:#ffffff" />

				<path
   class="st0"
   d="m 418.9,264.1 c -3,4.8 -6,9.8 -10.3,13.6 0.7,-2.9 3.1,-5.5 4.4,-8.4 4.5,-9.7 6.5,-20.8 5.4,-32.3 -1.4,-14 -7.2,-27 -4.9,-41.7 -12,25.8 -8.1,58.2 -15,86.1 -1.5,6.2 -5.3,11.6 -7.6,17.4 11.8,-9 27.2,-16.9 40.1,-27.1 12.5,-9.8 23.3,-21.4 29,-36.4 4.1,-10.8 5.1,-23.7 4.1,-35.9 -2.1,27.6 -31.3,42.2 -45.2,64.7 z"
   id="path3863"
   style="fill:#ffffff" />

				<path
   class="st0"
   d="m 378.1,315 c -4.4,3.6 -8.7,7 -13.5,9.2 l -0.2,-0.3 c 5.3,-4.8 11,-10.5 15.1,-16.4 13.1,-19 8.7,-45.1 18.8,-65.2 -9.2,11 -17.8,22.3 -23.1,34.9 -8.5,20.2 -11.4,43.3 -30.5,58.7 20.6,-6.8 44.5,-5.5 63,-17.6 19.5,-12.8 37.6,-33 41.4,-55.8 -13.6,31 -48,33.4 -71,52.5 z"
   id="path3865"
   style="fill:#ffffff" />

				<path
   class="st0"
   d="M 449.2,262.4 Z"
   id="path3867"
   style="fill:#ffffff" />

				<path
   class="st0"
   d="m 326.8,343.6 c -4.1,0.9 -7.9,2.2 -12.3,1.6 3.5,-2.2 8.1,-2.5 12.2,-4 22.8,-8.6 26.3,-33 38.8,-49.7 -15.9,10.6 -29.1,25.1 -44,38.7 -10.4,9.5 -23.3,13.5 -36.7,16.3 3.2,1.2 7.4,0.9 10.9,1.8 24.1,6 50.7,15.4 76.3,6.9 16.5,-5.5 33.7,-18.4 42.1,-34.7 -22.1,24.9 -58,16.9 -87.3,23.1 z"
   id="path3869"
   style="fill:#ffffff" />

			</g>

		</g>
      <path
         sodipodi:type="star"
         style="fill:#ffffff;fill-opacity:1;stroke:none;stroke-width:0.2;stroke-linecap:round;paint-order:fill markers stroke"
         id="path4627"
         inkscape:flatsided="false"
         sodipodi:sides="5"
         sodipodi:cx="268.14792"
         sodipodi:cy="133.44171"
         sodipodi:r1="31.516382"
         sodipodi:r2="11.976227"
         sodipodi:arg1="-1.5707963"
         sodipodi:arg2="-0.9424778"
         inkscape:rounded="0"
         inkscape:randomized="0"
         d="m 268.14792,101.92533 7.03945,21.82741 22.93441,-0.0501 -18.58379,13.43996 7.13479,21.79643 -18.52486,-13.52106 -18.52487,13.52106 7.1348,-21.79643 -18.58379,-13.43996 22.93441,0.0501 z"
         transform="matrix(0.38253769,0,0,0.38253769,-15.626021,65.032306)"
         inkscape:transform-center-y="-1.1512656" />
    </g>
  </g>
</svg>
