<?xml version="1.0" encoding="UTF-8" standalone="no"?>
<!-- Created with Inkscape (http://www.inkscape.org/) -->

<svg
   width="150mm"
   height="99.000023mm"
   viewBox="0 0 150 99.000023"
   version="1.1"
   id="svg5"
   inkscape:version="1.2 (dc2aedaf03, 2022-05-15)"
   sodipodi:docname="bundesrepublik.svg"
   xml:space="preserve"
   xmlns:inkscape="http://www.inkscape.org/namespaces/inkscape"
   xmlns:sodipodi="http://sodipodi.sourceforge.net/DTD/sodipodi-0.dtd"
   xmlns="http://www.w3.org/2000/svg"
   xmlns:svg="http://www.w3.org/2000/svg"><sodipodi:namedview
     id="namedview7"
     pagecolor="#ffffff"
     bordercolor="#666666"
     borderopacity="1.0"
     inkscape:showpageshadow="2"
     inkscape:pageopacity="0.0"
     inkscape:pagecheckerboard="0"
     inkscape:deskcolor="#d1d1d1"
     inkscape:document-units="mm"
     showgrid="false"
     inkscape:zoom="1.5229018"
     inkscape:cx="258.71662"
     inkscape:cy="265.93968"
     inkscape:window-width="1920"
     inkscape:window-height="1017"
     inkscape:window-x="-8"
     inkscape:window-y="-8"
     inkscape:window-maximized="1"
     inkscape:current-layer="layer1" /><defs
     id="defs2" /><g
     inkscape:label="Layer 1"
     inkscape:groupmode="layer"
     id="layer1"
     transform="translate(-10.64516,-60.67765)"><g
       id="g1150"
       transform="translate(123.29869,-142.64246)"><path
         id="rect401-8-3-7"
         style="fill:#ff3737;stroke-width:3.66936;stroke-linecap:round;stroke-linejoin:round;fill-opacity:1"
         d="M -112.65353,269.32013 H 37.346474 v 33 H -112.65353 Z" /><path
         id="rect401-8-1-4"
         style="fill:#ffffff;stroke-width:3.66936;stroke-linecap:round;stroke-linejoin:round"
         d="M -112.65353,236.32011 H 37.346474 v 33 H -112.65353 Z" /><path
         id="rect401-8-3"
         style="fill:#ffff2d;stroke-width:3.66936;stroke-linecap:round;stroke-linejoin:round;fill-opacity:1"
         d="M -112.65353,203.32011 H 37.346474 v 33 H -112.65353 Z" /></g><path
       style="fill:#000000;stroke-width:0.0178089"
       d="m 79.030009,125.07594 c -0.212624,-0.11729 -0.283851,-0.22047 -0.339418,-0.49169 -0.09904,-0.48339 -0.114963,-1.17479 -0.03754,-1.62964 0.151771,-0.89166 0.566187,-1.79762 1.304225,-2.85119 0.270283,-0.38584 0.778646,-1.03019 1.557456,-1.97407 1.258061,-1.5247 1.828682,-2.30245 2.330127,-3.1759 0.50284,-0.87589 0.860703,-1.81519 1.025233,-2.69099 0.09011,-0.47965 0.158174,-1.29644 0.110492,-1.32591 -0.02353,-0.0145 -0.114598,0.0301 -0.332724,0.16305 -0.757886,0.46199 -1.595864,0.84992 -2.573394,1.19133 -0.396309,0.13841 -0.714869,0.28923 -1.01742,0.48167 -0.443687,0.28222 -0.767185,0.54275 -1.155946,0.93095 -0.553429,0.55264 -1.09711,1.25486 -1.868511,2.41339 -0.557947,0.83796 -0.841489,1.23753 -1.093149,1.54048 -0.432665,0.52084 -0.83115,0.82451 -1.277777,0.97372 -0.126044,0.0421 -0.179444,0.0501 -0.336789,0.0502 l -0.186994,1.8e-4 -0.382892,-0.20008 c -0.413886,-0.21628 -0.517305,-0.28951 -0.660565,-0.46776 -0.162632,-0.20235 -0.210482,-0.3483 -0.22771,-0.69455 l -0.01108,-0.22266 -0.133567,0.009 c -0.2998,0.02 -0.736238,0.008 -0.890448,-0.0241 -0.227689,-0.0476 -0.448066,-0.12598 -0.685644,-0.24372 -0.822886,-0.40779 -1.433272,-1.20751 -1.618054,-2.11997 -0.09976,-0.4926 -0.09688,-0.61357 0.03238,-1.36081 0.12188,-0.70456 0.23641,-1.08585 0.50311,-1.67491 0.306392,-0.67673 0.749086,-1.39115 1.715581,-2.76862 1.158678,-1.65136 1.446013,-2.14651 1.61958,-2.7909 l 0.0394,-0.14627 -0.05588,-0.23105 c -0.08287,-0.34266 -0.107544,-0.51391 -0.119558,-0.82989 -0.04014,-1.05589 0.357579,-2.07678 1.241912,-3.1878 0.209145,-0.26275 0.891747,-0.95396 1.167351,-1.18207 l 0.180207,-0.14915 0.01195,-1.159805 c 0.01763,-1.710685 0.04354,-2.994011 0.06461,-3.199329 0.0242,-0.235786 0.0536,-0.306102 0.164723,-0.393941 0.120086,-0.09492 0.19223,-0.122202 0.321852,-0.1217 0.166699,6.46e-4 0.134942,-0.01502 1.329044,0.655422 0.200796,0.112739 0.525364,0.294569 0.721262,0.404067 0.195899,0.109498 0.560537,0.313512 0.810308,0.453364 0.24977,0.139853 0.530261,0.296167 0.623313,0.347365 0.09305,0.0512 0.263841,0.146123 0.379533,0.210944 0.226325,0.126809 0.237486,0.131219 0.282259,0.111526 0.03828,-0.01684 0.419106,-0.44656 0.932509,-1.052242 0.580373,-0.684691 0.932575,-1.089839 1.059338,-1.218585 0.120242,-0.122124 0.264475,-0.200792 0.373375,-0.203647 0.08679,-0.0023 0.324551,0.11437 0.373635,0.183302 0.07726,0.108504 0.508191,0.993649 1.331467,2.734881 0.171352,0.362413 0.314672,0.662225 0.318487,0.666251 0.0038,0.004 0.209337,-0.01402 0.456714,-0.04011 0.666046,-0.07024 1.048312,-0.08898 1.543733,-0.07569 0.816151,0.02189 1.504236,0.119109 2.236317,0.315966 1.566819,0.421318 3.041438,1.329861 4.244664,2.615231 2.236101,2.38877 3.820821,5.99408 4.936039,11.22973 0.567487,2.6642 0.933465,5.51792 1.362215,10.62185 0.035,0.41629 0.0754,0.83135 0.0898,0.92237 0.0293,0.18462 0.0249,0.21808 -0.0476,0.36331 -0.0668,0.13379 -0.16696,0.23672 -0.25593,0.26297 -0.12868,0.0379 -1.094189,0.0521 -3.659736,0.0535 -1.385981,7.8e-4 -4.52748,0.009 -6.981108,0.0179 -2.453628,0.009 -5.871611,0.0214 -7.595518,0.0274 l -3.134375,0.0109 z"
       id="path4429" /></g></svg>
