<?xml version="1.0" encoding="UTF-8" standalone="no"?>
<!-- Created with Inkscape (http://www.inkscape.org/) -->

<svg
   width="150mm"
   height="99.000023mm"
   viewBox="0 0 150 99.000023"
   version="1.1"
   id="svg5"
   inkscape:version="1.2 (dc2aedaf03, 2022-05-15)"
   sodipodi:docname="volksrepublik.svg"
   xml:space="preserve"
   xmlns:inkscape="http://www.inkscape.org/namespaces/inkscape"
   xmlns:sodipodi="http://sodipodi.sourceforge.net/DTD/sodipodi-0.dtd"
   xmlns="http://www.w3.org/2000/svg"
   xmlns:svg="http://www.w3.org/2000/svg"><sodipodi:namedview
     id="namedview7"
     pagecolor="#ffffff"
     bordercolor="#666666"
     borderopacity="1.0"
     inkscape:showpageshadow="2"
     inkscape:pageopacity="0.0"
     inkscape:pagecheckerboard="0"
     inkscape:deskcolor="#d1d1d1"
     inkscape:document-units="mm"
     showgrid="false"
     inkscape:zoom="2.1537083"
     inkscape:cx="86.36267"
     inkscape:cy="106.32823"
     inkscape:window-width="1920"
     inkscape:window-height="1017"
     inkscape:window-x="-8"
     inkscape:window-y="-8"
     inkscape:window-maximized="1"
     inkscape:current-layer="g1150" /><defs
     id="defs2" /><g
     inkscape:label="Layer 1"
     inkscape:groupmode="layer"
     id="layer1"
     transform="translate(-10.64516,-60.67765)"><g
       id="g1150"
       transform="translate(123.29869,-142.64246)"><path
         id="rect401-8-3-7"
         style="fill:#ff3434;stroke-width:3.66936;stroke-linecap:round;stroke-linejoin:round;fill-opacity:1"
         d="M -112.65353,269.32013 H 37.346474 v 33 H -112.65353 Z" /><path
         id="rect401-8-1-4"
         style="fill:#000000;stroke-width:3.66936;stroke-linecap:round;stroke-linejoin:round"
         d="M -112.65353,236.32011 H 37.346474 v 33 H -112.65353 Z" /><path
         id="rect401-8-3"
         style="fill:#ffff48;stroke-width:3.66936;stroke-linecap:round;stroke-linejoin:round;fill-opacity:1"
         d="M -112.65353,203.32011 H 37.346474 v 33 H -112.65353 Z" /><path
         style="fill:#000000;stroke-width:0.052373"
         d="m -100.40255,234.24292 c -0.0649,-0.0138 -0.13907,-0.0647 -0.16488,-0.11305 -0.0258,-0.0484 -0.0847,-1.60812 -0.1309,-3.46605 -0.0462,-1.85793 -0.0976,-3.54795 -0.11435,-3.75559 -0.0347,-0.43174 0.0201,-0.39165 -0.70268,-0.51352 -1.4591,-0.24602 -2.59031,-0.59696 -3.95153,-1.22588 l -0.46871,-0.21656 -0.11627,0.11929 c -0.11807,0.12114 -0.8754,1.1517 -2.16253,2.94271 -0.79679,1.10872 -1.19786,1.58209 -1.27505,1.50489 -0.0763,-0.0763 0.0122,-0.29941 0.81279,-2.05009 1.54377,-3.37584 1.77038,-3.8774 2.41354,-5.34204 0.27196,-0.61931 0.93501,-2.10409 1.47346,-3.2995 2.36266,-5.24536 2.84274,-6.31789 2.87765,-6.42878 0.0455,-0.14446 0.17092,-0.14133 -2.37912,-0.0594 -1.1438,0.0368 -1.94993,0.0415 -2.09492,0.0122 l -0.23568,-0.0475 -0.0325,-0.62697 c -0.0179,-0.34484 -0.0415,-1.48215 -0.0524,-2.52736 -0.0165,-1.57602 -0.007,-1.90802 0.0525,-1.94514 0.0398,-0.0246 0.69969,-0.0606 1.46644,-0.0799 0.76675,-0.0193 2.46643,-0.069 3.77706,-0.1104 1.31064,-0.0414 3.167313,-0.0753 4.125952,-0.0754 1.733456,-8e-5 1.74465,6.2e-4 2.048833,0.12865 0.16822,0.0708 0.868653,0.33081 1.556517,0.57779 1.386009,0.49765 1.993677,0.72992 2.278613,0.87096 l 0.189981,0.094 0.03762,0.60207 c 0.02069,0.33113 0.02178,0.69583 0.0024,0.81042 -0.03992,0.23631 0.126734,0.15011 -1.938813,1.00279 -0.547297,0.22593 -1.334383,0.5542 -1.749079,0.72949 -0.634941,0.26839 -0.828182,0.32639 -1.223861,0.36732 -0.258428,0.0267 -0.481817,0.0606 -0.496422,0.0752 -0.04563,0.0456 0.136846,0.45094 0.509073,1.13073 0.197159,0.36006 0.604562,1.12602 0.905339,1.70212 0.300778,0.5761 0.806187,1.5306 1.123132,2.1211 0.316945,0.59051 0.829375,1.55679 1.138733,2.1473 0.785949,1.50022 0.979178,1.83305 1.064209,1.83305 0.11164,0 0.291119,-0.15375 0.993293,-0.8509 0.590532,-0.5863 0.651142,-0.63237 0.771858,-0.58663 0.177916,0.0674 1.651106,1.79475 1.651106,1.93594 0,0.1175 -1.028488,1.167 -1.715215,1.75027 -0.208837,0.17737 -0.379704,0.34788 -0.379704,0.37889 0,0.031 0.197519,0.42468 0.438931,0.8748 1.331159,2.48199 2.029813,3.84333 2.03874,3.97252 0.0141,0.20404 -0.159383,0.17982 -0.33038,-0.0461 -0.121514,-0.16056 -0.763904,-0.93842 -2.328141,-2.8191 -0.347012,-0.41721 -0.725324,-0.8573 -0.840693,-0.97798 l -0.209762,-0.21941 -0.824922,0.40964 c -1.265407,0.62839 -2.576257,1.09835 -3.747391,1.34351 -0.29791,0.0624 -0.45113,0.12055 -0.485243,0.18429 -0.03188,0.0596 -0.01719,1.41656 0.04074,3.76373 0.06434,2.60666 0.07445,3.69642 0.03488,3.75972 -0.117524,0.18803 -0.504317,0.23476 -2.061684,0.24911 -0.820946,0.008 -1.54571,0.002 -1.61058,-0.0113 z m -0.51821,-10.62211 c 0.0385,-0.10034 -0.0649,-4.67718 -0.11426,-5.05515 l -0.0376,-0.28805 -0.35355,0.44517 c -0.32908,0.41437 -1.16918,1.55607 -2.32665,3.16193 -0.26728,0.37082 -0.48596,0.71402 -0.48596,0.76265 0,0.16623 1.30054,0.6509 2.46153,0.91734 0.65102,0.1494 0.81651,0.16024 0.85647,0.0561 z m 5.777589,-0.50008 c 0.713317,-0.26733 1.516186,-0.65671 1.553247,-0.75329 0.01882,-0.049 -0.149748,-0.29922 -0.451815,-0.67057 -0.840385,-1.03312 -2.528156,-3.0443 -2.782203,-3.31532 l -0.244712,-0.26106 0.03418,1.78068 c 0.04308,2.24454 0.09606,3.59836 0.143853,3.67568 0.04657,0.0753 0.978304,-0.16785 1.747453,-0.45612 z"
         id="path4245" /></g></g></svg>
