<?xml version="1.0" encoding="UTF-8" standalone="no"?>
<!-- Created with Inkscape (http://www.inkscape.org/) -->

<svg
   width="150mm"
   height="100mm"
   viewBox="0 0 150 100"
   version="1.1"
   id="svg5"
   inkscape:version="1.2 (dc2aedaf03, 2022-05-15)"
   sodipodi:docname="thegreatsoviet.svg"
   xmlns:inkscape="http://www.inkscape.org/namespaces/inkscape"
   xmlns:sodipodi="http://sodipodi.sourceforge.net/DTD/sodipodi-0.dtd"
   xmlns="http://www.w3.org/2000/svg"
   xmlns:svg="http://www.w3.org/2000/svg">
  <sodipodi:namedview
     id="namedview7"
     pagecolor="#ffffff"
     bordercolor="#666666"
     borderopacity="1.0"
     inkscape:showpageshadow="2"
     inkscape:pageopacity="0.0"
     inkscape:pagecheckerboard="0"
     inkscape:deskcolor="#d1d1d1"
     inkscape:document-units="mm"
     showgrid="false"
     inkscape:zoom="0.18641099"
     inkscape:cx="-882.4587"
     inkscape:cy="541.81355"
     inkscape:window-width="1920"
     inkscape:window-height="1017"
     inkscape:window-x="-8"
     inkscape:window-y="-8"
     inkscape:window-maximized="1"
     inkscape:current-layer="g993" />
  <defs
     id="defs2" />
  <g
     inkscape:label="Layer 1"
     inkscape:groupmode="layer"
     id="layer1"
     transform="translate(-10.645162,-60.677647)">
    <rect
       style="fill:#d40000;fill-opacity:1;stroke:none;stroke-width:6.38754;stroke-linecap:round;stroke-linejoin:round"
       id="rect401"
       width="150"
       height="100"
       x="-160.64517"
       y="60.677647"
       transform="scale(-1,1)" />
    <g
       id="g993"
       style="fill:#fcd116;fill-opacity:1"
       transform="matrix(0.26458333,0,0,0.26458333,10.645172,60.677647)">
      <g
         id="g10602"
         transform="matrix(1.6020111,0,0,1.6020111,180.46295,73.44777)">
        <path
           id="path311"
           d="m 170.25,20.839844 v 74.820312 10.750004 19.3789 h 12.9707 L 183.26953,97 c 9.48924,-12.386799 20.46725,-22.143081 33,-28.939453 V 20.839844 Z m 32.18945,6.871094 v 40.898437 c -6.45999,3.449997 -12.91891,9.640554 -19.3789,17.060547 V 27.769531 Z"
           style="fill:#fcd116;fill-opacity:1" />
        <path
           id="path313"
           d="m 147.25,73.650391 c -10.34999,-0.06 -16.12977,7.52016 -18.25977,11.660156 -1.75999,3.419996 -1.21999,8.930081 0,11.830078 1.7,4.019995 6.14063,6.918675 10.14063,10.138675 4.49999,4.29999 5.03937,7.15109 4.10937,9.37109 -0.53,1.27 -1.54054,2.33008 -2.56054,3.33008 -0.94,0.92 -3.82031,-0.52125 -3.82031,-3.03125 5.50999,2.89 4.87069,-9.75945 -3.0293,-5.43945 -2.15,1.17999 -3.52062,5.91117 1.60937,9.95117 7.89,6.81999 15.76017,4.62999 23.66016,0 1.29,-0.76 7.16992,-6.31079 8.41992,-15.05078 h -12.18945 c 0.09,8.86999 -2.19064,14.98937 -10.64063,13.85937 0.56,-0.92 1.03969,-1.90898 1.42969,-2.95898 1.42,-3.82 1.56172,-8.45141 -0.73828,-13.19141 -1.56,-2.55 -3.13117,-5.108205 -4.70117,-7.658202 -0.45,-3.119997 -0.71,-6.140551 0,-9.810547 2.21,-11.419989 13.77086,-9.309991 13.38086,0 0.02,2.999997 0.0386,5.999768 0.0586,9.009765 h 13.45117 c -0.09,-9.29999 -5.34032,-21.929765 -20.32031,-22.009765 z"
           style="fill:#fcd116;fill-opacity:1" />
        <path
           id="path317"
           d="m 90.964844,20.839844 c -5.273804,0.227204 -9.982843,2.123983 -11.794922,5.15039 -15.319985,25.579975 11.450251,46.900327 28.490238,61.070313 l -0.01,38.330073 h 6.03906 0.32032 5.95117 l -0.0117,-38.330073 c 16.78998,-14.169986 43.1603,-35.490338 28.07031,-61.070313 -1.78843,-3.026214 -6.42738,-4.922985 -11.62305,-5.15039 h -2.05078 c -5.27425,0.222078 -10.80823,2.169131 -14.36523,6.460937 l -0.0391,-6.460937 h -12.27344 l -0.0371,6.460937 c -3.61325,-4.291903 -9.23229,-6.238933 -14.585938,-6.460937 z m 7.630859,8.443359 c 4.452137,-0.128474 9.070077,1.553285 9.064457,5.316406 l -0.0293,44.451172 C 97.16087,68.270792 81.609775,52.350215 90.759766,32.740234 c 1.010624,-2.161247 4.373162,-3.357107 7.835937,-3.457031 z m 30.287107,0 c 3.41202,0.09992 6.72368,1.295784 7.7168,3.457031 h -0.01 c 9.01999,19.609981 -6.28938,35.530558 -16.60937,46.310547 l -0.0312,-44.451172 c -0.006,-3.763121 4.54671,-5.44488 8.93359,-5.316406 z"
           style="fill:#fcd116;fill-opacity:1" />
        <path
           id="path319"
           d="m 75.130859,73.650391 c -10.349989,-0.06 -16.120002,7.52016 -18.25,11.660156 -1.759998,3.419996 -1.229998,8.930081 0,11.830078 1.699999,4.019995 6.128676,6.918675 10.138672,10.138675 4.489996,4.29999 5.029609,7.15109 4.09961,9.37109 -0.53,1.27 -1.52883,2.33008 -2.548829,3.33008 -0.939999,0.92 -3.830078,-0.52125 -3.830078,-3.03125 5.519995,2.89 4.870696,-9.75945 -3.029296,-5.43945 -2.139998,1.17999 -3.510855,5.91117 1.61914,9.95117 7.879992,6.81999 15.750164,4.62999 23.660156,0 1.289999,-0.76 7.159924,-6.31079 8.419922,-15.05078 H 83.210938 c 0.09,8.86999 -2.180868,14.98937 -10.63086,13.85937 0.56,-0.92 1.039688,-1.90898 1.429688,-2.95898 1.419998,-3.82 1.559763,-8.45141 -0.740235,-13.19141 -1.569998,-2.55 -3.12922,-5.108205 -4.699219,-7.658202 -0.449999,-3.119997 -0.709999,-6.140551 0,-9.810547 2.199998,-11.419989 13.768906,-9.309991 13.378907,0 0.02,2.999997 0.04055,5.999768 0.06055,9.009765 h 13.451172 c -0.09,-9.29999 -5.340094,-21.929765 -20.330079,-22.009765 z"
           style="fill:#fcd116;fill-opacity:1" />
        <path
           id="path323"
           d="M 22.410156,20.839844 V 125.78906 H 35.390625 L 35.439453,97 C 44.928697,84.613201 55.897025,74.856919 68.429688,68.060547 V 20.839844 Z m 32.189453,6.871094 V 68.609375 C 48.139616,72.059372 41.680697,78.249929 35.220703,85.669922 V 27.769531 Z"
           style="fill:#fcd116;fill-opacity:1" />
      </g>
      <path
         sodipodi:type="star"
         style="fill:none;stroke:#ffff00;stroke-width:11.3386;stroke-linecap:round;paint-order:fill markers stroke"
         id="path10772"
         inkscape:flatsided="false"
         sodipodi:sides="5"
         sodipodi:cx="-262.86005"
         sodipodi:cy="106.83343"
         sodipodi:r1="49.23827"
         sodipodi:r2="18.710543"
         sodipodi:arg1="-1.5707963"
         sodipodi:arg2="-0.9424778"
         inkscape:rounded="0"
         inkscape:randomized="0"
         d="m -262.86005,57.595158 10.99778,34.101122 35.8306,-0.07831 -29.03359,20.997333 11.14674,34.05273 -28.94153,-21.12406 -28.94153,21.12405 11.14675,-34.05272 -29.03359,-20.997336 35.83059,0.07832 z"
         transform="translate(348.57501,-19.124625)"
         inkscape:transform-center-y="-1.2440278" />
    </g>
  </g>
</svg>
