<?xml version="1.0" encoding="UTF-8" standalone="no"?>
<!-- Created with Inkscape (http://www.inkscape.org/) -->

<svg
   width="150mm"
   height="100mm"
   viewBox="0 0 150 100"
   version="1.1"
   id="svg5"
   inkscape:version="1.2 (dc2aedaf03, 2022-05-15)"
   sodipodi:docname="bigapple.svg"
   xml:space="preserve"
   xmlns:inkscape="http://www.inkscape.org/namespaces/inkscape"
   xmlns:sodipodi="http://sodipodi.sourceforge.net/DTD/sodipodi-0.dtd"
   xmlns="http://www.w3.org/2000/svg"
   xmlns:svg="http://www.w3.org/2000/svg"><sodipodi:namedview
     id="namedview7"
     pagecolor="#ffffff"
     bordercolor="#666666"
     borderopacity="1.0"
     inkscape:showpageshadow="2"
     inkscape:pageopacity="0.0"
     inkscape:pagecheckerboard="0"
     inkscape:deskcolor="#d1d1d1"
     inkscape:document-units="mm"
     showgrid="false"
     inkscape:zoom="0.37282197"
     inkscape:cx="569.97715"
     inkscape:cy="388.92558"
     inkscape:window-width="1920"
     inkscape:window-height="1017"
     inkscape:window-x="-8"
     inkscape:window-y="-8"
     inkscape:window-maximized="1"
     inkscape:current-layer="layer1" /><defs
     id="defs2"><inkscape:path-effect
       effect="spiro"
       id="path-effect2946"
       is_visible="true"
       lpeversion="1" /></defs><g
     inkscape:label="Layer 1"
     inkscape:groupmode="layer"
     id="layer1"
     transform="translate(254.7742,-86.226036)"><rect
       style="fill:#ffffff;stroke:none;stroke-width:4"
       id="rect568"
       width="150"
       height="100"
       x="-254.7742"
       y="86.226036" /><text
       xml:space="preserve"
       style="font-weight:bold;font-size:1.41111px;line-height:1.25;font-family:sans-serif;-inkscape-font-specification:'sans-serif Bold';stroke-width:0.264583"
       x="-179.7742"
       y="185.30498"
       id="text1964"><tspan
         sodipodi:role="line"
         id="tspan1962"
         style="stroke-width:0.264583"
         x="-179.7742"
         y="185.30498">s</tspan></text><g
       id="g2768"
       transform="matrix(1.6430477,0,0,1.6430477,166.12906,-56.051826)"><g
         id="g2058"
         transform="matrix(0.50378976,0,0,0.50378976,-150.05374,38.281442)"><path
           style="fill:#008000;stroke-width:1.35819"
           d="m -178.3318,115.84787 c 0.55414,-5.64871 3.99038,-9.11536 3.99038,-9.11536 l -2.7164,-1.35819 c 0,0 -3.50415,4.67408 -4.00937,10.60665"
           id="path1697"
           sodipodi:nodetypes="cccc" /><path
           style="fill:#ff2a2a;stroke-width:1.35819"
           d="m -171.62508,112.16526 c -3.15232,0 -6.70672,2.52216 -6.70672,2.52216 l -1.3397,0.47291 -1.39569,-0.33981 c 0,0 -3.58157,-2.65526 -6.85616,-2.65526 -5.43273,0 -9.5073,4.07457 -8.14913,12.2237 1.78603,10.71883 6.79097,14.94008 10.86553,14.94008 2.71639,0 5.43274,-2.71637 5.43274,-2.71637 0,0 2.71639,2.71637 5.43279,2.71637 4.07456,0 9.07949,-4.22125 10.86548,-14.94008 1.35821,-8.14913 -2.71635,-12.2237 -8.14914,-12.2237 z"
           id="path9"
           sodipodi:nodetypes="scccscscscs" /></g><path
         id="path2174"
         style="fill:#008000;stroke-width:0.173257"
         inkscape:transform-center-x="1.5811421e-06"
         d="m -240.56476,96.33604 c -2.70354,-0.227438 -2.94565,-0.882457 -4.02198,-3.178108 2.70355,0.227434 2.94566,0.882456 4.02198,3.178108 z"
         sodipodi:nodetypes="ccc"
         inkscape:transform-center-y="2.0052179e-06" /><path
         style="fill:none;stroke:#ffffff;stroke-width:0.0842014px;stroke-linecap:round;stroke-linejoin:miter;stroke-opacity:1"
         d="m -244.73522,93.157932 c 0.58077,0.07939 1.12882,0.378364 1.50996,0.823698 0.35302,0.41248 0.55915,0.933491 0.90622,1.350991 0.39007,0.469233 0.95546,0.789169 1.55856,0.881939"
         id="path2944"
         inkscape:path-effect="#path-effect2946"
         inkscape:original-d="m -244.73522,93.157932 c 0,0 1.08959,0.453307 1.50996,0.823698 0.40686,0.358485 0.52212,0.968218 0.90622,1.350991 0.45757,0.45599 1.55856,0.881939 1.55856,0.881939"
         sodipodi:nodetypes="cssc" /><path
         style="fill:#ffffff;stroke:none;stroke-width:0.161032px;stroke-linecap:butt;stroke-linejoin:miter;stroke-opacity:1"
         d="m -246.01709,96.33604 c 0,0 0.55789,0.897595 0.99732,1.152606 0.49218,0.285624 1.67509,0.329369 1.67509,0.329369 0,0 -1.58081,0.795077 -2.08314,1.483912 -0.4802,0.658487 -0.74198,2.329643 -0.74198,2.329643 0,0 -0.69228,-1.866805 -0.64867,-2.835362 0.0388,-0.861594 0.80138,-2.460168 0.80138,-2.460168 z"
         id="path3633"
         sodipodi:nodetypes="cacacac" /></g><rect
       style="fill:#000080;fill-opacity:1;stroke:none;stroke-width:3.26599;stroke-opacity:1"
       id="rect2054-0"
       width="150"
       height="13.333333"
       x="-254.7742"
       y="159.55937" /><rect
       style="fill:#d45500;fill-opacity:1;stroke:none;stroke-width:3.26599;stroke-opacity:1"
       id="rect2054-0-7-5"
       width="150"
       height="13.333333"
       x="-254.7742"
       y="132.8927" /></g></svg>
