<?xml version="1.0" encoding="UTF-8" standalone="no"?>
<!-- Created with Inkscape (http://www.inkscape.org/) -->

<svg
   width="150mm"
   height="100mm"
   viewBox="0 0 150 100"
   version="1.1"
   id="svg5"
   inkscape:version="1.2 (dc2aedaf03, 2022-05-15)"
   sodipodi:docname="bigapple.svg"
   xml:space="preserve"
   xmlns:inkscape="http://www.inkscape.org/namespaces/inkscape"
   xmlns:sodipodi="http://sodipodi.sourceforge.net/DTD/sodipodi-0.dtd"
   xmlns="http://www.w3.org/2000/svg"
   xmlns:svg="http://www.w3.org/2000/svg"><sodipodi:namedview
     id="namedview7"
     pagecolor="#ffffff"
     bordercolor="#666666"
     borderopacity="1.0"
     inkscape:showpageshadow="2"
     inkscape:pageopacity="0.0"
     inkscape:pagecheckerboard="0"
     inkscape:deskcolor="#d1d1d1"
     inkscape:document-units="mm"
     showgrid="false"
     inkscape:zoom="0.093205491"
     inkscape:cx="3089.9467"
     inkscape:cy="1974.1326"
     inkscape:window-width="1920"
     inkscape:window-height="1017"
     inkscape:window-x="-8"
     inkscape:window-y="-8"
     inkscape:window-maximized="1"
     inkscape:current-layer="layer1" /><defs
     id="defs2" /><g
     inkscape:label="Layer 1"
     inkscape:groupmode="layer"
     id="layer1"
     transform="translate(254.7742,-86.226036)"><rect
       style="fill:#ffffff;stroke:none;stroke-width:4"
       id="rect568"
       width="150"
       height="100"
       x="-254.7742"
       y="86.226036" /><text
       xml:space="preserve"
       style="font-weight:bold;font-size:1.41111px;line-height:1.25;font-family:sans-serif;-inkscape-font-specification:'sans-serif Bold';stroke-width:0.264583"
       x="-179.7742"
       y="185.30498"
       id="text1964"><tspan
         sodipodi:role="line"
         id="tspan1962"
         style="stroke-width:0.264583"
         x="-179.7742"
         y="185.30498">s</tspan></text><g
       id="g2768"
       transform="matrix(1.6430477,0,0,1.6430477,166.12906,-56.051826)"><g
         id="g2058"
         transform="matrix(0.50378976,0,0,0.50378976,-150.05374,38.281442)"><path
           style="fill:#008000;stroke-width:1.35819"
           d="m -178.3318,115.84787 c 0.55414,-5.64871 3.99038,-9.11536 3.99038,-9.11536 l -2.7164,-1.35819 c 0,0 -3.50415,4.67408 -4.00937,10.60665"
           id="path1697"
           sodipodi:nodetypes="cccc" /><path
           style="fill:#ff2a2a;stroke-width:1.35819"
           d="m -171.62508,112.16526 c -3.15232,0 -6.70672,2.52216 -6.70672,2.52216 l -1.3397,0.47291 -1.39569,-0.33981 c 0,0 -3.58157,-2.65526 -6.85616,-2.65526 -5.43273,0 -9.5073,4.07457 -8.14913,12.2237 1.78603,10.71883 6.79097,14.94008 10.86553,14.94008 2.71639,0 5.43274,-2.71637 5.43274,-2.71637 0,0 2.71639,2.71637 5.43279,2.71637 4.07456,0 9.07949,-4.22125 10.86548,-14.94008 1.35821,-8.14913 -2.71635,-12.2237 -8.14914,-12.2237 z"
           id="path9"
           sodipodi:nodetypes="scccscscscs" /></g><path
         id="path2174"
         style="fill:#008000;stroke-width:0.268443"
         inkscape:transform-center-x="-2.2212346e-06"
         d="m -240.5704,96.298041 c -4.18885,-0.35239 -4.56397,-1.36727 -6.23162,-4.924129 4.18885,0.352385 4.56397,1.367268 6.23162,4.924129 z"
         sodipodi:nodetypes="ccc"
         inkscape:transform-center-y="2.4321144e-06" /></g><rect
       style="fill:#000080;fill-opacity:1;stroke:none;stroke-width:3.26599;stroke-opacity:1"
       id="rect2054-0"
       width="150"
       height="13.333333"
       x="-254.7742"
       y="162.17612" /><rect
       style="fill:#d45500;fill-opacity:1;stroke:none;stroke-width:3.26599;stroke-opacity:1"
       id="rect2054-0-7-5"
       width="150"
       height="13.333333"
       x="-254.7742"
       y="135.50945" /></g></svg>
