<?xml version="1.0" encoding="UTF-8" standalone="no"?>
<!-- Created with Inkscape (http://www.inkscape.org/) -->

<svg
   width="150mm"
   height="100mm"
   viewBox="0 0 150 100"
   version="1.1"
   id="svg5"
   inkscape:version="1.2 (dc2aedaf03, 2022-05-15)"
   sodipodi:docname="freestateofbuck.svg"
   xml:space="preserve"
   xmlns:inkscape="http://www.inkscape.org/namespaces/inkscape"
   xmlns:sodipodi="http://sodipodi.sourceforge.net/DTD/sodipodi-0.dtd"
   xmlns="http://www.w3.org/2000/svg"
   xmlns:svg="http://www.w3.org/2000/svg"><sodipodi:namedview
     id="namedview7"
     pagecolor="#ffffff"
     bordercolor="#666666"
     borderopacity="1.0"
     inkscape:showpageshadow="2"
     inkscape:pageopacity="0.0"
     inkscape:pagecheckerboard="0"
     inkscape:deskcolor="#d1d1d1"
     inkscape:document-units="mm"
     showgrid="false"
     inkscape:zoom="0.13181247"
     inkscape:cx="-542.43729"
     inkscape:cy="1699.3839"
     inkscape:window-width="1920"
     inkscape:window-height="1017"
     inkscape:window-x="-8"
     inkscape:window-y="-8"
     inkscape:window-maximized="1"
     inkscape:current-layer="layer1" /><defs
     id="defs2" /><g
     inkscape:label="Layer 1"
     inkscape:groupmode="layer"
     id="layer1"
     transform="translate(-10.645162,-60.677647)"><rect
       style="fill:#ff3131;stroke-width:3;stroke-linecap:round;paint-order:fill markers stroke;fill-opacity:1"
       id="rect286"
       width="150"
       height="10"
       x="10.645162"
       y="60.677647" /><rect
       style="fill:#ffffff;stroke-width:3;stroke-linecap:round;paint-order:fill markers stroke"
       id="rect286-8"
       width="150"
       height="10"
       x="10.645162"
       y="70.677643" /><rect
       style="fill:#2121ff;stroke-width:3;stroke-linecap:round;paint-order:fill markers stroke;fill-opacity:1"
       id="rect286-89"
       width="150"
       height="10"
       x="10.645162"
       y="80.677643" /><rect
       style="fill:#ffffff;stroke-width:3;stroke-linecap:round;paint-order:fill markers stroke"
       id="rect286-8-4"
       width="150"
       height="10"
       x="10.645162"
       y="90.677643" /><rect
       style="fill:#ff3131;stroke-width:3;stroke-linecap:round;paint-order:fill markers stroke;fill-opacity:1"
       id="rect286-0"
       width="150"
       height="10"
       x="10.645162"
       y="100.67764" /><rect
       style="fill:#2121ff;stroke-width:3;stroke-linecap:round;paint-order:fill markers stroke;fill-opacity:1"
       id="rect286-8-1"
       width="150"
       height="10"
       x="10.645162"
       y="110.67762" /><rect
       style="fill:#ffffff;stroke-width:3;stroke-linecap:round;paint-order:fill markers stroke"
       id="rect286-89-7"
       width="150"
       height="10"
       x="10.645162"
       y="120.67762" /><rect
       style="fill:#ff3131;stroke-width:3;stroke-linecap:round;paint-order:fill markers stroke;fill-opacity:1"
       id="rect286-8-4-5"
       width="150"
       height="10"
       x="10.645162"
       y="130.67764" /><rect
       style="fill:#ffffff;stroke-width:3;stroke-linecap:round;paint-order:fill markers stroke"
       id="rect286-1"
       width="150"
       height="10"
       x="10.645162"
       y="140.67763" /><rect
       style="fill:#2121ff;stroke-width:3;stroke-linecap:round;paint-order:fill markers stroke;fill-opacity:1"
       id="rect286-8-5"
       width="150"
       height="10"
       x="10.645162"
       y="150.67763" /><rect
       style="fill:#ffffff;stroke-width:3;stroke-linecap:round;paint-order:fill markers stroke;fill-opacity:1"
       id="rect505"
       width="50"
       height="50"
       x="10.645162"
       y="60.677643" /><g
       id="g1621"
       transform="translate(-2.2482099,-23.957672)"><path
         style="fill:#2121ff;stroke:#ff3131;stroke-width:0.89045;stroke-linecap:butt;stroke-linejoin:miter;stroke-dasharray:none;stroke-opacity:1;fill-opacity:1"
         d="m 45.595057,88.12336 c 0,0 -0.06,1.620074 0.197476,2.369744 0.250274,0.728695 0.83886,1.292639 1.263863,1.935294 0.489436,0.740089 1.211,1.366582 1.481093,2.211761 0.210483,0.658643 0.249184,1.408674 0.05924,2.073524 -0.173524,0.6074 -0.568727,1.16676 -1.046638,1.57983 -0.374273,0.3235 -0.860063,0.52401 -1.342852,0.63193 -0.66168,0.14791 -2.034031,0 -2.034031,0 v 5.055457 c 0,0 1.220499,0.10572 1.816802,0 0.773045,-0.13705 1.512386,-0.45293 2.211761,-0.80966 0.735114,-0.37497 1.449065,-0.82083 2.053781,-1.38235 0.546187,-0.50718 1.034888,-1.09816 1.382352,-1.75757 0.318343,-0.604127 0.548648,-1.275107 0.612184,-1.955037 0.08387,-0.8975 -0.0094,-1.83803 -0.315967,-2.685707 -0.336556,-0.930595 -0.955994,-1.753878 -1.619327,-2.488227 -0.555423,-0.614887 -1.281604,-1.050895 -1.935289,-1.560086 -0.656404,-0.511305 -1.472435,-0.852988 -1.994539,-1.500839 -0.39552,-0.49078 -0.44921,-1.121913 -0.789911,-1.718064 z"
         id="path780"
         sodipodi:nodetypes="caaaaaaccaaaaaaaaac" /><path
         style="fill:#2121ff;stroke:#ff3131;stroke-width:0.89045;stroke-linecap:butt;stroke-linejoin:miter;stroke-dasharray:none;stroke-opacity:1;fill-opacity:1"
         d="m 30.191715,88.123359 c 0,0 0.05998,1.620075 -0.19748,2.369745 -0.250266,0.728694 -0.838857,1.292639 -1.263857,1.935294 -0.48944,0.740088 -1.211006,1.366582 -1.481093,2.211759 -0.210489,0.658643 -0.249188,1.408666 -0.05927,2.073526 0.173521,0.60739 0.568725,1.16675 1.046639,1.57983 0.374273,0.3235 0.860063,0.52401 1.342852,0.63193 0.661679,0.14791 2.034032,0 2.034032,0 v 5.055457 c 0,0 -1.2205,0.10572 -1.816801,0 -0.77305,-0.13705 -1.512391,-0.45293 -2.211762,-0.80966 -0.735114,-0.37497 -1.449065,-0.82083 -2.053783,-1.38235 -0.546184,-0.50718 -1.034887,-1.09817 -1.382353,-1.75757 -0.318344,-0.604137 -0.548647,-1.275117 -0.612184,-1.955037 -0.08387,-0.8975 0.0094,-1.83803 0.31597,-2.685709 0.336555,-0.930594 0.955988,-1.753877 1.619328,-2.488225 0.555422,-0.614887 1.2816,-1.050896 1.935286,-1.560086 0.656406,-0.511305 1.472434,-0.852988 1.994538,-1.500839 0.395518,-0.490781 0.449208,-1.121914 0.789913,-1.718065 z"
         id="path780-7"
         sodipodi:nodetypes="caaaaaaccaaaaaaaaac" /><rect
         style="fill:#2121ff;fill-opacity:1;stroke:#ff3131;stroke-width:0.89045;stroke-linecap:round;stroke-dasharray:none;paint-order:fill markers stroke;stroke-opacity:1"
         id="rect1435"
         width="12.559647"
         height="5.8166437"
         x="31.61356"
         y="98.544853"
         rx="0.89044952"
         ry="0.89044952" /></g><path
       sodipodi:type="star"
       style="fill:#0000ff;fill-opacity:1;stroke:#ff3131;stroke-width:9.4971;stroke-linecap:round;stroke-dasharray:none;paint-order:fill markers stroke;stroke-opacity:1"
       id="path1616"
       inkscape:flatsided="false"
       sodipodi:sides="5"
       sodipodi:cx="-226.64973"
       sodipodi:cy="44.25705"
       sodipodi:r1="93.878586"
       sodipodi:r2="35.673862"
       sodipodi:arg1="-1.5707963"
       sodipodi:arg2="-0.9424778"
       inkscape:rounded="0"
       inkscape:randomized="0"
       d="m -226.64973,-49.621536 20.96857,65.017824 68.31527,-0.149314 -55.35599,40.033905 21.25259,64.925541 -55.18044,-40.275508 -55.18045,40.275508 21.25259,-64.925541 -55.35598,-40.03391 68.31527,0.14932 z"
       transform="matrix(0.10529527,0,0,0.10529527,47.564982,87.117061)"
       inkscape:transform-center-y="-0.94393028" /><path
       sodipodi:type="star"
       style="fill:#0000ff;fill-opacity:1;stroke:#ff3131;stroke-width:9.4971;stroke-linecap:round;stroke-dasharray:none;paint-order:fill markers stroke;stroke-opacity:1"
       id="path1616-8"
       inkscape:flatsided="false"
       sodipodi:sides="5"
       sodipodi:cx="-226.64973"
       sodipodi:cy="44.25705"
       sodipodi:r1="93.878586"
       sodipodi:r2="35.673862"
       sodipodi:arg1="-1.5707963"
       sodipodi:arg2="-0.9424778"
       inkscape:rounded="0"
       inkscape:randomized="0"
       d="m -226.64973,-49.621536 20.96857,65.017824 68.31527,-0.149314 -55.35599,40.033905 21.25259,64.925541 -55.18044,-40.275508 -55.18045,40.275508 21.25259,-64.925541 -55.35598,-40.03391 68.31527,0.14932 z"
       transform="matrix(0.10529527,0,0,0.10529527,71.658981,87.117062)"
       inkscape:transform-center-y="-0.94393028" /></g></svg>
