<?xml version="1.0" encoding="UTF-8" standalone="no"?>
<!-- Created with Inkscape (http://www.inkscape.org/) -->

<svg
   width="150mm"
   height="100mm"
   viewBox="0 0 150 100"
   version="1.1"
   id="svg5"
   inkscape:version="1.2 (dc2aedaf03, 2022-05-15)"
   sodipodi:docname="breizhautarky.svg"
   xmlns:inkscape="http://www.inkscape.org/namespaces/inkscape"
   xmlns:sodipodi="http://sodipodi.sourceforge.net/DTD/sodipodi-0.dtd"
   xmlns="http://www.w3.org/2000/svg"
   xmlns:svg="http://www.w3.org/2000/svg">
  <sodipodi:namedview
     id="namedview7"
     pagecolor="#ffffff"
     bordercolor="#666666"
     borderopacity="1.0"
     inkscape:showpageshadow="2"
     inkscape:pageopacity="0.0"
     inkscape:pagecheckerboard="0"
     inkscape:deskcolor="#d1d1d1"
     inkscape:document-units="mm"
     showgrid="false"
     inkscape:zoom="0.18641099"
     inkscape:cx="-1046.0757"
     inkscape:cy="654.46786"
     inkscape:window-width="1920"
     inkscape:window-height="1017"
     inkscape:window-x="-8"
     inkscape:window-y="-8"
     inkscape:window-maximized="1"
     inkscape:current-layer="layer1" />
  <defs
     id="defs2" />
  <g
     inkscape:label="Layer 1"
     inkscape:groupmode="layer"
     id="layer1"
     transform="translate(-10.645162,-60.677647)">
    <rect
       style="fill:#000000;fill-opacity:1;stroke:none;stroke-width:1.92592;stroke-linecap:round;stroke-linejoin:round"
       id="rect401"
       width="13.636364"
       height="100"
       x="10.645162"
       y="60.677647" />
    <rect
       style="fill:#000000;fill-opacity:1;stroke:none;stroke-width:1.92592;stroke-linecap:round;stroke-linejoin:round"
       id="rect401-26"
       width="13.636364"
       height="100"
       x="147.0088"
       y="60.677647" />
    <rect
       style="fill:#ffffff;fill-opacity:1;stroke:none;stroke-width:1.92592;stroke-linecap:round;stroke-linejoin:round"
       id="rect401-2"
       width="13.636364"
       height="100"
       x="24.281525"
       y="60.677647" />
    <rect
       style="fill:#000000;fill-opacity:1;stroke:none;stroke-width:1.92592;stroke-linecap:round;stroke-linejoin:round"
       id="rect401-1"
       width="13.636364"
       height="100"
       x="37.917889"
       y="60.677647" />
    <rect
       style="fill:#000000;fill-opacity:1;stroke:none;stroke-width:1.92592;stroke-linecap:round;stroke-linejoin:round"
       id="rect401-21"
       width="13.636364"
       height="100"
       x="65.190613"
       y="60.677647" />
    <rect
       style="fill:#000000;fill-opacity:1;stroke:none;stroke-width:1.92592;stroke-linecap:round;stroke-linejoin:round"
       id="rect401-1-1"
       width="13.636364"
       height="100"
       x="92.463341"
       y="60.677647" />
    <rect
       style="fill:#000000;fill-opacity:1;stroke:none;stroke-width:1.92592;stroke-linecap:round;stroke-linejoin:round"
       id="rect401-4"
       width="13.636364"
       height="100"
       x="119.73607"
       y="60.677647" />
    <g
       id="use9026-0-6"
       fill="#000000"
       transform="matrix(0.10752688,0,0,0.10752688,-1.1583574,52.887863)">
      <path
         id="use9192-6-4"
         d="m 300,167.5 -13.5,9 -22.5,-9 22.5,-9 z" />
      <path
         id="path9194-8-8"
         d="m 300,167.5 -9,-13.5 9,-22.5 9,22.5 z" />
      <path
         id="use9196-6-5"
         d="m 300,167.5 13.5,-9 22.5,9 -22.5,9 z" />
      <path
         d="m 300,167.5 40.5,99 -31.5,-13.5 -9,18 -9,-18 -31.5,13.5 z"
         id="path9198-7-7" />
    </g>
    <g
       id="use9026-0-6-93"
       fill="#000000"
       transform="matrix(0.10752688,0,0,0.10752688,-1.1583574,76.987859)">
      <path
         id="use9192-6-4-4"
         d="m 300,167.5 -13.5,9 -22.5,-9 22.5,-9 z" />
      <path
         id="path9194-8-8-3"
         d="m 300,167.5 -9,-13.5 9,-22.5 9,22.5 z" />
      <path
         id="use9196-6-5-9"
         d="m 300,167.5 13.5,-9 22.5,9 -22.5,9 z" />
      <path
         d="m 300,167.5 40.5,99 -31.5,-13.5 -9,18 -9,-18 -31.5,13.5 z"
         id="path9198-7-7-6" />
    </g>
    <g
       id="use9026-0-6-62"
       fill="#000000"
       transform="matrix(0.10752688,0,0,0.10752688,-1.1583574,101.08785)">
      <path
         id="use9192-6-4-2"
         d="m 300,167.5 -13.5,9 -22.5,-9 22.5,-9 z" />
      <path
         id="path9194-8-8-7"
         d="m 300,167.5 -9,-13.5 9,-22.5 9,22.5 z" />
      <path
         id="use9196-6-5-6"
         d="m 300,167.5 13.5,-9 22.5,9 -22.5,9 z" />
      <path
         d="m 300,167.5 40.5,99 -31.5,-13.5 -9,18 -9,-18 -31.5,13.5 z"
         id="path9198-7-7-53" />
    </g>
    <g
       id="use9026-0-6-6"
       fill="#000000"
       transform="matrix(0.10752688,0,0,0.10752688,-1.1583574,125.18785)">
      <path
         id="use9192-6-4-7"
         d="m 300,167.5 -13.5,9 -22.5,-9 22.5,-9 z" />
      <path
         id="path9194-8-8-82"
         d="m 300,167.5 -9,-13.5 9,-22.5 9,22.5 z" />
      <path
         id="use9196-6-5-27"
         d="m 300,167.5 13.5,-9 22.5,9 -22.5,9 z" />
      <path
         d="m 300,167.5 40.5,99 -31.5,-13.5 -9,18 -9,-18 -31.5,13.5 z"
         id="path9198-7-7-50" />
    </g>
    <rect
       style="fill:#ffffff;fill-opacity:1;stroke:none;stroke-width:1.92592;stroke-linecap:round;stroke-linejoin:round"
       id="rect401-2-6"
       width="13.636364"
       height="100"
       x="51.554253"
       y="60.677647" />
    <g
       id="use9026-0-6-9"
       fill="#000000"
       transform="matrix(0.10752688,0,0,0.10752688,26.114372,52.887863)">
      <path
         id="use9192-6-4-41"
         d="m 300,167.5 -13.5,9 -22.5,-9 22.5,-9 z" />
      <path
         id="path9194-8-8-70"
         d="m 300,167.5 -9,-13.5 9,-22.5 9,22.5 z" />
      <path
         id="use9196-6-5-8"
         d="m 300,167.5 13.5,-9 22.5,9 -22.5,9 z" />
      <path
         d="m 300,167.5 40.5,99 -31.5,-13.5 -9,18 -9,-18 -31.5,13.5 z"
         id="path9198-7-7-1" />
    </g>
    <g
       id="use9026-0-6-93-7"
       fill="#000000"
       transform="matrix(0.10752688,0,0,0.10752688,26.114372,76.987859)">
      <path
         id="use9192-6-4-4-4"
         d="m 300,167.5 -13.5,9 -22.5,-9 22.5,-9 z" />
      <path
         id="path9194-8-8-3-4"
         d="m 300,167.5 -9,-13.5 9,-22.5 9,22.5 z" />
      <path
         id="use9196-6-5-9-9"
         d="m 300,167.5 13.5,-9 22.5,9 -22.5,9 z" />
      <path
         d="m 300,167.5 40.5,99 -31.5,-13.5 -9,18 -9,-18 -31.5,13.5 z"
         id="path9198-7-7-6-9" />
    </g>
    <g
       id="use9026-0-6-62-2"
       fill="#000000"
       transform="matrix(0.10752688,0,0,0.10752688,26.114372,101.08785)">
      <path
         id="use9192-6-4-2-1"
         d="m 300,167.5 -13.5,9 -22.5,-9 22.5,-9 z" />
      <path
         id="path9194-8-8-7-2"
         d="m 300,167.5 -9,-13.5 9,-22.5 9,22.5 z" />
      <path
         id="use9196-6-5-6-7"
         d="m 300,167.5 13.5,-9 22.5,9 -22.5,9 z" />
      <path
         d="m 300,167.5 40.5,99 -31.5,-13.5 -9,18 -9,-18 -31.5,13.5 z"
         id="path9198-7-7-53-7" />
    </g>
    <g
       id="use9026-0-6-6-6"
       fill="#000000"
       transform="matrix(0.10752688,0,0,0.10752688,26.114372,125.18785)">
      <path
         id="use9192-6-4-7-2"
         d="m 300,167.5 -13.5,9 -22.5,-9 22.5,-9 z" />
      <path
         id="path9194-8-8-82-8"
         d="m 300,167.5 -9,-13.5 9,-22.5 9,22.5 z" />
      <path
         id="use9196-6-5-27-2"
         d="m 300,167.5 13.5,-9 22.5,9 -22.5,9 z" />
      <path
         d="m 300,167.5 40.5,99 -31.5,-13.5 -9,18 -9,-18 -31.5,13.5 z"
         id="path9198-7-7-50-8" />
    </g>
    <rect
       style="fill:#ffffff;fill-opacity:1;stroke:none;stroke-width:1.92592;stroke-linecap:round;stroke-linejoin:round"
       id="rect401-2-1"
       width="13.636364"
       height="100"
       x="78.826981"
       y="60.677647" />
    <g
       id="use9026-0-6-4"
       fill="#000000"
       transform="matrix(0.10752688,0,0,0.10752688,53.387102,52.887866)">
      <path
         id="use9192-6-4-1"
         d="m 300,167.5 -13.5,9 -22.5,-9 22.5,-9 z" />
      <path
         id="path9194-8-8-1"
         d="m 300,167.5 -9,-13.5 9,-22.5 9,22.5 z" />
      <path
         id="use9196-6-5-2"
         d="m 300,167.5 13.5,-9 22.5,9 -22.5,9 z" />
      <path
         d="m 300,167.5 40.5,99 -31.5,-13.5 -9,18 -9,-18 -31.5,13.5 z"
         id="path9198-7-7-9" />
    </g>
    <g
       id="use9026-0-6-93-4"
       fill="#000000"
       transform="matrix(0.10752688,0,0,0.10752688,53.387102,76.635086)">
      <path
         id="use9192-6-4-4-0"
         d="m 300,167.5 -13.5,9 -22.5,-9 22.5,-9 z" />
      <path
         id="path9194-8-8-3-6"
         d="m 300,167.5 -9,-13.5 9,-22.5 9,22.5 z" />
      <path
         id="use9196-6-5-9-7"
         d="m 300,167.5 13.5,-9 22.5,9 -22.5,9 z" />
      <path
         d="m 300,167.5 40.5,99 -31.5,-13.5 -9,18 -9,-18 -31.5,13.5 z"
         id="path9198-7-7-6-2" />
    </g>
    <g
       id="use9026-0-6-62-0"
       fill="#000000"
       transform="matrix(0.10752688,0,0,0.10752688,53.387102,101.44064)">
      <path
         id="use9192-6-4-2-7"
         d="m 300,167.5 -13.5,9 -22.5,-9 22.5,-9 z" />
      <path
         id="path9194-8-8-7-9"
         d="m 300,167.5 -9,-13.5 9,-22.5 9,22.5 z" />
      <path
         id="use9196-6-5-6-9"
         d="m 300,167.5 13.5,-9 22.5,9 -22.5,9 z" />
      <path
         d="m 300,167.5 40.5,99 -31.5,-13.5 -9,18 -9,-18 -31.5,13.5 z"
         id="path9198-7-7-53-3" />
    </g>
    <g
       id="use9026-0-6-6-2"
       fill="#000000"
       transform="matrix(0.10752688,0,0,0.10752688,53.387102,125.18785)">
      <path
         id="use9192-6-4-7-9"
         d="m 300,167.5 -13.5,9 -22.5,-9 22.5,-9 z" />
      <path
         id="path9194-8-8-82-9"
         d="m 300,167.5 -9,-13.5 9,-22.5 9,22.5 z" />
      <path
         id="use9196-6-5-27-3"
         d="m 300,167.5 13.5,-9 22.5,9 -22.5,9 z" />
      <path
         d="m 300,167.5 40.5,99 -31.5,-13.5 -9,18 -9,-18 -31.5,13.5 z"
         id="path9198-7-7-50-6" />
    </g>
    <rect
       style="fill:#ffffff;fill-opacity:1;stroke:none;stroke-width:1.92592;stroke-linecap:round;stroke-linejoin:round"
       id="rect401-2-7"
       width="13.636364"
       height="100"
       x="106.0997"
       y="60.677647" />
    <g
       id="use9026-0-6-96"
       fill="#000000"
       transform="matrix(0.10752688,0,0,0.10752688,80.659822,52.887862)">
      <path
         id="use9192-6-4-43"
         d="m 300,167.5 -13.5,9 -22.5,-9 22.5,-9 z" />
      <path
         id="path9194-8-8-2"
         d="m 300,167.5 -9,-13.5 9,-22.5 9,22.5 z" />
      <path
         id="use9196-6-5-1"
         d="m 300,167.5 13.5,-9 22.5,9 -22.5,9 z" />
      <path
         d="m 300,167.5 40.5,99 -31.5,-13.5 -9,18 -9,-18 -31.5,13.5 z"
         id="path9198-7-7-0" />
    </g>
    <g
       id="use9026-0-6-93-3"
       fill="#000000"
       transform="matrix(0.10752688,0,0,0.10752688,80.659822,76.987858)">
      <path
         id="use9192-6-4-4-40"
         d="m 300,167.5 -13.5,9 -22.5,-9 22.5,-9 z" />
      <path
         id="path9194-8-8-3-9"
         d="m 300,167.5 -9,-13.5 9,-22.5 9,22.5 z" />
      <path
         id="use9196-6-5-9-90"
         d="m 300,167.5 13.5,-9 22.5,9 -22.5,9 z" />
      <path
         d="m 300,167.5 40.5,99 -31.5,-13.5 -9,18 -9,-18 -31.5,13.5 z"
         id="path9198-7-7-6-6" />
    </g>
    <g
       id="use9026-0-6-62-6"
       fill="#000000"
       transform="matrix(0.10752688,0,0,0.10752688,80.659822,101.08785)">
      <path
         id="use9192-6-4-2-13"
         d="m 300,167.5 -13.5,9 -22.5,-9 22.5,-9 z" />
      <path
         id="path9194-8-8-7-5"
         d="m 300,167.5 -9,-13.5 9,-22.5 9,22.5 z" />
      <path
         id="use9196-6-5-6-98"
         d="m 300,167.5 13.5,-9 22.5,9 -22.5,9 z" />
      <path
         d="m 300,167.5 40.5,99 -31.5,-13.5 -9,18 -9,-18 -31.5,13.5 z"
         id="path9198-7-7-53-0" />
    </g>
    <g
       id="use9026-0-6-6-9"
       fill="#000000"
       transform="matrix(0.10752688,0,0,0.10752688,80.659822,125.18785)">
      <path
         id="use9192-6-4-7-1"
         d="m 300,167.5 -13.5,9 -22.5,-9 22.5,-9 z" />
      <path
         id="path9194-8-8-82-1"
         d="m 300,167.5 -9,-13.5 9,-22.5 9,22.5 z" />
      <path
         id="use9196-6-5-27-32"
         d="m 300,167.5 13.5,-9 22.5,9 -22.5,9 z" />
      <path
         d="m 300,167.5 40.5,99 -31.5,-13.5 -9,18 -9,-18 -31.5,13.5 z"
         id="path9198-7-7-50-7" />
    </g>
    <rect
       style="fill:#ffffff;fill-opacity:1;stroke:none;stroke-width:1.92592;stroke-linecap:round;stroke-linejoin:round"
       id="rect401-2-3"
       width="13.636364"
       height="100"
       x="133.37244"
       y="60.677647" />
    <g
       id="use9026-0-6-65"
       fill="#000000"
       transform="matrix(0.10752688,0,0,0.10752688,107.93255,52.887862)">
      <path
         id="use9192-6-4-22"
         d="m 300,167.5 -13.5,9 -22.5,-9 22.5,-9 z" />
      <path
         id="path9194-8-8-8"
         d="m 300,167.5 -9,-13.5 9,-22.5 9,22.5 z" />
      <path
         id="use9196-6-5-5"
         d="m 300,167.5 13.5,-9 22.5,9 -22.5,9 z" />
      <path
         d="m 300,167.5 40.5,99 -31.5,-13.5 -9,18 -9,-18 -31.5,13.5 z"
         id="path9198-7-7-07" />
    </g>
    <g
       id="use9026-0-6-93-9"
       fill="#000000"
       transform="matrix(0.10752688,0,0,0.10752688,107.93255,76.987855)">
      <path
         id="use9192-6-4-4-1"
         d="m 300,167.5 -13.5,9 -22.5,-9 22.5,-9 z" />
      <path
         id="path9194-8-8-3-5"
         d="m 300,167.5 -9,-13.5 9,-22.5 9,22.5 z" />
      <path
         id="use9196-6-5-9-4"
         d="m 300,167.5 13.5,-9 22.5,9 -22.5,9 z" />
      <path
         d="m 300,167.5 40.5,99 -31.5,-13.5 -9,18 -9,-18 -31.5,13.5 z"
         id="path9198-7-7-6-0" />
    </g>
    <g
       id="use9026-0-6-62-8"
       fill="#000000"
       transform="matrix(0.10752688,0,0,0.10752688,107.93255,101.08785)">
      <path
         id="use9192-6-4-2-3"
         d="m 300,167.5 -13.5,9 -22.5,-9 22.5,-9 z" />
      <path
         id="path9194-8-8-7-6"
         d="m 300,167.5 -9,-13.5 9,-22.5 9,22.5 z" />
      <path
         id="use9196-6-5-6-8"
         d="m 300,167.5 13.5,-9 22.5,9 -22.5,9 z" />
      <path
         d="m 300,167.5 40.5,99 -31.5,-13.5 -9,18 -9,-18 -31.5,13.5 z"
         id="path9198-7-7-53-02" />
    </g>
    <g
       id="use9026-0-6-6-3"
       fill="#000000"
       transform="matrix(0.10752688,0,0,0.10752688,107.93255,125.18784)">
      <path
         id="use9192-6-4-7-4"
         d="m 300,167.5 -13.5,9 -22.5,-9 22.5,-9 z" />
      <path
         id="path9194-8-8-82-6"
         d="m 300,167.5 -9,-13.5 9,-22.5 9,22.5 z" />
      <path
         id="use9196-6-5-27-4"
         d="m 300,167.5 13.5,-9 22.5,9 -22.5,9 z" />
      <path
         d="m 300,167.5 40.5,99 -31.5,-13.5 -9,18 -9,-18 -31.5,13.5 z"
         id="path9198-7-7-50-2" />
    </g>
    <g
       id="g2521"
       transform="translate(-111.12275,73.303851)">
      <rect
         style="fill:#000000;fill-opacity:1;stroke:none;stroke-width:2;stroke-linecap:round;paint-order:fill markers stroke"
         id="rect1216"
         width="40.909"
         height="40.909"
         x="176.31346"
         y="16.919291" />
      <g
         id="g10386"
         transform="matrix(0.67811226,0,0,0.67811226,195.48908,12.901683)"
         style="fill:#ffffff">
        <rect
           style="fill:#ffffff;stroke-width:1;stroke-linecap:round;paint-order:fill markers stroke"
           id="rect10261"
           width="4.5163593"
           height="49.178135"
           x="-10.180272"
           y="11.499513" />
        <rect
           style="fill:#ffffff;stroke-width:1;stroke-linecap:round;paint-order:fill markers stroke"
           id="rect10261-2"
           width="4.5163593"
           height="49.178135"
           x="-0.37224612"
           y="11.499513" />
        <rect
           style="fill:#ffffff;stroke-width:1;stroke-linecap:round;paint-order:fill markers stroke"
           id="rect10261-2-2"
           width="4.5163593"
           height="49.178135"
           x="9.4357796"
           y="11.499513" />
        <g
           id="g10377"
           transform="rotate(90,9.4229844,9.8502729)"
           style="fill:#ffffff">
          <rect
             style="fill:#ffffff;stroke-width:1;stroke-linecap:round;paint-order:fill markers stroke"
             id="rect10261-5"
             width="4.5163593"
             height="49.178135"
             x="23.595085"
             y="-7.2017431" />
          <rect
             style="fill:#ffffff;stroke-width:1;stroke-linecap:round;paint-order:fill markers stroke"
             id="rect10261-2-0"
             width="4.5163593"
             height="49.178135"
             x="33.403111"
             y="-7.2017431" />
          <rect
             style="fill:#ffffff;stroke-width:1;stroke-linecap:round;paint-order:fill markers stroke"
             id="rect10261-2-2-3"
             width="4.5163593"
             height="49.178135"
             x="43.211136"
             y="-7.2017431" />
        </g>
      </g>
    </g>
  </g>
</svg>
