<?xml version="1.0" encoding="UTF-8" standalone="no"?>
<!-- Created with Inkscape (http://www.inkscape.org/) -->

<svg
   width="150mm"
   height="100mm"
   viewBox="0 0 150 100"
   version="1.1"
   id="svg5"
   inkscape:version="1.2 (dc2aedaf03, 2022-05-15)"
   sodipodi:docname="fenianworkersstate.svg"
   xml:space="preserve"
   xmlns:inkscape="http://www.inkscape.org/namespaces/inkscape"
   xmlns:sodipodi="http://sodipodi.sourceforge.net/DTD/sodipodi-0.dtd"
   xmlns="http://www.w3.org/2000/svg"
   xmlns:svg="http://www.w3.org/2000/svg"><sodipodi:namedview
     id="namedview7"
     pagecolor="#ffffff"
     bordercolor="#666666"
     borderopacity="1.0"
     inkscape:showpageshadow="2"
     inkscape:pageopacity="0.0"
     inkscape:pagecheckerboard="0"
     inkscape:deskcolor="#d1d1d1"
     inkscape:document-units="mm"
     showgrid="false"
     inkscape:zoom="0.37282197"
     inkscape:cx="708.11278"
     inkscape:cy="651.78562"
     inkscape:window-width="1920"
     inkscape:window-height="1017"
     inkscape:window-x="-8"
     inkscape:window-y="-8"
     inkscape:window-maximized="1"
     inkscape:current-layer="layer1" /><defs
     id="defs2" /><g
     inkscape:label="Layer 1"
     inkscape:groupmode="layer"
     id="layer1"
     transform="translate(-10.645162,-60.677647)"><rect
       style="fill:#03825d;fill-opacity:1;stroke:none;stroke-width:6.38754;stroke-linecap:round;stroke-linejoin:round"
       id="rect401"
       width="150"
       height="100"
       x="10.645162"
       y="60.677647" /><path
       sodipodi:type="star"
       style="fill:#f8c300;fill-opacity:1;stroke-width:1;stroke-linecap:round;paint-order:fill markers stroke"
       id="path7751"
       inkscape:flatsided="false"
       sodipodi:sides="8"
       sodipodi:cx="-384.90222"
       sodipodi:cy="328.57507"
       sodipodi:r1="57.730618"
       sodipodi:r2="21.937637"
       sodipodi:arg1="-1.5707963"
       sodipodi:arg2="-1.1780972"
       inkscape:rounded="0"
       inkscape:randomized="0"
       d="m -384.90222,270.84446 8.39517,37.46288 32.42654,-20.55398 -20.55398,32.42654 37.46289,8.39517 -37.46289,8.39517 20.55398,32.42655 -32.42654,-20.55398 -8.39517,37.46288 -8.39517,-37.46288 -32.42654,20.55397 20.55397,-32.42654 -37.46288,-8.39517 37.46288,-8.39517 -20.55397,-32.42654 32.42654,20.55398 z"
       transform="matrix(0.12991373,0,0,0.12991373,73.440912,30.782901)"
       inkscape:transform-center-x="-3.3759132e-06" /><path
       sodipodi:type="star"
       style="fill:#f8c300;fill-opacity:1;stroke-width:1;stroke-linecap:round;paint-order:fill markers stroke"
       id="path7751-5"
       inkscape:flatsided="false"
       sodipodi:sides="8"
       sodipodi:cx="-384.90222"
       sodipodi:cy="328.57507"
       sodipodi:r1="57.730618"
       sodipodi:r2="21.937637"
       sodipodi:arg1="-1.5707963"
       sodipodi:arg2="-1.1780972"
       inkscape:rounded="0"
       inkscape:randomized="0"
       d="m -384.90222,270.84446 8.39517,37.46288 32.42654,-20.55398 -20.55398,32.42654 37.46289,8.39517 -37.46289,8.39517 20.55398,32.42655 -32.42654,-20.55398 -8.39517,37.46288 -8.39517,-37.46288 -32.42654,20.55397 20.55397,-32.42654 -37.46288,-8.39517 37.46288,-8.39517 -20.55397,-32.42654 32.42654,20.55398 z"
       transform="matrix(0.12991373,0,0,0.12991373,73.440912,104.78021)"
       inkscape:transform-center-x="-3.3759132e-06" /><path
       sodipodi:type="star"
       style="fill:#f8c300;fill-opacity:1;stroke-width:1;stroke-linecap:round;paint-order:fill markers stroke"
       id="path7751-5-3"
       inkscape:flatsided="false"
       sodipodi:sides="8"
       sodipodi:cx="-384.90222"
       sodipodi:cy="328.57507"
       sodipodi:r1="57.730618"
       sodipodi:r2="21.937637"
       sodipodi:arg1="-1.5707963"
       sodipodi:arg2="-1.1780972"
       inkscape:rounded="0"
       inkscape:randomized="0"
       d="m -384.90222,270.84446 8.39517,37.46288 32.42654,-20.55398 -20.55398,32.42654 37.46289,8.39517 -37.46289,8.39517 20.55398,32.42655 -32.42654,-20.55398 -8.39517,37.46288 -8.39517,-37.46288 -32.42654,20.55397 20.55397,-32.42654 -37.46288,-8.39517 37.46288,-8.39517 -20.55397,-32.42654 32.42654,20.55398 z"
       transform="matrix(0.12991373,0,0,0.12991373,73.440912,86.280883)"
       inkscape:transform-center-x="-3.3759132e-06" /><path
       sodipodi:type="star"
       style="fill:#f8c300;fill-opacity:1;stroke-width:1;stroke-linecap:round;paint-order:fill markers stroke"
       id="path7751-5-4"
       inkscape:flatsided="false"
       sodipodi:sides="8"
       sodipodi:cx="-384.90222"
       sodipodi:cy="328.57507"
       sodipodi:r1="57.730618"
       sodipodi:r2="21.937637"
       sodipodi:arg1="-1.5707963"
       sodipodi:arg2="-1.1780972"
       inkscape:rounded="0"
       inkscape:randomized="0"
       d="m -384.90222,270.84446 8.39517,37.46288 32.42654,-20.55398 -20.55398,32.42654 37.46289,8.39517 -37.46289,8.39517 20.55398,32.42655 -32.42654,-20.55398 -8.39517,37.46288 -8.39517,-37.46288 -32.42654,20.55397 20.55397,-32.42654 -37.46288,-8.39517 37.46288,-8.39517 -20.55397,-32.42654 32.42654,20.55398 z"
       transform="matrix(0.12991373,0,0,0.12991373,73.440912,67.781556)"
       inkscape:transform-center-x="-3.3759132e-06" /><path
       sodipodi:type="star"
       style="fill:#f8c300;fill-opacity:1;stroke-width:1;stroke-linecap:round;paint-order:fill markers stroke"
       id="path7751-5-5"
       inkscape:flatsided="false"
       sodipodi:sides="8"
       sodipodi:cx="-384.90222"
       sodipodi:cy="328.57507"
       sodipodi:r1="57.730618"
       sodipodi:r2="21.937637"
       sodipodi:arg1="-1.5707963"
       sodipodi:arg2="-1.1780972"
       inkscape:rounded="0"
       inkscape:randomized="0"
       d="m -384.90222,270.84446 8.39517,37.46288 32.42654,-20.55398 -20.55398,32.42654 37.46289,8.39517 -37.46289,8.39517 20.55398,32.42655 -32.42654,-20.55398 -8.39517,37.46288 -8.39517,-37.46288 -32.42654,20.55397 20.55397,-32.42654 -37.46288,-8.39517 37.46288,-8.39517 -20.55397,-32.42654 32.42654,20.55398 z"
       transform="matrix(0.12991373,0,0,0.12991373,73.440912,49.282228)"
       inkscape:transform-center-x="-3.3759132e-06" /><path
       sodipodi:type="star"
       style="fill:#f8c300;fill-opacity:1;stroke-width:1;stroke-linecap:round;paint-order:fill markers stroke"
       id="path7751-8"
       inkscape:flatsided="false"
       sodipodi:sides="8"
       sodipodi:cx="-384.90222"
       sodipodi:cy="328.57507"
       sodipodi:r1="57.730618"
       sodipodi:r2="21.937637"
       sodipodi:arg1="-1.5707963"
       sodipodi:arg2="-1.1780972"
       inkscape:rounded="0"
       inkscape:randomized="0"
       d="m -384.90222,270.84446 8.39517,37.46288 32.42654,-20.55398 -20.55398,32.42654 37.46289,8.39517 -37.46289,8.39517 20.55398,32.42655 -32.42654,-20.55398 -8.39517,37.46288 -8.39517,-37.46288 -32.42654,20.55397 20.55397,-32.42654 -37.46288,-8.39517 37.46288,-8.39517 -20.55397,-32.42654 32.42654,20.55398 z"
       transform="matrix(0.12991373,0,0,0.12991373,197.85758,30.820568)"
       inkscape:transform-center-x="-3.3759132e-06" /><path
       sodipodi:type="star"
       style="fill:#f8c300;fill-opacity:1;stroke-width:1;stroke-linecap:round;paint-order:fill markers stroke"
       id="path7751-8-8"
       inkscape:flatsided="false"
       sodipodi:sides="8"
       sodipodi:cx="-384.90222"
       sodipodi:cy="328.57507"
       sodipodi:r1="57.730618"
       sodipodi:r2="21.937637"
       sodipodi:arg1="-1.5707963"
       sodipodi:arg2="-1.1780972"
       inkscape:rounded="0"
       inkscape:randomized="0"
       d="m -384.90222,270.84446 8.39517,37.46288 32.42654,-20.55398 -20.55398,32.42654 37.46289,8.39517 -37.46289,8.39517 20.55398,32.42655 -32.42654,-20.55398 -8.39517,37.46288 -8.39517,-37.46288 -32.42654,20.55397 20.55397,-32.42654 -37.46288,-8.39517 37.46288,-8.39517 -20.55397,-32.42654 32.42654,20.55398 z"
       transform="matrix(0.12991373,0,0,0.12991373,91.214722,30.782901)"
       inkscape:transform-center-x="-3.3759132e-06" /><path
       sodipodi:type="star"
       style="fill:#f8c300;fill-opacity:1;stroke-width:1;stroke-linecap:round;paint-order:fill markers stroke"
       id="path7751-8-5"
       inkscape:flatsided="false"
       sodipodi:sides="8"
       sodipodi:cx="-384.90222"
       sodipodi:cy="328.57507"
       sodipodi:r1="57.730618"
       sodipodi:r2="21.937637"
       sodipodi:arg1="-1.5707963"
       sodipodi:arg2="-1.1780972"
       inkscape:rounded="0"
       inkscape:randomized="0"
       d="m -384.90222,270.84446 8.39517,37.46288 32.42654,-20.55398 -20.55398,32.42654 37.46289,8.39517 -37.46289,8.39517 20.55398,32.42655 -32.42654,-20.55398 -8.39517,37.46288 -8.39517,-37.46288 -32.42654,20.55397 20.55397,-32.42654 -37.46288,-8.39517 37.46288,-8.39517 -20.55397,-32.42654 32.42654,20.55398 z"
       transform="matrix(0.12991373,0,0,0.12991373,108.98853,30.782901)"
       inkscape:transform-center-x="-3.3759132e-06" /><path
       sodipodi:type="star"
       style="fill:#f8c300;fill-opacity:1;stroke-width:1;stroke-linecap:round;paint-order:fill markers stroke"
       id="path7751-8-1"
       inkscape:flatsided="false"
       sodipodi:sides="8"
       sodipodi:cx="-384.90222"
       sodipodi:cy="328.57507"
       sodipodi:r1="57.730618"
       sodipodi:r2="21.937637"
       sodipodi:arg1="-1.5707963"
       sodipodi:arg2="-1.1780972"
       inkscape:rounded="0"
       inkscape:randomized="0"
       d="m -384.90222,270.84446 8.39517,37.46288 32.42654,-20.55398 -20.55398,32.42654 37.46289,8.39517 -37.46289,8.39517 20.55398,32.42655 -32.42654,-20.55398 -8.39517,37.46288 -8.39517,-37.46288 -32.42654,20.55397 20.55397,-32.42654 -37.46288,-8.39517 37.46288,-8.39517 -20.55397,-32.42654 32.42654,20.55398 z"
       transform="matrix(0.12991373,0,0,0.12991373,126.76234,30.782901)"
       inkscape:transform-center-x="-3.3759132e-06" /><path
       sodipodi:type="star"
       style="fill:#f8c300;fill-opacity:1;stroke-width:1;stroke-linecap:round;paint-order:fill markers stroke"
       id="path7751-8-2"
       inkscape:flatsided="false"
       sodipodi:sides="8"
       sodipodi:cx="-384.90222"
       sodipodi:cy="328.57507"
       sodipodi:r1="57.730618"
       sodipodi:r2="21.937637"
       sodipodi:arg1="-1.5707963"
       sodipodi:arg2="-1.1780972"
       inkscape:rounded="0"
       inkscape:randomized="0"
       d="m -384.90222,270.84446 8.39517,37.46288 32.42654,-20.55398 -20.55398,32.42654 37.46289,8.39517 -37.46289,8.39517 20.55398,32.42655 -32.42654,-20.55398 -8.39517,37.46288 -8.39517,-37.46288 -32.42654,20.55397 20.55397,-32.42654 -37.46288,-8.39517 37.46288,-8.39517 -20.55397,-32.42654 32.42654,20.55398 z"
       transform="matrix(0.12991373,0,0,0.12991373,144.53615,30.782901)"
       inkscape:transform-center-x="-3.3759132e-06" /><path
       sodipodi:type="star"
       style="fill:#f8c300;fill-opacity:1;stroke-width:1;stroke-linecap:round;paint-order:fill markers stroke"
       id="path7751-8-4"
       inkscape:flatsided="false"
       sodipodi:sides="8"
       sodipodi:cx="-384.90222"
       sodipodi:cy="328.57507"
       sodipodi:r1="57.730618"
       sodipodi:r2="21.937637"
       sodipodi:arg1="-1.5707963"
       sodipodi:arg2="-1.1780972"
       inkscape:rounded="0"
       inkscape:randomized="0"
       d="m -384.90222,270.84446 8.39517,37.46288 32.42654,-20.55398 -20.55398,32.42654 37.46289,8.39517 -37.46289,8.39517 20.55398,32.42655 -32.42654,-20.55398 -8.39517,37.46288 -8.39517,-37.46288 -32.42654,20.55397 20.55397,-32.42654 -37.46288,-8.39517 37.46288,-8.39517 -20.55397,-32.42654 32.42654,20.55398 z"
       transform="matrix(0.12991373,0,0,0.12991373,162.30996,30.782901)"
       inkscape:transform-center-x="-3.3759132e-06" /><path
       sodipodi:type="star"
       style="fill:#f8c300;fill-opacity:1;stroke-width:1;stroke-linecap:round;paint-order:fill markers stroke"
       id="path7751-8-88"
       inkscape:flatsided="false"
       sodipodi:sides="8"
       sodipodi:cx="-384.90222"
       sodipodi:cy="328.57507"
       sodipodi:r1="57.730618"
       sodipodi:r2="21.937637"
       sodipodi:arg1="-1.5707963"
       sodipodi:arg2="-1.1780972"
       inkscape:rounded="0"
       inkscape:randomized="0"
       d="m -384.90222,270.84446 8.39517,37.46288 32.42654,-20.55398 -20.55398,32.42654 37.46289,8.39517 -37.46289,8.39517 20.55398,32.42655 -32.42654,-20.55398 -8.39517,37.46288 -8.39517,-37.46288 -32.42654,20.55397 20.55397,-32.42654 -37.46288,-8.39517 37.46288,-8.39517 -20.55397,-32.42654 32.42654,20.55398 z"
       transform="matrix(0.12991373,0,0,0.12991373,180.08377,30.820568)"
       inkscape:transform-center-x="-3.3759132e-06" /><path
       sodipodi:type="star"
       style="fill:#f8c300;fill-opacity:1;stroke-width:1;stroke-linecap:round;paint-order:fill markers stroke"
       id="path7751-8-7"
       inkscape:flatsided="false"
       sodipodi:sides="8"
       sodipodi:cx="-384.90222"
       sodipodi:cy="328.57507"
       sodipodi:r1="57.730618"
       sodipodi:r2="21.937637"
       sodipodi:arg1="-1.5707963"
       sodipodi:arg2="-1.1780972"
       inkscape:rounded="0"
       inkscape:randomized="0"
       d="m -384.90222,270.84446 8.39517,37.46288 32.42654,-20.55398 -20.55398,32.42654 37.46289,8.39517 -37.46289,8.39517 20.55398,32.42655 -32.42654,-20.55398 -8.39517,37.46288 -8.39517,-37.46288 -32.42654,20.55397 20.55397,-32.42654 -37.46288,-8.39517 37.46288,-8.39517 -20.55397,-32.42654 32.42654,20.55398 z"
       transform="matrix(0.12991373,0,0,0.12991373,197.85758,104.85554)"
       inkscape:transform-center-x="-3.3759132e-06" /><path
       sodipodi:type="star"
       style="fill:#f8c300;fill-opacity:1;stroke-width:1;stroke-linecap:round;paint-order:fill markers stroke"
       id="path7751-8-8-3"
       inkscape:flatsided="false"
       sodipodi:sides="8"
       sodipodi:cx="-384.90222"
       sodipodi:cy="328.57507"
       sodipodi:r1="57.730618"
       sodipodi:r2="21.937637"
       sodipodi:arg1="-1.5707963"
       sodipodi:arg2="-1.1780972"
       inkscape:rounded="0"
       inkscape:randomized="0"
       d="m -384.90222,270.84446 8.39517,37.46288 32.42654,-20.55398 -20.55398,32.42654 37.46289,8.39517 -37.46289,8.39517 20.55398,32.42655 -32.42654,-20.55398 -8.39517,37.46288 -8.39517,-37.46288 -32.42654,20.55397 20.55397,-32.42654 -37.46288,-8.39517 37.46288,-8.39517 -20.55397,-32.42654 32.42654,20.55398 z"
       transform="matrix(0.12991373,0,0,0.12991373,91.214722,104.81788)"
       inkscape:transform-center-x="-3.3759132e-06" /><path
       sodipodi:type="star"
       style="fill:#f8c300;fill-opacity:1;stroke-width:1;stroke-linecap:round;paint-order:fill markers stroke"
       id="path7751-8-5-2"
       inkscape:flatsided="false"
       sodipodi:sides="8"
       sodipodi:cx="-384.90222"
       sodipodi:cy="328.57507"
       sodipodi:r1="57.730618"
       sodipodi:r2="21.937637"
       sodipodi:arg1="-1.5707963"
       sodipodi:arg2="-1.1780972"
       inkscape:rounded="0"
       inkscape:randomized="0"
       d="m -384.90222,270.84446 8.39517,37.46288 32.42654,-20.55398 -20.55398,32.42654 37.46289,8.39517 -37.46289,8.39517 20.55398,32.42655 -32.42654,-20.55398 -8.39517,37.46288 -8.39517,-37.46288 -32.42654,20.55397 20.55397,-32.42654 -37.46288,-8.39517 37.46288,-8.39517 -20.55397,-32.42654 32.42654,20.55398 z"
       transform="matrix(0.12991373,0,0,0.12991373,108.98853,104.81788)"
       inkscape:transform-center-x="-3.3759132e-06" /><path
       sodipodi:type="star"
       style="fill:#f8c300;fill-opacity:1;stroke-width:1;stroke-linecap:round;paint-order:fill markers stroke"
       id="path7751-8-1-3"
       inkscape:flatsided="false"
       sodipodi:sides="8"
       sodipodi:cx="-384.90222"
       sodipodi:cy="328.57507"
       sodipodi:r1="57.730618"
       sodipodi:r2="21.937637"
       sodipodi:arg1="-1.5707963"
       sodipodi:arg2="-1.1780972"
       inkscape:rounded="0"
       inkscape:randomized="0"
       d="m -384.90222,270.84446 8.39517,37.46288 32.42654,-20.55398 -20.55398,32.42654 37.46289,8.39517 -37.46289,8.39517 20.55398,32.42655 -32.42654,-20.55398 -8.39517,37.46288 -8.39517,-37.46288 -32.42654,20.55397 20.55397,-32.42654 -37.46288,-8.39517 37.46288,-8.39517 -20.55397,-32.42654 32.42654,20.55398 z"
       transform="matrix(0.12991373,0,0,0.12991373,126.76234,104.81788)"
       inkscape:transform-center-x="-3.3759132e-06" /><path
       sodipodi:type="star"
       style="fill:#f8c300;fill-opacity:1;stroke-width:1;stroke-linecap:round;paint-order:fill markers stroke"
       id="path7751-8-2-4"
       inkscape:flatsided="false"
       sodipodi:sides="8"
       sodipodi:cx="-384.90222"
       sodipodi:cy="328.57507"
       sodipodi:r1="57.730618"
       sodipodi:r2="21.937637"
       sodipodi:arg1="-1.5707963"
       sodipodi:arg2="-1.1780972"
       inkscape:rounded="0"
       inkscape:randomized="0"
       d="m -384.90222,270.84446 8.39517,37.46288 32.42654,-20.55398 -20.55398,32.42654 37.46289,8.39517 -37.46289,8.39517 20.55398,32.42655 -32.42654,-20.55398 -8.39517,37.46288 -8.39517,-37.46288 -32.42654,20.55397 20.55397,-32.42654 -37.46288,-8.39517 37.46288,-8.39517 -20.55397,-32.42654 32.42654,20.55398 z"
       transform="matrix(0.12991373,0,0,0.12991373,144.53615,104.81788)"
       inkscape:transform-center-x="-3.3759132e-06" /><path
       sodipodi:type="star"
       style="fill:#f8c300;fill-opacity:1;stroke-width:1;stroke-linecap:round;paint-order:fill markers stroke"
       id="path7751-8-4-9"
       inkscape:flatsided="false"
       sodipodi:sides="8"
       sodipodi:cx="-384.90222"
       sodipodi:cy="328.57507"
       sodipodi:r1="57.730618"
       sodipodi:r2="21.937637"
       sodipodi:arg1="-1.5707963"
       sodipodi:arg2="-1.1780972"
       inkscape:rounded="0"
       inkscape:randomized="0"
       d="m -384.90222,270.84446 8.39517,37.46288 32.42654,-20.55398 -20.55398,32.42654 37.46289,8.39517 -37.46289,8.39517 20.55398,32.42655 -32.42654,-20.55398 -8.39517,37.46288 -8.39517,-37.46288 -32.42654,20.55397 20.55397,-32.42654 -37.46288,-8.39517 37.46288,-8.39517 -20.55397,-32.42654 32.42654,20.55398 z"
       transform="matrix(0.12991373,0,0,0.12991373,162.30996,104.81788)"
       inkscape:transform-center-x="-3.3759132e-06" /><path
       sodipodi:type="star"
       style="fill:#f8c300;fill-opacity:1;stroke-width:1;stroke-linecap:round;paint-order:fill markers stroke"
       id="path7751-8-88-2"
       inkscape:flatsided="false"
       sodipodi:sides="8"
       sodipodi:cx="-384.90222"
       sodipodi:cy="328.57507"
       sodipodi:r1="57.730618"
       sodipodi:r2="21.937637"
       sodipodi:arg1="-1.5707963"
       sodipodi:arg2="-1.1780972"
       inkscape:rounded="0"
       inkscape:randomized="0"
       d="m -384.90222,270.84446 8.39517,37.46288 32.42654,-20.55398 -20.55398,32.42654 37.46289,8.39517 -37.46289,8.39517 20.55398,32.42655 -32.42654,-20.55398 -8.39517,37.46288 -8.39517,-37.46288 -32.42654,20.55397 20.55397,-32.42654 -37.46288,-8.39517 37.46288,-8.39517 -20.55397,-32.42654 32.42654,20.55398 z"
       transform="matrix(0.12991373,0,0,0.12991373,180.08377,104.85554)"
       inkscape:transform-center-x="-3.3759132e-06" /><path
       sodipodi:type="star"
       style="fill:#f8c300;fill-opacity:1;stroke-width:1;stroke-linecap:round;paint-order:fill markers stroke"
       id="path7751-5-3-9"
       inkscape:flatsided="false"
       sodipodi:sides="8"
       sodipodi:cx="-384.90222"
       sodipodi:cy="328.57507"
       sodipodi:r1="57.730618"
       sodipodi:r2="21.937637"
       sodipodi:arg1="-1.5707963"
       sodipodi:arg2="-1.1780972"
       inkscape:rounded="0"
       inkscape:randomized="0"
       d="m -384.90222,270.84446 8.39517,37.46288 32.42654,-20.55398 -20.55398,32.42654 37.46289,8.39517 -37.46289,8.39517 20.55398,32.42655 -32.42654,-20.55398 -8.39517,37.46288 -8.39517,-37.46288 -32.42654,20.55397 20.55397,-32.42654 -37.46288,-8.39517 37.46288,-8.39517 -20.55397,-32.42654 32.42654,20.55398 z"
       transform="matrix(0.12991373,0,0,0.12991373,197.85758,86.31855)"
       inkscape:transform-center-x="-3.3759132e-06" /><path
       sodipodi:type="star"
       style="fill:#f8c300;fill-opacity:1;stroke-width:1;stroke-linecap:round;paint-order:fill markers stroke"
       id="path7751-5-4-0"
       inkscape:flatsided="false"
       sodipodi:sides="8"
       sodipodi:cx="-384.90222"
       sodipodi:cy="328.57507"
       sodipodi:r1="57.730618"
       sodipodi:r2="21.937637"
       sodipodi:arg1="-1.5707963"
       sodipodi:arg2="-1.1780972"
       inkscape:rounded="0"
       inkscape:randomized="0"
       d="m -384.90222,270.84446 8.39517,37.46288 32.42654,-20.55398 -20.55398,32.42654 37.46289,8.39517 -37.46289,8.39517 20.55398,32.42655 -32.42654,-20.55398 -8.39517,37.46288 -8.39517,-37.46288 -32.42654,20.55397 20.55397,-32.42654 -37.46288,-8.39517 37.46288,-8.39517 -20.55397,-32.42654 32.42654,20.55398 z"
       transform="matrix(0.12991373,0,0,0.12991373,197.85758,67.819223)"
       inkscape:transform-center-x="-3.3759132e-06" /><path
       sodipodi:type="star"
       style="fill:#f8c300;fill-opacity:1;stroke-width:1;stroke-linecap:round;paint-order:fill markers stroke"
       id="path7751-5-5-2"
       inkscape:flatsided="false"
       sodipodi:sides="8"
       sodipodi:cx="-384.90222"
       sodipodi:cy="328.57507"
       sodipodi:r1="57.730618"
       sodipodi:r2="21.937637"
       sodipodi:arg1="-1.5707963"
       sodipodi:arg2="-1.1780972"
       inkscape:rounded="0"
       inkscape:randomized="0"
       d="m -384.90222,270.84446 8.39517,37.46288 32.42654,-20.55398 -20.55398,32.42654 37.46289,8.39517 -37.46289,8.39517 20.55398,32.42655 -32.42654,-20.55398 -8.39517,37.46288 -8.39517,-37.46288 -32.42654,20.55397 20.55397,-32.42654 -37.46288,-8.39517 37.46288,-8.39517 -20.55397,-32.42654 32.42654,20.55398 z"
       transform="matrix(0.12991373,0,0,0.12991373,197.85758,49.319895)"
       inkscape:transform-center-x="-3.3759132e-06" /><path
       style="fill:#f8c300;stroke:none;stroke-width:0.328008px;stroke-linecap:butt;stroke-linejoin:miter;stroke-opacity:1;fill-opacity:1"
       d="m 42.486189,98.713133 c 0,0 -1.86655,-0.06521 -2.419447,0.549877 -0.419488,0.466654 -0.471482,1.2947 -0.219953,1.86957 0.199867,0.4568 1.209725,0.8798 1.209725,0.8798 l 31.562809,8.35809 c 0,0 3.457834,1.26512 4.948872,2.30948 1.146492,0.80303 2.194215,1.80377 2.969325,2.96932 0.482513,0.72557 0.709657,1.59434 0.989775,2.41945 0.134366,0.39578 0.329924,1.20973 0.329924,1.20973 l -11.987268,-0.4399 c 0,0 -5.224826,4.00514 -8.028171,5.71869 -2.853841,1.74442 -8.907972,4.61895 -8.907972,4.61895 0,0 18.847958,0.11257 28.263562,-0.21995 5.836551,-0.20609 17.486015,-1.09975 17.486015,-1.09975 l 3.189275,-9.01794 -2.969326,-0.21995 21.775036,-24.524419 c 0,0 1.08073,-0.45453 1.64963,-0.439902 2.38735,0.06137 6.81845,2.199507 6.81845,2.199507 0,0 2.12131,-0.07513 2.41945,-0.879802 0.2338,-0.631041 -0.98978,-1.759606 -0.98978,-1.759606 0,0 -4.60737,-2.555276 -7.14837,-3.079292 -1.00528,-0.207313 -2.06612,-0.164417 -3.0793,0 -0.91541,0.148551 -2.6394,0.879799 -2.6394,0.879799 l -3.9591,-1.209724 c 0,0 -2.23625,0.324884 -3.18927,0.879799 -1.61285,0.939116 -3.9591,3.959098 -3.9591,3.959098 L 89.995366,115.20937 c 0,0 -4.097361,-3.4538 -6.378548,-4.8389 -1.97631,-1.19997 -4.091398,-2.19106 -6.268572,-2.96932 -11.277271,-4.03117 -34.862057,-8.688017 -34.862057,-8.688017 z"
       id="path8463"
       sodipodi:nodetypes="caaccsssccscsccccscscssccsccssc" /><path
       style="fill:#03825d;stroke:none;stroke-width:0.328008px;stroke-linecap:butt;stroke-linejoin:miter;stroke-opacity:1;fill-opacity:1"
       d="m 114.95968,94.534082 -10.44762,10.227668 c 0,0 3.50939,-5.74082 5.60872,-8.358099 0.66517,-0.829272 1.19115,-1.972713 2.1995,-2.30947 0.846,-0.282532 2.6394,0.439901 2.6394,0.439901 z"
       id="path8465"
       sodipodi:nodetypes="ccssc" /></g></svg>
