<?xml version="1.0" encoding="UTF-8" standalone="no"?>
<!-- Created with Inkscape (http://www.inkscape.org/) -->

<svg
   width="104mm"
   height="104mm"
   viewBox="0 0 104 104"
   version="1.1"
   id="svg15817"
   inkscape:version="1.2 (dc2aedaf03, 2022-05-15)"
   sodipodi:docname="atinfantry1.svg"
   xml:space="preserve"
   xmlns:inkscape="http://www.inkscape.org/namespaces/inkscape"
   xmlns:sodipodi="http://sodipodi.sourceforge.net/DTD/sodipodi-0.dtd"
   xmlns="http://www.w3.org/2000/svg"
   xmlns:svg="http://www.w3.org/2000/svg"><sodipodi:namedview
     id="namedview15819"
     pagecolor="#ffffff"
     bordercolor="#666666"
     borderopacity="1.0"
     inkscape:showpageshadow="2"
     inkscape:pageopacity="0.0"
     inkscape:pagecheckerboard="0"
     inkscape:deskcolor="#d1d1d1"
     inkscape:document-units="mm"
     showgrid="false"
     inkscape:zoom="0.5272499"
     inkscape:cx="464.67529"
     inkscape:cy="460.88202"
     inkscape:window-width="1920"
     inkscape:window-height="1017"
     inkscape:window-x="-8"
     inkscape:window-y="-8"
     inkscape:window-maximized="1"
     inkscape:current-layer="g5078" /><defs
     id="defs15814" /><g
     inkscape:label="shadow"
     inkscape:groupmode="layer"
     id="g5078"
     transform="translate(52.032257,-47.322578)"
     style="fill:#333333"><path
       id="rect4929"
       style="display:inline;fill:#000000;stroke-width:4.0001;stroke-linecap:square;stroke-linejoin:round;stroke:#000000"
       d="m -20.47501,71.800153 c -5.865732,-0.549099 -7.636943,6.052843 -7.882456,9.837244 -2.954866,1.966052 -2.37206,2.285943 0.408575,1.297981 3.013374,-1.786617 1.247138,2.976029 3.353552,4.115632 2.330732,0.158318 2.898706,4.68464 0.07984,3.549548 -1.772711,-0.08918 -3.400786,0.546087 -5.197191,0.319357 -1.3161,2.36019 -0.20429,-1.254963 -1.929593,-1.116213 -1.440931,0.19818 -2.694139,-0.163343 -3.958438,-0.779474 -1.357177,-0.455949 -2.043078,1.268559 -0.645442,1.723892 1.530857,1.072028 2.041761,3.032805 1.323975,4.726034 0.958856,1.633103 3.213981,0.350415 4.550108,1.428341 2.429491,0.479308 1.876857,2.782979 1.899109,4.633265 -0.142562,3.66034 0.325497,7.41997 -0.318717,10.99675 -0.806618,3.2657 -1.854159,6.48974 -2.508989,9.78171 1.879357,3.86007 -8.098001,0.10875 -7.210539,3.73872 0.416866,2.29984 -4.199745,-1.03346 -4.453804,2.10404 0.573128,2.89431 1.352222,5.81206 2.305447,8.6045 2.110176,1.85322 4.703391,-0.95667 3.231152,-3.14678 -0.779328,-1.17442 -0.477057,-3.31888 1.0023,-2.08732 4.416784,-1.01247 9.854344,-1.02475 13.018228,-4.79447 1.219462,-2.35252 2.925063,-4.17727 2.744728,-6.97342 -0.272916,-2.57396 1.550764,-1.6388 1.110482,0.4807 -0.251107,2.04581 0.88198,3.93252 3.120169,3.31074 1.995773,0 3.991545,0 5.987321,0 0.9101581,3.07597 -0.127461,7.29359 2.0954361,9.46427 -0.7670868,1.19679 -2.9909031,4.29416 0.3879507,4.74676 2.685311,-0.0714 5.3986571,0.14827 8.06504448,-0.11976 2.33652282,-1.55859 0.29322123,-4.79062 -2.20329758,-3.93529 -3.1355203,0.48218 -0.6363753,-1.71073 -0.40099,-3.10618 -0.475364,-5.05227 -0.5810426,-10.54341 -3.3538264,-14.95909 -1.4224122,-2.21715 -4.9698013,-2.77639 -4.8828503,-5.56918 1e-6,-2.81973 1e-6,-5.63946 2e-6,-8.4592 4.221737,1.21024 8.0211778,-1.945051 9.87174804,-5.39915 1.36119502,2.085166 2.72641716,4.68357 4.08916046,6.96599 -0.9468707,1.38298 1.1571878,1.6154 0.9409542,0.17604 1.9113935,-1.00224 1.0261311,-0.99111 -0.080854,-1.1954 -1.4745522,-2.554209 -2.9491056,-5.108419 -4.42365777,-7.662629 1.49999407,0 2.99998937,1e-6 4.49998337,1e-6 2.1551436,1.487931 0.249413,-3.046826 2.1543458,-2.29495 1.3781466,-0.254617 2.6823062,-0.582184 4.2501546,-0.410828 10.04978,0 20.099561,0 30.149341,10e-7 -0.119343,1.486166 2.392896,0.340762 3.400785,0.699701 0.297575,-1.023137 2.424841,0.02927 3.486774,-0.129226 1.922729,0.807081 1.706081,-0.753502 1.613214,-2.177096 -1.665531,0.169154 -3.331063,0.338308 -4.996594,0.507462 -0.236147,-1.089525 -2.481668,-0.169677 -3.504179,-0.472839 0.119345,1.486172 -2.392894,0.340761 -3.400784,0.699699 -9.898635,0 -19.797269,10e-7 -29.6959037,10e-7 C 6.1347137,90.874166 4.6611402,89.046578 3.8496882,90.509208 2.333888,90.620195 1.0395769,90.060783 -0.50898687,90.25806 -2.2401343,90.526595 -3.9110957,90.139623 -4.5026116,88.908386 c 0.3491257,-1.364843 1.3383452,-3.09916 -0.8371288,-3.006762 -1.567802,-0.419449 -3.1352371,-0.840268 -4.7028876,-1.260281 -0.398426,1.486732 -0.796851,2.973463 -1.195276,4.460194 -1.459959,-0.430732 -2.159953,1.560535 -3.613217,1.156518 -2.410857,1.943814 -1.974274,-3.661362 0.369336,-3.206844 2.728555,-1.972623 1.074482,-6.301992 1.152309,-8.032846 0.998821,-0.365273 3.5650282,-0.758853 3.57295,-1.106228 -5.434085,0.86818 -4.932917,-6.821245 -10.718537,-6.111869 z M 47.683103,90.74215 c 4.080651,1.56986 -3.950355,1.205099 0,0 z m -58.420723,3.755843 c 1.6856855,0 3.3713708,0 5.0570562,0 -0.1544622,2.796297 -6.1785862,3.86541 -5.0570562,0.146993 z m -18.27382,0.976168 c 0.992181,-0.28393 0.121317,1.572801 2e-6,0 z" /></g><g
     inkscape:label="real"
     inkscape:groupmode="layer"
     id="g5365"
     transform="translate(52.032257,-47.322578)"
     style="fill:#333333"><g
       id="g5105"
       inkscape:label="solder"
       transform="matrix(0.78796134,0,0,0.78796134,-40.001214,36.336318)"><g
         id="g5081"
         transform="matrix(0.70708375,0,0,0.70708375,-119.55059,39.835791)"
         inkscape:label="pants"
         style="display:inline;fill:#34372b;fill-opacity:1"><g
           id="g5079"
           transform="translate(55.608185,-4.9363976)"><g
             id="g5071"
             style="display:inline;fill:#502d16;fill-opacity:1"
             transform="matrix(-0.99999998,0,0,0.99999998,246.39554,-10.80315)"
             inkscape:label="shoes"><rect
               style="display:inline;opacity:1;fill:#502d16;fill-opacity:1;stroke:none;stroke-width:7.17952;stroke-linecap:square;stroke-linejoin:round;stroke-dasharray:none;stroke-opacity:1"
               id="rect5063"
               width="8.2692204"
               height="13.765817"
               x="-92.185143"
               y="149.72321"
               transform="rotate(-75)" /><rect
               style="display:inline;opacity:1;fill:#502d16;fill-opacity:1;stroke:none;stroke-width:10.2762;stroke-linecap:square;stroke-linejoin:round;stroke-dasharray:none;stroke-opacity:1"
               id="rect5065"
               width="19.448647"
               height="7.277873"
               x="-101.90948"
               y="158.62019"
               rx="2.836376"
               ry="2.7431908"
               transform="rotate(-75)" /><rect
               style="display:inline;opacity:1;fill:#502d16;fill-opacity:1;stroke:none;stroke-width:7.17952;stroke-linecap:square;stroke-linejoin:round;stroke-dasharray:none;stroke-opacity:1"
               id="rect5067"
               width="8.2692204"
               height="13.765817"
               x="-76.118866"
               y="125.26877"
               transform="scale(-1,1)" /><rect
               style="display:inline;opacity:1;fill:#502d16;fill-opacity:1;stroke:none;stroke-width:10.2762;stroke-linecap:square;stroke-linejoin:round;stroke-dasharray:none;stroke-opacity:1"
               id="rect5069"
               width="19.448647"
               height="7.277873"
               x="59.216908"
               y="134.16576"
               rx="2.836376"
               ry="2.7431908" /></g><rect
             style="opacity:1;fill:#34372b;fill-opacity:1;stroke:none;stroke-width:7.12338;stroke-linecap:square;stroke-linejoin:round;stroke-dasharray:none;stroke-opacity:1"
             id="rect5073"
             width="31.592743"
             height="10.8081"
             x="134.39816"
             y="83.16481" /><path
             id="path5075"
             style="opacity:1;fill:#34372b;fill-opacity:1;stroke-width:2.67632;stroke-linecap:square"
             d="m 138.27762,87.299241 7.36474,5.081477 c 1.25087,0.86307 3.27213,0.142117 2.81732,1.592192 0,0 -1.81509,9.58195 -3.00172,12.92343 -0.99809,2.81055 -3.04948,5.3724 -5.52204,7.04027 -4.8265,3.25573 -16.77971,4.84715 -16.77971,4.84715 -1.46002,0.42176 -3.39006,1.43878 -3.87946,0 l -2.72389,-8.00796 c -0.4894,-1.43878 -1.45491,-3.44037 0,-3.87946 0,0 15.36857,0.54626 17.05604,-5.14758 1.04758,-3.534724 0.78926,-14.449519 0.78926,-14.449519 0.0829,-1.517467 2.62859,-0.863071 3.87946,0 z"
             sodipodi:nodetypes="sssssssssscs" /><path
             id="path5077"
             style="opacity:1;fill:#34372b;fill-opacity:1;stroke-width:2.67632;stroke-linecap:square"
             d="m 155.93253,83.164807 h 7.31518 c 1.51973,0 2.25315,0.210708 2.74319,0.681116 0,0 7.49689,4.643729 9.62626,8.308765 4.51388,7.769224 5.1949,26.450652 5.1949,26.450652 0.0493,1.51893 -1.22346,2.74319 -2.74319,2.74319 h -7.31517 c -1.51973,0 -2.69346,-1.22427 -2.74319,-2.74319 0,0 -0.75185,-9.78919 -1.44319,-13.22935 -0.81493,-4.05515 -3.12475,-7.604252 -6.25386,-9.143226 -3.19272,-1.570257 -12.58408,-1.023731 -12.58408,-1.023731 -1.39949,-0.592448 6.68344,-12.044226 8.20316,-12.044226 z"
             sodipodi:nodetypes="sssasssssssss" /></g></g><g
         id="g5015"
         transform="matrix(1.2075963,0,0,1.2075963,525.4091,-127.50878)"
         inkscape:label="l arm"><path
           id="path5049-4"
           style="fill:none;stroke:#536c53;stroke-width:5.00021;stroke-linecap:round;stroke-linejoin:round;stroke-opacity:1"
           d="m -397.34,169.2632 c -2.98894,2.45983 -2.85922,2.77063 -5.69439,2.57807 -3.92007,-0.26625 -5.22091,-3.0103 -3.9043,-6.62764"
           sodipodi:nodetypes="csc" /><circle
           style="fill:#ffcc00;fill-opacity:1;stroke:none;stroke-width:10.9186;stroke-linecap:round;stroke-linejoin:round;stroke-dasharray:none;stroke-opacity:1"
           id="circle5013"
           cx="-259.65079"
           cy="342.91846"
           r="2.731034"
           transform="rotate(30)" /></g><g
         id="g5021"
         inkscape:label="head"
         transform="matrix(0.80537106,0,0,0.80537106,-5.1464213,24.593798)"><rect
           style="opacity:1;fill:#ffcc00;fill-opacity:1;stroke:none;stroke-width:2.63388;stroke-linecap:square"
           id="rect5017"
           width="9.9690962"
           height="9.1902609"
           x="33.650558"
           y="50.377213" /><circle
           style="opacity:1;fill:#ffcc00;fill-opacity:1;stroke:none;stroke-width:3.14848;stroke-linecap:square"
           id="circle5019"
           cx="38.635105"
           cy="42.37645"
           r="10.613407" /><g
           id="g5061"
           transform="matrix(5.1435557,0,0,5.1435557,1713.8089,-764.42324)"
           inkscape:label="helmet"
           style="fill:#333333"><g
             id="g5059"
             transform="rotate(-15,-306.62376,152.49757)"><path
               style="fill:#483737;stroke:none;stroke-width:0.179063px;stroke-linecap:butt;stroke-linejoin:miter;stroke-opacity:1"
               d="m -329.58045,151.2049 h 6.76774 c 0,0 -1.8627,-1.02416 -3.38387,-1.02416 -1.52116,0 -3.38387,1.02416 -3.38387,1.02416 z"
               id="path5055"
               sodipodi:nodetypes="ccsc" /><path
               style="fill:#483737;fill-opacity:1;stroke:none;stroke-width:1.85607;stroke-opacity:1"
               id="path5057"
               sodipodi:type="arc"
               sodipodi:cx="-326.19659"
               sodipodi:cy="150.69283"
               sodipodi:rx="2.274894"
               sodipodi:ry="2.274894"
               sodipodi:start="3.1415927"
               sodipodi:end="0"
               sodipodi:open="true"
               sodipodi:arc-type="arc"
               d="m -328.47149,150.69283 a 2.274894,2.274894 0 0 1 2.2749,-2.2749 2.274894,2.274894 0 0 1 2.27489,2.2749" /></g></g></g><g
         id="g5025"
         inkscape:label="torso"
         transform="matrix(0.80537106,0,0,0.80537106,-5.1464213,24.593798)"
         style="fill:#536c53;fill-opacity:1"><rect
           style="opacity:1;fill:#536c53;fill-opacity:1;stroke:none;stroke-width:2.80559;stroke-linecap:square"
           id="rect5023"
           width="27.737171"
           height="40.499451"
           x="24.766521"
           y="54.972347"
           rx="3.8697224"
           ry="5.650239" /><path
           id="path5027"
           style="fill:#374837;fill-opacity:1;opacity:1;stroke-width:2.80559;stroke-linecap:square"
           d="m 81.418793,9.3188482 h 10.44925 V 49.818299 h -10.44925 c -2.143826,0 -3.869723,-2.520007 -3.869723,-5.650239 V 14.969087 c 0,-3.130232 1.725897,-5.6502388 3.869723,-5.6502388 z"
           sodipodi:nodetypes="sccssss"
           transform="translate(-52.99286,45.653497)" /><path
           id="path5083"
           style="fill:#374837;fill-opacity:1;stroke-width:4.36124;stroke-linecap:round;stroke-linejoin:round"
           d="m 15.739826,93.91568 h 7.255635 c 0.756545,0 2.313391,0.996946 2.227199,2.228555 l -0.861617,12.311385 c -0.08614,1.23161 -0.609037,2.22856 -1.365582,2.22856 H 12.461805 c -0.756528,0 -1.680586,-1.04548 -1.365581,-2.22856 L 14.37426,96.144235 c 0.315005,-1.183078 0.609038,-2.228555 1.365566,-2.228555 z"
           sodipodi:nodetypes="sssssssss"
           transform="matrix(1.2416637,0,0,1.2416637,6.3901246,-30.537226)" /><path
           id="path5085"
           style="fill:#536c53;fill-opacity:1;stroke-width:4.59836;stroke-linecap:round;stroke-linejoin:round"
           d="m 35.620415,93.76188 -8.011314,0.153816 c -0.840873,0.01635 -2.470378,1.105778 -2.383074,2.337306 l 0.864984,12.202638 c 0.08729,1.23153 0.67707,2.22855 1.51809,2.22855 h 10.73146 c 0.841021,0 1.78033,-1.0269 1.518107,-2.22855 l -2.72013,-12.465189 c -0.262223,-1.201663 -0.677233,-2.244705 -1.518123,-2.228555 z"
           sodipodi:nodetypes="ssssssssss"
           transform="matrix(1.2416637,0,0,1.2416637,6.3901246,-30.537226)" /><rect
           style="fill:#241c1c;fill-opacity:1;stroke:none;stroke-width:8.6418;stroke-linecap:round;stroke-linejoin:round;stroke-dasharray:none;stroke-opacity:1"
           id="rect5087"
           width="23.03282"
           height="2.2890708"
           x="14.45276"
           y="94.005295"
           rx="0.81730253"
           ry="0.81730253"
           transform="matrix(1.2416637,0,0,1.2416637,6.3901246,-30.537226)" /><g
           id="g5095"
           transform="matrix(2.0296297,0,0,2.0296297,681.02231,-293.98336)"
           style="fill:#333333"><rect
             style="fill:#502d16;fill-opacity:1;stroke:none;stroke-width:3.05884;stroke-opacity:1"
             id="rect5089"
             width="3.9142029"
             height="3.6214209"
             x="-322.90256"
             y="187.30959" /><rect
             style="fill:#784421;fill-opacity:1;stroke:none;stroke-width:3.05884;stroke-opacity:1"
             id="rect5091"
             width="4.5665975"
             height="2.9123287"
             x="-323.22873"
             y="185.85342" /><circle
             style="fill:#806600;fill-opacity:1;stroke:none;stroke-width:1.72925;stroke-opacity:1"
             id="circle5093"
             cx="-320.94543"
             cy="187.97487"
             r="0.47643504" /></g><g
           id="g5045"
           transform="matrix(2.0296297,0,0,2.0296297,625.35206,-321.67564)"
           style="fill:#806600;fill-opacity:1"><circle
             style="fill:#806600;fill-opacity:1;stroke:none;stroke-width:3.73025;stroke-linecap:round;stroke-linejoin:round;stroke-dasharray:none;stroke-opacity:1"
             id="circle5033"
             cx="-287.82751"
             cy="187.61502"
             r="0.75" /><circle
             style="fill:#806600;fill-opacity:1;stroke:none;stroke-width:3.73025;stroke-linecap:round;stroke-linejoin:round;stroke-dasharray:none;stroke-opacity:1"
             id="circle5035"
             cx="-287.82751"
             cy="199.10292"
             r="0.75" /><circle
             style="fill:#806600;fill-opacity:1;stroke:none;stroke-width:3.73025;stroke-linecap:round;stroke-linejoin:round;stroke-dasharray:none;stroke-opacity:1"
             id="circle5037"
             cx="-287.77682"
             cy="196.80534"
             r="0.75" /><circle
             style="fill:#806600;fill-opacity:1;stroke:none;stroke-width:3.73025;stroke-linecap:round;stroke-linejoin:round;stroke-dasharray:none;stroke-opacity:1"
             id="circle5039"
             cx="-287.77682"
             cy="194.50777"
             r="0.75" /><circle
             style="fill:#806600;fill-opacity:1;stroke:none;stroke-width:3.73025;stroke-linecap:round;stroke-linejoin:round;stroke-dasharray:none;stroke-opacity:1"
             id="circle5041"
             cx="-287.77682"
             cy="192.21017"
             r="0.75" /><circle
             style="fill:#806600;fill-opacity:1;stroke:none;stroke-width:3.73025;stroke-linecap:round;stroke-linejoin:round;stroke-dasharray:none;stroke-opacity:1"
             id="circle5043"
             cx="-287.77682"
             cy="189.9126"
             r="0.75" /></g><g
           id="g5103"
           transform="matrix(2.0296297,0,0,2.0296297,699.04871,-293.98336)"
           style="fill:#333333;display:inline"><rect
             style="fill:#502d16;fill-opacity:1;stroke:none;stroke-width:3.05884;stroke-opacity:1"
             id="rect5097"
             width="3.9142029"
             height="3.6214209"
             x="-322.90256"
             y="187.30959" /><rect
             style="fill:#784421;fill-opacity:1;stroke:none;stroke-width:3.05884;stroke-opacity:1"
             id="rect5099"
             width="4.5665975"
             height="2.9123287"
             x="-323.22873"
             y="185.85342" /><circle
             style="fill:#806600;fill-opacity:1;stroke:none;stroke-width:1.72925;stroke-opacity:1"
             id="circle5101"
             cx="-320.94543"
             cy="187.97487"
             r="0.47643504" /></g></g><g
         id="g5053"
         transform="matrix(1.2075963,0,0,1.2075963,511.05015,-125.39949)"
         inkscape:label="r arm"><path
           id="path5049"
           style="fill:none;stroke:#405440;stroke-width:5.00021;stroke-linecap:round;stroke-linejoin:round"
           transform="rotate(20)"
           d="m -316.32141,294.83232 c -1.96737,3.33376 -2.75263,4.65185 -6.5533,3.65553 -3.80068,-0.99632 -4.69671,-1.49403 -4.69671,-5.34353"
           sodipodi:nodetypes="csc" /><path
           id="path5051"
           style="fill:#ffcc00;stroke-width:10.9186;stroke-linecap:round;stroke-linejoin:round"
           d="m -394.40441,169.12298 c -0.51586,1.41735 -2.08305,2.14814 -3.5004,1.63227 -1.41735,-0.51587 -2.14814,-2.08306 -1.63227,-3.50041 0.51588,-1.41734 2.08307,-2.14814 3.50041,-1.63226 1.41735,0.51587 2.14813,2.08305 1.63226,3.5004 z"
           sodipodi:nodetypes="sssss" /></g><g
         id="g587"
         inkscape:label="at rifle"
         transform="matrix(1.2357927,0,0,1.2690978,48.367355,-45.551435)"
         style="display:inline;fill:#333333"><g
           id="g1597"
           inkscape:label="barrel"
           transform="matrix(1.3034281,0,0,0.99999984,-0.51857887,0.01430354)"><rect
             style="opacity:1;fill:#1a1a1a;fill-opacity:1;stroke:#000000;stroke-width:0;stroke-linecap:square;stroke-miterlimit:100;paint-order:markers stroke fill"
             id="rect1594"
             width="36.303272"
             height="0.87215459"
             x="1.2934963"
             y="90.46225"
             rx="0.51347524"
             ry="0.5" /><rect
             style="opacity:1;fill:#1a1a1a;fill-opacity:1;stroke:#000000;stroke-width:0;stroke-linecap:square;stroke-miterlimit:100;paint-order:markers stroke fill"
             id="rect1599"
             width="8.1810522"
             height="1.6936347"
             x="1.5899957"
             y="90.065796"
             rx="0.51347524"
             ry="0.5"
             transform="matrix(0.76720765,0,0,1.0000002,0.3978581,-0.01430315)" /></g><rect
           style="opacity:1;fill:#333333;fill-opacity:1;stroke:none;stroke-width:0;stroke-linecap:square;stroke-miterlimit:100;paint-order:markers stroke fill"
           id="rect2009"
           width="3.5984674"
           height="2.2715838"
           x="43.751495"
           y="89.776825" /><path
           id="rect1148"
           style="opacity:1;fill:#666666;stroke:#000000;stroke-width:0;stroke-linecap:square;stroke-miterlimit:100;paint-order:markers stroke fill"
           d="M -12.721775,89.7258 H 3.8870964 c 0.277,0 0.5,0.223 0.5,0.5 v 0.995967 c 0,0.277 -0.223,0.5 -0.5,0.5 H -12.721775 c -0.277,0 -1.493396,0.111986 -1.631048,-0.433468 0.174276,-0.373174 1.330589,-1.548894 1.631048,-1.562499 z"
           sodipodi:nodetypes="cssssscc"
           transform="matrix(1.0269504,0,0,1,-0.24587612,0.0887099)" /><rect
           style="opacity:1;fill:#666666;stroke:#000000;stroke-width:0;stroke-linecap:square;stroke-miterlimit:100;paint-order:markers stroke fill"
           id="rect1144"
           width="29.126688"
           height="2.1564658"
           x="-21.649193"
           y="91.05645"
           rx="0.5"
           ry="0.5"
           transform="matrix(1.0269504,0,0,1,-0.24587612,0.0887099)" /><rect
           style="fill:#4d4d4d;stroke:#000000;stroke-width:0;stroke-linecap:square;stroke-miterlimit:100;paint-order:markers stroke fill"
           id="rect584"
           width="30.422699"
           height="1.505453"
           x="-22.989559"
           y="92.548897"
           rx="0.5"
           ry="0.5" /><g
           id="g2007"
           inkscape:label="magazine"
           transform="matrix(1.1429265,0.29820938,-0.3144997,1.1429265,21.856087,-3.0488297)"><rect
             style="opacity:1;fill:#666666;fill-opacity:1;stroke:none;stroke-width:0;stroke-linecap:square;stroke-miterlimit:100;paint-order:markers stroke fill"
             id="rect1946"
             width="5.6026769"
             height="5.4556451"
             x="-5.0783401"
             y="77.661285" /><rect
             style="opacity:1;fill:#333333;fill-opacity:1;stroke:none;stroke-width:0;stroke-linecap:square;stroke-miterlimit:100;paint-order:markers stroke fill"
             id="rect2003"
             width="0.30791685"
             height="5.4556451"
             x="-1.2987552"
             y="77.661285" /></g><rect
           style="opacity:1;fill:#4d4d4d;fill-opacity:1;stroke:#000000;stroke-width:0;stroke-linecap:square;stroke-miterlimit:100;paint-order:markers stroke fill"
           id="rect1540"
           width="1.3665063"
           height="5.0949535"
           x="6.1270142"
           y="89.272491"
           rx="0.51347518"
           ry="0.70041496" /><path
           style="fill:#808080;stroke:none;stroke-width:0.234852px;stroke-linecap:butt;stroke-linejoin:miter;stroke-opacity:1"
           d="m -7.7477128,88.640142 -2.0510043,1.822109 v 1.343427 h 9.01947509 l -0.0201652,-1.63654 -0.004546,-0.368917 c -0.0232082,-0.42358 -0.19361326,-0.900198 -0.49421949,-1.097351 -0.030822,-0.01811 -0.1018908,-0.03186 -0.1018908,-0.03186 z"
           id="path1656"
           sodipodi:nodetypes="ccccccccc"
           transform="matrix(1.3034281,0,0,0.99999985,-0.51857912,0.01430377)" /><rect
           style="opacity:1;fill:#4d4d4d;fill-opacity:1;stroke:none;stroke-width:0;stroke-linecap:square;stroke-miterlimit:100;paint-order:markers stroke fill"
           id="rect1879"
           width="11.743095"
           height="0.18015724"
           x="-13.290502"
           y="90.47654" /><path
           id="rect2012"
           style="opacity:1;stroke-width:0;stroke-linecap:square;stroke-miterlimit:100;paint-order:markers stroke fill"
           d="m 52.481193,89.742038 -5.352022,0.529167 v 1.282609 l 5.352022,0.529166 z m -1.572439,0.556555 a 1.2298897,0.61400486 0 0 1 1.230143,0.613916 1.2298897,0.61400486 0 0 1 -1.230143,0.613916 1.2298897,0.61400486 0 0 1 -1.229611,-0.613916 1.2298897,0.61400486 0 0 1 1.229611,-0.613916 z" /><path
           style="fill:#803300;stroke:none;stroke-width:0.268125px;stroke-linecap:butt;stroke-linejoin:miter;stroke-opacity:1"
           d="m -32.863976,89.360112 h 2.309519 l 0.651247,0.125453 0.28281,0.235227 0.112732,0.329319 v 1.56818 h -2.753859 v 3.936133 l -0.386506,0.1725 -0.295654,0.03114 -0.683253,-0.277217 -0.170814,-0.199596 -0.125263,-0.250709 0.02278,-0.281551 0.261914,-0.909272 0.07971,-0.388107 -0.03416,-0.698069 -0.284689,-0.798907 -0.580765,-0.887095 -1.161531,-1.075605 -0.318851,-0.155241 -0.159426,-0.221774 -0.05694,-0.321575 0.0911,-0.321572 0.250526,-0.210685 0.501053,-0.199596 0.432727,-0.02217 0.489664,0.07762 0.956555,0.410281 z"
           id="path2231" /><rect
           style="opacity:1;fill:#4d4d4d;fill-opacity:1;stroke:none;stroke-width:0;stroke-linecap:square;stroke-miterlimit:100;paint-order:markers stroke fill"
           id="rect2229"
           width="4.7827725"
           height="4.6311417"
           x="-32.863976"
           y="91.348694"
           rx="0.51347524"
           ry="0.5" /><rect
           style="opacity:1;fill:#803300;fill-opacity:1;stroke:none;stroke-width:0;stroke-linecap:square;stroke-miterlimit:100;paint-order:markers stroke fill"
           id="rect2227"
           width="8.2346077"
           height="4.5540004"
           x="-29.037756"
           y="90.47654"
           rx="0.46464154"
           ry="0.5" /><path
           style="fill:#aa4400;stroke:none;stroke-width:0.268125px;stroke-linecap:butt;stroke-linejoin:miter;stroke-opacity:1"
           d="m -13.290503,99.084674 c -0.315772,-1.081454 -0.784591,-2.126412 -1.353385,-3.10484 -0.05087,-0.0875 -0.104298,-0.177955 -0.182201,-0.243951 -0.09737,-0.08249 -0.22075,-0.133381 -0.341625,-0.177419 -0.09667,-0.03522 -0.207368,-0.02695 -0.301771,-0.06759 -0.06338,-0.02728 -0.134094,-0.05815 -0.170813,-0.115374 -0.02646,-0.04123 -0.02874,-0.09589 -0.02277,-0.144153 0.0071,-0.05759 0.02401,-0.122028 0.06833,-0.160784 0.178046,-0.155704 0.458059,-0.135343 0.688947,-0.196612 0.685516,-0.181911 1.358305,-0.45592 2.066841,-0.507521 0.09699,-0.0071 0.223415,-0.04096 0.290384,0.02772 0.227632,0.233442 0.138847,0.655891 0.04555,0.964718 -0.02958,0.0979 -0.124268,0.164456 -0.182201,0.249495 -0.04193,0.06155 -0.09654,0.118141 -0.11957,0.18851 -0.02714,0.08293 -0.03016,0.174481 -0.01709,0.260583 0.02607,0.171734 0.122049,0.326262 0.18707,0.487905 0.228198,0.567303 0.37948,1.175205 0.712469,1.691026 0.04078,0.06317 0.09173,0.1226 0.153809,0.166333 0.14114,0.09943 0.317667,0.139439 0.478277,0.205139 0.131922,0.05396 0.282487,0.07377 0.398566,0.155242 0.02622,0.0184 0.04957,0.04329 0.06263,0.07208 0.01779,0.03921 0.02394,0.08518 0.01709,0.127522 -0.0062,0.03838 -0.02307,0.07782 -0.05124,0.105341 -0.04972,0.04858 -0.125812,0.06194 -0.190665,0.08871 -0.411118,0.169669 -0.819932,0.359173 -1.255555,0.454637 -0.08549,0.01874 -0.174288,0.02335 -0.261913,0.02217 -0.116522,-0.0016 -0.23667,-0.0032 -0.347321,-0.03881 -0.09366,-0.03013 -0.190981,-0.07211 -0.256221,-0.144153 -0.05176,-0.05715 -0.06981,-0.13736 -0.0911,-0.210685 -0.01463,-0.05038 -0.0098,-0.10488 -0.02452,-0.155239 z"
           id="path3466"
           sodipodi:nodetypes="aaaaaaaaaaaaaaaaaaaaaaaaaaaaaa" /><ellipse
           style="opacity:1;fill:#4d4d4d;fill-opacity:1;stroke:none;stroke-width:0;stroke-linecap:square;stroke-miterlimit:100;paint-order:markers stroke fill"
           id="path2285"
           cx="-14.256768"
           cy="93.664261"
           rx="1.8359056"
           ry="1.8266122" /><rect
           style="opacity:1;fill:none;fill-opacity:1;stroke:#333333;stroke-width:0.304016;stroke-linecap:square;stroke-miterlimit:100;stroke-dasharray:none;paint-order:markers stroke fill"
           id="rect2391"
           width="2.8578305"
           height="1.6426641"
           x="-12.482799"
           y="94.05262"
           rx="0.29018894"
           ry="0.32330152" /><path
           style="fill:none;stroke:#333333;stroke-width:0.268125px;stroke-linecap:butt;stroke-linejoin:miter;stroke-opacity:1"
           d="m -11.797,94.05435 0.47828,1.260163"
           id="path3119" /><g
           id="g3529"
           inkscape:label="bipod"
           style="fill:#666666"
           transform="matrix(0.86602541,-0.48687843,0.5134752,0.86602541,-15.127838,16.387727)"><rect
             style="opacity:1;fill:#666666;fill-opacity:1;stroke:none;stroke-width:0;stroke-linecap:square;stroke-miterlimit:100;stroke-dasharray:none;stroke-opacity:1;paint-order:markers stroke fill"
             id="rect3520"
             width="1.2883548"
             height="11.003747"
             x="-26.689392"
             y="74.321266"
             rx="0.51347524"
             ry="0.5" /><rect
             style="opacity:1;fill:#666666;fill-opacity:1;stroke:none;stroke-width:0;stroke-linecap:square;stroke-miterlimit:100;stroke-dasharray:none;stroke-opacity:1;paint-order:markers stroke fill"
             id="rect3522"
             width="3.188678"
             height="0.62239659"
             x="-27.301361"
             y="84.702614"
             rx="0.51347524"
             ry="0.5" /><rect
             style="opacity:1;fill:#666666;fill-opacity:1;stroke:none;stroke-width:0;stroke-linecap:square;stroke-miterlimit:100;stroke-dasharray:none;stroke-opacity:1;paint-order:markers stroke fill"
             id="rect3524"
             width="0.93405777"
             height="1.5054559"
             x="-27.301361"
             y="84.702614"
             rx="0.51347524"
             ry="0.5" /></g><ellipse
           style="opacity:1;fill:#4d4d4d;fill-opacity:1;stroke:none;stroke-width:2.4628;stroke-linecap:round;stroke-miterlimit:100;stroke-dasharray:none;stroke-opacity:1;paint-order:markers stroke fill"
           id="path3618"
           cx="37.461002"
           cy="95.312851"
           rx="0.52376103"
           ry="1.0957083"
           transform="matrix(0.82622207,0.56334456,-0.58381185,0.81188899,0,0)" /><path
           style="fill:#aa4400;fill-opacity:1;stroke:none;stroke-width:0.268125px;stroke-linecap:butt;stroke-linejoin:miter;stroke-opacity:1"
           d="m -24.618592,98.664801 c -0.143838,0.175191 -0.313183,0.344881 -0.520532,0.442569 -0.171769,0.08093 -0.381365,0.159119 -0.562845,0.101704 -0.113448,-0.03589 -0.213949,-0.141005 -0.246285,-0.25281 -0.03201,-0.110684 0.08851,-0.223291 0.07385,-0.337391 -0.01295,-0.100753 -0.06686,-0.199398 -0.138603,-0.273087 -0.135597,-0.13928 -0.342181,-0.190611 -0.515342,-0.282271 -0.426144,-0.225573 -0.885769,-0.395205 -1.288355,-0.658635 -0.22135,-0.144839 -0.432818,-0.309454 -0.611968,-0.501819 -0.280075,-0.300735 -0.737685,-0.598645 -0.708595,-1.003636 0.02439,-0.339546 0.181636,-0.341728 0.526394,-0.397888 0.421709,-0.0687 0.940799,0.03027 1.309511,0.241072 0.316578,0.180999 0.639296,0.356031 0.930483,0.573731 0.24599,0.183909 0.456431,0.408974 0.683869,0.61428 0.139891,0.126279 0.255425,0.283821 0.418714,0.379841 0.113296,0.06662 0.242536,0.122524 0.374782,0.127676 0.179356,0.007 0.350205,-0.187224 0.520871,-0.133066 0.09593,0.03044 0.163197,0.134046 0.191297,0.228403 0.0425,0.142706 -0.0084,0.300964 -0.05465,0.442568 -0.0812,0.248757 -0.215208,0.484885 -0.382596,0.688759 z"
           id="path3537"
           sodipodi:nodetypes="ssssssssssssssssssss" /><path
           style="color:#000000;fill:#666666;fill-opacity:1;stroke-linecap:round;-inkscape-stroke:none"
           d="m -30.472656,90.335937 c -0.559901,-1.58e-4 -1.01383,0.453771 -1.013672,1.013672 0,0 -0.560069,2.508862 0,3.564453 0.419527,0.790704 2.236328,1.544922 2.236328,1.544922 0.460562,0.31837 1.092034,0.202922 1.410156,-0.257812 0.31837,-0.460562 0.202922,-1.092034 -0.257812,-1.410156 0,0 -1.105915,-0.458358 -1.361328,-0.939454 -0.393312,-0.740843 0,-2.501953 0,-2.501953 1.58e-4,-0.559901 -0.453771,-1.01383 -1.013672,-1.013672 z"
           id="path3531"
           sodipodi:nodetypes="ccscccscc" /></g></g></g></svg>
