<?xml version="1.0" encoding="UTF-8" standalone="no"?>
<!-- Created with Inkscape (http://www.inkscape.org/) -->

<svg
   width="100.5mm"
   height="100.5mm"
   viewBox="0 0 100.5 100.5"
   version="1.1"
   id="svg5"
   xml:space="preserve"
   inkscape:version="1.2 (dc2aedaf03, 2022-05-15)"
   sodipodi:docname="machinegun1.svg"
   xmlns:inkscape="http://www.inkscape.org/namespaces/inkscape"
   xmlns:sodipodi="http://sodipodi.sourceforge.net/DTD/sodipodi-0.dtd"
   xmlns="http://www.w3.org/2000/svg"
   xmlns:svg="http://www.w3.org/2000/svg"><sodipodi:namedview
     id="namedview7"
     pagecolor="#ffffff"
     bordercolor="#666666"
     borderopacity="1.0"
     inkscape:showpageshadow="2"
     inkscape:pageopacity="0.0"
     inkscape:pagecheckerboard="0"
     inkscape:deskcolor="#d1d1d1"
     inkscape:document-units="mm"
     showgrid="false"
     inkscape:zoom="1.0544998"
     inkscape:cx="358.4638"
     inkscape:cy="361.30876"
     inkscape:window-width="1920"
     inkscape:window-height="1017"
     inkscape:window-x="-8"
     inkscape:window-y="-8"
     inkscape:window-maximized="1"
     inkscape:current-layer="svg5" /><defs
     id="defs2"><inkscape:path-effect
       only_selected="false"
       apply_with_weight="true"
       apply_no_weight="true"
       helper_size="0"
       steps="2"
       weight="33.333333"
       lpeversion="1"
       is_visible="true"
       id="path-effect11037"
       effect="bspline" /><inkscape:path-effect
       only_selected="false"
       apply_with_weight="true"
       apply_no_weight="true"
       helper_size="0"
       steps="2"
       weight="33.333333"
       lpeversion="1"
       is_visible="true"
       id="path-effect1725-9"
       effect="bspline" /></defs><g
     inkscape:label="shadow"
     inkscape:groupmode="layer"
     id="layer1"
     transform="translate(-44.392316,-16.898154)"
     style="stroke-width:3;stroke-dasharray:none"><path
       id="path12312"
       style="fill:#000000;stroke-width:4;stroke-linecap:round;paint-order:markers stroke fill;stroke:#000000;stroke-dasharray:none"
       d="M 63.806635 39.917421 C 63.585959 39.91521 63.382626 39.935807 63.202537 39.978399 C 62.781772 40.077912 62.491348 40.297805 62.331789 40.587147 C 62.253449 40.65892 61.136703 41.708691 60.336046 43.956451 C 59.880417 45.235897 59.637062 46.134047 59.50974 46.686 L 59.410004 46.6891 L 59.378998 47.354176 C 59.378956 47.354522 59.378481 47.359344 59.378481 47.359344 L 59.542812 47.366062 A 5.214252 5.214252 0 0 0 59.382099 48.637819 A 5.214252 5.214252 0 0 0 62.147821 53.237021 L 62.147821 54.826071 L 59.580536 54.826071 C 59.229415 54.826071 58.901546 54.963918 58.619871 55.204343 C 55.496307 57.063181 54.017939 60.830795 54.986501 64.368641 C 55.447217 66.051488 56.407543 67.502671 57.67936 68.570452 L 57.67936 70.349672 C 57.611976 70.434669 57.571357 70.541833 57.571357 70.659214 L 57.571357 71.058672 C 57.571357 71.110287 57.579147 71.159713 57.593577 71.206467 C 57.570005 71.290926 57.546716 71.377411 57.523297 71.465366 L 55.523936 78.975502 C 55.331787 79.697194 55.895448 80.335109 56.35696 80.335109 L 56.502688 80.335109 L 54.73122 90.846095 C 54.633735 91.424472 55.13315 91.915064 55.708938 92.011915 L 55.708938 92.904367 L 55.708421 92.904367 C 55.090006 92.964745 54.610297 93.467019 54.610297 94.081557 L 54.610297 94.217466 C 54.095112 94.397438 53.572083 94.551246 53.039333 94.662916 C 52.185999 94.841796 50.430707 94.854119 50.430707 94.854119 C 50.430707 94.854119 50.610862 95.474364 50.780557 95.744504 C 51.095888 96.246478 51.525078 96.680114 51.989268 97.048817 C 52.324 97.314683 52.489201 97.374171 52.885854 97.533542 C 53.250988 97.680259 53.683902 97.710623 54.074929 97.754717 C 54.591378 97.812907 55.115479 97.786722 55.63349 97.744382 C 56.231389 97.695782 56.722469 97.519971 57.306773 97.384197 C 57.773872 97.275629 58.746294 96.797166 59.08651 96.459189 C 59.213343 96.333197 59.332642 96.191414 59.444627 96.037509 L 61.775751 96.037509 C 62.453525 96.037509 62.998932 95.509626 62.998932 94.854119 L 62.998932 94.234002 C 64.252019 93.64598 65.546184 93.024541 66.86588 92.378818 L 66.86588 93.046478 C 66.490757 93.248148 66.238011 93.635429 66.238011 94.081557 L 66.238011 94.854119 C 66.238011 95.509626 66.783935 96.037509 67.461709 96.037509 L 73.403465 96.037509 C 74.081239 96.037509 74.626646 95.509626 74.626646 94.854119 L 74.626646 94.081557 C 74.626646 93.42605 74.081239 92.898166 73.403465 92.898166 L 70.432587 92.898166 L 70.432587 92.010882 C 70.989152 91.913883 71.409788 91.431255 71.409788 90.846095 L 71.409788 90.114357 C 76.551397 87.512608 81.656633 84.8067 85.625458 82.667783 C 88.322691 91.714613 96.712353 98.322125 106.62883 98.322125 C 118.71946 98.322123 128.54118 88.500918 128.54118 76.410284 C 128.54118 73.709859 128.04992 71.122753 127.15419 68.732716 L 136.22754 68.732716 L 136.22754 69.506829 L 137.34065 69.506829 L 137.34065 68.732716 L 138.85373 68.732716 L 138.85373 67.843365 L 137.34065 67.843365 L 137.34065 67.102325 L 138.85373 67.102325 L 138.85373 66.212973 L 137.34065 66.212973 L 137.34065 65.57632 L 138.85373 65.57632 L 138.85373 64.686968 L 137.34065 64.686968 L 137.34065 64.042563 L 138.85373 64.042563 L 138.85373 63.153212 L 137.34065 63.153212 L 137.34065 62.509323 L 138.85373 62.509323 L 138.85373 61.619972 L 137.34065 61.619972 L 137.34065 60.756459 L 136.22754 60.756459 L 136.22754 61.619972 L 122.78856 61.619972 C 118.78084 57.24352 113.0223 54.49586 106.62883 54.495859 C 100.78332 54.495858 95.467871 56.792696 91.536208 60.53115 L 87.019171 60.53115 C 87.019171 60.53115 86.714636 60.6017 86.542198 60.55182 L 85.972724 59.653167 L 84.889069 57.941644 C 85.186224 57.625075 85.255644 57.136388 85.028079 56.742234 C 84.750276 56.261067 84.128968 56.092878 83.647801 56.37068 C 83.379442 56.525617 83.209175 56.788263 83.158942 57.07348 A 2.0118244 2.0118244 0 0 0 82.824595 57.045057 A 2.0118244 2.0118244 0 0 0 80.949774 58.3287 A 1.84163 1.84163 0 0 0 80.46505 58.863034 C 79.439427 60.600978 77.33159 61.466104 75.31446 60.937326 C 73.297327 60.40855 71.943605 58.660666 71.943606 56.66782 A 1.84163 1.84163 0 0 0 70.101341 54.826071 A 1.84163 1.84163 0 0 0 69.788699 54.855527 C 69.697353 54.836001 69.603785 54.826071 69.508612 54.826071 L 67.045197 54.826071 L 67.045197 53.237021 A 5.214252 5.214252 0 0 0 69.81092 48.637819 A 5.214252 5.214252 0 0 0 69.74219 47.799627 L 72.144627 47.901946 L 72.303791 47.008461 L 72.112071 46.274655 L 70.004706 46.343385 L 69.975767 45.073178 L 69.959748 45.063877 C 69.964079 44.995085 69.960999 44.920559 69.950446 44.840118 C 69.888506 44.367961 69.580739 43.690836 68.898314 42.876413 C 68.215887 42.061989 67.169696 41.123631 66.093317 40.558209 C 65.286032 40.134141 64.468662 39.924054 63.806635 39.917421 z M 106.62883 56.95514 C 108.27826 56.955141 109.87918 57.160577 111.40786 57.545802 L 110.25135 61.619972 L 106.2919 61.619972 L 106.2919 60.756459 L 105.17879 60.756459 L 105.17879 61.619972 L 103.00476 61.619972 L 101.84876 57.546319 C 103.37785 57.160916 104.979 56.95514 106.62883 56.95514 z M 111.92101 57.682228 C 114.6681 58.455345 117.16693 59.815946 119.27508 61.619972 L 110.92779 61.619972 L 111.92101 57.682228 z M 101.33509 57.682745 L 102.32831 61.619972 L 96.102855 61.619972 L 96.102855 60.53115 L 95.376801 60.53115 C 97.16266 59.264268 99.172118 58.291636 101.33509 57.682745 z M 84.835325 59.087827 L 85.131431 59.65265 L 84.745925 59.65265 A 2.0118244 2.0118244 0 0 0 84.835325 59.087827 z M 84.132526 60.58386 L 84.132526 63.91854 L 83.124319 64.066334 L 83.095897 64.066334 L 82.861286 63.956264 C 82.851489 63.944459 82.842085 63.933031 82.83183 63.92164 A 1.1277587 1.1384695 0 0 0 82.827179 63.916473 C 82.825956 63.915131 82.824791 63.913674 82.823562 63.912339 A 1.1277587 1.1384695 0 0 0 82.813227 63.901487 C 82.782106 63.868535 82.748819 63.837471 82.714008 63.808469 A 1.1277587 1.1384695 0 0 0 82.692821 63.791416 C 82.650991 63.758231 82.606821 63.728018 82.560529 63.700982 A 1.1277587 1.1384695 0 0 0 82.557945 63.699432 C 82.534527 63.685838 82.510553 63.673097 82.486115 63.661191 A 1.1277587 1.1384695 0 0 1 82.485598 63.660674 C 82.460947 63.648683 82.435759 63.637795 82.41015 63.627601 A 1.1277587 1.1384695 0 0 0 82.4086 63.627085 C 82.332223 63.59681 82.251757 63.574328 82.168305 63.561456 A 1.1277587 1.1384695 0 0 0 82.164687 63.560939 C 82.10984 63.552663 82.05387 63.548536 81.996739 63.548536 C 81.821565 63.548536 81.655789 63.588728 81.50788 63.660674 A 1.1277587 1.1384695 0 0 1 81.507363 63.661191 C 81.48293 63.673095 81.458947 63.68584 81.435533 63.699432 A 1.1277587 1.1384695 0 0 0 81.432949 63.700982 C 81.386657 63.728018 81.342487 63.758231 81.300657 63.791416 A 1.1277587 1.1384695 0 0 0 81.284638 63.804335 C 81.246158 63.836015 81.209614 63.870196 81.175601 63.906654 A 1.1277587 1.1384695 0 0 0 81.159581 63.924224 C 81.087991 64.004254 81.027202 64.095274 80.980264 64.193458 C 80.944404 64.268587 80.916481 64.34798 80.897581 64.43117 A 1.1277587 1.1384695 0 0 0 80.896548 64.436854 C 80.89095 64.46208 80.885988 64.487508 80.882078 64.513335 A 1.1277587 1.1384695 0 0 0 80.881562 64.516953 C 80.877548 64.544048 80.874346 64.571435 80.87226 64.599118 A 1.1277587 1.1384695 0 0 0 80.87226 64.601702 C 80.870207 64.629771 80.869159 64.65837 80.869159 64.686968 C 80.869159 64.77223 80.878427 64.855106 80.896031 64.935015 A 1.1277587 1.1384695 0 0 0 80.897065 64.940183 C 80.897341 64.941412 80.897817 64.942572 80.898098 64.9438 A 1.1277587 1.1384695 0 0 0 80.898615 64.944834 C 80.917503 65.027061 80.944787 65.106153 80.980264 65.180478 A 1.1277587 1.1384695 0 0 1 80.98078 65.180995 C 80.992574 65.205665 81.005038 65.229701 81.018504 65.253342 A 1.1277587 1.1384695 0 0 0 81.020054 65.255926 C 81.061888 65.328922 81.111569 65.396911 81.167849 65.458497 A 1.1277587 1.1384695 0 0 0 81.171466 65.462632 C 81.208611 65.502886 81.248827 65.540285 81.291356 65.574769 A 1.1277587 1.1384695 0 0 0 81.29549 65.578387 C 81.360637 65.630691 81.432162 65.676372 81.50788 65.713262 C 81.532531 65.725253 81.557719 65.736141 81.583328 65.746335 A 1.1277587 1.1384695 0 0 0 81.584878 65.746852 C 81.635626 65.766967 81.687947 65.783354 81.741974 65.795945 A 1.1277587 1.1384695 0 0 0 81.750759 65.798012 C 81.802554 65.80964 81.855715 65.817619 81.909923 65.821783 A 1.1277587 1.1384695 0 0 0 81.922325 65.822816 C 81.946941 65.824436 81.971718 65.8254 81.996739 65.8254 C 82.02176 65.8254 82.046537 65.824436 82.071153 65.822816 A 1.1277587 1.1384695 0 0 0 82.083555 65.821783 C 82.140831 65.817383 82.196939 65.80866 82.251504 65.795945 A 1.1277587 1.1384695 0 0 0 82.252537 65.795945 C 82.30622 65.783383 82.358159 65.766846 82.4086 65.746852 A 1.1277587 1.1384695 0 0 0 82.41015 65.746335 C 82.435759 65.736141 82.460947 65.725253 82.485598 65.713262 A 1.1277587 1.1384695 0 0 1 82.486115 65.712745 C 82.510553 65.70084 82.534527 65.688099 82.557945 65.674505 A 1.1277587 1.1384695 0 0 0 82.560529 65.672955 C 82.606821 65.645918 82.650991 65.615706 82.692821 65.582521 A 1.1277587 1.1384695 0 0 0 82.697988 65.578387 C 82.757328 65.530745 82.812033 65.477287 82.860769 65.418707 L 83.095897 65.307602 L 83.124319 65.307602 L 84.132526 65.455397 L 84.132526 70.160536 L 85.622874 70.160536 C 85.033099 72.141697 84.714919 74.239151 84.714919 76.410284 C 84.714919 76.577767 84.717371 76.744436 84.721121 76.911028 L 83.78371 77.48257 L 84.144412 77.882029 L 71.409788 85.177707 L 71.409788 80.335109 L 72.143077 80.335109 C 72.656105 80.335109 73.229069 79.708535 73.069119 78.975502 L 71.427358 71.45348 C 71.545518 71.362472 71.621662 71.220015 71.621662 71.058672 L 71.621662 70.659214 C 71.621662 70.490038 71.537907 70.34154 71.409788 70.251487 L 71.409788 63.036423 C 72.271834 63.705059 73.276575 64.21047 74.380666 64.4999 C 77.882163 65.417794 81.592069 63.977674 83.506724 60.948695 A 2.0118244 2.0118244 0 0 0 84.132526 60.58386 z M 96.102855 62.509323 L 102.55259 62.509323 L 102.71485 63.153212 L 96.102855 63.153212 L 96.102855 62.509323 z M 103.25694 62.509323 L 105.17879 62.509323 L 105.17879 63.153212 L 103.43987 63.153212 L 103.25694 62.509323 z M 106.2919 62.509323 L 109.99916 62.509323 L 109.81623 63.153212 L 106.2919 63.153212 L 106.2919 62.509323 z M 110.70351 62.509323 L 120.15152 62.509323 L 119.48851 63.153212 L 110.54125 63.153212 L 110.70351 62.509323 z M 123.56061 62.509323 L 136.22754 62.509323 L 136.22754 63.153212 L 124.06911 63.153212 C 123.90331 62.935501 123.73426 62.720547 123.56061 62.509323 z M 120.57423 62.839536 C 120.61695 62.88344 120.6606 62.926488 120.7029 62.970794 L 120.7029 63.153212 L 120.26986 63.153212 L 120.57423 62.839536 z M 96.102855 64.042563 L 102.93913 64.042563 L 103.10191 64.686968 L 96.102855 64.686968 L 96.102855 64.042563 z M 103.69206 64.042563 L 105.17879 64.042563 L 105.17879 64.686968 L 103.87499 64.686968 L 103.69206 64.042563 z M 106.2919 64.042563 L 109.56405 64.042563 L 109.38111 64.686968 L 106.2919 64.686968 L 106.2919 64.042563 z M 110.31697 64.042563 L 118.57228 64.042563 L 117.90876 64.686968 L 110.15419 64.686968 L 110.31697 64.042563 z M 119.40634 64.042563 L 120.7029 64.042563 L 120.7029 64.686968 L 118.78054 64.686968 L 119.40634 64.042563 z M 124.71196 64.042563 L 136.22754 64.042563 L 136.22754 64.686968 L 125.13777 64.686968 C 124.99966 64.469513 124.85744 64.254745 124.71196 64.042563 z M 121.81601 64.244618 C 121.93296 64.39052 122.04843 64.537659 122.16121 64.686968 L 121.81601 64.686968 L 121.81601 64.244618 z M 96.263052 65.57632 L 103.32619 65.57632 L 103.4869 66.212973 L 96.918826 66.212973 L 96.263052 65.57632 z M 104.12769 65.57632 L 105.17879 65.57632 L 105.17879 66.135975 L 104.88992 66.135975 C 104.88992 66.135975 104.86735 66.192546 104.85943 66.212973 L 104.30804 66.212973 L 104.12769 65.57632 z M 106.2919 65.57632 L 106.51721 65.57632 C 106.4341 65.617377 106.3583 65.671937 106.2919 65.737033 L 106.2919 65.57632 z M 107.25205 65.57632 L 109.12842 65.57632 L 108.94807 66.212973 L 108.88244 66.212973 C 108.88125 66.175244 108.88037 66.135975 108.88037 66.135975 L 107.71972 66.135975 C 107.64347 65.889627 107.47322 65.685568 107.25205 65.57632 z M 109.92992 65.57632 L 116.99305 65.57632 L 116.33728 66.212973 L 109.7692 66.212973 L 109.92992 65.57632 z M 117.91703 65.57632 L 120.7029 65.57632 L 120.7029 66.212973 L 117.29898 66.212973 L 117.91703 65.57632 z M 121.81601 65.57632 L 122.79477 65.57632 C 122.93508 65.785496 123.07123 65.998139 123.20353 66.212973 L 121.81601 66.212973 L 121.81601 65.57632 z M 125.67366 65.57632 L 136.22754 65.57632 L 136.22754 66.212973 L 126.02248 66.212973 C 125.90952 65.998811 125.79343 65.786227 125.67366 65.57632 z M 78.094135 66.156646 A 0.0002641201 0.58329442 0 0 0 78.093618 66.398492 L 78.094135 66.40676 A 0.00019689453 0.43483052 0 0 0 78.094135 66.156646 z M 78.094135 66.40676 L 78.093618 66.40676 A 0.00026474193 0.5846677 0 0 0 78.094135 66.661525 A 0.00019689453 0.43483052 0 0 0 78.094135 66.410377 A 0.00019689453 0.43483052 0 0 0 78.094135 66.40676 z M 96.102855 67.102325 L 96.82064 67.102325 L 97.540493 67.843365 L 96.102855 67.843365 L 96.102855 67.102325 z M 97.834532 67.102325 L 103.71118 67.102325 L 103.89824 67.843365 L 98.597793 67.843365 L 97.834532 67.102325 z M 109.54493 67.102325 L 115.42157 67.102325 L 114.65831 67.843365 L 109.58265 67.843365 C 109.52203 67.780329 109.46363 67.715511 109.40695 67.649578 L 109.54493 67.102325 z M 116.43546 67.102325 L 120.7029 67.102325 L 120.7029 67.843365 L 115.71561 67.843365 L 116.43546 67.102325 z M 121.81601 67.102325 L 123.71977 67.102325 C 123.85257 67.346009 123.97964 67.593491 124.10218 67.843365 L 121.81601 67.843365 L 121.81601 67.102325 z M 126.46638 67.102325 L 136.22754 67.102325 L 136.22754 67.843365 L 126.79917 67.843365 C 126.69289 67.593761 126.58156 67.347093 126.46638 67.102325 z M 96.102855 68.732716 L 98.404006 68.732716 L 100.12535 70.505735 L 95.253294 72.321128 L 95.253811 72.328362 C 94.866123 72.356971 94.500978 72.467249 94.175841 72.642038 L 94.084373 72.676661 L 87.901288 71.117067 C 88.077229 70.492007 88.283251 69.879769 88.518305 69.282037 L 96.102855 69.282037 L 96.102855 68.732716 z M 99.514016 68.732716 L 103.38716 68.732716 C 103.14175 68.988568 102.87494 69.224405 102.59083 69.432415 C 102.22563 69.6998 101.37643 70.039613 101.37643 70.039613 L 101.00333 70.178623 L 99.514016 68.732716 z M 110.53298 68.732716 L 113.74209 68.732716 L 113.41188 69.053627 C 112.90088 69.060442 112.22841 69.063773 111.78665 69.041741 C 111.4964 69.027271 111.18938 69.061465 110.919 68.954925 C 110.78017 68.900216 110.6532 68.822667 110.53298 68.732716 z M 114.8521 68.732716 L 120.7029 68.732716 L 120.7029 69.506829 L 121.81601 69.506829 L 121.81601 68.732716 L 124.51094 68.732716 C 124.84153 69.503124 125.12458 70.298948 125.35482 71.117067 L 114.08522 73.959787 L 114.08522 69.522332 L 114.8521 68.732716 z M 87.764346 71.63073 L 92.95731 73.104026 L 91.557396 73.635259 L 90.157481 74.437278 L 89.820034 73.801657 L 87.199522 75.399493 C 87.265553 74.105567 87.458242 72.845365 87.764346 71.63073 z M 125.49124 71.63073 C 125.87648 73.159669 126.0819 74.760636 126.0819 76.410284 C 126.0819 78.059714 125.8769 79.660565 125.49176 81.18932 L 108.83955 76.464027 A 2.2121418 2.2121418 0 0 0 108.84006 76.35654 L 109.85344 76.068703 L 114.08522 76.068703 L 114.08522 74.867742 L 125.49124 71.63073 z M 100.50879 76.068703 L 103.40267 76.068703 L 104.41759 76.35654 A 2.2121418 2.2121418 0 0 0 104.41759 76.46351 L 89.740452 80.628631 L 92.696344 79.217348 L 92.528396 78.901088 C 92.664717 78.825438 92.983149 78.649424 92.983149 78.649424 L 97.982327 76.901727 L 100.50879 76.068703 z M 64.143048 76.408217 A 1.7373472 1.624177 0 0 1 64.491348 76.442323 L 64.670665 78.975502 C 64.723875 79.726773 65.083688 80.335109 65.596706 80.335109 L 65.888162 80.335109 L 65.888162 88.340822 L 61.036778 91.11998 C 61.052701 90.994512 61.060549 90.920509 61.060549 90.920509 C 61.060549 90.920509 60.594302 91.206185 59.940721 91.591786 C 60.099228 91.387281 60.205476 91.127144 60.252847 90.846095 L 62.024315 80.335109 L 62.782408 80.335109 C 63.243883 80.335109 63.562852 79.7268 63.615432 78.975502 L 63.792682 76.44284 A 1.7373472 1.624177 0 0 1 64.143048 76.408217 z M 104.68683 77.469134 A 2.2121418 2.2121418 0 0 0 104.74057 77.561635 L 92.681875 89.980515 C 90.457223 87.694374 88.790637 84.862857 87.901288 81.702984 L 104.68683 77.469134 z M 108.56979 77.469134 L 125.35533 81.702984 C 124.46614 84.863031 122.79924 87.694814 120.57475 89.981032 L 108.51605 77.562151 A 2.2121418 2.2121418 0 0 0 108.56979 77.469134 z M 105.47644 78.297507 A 2.2121418 2.2121418 0 0 0 105.56894 78.350734 L 101.33509 95.137823 C 98.175123 94.248271 95.343655 92.58114 93.057563 90.356203 L 105.47644 78.297507 z M 107.77966 78.297507 L 120.19906 90.356719 C 117.91306 92.581786 115.08164 94.248897 111.92153 95.13834 L 107.68716 78.351251 A 2.2121418 2.2121418 0 0 0 107.77966 78.297507 z M 106.57457 78.620485 A 2.2121418 2.2121418 0 0 0 106.68154 78.620485 L 111.40786 95.274765 C 109.87918 95.659991 108.27826 95.865427 106.62883 95.865427 C 104.97882 95.865427 103.37748 95.65973 101.84824 95.274249 L 106.57457 78.620485 z " /></g><g
     inkscape:label="Layer 1"
     inkscape:groupmode="layer"
     id="g11033"
     transform="translate(-44.392315,-16.898154)"><g
       id="g10845"
       inkscape:label="gun"
       style="fill:#e1b300;fill-opacity:1"
       transform="matrix(0.97791667,0,0,0.97791667,25.860041,-16.537611)"><g
         id="g10843"><rect
           style="fill:#e1b300;fill-opacity:1;stroke:none;stroke-width:0;stroke-linecap:round;stroke-dasharray:none;stroke-opacity:1;paint-order:markers stroke fill"
           id="rect10821"
           width="44.517838"
           height="0.90952116"
           x="71.027702"
           y="84.619049" /><rect
           style="fill:#e1b300;fill-opacity:1;stroke:none;stroke-width:0;stroke-linecap:round;stroke-dasharray:none;stroke-opacity:1;paint-order:markers stroke fill"
           id="rect10823"
           width="44.517838"
           height="0.90952116"
           x="71.027702"
           y="86.286598" /><rect
           style="fill:#e1b300;fill-opacity:1;stroke:none;stroke-width:0;stroke-linecap:round;stroke-dasharray:none;stroke-opacity:1;paint-order:markers stroke fill"
           id="rect10825"
           width="44.517838"
           height="0.90952116"
           x="71.027702"
           y="83.058708" /><rect
           style="fill:#e1b300;fill-opacity:1;stroke:none;stroke-width:0;stroke-linecap:round;stroke-dasharray:none;stroke-opacity:1;paint-order:markers stroke fill"
           id="rect10827"
           width="44.517838"
           height="0.90952116"
           x="71.027702"
           y="81.490532" /><rect
           style="fill:#e1b300;fill-opacity:1;stroke:none;stroke-width:0;stroke-linecap:round;stroke-dasharray:none;stroke-opacity:1;paint-order:markers stroke fill"
           id="rect10829"
           width="44.517838"
           height="0.90952116"
           x="71.027702"
           y="79.922348" /><rect
           style="fill:#bb9500;fill-opacity:1;stroke:#999999;stroke-width:0;stroke-linecap:round;stroke-dasharray:none;stroke-opacity:1;paint-order:markers stroke fill"
           id="rect10831"
           width="1.1381284"
           height="8.9480448"
           x="112.85982"
           y="79.039444" /><rect
           style="fill:#bb9500;fill-opacity:1;stroke:#999999;stroke-width:0;stroke-linecap:round;stroke-dasharray:none;stroke-opacity:1;paint-order:markers stroke fill"
           id="rect10833"
           width="1.1381284"
           height="8.9480448"
           x="96.984833"
           y="79.039444" /><rect
           style="fill:#bb9500;fill-opacity:1;stroke:#999999;stroke-width:0;stroke-linecap:round;stroke-dasharray:none;stroke-opacity:1;paint-order:markers stroke fill"
           id="rect10835"
           width="1.1381284"
           height="8.9480448"
           x="81.10984"
           y="79.039444" /><path
           id="path10837"
           style="fill:#bb9500;fill-opacity:1;stroke:#999999;stroke-width:0;stroke-linecap:round;stroke-dasharray:none;stroke-opacity:1;paint-order:markers stroke fill"
           d="m 59.588611,77.911007 v 10.74508 h 1.881539 c 0,0 0.227371,-0.726133 0.529167,-0.898653 0.169396,-0.09683 0.585361,0 0.585361,0 h 9.244529 v -8.948291 h -9.288884 c 0,0 -0.384435,0.08948 -0.541006,0 -0.301688,-0.172409 -0.529167,-0.898136 -0.529167,-0.898136 z"
           sodipodi:nodetypes="cccaccccacc" /><ellipse
           style="fill:#bb9500;fill-opacity:1;stroke:#999999;stroke-width:0;stroke-linecap:round;stroke-dasharray:none;stroke-opacity:1;paint-order:markers stroke fill"
           id="ellipse10839"
           cx="57.404438"
           cy="83.058708"
           rx="1.1532258"
           ry="1.1641784" /><path
           id="path10841"
           style="fill:#bb9500;fill-opacity:1;stroke:#999999;stroke-width:0;stroke-linecap:round;stroke-dasharray:none;stroke-opacity:1;paint-order:markers stroke fill"
           d="m 57.404248,81.894743 v 2.328023 l 1.123962,-0.529167 h 0.02946 l 3.616834,0.529167 V 81.894743 L 58.55767,82.42391 h -0.02946 z"
           sodipodi:nodetypes="ccccccccc" /></g></g><g
       id="g10929"
       transform="matrix(0.90649074,0,0,0.90649074,241.56049,-108.77198)"
       style="display:inline"
       inkscape:label="soldier"><g
         id="g10851"
         inkscape:label="head"
         transform="matrix(0.54196823,0,0,0.54196823,-216.15783,150.68052)"><rect
           style="opacity:1;fill:#ffcc00;fill-opacity:1;stroke:none;stroke-width:2.63388;stroke-linecap:square"
           id="rect10847"
           width="9.9690962"
           height="9.1902609"
           x="33.650558"
           y="50.377213" /><circle
           style="opacity:1;fill:#ffcc00;fill-opacity:1;stroke:none;stroke-width:3.14848;stroke-linecap:square"
           id="circle10849"
           cx="38.635105"
           cy="42.37645"
           r="10.613407" /></g><g
         id="g10855"
         inkscape:label="torso"
         transform="matrix(0.54196823,0,0,0.54196823,-216.15783,150.68052)"
         style="fill:#1b9400;fill-opacity:1"><rect
           style="opacity:1;fill:#1b9400;fill-opacity:1;stroke:none;stroke-width:2.80559;stroke-linecap:square"
           id="rect10853"
           width="27.737171"
           height="40.499451"
           x="24.766521"
           y="54.972347"
           rx="3.8697224"
           ry="5.650239" /></g><g
         id="g10859"
         inkscape:label="torso"
         transform="matrix(0.54196823,0,0,0.54196823,-244.87828,175.4233)"
         style="fill:#1b9400;fill-opacity:1"><path
           id="path10857"
           style="opacity:1;fill:#1c6e00;fill-opacity:1;stroke-width:2.80559;stroke-linecap:square"
           d="m 81.418793,9.3188482 h 10.44925 V 49.818299 h -10.44925 c -2.143826,0 -3.869723,-2.520007 -3.869723,-5.650239 V 14.969087 c 0,-3.130232 1.725897,-5.6502388 3.869723,-5.6502388 z"
           sodipodi:nodetypes="sccssss" /></g><g
         id="g10869"
         style="display:inline"
         transform="matrix(-0.47582652,0,0,0.47582652,-176.87433,160.32789)"
         inkscape:label="shoes"><rect
           style="display:inline;opacity:1;fill:#803300;fill-opacity:1;stroke:none;stroke-width:7.17952;stroke-linecap:square;stroke-linejoin:round;stroke-dasharray:none;stroke-opacity:1"
           id="rect10861"
           width="8.2692204"
           height="13.765817"
           x="65.856903"
           y="120.24144"
           transform="translate(-40.834227,1.4669458)" /><rect
           style="display:inline;opacity:1;fill:#803300;fill-opacity:1;stroke:none;stroke-width:10.2762;stroke-linecap:square;stroke-linejoin:round;stroke-dasharray:none;stroke-opacity:1"
           id="rect10863"
           width="19.448647"
           height="7.277873"
           x="56.132584"
           y="129.13843"
           rx="2.836376"
           ry="2.7431908"
           transform="translate(-40.834227,1.4669458)" /><rect
           style="display:inline;opacity:1;fill:#803300;fill-opacity:1;stroke:none;stroke-width:7.17952;stroke-linecap:square;stroke-linejoin:round;stroke-dasharray:none;stroke-opacity:1"
           id="rect10865"
           width="8.2692204"
           height="13.765817"
           x="-59.15818"
           y="121.70839"
           transform="scale(-1,1)" /><rect
           style="display:inline;opacity:1;fill:#803300;fill-opacity:1;stroke:none;stroke-width:10.2762;stroke-linecap:square;stroke-linejoin:round;stroke-dasharray:none;stroke-opacity:1"
           id="rect10867"
           width="19.448647"
           height="7.277873"
           x="42.256222"
           y="130.60538"
           rx="2.836376"
           ry="2.7431908" /></g><g
         id="g10879"
         transform="matrix(0.47582652,0,0,0.47582652,-233.03243,161.02592)"
         inkscape:label="pants"
         style="fill:#262680;fill-opacity:1"><rect
           style="opacity:1;fill:#262680;fill-opacity:1;stroke:none;stroke-width:7.12338;stroke-linecap:square;stroke-linejoin:round;stroke-dasharray:none;stroke-opacity:1"
           id="rect10871"
           width="31.592743"
           height="10.8081"
           x="63.672962"
           y="79.661285" /><path
           id="path10873"
           style="opacity:1;stroke-width:2.67632;stroke-linecap:square"
           d="m 66.416153,79.661285 h 7.315175 c 1.519728,0 2.995776,1.2446 2.743191,2.743191 l -7.075092,41.976684 c -0.252585,1.49859 -1.223463,2.74319 -2.743191,2.74319 h -7.315175 c -1.519728,0 -2.995776,-1.2446 -2.743191,-2.74319 l 7.075092,-41.976684 c 0.252585,-1.498591 1.223463,-2.743191 2.743191,-2.743191 z"
           sodipodi:nodetypes="sssssssss" /><rect
           style="opacity:1;fill:#262680;fill-opacity:1;stroke:none;stroke-width:2.67632;stroke-linecap:square"
           id="rect10875"
           width="12.801557"
           height="47.463066"
           x="82.464142"
           y="79.661285"
           rx="2.7431908"
           ry="2.7431908" /><path
           id="path10877"
           style="display:inline;opacity:1;fill:#262680;fill-opacity:1;stroke:none;stroke-width:8.33988;stroke-linecap:square;stroke-linejoin:round;stroke-dasharray:none;stroke-opacity:1"
           d="m 71.534903,88.154733 v 6.519519 h 2.855688 a 4.0278622,3.7654886 0 0 1 2.013744,-3.261389 4.0278622,3.7654886 0 0 1 4.027973,0 4.0278622,3.7654886 0 0 1 2.013744,3.261389 h 2.855688 v -6.519519 z" /></g><path
         style="fill:#0000ff;fill-opacity:1;stroke:none;stroke-width:4.06322;stroke-linecap:round;stroke-linejoin:round;stroke-dasharray:none;stroke-opacity:1"
         id="path10881"
         sodipodi:type="arc"
         sodipodi:cx="-168.13197"
         sodipodi:cy="193.2491"
         sodipodi:rx="0.00021720523"
         sodipodi:ry="0.47968554"
         sodipodi:start="3.1602834"
         sodipodi:end="3.1415927"
         sodipodi:arc-type="slice"
         d="m -168.13219,193.24013 a 2.1720523e-4,0.47968554 0 0 1 2.2e-4,-0.47067 2.1720523e-4,0.47968554 0 0 1 2.1e-4,0.48412 2.1720523e-4,0.47968554 0 0 1 -2.1e-4,0.4752 2.1720523e-4,0.47968554 0 0 1 -2.2e-4,-0.47968 h 2.2e-4 z" /><g
         id="g10887"
         transform="matrix(0.81264261,0,0,0.81264261,27.500368,45.906533)"><path
           id="path10883"
           style="fill:none;stroke:#1c8a00;stroke-width:5;stroke-linecap:round;stroke-linejoin:round"
           d="m -250.37306,172.3448 a 8.6935482,8.5051918 0 0 1 -9.77889,3.96279 8.6935482,8.5051918 0 0 1 -6.4435,-8.21539" /><path
           id="path10885"
           style="fill:#ffcc00;stroke-width:10.9186;stroke-linecap:round;stroke-linejoin:round"
           d="m -246.59219,171.33613 a 2.731034,2.731034 0 0 1 -2.73103,2.73103 2.731034,2.731034 0 0 1 -2.73104,-2.73103 2.731034,2.731034 0 0 1 2.73104,-2.73104 2.731034,2.731034 0 0 1 2.73103,2.73104 z" /></g><g
         id="g10901"
         transform="matrix(1.0999947,0,0,1.0999947,122.76312,-23.657436)"><circle
           style="fill:#cba200;fill-opacity:1;stroke:none;stroke-width:3.73025;stroke-linecap:round;stroke-linejoin:round;stroke-dasharray:none;stroke-opacity:1"
           id="circle10889"
           cx="-287.82751"
           cy="187.61502"
           r="0.75" /><circle
           style="fill:#cba200;fill-opacity:1;stroke:none;stroke-width:3.73025;stroke-linecap:round;stroke-linejoin:round;stroke-dasharray:none;stroke-opacity:1"
           id="circle10891"
           cx="-287.82751"
           cy="199.10292"
           r="0.75" /><circle
           style="fill:#cba200;fill-opacity:1;stroke:none;stroke-width:3.73025;stroke-linecap:round;stroke-linejoin:round;stroke-dasharray:none;stroke-opacity:1"
           id="circle10893"
           cx="-287.77682"
           cy="196.80534"
           r="0.75" /><circle
           style="fill:#cba200;fill-opacity:1;stroke:none;stroke-width:3.73025;stroke-linecap:round;stroke-linejoin:round;stroke-dasharray:none;stroke-opacity:1"
           id="circle10895"
           cx="-287.77682"
           cy="194.50777"
           r="0.75" /><circle
           style="fill:#cba200;fill-opacity:1;stroke:none;stroke-width:3.73025;stroke-linecap:round;stroke-linejoin:round;stroke-dasharray:none;stroke-opacity:1"
           id="circle10897"
           cx="-287.77682"
           cy="192.21017"
           r="0.75" /><circle
           style="fill:#cba200;fill-opacity:1;stroke:none;stroke-width:3.73025;stroke-linecap:round;stroke-linejoin:round;stroke-dasharray:none;stroke-opacity:1"
           id="circle10899"
           cx="-287.77682"
           cy="189.9126"
           r="0.75" /></g><path
         style="fill:#0000ff;fill-opacity:1;stroke:none;stroke-width:4.06322;stroke-linecap:round;stroke-linejoin:round;stroke-dasharray:none;stroke-opacity:1"
         id="path10903"
         sodipodi:type="arc"
         sodipodi:cx="-180.32887"
         sodipodi:cy="193.2491"
         sodipodi:rx="0.00021720523"
         sodipodi:ry="0.47968554"
         sodipodi:start="3.1602834"
         sodipodi:end="3.1415927"
         sodipodi:arc-type="slice"
         d="m -180.32909,193.24013 a 2.1720523e-4,0.47968554 0 0 1 2.2e-4,-0.47067 2.1720523e-4,0.47968554 0 0 1 2.1e-4,0.48412 2.1720523e-4,0.47968554 0 0 1 -2.1e-4,0.4752 2.1720523e-4,0.47968554 0 0 1 -2.2e-4,-0.47968 h 2.2e-4 z" /><g
         id="g10911"
         transform="matrix(1.157522,0,0,1.157522,139.04199,-33.288266)"><path
           id="path10905"
           d="m -290.91687,171.08898 c 0,0 -1.12535,1.00373 -1.91623,3.22404 -0.79068,2.2203 -0.91237,3.24339 -0.91237,3.24339 l 10.15852,0.40655 -0.0589,-2.58521 z"
           style="fill:#164e00;fill-opacity:1;stroke:none;stroke-width:1.94656px;stroke-linecap:butt;stroke-linejoin:miter;stroke-opacity:1"
           sodipodi:nodetypes="cccccc" /><path
           inkscape:original-d="m -290.19692,173.7188 c 1.22514,0.84149 2.44374,1.67839 3.66882,2.51966 0.85662,-0.0439 1.71108,-0.0881 2.56395,-0.13243 0.17654,-0.24979 0.35314,-0.50035 0.52971,-0.75153 -0.29483,-0.64906 -0.58805,-1.29426 -0.88395,-1.94501 -1.00499,-0.90152 -2.00192,-1.79583 -3.0059,-2.69651 -1.04769,-0.17685 -2.09026,-0.35306 -3.13845,-0.53046 -0.32449,0.50211 -0.64715,1.00068 -0.97267,1.50298 0.41421,0.68024 0.82672,1.35786 1.23789,2.03346 4.8e-4,2.3e-4 6.8e-4,1.7e-4 6e-4,-1.6e-4 z"
           inkscape:path-effect="#path-effect11037"
           id="path10907"
           d="m -289.58433,174.13951 c 0.61259,0.42072 1.83119,1.25762 2.87201,1.65616 1.04082,0.39855 1.89529,0.35441 2.40984,0.20738 0.51455,-0.14703 0.69115,-0.39759 0.63212,-0.84757 -0.059,-0.44998 -0.35226,-1.09518 -1.00263,-1.87135 -0.65038,-0.77618 -1.6473,-1.67049 -2.67313,-2.20936 -1.02582,-0.53886 -2.06839,-0.71508 -2.75491,-0.55271 -0.68652,0.16236 -1.00918,0.66093 -0.96471,1.25233 0.0445,0.5914 0.45697,1.26902 0.66279,1.60674 0.20582,0.33773 0.20602,0.33767 0.81862,0.75838 z"
           style="fill:#177f00;fill-opacity:1;stroke:none;stroke-width:2.00045px;stroke-linecap:butt;stroke-linejoin:miter;stroke-opacity:1"
           sodipodi:nodetypes="cccccccccc" /><path
           id="path10909"
           d="m -281.42742,177.2218 -0.15156,0.85166 -12.16606,-0.5172 0.0295,-0.63859 12.10527,-0.39508 z"
           style="fill:#000000;stroke:none;stroke-width:1.94656px;stroke-linecap:butt;stroke-linejoin:miter;stroke-opacity:1" /></g><path
         id="path10913"
         style="fill:#1c6e00;fill-opacity:1;stroke-width:2.93486;stroke-linecap:round;stroke-linejoin:round"
         d="m -202.10258,197.33016 h 4.88264 c 0.50908,0 1.55678,0.6709 1.49878,1.4997 l -0.57983,8.28486 c -0.058,0.8288 -0.40987,1.49968 -0.91895,1.49968 h -7.08856 c -0.50912,0 -1.13094,-0.70354 -0.91897,-1.49968 l 2.20593,-8.28486 c 0.21198,-0.79616 0.40986,-1.4997 0.91896,-1.4997 z"
         sodipodi:nodetypes="sssssssss" /><path
         id="path10915"
         style="fill:#1b9400;stroke-width:3.09443;stroke-linecap:round;stroke-linejoin:round"
         d="m -188.72409,197.22665 -5.39116,0.10356 c -0.56584,0.0111 -1.66239,0.74411 -1.60367,1.57285 l 0.5821,8.21167 c 0.0587,0.82877 0.45563,1.49971 1.02157,1.49971 h 7.22166 c 0.56595,0 1.19805,-0.69106 1.0216,-1.49971 l -1.83051,-8.38834 c -0.17646,-0.80864 -0.45573,-1.51055 -1.02159,-1.49968 z"
         sodipodi:nodetypes="ssssssssss" /><g
         id="g10921"
         transform="matrix(1.0999947,0,0,1.0999947,7.7970874,-26.705283)"><rect
           style="fill:#241c1c;fill-opacity:1;stroke:none;stroke-width:5.28678;stroke-linecap:round;stroke-linejoin:round;stroke-dasharray:none;stroke-opacity:1"
           id="rect10917"
           width="14.090755"
           height="1.4003817"
           x="-191.60619"
           y="203.72438"
           rx="0.5"
           ry="0.5" /><rect
           style="fill:#cba200;fill-opacity:1;stroke:none;stroke-width:2.0805;stroke-linecap:round;stroke-linejoin:round;stroke-dasharray:none;stroke-opacity:1"
           id="rect10919"
           width="2.5980489"
           height="1.5984734"
           x="-185.85982"
           y="203.62534"
           rx="0.20805085"
           ry="0.20805085" /></g><g
         id="g10927"
         transform="matrix(0.81264261,0,0,0.81264261,130.30355,49.970984)"><path
           style="fill:none;fill-opacity:1;stroke:#207d00;stroke-width:5.00021;stroke-linecap:round;stroke-linejoin:round;stroke-dasharray:none;stroke-opacity:1"
           id="path10923"
           sodipodi:type="arc"
           sodipodi:cx="-53.630135"
           sodipodi:cy="434.34088"
           sodipodi:rx="8.6935482"
           sodipodi:ry="8.5051918"
           sodipodi:start="0.52359878"
           sodipodi:end="3.1415927"
           sodipodi:arc-type="arc"
           d="m -46.101301,438.59348 a 8.6935482,8.5051918 0 0 1 -9.77889,3.96279 8.6935482,8.5051918 0 0 1 -6.443492,-8.21539"
           sodipodi:open="true"
           transform="rotate(60)" /><circle
           style="fill:#ffcc00;fill-opacity:1;stroke:none;stroke-width:10.9186;stroke-linecap:round;stroke-linejoin:round;stroke-dasharray:none;stroke-opacity:1"
           id="circle10925"
           cx="-45.494774"
           cy="437.58472"
           r="2.731034"
           transform="rotate(60)" /></g></g><g
       id="g11007"
       inkscape:label="carriage"
       transform="matrix(0.97791667,0,0,0.97791667,25.860041,-16.537611)"><path
         style="fill:#ab8800;fill-opacity:1;stroke:none;stroke-width:0.38811px;stroke-linecap:butt;stroke-linejoin:miter;stroke-opacity:1"
         d="m 35.995475,109.88469 c 0,0 -2.951967,1.81406 -4.526345,2.52583 -1.184433,0.53549 -2.403853,1.03457 -3.676058,1.30124 -0.872605,0.18292 -2.66758,0.1952 -2.66758,0.1952 0,0 0.18432,0.63465 0.357847,0.91089 0.322453,0.51331 0.761521,0.95676 1.236194,1.33379 0.342291,0.27187 0.511218,0.33241 0.916829,0.49538 0.373379,0.15003 0.815631,0.18116 1.215489,0.22625 0.528111,0.0595 1.064332,0.033 1.594042,-0.0103 0.6114,-0.0497 1.113375,-0.22953 1.710874,-0.36837 0.477648,-0.11102 1.472326,-0.6005 1.820225,-0.94611 1.610677,-1.6 2.018483,-5.66377 2.018483,-5.66377 z"
         id="path10931"
         sodipodi:nodetypes="csscssssssscc" /><path
         style="fill:#552200;stroke:none;stroke-width:0.264583px;stroke-linecap:butt;stroke-linejoin:miter;stroke-opacity:1"
         d="M 70.158707,91.079914 67.180845,92.209005 33.40224,111.56035 c 0,0 -2.012422,1.23668 -3.085708,1.72191 -0.807455,0.36505 -1.638758,0.70529 -2.506049,0.88709 -0.594874,0.1247 -1.818548,0.13307 -1.818548,0.13307 0,0 0.125654,0.43265 0.243952,0.62097 0.219824,0.34993 0.519147,0.65224 0.84274,0.90927 0.233348,0.18535 0.499696,0.33245 0.776211,0.44355 0.254541,0.10227 0.525796,0.16886 0.798388,0.19959 0.360026,0.0406 0.72558,0.007 1.086694,-0.0222 0.416804,-0.0339 0.834606,-0.0828 1.241933,-0.17742 0.325624,-0.0757 0.644715,-0.1827 0.95363,-0.31048 12.678373,-5.24433 36.703629,-18.629031 36.703629,-18.629031 l 5.111896,-1.787382 z"
         id="path10933"
         sodipodi:nodetypes="cccaacaaaaaaaccc" /><path
         style="fill:#999999;fill-opacity:1;stroke:none;stroke-width:0.264583px;stroke-linecap:butt;stroke-linejoin:miter;stroke-opacity:1"
         d="m 77.221772,88.532257 -6.26164,2.332828 0.207204,5.535958 5.167344,-1.703462 h 13.88306 v -7.185486 c 0,0 -1.568177,0.03903 -2.350807,0 -0.296804,-0.0148 -0.610614,0.02024 -0.887095,-0.08871 C 86.616683,87.280282 86.329397,86.984621 86.048386,86.71371 85.662694,86.341881 85.244122,85.962083 85.028224,85.471774 84.901831,85.184733 84.89516,84.540322 84.89516,84.540322 h -4.080645 c 0,0 -0.494533,1.298162 -0.887098,1.862902 -0.399845,0.575213 -0.89848,1.094229 -1.463709,1.508067 -0.373447,0.273423 -1.241936,0.620966 -1.241936,0.620966 z"
         id="path10935"
         sodipodi:nodetypes="ccccccaaaaccaac" /><circle
         style="fill:#666666;fill-opacity:1;stroke:none;stroke-width:2;stroke-linecap:round;stroke-dasharray:none;stroke-opacity:1;paint-order:markers stroke fill"
         id="circle10937"
         cx="89.190811"
         cy="88.414009"
         r="0.40772688" /><circle
         style="fill:#666666;fill-opacity:1;stroke:none;stroke-width:2;stroke-linecap:round;stroke-dasharray:none;stroke-opacity:1;paint-order:markers stroke fill"
         id="circle10939"
         cx="87.002823"
         cy="88.414009"
         r="0.40772688" /><path
         id="path10941"
         style="fill:#999999;fill-opacity:1;stroke-width:2.21315;stroke-linecap:round;paint-order:markers stroke fill"
         d="m 71.167336,96.401043 c -1.528713,0 -2.767979,-1.239266 -2.767979,-2.767979 0,-1.528713 1.239266,-2.767979 2.767979,-2.767979 1.235647,1.186684 0.735508,2.575672 0,5.535958 z"
         sodipodi:nodetypes="cscc" /><path
         style="fill:#999999;fill-opacity:1;stroke:none;stroke-width:0.306324px;stroke-linecap:butt;stroke-linejoin:miter;stroke-opacity:1"
         d="m 65.40452,92.379539 2.941236,5.537512 -5.247018,2.505499 -3.867181,-4.278982 z"
         id="path10943" /><circle
         style="fill:#666666;fill-opacity:1;stroke:none;stroke-width:2;stroke-linecap:round;stroke-dasharray:none;stroke-opacity:1;paint-order:markers stroke fill"
         id="circle10945"
         cx="70.158707"
         cy="91.891747"
         r="0.40772688" /><circle
         style="fill:#666666;fill-opacity:1;stroke:none;stroke-width:2;stroke-linecap:round;stroke-dasharray:none;stroke-opacity:1;paint-order:markers stroke fill"
         id="circle10947"
         cx="65.090729"
         cy="93.633064"
         r="0.40772688" /><circle
         style="fill:#666666;fill-opacity:1;stroke:none;stroke-width:2;stroke-linecap:round;stroke-dasharray:none;stroke-opacity:1;paint-order:markers stroke fill"
         id="circle10949"
         cx="60.566532"
         cy="96.401047"
         r="0.40772688" /><circle
         style="fill:#666666;fill-opacity:1;stroke:none;stroke-width:2;stroke-linecap:round;stroke-dasharray:none;stroke-opacity:1;paint-order:markers stroke fill"
         id="circle10951"
         cx="62.917339"
         cy="95.15876"
         r="0.40772688" /><circle
         style="fill:#666666;fill-opacity:1;stroke:none;stroke-width:2;stroke-linecap:round;stroke-dasharray:none;stroke-opacity:1;paint-order:markers stroke fill"
         id="circle10953"
         cx="67.308472"
         cy="97.58065"
         r="0.40772688" /><circle
         style="fill:#666666;fill-opacity:1;stroke:none;stroke-width:2;stroke-linecap:round;stroke-dasharray:none;stroke-opacity:1;paint-order:markers stroke fill"
         id="circle10955"
         cx="65.334679"
         cy="98.396103"
         r="0.40772688" /><circle
         style="fill:#666666;fill-opacity:1;stroke:none;stroke-width:2;stroke-linecap:round;stroke-dasharray:none;stroke-opacity:1;paint-order:markers stroke fill"
         id="circle10957"
         cx="63.325066"
         cy="99.421371"
         r="0.40772688" /><circle
         style="fill:#666666;fill-opacity:1;stroke:none;stroke-width:2;stroke-linecap:round;stroke-dasharray:none;stroke-opacity:1;paint-order:markers stroke fill"
         id="circle10959"
         cx="70.974159"
         cy="95.717743"
         r="0.40772688" /><circle
         style="fill:#666666;fill-opacity:1;stroke:none;stroke-width:2;stroke-linecap:round;stroke-dasharray:none;stroke-opacity:1;paint-order:markers stroke fill"
         id="circle10961"
         cx="79.051407"
         cy="88.414009"
         r="0.40772688" /><circle
         style="fill:#666666;fill-opacity:1;stroke:none;stroke-width:2;stroke-linecap:round;stroke-dasharray:none;stroke-opacity:1;paint-order:markers stroke fill"
         id="circle10963"
         cx="80.588936"
         cy="86.87719"
         r="0.40772688" /><circle
         style="fill:#666666;fill-opacity:1;stroke:none;stroke-width:2;stroke-linecap:round;stroke-dasharray:none;stroke-opacity:1;paint-order:markers stroke fill"
         id="circle10965"
         cx="84.814835"
         cy="86.87719"
         r="0.40772688" /><circle
         style="fill:#666666;fill-opacity:1;stroke:none;stroke-width:2;stroke-linecap:round;stroke-dasharray:none;stroke-opacity:1;paint-order:markers stroke fill"
         id="circle10967"
         cx="81.263107"
         cy="85.246284"
         r="0.40772688" /><circle
         style="fill:#666666;fill-opacity:1;stroke:none;stroke-width:2;stroke-linecap:round;stroke-dasharray:none;stroke-opacity:1;paint-order:markers stroke fill"
         id="circle10969"
         cx="84.407104"
         cy="85.246284"
         r="0.40772688" /><circle
         style="fill:#666666;fill-opacity:1;stroke:none;stroke-width:2;stroke-linecap:round;stroke-dasharray:none;stroke-opacity:1;paint-order:markers stroke fill"
         id="circle10971"
         cx="77.272865"
         cy="89.248253"
         r="0.40772688" /><circle
         style="fill:#666666;fill-opacity:1;stroke:none;stroke-width:2;stroke-linecap:round;stroke-dasharray:none;stroke-opacity:1;paint-order:markers stroke fill"
         id="circle10973"
         cx="75.494324"
         cy="89.909126"
         r="0.40772688" /><circle
         style="fill:#666666;fill-opacity:1;stroke:none;stroke-width:2;stroke-linecap:round;stroke-dasharray:none;stroke-opacity:1;paint-order:markers stroke fill"
         id="circle10975"
         cx="73.71579"
         cy="90.57"
         r="0.40772688" /><circle
         style="fill:#666666;fill-opacity:1;stroke:none;stroke-width:2;stroke-linecap:round;stroke-dasharray:none;stroke-opacity:1;paint-order:markers stroke fill"
         id="circle10977"
         cx="71.937248"
         cy="91.230873"
         r="0.40772688" /><circle
         style="fill:#666666;fill-opacity:1;stroke:none;stroke-width:2;stroke-linecap:round;stroke-dasharray:none;stroke-opacity:1;paint-order:markers stroke fill"
         id="circle10979"
         cx="72.752701"
         cy="95.15876"
         r="0.40772688" /><circle
         style="fill:#666666;fill-opacity:1;stroke:none;stroke-width:2;stroke-linecap:round;stroke-dasharray:none;stroke-opacity:1;paint-order:markers stroke fill"
         id="circle10981"
         cx="74.531235"
         cy="94.599777"
         r="0.40772688" /><circle
         style="fill:#666666;fill-opacity:1;stroke:none;stroke-width:2;stroke-linecap:round;stroke-dasharray:none;stroke-opacity:1;paint-order:markers stroke fill"
         id="circle10983"
         cx="76.309776"
         cy="94.059456"
         r="0.40772688" /><circle
         style="fill:#666666;fill-opacity:1;stroke:none;stroke-width:2;stroke-linecap:round;stroke-dasharray:none;stroke-opacity:1;paint-order:markers stroke fill"
         id="circle10985"
         cx="78.250877"
         cy="93.938026"
         r="0.40772688" /><circle
         style="fill:#666666;fill-opacity:1;stroke:none;stroke-width:2;stroke-linecap:round;stroke-dasharray:none;stroke-opacity:1;paint-order:markers stroke fill"
         id="circle10987"
         cx="80.438866"
         cy="93.938026"
         r="0.40772688" /><circle
         style="fill:#666666;fill-opacity:1;stroke:none;stroke-width:2;stroke-linecap:round;stroke-dasharray:none;stroke-opacity:1;paint-order:markers stroke fill"
         id="circle10989"
         cx="82.626854"
         cy="93.938026"
         r="0.40772688" /><circle
         style="fill:#666666;fill-opacity:1;stroke:none;stroke-width:2;stroke-linecap:round;stroke-dasharray:none;stroke-opacity:1;paint-order:markers stroke fill"
         id="circle10991"
         cx="84.814835"
         cy="93.938026"
         r="0.40772688" /><circle
         style="fill:#666666;fill-opacity:1;stroke:none;stroke-width:2;stroke-linecap:round;stroke-dasharray:none;stroke-opacity:1;paint-order:markers stroke fill"
         id="circle10993"
         cx="87.002823"
         cy="93.938026"
         r="0.40772688" /><circle
         style="fill:#666666;fill-opacity:1;stroke:none;stroke-width:2;stroke-linecap:round;stroke-dasharray:none;stroke-opacity:1;paint-order:markers stroke fill"
         id="circle10995"
         cx="89.190811"
         cy="93.938026"
         r="0.40772688" /><ellipse
         style="fill:#4d4d4d;fill-opacity:1;stroke:#999999;stroke-width:0.381362;stroke-linecap:round;stroke-dasharray:none;stroke-opacity:1;paint-order:markers stroke fill"
         id="ellipse10997"
         cx="82.854836"
         cy="84.838554"
         rx="0.70798606"
         ry="0.76800054" /><g
         id="g11005"
         transform="rotate(-30.000002,54.88865,30.501414)"
         inkscape:label="crank"><path
           id="path10999"
           style="fill:#999999;stroke:#999999;stroke-width:0;stroke-linecap:round;paint-order:markers stroke fill"
           d="m 36.246381,71.789136 h 0.511763 l 0.250909,6.121872 h -1.013581 z"
           sodipodi:nodetypes="ccccc" /><circle
           style="fill:#666666;fill-opacity:1;stroke:#999999;stroke-width:0;stroke-linecap:round;stroke-dasharray:none;stroke-opacity:1;paint-order:markers stroke fill"
           id="circle11001"
           cx="36.502262"
           cy="77.911011"
           r="0.78409016" /><circle
           style="fill:#666666;fill-opacity:1;stroke:#552200;stroke-width:0.5;stroke-linecap:round;stroke-dasharray:none;stroke-opacity:1;paint-order:normal"
           id="circle11003"
           cx="36.502262"
           cy="71.789139"
           r="0.78409016" /></g></g><g
       id="g11031"
       transform="matrix(0.94459487,0.25310344,-0.25310344,0.94459487,-58.056355,-145.85108)"
       inkscape:label="wheel"
       style="display:inline"><circle
         style="fill:#ff9955;stroke:none;stroke-width:4.99999;stroke-linecap:round;paint-order:markers stroke fill"
         id="circle11009"
         cx="221.48979"
         cy="175.94984"
         r="2.2620966" /><circle
         style="fill:#666666;stroke:none;stroke-width:3.08182;stroke-linecap:round;paint-order:markers stroke fill"
         id="circle11011"
         cx="221.48979"
         cy="175.94984"
         r="1.3942759" /><path
         id="path11013"
         style="fill:#aa4400;stroke-width:4.99999;stroke-linecap:round;paint-order:markers stroke fill"
         d="m 221.225,155.56363 -0.29998,20.38635 0.29998,20.38636 h 0.26484 0.26416 l 0.30015,-20.38636 -0.30015,-20.38635 h -0.26416 z"
         sodipodi:nodetypes="ccccccccc" /><path
         id="path11015"
         style="fill:#aa4400;stroke-width:4.99999;stroke-linecap:round;paint-order:markers stroke fill"
         d="m 231.4537,158.16263 -10.45297,17.50511 -9.93339,17.80509 0.22936,0.13242 0.22877,0.13208 10.45312,-17.50503 9.93323,-17.80517 -0.22877,-0.13208 z"
         sodipodi:nodetypes="ccccccccc" /><path
         id="path11017"
         style="fill:#aa4400;stroke-width:4.99999;stroke-linecap:round;paint-order:markers stroke fill"
         d="m 239.01245,165.52774 -17.80511,9.93339 -17.50511,10.45296 0.13242,0.22936 0.13208,0.22877 17.80519,-9.93324 17.50501,-10.45311 -0.13208,-0.22877 z"
         sodipodi:nodetypes="ccccccccc" /><path
         id="path11019"
         style="fill:#aa4400;stroke-width:4.99999;stroke-linecap:round;paint-order:markers stroke fill"
         d="m 241.87615,175.68526 -20.38637,-0.29999 -20.38635,0.29998 v 0.26484 0.26416 l 20.38636,0.30016 20.38634,-0.30016 v -0.26416 z"
         sodipodi:nodetypes="ccccccccc" /><path
         id="path11021"
         style="fill:#aa4400;stroke-width:4.99999;stroke-linecap:round;paint-order:markers stroke fill"
         d="m 239.27693,185.91411 -17.50512,-10.45299 -17.80509,-9.93338 -0.13242,0.22936 -0.13208,0.22877 17.50503,10.45312 17.80516,9.93323 0.13208,-0.22877 z"
         sodipodi:nodetypes="ccccccccc" /><path
         id="path11023"
         style="fill:#aa4400;stroke-width:4.99999;stroke-linecap:round;paint-order:markers stroke fill"
         d="m 231.91203,193.47272 -9.93338,-17.80512 -10.45297,-17.5051 -0.22936,0.13242 -0.22877,0.13208 9.93324,17.80518 10.45311,17.50501 0.22876,-0.13208 z"
         sodipodi:nodetypes="ccccccccc" /><circle
         style="fill:#666666;stroke:none;stroke-width:2;stroke-linecap:round;stroke-dasharray:none;paint-order:markers stroke fill"
         id="circle11025"
         cx="221.4895"
         cy="175.94991"
         r="1.1604534"
         transform="rotate(-15,221.4898,175.94997)" /><circle
         style="fill:none;stroke:#666666;stroke-width:2;stroke-linecap:round;stroke-dasharray:none;stroke-opacity:1;paint-order:markers stroke fill"
         id="circle11027"
         cx="221.48979"
         cy="175.94984"
         r="21.407892"
         transform="rotate(-15,221.4898,175.94997)" /><circle
         style="fill:none;stroke:#803300;stroke-width:1.94961;stroke-linecap:round;stroke-dasharray:none;paint-order:markers stroke fill"
         id="circle11029"
         cx="168.40331"
         cy="227.28035"
         r="20.868542"
         transform="rotate(-15)" /></g></g></svg>
