<?xml version="1.0" encoding="UTF-8" standalone="no"?>
<!-- Created with Inkscape (http://www.inkscape.org/) -->

<svg
   width="104mm"
   height="104mm"
   viewBox="0 0 104 104"
   version="1.1"
   id="svg15817"
   inkscape:version="1.2 (dc2aedaf03, 2022-05-15)"
   sodipodi:docname="machinegun2.svg"
   xml:space="preserve"
   xmlns:inkscape="http://www.inkscape.org/namespaces/inkscape"
   xmlns:sodipodi="http://sodipodi.sourceforge.net/DTD/sodipodi-0.dtd"
   xmlns="http://www.w3.org/2000/svg"
   xmlns:svg="http://www.w3.org/2000/svg"><sodipodi:namedview
     id="namedview15819"
     pagecolor="#ffffff"
     bordercolor="#666666"
     borderopacity="1.0"
     inkscape:showpageshadow="2"
     inkscape:pageopacity="0.0"
     inkscape:pagecheckerboard="0"
     inkscape:deskcolor="#d1d1d1"
     inkscape:document-units="mm"
     showgrid="false"
     inkscape:zoom="1.0544998"
     inkscape:cx="115.69466"
     inkscape:cy="211.47467"
     inkscape:window-width="1920"
     inkscape:window-height="1017"
     inkscape:window-x="-8"
     inkscape:window-y="-8"
     inkscape:window-maximized="1"
     inkscape:current-layer="layer1" /><defs
     id="defs15814" /><g
     inkscape:label="shadow"
     inkscape:groupmode="layer"
     id="layer1"
     transform="translate(52.032257,-47.322578)"><path
       id="path47227"
       style="color:#000000;fill:#000000;stroke-linecap:round;stroke-linejoin:round;stroke:#000000;stroke-width:4;stroke-dasharray:none"
       d="m -22.947211,68.825141 c -4.710206,-0.24905 -8.717529,4.894369 -7.21816,9.336899 -2.172433,1.489712 -4.204394,3.264924 -0.67117,1.910077 4.050485,-2.385583 1.611646,5.103626 5.662079,5.501356 0.391629,1.762353 -0.30271,2.438734 -2.059578,2.052587 -3.649451,-0.616282 -5.364359,3.43443 -4.710326,6.537455 0.357713,2.106074 1.339956,4.00659 0.99868,6.196665 -0.08594,3.91955 0.415323,7.89437 -0.967085,11.63443 -0.594481,2.45287 -1.416517,4.86637 -1.860638,7.34526 1.879796,3.86041 -8.097342,0.10878 -7.210514,3.73815 0.414587,2.30142 -4.197963,-1.03235 -4.453306,2.10446 0.575343,2.89345 1.349429,5.8127 2.305449,8.60406 2.121767,1.85893 4.702927,-0.96872 3.226807,-3.16065 -0.790149,-1.17291 -0.464382,-3.30291 1.00621,-2.07346 4.416914,-1.01233 9.854042,-1.02503 13.018486,-4.79421 1.225619,-2.35647 2.928585,-4.18864 2.746043,-6.99224 -0.272542,-2.60121 1.556699,-1.57418 1.110405,0.52096 -0.256932,2.05201 0.905871,3.90885 3.135654,3.28956 1.990115,0 3.980225,0 5.970339,0 0.908285,3.0784 -0.123966,7.29492 2.095482,9.4685 -0.770218,1.19577 -2.987832,4.29424 0.390586,4.74252 2.6842316,-0.0736 5.3971854,0.15126 8.0624058,-0.11977 0.6457845,-2.25477 2.09150849,-1.79177 4.1362204,-1.40615 1.5416717,0.42607 1.1866541,-2.19106 1.8651164,-3.14999 -0.03691,-1.01894 -3.59086593,-0.50807 -2.2155856,-2.01987 0.5837431,-1.34037 1.6776499,-2.51623 1.7247446,-4.02967 2.0306055,0.14655 1.9409613,-0.82506 2.1678255,-2.1513 4.1661519,-3.34036 8.3323079,-6.68072 12.4984619,-10.02108 2.215455,0.21766 2.267506,2.61384 3.148081,4.22403 2.609503,6.21375 5.219005,12.4275 7.828508,18.64125 -5.351814,0.89443 1.480237,3.13186 3.391016,2.0018 4.52551,-1.42597 -1.171842,-1.26639 -1.630327,-2.92432 -2.921293,-6.95614 -5.842585,-13.91227 -8.763877,-20.86841 1.900831,2.16318 3.801662,4.32636 5.702494,6.48953 -5.871882,2.68786 7.370305,4.47435 5.304821,0.51976 -2.779437,0.0708 -4.2453,-1.72184 -5.746693,-3.73296 -1.523757,-1.81592 -3.047514,-3.63184 -4.571272,-5.44776 0.816007,-2.2801 -1.314141,-4.07981 -0.651123,-6.48843 0,-2.51167 0,-5.023338 0,-7.535008 -1.41714,0 -2.83428,0 -4.25142,0 0.872601,1.251601 -1.795004,3.253218 -1.74563,1.81513 -0.0083,-1.410701 -0.462894,-3.267664 1.601893,-2.605263 8.806206,0 17.612413,10e-7 26.418619,10e-7 0.125349,-1.085725 4.150115,-0.193781 2.211404,-1.604037 -3.192133,0.999285 -0.719918,-3.754243 -2.691194,-4.565517 0.222764,-3.344249 -0.596016,-0.474724 -1.934279,0.228831 -8.224561,0 -16.449122,0 -24.673683,-1e-6 -0.572842,-1.972994 -1.654283,0.990383 -2.397101,1.295529 -1.418339,0.0848 -2.089042,-0.578042 -3.67765,-0.322978 -1.8461639,0 -3.6923294,10e-7 -5.5384934,10e-7 -1.0477279,1.184284 -2.0137892,-0.515361 -3.1456377,-0.322978 -1.42537705,-10e-7 -2.85075457,0 -4.2761321,0 -0.4796223,-1.81526 -0.9322051,1.153368 -2.1721381,0.645955 -1.696478,0 -3.3929559,0 -5.0894339,0 0.3458664,1.704268 -0.1409124,2.57589 -1.9595698,2.115633 0.08174,-2.515358 -2.100589,-6.16367 -5.537656,-5.823416 -2.29699,0.944629 -2.501354,-2.296011 -0.606598,-2.869236 3.01365,-1.961342 2.284183,-6.592009 1.847609,-8.71417 0.986214,-0.364705 3.577995,-0.758384 3.568892,-1.105127 -5.434031,0.867981 -4.932169,-6.821952 -10.718058,-6.112387 z m 11.445813,25.226368 c 1.9408372,-0.524842 2.2416563,0.590336 1.95957,2.288418 0.9616753,1.647043 -1.40963,3.000081 -1.351061,2.19061 1.5900012,-1.185887 1.1511099,-3.745031 -0.608509,-4.479028 z m 1.9595708,5.037418 c 0.9498393,0.494181 2.8151184,0.07292 4.1191527,0.212907 1.2968833,0.152584 3.1544561,-0.305038 4.1017339,0.228024 -2.0388725,1.393882 -5.7547189,2.875982 -8.4032812,1.085352 -1.7387642,-1.2149 -1.8770632,-1.276273 0.1823946,-1.526283 z m 11.7072958,0.212907 c 1.4548638,0 2.9097276,0 4.3645915,0 -0.1397908,1.605756 1.6308824,0.911336 -0.7771424,1.113106 -1.0774657,-0.34622 -3.5632305,0.76169 -3.5737753,-0.686171 l -0.00732,-0.228725 z m 4.5630292,0 c 0.473364,-0.136381 -0.016347,0.373775 0,0 z m 3.7744462,0 c 1.753897,0 3.507796,0 5.261694,0 -1.255307,0.849496 -2.59425,1.367136 -4.127668,1.113106 -2.0675802,-0.0162 -1.6544616,0.0875 0.168227,-0.617007 0.313256,-1.071747 -1.33505,0.01608 -1.302253,-0.496099 z m -2.914551,1.012346 c 1.927844,-0.0795 2.725912,0.15313 0.3200339,0.10076 -0.01309,-0.12717 -0.427264,0.14672 -0.3200339,-0.10076 z m 9.979236,1.66708 c 0,1.76595 1e-6,3.53191 0,5.29787 -0.944514,1.96492 -1.098451,3.84288 -3.361564,4.9372 -1.236891,0.64897 -2.250505,2.6834 -3.703122,1.93939 -2.0288951,-0.42424 3.506615,-1.02656 -10e-6,-1.48722 -2.0285111,-0.42385 3.506645,-1.02594 -1.1e-5,-1.4867 -2.0294154,-0.42379 3.507326,-1.02704 -1.9e-5,-1.48671 -2.0294131,-0.42378 3.50732,-1.02703 -1.1e-5,-1.48669 -2.0288972,-0.42424 3.506612,-1.02656 -1.1e-5,-1.48722 -2.0285706,-0.42355 3.50678,-1.02686 1.5e-5,-1.48675 -2.0294158,-0.42378 3.507321,-1.02703 -1.1e-5,-1.48669 -2.028895,-0.42424 3.506613,-1.02656 -10e-6,-1.48722 -1.1804934,-0.0574 2.261353,-0.0299 2.902426,-0.0357 1.38831,-0.0439 2.774919,-0.16901 4.162328,-0.2436 z m -15.3091431,0.24339 c 1.6860992,0.0246 3.4699267,-0.0486 5.096331,0.0357 -1.5828232,-0.0314 -0.4810874,1.11193 -3e-7,1.48406 -1.3644607,-0.1938 -0.8082892,1.26214 -8.7e-6,1.25789 -0.7499913,0.0671 -1.404546,1.45524 -1.2e-6,1.25987 -0.3122578,0.47573 -1.6035627,1.34017 -0.2062719,1.48673 0.4922336,0.38449 -1.5633799,1.085 -0.2288425,1.48673 1.2823559,0.19005 -1.5981295,1.09892 4.3e-6,1.37924 1.3108141,0.47755 -1.37384,0.84759 -0.1912066,1.48674 1.754512,0.49676 -1.1811339,0.53906 -1e-6,1.59473 1.5463495,0.29035 -0.7037475,0.23934 -0.1984388,1.48673 0.8712129,0.14276 1.6293824,9e-4 3.1179098,0 1.339871,-0.0948 0.45582,0.25121 -0.6950206,1.24498 -2.6785834,2.0655 -5.2403038,4.36527 -7.99108241,6.28603 -1.76283382,0.44935 -3.52566759,0.89869 -5.28850649,1.34804 0.3062673,1.61265 0.6416885,3.2199 0.918803,4.83796 -1.5797813,0.35232 -1.2431468,2.25239 -2.8070599,1.83244 1.0277122,-2.24017 1.6620735,-4.83349 0.8314525,-7.81328 -0.6370319,-4.53328 -1.192703,-9.93569 -5.4904511,-12.57952 -2.241205,-0.80505 -2.448429,-2.76715 -2.335915,-4.8478 -0.548402,-3.4195 3.5879675,1.67374 5.5832906,0.67994 2.193371,1.12364 7.95771515,-3.34308 6.66199668,0.90192 -0.67163448,1.91383 -1.34327028,3.82765 -2.01490468,5.74148 1.4583089,-2.97174 2.91661828,-5.94348 4.3749272,-8.91522 -1.09235611,-0.52941 0.393712,-1.36503 0.8629961,-1.67535 z m 5.3299074,0 c 1.9140636,-0.0279 2.6586537,0.0538 0.2859324,0.0357 0.1279607,-0.23516 -0.3390292,0.12464 -0.2859324,-0.0357 z m 2.1171839,0 c 0.1049665,-0.0169 -0.018767,0.10762 0,0 z m -2.1171844,1.0635 c 1.4873197,-0.37788 3.2631332,0.62134 0.7777222,0.45941 -0.4303625,-0.0768 -0.9861669,0.27044 -0.7777222,-0.45941 z m 3e-7,1.48674 c 1.4873189,-0.37788 3.2631339,0.62133 0.7777223,0.4594 -0.4303625,-0.0768 -0.986167,0.27044 -0.7777223,-0.4594 z m 3e-7,1.48724 c 1.4869509,-0.37755 3.2631826,0.62081 0.777722,0.45889 -0.4298204,-0.077 -0.9862368,0.27064 -0.777722,-0.45889 z m -5e-7,1.48673 c 1.4873189,-0.37788 3.2631341,0.62134 0.7777222,0.45941 -0.4303625,-0.0768 -0.9861669,0.27044 -0.7777222,-0.45941 z m 12.1052041,0.40928 c 3.848709,0.9507 -1.823926,4.69877 -1.242475,0.80532 0.19915,-0.48955 0.717081,-0.81566 1.242475,-0.80532 z m -12.1052033,1.07745 c 1.4873198,-0.37787 3.2631323,0.62134 0.7777218,0.45941 -0.4303629,-0.0768 -0.9861684,0.27044 -0.7777218,-0.45941 z m -5e-7,1.48674 c 1.4872548,-0.37797 3.2631728,0.62158 0.7777223,0.4594 -0.4303634,-0.0768 -0.986167,0.27044 -0.7777223,-0.4594 z m -2e-7,1.48724 c 1.4869508,-0.37754 3.263183,0.62081 0.7777228,0.45889 -0.4298204,-0.077 -0.9862377,0.27064 -0.7777228,-0.45889 z m 8e-7,1.48673 c 1.4873198,-0.37787 3.2631322,0.62134 0.7777214,0.45941 -0.430362,-0.0768 -0.986167,0.27044 -0.7777214,-0.45941 z" /></g><g
     inkscape:label="Layer 1 copy"
     inkscape:groupmode="layer"
     id="g5365"
     transform="translate(52.032257,-47.322578)"><g
       id="g5363"
       transform="matrix(1.1447331,0,0,1.1447331,3.176964,-13.282847)"><g
         id="g5105"
         inkscape:label="solder"
         transform="matrix(0.68833629,0,0,0.68833629,-39.878919,40.747107)"><g
           id="g5015"
           transform="matrix(1.2075963,0,0,1.2075963,527.77331,-125.70748)"><path
             style="fill:none;fill-opacity:1;stroke:#536c53;stroke-width:5;stroke-linecap:round;stroke-linejoin:round;stroke-dasharray:none;stroke-opacity:1"
             id="path5011"
             sodipodi:type="arc"
             sodipodi:cx="-261.22363"
             sodipodi:cy="346.66711"
             sodipodi:rx="8.6935482"
             sodipodi:ry="8.5051918"
             sodipodi:start="0.52359878"
             sodipodi:end="3.1415927"
             sodipodi:arc-type="arc"
             d="m -253.6948,350.91971 a 8.6935482,8.5051918 0 0 1 -9.77889,3.96279 8.6935482,8.5051918 0 0 1 -6.44349,-8.21539"
             sodipodi:open="true"
             transform="rotate(30)" /><circle
             style="fill:#ffcc00;fill-opacity:1;stroke:none;stroke-width:10.9186;stroke-linecap:round;stroke-linejoin:round;stroke-dasharray:none;stroke-opacity:1"
             id="circle5013"
             cx="-252.64497"
             cy="349.91104"
             r="2.731034"
             transform="rotate(30)" /></g><g
           id="g5021"
           inkscape:label="head"
           transform="matrix(0.80537106,0,0,0.80537106,-5.1464213,24.593798)"><rect
             style="opacity:1;fill:#ffcc00;fill-opacity:1;stroke:none;stroke-width:2.63388;stroke-linecap:square"
             id="rect5017"
             width="9.9690962"
             height="9.1902609"
             x="33.650558"
             y="50.377213" /><circle
             style="opacity:1;fill:#ffcc00;fill-opacity:1;stroke:none;stroke-width:3.14848;stroke-linecap:square"
             id="circle5019"
             cx="38.635105"
             cy="42.37645"
             r="10.613407" /></g><g
           id="g5025"
           inkscape:label="torso"
           transform="matrix(0.80537106,0,0,0.80537106,-5.1464213,24.593798)"
           style="fill:#536c53;fill-opacity:1"><rect
             style="opacity:1;fill:#536c53;fill-opacity:1;stroke:none;stroke-width:2.80559;stroke-linecap:square"
             id="rect5023"
             width="27.737171"
             height="40.499451"
             x="24.766521"
             y="54.972347"
             rx="3.8697224"
             ry="5.650239" /></g><g
           id="g5029"
           inkscape:label="torso"
           transform="matrix(0.80537106,0,0,0.80537106,-47.825337,61.361802)"
           style="fill:#374837;fill-opacity:1"><path
             id="path5027"
             style="opacity:1;fill:#374837;fill-opacity:1;stroke-width:2.80559;stroke-linecap:square"
             d="m 81.418793,9.3188482 h 10.44925 V 49.818299 h -10.44925 c -2.143826,0 -3.869723,-2.520007 -3.869723,-5.650239 V 14.969087 c 0,-3.130232 1.725897,-5.6502388 3.869723,-5.6502388 z"
             sodipodi:nodetypes="sccssss" /></g><path
           style="fill:#0000ff;fill-opacity:1;stroke:none;stroke-width:6.03797;stroke-linecap:round;stroke-linejoin:round;stroke-dasharray:none;stroke-opacity:1"
           id="path5031"
           sodipodi:type="arc"
           sodipodi:cx="66.220573"
           sodipodi:cy="87.851135"
           sodipodi:rx="0.00032276948"
           sodipodi:ry="0.71281821"
           sodipodi:start="3.1602834"
           sodipodi:end="3.1415927"
           sodipodi:arc-type="slice"
           d="m 66.220251,87.837813 a 3.2276948e-4,0.71281821 0 0 1 3.27e-4,-0.699426 3.2276948e-4,0.71281821 0 0 1 3.18e-4,0.71941 3.2276948e-4,0.71281821 0 0 1 -3.24e-4,0.706149 3.2276948e-4,0.71281821 0 0 1 -3.21e-4,-0.712811 h 3.22e-4 z" /><g
           id="g5045"
           transform="matrix(1.634605,0,0,1.634605,498.49403,-234.47445)"
           style="fill:#806600;fill-opacity:1"><circle
             style="fill:#806600;fill-opacity:1;stroke:none;stroke-width:3.73025;stroke-linecap:round;stroke-linejoin:round;stroke-dasharray:none;stroke-opacity:1"
             id="circle5033"
             cx="-287.82751"
             cy="187.61502"
             r="0.75" /><circle
             style="fill:#806600;fill-opacity:1;stroke:none;stroke-width:3.73025;stroke-linecap:round;stroke-linejoin:round;stroke-dasharray:none;stroke-opacity:1"
             id="circle5035"
             cx="-287.82751"
             cy="199.10292"
             r="0.75" /><circle
             style="fill:#806600;fill-opacity:1;stroke:none;stroke-width:3.73025;stroke-linecap:round;stroke-linejoin:round;stroke-dasharray:none;stroke-opacity:1"
             id="circle5037"
             cx="-287.77682"
             cy="196.80534"
             r="0.75" /><circle
             style="fill:#806600;fill-opacity:1;stroke:none;stroke-width:3.73025;stroke-linecap:round;stroke-linejoin:round;stroke-dasharray:none;stroke-opacity:1"
             id="circle5039"
             cx="-287.77682"
             cy="194.50777"
             r="0.75" /><circle
             style="fill:#806600;fill-opacity:1;stroke:none;stroke-width:3.73025;stroke-linecap:round;stroke-linejoin:round;stroke-dasharray:none;stroke-opacity:1"
             id="circle5041"
             cx="-287.77682"
             cy="192.21017"
             r="0.75" /><circle
             style="fill:#806600;fill-opacity:1;stroke:none;stroke-width:3.73025;stroke-linecap:round;stroke-linejoin:round;stroke-dasharray:none;stroke-opacity:1"
             id="circle5043"
             cx="-287.77682"
             cy="189.9126"
             r="0.75" /></g><path
           style="fill:#0000ff;fill-opacity:1;stroke:none;stroke-width:6.03797;stroke-linecap:round;stroke-linejoin:round;stroke-dasharray:none;stroke-opacity:1"
           id="path5047"
           sodipodi:type="arc"
           sodipodi:cx="48.095852"
           sodipodi:cy="87.851135"
           sodipodi:rx="0.00032276948"
           sodipodi:ry="0.71281821"
           sodipodi:start="3.1602834"
           sodipodi:end="3.1415927"
           sodipodi:arc-type="slice"
           d="m 48.095529,87.837813 a 3.2276948e-4,0.71281821 0 0 1 3.27e-4,-0.699426 3.2276948e-4,0.71281821 0 0 1 3.19e-4,0.71941 3.2276948e-4,0.71281821 0 0 1 -3.25e-4,0.706149 3.2276948e-4,0.71281821 0 0 1 -3.21e-4,-0.712811 h 3.23e-4 z" /><g
           id="g5053"
           transform="matrix(1.2075963,0,0,1.2075963,509.69917,-125.06175)"><path
             id="path5049"
             style="fill:none;stroke:#405440;stroke-width:5.00021;stroke-linecap:round;stroke-linejoin:round"
             transform="rotate(20)"
             d="m -309.51803,294.25021 c -1.96737,3.33376 -7.80922,8.10581 -11.60989,7.10949 -3.80068,-0.99632 -6.4435,-4.36588 -6.4435,-8.21538"
             sodipodi:nodetypes="csc" /><path
             id="path5051"
             style="fill:#ffcc00;stroke-width:10.9186;stroke-linecap:round;stroke-linejoin:round"
             transform="rotate(20)"
             d="m -306.18045,293.24145 c 1e-5,1.50831 -1.22272,2.73104 -2.73103,2.73104 -1.50831,0 -2.73104,-1.22273 -2.73104,-2.73104 10e-6,-1.50831 1.22274,-2.73104 2.73104,-2.73103 1.50831,0 2.73103,1.22272 2.73103,2.73103 z"
             sodipodi:nodetypes="sssss" /></g><g
           id="g5061"
           transform="matrix(4.1424708,0,0,4.1424708,1375.1057,-591.05057)"><g
             id="g5059"
             transform="rotate(-15,-306.62376,152.49757)"><path
               style="fill:#483737;stroke:none;stroke-width:0.179063px;stroke-linecap:butt;stroke-linejoin:miter;stroke-opacity:1"
               d="m -329.58045,151.2049 h 6.76774 c 0,0 -1.8627,-1.02416 -3.38387,-1.02416 -1.52116,0 -3.38387,1.02416 -3.38387,1.02416 z"
               id="path5055"
               sodipodi:nodetypes="ccsc" /><path
               style="fill:#483737;fill-opacity:1;stroke:none;stroke-width:1.85607;stroke-opacity:1"
               id="path5057"
               sodipodi:type="arc"
               sodipodi:cx="-326.19659"
               sodipodi:cy="150.69283"
               sodipodi:rx="2.274894"
               sodipodi:ry="2.274894"
               sodipodi:start="3.1415927"
               sodipodi:end="0"
               sodipodi:open="true"
               sodipodi:arc-type="arc"
               d="m -328.47149,150.69283 a 2.274894,2.274894 0 0 1 2.2749,-2.2749 2.274894,2.274894 0 0 1 2.27489,2.2749" /></g></g><g
           id="g5081"
           transform="matrix(0.70708375,0,0,0.70708375,-119.55059,39.835791)"
           inkscape:label="pants"
           style="display:inline;fill:#34372b;fill-opacity:1"><g
             id="g5079"
             transform="translate(55.608185,-4.9363976)"><g
               id="g5071"
               style="display:inline;fill:#502d16;fill-opacity:1"
               transform="matrix(-0.99999998,0,0,0.99999998,246.39554,-10.80315)"
               inkscape:label="shoes"><rect
                 style="display:inline;opacity:1;fill:#502d16;fill-opacity:1;stroke:none;stroke-width:7.17952;stroke-linecap:square;stroke-linejoin:round;stroke-dasharray:none;stroke-opacity:1"
                 id="rect5063"
                 width="8.2692204"
                 height="13.765817"
                 x="-92.185143"
                 y="149.72321"
                 transform="rotate(-75)" /><rect
                 style="display:inline;opacity:1;fill:#502d16;fill-opacity:1;stroke:none;stroke-width:10.2762;stroke-linecap:square;stroke-linejoin:round;stroke-dasharray:none;stroke-opacity:1"
                 id="rect5065"
                 width="19.448647"
                 height="7.277873"
                 x="-101.90948"
                 y="158.62019"
                 rx="2.836376"
                 ry="2.7431908"
                 transform="rotate(-75)" /><rect
                 style="display:inline;opacity:1;fill:#502d16;fill-opacity:1;stroke:none;stroke-width:7.17952;stroke-linecap:square;stroke-linejoin:round;stroke-dasharray:none;stroke-opacity:1"
                 id="rect5067"
                 width="8.2692204"
                 height="13.765817"
                 x="-76.118866"
                 y="125.26877"
                 transform="scale(-1,1)" /><rect
                 style="display:inline;opacity:1;fill:#502d16;fill-opacity:1;stroke:none;stroke-width:10.2762;stroke-linecap:square;stroke-linejoin:round;stroke-dasharray:none;stroke-opacity:1"
                 id="rect5069"
                 width="19.448647"
                 height="7.277873"
                 x="59.216908"
                 y="134.16576"
                 rx="2.836376"
                 ry="2.7431908" /></g><rect
               style="opacity:1;fill:#34372b;fill-opacity:1;stroke:none;stroke-width:7.12338;stroke-linecap:square;stroke-linejoin:round;stroke-dasharray:none;stroke-opacity:1"
               id="rect5073"
               width="31.592743"
               height="10.8081"
               x="134.39816"
               y="83.16481" /><path
               id="path5075"
               style="opacity:1;fill:#34372b;fill-opacity:1;stroke-width:2.67632;stroke-linecap:square"
               d="m 138.27762,87.299241 7.36474,5.081477 c 1.25087,0.86307 3.27213,0.142117 2.81732,1.592192 0,0 -1.81509,9.58195 -3.00172,12.92343 -0.99809,2.81055 -3.04948,5.3724 -5.52204,7.04027 -4.8265,3.25573 -16.77971,4.84715 -16.77971,4.84715 -1.46002,0.42176 -3.39006,1.43878 -3.87946,0 l -2.72389,-8.00796 c -0.4894,-1.43878 -1.45491,-3.44037 0,-3.87946 0,0 15.36857,0.54626 17.05604,-5.14758 1.04758,-3.534724 0.78926,-14.449519 0.78926,-14.449519 0.0829,-1.517467 2.62859,-0.863071 3.87946,0 z"
               sodipodi:nodetypes="sssssssssscs" /><path
               id="path5077"
               style="opacity:1;fill:#34372b;fill-opacity:1;stroke-width:2.67632;stroke-linecap:square"
               d="m 155.93253,83.164807 h 7.31518 c 1.51973,0 2.25315,0.210708 2.74319,0.681116 0,0 7.49689,4.643729 9.62626,8.308765 4.51388,7.769224 5.1949,26.450652 5.1949,26.450652 0.0493,1.51893 -1.22346,2.74319 -2.74319,2.74319 h -7.31517 c -1.51973,0 -2.69346,-1.22427 -2.74319,-2.74319 0,0 -0.75185,-9.78919 -1.44319,-13.22935 -0.81493,-4.05515 -3.12475,-7.604252 -6.25386,-9.143226 -3.19272,-1.570257 -12.58408,-1.023731 -12.58408,-1.023731 -1.39949,-0.592448 6.68344,-12.044226 8.20316,-12.044226 z"
               sodipodi:nodetypes="sssasssssssss" /></g></g><path
           id="path5083"
           style="fill:#374837;fill-opacity:1;stroke-width:4.36124;stroke-linecap:round;stroke-linejoin:round"
           d="m 15.739826,93.91568 h 7.255635 c 0.756545,0 2.313391,0.996946 2.227199,2.228555 l -0.861617,12.311385 c -0.08614,1.23161 -0.609037,2.22856 -1.365582,2.22856 H 12.461805 c -0.756528,0 -1.680586,-1.04548 -1.365581,-2.22856 L 14.37426,96.144235 c 0.315005,-1.183078 0.609038,-2.228555 1.365566,-2.228555 z"
           sodipodi:nodetypes="sssssssss" /><path
           id="path5085"
           style="fill:#536c53;fill-opacity:1;stroke-width:4.59836;stroke-linecap:round;stroke-linejoin:round"
           d="m 35.620415,93.76188 -8.011314,0.153816 c -0.840873,0.01635 -2.470378,1.105778 -2.383074,2.337306 l 0.864984,12.202638 c 0.08729,1.23153 0.67707,2.22855 1.51809,2.22855 h 10.73146 c 0.841021,0 1.78033,-1.0269 1.518107,-2.22855 l -2.72013,-12.465189 c -0.262223,-1.201663 -0.677233,-2.244705 -1.518123,-2.228555 z"
           sodipodi:nodetypes="ssssssssss" /><rect
           style="fill:#241c1c;fill-opacity:1;stroke:none;stroke-width:8.6418;stroke-linecap:round;stroke-linejoin:round;stroke-dasharray:none;stroke-opacity:1"
           id="rect5087"
           width="23.03282"
           height="2.2890708"
           x="14.45276"
           y="94.005295"
           rx="0.81730253"
           ry="0.81730253" /><g
           id="g5095"
           transform="matrix(1.634605,0,0,1.634605,543.32923,-212.17189)"><rect
             style="fill:#502d16;fill-opacity:1;stroke:none;stroke-width:3.05884;stroke-opacity:1"
             id="rect5089"
             width="3.9142029"
             height="3.6214209"
             x="-322.90256"
             y="187.30959" /><rect
             style="fill:#784421;fill-opacity:1;stroke:none;stroke-width:3.05884;stroke-opacity:1"
             id="rect5091"
             width="4.5665975"
             height="2.9123287"
             x="-323.22873"
             y="185.85342" /><circle
             style="fill:#806600;fill-opacity:1;stroke:none;stroke-width:1.72925;stroke-opacity:1"
             id="circle5093"
             cx="-320.94543"
             cy="187.97487"
             r="0.47643504" /></g><g
           id="g5103"
           transform="matrix(1.634605,0,0,1.634605,557.84719,-212.17189)"
           style="display:inline"><rect
             style="fill:#502d16;fill-opacity:1;stroke:none;stroke-width:3.05884;stroke-opacity:1"
             id="rect5097"
             width="3.9142029"
             height="3.6214209"
             x="-322.90256"
             y="187.30959" /><rect
             style="fill:#784421;fill-opacity:1;stroke:none;stroke-width:3.05884;stroke-opacity:1"
             id="rect5099"
             width="4.5665975"
             height="2.9123287"
             x="-323.22873"
             y="185.85342" /><circle
             style="fill:#806600;fill-opacity:1;stroke:none;stroke-width:1.72925;stroke-opacity:1"
             id="circle5101"
             cx="-320.94543"
             cy="187.97487"
             r="0.47643504" /></g></g><g
         id="g5361"
         inkscape:label="gun"><g
           id="g5127"
           style="display:inline"
           inkscape:label="receiver"><rect
             style="display:inline;fill:#241f1c;fill-opacity:1;stroke:none;stroke-width:2.14178;stroke-linecap:round"
             id="rect5107"
             width="22.156639"
             height="6.9605603"
             x="-11.110577"
             y="91.389816" /><path
             id="path5109"
             style="display:inline;fill:#806600;fill-opacity:1;stroke:none;stroke-width:4;stroke-linecap:round"
             d="m -7.7471048,93.237605 a 1.6936347,1.6936347 0 0 0 -1.6934367,1.693953 1.6936347,1.6936347 0 0 0 1.6934367,1.693437 1.6936347,1.6936347 0 0 0 5.167e-4,0 1.6936347,1.6936347 0 0 0 0.1488282,-0.0072 L 9.1893291,95.810574 9.1268006,94.045824 -7.5931091,93.24484 a 1.6936347,1.6936347 0 0 0 -0.153479,-0.0072 z" /><circle
             style="fill:#241f1c;fill-opacity:1;stroke:none;stroke-width:4;stroke-linecap:round"
             id="circle5111"
             cx="-7.793354"
             cy="94.931297"
             r="0.80030745" /><rect
             style="fill:#806600;fill-opacity:1;stroke:none;stroke-width:4.3811;stroke-linecap:round"
             id="rect5113"
             width="6.8373866"
             height="2.3739626"
             x="1.7162528"
             y="91.107544" /><rect
             style="fill:#594700;fill-opacity:1;stroke:none;stroke-width:4.3811;stroke-linecap:round"
             id="rect5115"
             width="5.0417099"
             height="1.4427259"
             x="2.6140914"
             y="91.573166" /><rect
             style="fill:#28170b;fill-opacity:1;stroke:none;stroke-width:4;stroke-linecap:round"
             id="rect5117"
             width="1.1532258"
             height="7.0280528"
             x="-13.975804"
             y="92.596092" /><rect
             style="fill:#13100f;fill-opacity:1;stroke:none;stroke-width:4;stroke-linecap:round"
             id="rect5119"
             width="3.6814516"
             height="0.52617449"
             x="-14.153227"
             y="93.237602" /><rect
             style="display:inline;fill:#13100f;fill-opacity:1;stroke:none;stroke-width:4;stroke-linecap:round"
             id="rect5121"
             width="3.6814516"
             height="0.52617449"
             x="-31.002598"
             y="94.217239"
             transform="rotate(-10)" /><rect
             style="fill:#13100f;fill-opacity:1;stroke:none;stroke-width:5.65685;stroke-linecap:round"
             id="rect5123"
             width="5.8327699"
             height="1.1290894"
             x="-5.8650293"
             y="90.825272" /><rect
             style="fill:#13100f;fill-opacity:1;stroke:none;stroke-width:4;stroke-linecap:round"
             id="rect5125"
             width="0.56454492"
             height="0.56720763"
             x="-5.3318458"
             y="90.258064" /></g><g
           id="g5143"
           inkscape:label="barrel"
           style="display:inline;fill:#806600;fill-opacity:1"><rect
             style="display:inline;fill:#241f1c;fill-opacity:1;stroke:none;stroke-width:4;stroke-linecap:round"
             id="rect5129"
             width="3.3393195"
             height="0.88541102"
             x="34.516521"
             y="94.046051" /><path
             style="fill:#241f1c;fill-opacity:1;stroke:none;stroke-width:0.517983px;stroke-linecap:butt;stroke-linejoin:miter;stroke-opacity:1"
             d="m 35.086962,88.282049 0.02518,2.543223 h -1.19124 c 0,0 0.167337,-1.276108 0.474238,-1.824404 0.162428,-0.290187 0.691822,-0.718819 0.691822,-0.718819 z"
             id="path5131"
             sodipodi:nodetypes="cccsc" /><rect
             style="fill:#241f1c;fill-opacity:1;stroke:none;stroke-width:4.6795;stroke-linecap:round"
             id="rect5133"
             width="0.81514764"
             height="1.7263691"
             x="11.046062"
             y="89.663445" /><path
             id="path5135"
             style="stroke-width:4;stroke-linecap:round"
             d="m 10.46371,90.258064 h 25.060484 c 0,0 0.527701,1.6971 0.529167,2.572579 0.0015,0.889966 -0.529167,2.616938 -0.529167,2.616938 H 10.46371 c 0,0 -0.5234458,-1.6523 -0.5291667,-2.506051 -0.00611,-0.911694 0.5291667,-2.683466 0.5291667,-2.683466 z"
             sodipodi:nodetypes="ccsccsc" /><path
             id="path5137"
             style="display:inline;fill:#6b5500;fill-opacity:1;stroke-width:6.11986;stroke-linecap:round"
             d="m 11.556488,92.265776 h 22.874856 c 0,0 0.600765,0.198343 0.595593,0.619151 -0.005,0.410732 -0.595593,0.554943 -0.595593,0.554943 H 11.556488 c 0,0 -0.593015,-0.15754 -0.595594,-0.570739 -0.0026,-0.418325 0.595594,-0.603355 0.595594,-0.603355 z"
             sodipodi:nodetypes="ccsccsc" /><path
             id="path5139"
             style="display:inline;fill:#6b5500;fill-opacity:1;stroke-width:6.11986;stroke-linecap:round"
             d="m 11.556488,90.678275 h 22.874856 c 0,0 0.600765,0.198343 0.595593,0.619151 -0.005,0.410732 -0.595593,0.554943 -0.595593,0.554943 H 11.556488 c 0,0 -0.593015,-0.15754 -0.595594,-0.570739 -0.0026,-0.418325 0.595594,-0.603355 0.595594,-0.603355 z"
             sodipodi:nodetypes="ccsccsc" /><path
             id="path5141"
             style="display:inline;fill:#6b5500;fill-opacity:1;stroke-width:6.11986;stroke-linecap:round"
             d="m 11.556488,93.853277 h 22.874856 c 0,0 0.600765,0.198343 0.595593,0.619151 -0.005,0.410732 -0.595593,0.554943 -0.595593,0.554943 H 11.556488 c 0,0 -0.593015,-0.15754 -0.595594,-0.570739 -0.0026,-0.418325 0.595594,-0.603355 0.595594,-0.603355 z"
             sodipodi:nodetypes="ccsccsc" /></g><g
           id="g5165"
           inkscape:label="tripod"><rect
             style="fill:#51463e;fill-opacity:1;stroke:none;stroke-width:4;stroke-linecap:round"
             id="rect5145"
             width="3.7138979"
             height="9.7278214"
             x="12.571366"
             y="96.137741" /><path
             id="path5147"
             style="display:inline;fill:#6c5d53;stroke-width:4;stroke-linecap:round"
             d="M -5.3318458,99.322578 H 9.1893287 l 3.9032263,-2.100806 h 2.645833 l 0.538796,3.235728 -7.0878553,0.44572 H -5.3318458 Z"
             sodipodi:nodetypes="cccccccc" /><path
             style="fill:#51463e;fill-opacity:1;stroke:none;stroke-width:0.264583px;stroke-linecap:butt;stroke-linejoin:miter;stroke-opacity:1"
             d="m -6.5550275,119.97973 0.630074,3.24596 0.172847,0.98026 -1.430192,0.9611 v 2.00728 l 6.649085,0.9409 1.003636,-3.07363 -2.383634,-0.83565 1.75636,-3.30435 0.125454,-0.92187 1.81909,-0.33267 -0.313637,-1.71381 z"
             id="path5149"
             sodipodi:nodetypes="ccccccccccccc" /><path
             id="path5151"
             style="fill:#6c5d53;stroke-width:1.52527;stroke-linecap:round"
             transform="rotate(-10)"
             d="m -27.232855,119.32936 21.5009214,-11.78184 v 1.99077 l -21.5009214,11.78184 z"
             sodipodi:nodetypes="ccccc" /><ellipse
             style="fill:#241f1b;fill-opacity:1;stroke:none;stroke-width:2;stroke-linecap:round;stroke-dasharray:none;stroke-opacity:1"
             id="ellipse5153"
             cx="23.000463"
             cy="117.0588"
             rx="3.3044355"
             ry="1.3084677" /><path
             id="path5155"
             style="fill:#342d28;stroke-width:2;stroke-linecap:round"
             transform="rotate(-40)"
             d="m -58.489491,92.791267 h 1.729839 v 11.665393 c 0,0 -0.599149,0.1002 -0.871998,0 -0.247261,-0.0908 -0.602407,-0.51143 -0.602407,-0.51143 z"
             sodipodi:nodetypes="cccscc" /><ellipse
             style="fill:#51463e;fill-opacity:1;stroke:none;stroke-width:2;stroke-linecap:round;stroke-dasharray:none;stroke-opacity:1"
             id="ellipse5157"
             cx="23.685057"
             cy="130.21971"
             rx="3.2931788"
             ry="0.98116374" /><path
             id="path5159"
             style="fill:#6c5d53;stroke-width:2.48329;stroke-linecap:round"
             transform="matrix(0.95367517,-0.30083827,0.38719446,0.92199807,0,0)"
             d="m -29.572987,108.96846 h 1.737565 v 22.90209 c 0,0 -0.552968,0.35659 -0.851635,0.36277 -0.329787,0.007 -0.88593,-0.36277 -0.88593,-0.36277 z"
             sodipodi:nodetypes="cccscc" /><ellipse
             style="fill:none;fill-opacity:1;stroke:#51463e;stroke-width:1.51335;stroke-linecap:round;stroke-dasharray:none;stroke-opacity:1"
             id="ellipse5161"
             cx="14.428315"
             cy="107.24242"
             rx="1.932268"
             ry="1.9122119" /><path
             style="fill:#51463e;fill-opacity:1;stroke:none;stroke-width:0.264583px;stroke-linecap:butt;stroke-linejoin:miter;stroke-opacity:1"
             d="m -3.9460809,98.350376 0.5267272,6.223154 -1.9587951,5.5814 3.8216972,-7.788 -0.6653212,-0.4879 1.41935459,-0.97581 -0.0887095,-2.794356 z"
             id="path5163" /></g><g
           id="g5359"
           inkscape:label="belt"
           transform="translate(-3.2275295,-3.5495485)"><g
             id="g5177"
             inkscape:label="bullet"
             transform="matrix(0.44384764,0,0,0.44384764,7.0955674,80.340504)"><path
               id="path5167"
               style="fill:#999999;stroke-width:3.02671;stroke-linecap:round"
               d="m 4.2008793,77.993578 c 0,0 1.7794334,-0.224072 2.6253916,0 0.5343825,0.141544 1.4409826,0.820953 1.4409826,0.820953 0,0 -0.9055183,0.686604 -1.4409826,0.829753 -0.8454406,0.226017 -2.6253916,0 -2.6253916,0 z"
               sodipodi:nodetypes="cscscc" /><path
               id="path5169"
               style="fill:#a28100;fill-opacity:1;stroke:none;stroke-width:2;stroke-linecap:round;stroke-dasharray:none;stroke-opacity:1"
               d="m -2.1148905,77.808056 v 2.022615 h 0.3896403 v -0.211873 h 0.3767212 v 0.211873 H 5.7037537 V 77.808056 H -1.348529 v 0.211356 h -0.3767212 v -0.211356 z" /><rect
               style="fill:#4d4d4d;fill-opacity:1;stroke:none;stroke-width:1.7924;stroke-linecap:round;stroke-dasharray:none;stroke-opacity:1"
               id="rect5171"
               width="0.45967487"
               height="3.4556017"
               x="-0.49193624"
               y="76.822617" /><rect
               style="fill:#4d4d4d;fill-opacity:1;stroke:none;stroke-width:1.7924;stroke-linecap:round;stroke-dasharray:none;stroke-opacity:1"
               id="rect5173"
               width="0.45967487"
               height="3.4556017"
               x="4.2010722"
               y="76.822617" /><path
               id="path5175"
               style="fill:#4d4d4d;fill-opacity:1;stroke:none;stroke-width:1.95278;stroke-linecap:round;stroke-dasharray:none;stroke-opacity:1"
               d="m -0.49193624,77.932079 v 1.774569 H 4.6454203 V 77.932079 Z M 2.0767421,78.34239 A 2.0178955,0.47681451 0 0 1 4.0946374,78.819364 2.0178955,0.47681451 0 0 1 2.0767421,79.296337 2.0178955,0.47681451 0 0 1 0.05884673,78.819364 2.0178955,0.47681451 0 0 1 2.0767421,78.34239 Z" /></g><g
             id="g5189"
             inkscape:label="bullet"
             transform="matrix(0.44384764,0,0,0.44384764,7.0955674,79.04161)"><path
               id="path5179"
               style="fill:#999999;stroke-width:3.02671;stroke-linecap:round"
               d="m 4.2008793,77.993578 c 0,0 1.7794334,-0.224072 2.6253916,0 0.5343825,0.141544 1.4409826,0.820953 1.4409826,0.820953 0,0 -0.9055183,0.686604 -1.4409826,0.829753 -0.8454406,0.226017 -2.6253916,0 -2.6253916,0 z"
               sodipodi:nodetypes="cscscc" /><path
               id="path5181"
               style="fill:#a28100;fill-opacity:1;stroke:none;stroke-width:2;stroke-linecap:round;stroke-dasharray:none;stroke-opacity:1"
               d="m -2.1148905,77.808056 v 2.022615 h 0.3896403 v -0.211873 h 0.3767212 v 0.211873 H 5.7037537 V 77.808056 H -1.348529 v 0.211356 h -0.3767212 v -0.211356 z" /><rect
               style="fill:#4d4d4d;fill-opacity:1;stroke:none;stroke-width:1.7924;stroke-linecap:round;stroke-dasharray:none;stroke-opacity:1"
               id="rect5183"
               width="0.45967487"
               height="3.4556017"
               x="-0.49193624"
               y="76.822617" /><rect
               style="fill:#4d4d4d;fill-opacity:1;stroke:none;stroke-width:1.7924;stroke-linecap:round;stroke-dasharray:none;stroke-opacity:1"
               id="rect5185"
               width="0.45967487"
               height="3.4556017"
               x="4.2010722"
               y="76.822617" /><path
               id="path5187"
               style="fill:#4d4d4d;fill-opacity:1;stroke:none;stroke-width:1.95278;stroke-linecap:round;stroke-dasharray:none;stroke-opacity:1"
               d="m -0.49193624,77.932079 v 1.774569 H 4.6454203 V 77.932079 Z M 2.0767421,78.34239 A 2.0178955,0.47681451 0 0 1 4.0946374,78.819364 2.0178955,0.47681451 0 0 1 2.0767421,79.296337 2.0178955,0.47681451 0 0 1 0.05884673,78.819364 2.0178955,0.47681451 0 0 1 2.0767421,78.34239 Z" /></g><g
             id="g5201"
             inkscape:label="bullet"
             transform="matrix(0.44384764,0,0,0.44384764,7.0955674,77.742718)"><path
               id="path5191"
               style="fill:#999999;stroke-width:3.02671;stroke-linecap:round"
               d="m 4.2008793,77.993578 c 0,0 1.7794334,-0.224072 2.6253916,0 0.5343825,0.141544 1.4409826,0.820953 1.4409826,0.820953 0,0 -0.9055183,0.686604 -1.4409826,0.829753 -0.8454406,0.226017 -2.6253916,0 -2.6253916,0 z"
               sodipodi:nodetypes="cscscc" /><path
               id="path5193"
               style="fill:#a28100;fill-opacity:1;stroke:none;stroke-width:2;stroke-linecap:round;stroke-dasharray:none;stroke-opacity:1"
               d="m -2.1148905,77.808056 v 2.022615 h 0.3896403 v -0.211873 h 0.3767212 v 0.211873 H 5.7037537 V 77.808056 H -1.348529 v 0.211356 h -0.3767212 v -0.211356 z" /><rect
               style="fill:#4d4d4d;fill-opacity:1;stroke:none;stroke-width:1.7924;stroke-linecap:round;stroke-dasharray:none;stroke-opacity:1"
               id="rect5195"
               width="0.45967487"
               height="3.4556017"
               x="-0.49193624"
               y="76.822617" /><rect
               style="fill:#4d4d4d;fill-opacity:1;stroke:none;stroke-width:1.7924;stroke-linecap:round;stroke-dasharray:none;stroke-opacity:1"
               id="rect5197"
               width="0.45967487"
               height="3.4556017"
               x="4.2010722"
               y="76.822617" /><path
               id="path5199"
               style="fill:#4d4d4d;fill-opacity:1;stroke:none;stroke-width:1.95278;stroke-linecap:round;stroke-dasharray:none;stroke-opacity:1"
               d="m -0.49193624,77.932079 v 1.774569 H 4.6454203 V 77.932079 Z M 2.0767421,78.34239 A 2.0178955,0.47681451 0 0 1 4.0946374,78.819364 2.0178955,0.47681451 0 0 1 2.0767421,79.296337 2.0178955,0.47681451 0 0 1 0.05884673,78.819364 2.0178955,0.47681451 0 0 1 2.0767421,78.34239 Z" /></g><g
             id="g5213"
             inkscape:label="bullet"
             transform="matrix(0.44384764,0,0,0.44384764,7.0955674,76.443825)"><path
               id="path5203"
               style="fill:#999999;stroke-width:3.02671;stroke-linecap:round"
               d="m 4.2008793,77.993578 c 0,0 1.7794334,-0.224072 2.6253916,0 0.5343825,0.141544 1.4409826,0.820953 1.4409826,0.820953 0,0 -0.9055183,0.686604 -1.4409826,0.829753 -0.8454406,0.226017 -2.6253916,0 -2.6253916,0 z"
               sodipodi:nodetypes="cscscc" /><path
               id="path5205"
               style="fill:#a28100;fill-opacity:1;stroke:none;stroke-width:2;stroke-linecap:round;stroke-dasharray:none;stroke-opacity:1"
               d="m -2.1148905,77.808056 v 2.022615 h 0.3896403 v -0.211873 h 0.3767212 v 0.211873 H 5.7037537 V 77.808056 H -1.348529 v 0.211356 h -0.3767212 v -0.211356 z" /><rect
               style="fill:#4d4d4d;fill-opacity:1;stroke:none;stroke-width:1.7924;stroke-linecap:round;stroke-dasharray:none;stroke-opacity:1"
               id="rect5207"
               width="0.45967487"
               height="3.4556017"
               x="-0.49193624"
               y="76.822617" /><rect
               style="fill:#4d4d4d;fill-opacity:1;stroke:none;stroke-width:1.7924;stroke-linecap:round;stroke-dasharray:none;stroke-opacity:1"
               id="rect5209"
               width="0.45967487"
               height="3.4556017"
               x="4.2010722"
               y="76.822617" /><path
               id="path5211"
               style="fill:#4d4d4d;fill-opacity:1;stroke:none;stroke-width:1.95278;stroke-linecap:round;stroke-dasharray:none;stroke-opacity:1"
               d="m -0.49193624,77.932079 v 1.774569 H 4.6454203 V 77.932079 Z M 2.0767421,78.34239 A 2.0178955,0.47681451 0 0 1 4.0946374,78.819364 2.0178955,0.47681451 0 0 1 2.0767421,79.296337 2.0178955,0.47681451 0 0 1 0.05884673,78.819364 2.0178955,0.47681451 0 0 1 2.0767421,78.34239 Z" /></g><g
             id="g5225"
             inkscape:label="bullet"
             transform="matrix(0.44384764,0,0,0.44384764,7.0955674,75.144935)"><path
               id="path5215"
               style="fill:#999999;stroke-width:3.02671;stroke-linecap:round"
               d="m 4.2008793,77.993578 c 0,0 1.7794334,-0.224072 2.6253916,0 0.5343825,0.141544 1.4409826,0.820953 1.4409826,0.820953 0,0 -0.9055183,0.686604 -1.4409826,0.829753 -0.8454406,0.226017 -2.6253916,0 -2.6253916,0 z"
               sodipodi:nodetypes="cscscc" /><path
               id="path5217"
               style="fill:#a28100;fill-opacity:1;stroke:none;stroke-width:2;stroke-linecap:round;stroke-dasharray:none;stroke-opacity:1"
               d="m -2.1148905,77.808056 v 2.022615 h 0.3896403 v -0.211873 h 0.3767212 v 0.211873 H 5.7037537 V 77.808056 H -1.348529 v 0.211356 h -0.3767212 v -0.211356 z" /><rect
               style="fill:#4d4d4d;fill-opacity:1;stroke:none;stroke-width:1.7924;stroke-linecap:round;stroke-dasharray:none;stroke-opacity:1"
               id="rect5219"
               width="0.45967487"
               height="3.4556017"
               x="-0.49193624"
               y="76.822617" /><rect
               style="fill:#4d4d4d;fill-opacity:1;stroke:none;stroke-width:1.7924;stroke-linecap:round;stroke-dasharray:none;stroke-opacity:1"
               id="rect5221"
               width="0.45967487"
               height="3.4556017"
               x="4.2010722"
               y="76.822617" /><path
               id="path5223"
               style="fill:#4d4d4d;fill-opacity:1;stroke:none;stroke-width:1.95278;stroke-linecap:round;stroke-dasharray:none;stroke-opacity:1"
               d="m -0.49193624,77.932079 v 1.774569 H 4.6454203 V 77.932079 Z M 2.0767421,78.34239 A 2.0178955,0.47681451 0 0 1 4.0946374,78.819364 2.0178955,0.47681451 0 0 1 2.0767421,79.296337 2.0178955,0.47681451 0 0 1 0.05884673,78.819364 2.0178955,0.47681451 0 0 1 2.0767421,78.34239 Z" /></g><g
             id="g5237"
             inkscape:label="bullet"
             transform="matrix(0.44384764,0,0,0.44384764,7.0955674,73.846042)"><path
               id="path5227"
               style="fill:#999999;stroke-width:3.02671;stroke-linecap:round"
               d="m 4.2008793,77.993578 c 0,0 1.7794334,-0.224072 2.6253916,0 0.5343825,0.141544 1.4409826,0.820953 1.4409826,0.820953 0,0 -0.9055183,0.686604 -1.4409826,0.829753 -0.8454406,0.226017 -2.6253916,0 -2.6253916,0 z"
               sodipodi:nodetypes="cscscc" /><path
               id="path5229"
               style="fill:#a28100;fill-opacity:1;stroke:none;stroke-width:2;stroke-linecap:round;stroke-dasharray:none;stroke-opacity:1"
               d="m -2.1148905,77.808056 v 2.022615 h 0.3896403 v -0.211873 h 0.3767212 v 0.211873 H 5.7037537 V 77.808056 H -1.348529 v 0.211356 h -0.3767212 v -0.211356 z" /><rect
               style="fill:#4d4d4d;fill-opacity:1;stroke:none;stroke-width:1.7924;stroke-linecap:round;stroke-dasharray:none;stroke-opacity:1"
               id="rect5231"
               width="0.45967487"
               height="3.4556017"
               x="-0.49193624"
               y="76.822617" /><rect
               style="fill:#4d4d4d;fill-opacity:1;stroke:none;stroke-width:1.7924;stroke-linecap:round;stroke-dasharray:none;stroke-opacity:1"
               id="rect5233"
               width="0.45967487"
               height="3.4556017"
               x="4.2010722"
               y="76.822617" /><path
               id="path5235"
               style="fill:#4d4d4d;fill-opacity:1;stroke:none;stroke-width:1.95278;stroke-linecap:round;stroke-dasharray:none;stroke-opacity:1"
               d="m -0.49193624,77.932079 v 1.774569 H 4.6454203 V 77.932079 Z M 2.0767421,78.34239 A 2.0178955,0.47681451 0 0 1 4.0946374,78.819364 2.0178955,0.47681451 0 0 1 2.0767421,79.296337 2.0178955,0.47681451 0 0 1 0.05884673,78.819364 2.0178955,0.47681451 0 0 1 2.0767421,78.34239 Z" /></g><g
             id="g5249"
             inkscape:label="bullet"
             transform="matrix(0.44384764,0,0,0.44384764,7.0955674,72.54715)"><path
               id="path5239"
               style="fill:#999999;stroke-width:3.02671;stroke-linecap:round"
               d="m 4.2008793,77.993578 c 0,0 1.7794334,-0.224072 2.6253916,0 0.5343825,0.141544 1.4409826,0.820953 1.4409826,0.820953 0,0 -0.9055183,0.686604 -1.4409826,0.829753 -0.8454406,0.226017 -2.6253916,0 -2.6253916,0 z"
               sodipodi:nodetypes="cscscc" /><path
               id="path5241"
               style="fill:#a28100;fill-opacity:1;stroke:none;stroke-width:2;stroke-linecap:round;stroke-dasharray:none;stroke-opacity:1"
               d="m -2.1148905,77.808056 v 2.022615 h 0.3896403 v -0.211873 h 0.3767212 v 0.211873 H 5.7037537 V 77.808056 H -1.348529 v 0.211356 h -0.3767212 v -0.211356 z" /><rect
               style="fill:#4d4d4d;fill-opacity:1;stroke:none;stroke-width:1.7924;stroke-linecap:round;stroke-dasharray:none;stroke-opacity:1"
               id="rect5243"
               width="0.45967487"
               height="3.4556017"
               x="-0.49193624"
               y="76.822617" /><rect
               style="fill:#4d4d4d;fill-opacity:1;stroke:none;stroke-width:1.7924;stroke-linecap:round;stroke-dasharray:none;stroke-opacity:1"
               id="rect5245"
               width="0.45967487"
               height="3.4556017"
               x="4.2010722"
               y="76.822617" /><path
               id="path5247"
               style="fill:#4d4d4d;fill-opacity:1;stroke:none;stroke-width:1.95278;stroke-linecap:round;stroke-dasharray:none;stroke-opacity:1"
               d="m -0.49193624,77.932079 v 1.774569 H 4.6454203 V 77.932079 Z M 2.0767421,78.34239 A 2.0178955,0.47681451 0 0 1 4.0946374,78.819364 2.0178955,0.47681451 0 0 1 2.0767421,79.296337 2.0178955,0.47681451 0 0 1 0.05884673,78.819364 2.0178955,0.47681451 0 0 1 2.0767421,78.34239 Z" /></g><g
             id="g5261"
             inkscape:label="bullet"
             transform="matrix(0.44384764,0,0,0.44384764,7.0955674,71.248257)"><path
               id="path5251"
               style="fill:#999999;stroke-width:3.02671;stroke-linecap:round"
               d="m 4.2008793,77.993578 c 0,0 1.7794334,-0.224072 2.6253916,0 0.5343825,0.141544 1.4409826,0.820953 1.4409826,0.820953 0,0 -0.9055183,0.686604 -1.4409826,0.829753 -0.8454406,0.226017 -2.6253916,0 -2.6253916,0 z"
               sodipodi:nodetypes="cscscc" /><path
               id="path5253"
               style="fill:#a28100;fill-opacity:1;stroke:none;stroke-width:2;stroke-linecap:round;stroke-dasharray:none;stroke-opacity:1"
               d="m -2.1148905,77.808056 v 2.022615 h 0.3896403 v -0.211873 h 0.3767212 v 0.211873 H 5.7037537 V 77.808056 H -1.348529 v 0.211356 h -0.3767212 v -0.211356 z" /><rect
               style="fill:#4d4d4d;fill-opacity:1;stroke:none;stroke-width:1.7924;stroke-linecap:round;stroke-dasharray:none;stroke-opacity:1"
               id="rect5255"
               width="0.45967487"
               height="3.4556017"
               x="-0.49193624"
               y="76.822617" /><rect
               style="fill:#4d4d4d;fill-opacity:1;stroke:none;stroke-width:1.7924;stroke-linecap:round;stroke-dasharray:none;stroke-opacity:1"
               id="rect5257"
               width="0.45967487"
               height="3.4556017"
               x="4.2010722"
               y="76.822617" /><path
               id="path5259"
               style="fill:#4d4d4d;fill-opacity:1;stroke:none;stroke-width:1.95278;stroke-linecap:round;stroke-dasharray:none;stroke-opacity:1"
               d="m -0.49193624,77.932079 v 1.774569 H 4.6454203 V 77.932079 Z M 2.0767421,78.34239 A 2.0178955,0.47681451 0 0 1 4.0946374,78.819364 2.0178955,0.47681451 0 0 1 2.0767421,79.296337 2.0178955,0.47681451 0 0 1 0.05884673,78.819364 2.0178955,0.47681451 0 0 1 2.0767421,78.34239 Z" /></g><g
             id="g5273"
             inkscape:label="bullet"
             transform="matrix(0.44384764,0,0,0.44384764,7.0955674,69.949367)"><path
               id="path5263"
               style="fill:#999999;stroke-width:3.02671;stroke-linecap:round"
               d="m 4.2008793,77.993578 c 0,0 1.7794334,-0.224072 2.6253916,0 0.5343825,0.141544 1.4409826,0.820953 1.4409826,0.820953 0,0 -0.9055183,0.686604 -1.4409826,0.829753 -0.8454406,0.226017 -2.6253916,0 -2.6253916,0 z"
               sodipodi:nodetypes="cscscc" /><path
               id="path5265"
               style="fill:#a28100;fill-opacity:1;stroke:none;stroke-width:2;stroke-linecap:round;stroke-dasharray:none;stroke-opacity:1"
               d="m -2.1148905,77.808056 v 2.022615 h 0.3896403 v -0.211873 h 0.3767212 v 0.211873 H 5.7037537 V 77.808056 H -1.348529 v 0.211356 h -0.3767212 v -0.211356 z" /><rect
               style="fill:#4d4d4d;fill-opacity:1;stroke:none;stroke-width:1.7924;stroke-linecap:round;stroke-dasharray:none;stroke-opacity:1"
               id="rect5267"
               width="0.45967487"
               height="3.4556017"
               x="-0.49193624"
               y="76.822617" /><rect
               style="fill:#4d4d4d;fill-opacity:1;stroke:none;stroke-width:1.7924;stroke-linecap:round;stroke-dasharray:none;stroke-opacity:1"
               id="rect5269"
               width="0.45967487"
               height="3.4556017"
               x="4.2010722"
               y="76.822617" /><path
               id="path5271"
               style="fill:#4d4d4d;fill-opacity:1;stroke:none;stroke-width:1.95278;stroke-linecap:round;stroke-dasharray:none;stroke-opacity:1"
               d="m -0.49193624,77.932079 v 1.774569 H 4.6454203 V 77.932079 Z M 2.0767421,78.34239 A 2.0178955,0.47681451 0 0 1 4.0946374,78.819364 2.0178955,0.47681451 0 0 1 2.0767421,79.296337 2.0178955,0.47681451 0 0 1 0.05884673,78.819364 2.0178955,0.47681451 0 0 1 2.0767421,78.34239 Z" /></g><g
             id="g5285"
             inkscape:label="bullet"
             transform="matrix(0.44384764,0,0,0.44384764,7.0955674,68.650474)"><path
               id="path5275"
               style="fill:#999999;stroke-width:3.02671;stroke-linecap:round"
               d="m 4.2008793,77.993578 c 0,0 1.7794334,-0.224072 2.6253916,0 0.5343825,0.141544 1.4409826,0.820953 1.4409826,0.820953 0,0 -0.9055183,0.686604 -1.4409826,0.829753 -0.8454406,0.226017 -2.6253916,0 -2.6253916,0 z"
               sodipodi:nodetypes="cscscc" /><path
               id="path5277"
               style="fill:#a28100;fill-opacity:1;stroke:none;stroke-width:2;stroke-linecap:round;stroke-dasharray:none;stroke-opacity:1"
               d="m -2.1148905,77.808056 v 2.022615 h 0.3896403 v -0.211873 h 0.3767212 v 0.211873 H 5.7037537 V 77.808056 H -1.348529 v 0.211356 h -0.3767212 v -0.211356 z" /><rect
               style="fill:#4d4d4d;fill-opacity:1;stroke:none;stroke-width:1.7924;stroke-linecap:round;stroke-dasharray:none;stroke-opacity:1"
               id="rect5279"
               width="0.45967487"
               height="3.4556017"
               x="-0.49193624"
               y="76.822617" /><rect
               style="fill:#4d4d4d;fill-opacity:1;stroke:none;stroke-width:1.7924;stroke-linecap:round;stroke-dasharray:none;stroke-opacity:1"
               id="rect5281"
               width="0.45967487"
               height="3.4556017"
               x="4.2010722"
               y="76.822617" /><path
               id="path5283"
               style="fill:#4d4d4d;fill-opacity:1;stroke:none;stroke-width:1.95278;stroke-linecap:round;stroke-dasharray:none;stroke-opacity:1"
               d="m -0.49193624,77.932079 v 1.774569 H 4.6454203 V 77.932079 Z M 2.0767421,78.34239 A 2.0178955,0.47681451 0 0 1 4.0946374,78.819364 2.0178955,0.47681451 0 0 1 2.0767421,79.296337 2.0178955,0.47681451 0 0 1 0.05884673,78.819364 2.0178955,0.47681451 0 0 1 2.0767421,78.34239 Z" /></g><g
             id="g5297"
             inkscape:label="bullet"
             transform="matrix(0.44384764,0,0,0.44384764,7.0955674,67.351582)"><path
               id="path5287"
               style="fill:#999999;stroke-width:3.02671;stroke-linecap:round"
               d="m 4.2008793,77.993578 c 0,0 1.7794334,-0.224072 2.6253916,0 0.5343825,0.141544 1.4409826,0.820953 1.4409826,0.820953 0,0 -0.9055183,0.686604 -1.4409826,0.829753 -0.8454406,0.226017 -2.6253916,0 -2.6253916,0 z"
               sodipodi:nodetypes="cscscc" /><path
               id="path5289"
               style="fill:#a28100;fill-opacity:1;stroke:none;stroke-width:2;stroke-linecap:round;stroke-dasharray:none;stroke-opacity:1"
               d="m -2.1148905,77.808056 v 2.022615 h 0.3896403 v -0.211873 h 0.3767212 v 0.211873 H 5.7037537 V 77.808056 H -1.348529 v 0.211356 h -0.3767212 v -0.211356 z" /><rect
               style="fill:#4d4d4d;fill-opacity:1;stroke:none;stroke-width:1.7924;stroke-linecap:round;stroke-dasharray:none;stroke-opacity:1"
               id="rect5291"
               width="0.45967487"
               height="3.4556017"
               x="-0.49193624"
               y="76.822617" /><rect
               style="fill:#4d4d4d;fill-opacity:1;stroke:none;stroke-width:1.7924;stroke-linecap:round;stroke-dasharray:none;stroke-opacity:1"
               id="rect5293"
               width="0.45967487"
               height="3.4556017"
               x="4.2010722"
               y="76.822617" /><path
               id="path5295"
               style="fill:#4d4d4d;fill-opacity:1;stroke:none;stroke-width:1.95278;stroke-linecap:round;stroke-dasharray:none;stroke-opacity:1"
               d="m -0.49193624,77.932079 v 1.774569 H 4.6454203 V 77.932079 Z M 2.0767421,78.34239 A 2.0178955,0.47681451 0 0 1 4.0946374,78.819364 2.0178955,0.47681451 0 0 1 2.0767421,79.296337 2.0178955,0.47681451 0 0 1 0.05884673,78.819364 2.0178955,0.47681451 0 0 1 2.0767421,78.34239 Z" /></g><g
             id="g5309"
             inkscape:label="bullet"
             transform="matrix(0.44384764,0,0,0.44384764,7.0955674,66.052689)"><path
               id="path5299"
               style="fill:#999999;stroke-width:3.02671;stroke-linecap:round"
               d="m 4.2008793,77.993578 c 0,0 1.7794334,-0.224072 2.6253916,0 0.5343825,0.141544 1.4409826,0.820953 1.4409826,0.820953 0,0 -0.9055183,0.686604 -1.4409826,0.829753 -0.8454406,0.226017 -2.6253916,0 -2.6253916,0 z"
               sodipodi:nodetypes="cscscc" /><path
               id="path5301"
               style="fill:#a28100;fill-opacity:1;stroke:none;stroke-width:2;stroke-linecap:round;stroke-dasharray:none;stroke-opacity:1"
               d="m -2.1148905,77.808056 v 2.022615 h 0.3896403 v -0.211873 h 0.3767212 v 0.211873 H 5.7037537 V 77.808056 H -1.348529 v 0.211356 h -0.3767212 v -0.211356 z" /><rect
               style="fill:#4d4d4d;fill-opacity:1;stroke:none;stroke-width:1.7924;stroke-linecap:round;stroke-dasharray:none;stroke-opacity:1"
               id="rect5303"
               width="0.45967487"
               height="3.4556017"
               x="-0.49193624"
               y="76.822617" /><rect
               style="fill:#4d4d4d;fill-opacity:1;stroke:none;stroke-width:1.7924;stroke-linecap:round;stroke-dasharray:none;stroke-opacity:1"
               id="rect5305"
               width="0.45967487"
               height="3.4556017"
               x="4.2010722"
               y="76.822617" /><path
               id="path5307"
               style="fill:#4d4d4d;fill-opacity:1;stroke:none;stroke-width:1.95278;stroke-linecap:round;stroke-dasharray:none;stroke-opacity:1"
               d="m -0.49193624,77.932079 v 1.774569 H 4.6454203 V 77.932079 Z M 2.0767421,78.34239 A 2.0178955,0.47681451 0 0 1 4.0946374,78.819364 2.0178955,0.47681451 0 0 1 2.0767421,79.296337 2.0178955,0.47681451 0 0 1 0.05884673,78.819364 2.0178955,0.47681451 0 0 1 2.0767421,78.34239 Z" /></g><g
             id="g5321"
             inkscape:label="bullet"
             transform="matrix(0.44384764,0,0,0.44384764,7.0955674,64.753798)"><path
               id="path5311"
               style="fill:#999999;stroke-width:3.02671;stroke-linecap:round"
               d="m 4.2008793,77.993578 c 0,0 1.7794334,-0.224072 2.6253916,0 0.5343825,0.141544 1.4409826,0.820953 1.4409826,0.820953 0,0 -0.9055183,0.686604 -1.4409826,0.829753 -0.8454406,0.226017 -2.6253916,0 -2.6253916,0 z"
               sodipodi:nodetypes="cscscc" /><path
               id="path5313"
               style="fill:#a28100;fill-opacity:1;stroke:none;stroke-width:2;stroke-linecap:round;stroke-dasharray:none;stroke-opacity:1"
               d="m -2.1148905,77.808056 v 2.022615 h 0.3896403 v -0.211873 h 0.3767212 v 0.211873 H 5.7037537 V 77.808056 H -1.348529 v 0.211356 h -0.3767212 v -0.211356 z" /><rect
               style="fill:#4d4d4d;fill-opacity:1;stroke:none;stroke-width:1.7924;stroke-linecap:round;stroke-dasharray:none;stroke-opacity:1"
               id="rect5315"
               width="0.45967487"
               height="3.4556017"
               x="-0.49193624"
               y="76.822617" /><rect
               style="fill:#4d4d4d;fill-opacity:1;stroke:none;stroke-width:1.7924;stroke-linecap:round;stroke-dasharray:none;stroke-opacity:1"
               id="rect5317"
               width="0.45967487"
               height="3.4556017"
               x="4.2010722"
               y="76.822617" /><path
               id="path5319"
               style="fill:#4d4d4d;fill-opacity:1;stroke:none;stroke-width:1.95278;stroke-linecap:round;stroke-dasharray:none;stroke-opacity:1"
               d="m -0.49193624,77.932079 v 1.774569 H 4.6454203 V 77.932079 Z M 2.0767421,78.34239 A 2.0178955,0.47681451 0 0 1 4.0946374,78.819364 2.0178955,0.47681451 0 0 1 2.0767421,79.296337 2.0178955,0.47681451 0 0 1 0.05884673,78.819364 2.0178955,0.47681451 0 0 1 2.0767421,78.34239 Z" /></g><g
             id="g5333"
             inkscape:label="bullet"
             transform="matrix(0.44384764,0,0,0.44384764,7.0955674,63.454906)"><path
               id="path5323"
               style="fill:#999999;stroke-width:3.02671;stroke-linecap:round"
               d="m 4.2008793,77.993578 c 0,0 1.7794334,-0.224072 2.6253916,0 0.5343825,0.141544 1.4409826,0.820953 1.4409826,0.820953 0,0 -0.9055183,0.686604 -1.4409826,0.829753 -0.8454406,0.226017 -2.6253916,0 -2.6253916,0 z"
               sodipodi:nodetypes="cscscc" /><path
               id="path5325"
               style="fill:#a28100;fill-opacity:1;stroke:none;stroke-width:2;stroke-linecap:round;stroke-dasharray:none;stroke-opacity:1"
               d="m -2.1148905,77.808056 v 2.022615 h 0.3896403 v -0.211873 h 0.3767212 v 0.211873 H 5.7037537 V 77.808056 H -1.348529 v 0.211356 h -0.3767212 v -0.211356 z" /><rect
               style="fill:#4d4d4d;fill-opacity:1;stroke:none;stroke-width:1.7924;stroke-linecap:round;stroke-dasharray:none;stroke-opacity:1"
               id="rect5327"
               width="0.45967487"
               height="3.4556017"
               x="-0.49193624"
               y="76.822617" /><rect
               style="fill:#4d4d4d;fill-opacity:1;stroke:none;stroke-width:1.7924;stroke-linecap:round;stroke-dasharray:none;stroke-opacity:1"
               id="rect5329"
               width="0.45967487"
               height="3.4556017"
               x="4.2010722"
               y="76.822617" /><path
               id="path5331"
               style="fill:#4d4d4d;fill-opacity:1;stroke:none;stroke-width:1.95278;stroke-linecap:round;stroke-dasharray:none;stroke-opacity:1"
               d="m -0.49193624,77.932079 v 1.774569 H 4.6454203 V 77.932079 Z M 2.0767421,78.34239 A 2.0178955,0.47681451 0 0 1 4.0946374,78.819364 2.0178955,0.47681451 0 0 1 2.0767421,79.296337 2.0178955,0.47681451 0 0 1 0.05884673,78.819364 2.0178955,0.47681451 0 0 1 2.0767421,78.34239 Z" /></g><g
             id="g5345"
             inkscape:label="bullet"
             transform="matrix(0.44384764,0,0,0.44384764,7.0955674,62.156013)"><path
               id="path5335"
               style="fill:#999999;stroke-width:3.02671;stroke-linecap:round"
               d="m 4.2008793,77.993578 c 0,0 1.7794334,-0.224072 2.6253916,0 0.5343825,0.141544 1.4409826,0.820953 1.4409826,0.820953 0,0 -0.9055183,0.686604 -1.4409826,0.829753 -0.8454406,0.226017 -2.6253916,0 -2.6253916,0 z"
               sodipodi:nodetypes="cscscc" /><path
               id="path5337"
               style="fill:#a28100;fill-opacity:1;stroke:none;stroke-width:2;stroke-linecap:round;stroke-dasharray:none;stroke-opacity:1"
               d="m -2.1148905,77.808056 v 2.022615 h 0.3896403 v -0.211873 h 0.3767212 v 0.211873 H 5.7037537 V 77.808056 H -1.348529 v 0.211356 h -0.3767212 v -0.211356 z" /><rect
               style="fill:#4d4d4d;fill-opacity:1;stroke:none;stroke-width:1.7924;stroke-linecap:round;stroke-dasharray:none;stroke-opacity:1"
               id="rect5339"
               width="0.45967487"
               height="3.4556017"
               x="-0.49193624"
               y="76.822617" /><rect
               style="fill:#4d4d4d;fill-opacity:1;stroke:none;stroke-width:1.7924;stroke-linecap:round;stroke-dasharray:none;stroke-opacity:1"
               id="rect5341"
               width="0.45967487"
               height="3.4556017"
               x="4.2010722"
               y="76.822617" /><path
               id="path5343"
               style="fill:#4d4d4d;fill-opacity:1;stroke:none;stroke-width:1.95278;stroke-linecap:round;stroke-dasharray:none;stroke-opacity:1"
               d="m -0.49193624,77.932079 v 1.774569 H 4.6454203 V 77.932079 Z M 2.0767421,78.34239 A 2.0178955,0.47681451 0 0 1 4.0946374,78.819364 2.0178955,0.47681451 0 0 1 2.0767421,79.296337 2.0178955,0.47681451 0 0 1 0.05884673,78.819364 2.0178955,0.47681451 0 0 1 2.0767421,78.34239 Z" /></g><g
             id="g5357"
             inkscape:label="bullet"
             transform="matrix(0.44384764,0,0,0.44384764,7.0955674,60.85712)"><path
               id="path5347"
               style="fill:#999999;stroke-width:3.02671;stroke-linecap:round"
               d="m 4.2008793,77.993578 c 0,0 1.7794334,-0.224072 2.6253916,0 0.5343825,0.141544 1.4409826,0.820953 1.4409826,0.820953 0,0 -0.9055183,0.686604 -1.4409826,0.829753 -0.8454406,0.226017 -2.6253916,0 -2.6253916,0 z"
               sodipodi:nodetypes="cscscc" /><path
               id="path5349"
               style="fill:#a28100;fill-opacity:1;stroke:none;stroke-width:2;stroke-linecap:round;stroke-dasharray:none;stroke-opacity:1"
               d="m -2.1148905,77.808056 v 2.022615 h 0.3896403 v -0.211873 h 0.3767212 v 0.211873 H 5.7037537 V 77.808056 H -1.348529 v 0.211356 h -0.3767212 v -0.211356 z" /><rect
               style="fill:#4d4d4d;fill-opacity:1;stroke:none;stroke-width:1.6144;stroke-linecap:round;stroke-dasharray:none;stroke-opacity:1"
               id="rect5351"
               width="0.45967487"
               height="2.803355"
               x="-0.49193624"
               y="77.474861" /><rect
               style="fill:#4d4d4d;fill-opacity:1;stroke:none;stroke-width:1.6144;stroke-linecap:round;stroke-dasharray:none;stroke-opacity:1"
               id="rect5353"
               width="0.45967487"
               height="2.803355"
               x="4.2010722"
               y="77.474861" /><path
               id="path5355"
               style="fill:#4d4d4d;fill-opacity:1;stroke:none;stroke-width:1.95278;stroke-linecap:round;stroke-dasharray:none;stroke-opacity:1"
               d="m -0.49193624,77.932079 v 1.774569 H 4.6454203 V 77.932079 Z M 2.0767421,78.34239 A 2.0178955,0.47681451 0 0 1 4.0946374,78.819364 2.0178955,0.47681451 0 0 1 2.0767421,79.296337 2.0178955,0.47681451 0 0 1 0.05884673,78.819364 2.0178955,0.47681451 0 0 1 2.0767421,78.34239 Z" /></g></g></g></g></g></svg>
