<?xml version="1.0" encoding="UTF-8" standalone="no"?>
<!-- Created with Inkscape (http://www.inkscape.org/) -->

<svg
   width="104mm"
   height="104mm"
   viewBox="0 0 104 104"
   version="1.1"
   id="svg15817"
   inkscape:version="1.2 (dc2aedaf03, 2022-05-15)"
   sodipodi:docname="machinegun3.svg"
   xml:space="preserve"
   xmlns:inkscape="http://www.inkscape.org/namespaces/inkscape"
   xmlns:sodipodi="http://sodipodi.sourceforge.net/DTD/sodipodi-0.dtd"
   xmlns="http://www.w3.org/2000/svg"
   xmlns:svg="http://www.w3.org/2000/svg"><sodipodi:namedview
     id="namedview15819"
     pagecolor="#ffffff"
     bordercolor="#666666"
     borderopacity="1.0"
     inkscape:showpageshadow="2"
     inkscape:pageopacity="0.0"
     inkscape:pagecheckerboard="0"
     inkscape:deskcolor="#d1d1d1"
     inkscape:document-units="mm"
     showgrid="false"
     inkscape:zoom="0.35355339"
     inkscape:cx="-837.21443"
     inkscape:cy="678.82251"
     inkscape:window-width="1920"
     inkscape:window-height="1017"
     inkscape:window-x="-8"
     inkscape:window-y="-8"
     inkscape:window-maximized="1"
     inkscape:current-layer="g1263" /><defs
     id="defs15814" /><g
     inkscape:label="shadow"
     inkscape:groupmode="layer"
     id="g1263"
     transform="translate(52.032257,-47.322578)"><path
       id="rect909"
       style="fill:#213b10;stroke-width:3.99999;stroke:#000000"
       d="m -21.376764,55.861075 c -4.171927,0.01924 -8.129522,3.284489 -8.346356,7.574774 -0.241544,1.861951 0.042,3.730377 0.336414,5.568136 -1.539518,0.680917 -0.367679,2.600242 0.967321,1.739421 -0.783205,3.713719 3.796667,5.345028 4.584273,7.975355 0.759235,2.416587 -1.541105,1.773601 -3.156754,1.815304 -3.092135,-0.576734 -4.672434,2.641389 -3.998363,5.339815 0,7.362655 0,14.72531 0,22.08797 -1.168331,0.85703 0.719842,2.16385 0.08682,3.81086 -0.129492,3.78357 0.431379,7.7608 -0.886822,11.36378 -3.019126,3.53079 -8.441166,2.16828 -12.163233,3.33886 1.777688,4.06168 -1.73303,1.79804 -3.83205,2.4743 -2.864594,0.92754 -0.93501,4.04764 -0.598676,6.04149 0.855099,2.32319 0.82542,5.14468 2.469588,7.03465 2.98535,1.20715 5.035291,-2.03503 3.495607,-4.57932 -0.411043,-1.37212 -1.318013,-3.29695 0.864558,-3.01337 4.418139,0.4302 10.224357,-1.29006 14.551567,-3.41374 4.479579,-2.84684 4.741305,-8.54207 5.83737,-13.20746 4.578846,-0.30922 10.656089,-0.25776 12.299657,5.11856 1.6131239,4.01461 0.7843966,8.61778 2.1082789,12.62664 3.5515227,1.76972 -2.9729637,3.82739 -0.084859,6.66274 2.3479116,1.1046 5.1649936,0.3363 7.7274553,0.56469 2.0205525,-0.0679 5.6259028,0.67044 5.3870697,-2.45831 0.4389677,-3.10303 -3.1032757,-2.72022 -5.154565,-2.66799 -2.9957831,-0.584 2.3701027,-3.10043 0.5522877,-5.40339 -0.372662,-5.5725 -1.24627924,-11.31524 -3.2482837,-16.44432 0.1336419,-1.35838 -3.4989666,-2.09305 -1.174685,-4.16068 0.7298887,-1.51407 0.7815672,-2.99422 2.90789453,-2.74005 -0.92797756,-1.76419 1.13996727,-2.43119 2.20344037,-3.46058 3.0461635,-2.44235 6.0923271,-4.88471 9.1384906,-7.327072 0.533619,1.164477 0.854493,0.64762 0,1.653706 0.957991,0.984916 0.410928,0.448676 0,1.750236 1.421133,0.55585 -0.09333,0.31701 0,1.72538 1.908155,-0.0273 -0.782405,0.53831 0.197921,1.48673 1.609426,-0.0476 -1.09008,0.83736 0,1.37925 1.716839,0.17404 -1.428264,1.13702 0.191719,1.48673 1.175332,0.33795 -1.496877,1.12324 0,1.59473 1.049393,0.0912 -1.625478,1.38282 0.263063,1.48674 0.133075,0.27649 -1.636077,1.52829 0.172053,1.48673 0.474781,-0.009 2.599712,0.16659 3.147611,-0.0434 3.291783,-0.37601 -2.692225,-1.3229 0.570508,-1.53791 1.748911,-0.68154 -3.01255,-1.22546 0,-1.48662 1.749277,-0.68244 -3.012426,-1.22484 0,-1.4872 1.749676,-0.68187 -3.012903,-1.22488 0,-1.48671 1.748911,-0.68154 -3.01255,-1.22546 0,-1.48662 1.749277,-0.68244 -3.012426,-1.22484 0,-1.4872 1.309933,-0.0962 1.500775,2.90475 2.34402,4.10014 1.781295,4.24156 3.562589,8.48311 5.343883,12.72467 -7.250813,1.75903 7.581785,3.69964 4.378106,0.30224 -3.125983,0.64016 -2.92186,-2.92337 -4.096403,-4.74657 -2.426592,-5.77819 -4.86555,-11.5861 -7.284383,-17.345865 1.900832,2.162655 3.801663,4.325315 5.702495,6.487975 -6.6031,3.58608 10.777181,3.48577 3.934674,-0.0272 -2.543279,0.41268 -3.341401,-2.43968 -4.91951,-3.83274 -1.051356,-1.370318 -1.901095,-2.219532 -3.040924,-3.623725 -1.925379,-1.475539 0.247127,-2.573242 -0.250976,-4.396274 1.887239,0.04336 2.621149,-0.814826 4.246372,0 1.700637,-0.552107 2.273914,-0.243325 4.080947,0 1.387077,-1.040575 2.264283,0.313896 4.080948,0 0.797803,-1.458865 2.637004,1.055562 3.720887,-0.29582 1.15266,-0.55036 2.914898,1.210852 4.007115,-0.227663 1.241388,0.748967 2.815548,0.595485 4.080948,0 0.951543,1.554797 2.784318,-0.38369 3.789252,0.227608 1.048791,0.682416 3.23056,0.304566 3.150286,-1.016797 0.268607,-1.78954 -1.203059,-1.837217 -2.716839,-1.844242 -1.140963,1.229037 -2.01156,-0.453481 -3.81788,0 -0.874928,1.357985 -2.010593,-0.640485 -3.709083,0 -0.588114,1.476304 -2.37021,-0.952536 -3.525369,0.182935 -0.812562,1.130024 -2.912194,-1.420679 -3.65144,0.341064 -1.236879,0.0058 -2.896963,-1.311733 -3.817874,0 -1.14668,-0.355766 -2.819555,-1.00037 -3.817893,0 -1.051179,-0.740397 -2.742569,-0.633013 -3.817882,0 -1.383637,-0.312301 -2.039832,-1.157636 -1.656174,-3.154627 0.479863,-2.112619 -0.961919,-3.315184 -0.626319,-0.520392 0.530537,2.154452 -2.423629,0.824202 -3.68288,1.188866 -1.182803,-0.410961 -4.083536,0.896007 -3.992106,-0.789189 -1.2142879,-1.751338 -0.7978557,1.927612 -2.9328457,0.789187 -1.2779181,-0.331044 -4.1572903,0.939366 -3.5639149,-1.262972 -2.8173991,0 -5.6347981,0 -8.4521972,0 -0.3180295,-1.324095 0.6577588,-3.942008 -0.5261257,-4.400248 -0.7783107,0.862578 0.2643845,3.546162 -0.5224189,4.400248 -0.4432292,1.135373 -0.4912245,2.66598 -2.5840005,2.151807 -1.3732702,-0.515486 0.025894,-3.570545 -0.7118925,-4.958354 -0.348039,-3.189355 -3.6517336,-3.259568 -6.1064446,-3.076814 -2.783729,-0.845957 0.856428,-4.301504 2.205705,-5.387639 3.0018298,-2.762025 -1.034695,-7.65568 3.2067238,-8.452892 0.1696343,-1.355374 -2.0979138,-0.642673 -2.4101888,-1.896521 -0.88806,-2.928859 -1.725008,-6.318369 -4.776781,-7.740843 -1.40404,-0.83307 -3.045207,-1.255853 -4.677938,-1.195018 z M 20.43102,99.518358 c 4.72e-4,-0.344915 -0.001,-1.471968 0,0 z M -7.6990457,91.04394 c 2.7899993,-1.090712 1.1030531,4.370993 0,0 z m 10.9233642,3.652491 c 2.6745343,0.06545 5.9648676,-0.128661 8.2723255,0.09301 -0.03484,1.643456 -2.2868939,2.222729 -3.2838568,3.4044 -4.1301466,3.218359 -8.12771529,6.702499 -12.3406576,9.754879 -1.2098066,-0.0348 -3.7576841,1.65233 -4.1174332,0.52355 -0.6938327,-0.92687 -0.3123647,-2.92904 -0.40566,-4.45645 0,-1.61439 0,-3.22879 0,-4.843184 4.2420688,1.311854 11.0379703,3.596994 13.5545852,-0.789165 0.5125785,-1.665805 -1.1183957,-2.622018 -1.6793031,-3.68704 z m 10.0670855,0 c 1.897854,-0.128957 1.881623,0.298131 0,0 z m 1.647962,0 c 1.648388,-0.146942 1.104079,0.38645 0,0 z m -1.042831,1.120345 c 0.8477,-0.297229 1.290454,0.590389 0,0 z m 1.042831,0 c 0.845903,-0.255551 -0.04962,0.517888 0,0 z m -2.384351,1.486731 c 3.203976,0.02157 1.141475,1.26568 0,0 z m -0.233577,0.157613 c 0.08856,0.624262 -0.748378,0.227235 0,0 z m -0.435116,0.348816 c 0.08297,0.122225 -0.236232,0.05505 0,0 z m 0.668693,0.980818 c 2.460554,-0.34668 2.533329,0.766068 0.04627,0.458887 -0.211857,0.04347 0.07894,-0.415709 -0.04627,-0.458887 z m 2.384351,0.26355 c 0.399266,0.248995 -0.265212,0.286448 0,0 z m -2.384351,1.223186 c 2.460727,-0.34707 2.533392,0.76688 0.04627,0.4594 -0.212004,0.0434 0.07884,-0.41595 -0.04627,-0.4594 z m 2.384351,0 c 1.748898,0.01 -0.123888,1.25705 0,0 z m 1.098124,1.39268 c 1.02811,1.75286 -2.716671,-0.17083 0,1e-4 z m -3.482475,0.094 c 2.460727,-0.34707 2.533392,0.76688 0.04627,0.4594 -0.212004,0.0435 0.07884,-0.41595 -0.04627,-0.4594 z m 0,1.48724 c 2.460555,-0.34668 2.533329,0.76607 0.04627,0.45889 -0.211858,0.0435 0.07894,-0.41571 -0.04627,-0.45889 z m 0,1.48673 c 2.46073,-0.34708 2.533394,0.7669 0.04627,0.45941 -0.212008,0.0434 0.07885,-0.41597 -0.04627,-0.45941 z m 0,1.48674 c 2.460727,-0.34707 2.533392,0.76688 0.04627,0.4594 -0.212004,0.0434 0.07884,-0.41595 -0.04627,-0.4594 z m 0,1.48724 c 2.460555,-0.34668 2.533329,0.76607 0.04627,0.45889 -0.211858,0.0435 0.07894,-0.41571 -0.04627,-0.45889 z m 0,1.48673 c 2.46073,-0.34708 2.533394,0.7669 0.04627,0.45941 -0.212008,0.0435 0.07885,-0.41597 -0.04627,-0.45941 z m 0,1.48674 c 2.460727,-0.34707 2.533392,0.76688 0.04627,0.4594 -0.212004,0.0434 0.07884,-0.41595 -0.04627,-0.4594 z" /></g><g
     inkscape:label="real"
     inkscape:groupmode="layer"
     id="g11647"
     transform="translate(52.032257,-47.322578)"><g
       id="g11397"
       inkscape:label="solder"
       transform="matrix(0.78796134,0,0,0.78796134,6.4283155,-75.66914)"><g
         id="g11395"
         transform="matrix(1.634605,0,0,1.634605,498.49403,-233.60947)"><g
           id="g11371"
           transform="matrix(0.73876948,0,0,0.73876948,6.8549554,66.406088)"><g
             id="g11297"
             transform="matrix(1.7178536,0,0,1.7178536,50.343015,-71.12008)"
             style="display:inline;fill:#213b10;fill-opacity:1"><rect
               style="fill:#213b10;fill-opacity:1;stroke:none;stroke-width:2.44707;stroke-opacity:1"
               id="rect11291"
               width="3.6999676"
               height="3.8521254"
               x="-288.83368"
               y="208.87782" /><rect
               style="fill:#15260a;fill-opacity:1;stroke:none;stroke-width:2.44706;stroke-opacity:1"
               id="rect11293"
               width="4.2341571"
               height="2.1170633"
               x="-289.10077"
               y="208.19127" /><circle
               style="fill:#213b10;fill-opacity:1;stroke:none;stroke-width:1.5015;stroke-opacity:1"
               id="circle11295"
               cx="-286.9837"
               cy="209.58412"
               r="0.3058843" /></g><g
             id="g11303"
             inkscape:label="head"
             transform="matrix(0.84638772,0,0,0.84638772,-482.36343,221.19325)"
             style="display:inline"><rect
               style="opacity:1;fill:#ffcc00;fill-opacity:1;stroke:none;stroke-width:2.63388;stroke-linecap:square"
               id="rect11299"
               width="9.9690962"
               height="9.1902609"
               x="33.650558"
               y="50.377213" /><circle
               style="opacity:1;fill:#ffcc00;fill-opacity:1;stroke:none;stroke-width:3.14848;stroke-linecap:square"
               id="circle11301"
               cx="38.635105"
               cy="42.37645"
               r="10.613407" /></g><g
             id="g11309"
             transform="matrix(1.192562,0.43405706,-0.43405706,1.192562,92.980431,242.35289)"
             style="display:inline"><path
               style="color:#000000;fill:#213b10;stroke-linecap:round;stroke-linejoin:round"
               d="m -387.49664,163.34069 c -1.38071,0 -2.5,1.11929 -2.5,2.5 0,5.63597 4.46293,8.7616 8.66513,10.41799 1.97452,0.7783 6.11437,-0.81177 6.31661,-0.80047 1.37854,0.0766 2.55815,-0.97888 2.63477,-2.35742 0.0766,-1.37782 -0.97771,-2.55712 -2.35547,-2.63477 -0.18237,-0.0102 -4.78932,1.34293 -4.96646,1.31833 -3.05717,-0.42441 -5.29458,-2.93906 -5.29458,-5.94368 0,-1.38071 -1.11929,-2.5 -2.5,-2.5 z"
               id="path11305"
               sodipodi:nodetypes="ssacscssss" /><circle
               style="fill:#ffcc00;fill-opacity:1;stroke:none;stroke-width:10.9186;stroke-linecap:round;stroke-linejoin:round;stroke-dasharray:none;stroke-opacity:1"
               id="circle11307"
               cx="-373.3396"
               cy="172.46237"
               r="2.731034" /></g><g
             id="g11313"
             inkscape:label="torso"
             transform="matrix(0.84638772,0,0,0.84638772,-482.36343,221.19325)"
             style="display:inline;fill:#2d5016;fill-opacity:1"><rect
               style="opacity:1;fill:#2d5016;fill-opacity:1;stroke:none;stroke-width:2.80559;stroke-linecap:square"
               id="rect11311"
               width="27.737171"
               height="40.499451"
               x="24.766521"
               y="54.972347"
               rx="3.8697224"
               ry="5.650239" /></g><path
             style="display:inline;fill:none;stroke:#213b10;stroke-width:0.282249px;stroke-linecap:butt;stroke-linejoin:miter;stroke-opacity:1"
             d="m -449.36575,273.92755 -1.0094,1.0444 v 22.10973"
             id="path11315" /><path
             style="display:inline;fill:#0000ff;fill-opacity:1;stroke:none;stroke-width:6.34548;stroke-linecap:round;stroke-linejoin:round;stroke-dasharray:none;stroke-opacity:1"
             id="path11317"
             sodipodi:type="arc"
             sodipodi:cx="-407.36176"
             sodipodi:cy="287.67221"
             sodipodi:rx="0.00033920779"
             sodipodi:ry="0.74912125"
             sodipodi:start="3.1602834"
             sodipodi:end="3.1415927"
             sodipodi:arc-type="slice"
             d="m -407.36209,287.65821 a 3.3920779e-4,0.74912125 0 0 1 3.4e-4,-0.73505 3.3920779e-4,0.74912125 0 0 1 3.3e-4,0.75605 3.3920779e-4,0.74912125 0 0 1 -3.4e-4,0.74211 3.3920779e-4,0.74912125 0 0 1 -3.3e-4,-0.74911 h 3.3e-4 z" /><g
             id="g11327"
             transform="matrix(1.7178536,0,0,1.7178536,45.258535,-50.16002)"
             style="display:inline"><circle
               style="fill:#15260a;fill-opacity:1;stroke:none;stroke-width:4.52439;stroke-opacity:1"
               id="circle11319"
               cx="-287.7804"
               cy="190.02937"
               r="0.6117686" /><circle
               style="display:inline;fill:#15260a;fill-opacity:1;stroke:none;stroke-width:4.52439;stroke-opacity:1"
               id="circle11321"
               cx="-287.7804"
               cy="200.79353"
               r="0.6117686" /><circle
               style="display:inline;fill:#15260a;fill-opacity:1;stroke:none;stroke-width:4.52439;stroke-opacity:1"
               id="circle11323"
               cx="-287.7804"
               cy="197.20547"
               r="0.6117686" /><circle
               style="display:inline;fill:#15260a;fill-opacity:1;stroke:none;stroke-width:4.52439;stroke-opacity:1"
               id="circle11325"
               cx="-287.7804"
               cy="193.61743"
               r="0.6117686" /></g><g
             id="g11333"
             transform="matrix(1.2690979,0,0,1.2690979,33.542555,60.425881)"
             style="display:inline"><path
               style="color:#000000;fill:#213b10;stroke-linecap:round;stroke-linejoin:round"
               d="m -387.49664,163.34069 c -1.38071,0 -2.5,1.11929 -2.5,2.5 0,5.63597 4.367,10.3251 9.95234,10.93835 0.19928,0.0219 5.10103,0.0386 5.30327,0.0499 1.37854,0.0766 2.55815,-0.97888 2.63477,-2.35742 0.0766,-1.37782 -0.97771,-2.55712 -2.35547,-2.63477 -0.18237,-0.0102 -5.06319,-0.0278 -5.24033,-0.0524 -3.05717,-0.42441 -5.29458,-2.93906 -5.29458,-5.94368 0,-1.38071 -1.11929,-2.5 -2.5,-2.5 z"
               id="path11329"
               sodipodi:nodetypes="ssscscssss" /><circle
               style="fill:#ffcc00;fill-opacity:1;stroke:none;stroke-width:10.9186;stroke-linecap:round;stroke-linejoin:round;stroke-dasharray:none;stroke-opacity:1"
               id="circle11331"
               cx="-372.5882"
               cy="174.02548"
               r="2.731034" /></g><path
             style="display:inline;fill:#0000ff;fill-opacity:1;stroke:none;stroke-width:6.34548;stroke-linecap:round;stroke-linejoin:round;stroke-dasharray:none;stroke-opacity:1"
             id="path11335"
             sodipodi:type="arc"
             sodipodi:cx="-426.40955"
             sodipodi:cy="287.67221"
             sodipodi:rx="0.00033920779"
             sodipodi:ry="0.74912125"
             sodipodi:start="3.1602834"
             sodipodi:end="3.1415927"
             sodipodi:arc-type="slice"
             d="m -426.40989,287.65821 a 3.3920779e-4,0.74912125 0 0 1 3.5e-4,-0.73505 3.3920779e-4,0.74912125 0 0 1 3.3e-4,0.75605 3.3920779e-4,0.74912125 0 0 1 -3.4e-4,0.74211 3.3920779e-4,0.74912125 0 0 1 -3.4e-4,-0.74911 h 3.4e-4 z" /><g
             id="g11345"
             transform="matrix(4.3534423,0,0,4.3534423,902.55125,-410.34201)"
             style="display:inline"><g
               id="g11343"
               transform="rotate(-15,-296.67543,156.12401)"><g
                 id="g11341"
                 transform="matrix(0.15143643,0,0,0.15143643,-256.96971,120.79863)"><path
                   style="display:inline;fill:#2d5016;fill-opacity:1;stroke:#000000;stroke-width:0.0638707px;stroke-linecap:butt;stroke-linejoin:miter;stroke-opacity:1"
                   d="m -331.98374,182.99228 0.11014,2.43776 0.0664,0.69511 0.1035,0.43627 0.0741,0.16498 0.26041,0.39232 0.3825,0.39814 0.38392,0.31253 0.4966,0.35346 0.60094,0.36531 0.53218,0.26083 0.12196,0.0865 0.0604,0.0753 0.074,0.16497 0.0245,0.18934 -0.0147,0.19497 -0.16582,0.4985 -0.21166,0.22819 -0.32567,0.19226 -0.53363,0.12579 -1.17669,0.018 -1.45612,-0.1429 -1.7118,-0.29203 -1.95379,-0.43213 -3.42172,-0.77171 -3.92621,-0.95527 -1.30572,-0.32298 -0.91498,-0.11616 -1.2314,-0.0988 -1.96404,0.0274 -2.04878,0.12298 -2.42818,0.21483 -2.28067,0.20598 -1.09313,0.0673 -2.5019,0.32947 -0.68973,0.0463 -0.43546,-0.0199 -0.32037,-0.0482 -0.42765,-0.10922 -0.247,-0.14145 -0.15404,-0.12727 -0.21879,-0.24677 -0.15546,-0.34269 -0.0775,-0.33255 0.12633,-0.47145 0.1475,-0.30989 0.27794,-0.27494 0.50911,-0.31513 0.65393,-0.31395 0.3103,-2.72289 0.227,-1.58947 0.3636,-1.69801 0.38559,-1.35883 0.49128,-1.35201 0.47828,-1.10284 0.51793,-0.99009 0.86928,-1.35823 0.96299,-1.16648 0.81341,-0.80879 0.73957,-0.61353 0.70232,-0.49451 0.61819,-0.36116 0.79152,-0.4061 c 0,0 1.12639,-0.47227 1.15415,-0.47558 0.0278,-0.003 1.1898,-0.34776 1.1898,-0.34776 l 1.08562,-0.21978 0.9544,-0.13132 1.29384,-0.0941 1.29976,0.004 1.3996,0.13312 1.06667,0.23206 1.24983,0.35101 0.89768,0.32117 1.32208,0.62302 0.69418,0.43866 1.11221,0.74421 1.0986,0.95556 0.90764,0.9259 0.93683,1.13798 0.79496,1.18598 0.61968,1.19814 0.44951,1.13106 0.27073,1.27666 0.16826,1.37823 0.11414,1.60024 z"
                   id="path11337" /><path
                   style="display:inline;opacity:0.5;fill:#6e6e6e;fill-opacity:1;stroke:none;stroke-width:0.063871px;stroke-linecap:butt;stroke-linejoin:miter;stroke-opacity:1"
                   d="m -334.56127,176.62736 c 0,0 -1.79596,-3.8985 -3.436,-5.15205 -1.84762,-1.41221 -4.29778,-2.03601 -6.61664,-2.21187 -2.60502,-0.19756 -7.72292,1.33542 -7.72292,1.33542 0,0 5.74147,-0.22074 8.5071,0.42131 1.68,0.39001 3.27012,1.16443 4.75193,2.04693 1.64703,0.98094 4.51653,3.56026 4.51653,3.56026 z"
                   id="path11339"
                   sodipodi:nodetypes="caacaac" /></g></g></g><path
             style="display:inline;fill:#213b10;fill-opacity:1;stroke:none;stroke-width:0.389159px;stroke-linecap:butt;stroke-linejoin:miter;stroke-opacity:1"
             d="m -447.70216,267.72117 -1.66249,6.20451 4.61665,-1.23704 z"
             id="path11347" /><path
             style="display:inline;fill:#213b10;fill-opacity:1;stroke:none;stroke-width:0.389159px;stroke-linecap:butt;stroke-linejoin:miter;stroke-opacity:1"
             d="m -451.02714,267.72117 1.66249,6.20451 -4.61664,-1.23704 z"
             id="path11349" /><g
             id="g11357"
             transform="matrix(1.7178536,0,0,1.7178536,37.436815,-71.12009)"
             style="display:inline;fill:#213b10;fill-opacity:1"><rect
               style="fill:#213b10;fill-opacity:1;stroke:none;stroke-width:2.44707;stroke-opacity:1"
               id="rect11351"
               width="3.6999676"
               height="3.8521254"
               x="-288.83368"
               y="208.87782" /><rect
               style="fill:#15260a;fill-opacity:1;stroke:none;stroke-width:2.44706;stroke-opacity:1"
               id="rect11353"
               width="4.2341571"
               height="2.1170633"
               x="-289.10077"
               y="208.19127" /><circle
               style="fill:#213b10;fill-opacity:1;stroke:none;stroke-width:1.5015;stroke-opacity:1"
               id="circle11355"
               cx="-286.9837"
               cy="209.58412"
               r="0.3058843" /></g><g
             id="g11365"
             transform="matrix(1.7178536,0,0,1.7178536,49.786895,-71.12008)"
             style="display:inline;fill:#213b10;fill-opacity:1"><rect
               style="fill:#213b10;fill-opacity:1;stroke:none;stroke-width:2.44707;stroke-opacity:1"
               id="rect11359"
               width="3.6999676"
               height="3.8521254"
               x="-288.83368"
               y="208.87782" /><rect
               style="fill:#15260a;fill-opacity:1;stroke:none;stroke-width:2.44706;stroke-opacity:1"
               id="rect11361"
               width="4.2341571"
               height="2.1170633"
               x="-289.10077"
               y="208.19127" /><circle
               style="fill:#213b10;fill-opacity:1;stroke:none;stroke-width:1.5015;stroke-opacity:1"
               id="circle11363"
               cx="-286.9837"
               cy="209.58412"
               r="0.3058843" /></g><rect
             style="display:inline;fill:#15260a;fill-opacity:1;stroke:none;stroke-width:4.20371;stroke-opacity:1"
             id="rect11367"
             width="24.329691"
             height="1.4311583"
             x="-461.82797"
             y="296.54544" /><path
             sodipodi:type="star"
             style="display:inline;fill:#ffcc00;fill-opacity:1;stroke:none;stroke-width:2.44707;stroke-opacity:1"
             id="path11369"
             inkscape:flatsided="false"
             sodipodi:sides="3"
             sodipodi:cx="-75.091019"
             sodipodi:cy="88.211571"
             sodipodi:r1="24.985388"
             sodipodi:r2="12.492694"
             sodipodi:arg1="1.5707963"
             sodipodi:arg2="2.6179939"
             inkscape:rounded="0"
             inkscape:randomized="0"
             d="M -75.091018,113.19696 -85.910009,94.457917 -96.729,75.718877 l 21.637982,0 21.63798,-1e-6 -10.818991,18.739042 z"
             transform="matrix(0.17378649,0,0,0.27805827,-436.31484,242.45032)"
             inkscape:transform-center-x="-4.4556389e-06"
             inkscape:transform-center-y="1.2119698" /></g><g
           id="g11393"
           transform="matrix(0.54685186,0,0,0.54685186,-437.85251,243.77947)"
           inkscape:label="pants"
           style="display:inline;fill:#34372b;fill-opacity:1"><g
             id="g11391"
             transform="translate(55.608185,-4.9363976)"><g
               id="g11381"
               style="display:inline;fill:#1a1a1a;fill-opacity:1"
               transform="matrix(-0.99999998,0,0,0.99999998,246.39554,-10.80315)"
               inkscape:label="shoes"><rect
                 style="display:inline;opacity:1;fill:#1a1a1a;fill-opacity:1;stroke:none;stroke-width:7.17952;stroke-linecap:square;stroke-linejoin:round;stroke-dasharray:none;stroke-opacity:1"
                 id="rect11373"
                 width="8.2692204"
                 height="13.765817"
                 x="-92.185143"
                 y="149.72321"
                 transform="rotate(-75)" /><rect
                 style="display:inline;opacity:1;fill:#1a1a1a;fill-opacity:1;stroke:none;stroke-width:10.2762;stroke-linecap:square;stroke-linejoin:round;stroke-dasharray:none;stroke-opacity:1"
                 id="rect11375"
                 width="19.448647"
                 height="7.277873"
                 x="-101.90948"
                 y="158.62019"
                 rx="2.836376"
                 ry="2.7431908"
                 transform="rotate(-75)" /><rect
                 style="display:inline;opacity:1;fill:#1a1a1a;fill-opacity:1;stroke:none;stroke-width:7.17952;stroke-linecap:square;stroke-linejoin:round;stroke-dasharray:none;stroke-opacity:1"
                 id="rect11377"
                 width="8.2692204"
                 height="13.765817"
                 x="-76.118866"
                 y="125.26877"
                 transform="scale(-1,1)" /><rect
                 style="display:inline;opacity:1;fill:#1a1a1a;fill-opacity:1;stroke:none;stroke-width:10.2762;stroke-linecap:square;stroke-linejoin:round;stroke-dasharray:none;stroke-opacity:1"
                 id="rect11379"
                 width="19.448647"
                 height="7.277873"
                 x="59.216908"
                 y="134.16576"
                 rx="2.836376"
                 ry="2.7431908" /></g><rect
               style="opacity:1;fill:#2d5016;fill-opacity:1;stroke:none;stroke-width:7.12338;stroke-linecap:square;stroke-linejoin:round;stroke-dasharray:none;stroke-opacity:1"
               id="rect11383"
               width="31.592743"
               height="10.8081"
               x="134.39816"
               y="83.16481" /><path
               id="path11385"
               style="opacity:1;fill:#2d5016;fill-opacity:1;stroke-width:2.67632;stroke-linecap:square"
               d="m 138.27762,87.299241 7.36474,5.081477 c 1.25087,0.86307 3.27213,0.142117 2.81732,1.592192 0,0 -1.81509,9.58195 -3.00172,12.92343 -0.99809,2.81055 -3.04948,5.3724 -5.52204,7.04027 -4.8265,3.25573 -16.77971,4.84715 -16.77971,4.84715 -1.46002,0.42176 -3.39006,1.43878 -3.87946,0 l -2.72389,-8.00796 c -0.4894,-1.43878 -1.45491,-3.44037 0,-3.87946 0,0 15.36857,0.54626 17.05604,-5.14758 1.04758,-3.534724 0.78926,-14.449519 0.78926,-14.449519 0.0829,-1.517467 2.62859,-0.863071 3.87946,0 z"
               sodipodi:nodetypes="sssssssssscs" /><path
               id="path11387"
               style="opacity:1;fill:#2d5016;fill-opacity:1;stroke-width:2.67632;stroke-linecap:square"
               d="m 155.93253,83.164807 h 7.31518 c 1.51973,0 2.25315,0.210708 2.74319,0.681116 0,0 7.49689,4.643729 9.62626,8.308765 4.51388,7.769224 5.1949,26.450652 5.1949,26.450652 0.0493,1.51893 -1.22346,2.74319 -2.74319,2.74319 h -7.31517 c -1.51973,0 -2.69346,-1.22427 -2.74319,-2.74319 0,0 -0.75185,-9.78919 -1.44319,-13.22935 -0.81493,-4.05515 -3.12475,-7.604252 -6.25386,-9.143226 -3.19272,-1.570257 -12.58408,-1.023731 -12.58408,-1.023731 -1.39949,-0.592448 6.68344,-12.044226 8.20316,-12.044226 z"
               sodipodi:nodetypes="sssasssssssss" /></g></g></g></g><g
       id="g11645"
       transform="translate(-14.2875,12.668681)"
       inkscape:label="gun"
       style="display:inline"><g
         id="g11413"
         inkscape:label="tripod"
         transform="matrix(1.1447331,0,0,1.1447331,12.408125,-40.725273)"
         style="display:inline"><path
           style="fill:#666666;fill-opacity:1;stroke:none;stroke-width:0.264583px;stroke-linecap:butt;stroke-linejoin:miter;stroke-opacity:1"
           d="m -6.5550275,119.97973 0.630074,3.24596 0.172847,0.98026 -1.430192,0.9611 v 2.00728 l 6.649085,0.9409 1.003636,-3.07363 -2.383634,-0.83565 1.75636,-3.30435 0.125454,-0.92187 1.81909,-0.33267 -0.313637,-1.71381 z"
           id="path11399"
           sodipodi:nodetypes="ccccccccccccc" /><path
           id="path11401"
           style="fill:#808080;stroke-width:1.52527;stroke-linecap:round"
           transform="rotate(-10)"
           d="m -27.232855,119.32936 21.5009214,-11.78184 v 1.99077 l -21.5009214,11.78184 z"
           sodipodi:nodetypes="ccccc" /><ellipse
           style="fill:#333333;fill-opacity:1;stroke:none;stroke-width:2;stroke-linecap:round;stroke-dasharray:none;stroke-opacity:1"
           id="ellipse11403"
           cx="23.000463"
           cy="117.0588"
           rx="3.3044355"
           ry="1.3084677" /><path
           id="path11405"
           style="fill:#4d4d4d;stroke-width:2;stroke-linecap:round"
           transform="rotate(-40)"
           d="m -58.489491,92.791267 h 1.729839 v 11.665393 c 0,0 -0.599149,0.1002 -0.871998,0 -0.247261,-0.0908 -0.602407,-0.51143 -0.602407,-0.51143 z"
           sodipodi:nodetypes="cccscc" /><ellipse
           style="fill:#666666;fill-opacity:1;stroke:none;stroke-width:2;stroke-linecap:round;stroke-dasharray:none;stroke-opacity:1"
           id="ellipse11407"
           cx="23.685057"
           cy="130.21971"
           rx="3.2931788"
           ry="0.98116374" /><path
           id="path11409"
           style="fill:#808080;stroke-width:2.48329;stroke-linecap:round"
           transform="matrix(0.95367517,-0.30083827,0.38719446,0.92199807,0,0)"
           d="m -29.572987,108.96846 h 1.737565 v 22.90209 c 0,0 -0.552968,0.35659 -0.851635,0.36277 -0.329787,0.007 -0.88593,-0.36277 -0.88593,-0.36277 z"
           sodipodi:nodetypes="cccscc" /><ellipse
           style="fill:none;fill-opacity:1;stroke:#666666;stroke-width:1.51335;stroke-linecap:round;stroke-dasharray:none;stroke-opacity:1"
           id="ellipse11411"
           cx="14.428315"
           cy="107.24242"
           rx="1.932268"
           ry="1.9122119" /></g><g
         id="g11443"
         inkscape:label="receiver"
         style="display:inline"><rect
           style="fill:#808080;fill-opacity:1;stroke:none;stroke-width:3.3834;stroke-linecap:round;stroke-opacity:1"
           id="rect11415"
           width="24.415071"
           height="7.0158253"
           x="8.0232048"
           y="75.011703" /><g
           id="g11421"><rect
             style="fill:#666666;fill-opacity:1;stroke:none;stroke-width:4;stroke-linecap:round;stroke-opacity:1"
             id="rect11417"
             width="10.196332"
             height="2.8024716"
             x="21.914539"
             y="75.572968" /><rect
             style="fill:#4d4d4d;fill-opacity:1;stroke:none;stroke-width:3.06538;stroke-linecap:round;stroke-opacity:1"
             id="rect11419"
             width="7.8139124"
             height="2.1476612"
             x="23.105749"
             y="75.900375" /></g><path
           style="fill:#333333;stroke:none;stroke-width:0.264583px;stroke-linecap:butt;stroke-linejoin:miter;stroke-opacity:1"
           d="m 5.6144393,78.375443 c 0,0 -1.286057,0.961686 -1.5668678,1.672005 -0.3075029,0.777838 0.062693,1.675183 0,2.509245 -0.046904,0.624009 0.010467,1.302275 -0.280633,1.856213 -0.1590625,0.302682 -0.4303832,0.575842 -0.7483554,0.701583 -0.5219376,0.206399 -1.1717884,0.229926 -1.6837977,0 C 0.9922625,84.960674 0.73718354,84.616471 0.58642996,84.27259 0.39770237,83.842087 0.37805373,83.334526 0.44611348,82.869425 0.52918475,82.301739 0.83820472,81.7877 1.1009255,81.277655 c 0.362292,-0.703352 0.8275819,-1.349005 1.2628483,-2.009688 0.271818,-0.412588 0.8418988,-1.21993 0.8418988,-1.21993 l 2.4087667,-0.01953 z"
           id="path11423"
           sodipodi:nodetypes="csssssssssccc" /><path
           style="fill:none;stroke:#4d4d4d;stroke-width:0.5;stroke-linecap:butt;stroke-linejoin:miter;stroke-dasharray:none;stroke-opacity:1"
           d="m 4.5781156,81.277655 c 0,0 0.2607944,-0.656422 0.5378793,-0.840383 0.1911154,-0.126884 0.4545649,-0.168056 0.6781959,-0.11693 0.196115,0.04484 0.3550436,0.202609 0.491109,0.35079 0.1589575,0.173111 0.3595026,0.606525 0.3595026,0.606525 h 1.6984715"
           id="path11425"
           sodipodi:nodetypes="cssscc" /><rect
           style="fill:#666666;fill-opacity:1;stroke:none;stroke-width:4.24489;stroke-linecap:round;stroke-opacity:1"
           id="rect11427"
           width="10.017822"
           height="2.5580738"
           x="7.4940381"
           y="79.998619" /><rect
           style="fill:#4d4d4d;fill-opacity:1;stroke:none;stroke-width:0.499999;stroke-linecap:round;stroke-dasharray:none;stroke-opacity:1"
           id="rect11429"
           width="7.4367743"
           height="2.4750638"
           x="1.8960519"
           y="75.900375" /><rect
           style="fill:#333333;fill-opacity:1;stroke:none;stroke-width:0.331577;stroke-linecap:round;stroke-dasharray:none;stroke-opacity:1"
           id="rect11431"
           width="10.897913"
           height="0.54520726"
           x="10.391161"
           y="76.701599" /><ellipse
           style="fill:#4d4d4d;fill-opacity:1;stroke:none;stroke-width:0.499999;stroke-linecap:round;stroke-dasharray:none;stroke-opacity:1"
           id="ellipse11433"
           cx="10.905503"
           cy="76.974205"
           rx="1.0914062"
           ry="1.0640658" /><rect
           style="fill:#4d4d4d;fill-opacity:1;stroke:none;stroke-width:0.499999;stroke-linecap:round;stroke-dasharray:none;stroke-opacity:1"
           id="rect11435"
           width="0.78528947"
           height="5.265727"
           x="9.0288086"
           y="69.348412" /><rect
           style="fill:#4d4d4d;fill-opacity:1;stroke:none;stroke-width:0.499999;stroke-linecap:round;stroke-dasharray:none;stroke-opacity:1"
           id="rect11437"
           width="9.728611"
           height="1.5434815"
           x="8.5377007"
           y="73.748848" /><rect
           style="fill:#4d4d4d;fill-opacity:1;stroke:none;stroke-width:0.499999;stroke-linecap:round;stroke-dasharray:none;stroke-opacity:1"
           id="rect11439"
           width="1.0914062"
           height="1.2628555"
           x="23.671648"
           y="73.748848" /><rect
           style="fill:#4d4d4d;fill-opacity:1;stroke:none;stroke-width:0.499999;stroke-linecap:round;stroke-dasharray:none;stroke-opacity:1"
           id="rect11441"
           width="0.62608141"
           height="5.1757059"
           x="32.438271"
           y="71.981277" /></g><g
         id="g11637"
         inkscape:label="belt"
         transform="matrix(1.1447331,0,0,1.1447331,18.736252,-33.025449)"
         style="display:inline"><g
           id="g11455"
           inkscape:label="bullet"
           transform="matrix(0.44384764,0,0,0.44384764,7.0955674,80.340504)"><path
             id="path11445"
             style="fill:#999999;stroke-width:3.02671;stroke-linecap:round"
             d="m 4.2008793,77.993578 c 0,0 1.7794334,-0.224072 2.6253916,0 0.5343825,0.141544 1.4409826,0.820953 1.4409826,0.820953 0,0 -0.9055183,0.686604 -1.4409826,0.829753 -0.8454406,0.226017 -2.6253916,0 -2.6253916,0 z"
             sodipodi:nodetypes="cscscc" /><path
             id="path11447"
             style="fill:#a28100;fill-opacity:1;stroke:none;stroke-width:2;stroke-linecap:round;stroke-dasharray:none;stroke-opacity:1"
             d="m -2.1148905,77.808056 v 2.022615 h 0.3896403 v -0.211873 h 0.3767212 v 0.211873 H 5.7037537 V 77.808056 H -1.348529 v 0.211356 h -0.3767212 v -0.211356 z" /><rect
             style="fill:#4d4d4d;fill-opacity:1;stroke:none;stroke-width:1.7924;stroke-linecap:round;stroke-dasharray:none;stroke-opacity:1"
             id="rect11449"
             width="0.45967487"
             height="3.4556017"
             x="-0.49193624"
             y="76.822617" /><rect
             style="fill:#4d4d4d;fill-opacity:1;stroke:none;stroke-width:1.7924;stroke-linecap:round;stroke-dasharray:none;stroke-opacity:1"
             id="rect11451"
             width="0.45967487"
             height="3.4556017"
             x="4.2010722"
             y="76.822617" /><path
             id="path11453"
             style="fill:#4d4d4d;fill-opacity:1;stroke:none;stroke-width:1.95278;stroke-linecap:round;stroke-dasharray:none;stroke-opacity:1"
             d="m -0.49193624,77.932079 v 1.774569 H 4.6454203 V 77.932079 Z M 2.0767421,78.34239 A 2.0178955,0.47681451 0 0 1 4.0946374,78.819364 2.0178955,0.47681451 0 0 1 2.0767421,79.296337 2.0178955,0.47681451 0 0 1 0.05884673,78.819364 2.0178955,0.47681451 0 0 1 2.0767421,78.34239 Z" /></g><g
           id="g11467"
           inkscape:label="bullet"
           transform="matrix(0.44384764,0,0,0.44384764,7.0955674,79.04161)"><path
             id="path11457"
             style="fill:#999999;stroke-width:3.02671;stroke-linecap:round"
             d="m 4.2008793,77.993578 c 0,0 1.7794334,-0.224072 2.6253916,0 0.5343825,0.141544 1.4409826,0.820953 1.4409826,0.820953 0,0 -0.9055183,0.686604 -1.4409826,0.829753 -0.8454406,0.226017 -2.6253916,0 -2.6253916,0 z"
             sodipodi:nodetypes="cscscc" /><path
             id="path11459"
             style="fill:#a28100;fill-opacity:1;stroke:none;stroke-width:2;stroke-linecap:round;stroke-dasharray:none;stroke-opacity:1"
             d="m -2.1148905,77.808056 v 2.022615 h 0.3896403 v -0.211873 h 0.3767212 v 0.211873 H 5.7037537 V 77.808056 H -1.348529 v 0.211356 h -0.3767212 v -0.211356 z" /><rect
             style="fill:#4d4d4d;fill-opacity:1;stroke:none;stroke-width:1.7924;stroke-linecap:round;stroke-dasharray:none;stroke-opacity:1"
             id="rect11461"
             width="0.45967487"
             height="3.4556017"
             x="-0.49193624"
             y="76.822617" /><rect
             style="fill:#4d4d4d;fill-opacity:1;stroke:none;stroke-width:1.7924;stroke-linecap:round;stroke-dasharray:none;stroke-opacity:1"
             id="rect11463"
             width="0.45967487"
             height="3.4556017"
             x="4.2010722"
             y="76.822617" /><path
             id="path11465"
             style="fill:#4d4d4d;fill-opacity:1;stroke:none;stroke-width:1.95278;stroke-linecap:round;stroke-dasharray:none;stroke-opacity:1"
             d="m -0.49193624,77.932079 v 1.774569 H 4.6454203 V 77.932079 Z M 2.0767421,78.34239 A 2.0178955,0.47681451 0 0 1 4.0946374,78.819364 2.0178955,0.47681451 0 0 1 2.0767421,79.296337 2.0178955,0.47681451 0 0 1 0.05884673,78.819364 2.0178955,0.47681451 0 0 1 2.0767421,78.34239 Z" /></g><g
           id="g11479"
           inkscape:label="bullet"
           transform="matrix(0.44384764,0,0,0.44384764,7.0955674,77.742718)"><path
             id="path11469"
             style="fill:#999999;stroke-width:3.02671;stroke-linecap:round"
             d="m 4.2008793,77.993578 c 0,0 1.7794334,-0.224072 2.6253916,0 0.5343825,0.141544 1.4409826,0.820953 1.4409826,0.820953 0,0 -0.9055183,0.686604 -1.4409826,0.829753 -0.8454406,0.226017 -2.6253916,0 -2.6253916,0 z"
             sodipodi:nodetypes="cscscc" /><path
             id="path11471"
             style="fill:#a28100;fill-opacity:1;stroke:none;stroke-width:2;stroke-linecap:round;stroke-dasharray:none;stroke-opacity:1"
             d="m -2.1148905,77.808056 v 2.022615 h 0.3896403 v -0.211873 h 0.3767212 v 0.211873 H 5.7037537 V 77.808056 H -1.348529 v 0.211356 h -0.3767212 v -0.211356 z" /><rect
             style="fill:#4d4d4d;fill-opacity:1;stroke:none;stroke-width:1.7924;stroke-linecap:round;stroke-dasharray:none;stroke-opacity:1"
             id="rect11473"
             width="0.45967487"
             height="3.4556017"
             x="-0.49193624"
             y="76.822617" /><rect
             style="fill:#4d4d4d;fill-opacity:1;stroke:none;stroke-width:1.7924;stroke-linecap:round;stroke-dasharray:none;stroke-opacity:1"
             id="rect11475"
             width="0.45967487"
             height="3.4556017"
             x="4.2010722"
             y="76.822617" /><path
             id="path11477"
             style="fill:#4d4d4d;fill-opacity:1;stroke:none;stroke-width:1.95278;stroke-linecap:round;stroke-dasharray:none;stroke-opacity:1"
             d="m -0.49193624,77.932079 v 1.774569 H 4.6454203 V 77.932079 Z M 2.0767421,78.34239 A 2.0178955,0.47681451 0 0 1 4.0946374,78.819364 2.0178955,0.47681451 0 0 1 2.0767421,79.296337 2.0178955,0.47681451 0 0 1 0.05884673,78.819364 2.0178955,0.47681451 0 0 1 2.0767421,78.34239 Z" /></g><g
           id="g11491"
           inkscape:label="bullet"
           transform="matrix(0.44384764,0,0,0.44384764,7.0955674,76.443825)"><path
             id="path11481"
             style="fill:#999999;stroke-width:3.02671;stroke-linecap:round"
             d="m 4.2008793,77.993578 c 0,0 1.7794334,-0.224072 2.6253916,0 0.5343825,0.141544 1.4409826,0.820953 1.4409826,0.820953 0,0 -0.9055183,0.686604 -1.4409826,0.829753 -0.8454406,0.226017 -2.6253916,0 -2.6253916,0 z"
             sodipodi:nodetypes="cscscc" /><path
             id="path11483"
             style="fill:#a28100;fill-opacity:1;stroke:none;stroke-width:2;stroke-linecap:round;stroke-dasharray:none;stroke-opacity:1"
             d="m -2.1148905,77.808056 v 2.022615 h 0.3896403 v -0.211873 h 0.3767212 v 0.211873 H 5.7037537 V 77.808056 H -1.348529 v 0.211356 h -0.3767212 v -0.211356 z" /><rect
             style="fill:#4d4d4d;fill-opacity:1;stroke:none;stroke-width:1.7924;stroke-linecap:round;stroke-dasharray:none;stroke-opacity:1"
             id="rect11485"
             width="0.45967487"
             height="3.4556017"
             x="-0.49193624"
             y="76.822617" /><rect
             style="fill:#4d4d4d;fill-opacity:1;stroke:none;stroke-width:1.7924;stroke-linecap:round;stroke-dasharray:none;stroke-opacity:1"
             id="rect11487"
             width="0.45967487"
             height="3.4556017"
             x="4.2010722"
             y="76.822617" /><path
             id="path11489"
             style="fill:#4d4d4d;fill-opacity:1;stroke:none;stroke-width:1.95278;stroke-linecap:round;stroke-dasharray:none;stroke-opacity:1"
             d="m -0.49193624,77.932079 v 1.774569 H 4.6454203 V 77.932079 Z M 2.0767421,78.34239 A 2.0178955,0.47681451 0 0 1 4.0946374,78.819364 2.0178955,0.47681451 0 0 1 2.0767421,79.296337 2.0178955,0.47681451 0 0 1 0.05884673,78.819364 2.0178955,0.47681451 0 0 1 2.0767421,78.34239 Z" /></g><g
           id="g11503"
           inkscape:label="bullet"
           transform="matrix(0.44384764,0,0,0.44384764,7.0955674,75.144935)"><path
             id="path11493"
             style="fill:#999999;stroke-width:3.02671;stroke-linecap:round"
             d="m 4.2008793,77.993578 c 0,0 1.7794334,-0.224072 2.6253916,0 0.5343825,0.141544 1.4409826,0.820953 1.4409826,0.820953 0,0 -0.9055183,0.686604 -1.4409826,0.829753 -0.8454406,0.226017 -2.6253916,0 -2.6253916,0 z"
             sodipodi:nodetypes="cscscc" /><path
             id="path11495"
             style="fill:#a28100;fill-opacity:1;stroke:none;stroke-width:2;stroke-linecap:round;stroke-dasharray:none;stroke-opacity:1"
             d="m -2.1148905,77.808056 v 2.022615 h 0.3896403 v -0.211873 h 0.3767212 v 0.211873 H 5.7037537 V 77.808056 H -1.348529 v 0.211356 h -0.3767212 v -0.211356 z" /><rect
             style="fill:#4d4d4d;fill-opacity:1;stroke:none;stroke-width:1.7924;stroke-linecap:round;stroke-dasharray:none;stroke-opacity:1"
             id="rect11497"
             width="0.45967487"
             height="3.4556017"
             x="-0.49193624"
             y="76.822617" /><rect
             style="fill:#4d4d4d;fill-opacity:1;stroke:none;stroke-width:1.7924;stroke-linecap:round;stroke-dasharray:none;stroke-opacity:1"
             id="rect11499"
             width="0.45967487"
             height="3.4556017"
             x="4.2010722"
             y="76.822617" /><path
             id="path11501"
             style="fill:#4d4d4d;fill-opacity:1;stroke:none;stroke-width:1.95278;stroke-linecap:round;stroke-dasharray:none;stroke-opacity:1"
             d="m -0.49193624,77.932079 v 1.774569 H 4.6454203 V 77.932079 Z M 2.0767421,78.34239 A 2.0178955,0.47681451 0 0 1 4.0946374,78.819364 2.0178955,0.47681451 0 0 1 2.0767421,79.296337 2.0178955,0.47681451 0 0 1 0.05884673,78.819364 2.0178955,0.47681451 0 0 1 2.0767421,78.34239 Z" /></g><g
           id="g11515"
           inkscape:label="bullet"
           transform="matrix(0.44384764,0,0,0.44384764,7.0955674,73.846042)"><path
             id="path11505"
             style="fill:#999999;stroke-width:3.02671;stroke-linecap:round"
             d="m 4.2008793,77.993578 c 0,0 1.7794334,-0.224072 2.6253916,0 0.5343825,0.141544 1.4409826,0.820953 1.4409826,0.820953 0,0 -0.9055183,0.686604 -1.4409826,0.829753 -0.8454406,0.226017 -2.6253916,0 -2.6253916,0 z"
             sodipodi:nodetypes="cscscc" /><path
             id="path11507"
             style="fill:#a28100;fill-opacity:1;stroke:none;stroke-width:2;stroke-linecap:round;stroke-dasharray:none;stroke-opacity:1"
             d="m -2.1148905,77.808056 v 2.022615 h 0.3896403 v -0.211873 h 0.3767212 v 0.211873 H 5.7037537 V 77.808056 H -1.348529 v 0.211356 h -0.3767212 v -0.211356 z" /><rect
             style="fill:#4d4d4d;fill-opacity:1;stroke:none;stroke-width:1.7924;stroke-linecap:round;stroke-dasharray:none;stroke-opacity:1"
             id="rect11509"
             width="0.45967487"
             height="3.4556017"
             x="-0.49193624"
             y="76.822617" /><rect
             style="fill:#4d4d4d;fill-opacity:1;stroke:none;stroke-width:1.7924;stroke-linecap:round;stroke-dasharray:none;stroke-opacity:1"
             id="rect11511"
             width="0.45967487"
             height="3.4556017"
             x="4.2010722"
             y="76.822617" /><path
             id="path11513"
             style="fill:#4d4d4d;fill-opacity:1;stroke:none;stroke-width:1.95278;stroke-linecap:round;stroke-dasharray:none;stroke-opacity:1"
             d="m -0.49193624,77.932079 v 1.774569 H 4.6454203 V 77.932079 Z M 2.0767421,78.34239 A 2.0178955,0.47681451 0 0 1 4.0946374,78.819364 2.0178955,0.47681451 0 0 1 2.0767421,79.296337 2.0178955,0.47681451 0 0 1 0.05884673,78.819364 2.0178955,0.47681451 0 0 1 2.0767421,78.34239 Z" /></g><g
           id="g11527"
           inkscape:label="bullet"
           transform="matrix(0.44384764,0,0,0.44384764,7.0955674,72.54715)"><path
             id="path11517"
             style="fill:#999999;stroke-width:3.02671;stroke-linecap:round"
             d="m 4.2008793,77.993578 c 0,0 1.7794334,-0.224072 2.6253916,0 0.5343825,0.141544 1.4409826,0.820953 1.4409826,0.820953 0,0 -0.9055183,0.686604 -1.4409826,0.829753 -0.8454406,0.226017 -2.6253916,0 -2.6253916,0 z"
             sodipodi:nodetypes="cscscc" /><path
             id="path11519"
             style="fill:#a28100;fill-opacity:1;stroke:none;stroke-width:2;stroke-linecap:round;stroke-dasharray:none;stroke-opacity:1"
             d="m -2.1148905,77.808056 v 2.022615 h 0.3896403 v -0.211873 h 0.3767212 v 0.211873 H 5.7037537 V 77.808056 H -1.348529 v 0.211356 h -0.3767212 v -0.211356 z" /><rect
             style="fill:#4d4d4d;fill-opacity:1;stroke:none;stroke-width:1.7924;stroke-linecap:round;stroke-dasharray:none;stroke-opacity:1"
             id="rect11521"
             width="0.45967487"
             height="3.4556017"
             x="-0.49193624"
             y="76.822617" /><rect
             style="fill:#4d4d4d;fill-opacity:1;stroke:none;stroke-width:1.7924;stroke-linecap:round;stroke-dasharray:none;stroke-opacity:1"
             id="rect11523"
             width="0.45967487"
             height="3.4556017"
             x="4.2010722"
             y="76.822617" /><path
             id="path11525"
             style="fill:#4d4d4d;fill-opacity:1;stroke:none;stroke-width:1.95278;stroke-linecap:round;stroke-dasharray:none;stroke-opacity:1"
             d="m -0.49193624,77.932079 v 1.774569 H 4.6454203 V 77.932079 Z M 2.0767421,78.34239 A 2.0178955,0.47681451 0 0 1 4.0946374,78.819364 2.0178955,0.47681451 0 0 1 2.0767421,79.296337 2.0178955,0.47681451 0 0 1 0.05884673,78.819364 2.0178955,0.47681451 0 0 1 2.0767421,78.34239 Z" /></g><g
           id="g11539"
           inkscape:label="bullet"
           transform="matrix(0.44384764,0,0,0.44384764,7.0955674,71.248257)"><path
             id="path11529"
             style="fill:#999999;stroke-width:3.02671;stroke-linecap:round"
             d="m 4.2008793,77.993578 c 0,0 1.7794334,-0.224072 2.6253916,0 0.5343825,0.141544 1.4409826,0.820953 1.4409826,0.820953 0,0 -0.9055183,0.686604 -1.4409826,0.829753 -0.8454406,0.226017 -2.6253916,0 -2.6253916,0 z"
             sodipodi:nodetypes="cscscc" /><path
             id="path11531"
             style="fill:#a28100;fill-opacity:1;stroke:none;stroke-width:2;stroke-linecap:round;stroke-dasharray:none;stroke-opacity:1"
             d="m -2.1148905,77.808056 v 2.022615 h 0.3896403 v -0.211873 h 0.3767212 v 0.211873 H 5.7037537 V 77.808056 H -1.348529 v 0.211356 h -0.3767212 v -0.211356 z" /><rect
             style="fill:#4d4d4d;fill-opacity:1;stroke:none;stroke-width:1.7924;stroke-linecap:round;stroke-dasharray:none;stroke-opacity:1"
             id="rect11533"
             width="0.45967487"
             height="3.4556017"
             x="-0.49193624"
             y="76.822617" /><rect
             style="fill:#4d4d4d;fill-opacity:1;stroke:none;stroke-width:1.7924;stroke-linecap:round;stroke-dasharray:none;stroke-opacity:1"
             id="rect11535"
             width="0.45967487"
             height="3.4556017"
             x="4.2010722"
             y="76.822617" /><path
             id="path11537"
             style="fill:#4d4d4d;fill-opacity:1;stroke:none;stroke-width:1.95278;stroke-linecap:round;stroke-dasharray:none;stroke-opacity:1"
             d="m -0.49193624,77.932079 v 1.774569 H 4.6454203 V 77.932079 Z M 2.0767421,78.34239 A 2.0178955,0.47681451 0 0 1 4.0946374,78.819364 2.0178955,0.47681451 0 0 1 2.0767421,79.296337 2.0178955,0.47681451 0 0 1 0.05884673,78.819364 2.0178955,0.47681451 0 0 1 2.0767421,78.34239 Z" /></g><g
           id="g11551"
           inkscape:label="bullet"
           transform="matrix(0.44384764,0,0,0.44384764,7.0955674,69.949367)"><path
             id="path11541"
             style="fill:#999999;stroke-width:3.02671;stroke-linecap:round"
             d="m 4.2008793,77.993578 c 0,0 1.7794334,-0.224072 2.6253916,0 0.5343825,0.141544 1.4409826,0.820953 1.4409826,0.820953 0,0 -0.9055183,0.686604 -1.4409826,0.829753 -0.8454406,0.226017 -2.6253916,0 -2.6253916,0 z"
             sodipodi:nodetypes="cscscc" /><path
             id="path11543"
             style="fill:#a28100;fill-opacity:1;stroke:none;stroke-width:2;stroke-linecap:round;stroke-dasharray:none;stroke-opacity:1"
             d="m -2.1148905,77.808056 v 2.022615 h 0.3896403 v -0.211873 h 0.3767212 v 0.211873 H 5.7037537 V 77.808056 H -1.348529 v 0.211356 h -0.3767212 v -0.211356 z" /><rect
             style="fill:#4d4d4d;fill-opacity:1;stroke:none;stroke-width:1.7924;stroke-linecap:round;stroke-dasharray:none;stroke-opacity:1"
             id="rect11545"
             width="0.45967487"
             height="3.4556017"
             x="-0.49193624"
             y="76.822617" /><rect
             style="fill:#4d4d4d;fill-opacity:1;stroke:none;stroke-width:1.7924;stroke-linecap:round;stroke-dasharray:none;stroke-opacity:1"
             id="rect11547"
             width="0.45967487"
             height="3.4556017"
             x="4.2010722"
             y="76.822617" /><path
             id="path11549"
             style="fill:#4d4d4d;fill-opacity:1;stroke:none;stroke-width:1.95278;stroke-linecap:round;stroke-dasharray:none;stroke-opacity:1"
             d="m -0.49193624,77.932079 v 1.774569 H 4.6454203 V 77.932079 Z M 2.0767421,78.34239 A 2.0178955,0.47681451 0 0 1 4.0946374,78.819364 2.0178955,0.47681451 0 0 1 2.0767421,79.296337 2.0178955,0.47681451 0 0 1 0.05884673,78.819364 2.0178955,0.47681451 0 0 1 2.0767421,78.34239 Z" /></g><g
           id="g11563"
           inkscape:label="bullet"
           transform="matrix(0.44384764,0,0,0.44384764,7.0955674,68.650474)"><path
             id="path11553"
             style="fill:#999999;stroke-width:3.02671;stroke-linecap:round"
             d="m 4.2008793,77.993578 c 0,0 1.7794334,-0.224072 2.6253916,0 0.5343825,0.141544 1.4409826,0.820953 1.4409826,0.820953 0,0 -0.9055183,0.686604 -1.4409826,0.829753 -0.8454406,0.226017 -2.6253916,0 -2.6253916,0 z"
             sodipodi:nodetypes="cscscc" /><path
             id="path11555"
             style="fill:#a28100;fill-opacity:1;stroke:none;stroke-width:2;stroke-linecap:round;stroke-dasharray:none;stroke-opacity:1"
             d="m -2.1148905,77.808056 v 2.022615 h 0.3896403 v -0.211873 h 0.3767212 v 0.211873 H 5.7037537 V 77.808056 H -1.348529 v 0.211356 h -0.3767212 v -0.211356 z" /><rect
             style="fill:#4d4d4d;fill-opacity:1;stroke:none;stroke-width:1.7924;stroke-linecap:round;stroke-dasharray:none;stroke-opacity:1"
             id="rect11557"
             width="0.45967487"
             height="3.4556017"
             x="-0.49193624"
             y="76.822617" /><rect
             style="fill:#4d4d4d;fill-opacity:1;stroke:none;stroke-width:1.7924;stroke-linecap:round;stroke-dasharray:none;stroke-opacity:1"
             id="rect11559"
             width="0.45967487"
             height="3.4556017"
             x="4.2010722"
             y="76.822617" /><path
             id="path11561"
             style="fill:#4d4d4d;fill-opacity:1;stroke:none;stroke-width:1.95278;stroke-linecap:round;stroke-dasharray:none;stroke-opacity:1"
             d="m -0.49193624,77.932079 v 1.774569 H 4.6454203 V 77.932079 Z M 2.0767421,78.34239 A 2.0178955,0.47681451 0 0 1 4.0946374,78.819364 2.0178955,0.47681451 0 0 1 2.0767421,79.296337 2.0178955,0.47681451 0 0 1 0.05884673,78.819364 2.0178955,0.47681451 0 0 1 2.0767421,78.34239 Z" /></g><g
           id="g11575"
           inkscape:label="bullet"
           transform="matrix(0.44384764,0,0,0.44384764,7.0955674,67.351582)"><path
             id="path11565"
             style="fill:#999999;stroke-width:3.02671;stroke-linecap:round"
             d="m 4.2008793,77.993578 c 0,0 1.7794334,-0.224072 2.6253916,0 0.5343825,0.141544 1.4409826,0.820953 1.4409826,0.820953 0,0 -0.9055183,0.686604 -1.4409826,0.829753 -0.8454406,0.226017 -2.6253916,0 -2.6253916,0 z"
             sodipodi:nodetypes="cscscc" /><path
             id="path11567"
             style="fill:#a28100;fill-opacity:1;stroke:none;stroke-width:2;stroke-linecap:round;stroke-dasharray:none;stroke-opacity:1"
             d="m -2.1148905,77.808056 v 2.022615 h 0.3896403 v -0.211873 h 0.3767212 v 0.211873 H 5.7037537 V 77.808056 H -1.348529 v 0.211356 h -0.3767212 v -0.211356 z" /><rect
             style="fill:#4d4d4d;fill-opacity:1;stroke:none;stroke-width:1.7924;stroke-linecap:round;stroke-dasharray:none;stroke-opacity:1"
             id="rect11569"
             width="0.45967487"
             height="3.4556017"
             x="-0.49193624"
             y="76.822617" /><rect
             style="fill:#4d4d4d;fill-opacity:1;stroke:none;stroke-width:1.7924;stroke-linecap:round;stroke-dasharray:none;stroke-opacity:1"
             id="rect11571"
             width="0.45967487"
             height="3.4556017"
             x="4.2010722"
             y="76.822617" /><path
             id="path11573"
             style="fill:#4d4d4d;fill-opacity:1;stroke:none;stroke-width:1.95278;stroke-linecap:round;stroke-dasharray:none;stroke-opacity:1"
             d="m -0.49193624,77.932079 v 1.774569 H 4.6454203 V 77.932079 Z M 2.0767421,78.34239 A 2.0178955,0.47681451 0 0 1 4.0946374,78.819364 2.0178955,0.47681451 0 0 1 2.0767421,79.296337 2.0178955,0.47681451 0 0 1 0.05884673,78.819364 2.0178955,0.47681451 0 0 1 2.0767421,78.34239 Z" /></g><g
           id="g11587"
           inkscape:label="bullet"
           transform="matrix(0.44384764,0,0,0.44384764,7.0955674,66.052689)"><path
             id="path11577"
             style="fill:#999999;stroke-width:3.02671;stroke-linecap:round"
             d="m 4.2008793,77.993578 c 0,0 1.7794334,-0.224072 2.6253916,0 0.5343825,0.141544 1.4409826,0.820953 1.4409826,0.820953 0,0 -0.9055183,0.686604 -1.4409826,0.829753 -0.8454406,0.226017 -2.6253916,0 -2.6253916,0 z"
             sodipodi:nodetypes="cscscc" /><path
             id="path11579"
             style="fill:#a28100;fill-opacity:1;stroke:none;stroke-width:2;stroke-linecap:round;stroke-dasharray:none;stroke-opacity:1"
             d="m -2.1148905,77.808056 v 2.022615 h 0.3896403 v -0.211873 h 0.3767212 v 0.211873 H 5.7037537 V 77.808056 H -1.348529 v 0.211356 h -0.3767212 v -0.211356 z" /><rect
             style="fill:#4d4d4d;fill-opacity:1;stroke:none;stroke-width:1.7924;stroke-linecap:round;stroke-dasharray:none;stroke-opacity:1"
             id="rect11581"
             width="0.45967487"
             height="3.4556017"
             x="-0.49193624"
             y="76.822617" /><rect
             style="fill:#4d4d4d;fill-opacity:1;stroke:none;stroke-width:1.7924;stroke-linecap:round;stroke-dasharray:none;stroke-opacity:1"
             id="rect11583"
             width="0.45967487"
             height="3.4556017"
             x="4.2010722"
             y="76.822617" /><path
             id="path11585"
             style="fill:#4d4d4d;fill-opacity:1;stroke:none;stroke-width:1.95278;stroke-linecap:round;stroke-dasharray:none;stroke-opacity:1"
             d="m -0.49193624,77.932079 v 1.774569 H 4.6454203 V 77.932079 Z M 2.0767421,78.34239 A 2.0178955,0.47681451 0 0 1 4.0946374,78.819364 2.0178955,0.47681451 0 0 1 2.0767421,79.296337 2.0178955,0.47681451 0 0 1 0.05884673,78.819364 2.0178955,0.47681451 0 0 1 2.0767421,78.34239 Z" /></g><g
           id="g11599"
           inkscape:label="bullet"
           transform="matrix(0.44384764,0,0,0.44384764,7.0955674,64.753798)"><path
             id="path11589"
             style="fill:#999999;stroke-width:3.02671;stroke-linecap:round"
             d="m 4.2008793,77.993578 c 0,0 1.7794334,-0.224072 2.6253916,0 0.5343825,0.141544 1.4409826,0.820953 1.4409826,0.820953 0,0 -0.9055183,0.686604 -1.4409826,0.829753 -0.8454406,0.226017 -2.6253916,0 -2.6253916,0 z"
             sodipodi:nodetypes="cscscc" /><path
             id="path11591"
             style="fill:#a28100;fill-opacity:1;stroke:none;stroke-width:2;stroke-linecap:round;stroke-dasharray:none;stroke-opacity:1"
             d="m -2.1148905,77.808056 v 2.022615 h 0.3896403 v -0.211873 h 0.3767212 v 0.211873 H 5.7037537 V 77.808056 H -1.348529 v 0.211356 h -0.3767212 v -0.211356 z" /><rect
             style="fill:#4d4d4d;fill-opacity:1;stroke:none;stroke-width:1.7924;stroke-linecap:round;stroke-dasharray:none;stroke-opacity:1"
             id="rect11593"
             width="0.45967487"
             height="3.4556017"
             x="-0.49193624"
             y="76.822617" /><rect
             style="fill:#4d4d4d;fill-opacity:1;stroke:none;stroke-width:1.7924;stroke-linecap:round;stroke-dasharray:none;stroke-opacity:1"
             id="rect11595"
             width="0.45967487"
             height="3.4556017"
             x="4.2010722"
             y="76.822617" /><path
             id="path11597"
             style="fill:#4d4d4d;fill-opacity:1;stroke:none;stroke-width:1.95278;stroke-linecap:round;stroke-dasharray:none;stroke-opacity:1"
             d="m -0.49193624,77.932079 v 1.774569 H 4.6454203 V 77.932079 Z M 2.0767421,78.34239 A 2.0178955,0.47681451 0 0 1 4.0946374,78.819364 2.0178955,0.47681451 0 0 1 2.0767421,79.296337 2.0178955,0.47681451 0 0 1 0.05884673,78.819364 2.0178955,0.47681451 0 0 1 2.0767421,78.34239 Z" /></g><g
           id="g11611"
           inkscape:label="bullet"
           transform="matrix(0.44384764,0,0,0.44384764,7.0955674,63.454906)"><path
             id="path11601"
             style="fill:#999999;stroke-width:3.02671;stroke-linecap:round"
             d="m 4.2008793,77.993578 c 0,0 1.7794334,-0.224072 2.6253916,0 0.5343825,0.141544 1.4409826,0.820953 1.4409826,0.820953 0,0 -0.9055183,0.686604 -1.4409826,0.829753 -0.8454406,0.226017 -2.6253916,0 -2.6253916,0 z"
             sodipodi:nodetypes="cscscc" /><path
             id="path11603"
             style="fill:#a28100;fill-opacity:1;stroke:none;stroke-width:2;stroke-linecap:round;stroke-dasharray:none;stroke-opacity:1"
             d="m -2.1148905,77.808056 v 2.022615 h 0.3896403 v -0.211873 h 0.3767212 v 0.211873 H 5.7037537 V 77.808056 H -1.348529 v 0.211356 h -0.3767212 v -0.211356 z" /><rect
             style="fill:#4d4d4d;fill-opacity:1;stroke:none;stroke-width:1.7924;stroke-linecap:round;stroke-dasharray:none;stroke-opacity:1"
             id="rect11605"
             width="0.45967487"
             height="3.4556017"
             x="-0.49193624"
             y="76.822617" /><rect
             style="fill:#4d4d4d;fill-opacity:1;stroke:none;stroke-width:1.7924;stroke-linecap:round;stroke-dasharray:none;stroke-opacity:1"
             id="rect11607"
             width="0.45967487"
             height="3.4556017"
             x="4.2010722"
             y="76.822617" /><path
             id="path11609"
             style="fill:#4d4d4d;fill-opacity:1;stroke:none;stroke-width:1.95278;stroke-linecap:round;stroke-dasharray:none;stroke-opacity:1"
             d="m -0.49193624,77.932079 v 1.774569 H 4.6454203 V 77.932079 Z M 2.0767421,78.34239 A 2.0178955,0.47681451 0 0 1 4.0946374,78.819364 2.0178955,0.47681451 0 0 1 2.0767421,79.296337 2.0178955,0.47681451 0 0 1 0.05884673,78.819364 2.0178955,0.47681451 0 0 1 2.0767421,78.34239 Z" /></g><g
           id="g11623"
           inkscape:label="bullet"
           transform="matrix(0.44384764,0,0,0.44384764,7.0955674,62.156013)"><path
             id="path11613"
             style="fill:#999999;stroke-width:3.02671;stroke-linecap:round"
             d="m 4.2008793,77.993578 c 0,0 1.7794334,-0.224072 2.6253916,0 0.5343825,0.141544 1.4409826,0.820953 1.4409826,0.820953 0,0 -0.9055183,0.686604 -1.4409826,0.829753 -0.8454406,0.226017 -2.6253916,0 -2.6253916,0 z"
             sodipodi:nodetypes="cscscc" /><path
             id="path11615"
             style="fill:#a28100;fill-opacity:1;stroke:none;stroke-width:2;stroke-linecap:round;stroke-dasharray:none;stroke-opacity:1"
             d="m -2.1148905,77.808056 v 2.022615 h 0.3896403 v -0.211873 h 0.3767212 v 0.211873 H 5.7037537 V 77.808056 H -1.348529 v 0.211356 h -0.3767212 v -0.211356 z" /><rect
             style="fill:#4d4d4d;fill-opacity:1;stroke:none;stroke-width:1.7924;stroke-linecap:round;stroke-dasharray:none;stroke-opacity:1"
             id="rect11617"
             width="0.45967487"
             height="3.4556017"
             x="-0.49193624"
             y="76.822617" /><rect
             style="fill:#4d4d4d;fill-opacity:1;stroke:none;stroke-width:1.7924;stroke-linecap:round;stroke-dasharray:none;stroke-opacity:1"
             id="rect11619"
             width="0.45967487"
             height="3.4556017"
             x="4.2010722"
             y="76.822617" /><path
             id="path11621"
             style="fill:#4d4d4d;fill-opacity:1;stroke:none;stroke-width:1.95278;stroke-linecap:round;stroke-dasharray:none;stroke-opacity:1"
             d="m -0.49193624,77.932079 v 1.774569 H 4.6454203 V 77.932079 Z M 2.0767421,78.34239 A 2.0178955,0.47681451 0 0 1 4.0946374,78.819364 2.0178955,0.47681451 0 0 1 2.0767421,79.296337 2.0178955,0.47681451 0 0 1 0.05884673,78.819364 2.0178955,0.47681451 0 0 1 2.0767421,78.34239 Z" /></g><g
           id="g11635"
           inkscape:label="bullet"
           transform="matrix(0.44384764,0,0,0.44384764,7.0955674,60.85712)"><path
             id="path11625"
             style="fill:#999999;stroke-width:3.02671;stroke-linecap:round"
             d="m 4.2008793,77.993578 c 0,0 1.7794334,-0.224072 2.6253916,0 0.5343825,0.141544 1.4409826,0.820953 1.4409826,0.820953 0,0 -0.9055183,0.686604 -1.4409826,0.829753 -0.8454406,0.226017 -2.6253916,0 -2.6253916,0 z"
             sodipodi:nodetypes="cscscc" /><path
             id="path11627"
             style="fill:#a28100;fill-opacity:1;stroke:none;stroke-width:2;stroke-linecap:round;stroke-dasharray:none;stroke-opacity:1"
             d="m -2.1148905,77.808056 v 2.022615 h 0.3896403 v -0.211873 h 0.3767212 v 0.211873 H 5.7037537 V 77.808056 H -1.348529 v 0.211356 h -0.3767212 v -0.211356 z" /><rect
             style="fill:#4d4d4d;fill-opacity:1;stroke:none;stroke-width:1.6144;stroke-linecap:round;stroke-dasharray:none;stroke-opacity:1"
             id="rect11629"
             width="0.45967487"
             height="2.803355"
             x="-0.49193624"
             y="77.474861" /><rect
             style="fill:#4d4d4d;fill-opacity:1;stroke:none;stroke-width:1.6144;stroke-linecap:round;stroke-dasharray:none;stroke-opacity:1"
             id="rect11631"
             width="0.45967487"
             height="2.803355"
             x="4.2010722"
             y="77.474861" /><path
             id="path11633"
             style="fill:#4d4d4d;fill-opacity:1;stroke:none;stroke-width:1.95278;stroke-linecap:round;stroke-dasharray:none;stroke-opacity:1"
             d="m -0.49193624,77.932079 v 1.774569 H 4.6454203 V 77.932079 Z M 2.0767421,78.34239 A 2.0178955,0.47681451 0 0 1 4.0946374,78.819364 2.0178955,0.47681451 0 0 1 2.0767421,79.296337 2.0178955,0.47681451 0 0 1 0.05884673,78.819364 2.0178955,0.47681451 0 0 1 2.0767421,78.34239 Z" /></g></g><g
         id="g11643"
         inkscape:label="barrel"><rect
           style="fill:#1a1a1a;fill-opacity:1;stroke:none;stroke-width:0.503092;stroke-linecap:round;stroke-dasharray:none;stroke-opacity:1"
           id="rect11639"
           width="31.483984"
           height="2.109375"
           x="32.110867"
           y="77.497765" /><path
           id="path11641"
           style="fill:#4d4d4d;stroke-width:0.499999;stroke-linecap:round"
           d="m 32.110927,76.973998 v 3.156913 h 2.166793 c 1.7e-5,-0.367466 0.303041,-0.665401 0.676961,-0.665592 0.374123,-9e-5 0.677462,0.297927 0.677479,0.665592 h 2.199865 c 1.7e-5,-0.367664 0.303356,-0.665681 0.677478,-0.665592 0.374122,-8.9e-5 0.677461,0.297928 0.677478,0.665592 h 2.199866 c 1.7e-5,-0.367664 0.303356,-0.665681 0.677478,-0.665592 0.374122,-8.9e-5 0.677461,0.297928 0.677478,0.665592 h 2.199866 c 1.7e-5,-0.367664 0.303356,-0.665681 0.677478,-0.665592 0.374122,-8.9e-5 0.677461,0.297928 0.677478,0.665592 h 2.199866 c 1.7e-5,-0.367664 0.303356,-0.665681 0.677478,-0.665592 0.374122,-8.9e-5 0.677461,0.297928 0.677478,0.665592 h 2.199865 c 1.7e-5,-0.367664 0.303356,-0.665681 0.677478,-0.665592 0.373921,1.91e-4 0.676945,0.298126 0.676962,0.665592 h 2.200382 c 1.7e-5,-0.367664 0.303356,-0.665681 0.677478,-0.665592 0.37392,1.91e-4 0.676944,0.298126 0.676961,0.665592 h 2.200383 c 1.7e-5,-0.367664 0.303356,-0.665681 0.677478,-0.665592 0.37392,1.91e-4 0.676944,0.298126 0.676961,0.665592 h 2.200383 l 0.0036,-3.156913 h -2.258777 c 0.01845,0.05933 0.02836,0.120905 0.02946,0.182935 -1.7e-5,0.367664 -0.303356,0.665681 -0.677478,0.665592 -0.374122,8.9e-5 -0.677461,-0.297928 -0.677478,-0.665592 0.0011,-0.06203 0.01101,-0.123603 0.02945,-0.182935 h -2.258777 c 0.01845,0.05933 0.02836,0.120905 0.02946,0.182935 -1.7e-5,0.367664 -0.303356,0.665681 -0.677478,0.665592 -0.37392,-1.91e-4 -0.676944,-0.298126 -0.676961,-0.665592 0.0011,-0.06203 0.01101,-0.123603 0.02945,-0.182935 h -2.259293 c 0.01844,0.05933 0.02836,0.120906 0.02945,0.182935 -1.7e-5,0.367664 -0.303356,0.665681 -0.677478,0.665592 -0.37392,-1.91e-4 -0.676944,-0.298126 -0.676961,-0.665592 0.0011,-0.06203 0.01101,-0.123604 0.02946,-0.182935 h -2.259293 c 0.01845,0.05933 0.02836,0.120905 0.02946,0.182935 -1.7e-5,0.367664 -0.303356,0.665681 -0.677478,0.665592 -0.37392,-1.91e-4 -0.676944,-0.298126 -0.676961,-0.665592 0.0011,-0.06203 0.01101,-0.123604 0.02946,-0.182935 h -2.259294 c 0.01845,0.05933 0.02836,0.120905 0.02946,0.182935 -1.7e-5,0.367466 -0.303041,0.665401 -0.676962,0.665592 -0.374122,8.9e-5 -0.677461,-0.297928 -0.677478,-0.665592 0.0011,-0.06203 0.01101,-0.123604 0.02946,-0.182935 h -2.259294 c 0.01845,0.05933 0.02836,0.120905 0.02946,0.182935 -1.7e-5,0.367466 -0.303041,0.665401 -0.676961,0.665592 -0.374122,8.9e-5 -0.677461,-0.297928 -0.677478,-0.665592 0.0011,-0.06203 0.01101,-0.123603 0.02945,-0.182935 h -2.259294 c 0.01845,0.05933 0.02836,0.120905 0.02946,0.182935 -1.7e-5,0.367466 -0.303041,0.665401 -0.676961,0.665592 -0.374122,8.9e-5 -0.677461,-0.297928 -0.677478,-0.665592 0.0011,-0.06203 0.01101,-0.123603 0.02945,-0.182935 h -2.259293 c 0.01844,0.05933 0.02836,0.120906 0.02945,0.182935 -1.7e-5,0.367466 -0.303041,0.665401 -0.676961,0.665592 -0.374122,8.9e-5 -0.677461,-0.297928 -0.677478,-0.665592 0.0011,-0.06203 0.01101,-0.123604 0.02946,-0.182935 z m 0.953431,1.004073 c 0.374123,-8.9e-5 0.677461,0.297928 0.677478,0.665593 -1.7e-5,0.367664 -0.303356,0.665681 -0.677478,0.665592 -0.374122,8.9e-5 -0.677461,-0.297928 -0.677478,-0.665592 1.7e-5,-0.367665 0.303355,-0.665682 0.677478,-0.665593 z m 3.554821,0 c 0.374123,-8.9e-5 0.677461,0.297928 0.677478,0.665593 -1.7e-5,0.367664 -0.303356,0.665681 -0.677478,0.665592 -0.374122,8.9e-5 -0.677461,-0.297928 -0.677478,-0.665592 1.7e-5,-0.367665 0.303355,-0.665682 0.677478,-0.665593 z m 3.554822,0 c 0.373921,1.91e-4 0.676944,0.298127 0.676961,0.665593 -1.7e-5,0.367466 -0.303041,0.665401 -0.676961,0.665592 -0.374122,8.9e-5 -0.677461,-0.297928 -0.677478,-0.665592 1.7e-5,-0.367665 0.303355,-0.665682 0.677478,-0.665593 z m 3.554822,0 c 0.373921,1.91e-4 0.676944,0.298127 0.676961,0.665593 -1.7e-5,0.367466 -0.303041,0.665401 -0.676961,0.665592 -0.374122,8.9e-5 -0.677461,-0.297928 -0.677478,-0.665592 1.7e-5,-0.367665 0.303355,-0.665682 0.677478,-0.665593 z m 3.554822,0 c 0.373921,1.91e-4 0.676944,0.298127 0.676961,0.665593 -1.7e-5,0.367466 -0.303041,0.665401 -0.676961,0.665592 -0.374122,8.9e-5 -0.677461,-0.297928 -0.677478,-0.665592 1.7e-5,-0.367665 0.303355,-0.665682 0.677478,-0.665593 z m 3.554821,0 c 0.373921,1.91e-4 0.676945,0.298126 0.676962,0.665593 -1.7e-5,0.367466 -0.303041,0.665401 -0.676962,0.665592 -0.374122,8.9e-5 -0.677461,-0.297928 -0.677478,-0.665592 1.7e-5,-0.367665 0.303355,-0.665682 0.677478,-0.665593 z m 3.554305,0 c 0.374123,-9e-5 0.677462,0.297928 0.677479,0.665593 -1.7e-5,0.367665 -0.303356,0.665682 -0.677479,0.665592 -0.37392,-1.91e-4 -0.676944,-0.298126 -0.676961,-0.665592 1.7e-5,-0.367466 0.30304,-0.665402 0.676961,-0.665593 z m 3.554822,0 c 0.374123,-8.9e-5 0.677461,0.297928 0.677478,0.665593 -1.7e-5,0.367664 -0.303356,0.665681 -0.677478,0.665592 -0.37392,-1.91e-4 -0.676944,-0.298126 -0.676961,-0.665592 1.7e-5,-0.367466 0.30304,-0.665402 0.676961,-0.665593 z m 3.554822,0 c 0.374123,-8.9e-5 0.677461,0.297928 0.677478,0.665593 -1.7e-5,0.367664 -0.303356,0.665681 -0.677478,0.665592 -0.37392,-1.91e-4 -0.676944,-0.298126 -0.676961,-0.665592 1.7e-5,-0.367466 0.30304,-0.665402 0.676961,-0.665593 z"
           sodipodi:nodetypes="cccccccccccccccccccccccccccccccccccccccccccccccccccccccccccccccccccccccccccccccccccccccccccccccccccccccccccccccccc" /></g></g></g></svg>
