<?xml version="1.0" encoding="UTF-8" standalone="no"?>
<!-- Created with Inkscape (http://www.inkscape.org/) -->

<svg
   width="200mm"
   height="100mm"
   viewBox="0 0 200 100"
   version="1.1"
   id="svg5"
   inkscape:version="1.2 (dc2aedaf03, 2022-05-15)"
   sodipodi:docname="tank2.svg"
   xml:space="preserve"
   xmlns:inkscape="http://www.inkscape.org/namespaces/inkscape"
   xmlns:sodipodi="http://sodipodi.sourceforge.net/DTD/sodipodi-0.dtd"
   xmlns:xlink="http://www.w3.org/1999/xlink"
   xmlns="http://www.w3.org/2000/svg"
   xmlns:svg="http://www.w3.org/2000/svg"><sodipodi:namedview
     id="namedview7"
     pagecolor="#ffffff"
     bordercolor="#666666"
     borderopacity="1.0"
     inkscape:showpageshadow="2"
     inkscape:pageopacity="0.0"
     inkscape:pagecheckerboard="0"
     inkscape:deskcolor="#d1d1d1"
     inkscape:document-units="mm"
     showgrid="false"
     inkscape:zoom="1"
     inkscape:cx="476"
     inkscape:cy="235"
     inkscape:window-width="1920"
     inkscape:window-height="1017"
     inkscape:window-x="-8"
     inkscape:window-y="-8"
     inkscape:window-maximized="1"
     inkscape:current-layer="layer1" /><defs
     id="defs2"><inkscape:path-effect
       effect="ruler"
       id="path-effect18489"
       is_visible="true"
       lpeversion="1"
       unit="px"
       mark_distance="20"
       mark_length="5"
       minor_mark_length="5"
       major_mark_steps="5"
       shift="0"
       offset="0"
       mark_dir="left"
       border_marks="both" /><linearGradient
       inkscape:collect="always"
       id="linearGradient7126"><stop
         style="stop-color:#2f343a;stop-opacity:1;"
         offset="0"
         id="stop7122" /><stop
         style="stop-color:#383f46;stop-opacity:1;"
         offset="1"
         id="stop7124" /></linearGradient><inkscape:path-effect
       effect="ruler"
       id="path-effect7876"
       is_visible="true"
       lpeversion="1"
       unit="px"
       mark_distance="19.3"
       mark_length="5"
       minor_mark_length="5"
       major_mark_steps="5"
       shift="0"
       offset="4"
       mark_dir="right"
       border_marks="both" /><inkscape:path-effect
       only_selected="false"
       apply_with_weight="true"
       apply_no_weight="true"
       helper_size="0"
       steps="2"
       weight="33.333333"
       lpeversion="1"
       is_visible="true"
       id="path-effect1725"
       effect="bspline" /><inkscape:path-effect
       only_selected="false"
       apply_with_weight="true"
       apply_no_weight="true"
       helper_size="0"
       steps="2"
       weight="33.333333"
       lpeversion="1"
       is_visible="true"
       id="path-effect1725-9"
       effect="bspline" /><inkscape:path-effect
       only_selected="false"
       apply_with_weight="true"
       apply_no_weight="true"
       helper_size="0"
       steps="2"
       weight="33.333333"
       lpeversion="1"
       is_visible="true"
       id="path-effect1725-9-5"
       effect="bspline" /><inkscape:path-effect
       effect="ruler"
       id="path-effect18489-6"
       is_visible="true"
       lpeversion="1"
       unit="px"
       mark_distance="30"
       mark_length="3"
       minor_mark_length="3"
       major_mark_steps="5"
       shift="0"
       offset="0"
       mark_dir="right"
       border_marks="both" /><inkscape:path-effect
       effect="ruler"
       id="path-effect18489-8"
       is_visible="true"
       lpeversion="1"
       unit="px"
       mark_distance="20"
       mark_length="5"
       minor_mark_length="5"
       major_mark_steps="5"
       shift="0"
       offset="0"
       mark_dir="left"
       border_marks="both" /><inkscape:path-effect
       effect="ruler"
       id="path-effect18489-6-1"
       is_visible="true"
       lpeversion="1"
       unit="px"
       mark_distance="30"
       mark_length="3"
       minor_mark_length="3"
       major_mark_steps="5"
       shift="0"
       offset="0"
       mark_dir="right"
       border_marks="both" /><inkscape:path-effect
       effect="ruler"
       id="path-effect18489-8-1"
       is_visible="true"
       lpeversion="1"
       unit="px"
       mark_distance="20"
       mark_length="5"
       minor_mark_length="5"
       major_mark_steps="5"
       shift="0"
       offset="0"
       mark_dir="left"
       border_marks="both" /><inkscape:path-effect
       effect="ruler"
       id="path-effect18489-6-1-4"
       is_visible="true"
       lpeversion="1"
       unit="px"
       mark_distance="30"
       mark_length="3"
       minor_mark_length="3"
       major_mark_steps="5"
       shift="0"
       offset="0"
       mark_dir="right"
       border_marks="both" /><linearGradient
       inkscape:collect="always"
       xlink:href="#linearGradient7126"
       id="linearGradient671"
       gradientUnits="userSpaceOnUse"
       x1="-221.64401"
       y1="232.3718"
       x2="-236.61929"
       y2="232.3718" /></defs><g
     inkscape:groupmode="layer"
     id="layer2"
     inkscape:label="shadow"
     transform="translate(255.05833,4.2333331)"><path
       id="rect11646-8"
       style="display:inline;fill:#000000;stroke:#000000;stroke-width:5.4341;stroke-dasharray:none"
       d="m -158.77588,16.869073 -1.77898,1.894809 v 2.997703 h -3.05035 l -12.89854,2.287924 -1.77896,11.691754 h 13.72485 l 0.95265,0.0065 v 0.801728 l -6.5767,0.02664 -0.57776,1.19837 h -24.74334 l -11.62786,3.494731 -1.47567,6.07334 -0.17623,0.0065 0.0583,0.480212 -0.0583,0.238705 0.0864,-0.0022 0.46826,3.882973 -0.16077,0.0238 0.15585,1.045331 -1.05025,0.06667 0.0337,0.527251 c -0.22958,0.09809 -0.46365,0.205378 -0.69992,0.319406 l -0.56795,-0.987055 -1.17802,0.676055 0.57216,0.996203 c -0.12037,0.08925 -0.23669,0.181228 -0.34258,0.279405 -0.002,6.98e-4 -0.002,0.0022 -0.004,0.0044 -0.0671,0.06252 -0.13055,0.130157 -0.19588,0.195173 -0.0655,0.06536 -0.13299,0.127966 -0.19657,0.195873 -1.1e-4,1.3e-4 1.2e-4,5.81e-4 0,6.91e-4 -0.88833,0.949709 -1.5725,2.145642 -1.84142,3.442079 -0.10883,0.524536 -0.16331,1.067828 -0.17342,1.614687 l -1.14784,0.07031 0.0823,1.356337 1.1464,-0.0703 c 0.10421,0.742979 0.30335,1.47263 0.615,2.151748 0.0444,0.09673 0.0895,0.193224 0.1383,0.287848 0.0563,0.109094 0.11901,0.215786 0.18745,0.320826 1.2e-4,1.59e-4 -1.3e-4,5.16e-4 0,6.83e-4 0.0684,0.10488 0.14276,0.207408 0.22114,0.308212 1e-4,1.38e-4 -1.3e-4,5.61e-4 0,6.85e-4 0.0784,0.100804 0.16141,0.199525 0.24781,0.296246 0.17307,0.193762 0.36016,0.379364 0.55322,0.556727 0.0965,0.08872 0.19497,0.175188 0.29343,0.259747 0.19695,0.169146 0.39513,0.330352 0.58761,0.482999 1.6e-4,1.24e-4 5.7e-4,-1.02e-4 7e-4,0 0.0243,0.01929 0.0289,0.02169 0.0506,0.03857 0.21273,0.167429 0.41039,0.315919 0.59463,0.45 l -0.63465,0.933704 1.12467,0.763822 0.67675,-0.994783 0.45352,0.157246 5.21404,1.806352 -0.36366,1.055877 1.28404,0.445785 0.36647,-1.055876 5.50817,1.907446 -0.36576,1.056569 1.28403,0.442983 0.36366,-1.055877 3.59232,1.244027 2.26338,-0.01623 0.007,1.117648 1.35844,-0.01092 -0.007,-1.116935 2.04573,-0.01543 3.78679,-0.02882 0.007,1.116228 1.35845,-0.01092 -0.007,-1.114125 4.2368,-0.03305 1.59292,-0.01223 0.007,1.116941 1.35845,-0.01099 -0.007,-1.11553 5.39797,-0.04076 0.43106,-0.0022 0.007,1.116933 1.35846,-0.01077 -0.007,-1.116949 3.6169,-0.02664 2.21282,-0.01623 0.007,1.116948 1.35914,-0.01099 -0.007,-1.116934 0.65782,-0.0058 5.17473,-0.0393 0.007,1.115537 1.35841,-0.0075 -0.007,-1.117648 5.82904,-0.04345 0.007,1.116228 1.35845,-0.01077 -0.007,-1.115538 5.82971,-0.04345 0.007,1.116956 1.35914,-0.01092 -0.007,-1.115538 5.82972,-0.04433 0.007,1.117641 1.35843,-0.01092 -0.007,-1.116236 5.83183,-0.04337 0.007,1.114831 1.35845,-0.0075 -0.007,-1.117648 3.68569,-0.02744 2.2402,-0.633237 0.30188,1.074823 1.30789,-0.36857 -0.30397,-1.075536 0.70483,-0.199373 4.49798,-2.778675 0.5883,0.949164 1.15415,-0.71396 -0.5862,-0.94987 4.96059,-3.064389 0.5876,0.949855 1.15417,-0.713975 -0.58481,-0.95056 1.17661,-0.727315 3.559343,-2.792001 0.68871,0.879648 1.06638,-0.838228 -0.68869,-0.877538 0.49283,-0.386825 0.0687,-0.156562 c 0,0 0.64618,-1.39441 0.94634,-2.565254 1.2e-4,-4.59e-4 -1.1e-4,-6.92e-4 0,-0.0015 0.0429,-0.166767 0.0787,-0.328613 0.1046,-0.481601 1.3e-4,-6.92e-4 -1e-4,-0.0015 0,-0.0022 0.13878,-0.823883 0.16904,-1.651892 0.13831,-2.467675 l 1.12747,-0.08707 -0.10393,-1.353536 -1.12887,0.08576 c -0.0109,-0.09483 -0.0169,-0.191615 -0.0282,-0.285737 -5e-5,-4.44e-4 6e-5,-6.92e-4 0,-0.0015 -0.0205,-0.17187 -0.0477,-0.345608 -0.0813,-0.520192 -1e-4,-4.51e-4 8e-5,-6.91e-4 0,-0.0015 -0.0677,-0.349684 -0.16168,-0.702751 -0.27661,-1.05167 -0.28783,-0.873813 -0.71089,-1.721597 -1.20962,-2.420629 -0.0444,-0.06238 -0.0917,-0.121576 -0.14111,-0.179016 -6.8e-4,-0.0015 -0.002,-0.0022 -0.004,-0.0044 -0.0224,-0.02758 -0.0429,-0.05633 -0.066,-0.08349 l 0.73644,-2.91627 -5.972953,-1.938328 -14.42827,0.543387 -2.91839,-7.544114 -15.63087,0.06318 v -0.518808 l 4.44811,-0.433864 -0.44438,-2.971708 a 4.7973627,4.7973627 0 0 0 2.08855,-1.368289 c 6.9e-4,0 0.002,0 0.002,0 h 2.42415 c 0.68277,0 1.24455,-0.498262 1.34299,-1.152729 h 24.56782 c 0.37632,0 0.67957,-0.303269 0.67957,-0.679576 v -0.94706 c 0,-0.376315 -0.30325,-0.679585 -0.67957,-0.679585 h -24.55237 v -1.562713 c 0,-0.752629 -0.60582,-1.358448 -1.35844,-1.358448 h -2.42415 c -6.9e-4,0 -0.002,0 -0.002,0 a 4.7973627,4.7973627 0 0 0 -3.48701,-1.605559 l -0.0955,-0.636759 -6.00452,-0.76311 v -4.892503 z m -53.42792,41.841471 a 6.6381293,6.8517271 0 0 0 -0.23518,1.78879 6.6381293,6.8517271 0 0 0 0.8944,3.435776 c -0.12675,-0.153702 -0.22973,-0.296814 -0.29135,-0.416315 -0.25378,-0.492149 -0.43623,-1.040011 -0.54898,-1.611165 -1e-4,-4.51e-4 9e-5,-6.98e-4 0,-0.0015 -0.0374,-0.1901 -0.0678,-0.383076 -0.0899,-0.577078 -7e-5,-4.58e-4 6e-5,-6.84e-4 0,-0.0015 -0.022,-0.193995 -0.0367,-0.389343 -0.0435,-0.5848 -10e-6,-4.66e-4 2e-5,-6.84e-4 0,-0.0015 -0.007,-0.195458 -0.006,-0.391017 0.002,-0.585507 3e-5,-4.58e-4 -2e-5,-6.91e-4 0,-0.0015 0.007,-0.194468 0.0243,-0.387399 0.0478,-0.57849 5e-5,-4.51e-4 -5e-5,-6.84e-4 0,-0.0015 0.0236,-0.191054 0.055,-0.37991 0.0933,-0.565149 0.0228,-0.110171 0.0976,-0.20371 0.1706,-0.299063 z m 113.628383,0.172 c -0.004,0.0095 -0.0258,0.07514 -0.0282,0.08065 l -0.0877,0.06871 a 7.3307741,7.5666599 0 0 0 0.11588,-0.149525 z m -10.390173,1.239092 a 7.3307741,7.5666599 0 0 0 4.60679,1.682781 7.3307741,7.5666599 0 0 0 2.9633,-0.651482 l -1.98117,1.554306 -1.11201,0.686601 -0.20921,-0.336984 -1.15696,0.713968 0.2085,0.339093 -4.51271,2.789192 -2.05486,1.269282 a 11.04949,11.405035 0 0 0 2.5077,-7.226775 11.04949,11.405035 0 0 0 -0.0226,-0.617792 z m -90.49691,2.411495 0.32505,0.04076 a 9.3179143,9.6177413 0 0 0 -0.0253,0.691491 9.3179143,9.6177413 0 0 0 3.52423,7.531479 l -2.70705,-0.936528 0.1292,-0.374888 -1.28402,-0.445785 -0.12989,0.375579 -5.97364,-2.067495 a 6.6381293,6.8517271 0 0 0 6.14144,-4.814575 z m 65.6602,0.885267 2.26478,0.01223 a 11.04949,11.405035 0 0 0 6.68341,8.100114 l 6.9e-4,0.172705 -7.68874,0.05764 -1.73333,0.01216 -0.002,-0.398054 -1.35843,0.01092 0.002,0.398054 -4.63484,0.03435 a 10.501611,10.839527 0 0 0 6.46646,-8.400597 z m -20.7431,0.05604 a 10.501611,10.839527 0 0 0 6.59776,8.40198 l -7.89443,0.05902 -0.002,-0.397348 -1.35843,0.01092 0.002,0.397348 -8.61189,0.06383 a 9.6293267,9.9391742 0 0 0 6.73254,-8.489034 z m -25.98875,0.141111 h 2.31742 a 9.6293267,9.9391742 0 0 0 6.87154,8.435685 l -6.06349,0.04563 -0.002,-0.396658 -1.35844,0.0075 0.002,0.398069 -7.5427,0.05699 a 9.3179143,9.6177413 0 0 0 5.77567,-8.54801 z" /></g><g
     inkscape:label="Layer 1"
     inkscape:groupmode="layer"
     id="layer1"
     transform="translate(466.5422,-85.186024)"
     style="display:inline"><g
       id="g18707-7-3"
       inkscape:label="tank"
       style="display:inline"
       transform="matrix(1.3585265,0,0,1.3585265,-17.505845,-171.18384)"><g
         id="g1374-2-1"
         inkscape:label="turret"
         transform="translate(-24.077083,-26.061458)"><rect
           style="display:inline;fill:#1a1a1a;fill-opacity:1;stroke:none;stroke-width:0.838618"
           id="rect11646-5-0"
           width="20.065266"
           height="9.447978"
           x="-239.13681"
           y="239.60612" /><rect
           style="display:inline;fill:#24272c;fill-opacity:1;stroke:none;stroke-width:1"
           id="rect7831-1-3"
           width="21.258883"
           height="1.6973779"
           x="-238.56358"
           y="212.20888"
           rx="0.5"
           ry="0.5"
           transform="translate(24.077082,26.061459)" /><circle
           style="display:inline;fill:#2b3035;fill-opacity:1;stroke:none;stroke-width:1"
           id="path3591-7-2"
           cx="-241.30113"
           cy="212.40677"
           r="3.5312986"
           transform="translate(24.077082,26.061459)" /><path
           style="display:inline;fill:#424951;fill-opacity:1;stroke:none;stroke-width:0.264583px;stroke-linecap:butt;stroke-linejoin:miter;stroke-opacity:1"
           d="m -272.70864,209.53028 -1.30962,8.60608 h 10.10279 l 3.3992,-0.81029 -0.45255,-9.47959 h -2.24507 z"
           id="path3533-1-0"
           transform="translate(24.077082,26.061459)"
           sodipodi:nodetypes="ccccccc" /><path
           style="fill:url(#linearGradient671);fill-opacity:1;stroke:none;stroke-width:0.283355px;stroke-linecap:butt;stroke-linejoin:miter;stroke-opacity:1"
           d="m -236.89174,231.70125 v 2.55258 l 15.24772,0.18328 v -4.13062 h -13.9381 z"
           id="path3599-5-0" /><path
           style="display:inline;fill:#2f343a;fill-opacity:1;stroke:none;stroke-width:0.264583px;stroke-linecap:butt;stroke-linejoin:miter;stroke-opacity:1"
           d="m -245.7211,207.84648 4.41997,0.56127 1.42656,9.54152 -3.27406,0.31938 -4.55574,-1.5265 -0.0861,-8.2456 z"
           id="path3596-0-1"
           transform="translate(24.077082,26.061459)"
           sodipodi:nodetypes="ccccccc" /><path
           style="display:inline;fill:#373d44;fill-opacity:1;stroke:none;stroke-width:0.264583px;stroke-linecap:butt;stroke-linejoin:miter;stroke-opacity:1"
           d="m -263.21389,207.84648 h 17.49279 l 2.57247,10.42217 -20.76684,-0.13229 z"
           id="path3535-0-7"
           transform="translate(24.077082,26.061459)" /><rect
           style="display:inline;fill:#2b3035;fill-opacity:1;stroke:none;stroke-width:1"
           id="rect7829-0-9"
           width="3.7844508"
           height="4.6963539"
           x="-239.66206"
           y="210.05859"
           rx="1"
           ry="1"
           inkscape:transform-center-x="0.92604167"
           inkscape:transform-center-y="0.52916667"
           transform="translate(24.077082,26.061459)" /></g><g
         id="g10486-4-7"
         inkscape:label="hull"
         style="display:inline;stroke:none"><path
           style="fill:#31363c;fill-opacity:1;stroke:none;stroke-width:0.264583px;stroke-linecap:butt;stroke-linejoin:miter;stroke-opacity:1"
           d="m -296.4689,226.68099 1.26285,10.47697 11.97368,1.49671 h 16.51622 l 18.28227,-0.18709 16.08962,0.0935 15.52836,-4.11595 2.33861,-9.26089 -4.39658,-1.42697 z"
           id="path10488-9-0" /><path
           style="fill:#424951;fill-opacity:1;stroke:none;stroke-width:0.264583px;stroke-linecap:butt;stroke-linejoin:miter;stroke-opacity:1"
           d="m -271.72642,226.36826 -24.74248,0.8419 1.21608,-5.00462 8.5593,-2.57247 h 19.36368 l 0.61369,5.88464 z"
           id="path8473-0-4"
           sodipodi:nodetypes="ccccccc" /><path
           style="fill:#2b3035;fill-opacity:1;stroke:none;stroke-width:0.264583px;stroke-linecap:butt;stroke-linejoin:miter;stroke-opacity:1"
           d="m -268.05509,218.751 36.41242,-0.14692 2.19829,5.6824 -42.28204,2.08178 z"
           id="path8471-6-8" /></g><g
         id="g18331-8-8"
         inkscape:label="track"><g
           id="g18369-4-4"
           inkscape:label="wheels"><g
             id="g18101-5-9"
             transform="matrix(1.0756425,0,0,1.0756425,14.905276,-40.278469)"><ellipse
               style="display:inline;fill:#242822;fill-opacity:1;stroke:none;stroke-width:1.09339"
               id="path11784-9-09-2"
               cx="-262.01593"
               cy="258.5636"
               rx="6.5896125"
               ry="6.8016496" /><ellipse
               style="fill:#4c5155;fill-opacity:1;stroke:none;stroke-width:1.01262"
               id="path11784-95-1"
               cx="-262.01593"
               cy="258.5636"
               rx="6.1028194"
               ry="6.2991924" /><circle
               style="fill:#1a1a1a;fill-opacity:1;stroke:none;stroke-width:1"
               id="path17020-93-6"
               cx="-262.01593"
               cy="258.5636"
               r="3.3072915" /><ellipse
               style="fill:#4c5155;fill-opacity:1;stroke:none;stroke-width:1"
               id="path17816-26-8"
               cx="-262.01593"
               cy="258.5636"
               rx="2.5882938"
               ry="2.4787905" /><circle
               style="fill:#1a1a1a;fill-opacity:1;stroke:none;stroke-width:1"
               id="path17818-9-5"
               cx="-262.01593"
               cy="258.5636"
               r="0.51449382" /></g><g
             id="g18101-8-5-9"
             transform="matrix(1.1730808,0,0,1.1730808,58.451528,-66.025878)"
             style="display:inline"><ellipse
               style="display:inline;fill:#242822;fill-opacity:1;stroke:none;stroke-width:1.09339"
               id="path11784-9-8-2-2"
               cx="-262.01593"
               cy="258.5636"
               rx="6.5896125"
               ry="6.8016496" /><ellipse
               style="fill:#4c5155;fill-opacity:1;stroke:none;stroke-width:1.01262"
               id="path11784-6-3-7"
               cx="-262.01593"
               cy="258.5636"
               rx="6.1028194"
               ry="6.2991924" /><circle
               style="fill:#1a1a1a;fill-opacity:1;stroke:none;stroke-width:1"
               id="path17020-1-6-7"
               cx="-262.01593"
               cy="258.5636"
               r="3.3072915" /><ellipse
               style="fill:#4c5155;fill-opacity:1;stroke:none;stroke-width:1"
               id="path17816-2-5-2"
               cx="-262.01593"
               cy="258.5636"
               rx="2.5882938"
               ry="2.4787905" /><circle
               style="fill:#1a1a1a;fill-opacity:1;stroke:none;stroke-width:1"
               id="path17818-5-6-8"
               cx="-262.01593"
               cy="258.5636"
               r="0.51449382" /></g><g
             id="g18101-6-1-4"
             transform="matrix(1.2342815,0,0,1.2342815,91.728359,-82.453694)"
             style="display:inline"><ellipse
               style="display:inline;fill:#242822;fill-opacity:1;stroke:none;stroke-width:1.09339"
               id="path11784-9-2-7-1"
               cx="-262.01593"
               cy="258.5636"
               rx="6.5896125"
               ry="6.8016496" /><ellipse
               style="fill:#4c5155;fill-opacity:1;stroke:none;stroke-width:1.01262"
               id="path11784-7-3-3"
               cx="-262.01593"
               cy="258.5636"
               rx="6.1028194"
               ry="6.2991924" /><circle
               style="fill:#1a1a1a;fill-opacity:1;stroke:none;stroke-width:1"
               id="path17020-8-3-8"
               cx="-262.01593"
               cy="258.5636"
               r="3.3072915" /><ellipse
               style="fill:#4c5155;fill-opacity:1;stroke:none;stroke-width:1"
               id="path17816-9-0-2"
               cx="-262.01593"
               cy="258.5636"
               rx="2.5882938"
               ry="2.4787905" /><circle
               style="fill:#1a1a1a;fill-opacity:1;stroke:none;stroke-width:1"
               id="path17818-2-9-4"
               cx="-262.01593"
               cy="258.5636"
               r="0.51449382" /></g><g
             id="g18101-69-8-8"
             transform="matrix(1.0408562,0,0,1.0408562,-9.8080947,-30.730587)"
             style="display:inline"><ellipse
               style="display:inline;fill:#242822;fill-opacity:1;stroke:none;stroke-width:1.09339"
               id="path11784-9-0-6-6"
               cx="-262.01593"
               cy="258.5636"
               rx="6.5896125"
               ry="6.8016496" /><ellipse
               style="fill:#4c5155;fill-opacity:1;stroke:none;stroke-width:1.01262"
               id="path11784-8-1-3"
               cx="-262.01593"
               cy="258.5636"
               rx="6.1028194"
               ry="6.2991924" /><circle
               style="fill:#1a1a1a;fill-opacity:1;stroke:none;stroke-width:1"
               id="path17020-2-4-2"
               cx="-262.01593"
               cy="258.5636"
               r="3.3072915" /><ellipse
               style="fill:#4c5155;fill-opacity:1;stroke:none;stroke-width:1"
               id="path17816-1-5-8"
               cx="-262.01593"
               cy="258.5636"
               rx="2.5882938"
               ry="2.4787905" /><circle
               style="fill:#1a1a1a;fill-opacity:1;stroke:none;stroke-width:1"
               id="path17818-0-8-3"
               cx="-262.01593"
               cy="258.5636"
               r="0.51449382" /></g><g
             id="g18101-3-2-6"
             transform="matrix(0.81888295,0,0,0.81888295,-5.0429333,20.018525)"
             style="display:inline"><ellipse
               style="display:inline;fill:#242822;fill-opacity:1;stroke:none;stroke-width:1.09339"
               id="path11784-9-3-2-2"
               cx="-262.01593"
               cy="258.5636"
               rx="6.5896125"
               ry="6.8016496" /><ellipse
               style="fill:#4c5155;fill-opacity:1;stroke:none;stroke-width:1.01262"
               id="path11784-4-8-0"
               cx="-262.01593"
               cy="258.5636"
               rx="6.1028194"
               ry="6.2991924" /><circle
               style="fill:#1a1a1a;fill-opacity:1;stroke:none;stroke-width:1"
               id="path17020-5-0-2"
               cx="-262.01593"
               cy="258.5636"
               r="3.3072915" /><ellipse
               style="fill:#4c5155;fill-opacity:1;stroke:none;stroke-width:1"
               id="path17816-3-4-2"
               cx="-262.01593"
               cy="258.5636"
               rx="2.5882938"
               ry="2.4787905" /><circle
               style="fill:#1a1a1a;fill-opacity:1;stroke:none;stroke-width:1"
               id="path17818-8-4-4"
               cx="-262.01593"
               cy="258.5636"
               r="0.51449382" /></g><g
             id="g18101-4-7-8"
             transform="matrix(0.74151118,0,0,0.74151118,-99.986369,44.633099)"
             style="display:inline"><ellipse
               style="display:inline;fill:#242822;fill-opacity:1;stroke:none;stroke-width:1.09339"
               id="path11784-9-20-2-1"
               cx="-262.01593"
               cy="258.5636"
               rx="6.5896125"
               ry="6.8016496" /><ellipse
               style="fill:#4c5155;fill-opacity:1;stroke:none;stroke-width:1.01262"
               id="path11784-2-0-0"
               cx="-262.01593"
               cy="258.5636"
               rx="6.1028194"
               ry="6.2991924" /><circle
               style="fill:#1a1a1a;fill-opacity:1;stroke:none;stroke-width:1"
               id="path17020-9-2-4"
               cx="-262.01593"
               cy="258.5636"
               r="3.3072915" /><ellipse
               style="fill:#4c5155;fill-opacity:1;stroke:none;stroke-width:1"
               id="path17816-8-4-5"
               cx="-262.01593"
               cy="258.5636"
               rx="2.5882938"
               ry="2.4787905" /><circle
               style="fill:#1a1a1a;fill-opacity:1;stroke:none;stroke-width:1"
               id="path17818-26-1-4"
               cx="-262.01593"
               cy="258.5636"
               r="0.51449382" /></g></g><path
           style="display:inline;fill:none;stroke:#1a1a1a;stroke-width:1;stroke-linecap:butt;stroke-linejoin:miter;stroke-dasharray:none;stroke-opacity:1"
           d="m -295.48668,231.3174 c 0.56127,-0.0848 74.46129,-5.69749 74.46129,-5.69749 l 3.54159,0.56218 c 0,0 1.60653,0.78833 2.21138,1.63611 0.53031,0.7433 0.95709,1.80252 1.06523,2.70918 0.11382,0.95424 0.15982,1.93539 0,2.88301 -0.12471,0.73944 -0.73782,2.12522 -0.73782,2.12522 l -3.64823,2.86133 -9.44798,5.83829 -2.99681,0.84649 -52.84915,0.39476 -12.83932,-4.44466 c 0,0 -1.93077,-1.24285 -2.43388,-2.21853 -0.56196,-1.08982 -0.69129,-2.45124 -0.44225,-3.65186 0.20059,-0.96702 0.7734,-1.88454 1.49671,-2.55699 0.71246,-0.66236 2.61924,-1.28704 2.61924,-1.28704 l -0.19763,-1.30807 m 5.47275,0.89028 -0.10212,-1.31897 m 5.37813,0.91219 -0.1014,-1.31903 m 5.37755,0.91415 -0.10107,-1.31905 m 5.3773,0.91517 -0.10088,-1.31907 m 5.37717,0.91583 -0.10075,-1.31908 m 5.37706,0.9163 -0.10065,-1.31908 m 5.37699,0.91666 -0.10056,-1.31908 m 5.37693,0.91695 -0.1005,-1.31909 m 5.37688,0.91721 -0.10044,-1.3191 m 5.37684,0.91742 -0.10039,-1.3191 m 5.3768,0.91761 -0.10035,-1.31911 m 5.37678,0.91779 -0.10031,-1.31911 m 5.37675,0.91796 -0.10026,-1.31911 m 5.37672,0.91816 -0.10021,-1.31912 m 5.19749,2.38954 0.72061,-1.10943 m 1.66235,5.58922 1.31909,-0.10065 m -2.78327,4.93731 0.81642,1.04094 m -5.07542,2.08829 0.69542,1.12539 m -5.19697,1.6563 0.69542,1.12539 m -5.30515,1.41037 0.35961,1.27311 m -5.57041,-0.66647 0.01,1.32288 m -5.3014,-1.28335 0.01,1.32288 m -5.3014,-1.28336 0.01,1.32288 m -5.3014,-1.28335 0.01,1.32288 m -5.3014,-1.28336 0.01,1.32288 m -5.3014,-1.28335 0.01,1.32288 m -5.3014,-1.28336 0.01,1.32288 m -5.3014,-1.28335 0.01,1.32288 m -5.3014,-1.28336 0.01,1.32288 m -5.3014,-1.28335 0.01,1.32288 m -5.12474,-2.35824 -0.43276,1.25013 m -4.56776,-2.98119 -0.43276,1.25013 m -4.54419,-3.02877 -0.74427,1.0937 m -2.06803,-5.29032 -1.32047,0.0804 m 3.51259,-4.60623 -0.6587,-1.14727 m 2.69256,0.27126 -0.82642,1.03302"
           id="path18487-0-5"
           sodipodi:nodetypes="cccsssccccccaaac"
           inkscape:path-effect="#path-effect18489-8-1"
           inkscape:original-d="m -295.48668,231.3174 c 0.56127,-0.0848 74.46129,-5.69749 74.46129,-5.69749 l 3.54159,0.56218 c 0,0 1.60653,0.78833 2.21138,1.63611 0.53031,0.7433 0.95709,1.80252 1.06523,2.70918 0.11382,0.95424 0.15982,1.93539 0,2.88301 -0.12471,0.73944 -0.73782,2.12522 -0.73782,2.12522 l -3.64823,2.86133 -9.44798,5.83829 -2.99681,0.84649 -52.84915,0.39476 -12.83932,-4.44466 c 0,0 -1.93077,-1.24285 -2.43388,-2.21853 -0.56196,-1.08982 -0.69129,-2.45124 -0.44225,-3.65186 0.20059,-0.96702 0.7734,-1.88454 1.49671,-2.55699 0.71246,-0.66236 2.61924,-1.28704 2.61924,-1.28704 z"
           transform="translate(-1.3125e-6)" /><path
           style="display:inline;fill:none;stroke:#1a1a1a;stroke-width:1;stroke-linecap:butt;stroke-linejoin:miter;stroke-dasharray:none;stroke-opacity:1"
           d="m -295.48668,231.3174 c 0.56127,-0.0848 74.46129,-5.69748 74.46129,-5.69748 l 3.54159,0.56218 c 0,0 1.60653,0.78832 2.21138,1.6361 0.53031,0.74331 0.95709,1.80253 1.06523,2.70918 0.11382,0.95425 0.15982,1.9354 0,2.88302 -0.12471,0.73944 -0.73782,2.12522 -0.73782,2.12522 l -3.64823,2.86133 -9.44798,5.83829 -2.99681,0.84649 -52.84915,0.39476 -12.83932,-4.44466 c 0,0 -1.93077,-1.24285 -2.43388,-2.21853 -0.56196,-1.08982 -0.69129,-2.45124 -0.44225,-3.65186 0.20059,-0.96702 0.7734,-1.88454 1.49671,-2.55699 0.71246,-0.66236 2.61924,-1.28704 2.61924,-1.28705 l 0.11858,0.78484 m 7.79452,-1.40636 0.061,0.7914 m 7.85318,-1.39933 0.0607,0.79143 m 7.85372,-1.39699 0.0605,0.79144 m 7.85397,-1.39577 0.0604,0.79145 m 7.85413,-1.39497 0.0603,0.79146 m 7.85425,-1.39438 0.0603,0.79146 m 7.85434,-1.3939 0.0602,0.79146 m 7.85441,-1.3935 0.0602,0.79146 m 7.85448,-1.39311 0.0601,0.79147 m 7.67534,0.0785 -0.43236,0.66566 m 2.64424,6.4411 -0.76253,-0.22042 m -4.78951,5.55935 -0.41725,-0.67523 m -6.33507,4.84776 -0.41725,-0.67523 m -7.1525,2.42681 -0.006,-0.79373 m -7.93135,0.85302 -0.006,-0.79373 m -7.93135,0.85302 -0.006,-0.79373 m -7.93135,0.85302 -0.006,-0.79373 m -7.93135,0.85301 -0.006,-0.79372 m -7.93135,0.85301 -0.006,-0.79373 m -7.93135,0.85302 -0.006,-0.79373 m -7.60919,-1.10714 0.25966,-0.75008 m -7.73688,-1.89408 0.44656,-0.65622 m -2.79704,-6.11594 0.71392,0.34692 m 3.05021,-3.17329 0.79375,0"
           id="path18487-8-7-3"
           sodipodi:nodetypes="cccsssccccccaaac"
           inkscape:path-effect="#path-effect18489-6-1-4"
           inkscape:original-d="m -295.48668,231.3174 c 0.56127,-0.0848 74.46129,-5.69748 74.46129,-5.69748 l 3.54159,0.56218 c 0,0 1.60653,0.78832 2.21138,1.6361 0.53031,0.74331 0.95709,1.80253 1.06523,2.70918 0.11382,0.95425 0.15982,1.9354 0,2.88302 -0.12471,0.73944 -0.73782,2.12522 -0.73782,2.12522 l -3.64823,2.86133 -9.44798,5.83829 -2.99681,0.84649 -52.84915,0.39476 -12.83932,-4.44466 c 0,0 -1.93077,-1.24285 -2.43388,-2.21853 -0.56196,-1.08982 -0.69129,-2.45124 -0.44225,-3.65186 0.20059,-0.96702 0.7734,-1.88454 1.49671,-2.55699 0.71246,-0.66236 2.61924,-1.28704 2.61924,-1.28705 z"
           transform="translate(-1.3125e-6)" /></g></g><rect
       style="fill:#2b3035;fill-opacity:1;stroke:none;stroke-width:6.50855;stroke-linecap:round;paint-order:markers stroke fill"
       id="rect409"
       width="9.4816418"
       height="6.3610148"
       x="-367.4144"
       y="114.93312"
       rx="1"
       ry="1" /><rect
       style="display:inline;fill:#2f343a;fill-opacity:1;stroke:none;stroke-width:5.47284;stroke-linecap:round;paint-order:markers stroke fill"
       id="rect409-6"
       width="7.9728141"
       height="5.3487773"
       x="-366.65997"
       y="115.43924"
       rx="0.84086853"
       ry="0.84086853" /><g
       id="g2238"
       transform="matrix(0.51417162,0,0,0.51417162,-170.39149,95.907713)"><rect
         style="fill:#24272c;fill-opacity:1;stroke:none;stroke-width:4;stroke-linecap:round;paint-order:markers stroke fill"
         id="rect2051"
         width="31.039371"
         height="18.520834"
         x="-457.54636"
         y="62.961025" /><rect
         style="fill:#2b3035;fill-opacity:1;stroke:none;stroke-width:4.30671;stroke-linecap:round;paint-order:markers stroke fill"
         id="rect2053"
         width="2.8784318"
         height="21.515192"
         x="-427.9462"
         y="61.463844"
         rx="1"
         ry="1.1592327" /><rect
         style="display:inline;fill:#2b3035;fill-opacity:1;stroke:none;stroke-width:4.30671;stroke-linecap:round;paint-order:markers stroke fill"
         id="rect2053-9"
         width="2.8784318"
         height="21.515192"
         x="-458.98557"
         y="61.463844"
         rx="1"
         ry="1.1592327" /><rect
         style="display:inline;fill:#2b3035;fill-opacity:1;stroke:none;stroke-width:4.30671;stroke-linecap:round;paint-order:markers stroke fill"
         id="rect2053-9-5"
         width="2.8784318"
         height="21.515192"
         x="-448.6391"
         y="61.463844"
         rx="1"
         ry="1.1592327" /><rect
         style="display:inline;fill:#2b3035;fill-opacity:1;stroke:none;stroke-width:4.30671;stroke-linecap:round;paint-order:markers stroke fill"
         id="rect2053-9-0"
         width="2.8784318"
         height="21.515192"
         x="-438.29266"
         y="61.463844"
         rx="1"
         ry="1.1592327" /></g></g></svg>
