<?xml version="1.0" encoding="UTF-8" standalone="no"?>
<!-- Created with Inkscape (http://www.inkscape.org/) -->

<svg
   xmlns:dc="http://purl.org/dc/elements/1.1/"
   xmlns:cc="http://creativecommons.org/ns#"
   xmlns:rdf="http://www.w3.org/1999/02/22-rdf-syntax-ns#"
   xmlns:svg="http://www.w3.org/2000/svg"
   xmlns="http://www.w3.org/2000/svg"
   xmlns:xlink="http://www.w3.org/1999/xlink"
   version="1.0"
   width="600"
   height="660"
   id="svg2">
  <desc
     id="desc4">Flag of Canton of Valais (Wallis)</desc>
  <metadata
     id="metadata1010">
    <rdf:RDF>
      <cc:Work
         rdf:about="">
        <dc:format>image/svg+xml</dc:format>
        <dc:type
           rdf:resource="http://purl.org/dc/dcmitype/StillImage" />
        <dc:title></dc:title>
      </cc:Work>
    </rdf:RDF>
  </metadata>
  <defs
     id="defs6">
    <linearGradient
       id="linearGradient2893-5">
      <stop
         id="stop2895-2"
         style="stop-color:#ffffff;stop-opacity:0.3137255"
         offset="0" />
      <stop
         id="stop2897-7"
         style="stop-color:#ffffff;stop-opacity:0.25098041"
         offset="0.24000001" />
      <stop
         id="stop2901-6"
         style="stop-color:#6b6b6b;stop-opacity:0.1254902"
         offset="0.60000002" />
      <stop
         id="stop2899-1"
         style="stop-color:#000000;stop-opacity:0.1254902"
         offset="1" />
    </linearGradient>
    <radialGradient
       cx="285.18573"
       cy="200.44757"
       r="300"
       fx="285.18573"
       fy="200.44757"
       id="radialGradient5727"
       xlink:href="#linearGradient2893-5"
       gradientUnits="userSpaceOnUse"
       gradientTransform="matrix(1.551284,0,0,1.350335,-227.89432,-51.263532)" />
  </defs>
  <path
     d="m 300.00003,658.5 c 0,-38.5041 31.20319,-69.75372 69.65,-69.75372 38.44681,0 120.75318,0 159.19998,0 38.4468,0 69.6501,-31.24962 69.6501,-69.75362 l 0,-517.4929791 L 1.50001,1.4997008 1.5,518.99266 c 0,38.504 31.203191,69.75334 69.65,69.75334 38.44682,0 120.75322,2.8e-4 159.20003,2.8e-4 38.44681,0 69.65,31.24962 69.65,69.75372 z"
     id="path7296"
     style="color:#000000;fill:#2b5df2;fill-opacity:1;fill-rule:nonzero;stroke:none;stroke-width:1.99999988;marker:none;visibility:visible;display:inline;overflow:visible;enable-background:accumulate" />
  <g
     id="g4729"
     style="fill:#ffffff" />
  <g
     id="layer2" />
  <path
     d="m 300.00003,658.5 c 0,-38.5041 31.20319,-69.75372 69.65,-69.75372 38.44681,0 120.75318,0 159.19998,0 38.4468,0 69.6501,-31.24962 69.6501,-69.75362 l 0,-517.4929791 L 1.50001,1.4997008 1.5,518.99266 c 0,38.504 31.203191,69.75334 69.65,69.75334 38.44682,0 120.75322,2.8e-4 159.20003,2.8e-4 38.44681,0 69.65,31.24962 69.65,69.75372 z"
     id="path1572"
     style="fill:none;stroke:#000000;stroke-width:3.00000191;stroke-linecap:round;stroke-linejoin:round;stroke-miterlimit:4;stroke-opacity:1;stroke-dasharray:none;stroke-dashoffset:0" />
  <g
     transform="matrix(1.2015203,0,0,1.2169139,-41.746566,-227.62249)"
     id="g3611">
    <use
       transform="matrix(-1,0,0,1,571.69046,0)"
       id="use3215"
       x="0"
       y="0"
       width="595.28003"
       height="841.89001"
       xlink:href="#g81" />
    <use
       transform="matrix(-1,0,0,1,590.32934,8.936629e-8)"
       id="use3194"
       x="0"
       y="0"
       width="595.28003"
       height="841.89001"
       xlink:href="#g43" />
    <g
       transform="translate(160,0)"
       id="g3182">
      <path
         d="m 79.799,355.606 c 29.188,46.598 29.727,132.597 47.563,184.52 5.548,16.118 20.638,44.615 20.638,44.615 0,0 -6.172,-4.164 -9.286,-7.224 -7.219,-7.167 -12.769,-13.2 -16.533,-22.633 -3.992,-10 -13.986,-29.941 -17.468,-44.898 L 66.068,343.964 c 0,0 10.843,7.053 13.731,11.642 l 0,0 0,0 z"
         id="path35"
         style="fill:#fcef3c;stroke:#1d1c1b;stroke-width:0.82699811;stroke-miterlimit:10" />
      <path
         d="m 90.217,358.099 c 29.189,46.569 29.726,132.569 47.562,184.492 5.55,16.118 20.64,44.643 20.64,44.643 0,0 -6.172,-4.192 -9.286,-7.251 -7.22,-7.167 -12.769,-13.201 -16.534,-22.634 -3.991,-9.999 -13.504,-40.082 -13.504,-40.082 L 76.487,346.457 c -10e-4,0 10.842,7.024 13.73,11.642 l 0,0 z"
         id="path37"
         style="fill:#fcef3c;stroke:#1d1c1b;stroke-width:0.82699811;stroke-miterlimit:10" />
      <path
         d="m 100.918,359.912 c 29.189,46.569 29.727,132.597 47.563,184.52 5.549,16.09 20.639,44.615 20.639,44.615 0,0 -6.172,-4.164 -9.286,-7.252 -7.191,-7.139 -12.769,-13.172 -16.533,-22.633 -3.992,-10 -13.505,-40.055 -13.505,-40.055 L 87.188,348.27 c 0,0 10.871,7.053 13.73,11.642 l 0,0 z"
         id="path39"
         style="fill:#fcef3c;stroke:#1d1c1b;stroke-width:0.82699811;stroke-miterlimit:10" />
      <path
         d="m 111.733,363.283 c 29.188,46.597 29.727,132.597 47.563,184.52 5.521,16.09 20.639,44.614 20.639,44.614 0,0 -6.2,-4.164 -9.286,-7.251 -7.219,-7.139 -12.768,-13.172 -16.562,-22.633 -3.992,-9.972 -13.476,-40.055 -13.476,-40.055 L 97.974,351.64 c 0,0 10.872,7.054 13.759,11.643 l 0,0 z"
         id="path41"
         style="fill:#fcef3c;stroke:#1d1c1b;stroke-width:0.82699811;stroke-miterlimit:10" />
    </g>
    <g
       transform="translate(-220,0)"
       id="g81">
      <path
         d="m 640.206,393.082 c -3.227,27.506 -1.33,61.412 -2.236,89.003 -0.113,3.314 1.841,25.636 1.841,25.636 0,0 -5.352,0.935 -7.39,0.17 -3.058,-1.161 -5.577,-9.914 -6.88,-12.605 -2.18,-4.589 -5.181,-21.5 -5.775,-26.004 -3.511,-26.032 -3.341,-61.384 -0.708,-87.643 1.076,-10.679 7.446,-35.21 7.446,-35.21 l 14.495,9.631 c 0,0 2.463,16.515 2.01,23.625 -0.254,4.078 -2.321,9.347 -2.803,13.397 l 0,0 0,0 z"
         id="path83"
         style="fill:#fcef3c;stroke:#1d1c1b;stroke-width:1.24049711;stroke-miterlimit:10" />
      <path
         d="m 657.958,387.983 c -3.228,27.505 -3.369,88.096 -6.597,115.63 -0.312,2.69 1.84,25.607 1.84,25.607 0,0 -5.351,0.935 -7.36,0.17 -3.058,-1.161 -5.805,-11.671 -7.078,-14.391 -2.18,-4.561 -5.011,-19.687 -5.605,-24.19 -3.482,-26.061 1.019,-88.011 3.652,-114.242 1.104,-10.708 7.445,-35.238 7.445,-35.238 l 14.495,9.631 c 0,0 2.463,16.515 2.011,23.625 -0.255,4.079 -2.323,9.348 -2.803,13.398 l 0,0 0,0 z"
         id="path85"
         style="fill:#fcef3c;stroke:#1d1c1b;stroke-width:1.24049711;stroke-miterlimit:10" />
      <path
         d="m 674.604,387.105 c -3.228,27.505 -6.767,103.251 -10.022,130.756 -0.312,2.72 1.869,25.636 1.869,25.636 0,0 -5.38,0.935 -7.39,0.17 -3.058,-1.161 -4.982,-9.291 -6.285,-12.011 -2.18,-4.561 -5.775,-22.095 -6.398,-26.599 -3.481,-26.032 4.445,-103.137 7.078,-129.396 1.104,-10.679 7.446,-35.21 7.446,-35.21 l 14.495,9.631 c 0,0 2.463,16.514 2.01,23.625 -0.255,4.05 -2.321,9.319 -2.803,13.398 l 0,0 0,0 z"
         id="path87"
         style="fill:#fcef3c;stroke:#1d1c1b;stroke-width:1.24049711;stroke-miterlimit:10" />
      <path
         d="m 690.629,387.134 c -3.228,27.505 -6.965,118.575 -10.192,146.081 -0.312,2.69 1.84,25.607 1.84,25.607 0,0 -5.351,0.963 -7.36,0.17 -3.058,-1.162 -5.634,-9.604 -6.908,-12.322 -2.18,-4.561 -5.152,-21.755 -5.775,-26.259 -3.482,-26.061 4.615,-118.462 7.276,-144.693 1.075,-10.707 7.417,-35.238 7.417,-35.238 l 14.495,9.631 c 0,0 2.464,16.514 2.011,23.625 -0.228,4.078 -2.324,9.347 -2.804,13.398 l 0,0 0,0 z"
         id="path89"
         style="fill:#fcef3c;stroke:#1d1c1b;stroke-width:1.24049711;stroke-miterlimit:10" />
      <path
         d="m 704.671,385.179 c -3.228,27.505 -5.124,135.374 -8.352,162.907 -0.312,2.691 1.84,25.607 1.84,25.607 0,0 -4.926,-0.227 -6.937,-0.991 -3.058,-1.161 -6.397,-12.294 -7.7,-15.014 -2.18,-4.561 -4.784,-17.902 -5.407,-22.406 -3.482,-26.061 2.774,-135.288 5.407,-161.547 1.076,-10.679 7.445,-35.21 7.445,-35.21 l 14.496,9.631 c 0,0 2.435,16.514 2.01,23.625 -0.254,4.079 -2.321,9.347 -2.802,13.398 l 0,0 0,0 z"
         id="path91"
         style="fill:#fcef3c;stroke:#1d1c1b;stroke-width:1.24049711;stroke-miterlimit:10" />
      <path
         d="m 719.053,385.406 c -3.228,27.505 -3.284,145.996 -6.512,173.501 -0.312,2.69 1.841,25.607 1.841,25.607 0,0 -5.352,0.963 -7.361,0.17 -3.058,-1.162 -5.294,-9.575 -6.568,-12.294 -2.208,-4.561 -5.492,-21.783 -6.115,-26.287 -3.481,-26.061 0.935,-145.883 3.596,-172.142 1.076,-10.679 7.418,-35.21 7.418,-35.21 l 14.495,9.631 c 0,0 2.463,16.514 2.01,23.625 -0.228,4.079 -2.323,9.348 -2.804,13.399 l 0,0 0,0 z"
         id="path93"
         style="fill:#fcef3c;stroke:#1d1c1b;stroke-width:1.24049711;stroke-miterlimit:10" />
      <path
         d="m 732.303,384.896 c -3.228,27.505 -3.596,156.505 -6.852,184.01 -0.312,2.72 -2.888,9.688 -3.284,12.379 -0.368,2.521 -0.368,5.608 0.481,8.045 0.651,1.897 4.671,5.184 4.671,5.184 0,0 -5.379,0.963 -7.389,0.198 -3.058,-1.161 -6.03,-4.617 -7.333,-7.337 -2.18,-4.561 -4.728,-26.769 -5.322,-31.272 -3.511,-26.032 1.246,-156.392 3.879,-182.623 1.075,-10.708 7.445,-35.238 7.445,-35.238 l 14.495,9.631 c 0,0 2.464,16.514 2.011,23.624 -0.254,4.079 -2.321,9.348 -2.802,13.399 l 0,0 0,0 z"
         id="path95"
         style="fill:#fcef3c;stroke:#1d1c1b;stroke-width:1.24049711;stroke-miterlimit:10" />
      <path
         d="m 485.062,400.759 c 0,0 6.795,29.46 7.785,42.349 0.34,4.674 0.709,9.376 -1.16,13.823 -1.16,2.833 -6.427,9.688 -6.427,9.688 0,0 -6.567,-5.354 -8.267,-7.138 -2.916,-3.031 -3.058,-5.185 -4.077,-9.064 -3.765,-14.391 -8.068,-48.779 -8.068,-48.779 l 7.474,-17.449 12.74,16.57 0,0 0,0 z"
         id="path97"
         style="fill:#fcef3c;stroke:#1d1c1b;stroke-width:1.24049711;stroke-miterlimit:10" />
      <path
         d="m 503.719,400.702 c 0,0 6.794,29.46 7.757,42.349 0.368,4.674 0.708,9.376 -1.133,13.823 -1.16,2.833 -6.426,9.688 -6.426,9.688 0,0 -6.597,-5.354 -8.268,-7.109 -2.916,-3.031 -3.086,-5.185 -4.104,-9.093 -3.766,-14.362 -8.04,-48.751 -8.04,-48.751 l 7.474,-17.478 12.74,16.571 0,0 0,0 z"
         id="path99"
         style="fill:#fcef3c;stroke:#1d1c1b;stroke-width:1.24049711;stroke-miterlimit:10" />
      <path
         d="m 522.546,400.929 c 0,0 6.822,29.488 7.785,42.349 0.368,4.674 0.708,9.404 -1.133,13.823 -1.188,2.833 -6.454,9.688 -6.454,9.688 0,0 -6.568,-5.354 -8.267,-7.109 -2.889,-3.031 -3.059,-5.185 -4.078,-9.093 -3.765,-14.362 -8.039,-48.75 -8.039,-48.75 l 7.474,-17.478 12.712,16.57 0,0 0,0 z"
         id="path101"
         style="fill:#fcef3c;stroke:#1d1c1b;stroke-width:1.24049711;stroke-miterlimit:10" />
      <path
         d="m 541.146,400.277 c 0,0 6.823,29.46 7.786,42.349 0.34,4.674 0.708,9.376 -1.133,13.823 -1.188,2.833 -6.455,9.688 -6.455,9.688 0,0 -6.567,-5.354 -8.267,-7.109 -2.916,-3.031 -6.172,-9.377 -7.19,-13.258 -3.766,-14.39 -4.955,-44.586 -4.955,-44.586 l 7.475,-17.478 12.739,16.571 0,0 0,0 z"
         id="path103"
         style="fill:#fcef3c;stroke:#1d1c1b;stroke-width:1.24049711;stroke-miterlimit:10" />
      <path
         d="m 559.774,399.314 c 0,0 6.795,29.489 7.758,42.348 0.368,4.675 0.707,9.405 -1.133,13.853 -1.161,2.804 -6.427,9.688 -6.427,9.688 0,0 -5.351,-6.657 -7.049,-8.413 -2.888,-3.031 -7.106,-9.178 -8.126,-13.087 -3.766,-14.361 -5.237,-43.481 -5.237,-43.481 l 7.474,-17.478 12.74,16.57 0,0 0,0 z"
         id="path105"
         style="fill:#fcef3c;stroke:#1d1c1b;stroke-width:1.24049711;stroke-miterlimit:10" />
      <path
         d="m 577.327,395.122 c 0,0 6.795,29.46 7.786,42.349 0.34,4.674 0.68,9.376 -1.161,13.823 -1.16,2.832 -6.427,9.688 -6.427,9.688 0,0 -4.671,-5.948 -6.342,-7.705 -2.916,-3.03 -8.521,-10.99 -9.54,-14.871 -3.766,-14.391 -4.53,-42.377 -4.53,-42.377 l 7.475,-17.478 12.739,16.571 0,0 0,0 z"
         id="path107"
         style="fill:#fcef3c;stroke:#1d1c1b;stroke-width:1.24049711;stroke-miterlimit:10" />
      <path
         d="m 594.966,389.74 c 0,0 6.822,29.46 7.785,42.348 0.368,4.674 0.708,9.376 -1.133,13.824 -1.16,2.832 -6.427,9.688 -6.427,9.688 0,0 -4.954,-6.94 -6.652,-8.696 -2.888,-3.06 -7.758,-8.441 -8.776,-12.351 -3.766,-14.361 -4.983,-43.907 -4.983,-43.907 l 7.475,-17.478 12.711,16.572 0,0 0,0 z"
         id="path109"
         style="fill:#fcef3c;stroke:#1d1c1b;stroke-width:1.24049711;stroke-miterlimit:10" />
      <path
         d="m 612.745,382.885 c 0,0 6.822,29.488 7.785,42.349 0.368,4.674 0.708,9.404 -1.133,13.852 -1.188,2.805 -6.426,9.688 -6.426,9.688 0,0 -5.352,-6.628 -7.05,-8.413 -2.916,-3.031 -7.135,-8.3 -8.153,-12.181 -3.766,-14.39 -5.21,-44.388 -5.21,-44.388 l 7.475,-17.478 12.712,16.571 0,0 0,0 z"
         id="path111"
         style="fill:#fcef3c;stroke:#1d1c1b;stroke-width:1.24049711;stroke-miterlimit:10" />
      <path
         d="m 629.562,371.922 c 0,0 6.795,29.488 7.757,42.348 0.368,4.674 0.708,9.404 -1.132,13.823 -1.161,2.833 -6.427,9.688 -6.427,9.688 0,0 -6.597,-5.354 -8.267,-7.11 -2.916,-3.031 -5.775,-6.09 -6.795,-9.971 -3.766,-14.39 -3.341,-48.75 -3.341,-48.75 l 5.464,-16.6 12.741,16.572 0,0 0,0 z"
         id="path113"
         style="fill:#fcef3c;stroke:#1d1c1b;stroke-width:1.24049711;stroke-miterlimit:10" />
      <path
         d="m 646.859,362.716 c 0,0 6.823,29.488 7.786,42.349 0.34,4.674 0.707,9.404 -1.133,13.852 -1.189,2.805 -6.455,9.688 -6.455,9.688 0,0 -5.322,-6.968 -6.993,-8.752 -2.916,-3.031 -6.766,-5.552 -7.785,-9.433 -3.766,-14.39 -2.859,-48.099 -2.859,-48.099 l 4.728,-16.174 12.711,16.569 0,0 0,0 z"
         id="path115"
         style="fill:#fcef3c;stroke:#1d1c1b;stroke-width:1.24049711;stroke-miterlimit:10" />
      <path
         d="m 664.44,354.417 c 0,0 6.795,29.488 7.758,42.348 0.368,4.674 0.708,9.405 -1.133,13.824 -1.16,2.833 -10.418,10.113 -10.418,10.113 0,0 -0.963,-7.365 -2.662,-9.122 -2.888,-3.031 -6.086,-6.685 -7.105,-10.566 -3.766,-14.39 -6.653,-45.691 -6.653,-45.691 l 7.475,-17.478 12.738,16.572 0,0 z"
         id="path117"
         style="fill:#fcef3c;stroke:#1d1c1b;stroke-width:1.24049711;stroke-miterlimit:10" />
      <path
         d="m 682.163,348.156 c 0,0 6.795,29.488 7.786,42.348 0.34,4.674 0.68,9.405 -1.161,13.852 -1.16,2.804 -3.963,9.914 -3.963,9.914 0,0 -7.475,-6.515 -9.145,-8.3 -2.916,-3.031 -5.662,-4.022 -6.682,-7.931 -1.076,-4.107 -3.426,-10.113 -4.502,-16.231 -2.604,-15.268 -2.548,-32.746 -2.548,-32.746 l 7.475,-17.478 12.74,16.572 0,0 0,0 z"
         id="path119"
         style="fill:#fcef3c;stroke:#1d1c1b;stroke-width:1.24049711;stroke-miterlimit:10" />
      <path
         d="m 699.802,343.085 c 0,0 6.794,29.46 7.757,42.349 0.368,4.674 0.708,9.376 -1.133,13.823 -1.16,2.833 -2.491,10.368 -2.491,10.368 0,0 -8.55,-7.28 -10.22,-9.036 -2.916,-3.031 -6.597,-10.113 -7.616,-13.993 -3.766,-14.39 -6.512,-42.632 -6.512,-42.632 l 7.475,-17.449 12.74,16.57 0,0 0,0 z"
         id="path121"
         style="fill:#fcef3c;stroke:#1d1c1b;stroke-width:1.24049711;stroke-miterlimit:10" />
      <path
         d="m 718.034,338.61 c 0,0 6.822,29.46 7.785,42.349 0.34,4.674 0.708,9.376 -1.133,13.823 -1.188,2.833 -5.832,13.852 -5.832,13.852 0,0 -4.331,-8.356 -6.03,-10.113 -2.888,-3.031 -5.917,-6.374 -6.936,-10.254 -3.766,-14.39 -8.069,-48.778 -8.069,-48.778 l 7.475,-17.449 12.74,16.57 0,0 0,0 z"
         id="path123"
         style="fill:#fcef3c;stroke:#1d1c1b;stroke-width:1.24049711;stroke-miterlimit:10" />
      <path
         d="m 483.815,339.743 c 0,0 6.824,29.488 7.786,42.348 0.368,4.674 0.708,9.405 -1.132,13.852 -1.189,2.804 -6.428,9.688 -6.428,9.688 0,0 -6.596,-5.382 -8.295,-7.138 -2.888,-3.031 -3.057,-5.184 -4.076,-9.064 -3.766,-14.39 -8.041,-48.779 -8.041,-48.779 l 7.475,-17.478 12.711,16.571 0,0 z"
         id="path125"
         style="fill:#fcef3c;stroke:#1d1c1b;stroke-width:1.24049711;stroke-miterlimit:10" />
      <path
         d="m 502.474,339.687 c 0,0 6.822,29.488 7.785,42.348 0.34,4.674 0.707,9.405 -1.133,13.852 -1.189,2.804 -6.455,9.688 -6.455,9.688 0,0 -6.568,-5.354 -8.267,-7.138 -2.888,-3.031 -3.058,-5.184 -4.077,-9.064 -3.766,-14.39 -8.068,-48.779 -8.068,-48.779 l 7.475,-17.478 12.74,16.571 0,0 0,0 z"
         id="path127"
         style="fill:#fcef3c;stroke:#1d1c1b;stroke-width:1.24049711;stroke-miterlimit:10" />
      <path
         d="m 521.328,339.941 c 0,0 6.795,29.46 7.785,42.349 0.34,4.674 0.68,9.376 -1.16,13.823 -1.161,2.833 -6.427,9.688 -6.427,9.688 0,0 -6.597,-5.354 -8.267,-7.138 -2.917,-3.031 -3.058,-5.184 -4.077,-9.064 -3.793,-14.39 -8.068,-48.779 -8.068,-48.779 l 7.475,-17.449 12.739,16.57 0,0 z"
         id="path129"
         style="fill:#fcef3c;stroke:#1d1c1b;stroke-width:1.24049711;stroke-miterlimit:10" />
      <path
         d="m 539.9,339.262 c 0,0 6.823,29.488 7.785,42.348 0.368,4.674 0.708,9.405 -1.132,13.852 -1.161,2.804 -6.427,9.688 -6.427,9.688 0,0 -2.973,-6.204 -4.644,-7.988 -2.916,-3.031 -6.342,-7.28 -7.36,-11.161 -3.766,-14.39 -8.097,-46.795 -8.097,-46.795 l 7.162,-16.515 12.713,16.571 0,0 0,0 z"
         id="path131"
         style="fill:#fcef3c;stroke:#1d1c1b;stroke-width:1.24049711;stroke-miterlimit:10" />
      <path
         d="m 558.529,338.327 c 0,0 6.822,29.488 7.785,42.349 0.34,4.674 0.708,9.404 -1.161,13.823 -1.16,2.833 -6.426,9.688 -6.426,9.688 0,0 -4.927,-6.204 -6.597,-7.96 -2.916,-3.031 -6.512,-10 -7.531,-13.88 -3.765,-14.39 -3.199,-44.077 -3.199,-44.077 l 4.813,-15.665 12.316,15.722 0,0 0,0 z"
         id="path133"
         style="fill:#fcef3c;stroke:#1d1c1b;stroke-width:1.24049711;stroke-miterlimit:10" />
      <path
         d="m 576.082,334.106 c 0,0 6.823,29.488 7.785,42.349 0.368,4.674 0.708,9.404 -1.132,13.852 -1.189,2.804 -6.455,9.688 -6.455,9.688 0,0 -4.275,-5.949 -5.945,-7.705 -2.916,-3.031 -7.984,-10.283 -9.003,-14.163 -3.766,-14.39 -4.049,-43.113 -4.049,-43.113 l 6.852,-13.654 11.947,12.746 0,0 0,0 z"
         id="path135"
         style="fill:#fcef3c;stroke:#1d1c1b;stroke-width:1.24049711;stroke-miterlimit:10" />
      <path
         d="m 593.748,328.724 c 0,0 6.795,29.488 7.785,42.348 0.34,4.674 0.708,9.405 -1.16,13.852 -1.161,2.804 -6.427,9.688 -6.427,9.688 0,0 -4.615,-5.608 -6.313,-7.365 -2.888,-3.031 -7.163,-7.648 -8.182,-11.558 -3.766,-14.361 -2.831,-47.022 -2.831,-47.022 l 4.388,-16.515 12.74,16.572 0,0 0,0 z"
         id="path137"
         style="fill:#fcef3c;stroke:#1d1c1b;stroke-width:1.24049711;stroke-miterlimit:10" />
      <path
         d="m 611.527,321.897 c 0,0 6.795,29.488 7.785,42.348 0.34,4.674 0.68,9.405 -1.16,13.824 -1.161,2.833 -6.427,9.688 -6.427,9.688 0,0 -3.851,-5.042 -5.521,-6.798 -2.916,-3.031 -9.229,-11.642 -10.249,-15.551 -3.766,-14.362 -3.737,-44.558 -3.737,-44.558 l 6.568,-15.523 12.741,16.57 0,0 0,0 z"
         id="path139"
         style="fill:#fcef3c;stroke:#1d1c1b;stroke-width:1.24049711;stroke-miterlimit:10" />
      <path
         d="m 628.315,310.935 c 0,0 6.823,29.46 7.786,42.349 0.34,4.674 0.708,9.376 -1.133,13.823 -1.188,2.833 -6.455,9.688 -6.455,9.688 0,0 -5.266,-5.354 -6.964,-7.11 -2.888,-3.031 -6.795,-7.422 -7.814,-11.303 -3.766,-14.39 -5.634,-46.569 -5.634,-46.569 l 7.503,-17.449 12.711,16.571 0,0 z"
         id="path141"
         style="fill:#fcef3c;stroke:#1d1c1b;stroke-width:1.24049711;stroke-miterlimit:10" />
      <path
         d="m 645.614,301.729 c 0,0 6.822,29.488 7.785,42.349 0.368,4.674 0.708,9.404 -1.133,13.823 -1.16,2.833 -6.426,9.688 -6.426,9.688 0,0 -4.644,-6.26 -6.313,-8.017 -2.916,-3.031 -7.22,-5.269 -8.239,-9.178 -3.765,-14.362 -9.795,-48.212 -9.795,-48.212 l 11.409,-17.024 12.712,16.571 0,0 0,0 z"
         id="path143"
         style="fill:#fcef3c;stroke:#1d1c1b;stroke-width:1.24049711;stroke-miterlimit:10" />
      <path
         d="m 663.195,293.429 c 0,0 6.823,29.46 7.785,42.349 0.34,4.674 0.708,9.376 -1.16,13.823 -1.161,2.833 -6.427,9.688 -6.427,9.688 0,0 -5.719,-6.657 -7.418,-8.413 -2.888,-3.031 -7.983,-6.628 -9.003,-10.538 -1.925,-7.365 -5.634,-19.63 -8.153,-33.114 -2.378,-12.775 -3.596,-26.967 -3.596,-26.967 l 15.231,-3.399 12.741,16.571 0,0 0,0 z"
         id="path145"
         style="fill:#fcef3c;stroke:#1d1c1b;stroke-width:1.24049711;stroke-miterlimit:10" />
      <path
         d="m 680.918,287.169 c 0,0 6.823,29.459 7.785,42.348 0.368,4.674 0.708,9.376 -1.132,13.824 -1.189,2.833 -6.455,9.688 -6.455,9.688 0,0 -4.842,-5.354 -6.512,-7.11 -2.916,-3.031 -3.086,-5.184 -4.105,-9.065 -3.765,-14.39 -9.795,-48.778 -9.795,-48.778 l 7.502,-17.478 12.712,16.571 0,0 0,0 z"
         id="path147"
         style="fill:#fcef3c;stroke:#1d1c1b;stroke-width:1.24049711;stroke-miterlimit:10" />
      <path
         d="m 698.556,282.07 c 0,0 6.823,29.488 7.785,42.349 0.34,4.674 0.708,9.404 -1.132,13.852 -1.189,2.804 -6.455,9.688 -6.455,9.688 0,0 -6.568,-5.382 -8.267,-7.139 -2.888,-3.031 -3.058,-5.184 -4.077,-9.064 -3.766,-14.39 -8.068,-48.778 -8.068,-48.778 l 7.502,-17.478 12.712,16.57 0,0 z"
         id="path149"
         style="fill:#fcef3c;stroke:#1d1c1b;stroke-width:1.24049711;stroke-miterlimit:10" />
      <path
         d="m 716.788,277.594 c 0,0 6.823,29.488 7.785,42.349 0.368,4.674 0.708,9.404 -1.132,13.852 -1.161,2.804 -6.427,9.688 -6.427,9.688 0,0 -6.597,-5.382 -8.295,-7.139 -2.888,-3.031 -3.058,-5.184 -4.077,-9.064 -3.766,-14.39 -8.04,-48.779 -8.04,-48.779 l 7.474,-17.478 12.712,16.571 0,0 0,0 z"
         id="path151"
         style="fill:#fcef3c;stroke:#1d1c1b;stroke-width:1.24049711;stroke-miterlimit:10" />
      <path
         d="m 670.471,254.253 c -3.256,27.534 0.396,29.148 -2.831,56.653 -0.312,2.72 1.841,25.607 1.841,25.607 0,0 -5.267,-1.444 -7.305,-2.238 -3.058,-1.161 -5.039,-6.855 -6.342,-9.574 -2.18,-4.561 -5.804,-22.095 -6.398,-26.599 -3.481,-26.032 -2.774,-29.035 -0.113,-55.265 1.076,-10.679 4.813,-29.63 4.813,-29.63 l 17.128,4.051 c 0,0 2.435,16.486 2.01,23.596 -0.255,4.08 -2.322,9.348 -2.803,13.399 l 0,0 0,0 0,0 z"
         id="path153"
         style="fill:#fcef3c;stroke:#1d1c1b;stroke-width:1.24049711;stroke-miterlimit:10" />
      <path
         d="m 683.777,260.853 c -3.228,27.534 2.944,37.873 -0.283,65.407 -0.34,2.691 6.993,27.392 6.993,27.392 0,0 -8.776,-0.821 -10.787,-1.614 -3.058,-1.162 -7.36,-9.603 -8.663,-12.322 -2.18,-4.561 -5.152,-21.755 -5.747,-26.259 -3.511,-26.061 -5.294,-37.788 -2.633,-64.019 1.076,-10.679 7.417,-35.238 7.417,-35.238 l 14.496,9.659 c 0,0 2.463,16.486 2.038,23.596 -0.254,4.079 -2.349,9.347 -2.831,13.398 l 0,0 0,0 0,0 z"
         id="path155"
         style="fill:#fcef3c;stroke:#1d1c1b;stroke-width:1.24049711;stroke-miterlimit:10" />
      <path
         d="m 699.405,279.011 c -3.256,27.505 3.199,34.587 -0.028,62.092 -0.312,2.72 8.72,28.299 8.72,28.299 0,0 -4.672,-0.539 -8.352,-1.671 -1.784,-0.567 -3.313,-1.955 -3.964,-2.209 -3.058,-1.162 -7.898,-12.067 -9.201,-14.787 -2.18,-4.561 -4.813,-17.931 -5.407,-22.435 -3.482,-26.032 -5.577,-34.474 -2.916,-60.704 1.075,-10.708 7.445,-35.238 7.445,-35.238 l 14.495,9.631 c 0,0 2.436,16.515 2.011,23.625 -0.255,4.077 -2.321,9.346 -2.803,13.397 l 0,0 0,0 z"
         id="path157"
         style="fill:#fcef3c;stroke:#1d1c1b;stroke-width:1.24049711;stroke-miterlimit:10" />
      <path
         d="m 717.213,303.258 c -3.256,27.505 1.613,21.16 -1.614,48.693 -0.34,2.691 1.841,25.607 1.841,25.607 0,0 -5.323,0.057 -7.333,-0.708 -3.086,-1.162 -6.568,-8.951 -7.87,-11.642 -2.181,-4.589 -4.247,-21.557 -4.842,-26.061 -3.481,-26.061 -3.991,-21.075 -1.33,-47.334 1.075,-10.679 7.445,-35.21 7.445,-35.21 l 14.495,9.631 c 0,0 2.436,16.486 2.011,23.625 -0.255,4.052 -2.322,9.32 -2.803,13.399 l 0,0 0,0 0,0 z"
         id="path159"
         style="fill:#fcef3c;stroke:#1d1c1b;stroke-width:1.24049711;stroke-miterlimit:10" />
      <path
         d="m 730.858,337.109 c -3.256,27.533 0.878,-2.663 -2.35,24.842 -0.312,2.691 -2.888,9.688 -3.284,12.379 -0.368,2.521 -0.368,5.608 0.453,8.017 0.68,1.926 4.671,5.212 4.671,5.212 0,0 -5.351,0.963 -7.36,0.198 -3.058,-1.189 -6.03,-4.617 -7.333,-7.336 -2.18,-4.561 -4.728,-26.769 -5.351,-31.273 -3.482,-26.032 -2.18,-24.984 0.481,-51.243 1.076,-10.679 3.143,-27.845 3.143,-27.845 l 17.723,30.055 c 0,0 2.435,16.486 2.01,23.596 -0.255,4.078 -2.321,9.347 -2.803,13.398 l 0,0 0,0 z"
         id="path161"
         style="fill:#fcef3c;stroke:#1d1c1b;stroke-width:1.24049711;stroke-miterlimit:10" />
      <path
         d="m 461.677,355.436 c 21.885,0.793 44.646,0.028 65.144,-1.87 14.835,-1.359 28.85,-3.881 41.08,-7.761 26.046,-8.3 42.296,-33.936 63.501,-49.742 5.323,-3.966 15.146,-7.139 18.317,-12.577 7.616,-13.087 -5.266,-35.295 1.841,-48.581 2.576,-4.787 9.06,-11.954 15.005,-11.755 16.901,0.538 28.594,23.766 38.05,35.975 6.229,8.045 13.42,19.829 15.939,29.347 10.729,40.252 2.944,96.934 2.604,138.489 -0.085,13.455 -5.04,31.782 -1.529,44.756 1.161,4.192 3.992,9.66 7.361,15.212 3.397,-56.88 6.993,-129.142 6.172,-171.575 -0.142,-8.186 -0.453,-19.262 -2.859,-27.108 -5.04,-16.288 -16.393,-36.796 -27.065,-50.677 -9.173,-11.925 -16.704,-26.174 -31.539,-32.207 -3.228,-1.332 -7.559,-2.182 -11.891,-2.437 l 0,0 c -4.331,-0.255 -8.72,0.142 -12.061,1.388 -5.917,2.209 -10.729,9.348 -14.184,14.135 -3.341,4.589 -9.824,13.229 -11.947,26.259 -2.095,13.059 0.17,30.536 -4.671,34.077 0,0 -21.602,12.265 -30.293,18.639 -8.72,6.374 -27.802,23.879 -27.802,23.879 0,0 -18.855,0.567 -26.896,0.113 -10.899,-0.595 -25.141,-3.399 -36.012,-4.164 -12.372,-0.878 -26.98,19.604 -41.532,19.773 l 5.267,18.412 0,0 z"
         id="path163"
         style="fill:#fcef3c;stroke:#1d1c1b;stroke-width:1.24049711;stroke-miterlimit:10" />
    </g>
    <path
       d="m 308.521,310.085 c 0,0 7.22,10.764 9.909,16.543 3.397,7.28 4.927,11.104 7.588,18.667 3.935,11.161 5.832,22.322 6.709,34.105 1.218,16.996 0.538,34.162 -1.047,51.158 -1.303,13.908 -3.029,27.93 -6.937,41.414 -4.926,16.854 -7.615,27.788 -15.458,39.799 -4.161,6.345 -11.862,15.239 -16.222,16.26 -2.236,0.51 -8.947,-3.683 -12.74,-6.487 l 0,0 0,0 c -14.58,-10.792 -20.809,-18.582 -33.917,-35.691 -8.153,-10.623 -19.874,-34.389 -23.668,-47.079 -7.7,-25.806 -10.476,-45.464 -8.267,-72.262 0.934,-11.076 3.539,-22.123 7.785,-32.491 3.341,-8.13 13.703,-22.746 13.703,-22.746"
       id="path3"
       style="fill:#fcef3c;stroke:#1d1c1b;stroke-width:1.24049711;stroke-miterlimit:10" />
    <path
       d="m 303.52156,256.11027 c 5.68057,0.77248 10.7802,2.36912 16.47454,2.04231 8.6124,-0.49428 24.3715,-0.90019 31.79585,-4.8832 5.27874,-2.83193 4.94747,-7.12319 2.13106,-13.3632 -1.85974,5.80674 -5.32857,7.58252 -10.28064,8.34697 -9.805,1.52765 -29.33884,0.17432 -29.33884,0.17432 5.7409,-4.99549 14.18796,-7.78712 23.47001,-8.0834 3.22934,-4.94366 9.24723,-8.0658 14.80415,-7.87658 6.76796,0.23046 11.75941,3.33433 11.75085,11.8567 5.30411,-10.09124 6.86341,-21.44419 -6.16909,-26.47492 -5.90544,-14.73979 -22.06614,-0.53669 -22.06614,-0.53669 l -40.6983,21.26259 -2.80864,14.20606 z"
       id="path5"
       style="fill:#fcef3c;stroke:#1d1c1b;stroke-width:1.24049711;stroke-miterlimit:10" />
    <path
       d="m 308.521,310.085 c -0.82,-2.011 0.029,-3.002 0,-6.487 0,-2.634 -0.027,-5.524 -0.112,-7.563 -0.198,-3.994 -1.02,-11.982 -1.02,-11.982 -0.566,-6.402 -3.086,-13.285 -2.18,-19.63 0.396,-2.861 1.557,-8.187 1.557,-8.187 0,0 -5.945,-1.955 -6.795,-5.099 -0.65,-2.436 -0.142,-5.609 1.728,-7.337 6.822,-6.204 15.84747,-10.226 23.54826,-14.248 5.57285,-2.89 10.60092,-5.32406 14.87531,-10 2.47243,-2.7047 2.90441,-13.46988 -7.7253,-17.449 -5.47655,-1.955 -15.66515,-2.011 -21.35627,-1.048 -11.64749,1.926 -24.433,5.155 -35.814,9.999 l -19.62,8.385 7.616,2.521 c 0,0 -5.266,6.458 -8.295,12.152 -5.238,9.886 -7.559,20.934 -10.305,31.669 -2.662,10.339 -5.776,28.071 -7.446,38.071 -0.765,4.504 -0.368,5.042 -1.218,7.422 l -2.633,7.308 c 0,0 6.2,-1.7 8.606,-3.598 3.369,-2.719 7.248,-9.631 7.248,-9.631 0,0 0.792,5.155 1.925,7.478 1.274,2.521 2.407,6.883 2.407,6.883 0,0 7.049,-4.164 8.606,-6.486 1.302,-1.983 2.888,-6.175 2.888,-6.175 0,0 0.765,5.014 2.067,7.336 1.302,2.294 5.266,6.94 5.266,6.94 0,0 4.983,-4.646 6.483,-7.11 1.359,-2.181 1.982,-7.308 1.982,-7.308 0,0 2.038,4.674 3.001,6.317 1.698,2.889 7.644,6.288 7.644,6.288 0,0 2.831,-4.504 4.417,-7.591 0.906,-1.785 1.529,-5.75 1.529,-5.75 0,0 2.208,4.986 4.644,7.309 2.633,2.521 9.908,5.014 9.908,5.014 l -3.426,-8.413 0,0 0,0 z"
       id="path7"
       style="fill:#fcef3c;stroke:#1d1c1b;stroke-width:1.24049711;stroke-miterlimit:10" />
    <g
       transform="translate(290,0)"
       id="g9">
      <path
         d="m 14.389,267.17 c 0,0 -0.312,4.759 -1.274,6.94 -0.283,0.624 -1.273,1.7 -1.273,1.7 0,0 -0.878,-0.935 -1.133,-1.473 -1.33,-2.72 -2.265,-8.725 -2.265,-8.725 l -0.935,-2.89 -0.906,2.89 c 0,0 -0.481,6.77 -1.897,9.772 -0.453,0.963 -1.699,2.408 -1.699,2.408 0,0 -1.331,-1.785 -1.727,-2.833 -1.246,-3.371 -1.727,-10.594 -1.727,-10.594 l -0.793,-3.258 -1.047,3.258 c 0,0 -0.538,8.13 -2.378,11.727 -0.396,0.793 -1.84,1.983 -1.84,1.983 0,0 -1.897,-1.501 -2.463,-2.549 -2.038,-3.711 -2.888,-12.294 -2.888,-12.294 l -1.019,-2.833 0,0 0,0 -0.765,2.917 c 0,0 -0.424,7.28 -1.727,10.679 -0.481,1.218 -2.18,3.314 -2.18,3.314 0,0 -1.557,-1.785 -1.982,-2.833 -1.331,-3.258 -1.585,-10.311 -1.585,-10.311 l -0.906,-3.06 -0.962,3.06 c 0,0 -0.538,7.336 -2.124,10.623 -0.481,0.935 -2.066,2.408 -2.066,2.408 0,0 -1.246,-1.643 -1.557,-2.578 -1.02,-2.89 -1.076,-9.093 -1.076,-9.093 l -0.736,-3.201 -1.133,3.116 c 0,0 -0.877,6.26 -2.35,9.037 -0.34,0.68 -1.444,1.728 -1.444,1.728 0,0 -1.331,-1.303 -1.699,-2.096 -1.217,-2.691 -1.529,-8.668 -1.529,-8.668 l -0.877,-2.974 -0.991,2.974 c 0,0 -0.254,5.694 -1.613,8.158 -0.255,0.481 -1.246,1.19 -1.246,1.19 0,0 -0.821,-0.624 -1.047,-1.048 -0.849,-1.756 -0.623,-5.807 -0.623,-5.807"
         id="path11"
         style="fill:none;stroke:#1d1c1b;stroke-width:1.24049711;stroke-miterlimit:10" />
      <path
         d="m 17.05,288.585 c 0,0 -0.765,5.269 -1.783,7.45 -0.312,0.623 -1.416,1.699 -1.416,1.699 0,0 -0.963,-0.935 -1.245,-1.473 -1.444,-2.72 -2.464,-8.725 -2.464,-8.725 l -1.047,-2.89 -0.991,2.89 c 0,0 -0.538,6.77 -2.067,9.772 -0.509,0.963 -1.868,2.408 -1.868,2.408 0,0 -1.472,-1.785 -1.869,-2.804 -1.387,-3.399 -1.897,-10.623 -1.897,-10.623 l -0.906,-3.257 -1.133,3.257 c 0,0 -0.594,8.158 -2.604,11.727 -0.453,0.795 -2.01,1.984 -2.01,1.984 0,0 -2.095,-1.501 -2.69,-2.549 -2.265,-3.711 -3.199,-12.294 -3.199,-12.294 l -1.133,-2.833 0,0 0,0 -0.821,2.917 c 0,0 -0.453,7.309 -1.897,10.68 -0.51,1.218 -2.378,3.314 -2.378,3.314 0,0 -1.727,-1.785 -2.18,-2.833 -1.444,-3.258 -1.755,-10.311 -1.755,-10.311 l -0.962,-3.031 -1.076,3.031 c 0,0 -0.566,7.336 -2.322,10.623 -0.509,0.935 -2.265,2.408 -2.265,2.408 0,0 -1.359,-1.643 -1.727,-2.578 -1.076,-2.89 -1.161,-9.093 -1.161,-9.093 l -0.793,-3.201 -1.246,3.116 c 0,0 -0.962,6.26 -2.576,9.036 -0.368,0.68 -1.614,1.728 -1.614,1.728 0,0 -1.416,-1.303 -1.84,-2.096 -1.331,-2.691 -1.699,-8.64 -1.699,-8.64 l -0.962,-2.975 -1.076,2.975 c 0,0 -0.283,5.665 -1.755,8.129 -0.283,0.51 -1.359,1.19 -1.359,1.19 0,0 -0.906,-0.595 -1.161,-1.048 -0.906,-1.756 -1.642,-6.572 -1.642,-6.572"
         id="path13"
         style="fill:none;stroke:#1d1c1b;stroke-width:1.24049711;stroke-miterlimit:10" />
      <path
         d="m -6.307,239.183 0,0 0,0 0,0 -0.765,2.918 c 0,0 -0.17,1.728 -1.5,5.099 -0.481,1.247 -2.18,3.342 -2.18,3.342 0,0 -1.557,-1.784 -1.982,-2.861 -1.302,-3.229 -1.614,-8.725 -1.614,-8.725 l -0.877,-3.031 -0.963,3.031 c 0,0 -0.538,7.365 -2.151,10.623 -0.453,0.935 -2.039,2.408 -2.039,2.408 0,0 -1.246,-1.615 -1.585,-2.549 -0.991,-2.917 -1.047,-9.121 -1.047,-9.121 l -0.736,-3.173 -1.132,3.116 c 0,0 -0.877,6.26 -2.35,9.036 -0.34,0.651 -1.473,1.728 -1.473,1.728 0,0 -1.302,-1.303 -1.67,-2.125 -1.218,-2.663 -1.529,-8.64 -1.529,-8.64 l -0.906,-2.975 -0.962,2.975 c 0,0 -0.255,5.693 -1.614,8.13 -0.255,0.51 -1.246,1.218 -1.246,1.218 0,0 -0.821,-0.623 -1.048,-1.076 -0.849,-1.756 -0.623,-5.779 -0.623,-5.779"
         id="path15"
         style="fill:none;stroke:#1d1c1b;stroke-width:1.24049711;stroke-miterlimit:10" />
      <g
         id="g17">
        <path
           d="m 27.218,327.577 c 0,0 0.028,1.695 0.509,3.645 0.479,1.921 0.987,4.238 0.959,5.623 -0.057,2.317 0.113,6.414 0.226,8.504 -0.79,-0.424 -1.044,-0.537 -2.201,-1.187 -2.257,-1.243 -4.825,-2.854 -5.559,-3.532 -1.186,-1.073 -3.16,-3.56 -4.12,-5.707 -1.082,-1.773 -2.396,-3.735 -3.256,-4.743 -0.277,-0.548 -0.491,-0.79 -0.57,-0.576 -0.099,-0.074 -0.18,-0.112 -0.237,-0.105 0,0 0.084,0.286 0.224,0.741 0.001,0.008 0.001,0.014 0.002,0.022 l 0.734,7.6 c 0.226,2.373 -1.468,6.442 -2.625,8.165 -0.451,0.678 -1.438,1.639 -2.652,2.938 -0.677,0.707 -0.875,0.876 -1.298,1.328 -1.016,-1.045 -3.273,-2.854 -4.177,-4.182 -1.834,-2.684 -2.145,-4.549 -2.963,-7.685 -0.109,-0.431 -0.197,-0.889 -0.268,-1.358 -0.017,-1.295 -0.167,-2.727 -0.352,-3.999 -0.091,-1.547 -0.184,-2.755 -0.529,-3.029 -0.021,-0.104 -0.036,-0.174 -0.036,-0.174 -0.451,0.12 -0.542,1.564 -0.66,3.388 -0.167,1.165 -0.311,2.45 -0.352,3.646 -0.077,0.489 -0.169,0.966 -0.287,1.414 -0.846,3.164 -1.156,5 -3.019,7.713 -0.932,1.328 -3.161,3.136 -4.205,4.182 -0.395,-0.452 -0.621,-0.622 -1.298,-1.356 -1.186,-1.271 -2.173,-2.232 -2.596,-2.91 -1.186,-1.724 -2.229,-5.82 -2.568,-8.166 l -0.988,-6.611 c -0.055,-0.38 -0.117,-0.609 -0.182,-0.723 -0.141,-0.775 -0.242,-1.283 -0.242,-1.283 -0.846,0.198 -0.423,5.086 -1.326,8.419 -0.818,3.165 -1.128,5.001 -2.991,7.713 -0.931,1.328 -3.188,3.136 -4.205,4.182 -0.423,-0.452 -0.621,-0.622 -1.298,-1.328 -1.213,-1.3 -2.173,-2.26 -2.625,-2.938 -1.157,-1.723 -2.229,-5.792 -2.568,-8.165 l -0.325,-2.24 c -0.037,-1.18 -0.171,-2.426 -0.353,-3.552 -0.254,-1.752 -0.564,-3.165 -0.564,-3.165 -0.818,0.198 -0.423,5.086 -1.298,8.419 -0.847,3.165 -1.128,5.001 -3.019,7.713 -0.903,1.328 -3.161,3.136 -4.177,4.182 -0.423,-0.424 -0.621,-0.593 -1.298,-1.328 -1.213,-1.299 -2.173,-2.26 -2.625,-2.91 -1.185,-1.723 -2.822,-5.82 -2.568,-8.193 l 0.791,-7.572 c 0.003,-0.035 0.004,-0.061 0.007,-0.092 0.137,-0.432 0.219,-0.699 0.219,-0.699 -0.059,-0.007 -0.143,0.033 -0.246,0.111 -0.086,-0.192 -0.303,0.051 -0.583,0.592 -0.87,1.021 -2.196,2.987 -3.292,4.75 -0.987,2.147 -2.963,4.634 -4.148,5.708 -0.734,0.678 -3.33,2.288 -5.587,3.56 -1.157,0.65 -1.411,0.763 -2.201,1.187 0.113,-2.09 0.31,-6.187 0.282,-8.532 -0.028,-1.356 0.508,-3.673 0.988,-5.623 0.48,-1.921 0.903,-3.418 0.903,-3.418"
           id="path19"
           style="fill:none;stroke:#1d1c1b;stroke-width:1.24049711;stroke-miterlimit:10" />
        <path
           d="m 37.744,353.994 -0.48,-0.17 c 0,0 0.057,1.695 0.536,3.645 0.48,1.921 0.508,5.82 0.48,7.176 -0.028,2.317 -0.593,5.312 -0.48,7.402 -0.79,-0.424 -1.016,-0.537 -2.201,-1.187 -2.257,-1.243 -4.825,-2.854 -5.559,-3.532 -1.157,-1.074 -3.132,-3.56 -4.092,-5.707 -1.074,-1.729 -2.356,-3.639 -3.22,-4.668 -0.307,-0.62 -0.547,-0.9 -0.632,-0.649 -0.101,-0.075 -0.183,-0.114 -0.24,-0.107 0,0 0.083,0.277 0.223,0.722 10e-4,0.015 10e-4,0.025 0.003,0.041 l 0.734,7.572 c 0.226,2.374 -1.439,6.47 -2.625,8.194 -0.451,0.65 -1.438,1.639 -2.624,2.938 -0.705,0.707 -0.903,0.876 -1.326,1.328 -1.016,-1.045 -3.245,-2.854 -4.177,-4.182 -1.834,-2.684 -2.145,-4.549 -2.935,-7.685 -0.114,-0.442 -0.206,-0.91 -0.28,-1.39 -0.01,-1.269 -0.16,-2.663 -0.359,-3.911 -0.096,-1.575 -0.187,-2.809 -0.537,-3.085 -0.021,-0.104 -0.036,-0.175 -0.036,-0.175 -0.453,0.125 -0.534,1.682 -0.665,3.611 -0.172,1.112 -0.308,2.306 -0.346,3.435 -0.078,0.485 -0.171,0.957 -0.287,1.401 -0.847,3.136 -1.129,5.001 -3.02,7.685 -0.903,1.356 -3.161,3.136 -4.177,4.182 -0.423,-0.424 -0.621,-0.594 -1.298,-1.328 -1.214,-1.271 -2.173,-2.26 -2.624,-2.91 -1.186,-1.723 -2.229,-5.82 -2.568,-8.165 l -0.959,-6.611 c -0.265,-1.821 -0.674,-0.331 -0.937,2.062 -0.317,1.523 -0.615,3.617 -1.152,5.481 -0.931,3.136 -1.241,5.001 -3.272,7.685 -1.017,1.356 -3.443,3.136 -4.543,4.209 -0.48,-0.452 -0.706,-0.621 -1.439,-1.356 -1.298,-1.271 -2.342,-2.26 -2.822,-2.91 -1.298,-1.723 -2.342,-5.82 -2.793,-8.165 l -1.354,-6.611 c -0.039,-0.199 -0.078,-0.356 -0.117,-0.479 -0.192,-1.126 -0.363,-1.922 -0.363,-1.922 -0.846,0.226 -0.423,5.114 -1.298,8.448 -0.847,3.136 -1.157,5 -3.02,7.685 -0.931,1.328 -3.16,3.136 -4.176,4.182 -0.423,-0.424 -0.649,-0.593 -1.326,-1.328 -1.185,-1.271 -2.173,-2.26 -2.596,-2.91 -1.185,-1.724 -2.229,-5.82 -2.568,-8.194 l -0.347,-2.324 c -0.046,-1.143 -0.172,-2.347 -0.33,-3.44 -0.282,-1.751 -0.564,-3.192 -0.564,-3.192 -0.846,0.226 -0.423,5.114 -1.326,8.448 -0.818,3.136 -1.129,5 -2.991,7.685 -0.931,1.356 -3.188,3.136 -4.205,4.209 -0.423,-0.452 -0.621,-0.622 -1.298,-1.356 -1.213,-1.271 -2.173,-2.26 -2.625,-2.91 -1.157,-1.724 -2.793,-5.792 -2.568,-8.166 l 0.79,-7.6 c 0.001,-0.016 0.001,-0.027 0.003,-0.042 0.14,-0.444 0.223,-0.721 0.223,-0.721 -0.058,-0.007 -0.139,0.032 -0.239,0.106 -0.082,-0.22 -0.306,0.035 -0.597,0.604 -0.871,1.022 -2.192,2.976 -3.285,4.714 -0.959,2.175 -2.963,4.633 -4.12,5.707 -0.762,0.706 -3.33,2.317 -5.587,3.56 -1.185,0.65 -1.439,0.791 -2.229,1.187 0.113,-2.063 0.311,-6.188 0.282,-8.504 -0.028,-1.384 -0.423,-3.701 0.057,-5.622 0.508,-1.95 0.677,-4.323 0.677,-4.323 l -0.818,0.424"
           id="path21"
           style="fill:none;stroke:#1d1c1b;stroke-width:1.24049711;stroke-miterlimit:10" />
        <path
           d="m 41.412,389.226 c 0,0 -0.339,1.695 -0.141,3.701 0.197,2.034 -0.339,5.735 -0.678,7.091 -0.564,2.26 -0.564,5.001 -0.903,7.063 -0.931,-0.593 -1.213,-0.763 -2.596,-1.695 -2.652,-1.808 -5.644,-4.04 -6.462,-4.888 -1.298,-1.356 -3.33,-4.266 -4.092,-6.611 -1.468,-2.882 -3.499,-6.3 -4.12,-6.357 0,0 0.144,0.902 0.377,2.114 -0.112,0.037 -0.155,0.263 -0.095,0.74 l 0.96,7.572 c 0.31,2.374 -1.863,6.47 -3.387,8.193 -0.593,0.65 -1.834,1.639 -3.386,2.938 -0.903,0.707 -1.157,0.876 -1.693,1.328 -1.326,-1.045 -4.205,-2.854 -5.39,-4.182 -2.398,-2.684 -2.766,-4.549 -3.838,-7.685 -0.134,-0.405 -0.241,-0.833 -0.332,-1.272 -0.015,-1.303 -0.229,-2.753 -0.478,-4.042 -0.123,-1.587 -0.242,-2.826 -0.698,-3.081 -0.026,-0.098 -0.044,-0.166 -0.044,-0.166 -0.576,0.122 -0.688,1.594 -0.844,3.444 -0.238,1.165 -0.414,2.444 -0.459,3.635 -0.098,0.473 -0.215,0.934 -0.362,1.368 -1.072,3.165 -1.468,5.001 -3.895,7.713 -1.185,1.328 -4.092,3.136 -5.39,4.182 -0.564,-0.452 -0.818,-0.622 -1.693,-1.328 -1.552,-1.3 -2.821,-2.26 -3.386,-2.938 -1.523,-1.724 -2.878,-5.82 -3.33,-8.165 l -1.241,-6.611 c -0.083,-0.443 -0.178,-0.685 -0.278,-0.771 -0.179,-0.747 -0.314,-1.235 -0.314,-1.235 -1.072,0.198 -0.536,5.086 -1.665,8.42 -1.072,3.164 -1.467,5 -3.894,7.713 -1.185,1.328 -4.092,3.136 -5.418,4.182 -0.536,-0.424 -0.79,-0.593 -1.665,-1.328 -1.552,-1.271 -2.822,-2.26 -3.386,-2.91 -1.524,-1.723 -2.878,-5.82 -3.33,-8.193 l -0.445,-2.371 c -0.059,-1.13 -0.22,-2.312 -0.429,-3.393 -0.339,-1.78 -0.734,-3.192 -0.734,-3.192 -1.072,0.226 -0.536,5.085 -1.665,8.448 -1.072,3.136 -1.467,5 -3.894,7.685 -1.185,1.328 -4.092,3.136 -5.418,4.182 -0.536,-0.424 -0.79,-0.593 -1.665,-1.328 -1.552,-1.271 -2.822,-2.26 -3.386,-2.91 -1.524,-1.724 -3.641,-5.792 -3.33,-8.166 l 1.016,-7.6 c 0.034,-0.27 0.033,-0.455 0.007,-0.576 0.088,-0.915 0.134,-1.543 0.134,-1.543 -0.621,0.113 -2.286,3.673 -3.471,6.64 -0.592,2.43 -2.314,5.481 -3.442,6.922 -0.734,0.933 -3.443,3.362 -5.87,5.368 -1.27,1.045 -1.524,1.243 -2.398,1.893 -0.48,-2.006 -1.467,-6.018 -2.201,-8.222 -0.423,-1.328 -1.608,-6.583 -1.552,-8.617"
           id="path23"
           style="fill:none;stroke:#1d1c1b;stroke-width:1.24049711;stroke-miterlimit:10" />
        <path
           d="m -67.255,439.784 c -0.146,0.382 -0.056,0.226 0,0 l 0,0 z"
           id="path25"
           style="fill:none;stroke:#1d1c1b;stroke-width:1.24049711;stroke-miterlimit:10" />
        <path
           d="m 38.478,437.229 c -0.678,-0.622 -0.875,-0.819 -1.891,-1.752 -1.919,-1.836 -4.035,-4.097 -4.6,-4.973 -0.875,-1.356 -2.173,-4.266 -2.512,-6.611 -0.847,-2.882 -2.06,-6.301 -2.567,-6.385 0,0 0.002,0.177 0.006,0.47 -0.291,-0.404 -0.458,-0.317 -0.373,0.518 l 0.762,7.572 c 0.254,2.373 -1.495,6.47 -2.766,8.193 -0.479,0.649 -1.495,1.639 -2.765,2.91 -0.734,0.734 -0.96,0.904 -1.411,1.328 -1.044,-1.046 -3.415,-2.825 -4.402,-4.153 -1.947,-2.713 -2.258,-4.549 -3.104,-7.713 -0.114,-0.408 -0.207,-0.841 -0.283,-1.284 -0.011,-1.318 -0.186,-2.771 -0.395,-4.084 -0.004,-0.02 -0.007,-0.039 -0.01,-0.059 -0.097,-1.513 -0.193,-2.683 -0.547,-2.936 -0.021,-0.102 -0.036,-0.17 -0.036,-0.17 -0.47,0.122 -0.565,1.58 -0.696,3.417 -0.178,1.118 -0.318,2.339 -0.365,3.497 -0.085,0.521 -0.188,1.029 -0.321,1.506 -0.874,3.164 -1.185,5.001 -3.16,7.713 -0.987,1.328 -3.358,3.136 -4.431,4.182 -0.451,-0.424 -0.677,-0.594 -1.383,-1.328 -1.27,-1.271 -2.285,-2.26 -2.765,-2.91 -1.242,-1.724 -2.343,-5.82 -2.709,-8.193 l -1.017,-6.611 c -0.277,-1.807 -0.707,-0.353 -0.983,2.013 -0.346,1.524 -0.668,3.65 -1.245,5.559 -0.96,3.136 -1.298,5.001 -3.443,7.685 -1.044,1.328 -3.64,3.137 -4.797,4.182 -0.479,-0.424 -0.733,-0.594 -1.496,-1.328 -1.382,-1.271 -2.511,-2.26 -3.019,-2.91 -1.326,-1.724 -2.455,-5.849 -2.935,-8.193 l -1.411,-6.611 c -0.057,-0.265 -0.114,-0.452 -0.169,-0.582 -0.192,-1.058 -0.367,-1.791 -0.367,-1.791 -0.875,0.197 -0.423,5.086 -1.383,8.42 -0.875,3.164 -1.185,5 -3.161,7.713 -0.987,1.328 -3.358,3.136 -4.43,4.182 -0.451,-0.424 -0.677,-0.594 -1.383,-1.328 -1.27,-1.3 -2.286,-2.261 -2.765,-2.91 -1.242,-1.724 -2.342,-5.82 -2.709,-8.193 l -0.356,-2.32 c -0.041,-1.145 -0.172,-2.346 -0.349,-3.443 -0.282,-1.78 -0.593,-3.192 -0.593,-3.192 -0.903,0.226 -0.451,5.085 -1.382,8.447 -0.875,3.136 -1.213,5.001 -3.189,7.685 -0.959,1.328 -3.358,3.137 -4.43,4.182 -0.423,-0.424 -0.649,-0.593 -1.383,-1.328 -1.242,-1.271 -2.286,-2.26 -2.737,-2.909 -1.031,-1.431 -2.395,-4.487 -2.688,-6.846 0.246,-1.214 0.398,-2.456 0.516,-3.608 0.123,-1.199 0.153,-2.804 0.151,-4.146 l 0.13,-1.165 c 0.065,-0.594 -0.001,-0.803 -0.151,-0.731 -0.009,-0.423 -0.018,-0.682 -0.018,-0.682 -0.382,0.085 -1.067,2.07 -1.683,4.287 -0.52,1.551 -0.983,3.358 -1.137,4.915 -0.467,1.619 -1.115,3.163 -1.638,4.049 -0.508,0.904 -2.54,3.277 -4.346,5.198"
           id="path27"
           style="fill:none;stroke:#1d1c1b;stroke-width:1.24049711;stroke-miterlimit:10" />
        <path
           d="m 38.737,448.007 c -0.062,0.444 -0.231,1.881 -0.091,3.546 0.17,2.034 -0.311,5.735 -0.593,7.092 -0.508,2.26 -0.508,5.001 -0.79,7.063 l -0.977,-0.711 c -0.321,-0.239 -0.69,-0.522 -1.309,-1.013 -2.343,-1.78 -4.938,-4.012 -5.672,-4.859 -1.129,-1.356 -2.907,-4.267 -3.584,-6.611 -1.27,-2.882 -3.048,-6.301 -3.584,-6.357 0,0 0.12,0.905 0.32,2.121 -0.086,0.057 -0.115,0.283 -0.066,0.732 l 0.818,7.572 c 0.254,2.373 -1.608,6.47 -2.963,8.193 -0.508,0.649 -1.608,1.639 -2.963,2.91 -0.79,0.734 -1.016,0.904 -1.495,1.356 -1.157,-1.046 -3.697,-2.854 -4.713,-4.182 -2.088,-2.713 -2.427,-4.549 -3.358,-7.686 -0.119,-0.417 -0.215,-0.857 -0.295,-1.309 0,-1.311 -0.179,-2.747 -0.406,-4.036 -0.105,-1.567 -0.213,-2.787 -0.613,-3.047 -0.023,-0.101 -0.039,-0.169 -0.039,-0.169 -0.506,0.123 -0.596,1.614 -0.734,3.486 -0.197,1.139 -0.356,2.372 -0.398,3.537 -0.09,0.492 -0.198,0.973 -0.335,1.425 -0.932,3.136 -1.298,5.001 -3.387,7.685 -1.044,1.328 -3.611,3.136 -4.74,4.182 -0.479,-0.424 -0.733,-0.594 -1.495,-1.328 -1.355,-1.271 -2.455,-2.26 -2.964,-2.91 -1.326,-1.724 -2.511,-5.82 -2.906,-8.193 l -1.072,-6.583 c -0.072,-0.426 -0.152,-0.671 -0.237,-0.769 -0.153,-0.763 -0.271,-1.266 -0.271,-1.266 -0.959,0.226 -0.479,5.114 -1.495,8.447 -0.932,3.165 -1.271,5.001 -3.387,7.714 -1.044,1.328 -3.583,3.136 -4.741,4.182 -0.479,-0.452 -0.706,-0.622 -1.467,-1.328 -1.354,-1.3 -2.455,-2.261 -2.963,-2.938 -1.326,-1.724 -2.511,-5.82 -2.907,-8.165 l -0.395,-2.375 c -0.051,-1.136 -0.192,-2.332 -0.367,-3.417 -0.311,-1.752 -0.649,-3.165 -0.649,-3.165 -0.931,0.198 -0.48,5.086 -1.467,8.42 -0.959,3.164 -1.298,5.001 -3.415,7.713 -1.044,1.328 -3.584,3.137 -4.741,4.182 -0.479,-0.452 -0.706,-0.593 -1.467,-1.328 -1.354,-1.299 -2.455,-2.26 -2.963,-2.91 -1.326,-1.723 -3.189,-5.819 -2.907,-8.193 l 0.903,-7.571 c 0.034,-0.312 0.031,-0.52 -0.004,-0.636 0.077,-0.899 0.117,-1.512 0.117,-1.512 -0.536,0.113 -2.003,3.673 -3.048,6.668 -0.508,2.401 -2.003,5.48 -3.019,6.894 -0.621,0.933 -2.991,3.391 -5.136,5.368 -0.762,0.791 -0.339,-2.74 -0.903,-3.136 -2.427,-1.78 -4.176,-8.844 -4.487,-11.782 0.028,-2.034 -0.508,-0.96 -0.508,-0.96"
           id="path29"
           style="fill:none;stroke:#1d1c1b;stroke-width:1.24049711;stroke-miterlimit:10" />
        <path
           d="m 38.76,447.852 c 0,0 -0.01,0.064 -0.022,0.155 l 0.022,-0.155 z"
           id="path31"
           style="fill:none;stroke:#1d1c1b;stroke-width:1.24049711;stroke-miterlimit:10" />
        <path
           d="m 27.642,476.755 0.621,7.572 c 0.169,2.373 -1.214,6.47 -2.201,8.193 -0.367,0.649 -1.186,1.639 -2.201,2.91 -0.564,0.734 -0.733,0.903 -1.101,1.355 -0.818,-1.045 -2.681,-2.854 -3.442,-4.182 -1.553,-2.712 -1.778,-4.549 -2.455,-7.685 -0.097,-0.441 -0.173,-0.909 -0.235,-1.389 -0.008,-1.272 -0.133,-2.656 -0.293,-3.907 -0.075,-1.562 -0.146,-2.789 -0.43,-3.083 -0.018,-0.109 -0.03,-0.182 -0.03,-0.182 -0.391,0.125 -0.461,1.673 -0.57,3.599 -0.14,1.114 -0.255,2.311 -0.29,3.442 -0.064,0.485 -0.143,0.96 -0.24,1.406 -0.705,3.137 -0.959,5.001 -2.511,7.686 -0.762,1.328 -2.652,3.136 -3.499,4.182 -0.339,-0.424 -0.508,-0.594 -1.072,-1.328 -0.988,-1.271 -1.807,-2.261 -2.173,-2.91 -0.988,-1.724 -1.862,-5.82 -2.145,-8.193 l -0.79,-6.611 c -0.223,-1.855 -0.577,-0.266 -0.797,2.215 -0.256,1.507 -0.508,3.529 -0.953,5.356 -0.762,3.137 -1.016,5.001 -2.709,7.686 -0.847,1.328 -2.878,3.136 -3.81,4.182 -0.367,-0.424 -0.564,-0.594 -1.157,-1.328 -1.101,-1.271 -1.975,-2.261 -2.37,-2.91 -1.072,-1.724 -1.919,-5.849 -2.313,-8.193 l -1.101,-6.611 c -0.046,-0.266 -0.091,-0.452 -0.136,-0.583 -0.157,-1.058 -0.288,-1.79 -0.288,-1.79 -0.677,0.197 -0.338,5.085 -1.101,8.419 -0.677,3.164 -0.931,5.001 -2.483,7.713 -0.79,1.328 -2.652,3.137 -3.499,4.182 -0.367,-0.452 -0.536,-0.593 -1.101,-1.328 -0.988,-1.299 -1.778,-2.26 -2.173,-2.909 -0.959,-1.724 -1.834,-5.82 -2.116,-8.194 l -0.28,-2.342 c -0.036,-1.142 -0.144,-2.341 -0.285,-3.449 -0.226,-1.752 -0.452,-3.165 -0.452,-3.165 -0.705,0.227 -0.367,5.086 -1.101,8.42 -0.705,3.164 -0.959,5.001 -2.511,7.713 -0.762,1.328 -2.652,3.136 -3.499,4.182 -0.339,-0.424 -0.508,-0.594 -1.072,-1.328 -1.016,-1.3 -1.806,-2.26 -2.173,-2.91 -0.988,-1.724 -2.342,-5.82 -2.145,-8.193 l 0.677,-7.572"
           id="path33"
           style="fill:none;stroke:#1d1c1b;stroke-width:1.24049711;stroke-miterlimit:10" />
      </g>
      <path
         d="m -26.606426,221.71383 c 6.28959,2.23673 15.95182,2.05248 23.35284,-2.67221 9.28837,-5.92954 23.052027,-14.32399 45.475407,-7.00444"
         id="path3108"
         style="color:#000000;fill:none;stroke:#1d1c1b;stroke-width:1.24049711;stroke-linecap:butt;stroke-linejoin:miter;stroke-miterlimit:10;stroke-opacity:1;stroke-dasharray:none;stroke-dashoffset:0;marker:none;visibility:visible;display:inline;overflow:visible;enable-background:accumulate" />
    </g>
    <g
       transform="translate(0,9.9873462)"
       id="g43">
      <polygon
         points="434.365,551.77 430.939,563.723 467.149,554.658 462.902,545.254 499.565,553.016 465.903,574.629 469.272,564.573 469.272,564.573 469.272,564.573 425.051,575.648 417.095,577.688 419.529,569.19 423.21,556.302 361.407,564.998 369.022,570.323 375.251,574.714 368.966,578.935 331.454,604.372 326.527,595.676 357.727,574.544 345.581,566.018 334.795,558.454 347.507,556.698 429.269,545.197 436.573,544.206 "
         id="polygon45"
         style="fill:#fcef3c;stroke:#1d1c1b;stroke-width:1.24049711;stroke-miterlimit:10" />
      <polygon
         points="442.405,639.809 438.979,627.854 475.189,636.947 470.942,646.353 507.605,638.591 473.943,616.949 477.313,627.005 477.313,627.005 477.313,627.005 433.091,615.958 425.136,613.918 427.57,622.416 431.251,635.276 369.447,626.58 377.063,621.255 383.292,616.893 377.007,612.644 339.494,587.234 334.568,595.902 365.767,617.034 353.649,625.561 342.835,633.124 355.547,634.908 437.31,646.381 444.613,647.372 "
         id="polygon47"
         style="fill:#fcef3c;stroke:#1d1c1b;stroke-width:1.24049711;stroke-miterlimit:10" />
      <path
         d="m 294.961,584.571 c 20.157,-2.804 46.629,-7.194 75.732,-7.194 l 0,0 c 62.936,0 113.98,7.987 113.98,17.817 0,9.801 -51.045,17.732 -113.98,17.732 -29.104,0 -55.604,-5.07 -75.761,-7.875 l 0.029,-20.48 z"
         id="path49"
         style="fill:#fcef3c;stroke:#1d1c1b;stroke-width:1.24049711;stroke-miterlimit:10" />
      <g
         id="g51">
        <line
           style="fill:none;stroke:#1d1c1b;stroke-width:1.24049711;stroke-miterlimit:10"
           id="line53"
           y2="611.11298"
           x2="333.521"
           y1="579.16101"
           x1="344.901"
           stroke-miterlimit="10" />
        <line
           style="fill:none;stroke:#1d1c1b;stroke-width:1.24049711;stroke-miterlimit:10"
           id="line55"
           y2="577.91498"
           x2="356.77499"
           y1="611.255"
           x1="345.73401"
           stroke-miterlimit="10" />
        <line
           style="fill:none;stroke:#1d1c1b;stroke-width:1.24049711;stroke-miterlimit:10"
           id="line57"
           y2="612.95502"
           x2="369.38199"
           y1="578.39203"
           x1="381.064"
           stroke-miterlimit="10" />
        <line
           style="fill:none;stroke:#1d1c1b;stroke-width:1.24049711;stroke-miterlimit:10"
           id="line59"
           y2="612.95502"
           x2="357.33899"
           y1="578.39203"
           x1="369.06"
           stroke-miterlimit="10" />
        <line
           style="fill:none;stroke:#1d1c1b;stroke-width:1.24049711;stroke-miterlimit:10"
           id="line61"
           y2="613.01202"
           x2="380.901"
           y1="578.53802"
           x1="393.86801"
           stroke-miterlimit="10" />
        <line
           style="fill:none;stroke:#1d1c1b;stroke-width:1.24049711;stroke-miterlimit:10"
           id="line63"
           y2="612.474"
           x2="405.513"
           y1="579.388"
           x1="417.43201"
           stroke-miterlimit="10" />
        <line
           style="fill:none;stroke:#1d1c1b;stroke-width:1.24049711;stroke-miterlimit:10"
           id="line65"
           y2="613.01202"
           x2="393.46899"
           y1="579.30298"
           x1="405.38901"
           stroke-miterlimit="10" />
        <line
           style="fill:none;stroke:#1d1c1b;stroke-width:1.24049711;stroke-miterlimit:10"
           id="line67"
           y2="611.79401"
           x2="417.55701"
           y1="580.69"
           x1="429.47601"
           stroke-miterlimit="10" />
        <line
           style="fill:none;stroke:#1d1c1b;stroke-width:1.24049711;stroke-miterlimit:10"
           id="line69"
           y2="610.71698"
           x2="429.60001"
           y1="581.82397"
           x1="441.51901"
           stroke-miterlimit="10" />
        <line
           style="fill:none;stroke:#1d1c1b;stroke-width:1.24049711;stroke-miterlimit:10"
           id="line71"
           y2="609.66901"
           x2="441.50201"
           y1="583.26898"
           x1="453.70401"
           stroke-miterlimit="10" />
        <line
           style="fill:none;stroke:#1d1c1b;stroke-width:1.24049711;stroke-miterlimit:10"
           id="line73"
           y2="607.91302"
           x2="454.211"
           y1="585.50598"
           x1="465.082"
           stroke-miterlimit="10" />
      </g>
      <rect
         width="10.561"
         height="39.799"
         x="324.82901"
         y="575.25201"
         id="rect75"
         style="fill:#fcef3c;stroke:#1d1c1b;stroke-width:1.24049711;stroke-miterlimit:10" />
      <rect
         width="10.135"
         height="34.644001"
         x="314.60901"
         y="577.83002"
         id="rect77"
         style="fill:#fcef3c;stroke:#1d1c1b;stroke-width:1.24049711;stroke-miterlimit:10" />
      <rect
         width="9.3430004"
         height="30.791"
         x="305.125"
         y="579.75598"
         id="rect79"
         style="fill:#fcef3c;stroke:#1d1c1b;stroke-width:1.24049711;stroke-miterlimit:10" />
    </g>
    <g
       transform="translate(0,16.645578)"
       id="g3188">
      <path
         d="m 238.65,502.65 -0.708,48.155 c 0,0 -10.872,8.753 -14.297,10.367 -1.784,0.85 -6.993,1.445 -12.57,2.295 -3.199,0.481 -6.653,0.396 -9.258,2.181 -1.897,1.304 -3.284,2.805 -3.284,5.212 0.028,2.493 0.34,3.428 2.322,4.76 1.132,0.793 3.114,0.538 4.473,0.51 7.021,-0.142 4.955,-0.17 11.976,-0.992 2.576,-0.312 6.002,-1.699 8.437,-2.747 2.689,-1.133 7.191,-1.955 7.191,-1.955 0,0 5.096,-0.368 5.776,1.332 1.585,3.938 0.254,9.121 1.812,13.059 0.651,1.586 1.387,5.722 2.888,6.458 2.463,1.161 2.916,1.53 5.379,0.396 1.274,-0.566 2.973,-2.096 3.51,-3.484 2.039,-5.212 0,-18.865 0,-18.865 0,0 9.229,6.459 13.108,7.79 2.208,0.765 5.605,0.963 7.729,0 2.944,-1.331 5.945,-2.182 6.03,-5.552 0.057,-1.729 -2.265,-3.314 -3.511,-4.447 -5.068,-4.618 -13.476,-8.271 -19.025,-12.181 -1.076,-0.765 -2.265,-5.383 -2.265,-5.383 V 502.65 H 238.65 l 0,0 0,0 z"
         id="path165"
         style="fill:#fcef3c;stroke:#1d1c1b;stroke-width:1.24049711;stroke-miterlimit:10" />
      <path
         d="m 199.015,568.142 c 1.104,-0.113 2.265,0.906 2.973,1.841 0.877,1.133 0.85,2.748 0.595,4.192 -0.113,0.878 -0.906,1.559 -1.585,2.097 -1.642,1.246 -4.728,1.303 -6.427,2.464 -0.764,0.51 -1.67,1.474 -1.982,2.352 -0.368,0.991 0,3.541 0,3.541 0,0 -3.228,-3.343 -3.708,-5.241 -0.312,-1.133 -0.142,-2.86 0.368,-3.908 1.612,-3.231 6.34,-6.914 9.766,-7.338 l 0,0 z"
         id="path167"
         style="fill:#fcef3c;stroke:#1d1c1b;stroke-width:1.24049711;stroke-miterlimit:10" />
      <path
         d="m 273.954,570.379 c -1.132,-0.142 -2.265,0.907 -2.973,1.842 -0.877,1.133 -0.849,2.719 -0.623,4.164 0.142,0.906 0.935,1.558 1.614,2.096 1.614,1.275 4.728,1.332 6.427,2.493 0.736,0.51 1.642,1.473 1.982,2.351 0.34,0.992 0,3.541 0,3.541 0,0 3.199,-3.343 3.708,-5.24 0.283,-1.133 0.142,-2.861 -0.368,-3.909 -1.613,-3.231 -6.341,-6.942 -9.767,-7.338 l 0,0 0,0 z"
         id="path169"
         style="fill:#fcef3c;stroke:#1d1c1b;stroke-width:1.24049711;stroke-miterlimit:10" />
      <path
         d="m 243.406,585.704 c 0.595,-0.991 2.095,-1.246 3.199,-1.246 1.387,0 2.548,1.048 3.454,2.152 0.566,0.68 0.566,1.728 0.51,2.635 -0.113,2.124 -2.039,4.702 -2.265,6.826 -0.113,0.935 0,2.295 0.453,3.116 0.481,0.935 2.576,2.238 2.576,2.238 0,0 -4.473,0.51 -6.172,-0.284 -1.019,-0.481 -2.208,-1.699 -2.633,-2.804 -1.33,-3.37 -1.018,-9.573 0.878,-12.633 l 0,0 z"
         id="path171"
         style="fill:#fcef3c;stroke:#1d1c1b;stroke-width:1.24049711;stroke-miterlimit:10" />
    </g>
    <g
       transform="translate(0,16.645578)"
       id="g3198">
      <path
         d="m 263.762,466.562 c 0,0 -0.312,13.738 0.453,20.622 0.594,5.184 2.123,7.677 3.765,12.605 1.982,6.033 5.86,11.189 9.541,16.288 1.981,2.719 5.096,5.863 7.898,7.62 3.482,2.209 5.663,4.248 9.654,5.07 3.029,0.623 7.7,2.974 7.7,2.974 0,0 -2.916,-4.192 -4.274,-6.486 -2.265,-3.881 -2.944,-7.28 -5.068,-11.274 -2.293,-4.306 -5.775,-7.818 -8.041,-12.124 -1.783,-3.427 -3.17,-8.384 -4.105,-12.18 -1.132,-4.561 -1.189,-9.349 -1.557,-14.051 -0.255,-3.398 -0.821,-10.197 -0.821,-10.197 l -8.55,-2.663 -6.595,3.796 0,0 0,0 z"
         id="path173"
         style="fill:#fcef3c;stroke:#1d1c1b;stroke-width:1.24049711;stroke-miterlimit:10" />
      <path
         d="m 254.221,472.624 c 0,0 -0.312,13.71 0.453,20.593 0.595,5.185 2.124,7.677 3.765,12.634 1.982,6.034 5.86,11.189 9.541,16.26 1.982,2.72 5.096,5.892 7.899,7.648 3.482,2.209 5.662,4.249 9.654,5.07 3.029,0.623 7.701,2.975 7.701,2.975 0,0 -2.916,-4.221 -4.275,-6.516 -2.265,-3.881 -2.944,-7.279 -5.068,-11.245 -2.293,-4.306 -5.775,-7.818 -8.04,-12.152 -1.784,-3.428 -3.171,-8.385 -4.105,-12.152 -1.133,-4.561 -1.189,-9.348 -1.557,-14.05 -0.255,-3.428 -0.821,-10.227 -0.821,-10.227 l -8.55,-2.662 -6.597,3.824 0,0 0,0 z"
         id="path175"
         style="fill:#fcef3c;stroke:#1d1c1b;stroke-width:1.24049711;stroke-miterlimit:10" />
      <path
         d="m 247.597,474.097 c 0,0 -2.152,13.54 -2.293,20.452 -0.113,5.24 0.793,9.971 1.755,15.098 1.161,6.261 2.831,10.963 5.804,16.543 1.585,3.003 4.332,6.033 6.88,8.187 3.17,2.72 6.709,4.561 10.56,5.948 2.917,1.077 7.22,4.107 7.22,4.107 0,0 -2.322,-4.589 -3.341,-7.081 -1.755,-4.164 -1.954,-7.648 -3.539,-11.897 -1.699,-4.589 -4.671,-8.611 -6.342,-13.229 -1.302,-3.654 -2.038,-8.753 -2.463,-12.634 -0.51,-4.702 0.113,-9.433 0.368,-14.135 0.17,-3.428 0.51,-10.255 0.51,-10.255 l -8.097,-3.909 -7.022,2.805 0,0 0,0 z"
         id="path177"
         style="fill:#fcef3c;stroke:#1d1c1b;stroke-width:1.24049711;stroke-miterlimit:10" />
      <path
         d="m 212.066,460.783 -2.944,12.719 c -1.953,8.498 -2.208,23.171 -2.463,31.924 -0.227,9.319 3.143,18.611 1.246,27.761 -0.595,2.832 -3.199,8.045 -3.199,8.045 0,0 7.333,-4.447 10.305,-7.535 3.709,-3.824 5.663,-6.544 7.361,-11.671 2.832,-8.498 1.133,-17.987 1.246,-26.995 0.085,-8.13 -0.51,-24.39 -0.51,-24.39 l -11.042,-9.858 0,0 z"
         id="path179"
         style="fill:#fcef3c;stroke:#1d1c1b;stroke-width:1.24049711;stroke-miterlimit:10" />
      <path
         d="m 223.844,459.764 c 0,0 -5.096,8.47 -6.37,13.229 -2.378,8.923 -2.067,18.469 -1.954,27.76 0.057,6.261 0.566,12.521 1.699,18.668 0.991,5.41 3.935,10.367 4.417,15.834 0.312,3.371 -0.962,10.113 -0.962,10.113 0,0 7.531,-6.204 10.05,-10.368 3.143,-5.184 4.445,-12.096 5.407,-18.157 1.557,-9.999 0.595,-20.311 -0.481,-30.366 -0.538,-4.929 -0.991,-10.027 -2.944,-14.531 -2.153,-4.931 -8.862,-12.182 -8.862,-12.182 l 0,0 0,0 z"
         id="path181"
         style="fill:#fcef3c;stroke:#1d1c1b;stroke-width:1.24049711;stroke-miterlimit:10" />
      <path
         d="m 233.016,475.145 c 0,0 -2.151,13.54 -2.293,20.48 -0.113,5.212 0.821,9.942 1.755,15.07 1.161,6.26 2.859,10.99 5.832,16.57 1.585,2.975 4.332,6.034 6.851,8.187 3.171,2.691 6.71,4.532 10.56,5.949 2.944,1.076 7.219,4.079 7.219,4.079 0,0 -2.321,-4.59 -3.34,-7.054 -1.755,-4.192 -1.954,-7.648 -3.511,-11.926 -1.699,-4.589 -4.7,-8.583 -6.342,-13.2 -1.331,-3.654 -2.038,-8.781 -2.463,-12.662 -0.51,-4.674 0.085,-9.433 0.34,-14.135 0.198,-3.428 0.538,-10.226 0.538,-10.226 l -8.097,-3.909 -7.049,2.777 0,0 0,0 z"
         id="path183"
         style="fill:#fcef3c;stroke:#1d1c1b;stroke-width:1.24049711;stroke-miterlimit:10" />
      <path
         d="m 281.74,497.778 c -0.538,1.927 -3.822,5.382 -3.822,5.382 0,0 -3.652,-2.266 -4.784,-3.71 -1.104,-1.389 -2.548,-5.383 -2.548,-5.383 0,0 -1.727,5.298 -3.199,7.082 -1.047,1.246 -4.473,3.031 -4.473,3.031 0,0 -1.331,-1.021 -2.463,-2.097 -0.566,-0.566 -1.104,-1.133 -1.359,-1.614 -1.161,-2.153 -1.585,-3.796 -1.585,-3.796 0,0 -0.34,0.963 -0.962,3.116 -0.51,1.728 -4.785,5.41 -4.785,5.41 0,0 -3.397,-3.513 -4.473,-6.091 -0.906,-2.209 -0.623,-5.665 -0.623,-5.665 0,0 -1.585,2.408 -2.859,4.334 -1.585,2.352 -5.747,7.422 -5.747,7.422 0,0 -5.775,-7.563 -6.71,-11.473 -1.047,-4.532 -0.792,-7.449 -0.792,-7.449 0,0 -0.142,-0.058 -1.359,2.209 -1.132,2.153 -4.218,5.92 -4.218,5.92 0,0 -3.936,-5.835 -4.785,-8.101 -1.302,-3.513 -0.962,-9.802 -0.962,-9.802 0,0 -1.303,1.729 -3.426,4.419 -1.784,2.238 -8.041,8.413 -8.041,8.413 0,0 -1.444,-16.004 0,-22.944 1.246,-6.09 7.191,-12.577 8.918,-18.554 1.614,-5.553 0.283,-12.974 3.199,-17.874 2.548,-4.277 6.88,-7.705 11.466,-9.122 5.804,-1.785 14.354,-1.898 20.101,0 4.671,1.53 10.192,5.864 13.391,9.801 7.502,9.206 12.372,22.888 14.977,34.729 1.274,5.778 0.113,13.002 0.453,19.885 0.196,4.477 2.517,8.84 1.47,12.522 l 0,0 0,0 z"
         id="path185"
         style="fill:#fcef3c;stroke:#1d1c1b;stroke-width:1.24049711;stroke-miterlimit:10" />
    </g>
    <path
       d="m 303.313,589.80034 c 0,0 -5.605,1.955 -8.068,1.955 -2.435,0 -8.239,-1.955 -8.239,-1.955 -0.849,0 -1.529,0.623 -1.529,1.359 v 28.072 c 0,0.765 0.68,1.359 1.529,1.359 0,0 5.436,-2.464 7.871,-2.464 2.435,0 8.437,2.464 8.437,2.464 0.85,0 1.529,-0.595 1.529,-1.359 v -28.072 c -0.001,-0.736 -0.681,-1.359 -1.53,-1.359 l 0,0 z"
       id="path199"
       style="fill:#fcef3c;stroke:#1d1c1b;stroke-width:1.24049711;stroke-miterlimit:10" />
    <use
       transform="matrix(-1,0,0,1,590.32934,1.0633755e-7)"
       id="use3196"
       x="0"
       y="0"
       width="595.28003"
       height="841.89001"
       xlink:href="#g3188" />
    <g
       transform="translate(0,16.645578)"
       id="g3207">
      <path
         d="m 306.229,474.833 c 0,0 -1.528,13.71 0,20.254 3.341,10.792 8.833,17.251 12.825,27.76 1.727,4.532 3.086,12.719 3.936,17.506 0.679,3.711 -2.378,9.292 -2.378,9.292 0,0 8.89,-5.779 10.899,-10.113 1.925,-4.164 2.378,-9.178 1.868,-13.795 -0.595,-5.382 -2.321,-9.716 -4.529,-14.616 -2.689,-6.034 -6.653,-11.388 -9.314,-17.449 -2.038,-4.618 -0.765,-11.982 -5.067,-14.334 l -8.24,-4.505 0,0 z"
         id="path187"
         style="fill:#fcef3c;stroke:#1d1c1b;stroke-width:1.24049711;stroke-miterlimit:10" />
      <path
         d="m 363.983,472.313 c 9.088,8.951 11.041,23.567 17.808,34.587 5.719,9.319 12.627,18.497 19.705,26.712 4.643,5.41 9.2,8.979 13.561,14.616 2.576,3.343 4.36,8.187 7.446,10.991 2.265,2.039 5.067,5.042 5.067,5.042 0,0 -7.616,0 -12.769,-1.388 -5.209,-1.417 -9.853,-4.73 -14.099,-8.158 -10.164,-8.215 -18.516,-18.781 -26.612,-29.262 -7.22,-9.348 -15.09,-18.639 -19.422,-29.8 -2.718,-6.969 -3.539,-14.701 -3.737,-22.208 -0.057,-2.38 0.793,-7.054 0.793,-7.054 0,0 8.975,2.692 12.259,5.922 l 0,0 0,0 z"
         id="path189"
         style="fill:#fcef3c;stroke:#1d1c1b;stroke-width:1.24049711;stroke-miterlimit:10" />
      <path
         d="m 350.705,470.641 c 8.777,9.263 10.277,23.965 16.704,35.21 5.407,9.519 12.004,18.951 18.799,27.421 4.473,5.552 8.89,9.319 13.079,15.098 2.463,3.428 4.105,8.328 7.106,11.246 2.18,2.124 4.869,5.24 4.869,5.24 0,0 -7.587,-0.283 -12.712,-1.869 -5.152,-1.587 -9.682,-5.071 -13.815,-8.668 -9.909,-8.583 -17.921,-19.433 -25.649,-30.196 -6.908,-9.604 -14.496,-19.178 -18.459,-30.508 -2.463,-7.054 -3.029,-14.815 -3.001,-22.322 0.028,-2.379 1.047,-6.996 1.047,-6.996 0,0 8.862,2.973 12.032,6.344 l 0,0 0,0 z"
         id="path191"
         style="fill:#fcef3c;stroke:#1d1c1b;stroke-width:1.24049711;stroke-miterlimit:10" />
      <path
         d="m 333.945,464.353 c 8.437,9.631 9.399,24.389 15.401,35.89 5.067,9.716 11.324,19.404 17.808,28.129 4.275,5.75 8.55,9.688 12.542,15.636 2.35,3.513 3.794,8.498 6.682,11.501 2.123,2.237 4.699,5.438 4.699,5.438 0,0 -7.587,-0.595 -12.655,-2.379 -5.067,-1.785 -9.484,-5.439 -13.504,-9.207 -9.569,-8.979 -17.186,-20.14 -24.518,-31.216 -6.568,-9.857 -13.788,-19.743 -17.354,-31.216 -2.209,-7.139 -2.491,-14.928 -2.181,-22.435 0.085,-2.352 1.274,-6.969 1.274,-6.969 0,0 8.749,3.371 11.806,6.828 l 0,0 0,0 z"
         id="path193"
         style="fill:#fcef3c;stroke:#1d1c1b;stroke-width:1.24049711;stroke-miterlimit:10" />
      <path
         d="m 316.336,472.313 c 0,0 0.028,14.531 1.613,21.925 1.954,9.206 7.106,17.336 11.438,25.607 3.51,6.713 7.247,15.806 12.768,20.791 5.012,4.562 15.43,7.875 15.43,7.875 0,0 -3.058,-5.637 -3.737,-7.591 -1.557,-4.59 -0.962,-3.683 -2.123,-8.441 -2.236,-9.292 -7.332,-17.592 -11.976,-25.862 -4.869,-8.696 -7.19,-20.849 -13.815,-28.129 -2.605,-2.834 -9.598,-6.175 -9.598,-6.175 l 0,0 0,0 z"
         id="path195"
         style="fill:#fcef3c;stroke:#1d1c1b;stroke-width:1.24049711;stroke-miterlimit:10" />
      <path
         d="m 301.048,480.102 c 0,0 1.84,4.391 3.199,5.638 0.736,0.651 3.567,3.399 3.567,3.399 l 3.143,-6.487 c 0,0 2.916,7.733 4.926,8.781 1.246,0.651 5.974,3.881 5.974,3.881 0,0 2.123,-5.637 2.038,-7.648 -0.057,-1.218 0,-3.229 0,-3.229 0,0 1.104,2.352 2.379,3.683 1.868,1.927 7.587,7.167 7.587,7.167 0,0 3.143,-5.778 3.822,-7.592 0.481,-1.274 -0.057,-4.391 -0.057,-4.391 0,0 1.812,2.267 2.718,3.683 1.812,2.748 10.729,11.558 10.729,11.558 0,0 1.501,-6.94 1.784,-9.434 0.142,-1.303 0.396,-2.804 0.396,-2.804 0,0 2.463,6.996 4.048,8.611 2.152,2.181 9.484,6.175 9.484,6.175 0,0 -1.472,-10.367 -1.415,-12.096 0.057,-2.322 0.396,-4.334 0.396,-4.334 0,0 1.869,4.447 4.219,8.924 1.331,2.521 3.313,5.75 3.964,6.458 0.566,0.623 1.415,1.388 2.208,1.671 0.623,0.198 2.18,0 2.18,0 0,0 -13.561,-38.438 -20.072,-50.506 -1.868,-3.428 -5.804,-7.054 -7.503,-10.595 -2.293,-4.702 -2.066,-12.577 -5.011,-16.883 -3.171,-4.673 -9.598,-9.263 -14.693,-11.245 -3.624,-1.388 -9.031,-1.728 -12.825,-0.992 -3.991,0.765 -9.428,2.889 -12.23,5.949 -4.274,4.73 -6.455,13.823 -7.813,20.197 -1.529,7.279 -2.237,17.449 -1.246,24.842 1.131,8.356 4.104,17.619 4.104,17.619 l 0,0 0,0 0,0 0,0 z"
         id="path197"
         style="fill:#fcef3c;stroke:#1d1c1b;stroke-width:1.24049711;stroke-miterlimit:10" />
    </g>
    <path
       d="m 332.37598,211.98143 c -2.20415,5.61773 -3.74821,8.29289 -7.10144,9.12176 -5.37932,1.59266 -8.17962,-1.61905 -10.28658,0.4023 -0.75697,-3.15959 -1.27542,-6.3413 1.46771,-9.82563 3.28465,-1.36737 5.36474,-1.4588 7.17737,-1.13449 0.50835,0.0908 0.59074,4.78366 0.65264,8.73568 0.78106,-0.64539 2.5944,-4.15995 1.70586,-8.12726 1.70323,0.50673 3.54873,1.042 6.38444,0.82737 z"
       id="path3451-9"
       style="color:#000000;fill:#ffffff;fill-opacity:1;fill-rule:nonzero;stroke:#1d1c1b;stroke-width:0.82699811;stroke-linecap:butt;stroke-linejoin:miter;stroke-miterlimit:10;stroke-opacity:1;stroke-dasharray:none;stroke-dashoffset:0;marker:none;visibility:visible;display:inline;overflow:visible;enable-background:accumulate" />
    <path
       d="m 371.04783,37.817837 c 0,0 3.29441,-6.739741 8.3758,-5.723462 2.09395,0.41879 3.536,1.668062 1.95436,3.908706 -1.67517,2.373143 -3.62952,0 -3.62952,0 0,0 -3.62951,-2.791933 -6.70064,1.814756 z"
       transform="matrix(0.83227891,0,0,0.83227891,34.744786,186.86953)"
       id="path3104"
       style="fill:#000000;stroke:none" />
    <path
       d="m 353.90496,33.615402 a 5.3409009,5.3409009 0 1 1 -10.6818,0 5.3409009,5.3409009 0 1 1 10.6818,0 z"
       transform="matrix(0.44810008,0,0,0.83227891,168.25539,187.10348)"
       id="path3145"
       style="color:#000000;fill:#000000;stroke:#1d1c1b;stroke-width:2.03129888;stroke-linecap:butt;stroke-linejoin:miter;stroke-miterlimit:10;stroke-opacity:1;stroke-dasharray:none;stroke-dashoffset:0;marker:none;visibility:visible;display:inline;overflow:visible;enable-background:accumulate" />
  </g>
  <path
     d="m 1.49998,1.4997084 0,517.4913316 c 0,38.50449 31.2031,69.75453 69.65,69.75453 38.4468,0 120.7532,0 159.2,0 38.44695,-1e-4 69.65005,31.24994 69.65005,69.7544 0,-38.50446 31.2031,-69.7544 69.65,-69.7544 38.4469,-1e-4 120.75327,0 159.20007,0 38.4468,0 69.65,-31.25004 69.65,-69.75453 l 0,-517.4913316 -597.00012,0 z"
     id="path2875"
     style="opacity:0.8;fill:url(#radialGradient5727);fill-opacity:1;fill-rule:evenodd;stroke:none" />
</svg>
