<?xml version="1.0" encoding="UTF-8" standalone="no"?>
<!-- Created with Inkscape (http://www.inkscape.org/) -->

<svg
   xmlns:dc="http://purl.org/dc/elements/1.1/"
   xmlns:cc="http://creativecommons.org/ns#"
   xmlns:rdf="http://www.w3.org/1999/02/22-rdf-syntax-ns#"
   xmlns:svg="http://www.w3.org/2000/svg"
   xmlns="http://www.w3.org/2000/svg"
   xmlns:sodipodi="http://sodipodi.sourceforge.net/DTD/sodipodi-0.dtd"
   xmlns:inkscape="http://www.inkscape.org/namespaces/inkscape"
   version="1.0"
   width="368.56955"
   height="281.03748"
   viewBox="0 0 368.56955 281.03748"
   id="COA_Russian_Federation_1993"
   xml:space="preserve"
   style="overflow:visible"
   inkscape:version="0.92.4 (5da689c313, 2019-01-14)"
   sodipodi:docname="Eagle emblem.svg"><metadata
   id="metadata1109"><rdf:RDF><cc:Work
       rdf:about=""><dc:format>image/svg+xml</dc:format><dc:type
         rdf:resource="http://purl.org/dc/dcmitype/StillImage" /><dc:title></dc:title></cc:Work></rdf:RDF></metadata><sodipodi:namedview
   pagecolor="#ffffff"
   bordercolor="#666666"
   borderopacity="1"
   objecttolerance="10"
   gridtolerance="10"
   guidetolerance="10"
   inkscape:pageopacity="0"
   inkscape:pageshadow="2"
   inkscape:window-width="1920"
   inkscape:window-height="1001"
   id="namedview1107"
   showgrid="false"
   inkscape:zoom="1.1751916"
   inkscape:cx="80.09029"
   inkscape:cy="182.60453"
   inkscape:window-x="-9"
   inkscape:window-y="-9"
   inkscape:window-maximized="1"
   inkscape:current-layer="g1122"
   fit-margin-top="0"
   fit-margin-left="0"
   fit-margin-right="0"
   fit-margin-bottom="0" /><defs
   id="defs1119"><inkscape:perspective
   sodipodi:type="inkscape:persp3d"
   inkscape:vp_x="0 : 284 : 1"
   inkscape:vp_y="0 : 1000 : 0"
   inkscape:vp_z="479 : 284 : 1"
   inkscape:persp3d-origin="239.5 : 189.33333 : 1"
   id="perspective1111" />
	
	

		
		
		
		
		
		
		
		
		
		
		
		
		
		
		
		
		
		
		
		
		
		
		
		
		
		
		
		
		
		
		
		
		
		
		
		
		
		
		
		
		
		
		
		
		
		
		
		
		
		
		
		
		
		
		
		
		
		
		
		
		
		
		
		
		
		
		
		
		
		
		
		
		
		
		
		
		
		
		
		
		
		
		
		
		
		
		
		
		
		
		
		
		
		
		
		
		
		
		
		
		
		
		
		
		
		
		
		
		
		
		
		
		
		
		
		
		
		
		
		
		
		
		
		
		
		
		
		
		
		
		
		
		
		
		
		
		
		
		
		
		
		
		
		
		
		
		
		
		
		
		
		
		
		
		
		
		
		
		
		
		
		
		
		
		
		
		
		
		
		
		
		
		
		
		
		
		
		
		
		
		
		
		
		
		
		
		
		
		
		
		
		
		
		
		
		
		
		
		
		
		
		
		
		
		
		
		
		
		
		
		
		
		
		
		
		
		
		
		
		
		
		
		
		
		
		
		
		
		
		
		
		
		
		
		
		
		
		
		
		
		
		
		
		
		
		
		
		
		
		
		
		
		
		
		
		
		
		
		
		
		
		
		
		
		
		
		
		
		
		
		
		
		
		
		
		
		
		
		
		
		
		
		
		
		
		
		
		
		
		
		
		
		
		
		
		
		
		
		
		
		
		
		
		
		
		
		
		
		
		
		
		
		
		
		
		
		
		
		
		
		
		
		
		
		
		
		
		
		
		
		
		
		
		
		
		
		
		
		
		
		
		
		
		
		
		
		
		
		
		
		
		
		
		
		
		
		
		
		
		
		
		
		
		
		
		
		
		
		
		
		
		
		
		
		
		
		
		
		
		
		
		
		
		
		
		
		
		
		
		
		
		
		
		
		
		
		
		
		
		
		
		
		
		
		
		
		
		
		
		
		
		
		
		
		
		
		
		
		
		
		
		
		
		
		
		
		
		
		
		
		
		
		
		
		
		
		
		
		
		
		
		
		
		
		
		
		
		
		
		
		
		
		
		
		
		
		
		
		
		
		
		
		
		
		
		
		
		
		
		
		
		
		
		
		
		
		
		
		
		
		
		
		
		
		
		
		
		
		
		
		
		
		
		
		
		
		
		
		
		
		
		
		
		
		
		
		
		
		
		
		
		
		
		
		
		
		
		
		
		
		
		
		
		
		
		
		
		
		
		
		
		
		
		
		
		
		
		
		
		
		
		
		
		
		
		
		
		
		
		
		
		
		
		
		
		
		
		
		
		
		
		
		
		
		
		
		
		
		
		
		
		
		
		
		
		
		
		
		
		
		
		
		
		
		
		
		
		
		
		
		
		
		
		
		
		
		
		
		
		
		
		
		
		
		
		
		
		
		
		
		
		
		
		
		
		
		
		
		
		
		
		
		
		
		
		
		
		
		
		
		
		
		
		
		
		
		
		
		
		
		
		
		
		
		
		
		
		
		
		
		
		
		
		
		
		
		
		
		
		
		
		
		
		
		
		
		
		
		
		
		
		
		
		
		
		
		
		
		
		
		
		
		
		
		
		
		
		
		
		
		
		
		
		
		
		
		
		
		
		
		
		
		
		
		
		
		
		
		
		
		
		
		
		
		
		
		
		
		
		
		
		
		
		
		
		
		
		
		
		
		
		
		
		
		
		
		
		
		
		
		
		
		
		
		
		
		
		
		
		
		
		
		
		
		
		
		
		
		
		
		
		
		
		
		
		
		
		
		
		
		
		
		
		
		
		
		
		
		
		
		
		
		
		
		
		
		
		
		
		
		
		
		
		
		
		
		
		
		
		
		
		
		
		
		
		
		
		
		
		
		
		
		
		
		
		
		
		
		
		
		
		
		
		
		
		
		
		
		
		
		
		
		
		
		
		
		
		
		
		
		
		
		
		
		
		
		
		
		
		
		
		
		
		
		
		
		
		
		
		
		
		
		
		
		
		
		
		
		
		
		
		
		
		
		
		
		
		
		
		
		
		
		
		
		
		
		
		
		
		
		
		
		
		
		
		
		
		
		
		
		
		
		
		
		
		
		
		
		
		
		
		
		
		
		
		
		
		
		
		
		
		
		
		
		
		
		
		
		
		
		
		
		
		
		
		
		
		
		
		
		
		
		
		
		
		
		
		
		
		
		
		
		
		
		
		
		
		
		
		
		
		
		
		
		
		
		
		
		
		
		
		
		
		
		
		
		
		
		
		
		
		
		
		
		
		
		
		
		
		
		
		
		
		
		
		
		
		
		
		
		
		
		
		
		
		
		
		
		
		
		
		
		
		
		
		
		
		
		
		
		
		
		
		
		
		
		
		
		
		
		
		
		
		
		
		
		
		
		
		
		
		
		
		
		
		
		
		
		
		
		
		
		
		
		
		
		
		
		
		
		
		
		
		
		
		
		
		
		
		
		
		
		
		
		
		
		
		
		
		
		
		
		
		
		
	</defs>
<g
   id="g1122"
   transform="matrix(12.651962,5.7461738,-5.7461738,12.651962,1145.2657,-2826.1243)"><g
     id="g1942"><g
       transform="translate(1.8235319,0.26298697)"
       style="stroke:#000000;stroke-width:0.28785869;stroke-miterlimit:4;stroke-dasharray:none;stroke-opacity:1"
       id="g1129"><path
         style="fill:#ffd700;stroke:#000000;stroke-width:0.28785869;stroke-miterlimit:4;stroke-dasharray:none;stroke-opacity:1"
         id="path18462"
         d="m 19.864997,220.204 -0.146,-1.754 c -0.876,-1.021 -2.191,-1.021 -3.213,-0.584 -0.146,0.877 -1.315,0.146 -1.899,1.168 -0.438,-0.729 0,-1.313 0.584,-1.752 -0.146,-0.438 0.146,-0.584 0.438,-0.875 l 2.481,-1.315 c -0.438,0.438 -0.438,0.584 -0.438,0.876 2.045,-0.146 3.214,1.314 3.214,1.314 0,0 -0.146,-2.045 1.46,-3.213 -0.146,-0.146 -0.438,-0.438 -1.021,-0.146 l 2.773,-1.314 c 0.146,0 0.73,0 0.876,0.146 0.876,0 1.461,0.146 1.899,0.729 -1.314,0 -1.46,1.315 -2.337,0.877 -1.022,0.438 -1.753,1.606 -1.607,2.775 l 1.022,1.314 z"
         inkscape:connector-curvature="0" /><path
         style="fill:#ffd700;stroke:#000000;stroke-width:0.28785869;stroke-miterlimit:4;stroke-dasharray:none;stroke-opacity:1"
         id="path18464"
         d="m 24.977997,218.451 c 0.876,1.168 2.775,2.629 2.483,4.529 -0.146,2.482 -1.461,2.482 -2.045,3.943 -1.753,-0.584 -2.629,0.438 -4.382,-0.876 -1.755,-1.313 -1.315,-3.358 -1.899,-5.112 z"
         inkscape:connector-curvature="0" /><path
         style="fill:#ffd700;stroke:#000000;stroke-width:0.28785869;stroke-miterlimit:4;stroke-dasharray:none;stroke-opacity:1"
         id="path18466"
         d="m 14.313997,220.935 c 0,1.754 0.876,4.383 3.506,3.944 0.584,-0.438 1.169,-0.876 1.315,-1.606 l 0.146,0.438 c 0,0.876 0.438,2.045 1.314,2.629 1.022,0.584 1.753,0.876 2.337,0.876 0,0.438 -0.146,0.875 -0.438,1.313 -1.46,-0.874 -2.775,-0.583 -3.944,0.439 -0.438,0 -0.876,0 -1.314,0 l 0.876,-2.774 -1.753,2.774 c -0.438,-0.145 -0.876,-0.293 -1.313,-0.439 l 1.313,-2.335 -2.045,2.047 c -0.438,-0.146 -0.729,-0.439 -1.168,-0.586 l 2.045,-1.899 -2.629,1.461 c -0.438,-0.292 -0.876,-0.729 -1.46,-1.022 l 3.067,-1.314 -3.652,0.438 c -0.146,-0.146 -0.146,-0.438 -0.438,-0.438 -0.1459998,-0.438 -0.1459998,-0.876 -0.4379998,-1.314 h 4.2359998 l -4.5279998,-0.875 c 0,-0.438 -0.146,-1.022 -0.146,-1.462 l 3.7979998,0.876 -3.9439998,-1.753 c -0.146,-1.022 -0.146,-1.753 -0.146,-1.753 z"
         inkscape:connector-curvature="0" /><path
         style="fill:#ffd700;stroke:#000000;stroke-width:0.28785869;stroke-miterlimit:4;stroke-dasharray:none;stroke-opacity:1"
         id="path18470"
         d="m 26.729997,225.755 1.461,0.876 c 0,0 2.045,3.213 4.674,1.752 0.146,0.586 -1.021,1.754 -2.481,2.045 -2.191,0 -4.09,-1.604 -4.09,-1.604 0,0 -0.146,2.481 -1.753,4.09 -1.169,1.021 -2.775,1.313 -3.214,0.584 2.921,-1.021 1.897,-4.674 1.897,-4.674 l 0.438,-1.754 c 0.146,0 0.438,0 0.584,0 0.146,0 1.169,0.146 0.876,0.146 l 0.438,0.438 v -0.584 c 0.146,-0.438 0.438,-0.584 0.584,-0.875 0.15,-0.148 0.295,-0.148 0.586,-0.44 z"
         inkscape:connector-curvature="0" /><path
         style="fill:#ffd700;stroke:#000000;stroke-width:0.28785869;stroke-miterlimit:4;stroke-dasharray:none;stroke-opacity:1"
         id="path18474"
         d="m 30.235997,208.81 c 0.438,0.292 0.876,0.877 1.315,1.315 l -1.461,4.09 2.045,-3.506 c 0.292,0.438 0.438,0.876 0.876,1.315 l -2.337,3.943 2.775,-2.775 c 0.146,0.146 0.146,0.584 0.438,1.022 0,0.146 0.146,0.292 0.146,0.438 l -2.775,2.482 2.775,-1.461 c 0.146,0.584 0,1.314 0,1.898 l -2.923,0.877 2.775,-0.146 c 0,0.438 -0.146,0.876 -0.146,1.314 l -2.922,0.146 2.483,0.584 c -0.146,0.292 -0.438,0.729 -0.438,1.022 l -3.506,-0.438 2.775,1.313 c -0.146,0.438 -0.438,0.585 -0.876,1.022 -1.607,0 -2.629,0.876 -2.775,2.63 -0.584,-0.146 -1.021,-0.438 -1.313,-0.584 0.438,-0.438 0.584,-1.314 0.876,-2.484 0,-1.021 -1.022,-2.19 -1.022,-2.774 l -0.146,-0.146 c 0.876,0 1.461,0 2.045,0 1.753,-1.754 1.021,-3.944 -0.584,-5.405 z"
         inkscape:connector-curvature="0" /></g></g></g>
</svg>