<?xml version="1.0" encoding="UTF-8" standalone="no"?>
<!-- Created with Inkscape (http://www.inkscape.org/) -->

<svg
   version="1.0"
   width="900"
   height="600"
   id="svg2"
   sodipodi:docname="Flag_of_Kyoto_City.svg"
   inkscape:version="1.2 (dc2aedaf03, 2022-05-15)"
   xmlns:inkscape="http://www.inkscape.org/namespaces/inkscape"
   xmlns:sodipodi="http://sodipodi.sourceforge.net/DTD/sodipodi-0.dtd"
   xmlns="http://www.w3.org/2000/svg"
   xmlns:svg="http://www.w3.org/2000/svg">
  <sodipodi:namedview
     id="namedview300"
     pagecolor="#ffffff"
     bordercolor="#666666"
     borderopacity="1.0"
     inkscape:showpageshadow="2"
     inkscape:pageopacity="0.0"
     inkscape:pagecheckerboard="0"
     inkscape:deskcolor="#d1d1d1"
     showgrid="false"
     showguides="false"
     inkscape:zoom="0.22961329"
     inkscape:cx="293.97254"
     inkscape:cy="100.16842"
     inkscape:window-width="1920"
     inkscape:window-height="1017"
     inkscape:window-x="-8"
     inkscape:window-y="-8"
     inkscape:window-maximized="1"
     inkscape:current-layer="svg2" />
  <defs
     id="defs5" />
  <rect
     width="900"
     height="600"
     x="0"
     y="0"
     id="rect2532"
     style="fill:#ffffff;stroke:none" />
  <path
     d="m 418.96877,123.1875 c -50.20461,8.89969 -93.07932,38.67 -119.5,80.0625 l 60.03125,29.59375 c 15.46349,-20.82597 37.88817,-36.17898 63.84375,-42.5625 l -4.375,-66.875 c -0.005,-0.0749 0.002,-0.14405 0,-0.21875 z m 63,0 c -0.002,0.0747 0.005,0.14384 0,0.21875 l -4.375,66.875 c 25.82158,6.34871 48.16776,21.56086 63.62501,42.21875 L 601.03123,203 c -26.3405,-41.24724 -69.01251,-70.92986 -119.06246,-79.8125 z m -87.625,89.3125 -6.375,17.9375 20.375,21.375 L 425.06252,241 413.28127,214.34375 Z m 112.96876,0.28125 -18.90625,2.1875 -10.875,27.09375 16.34375,10.3125 20.15625,-21.8125 z m 101.875,4.3125 -55.3125,36.96875 c 6.31884,14.10782 9.84375,29.73388 9.84375,46.1875 0,10.81419 -1.54206,21.23453 -4.375,31.09375 l 59.06245,29.125 c 0.178,0.0873 0.3645,0.178 0.5313,0.28125 6.71709,-18.86765 10.375,-39.23068 10.375,-60.5 0,-29.99127 -7.2532,-58.28527 -20.125,-83.15625 z m -317.84375,0.34375 c -12.82006,24.79409 -20.09375,52.94721 -20.09375,82.8125 0,21.16546 3.66132,41.42765 10.34375,60.21875 0.008,-0.004 0.0231,0.004 0.0312,0 l 59.84375,-29.5 c -2.75444,-9.74396 -4.25,-20.04998 -4.25,-30.71875 0,-16.28153 3.45859,-31.72853 9.65625,-45.71875 z m 67.3125,62.5625 -11.6875,15 11.6875,15 28.25,-4.0625 v -19.625 z m 183.625,1 -28.25,6.1875 v 19.5 l 28.25,4.3125 11.6875,-15 z m -129.03125,71.15625 -17.78125,22.21875 7.15625,17.625 18.8125,-2.625 8.5625,-28.3125 z m 74.46875,0.375 -17.28125,9.0625 8.5625,28.25 18.75,3.15625 7.625,-17.4375 z M 368.53128,377.9375 313.12503,415 c -0.0798,0.0529 -0.16823,0.0762 -0.25,0.125 31.21099,37.23586 77.37205,61.48693 129.46875,63.78125 l -4.40625,-67.09375 c -27.18557,-2.94245 -51.49368,-15.32696 -69.40625,-33.875 z m 163.46875,0.375 c -17.87359,18.32585 -42.01214,30.57847 -69,33.5 l -4.40625,67.09375 c 51.9519,-2.29263 97.92551,-26.42139 129.03125,-63.5 -0.25031,-0.11959 -0.4842,-0.25081 -0.7188,-0.40625 z"
     id="path2489"
     style="fill:#610051;stroke:none" />
  <g
     id="g2424"
     style="fill:#ffd700;stroke:none" />
  <path
     id="path13"
     style="fill:#bae1e6;fill-opacity:1;fill-rule:nonzero;stroke:#000000"
     d="M 470.65625 85.582031 C 469.88408 85.548231 469.13355 85.633031 468.46875 85.863281 C 454.02239 90.866026 451.90623 123.91015 442.46094 123.64062 C 441.75095 123.62003 442.04268 123.67182 443.05273 123.77539 C 441.69267 123.83389 440.33329 123.90821 438.97461 123.99805 C 439.71815 123.85637 442.11174 123.38389 441.49609 123.51562 C 432.62501 125.41015 434.45309 103.44138 417.61719 89.414062 C 415.73438 87.847654 413.41014 88.453121 409.17578 89.1875 C 404.75 89.953119 403.52732 130.29688 394.36328 132.58984 C 393.62916 132.7735 394.07194 132.71681 395.23633 132.51172 C 394.40862 132.78487 393.5822 133.05997 392.75781 133.3457 C 385.64077 134.30888 380.76775 114.84478 362.0625 106.47656 C 359.82423 105.47656 357.75391 106.6914 353.875 108.54297 C 349.82033 110.48046 348.33593 111.35157 347.57031 113.73438 C 342.78602 128.66121 359.07801 149.06192 350.83594 154.375 C 350.80084 154.378 350.69366 154.4474 350.49219 154.60156 C 350.2754 154.73744 350.247 154.77638 350.32422 154.75977 C 344.30118 160.79015 334.3995 141.43166 312.91797 138.25781 C 310.4961 137.90234 308.82812 139.63282 305.59766 142.46484 C 302.21875 145.42578 301.02343 146.66407 300.93359 149.16406 C 300.35546 165.05465 322.19061 180.49611 315.39062 186.60156 C 315.25078 186.77255 315.1814 186.87902 315.16016 186.9375 C 310.13687 194.25393 295.41431 178.50295 274.00781 181.24609 C 271.57812 181.55859 270.4375 183.67579 268.09375 187.27734 C 265.64454 191.03906 264.83204 192.55859 265.41797 194.98828 C 269.01881 209.84219 292.42541 218.69355 290.23633 226.47656 C 289.859 227.2992 289.48902 228.12401 289.125 228.95117 C 284.87245 234.63568 267.3806 225.10023 248.61719 233.06641 C 246.35938 234.02344 245.83594 236.36718 244.55469 240.46875 C 243.21485 244.7578 242.84375 246.43751 244.06641 248.62109 C 251.26383 261.43417 274.59529 263.94883 276.46484 271.85352 C 276.25743 273.13954 276.06365 274.42733 275.88477 275.7168 C 272.1699 282.06219 252.93461 277.78447 237.14844 290.43359 C 235.23438 291.96484 235.36719 294.3633 235.24219 298.66016 C 235.11329 303.14843 235.20708 304.86719 236.97656 306.63672 C 247.56012 317.21293 271.36279 312.98228 275.28906 319.69727 C 275.41181 320.80249 275.54585 321.90658 275.68945 323.00977 C 273.76026 329.85402 254.15122 330.64248 242.125 346.83203 C 240.66408 348.80078 241.39843 351.08593 242.37109 355.27344 C 243.38281 359.64842 243.91016 361.28906 246.07422 362.55078 C 258.80083 369.98247 280.28689 360.26614 286.58789 365.16992 C 287.05536 366.35062 287.53732 367.52679 288.03125 368.69922 C 287.01417 375.54948 268.71638 381.69638 261.61328 400.30078 C 260.74218 402.58593 262.0664 404.58986 264.13281 408.35938 C 266.29295 412.29687 267.2461 413.73048 269.66797 414.35938 C 284.18997 418.13827 302.63747 402.34941 309.82422 406.45898 C 310.57756 407.45421 311.34385 408.44307 312.12109 409.42578 C 313.74098 416.22053 297.93152 427.08072 296.13672 446.81641 C 295.91407 449.25781 297.73438 450.82422 300.74219 453.89453 C 303.88671 457.10156 305.19141 458.22265 307.69531 458.17578 C 323.32728 457.86844 337.31393 435.96134 343.80273 440.56641 C 343.90073 440.64121 343.99953 440.71452 344.09766 440.78906 C 343.65445 440.57623 343.84123 440.70106 344.43359 441.04297 C 344.73287 441.26917 345.03166 441.49665 345.33203 441.7207 C 350.3709 447.11335 336.9674 462.2293 340.71875 482.47266 C 341.16797 484.88281 343.34375 485.89843 347.07031 488.03906 C 350.96483 490.27734 352.52735 491.0039 354.92188 490.28125 C 368.99753 486.0253 376.50016 463.77337 384.28516 463.68164 C 385.44908 464.15353 386.64468 464.515 387.81641 464.96094 C 393.78348 469.70642 385.27593 487.67586 394.26172 505.94141 C 395.34375 508.14062 397.71485 508.53125 401.88281 509.58203 C 406.23827 510.68359 407.93751 510.96089 410.04688 509.61719 C 423.23119 501.21181 423.75127 475.20554 432.87891 475.625 C 433.6359 475.7013 434.3868 475.84159 435.14453 475.9082 C 441.75462 478.27347 438.47211 497.77307 451.98828 512.89062 C 453.62108 514.71484 456.01173 514.45313 460.30469 514.34766 C 464.79687 514.23438 466.50782 514.04687 468.17969 512.18359 C 478.79295 500.34378 471.90237 474.50469 481.70703 473.90234 C 480.98839 474.18413 481.45236 474.06176 482.60742 473.70312 C 482.58092 473.70612 482.5559 473.70498 482.5293 473.70898 C 482.5769 473.69998 482.6243 473.69034 482.67188 473.68164 C 482.65738 473.68664 482.62162 473.69873 482.60742 473.70312 C 490.3574 472.70649 491.91656 493.56388 509.72656 504.91016 C 511.79295 506.22656 514.02344 505.32812 518.12891 504.0625 C 522.42187 502.73828 524.01562 502.09375 525.12109 499.84766 C 531.92378 486.01503 519.31832 463.95628 526.57031 459.49609 C 527.44737 459.07861 528.32577 458.66325 529.19727 458.23047 C 537.20048 456.00257 544.55206 474.43446 564.01172 480.30859 C 566.35547 481.01562 568.25782 479.55078 571.87109 477.21875 C 575.64451 474.78515 577.00782 473.73047 577.46094 471.26953 C 580.35156 455.63675 561.00744 437.17185 568.79102 431.27344 L 568.7793 431.28125 C 568.7893 431.27225 568.79899 431.26456 568.80859 431.25586 C 568.51755 431.63128 568.62882 431.52694 569.08789 431.00195 C 569.28402 430.82428 569.47636 430.63964 569.67188 430.46094 C 575.85324 425.95066 588.01056 442.55507 608.88281 442.95703 C 611.33202 443.00393 612.76953 441.07811 615.61328 437.85547 C 618.58983 434.49219 619.61329 433.10938 619.38672 430.61719 C 618.01051 415.5421 596.54715 403.45288 599.04688 395.76172 C 599.59939 394.90664 600.15126 394.05188 600.6875 393.18945 C 606.20354 388.27345 622.08637 400.19787 641.77344 395.07031 C 644.14454 394.44922 645.00391 392.20701 646.87109 388.33594 C 648.82421 384.29297 649.4375 382.68359 648.54297 380.34766 C 643.15442 366.24769 619.34549 360.40956 619.39258 352.06641 C 619.70594 351.04595 620.01025 350.02294 620.30469 348.99805 C 624.39735 342.99634 642.84925 350.0971 660.35938 339.86719 C 662.47265 338.62892 662.6914 336.23828 663.44531 332.00781 C 664.23046 327.58204 664.38672 325.86719 662.89453 323.85938 C 654.04016 311.949 630.18992 312.55088 627.125 304.76953 C 627.158 303.51452 627.17329 302.25925 627.17969 301.00391 C 630.11742 294.42921 649.60079 296.12842 663.57422 281.66016 C 665.27344 279.89455 664.83985 277.53515 664.41797 273.25781 C 663.97657 268.78516 663.66406 267.09375 661.68359 265.5625 C 650.12309 256.63639 627.86601 263.3012 622.04492 257.69922 C 621.71104 256.34446 621.36054 254.99261 620.99414 253.64453 C 623.17431 246.94839 641.93613 243.14689 651.32031 225.72266 C 652.48046 223.56252 651.42187 221.40625 649.85938 217.40234 C 648.22266 213.21877 647.46485 211.67578 645.14453 210.73828 C 631.44043 205.20798 611.51257 218.00871 604.30859 213.12109 C 603.64118 211.94387 602.96028 210.7723 602.26367 209.60742 C 601.88627 202.29799 619.19595 193.57921 623.55469 174.08594 C 624.08985 171.69531 622.48437 169.90625 619.89844 166.47266 C 617.19141 162.89064 616.04297 161.60547 613.55469 161.33203 C 598.74134 159.70278 582.8777 177.73945 574.80469 174.62305 C 573.95246 173.77998 573.09934 172.93938 572.23438 172.11719 L 572.23242 172.11523 C 569.97726 165.76358 584.41561 152.66088 583.32812 132.62109 C 583.19532 130.17579 581.16797 128.88672 577.75 126.28516 C 574.17579 123.56642 572.72265 122.64062 570.25391 123.05078 C 555.70767 125.4667 545.3837 146.66708 535.9082 145.49414 C 534.71628 144.83646 533.52004 144.19053 532.31641 143.5625 C 528.71742 138.08684 539.04909 121.57537 532.58594 102.58984 C 531.79688 100.27345 529.4961 99.578118 525.5 98 C 521.32423 96.347652 519.67577 95.85547 517.41016 96.917969 C 503.01565 103.66795 499.2617 130.14453 490.24219 127.32812 C 488.96371 126.92906 491.18766 127.79432 494.94141 129.22266 C 492.32857 128.5487 489.70382 127.93529 487.06836 127.38281 C 488.40283 127.49338 491.08516 127.70677 490.29297 127.65625 C 481.2383 127.08203 488.9453 106.42577 476.53125 88.367188 C 475.49121 86.852559 472.97277 85.683431 470.65625 85.582031 z M 350.80664 154.55859 C 350.71964 154.61839 350.63179 154.67633 350.54492 154.73633 C 350.57482 154.70313 350.61753 154.65993 350.64062 154.63281 C 350.68332 154.61521 350.75432 154.58119 350.80664 154.55859 z M 450 160.45703 A 141.77692 139.54332 0 0 1 591.77734 300 A 141.77692 139.54332 0 0 1 450 439.54297 A 141.77692 139.54332 0 0 1 308.22266 300 A 141.77692 139.54332 0 0 1 450 160.45703 z M 315.22266 186.96875 C 315.14906 187.05665 315.07534 187.14439 315.00195 187.23242 C 314.99115 187.25012 315.16947 186.96078 315.15625 186.98242 C 315.16525 186.99042 315.19446 186.97945 315.22266 186.96875 z M 482.41602 473.72852 C 482.28929 473.75042 482.15748 473.79062 482.02734 473.82422 C 482.04484 473.81422 482.04936 473.80507 482.03906 473.79688 C 482.16473 473.77428 482.29038 473.75142 482.41602 473.72852 z " />
  <path
     d="m 450.46877,101 -25.5,22 8.6875,132.375 c -6.85261,2.56965 -12.95602,6.66869 -17.90625,11.875 L 266.96877,193.90625 404.71877,286 c -1.40016,4.49969 -2.15625,9.29075 -2.15625,14.25 0,2.39269 0.19225,4.73246 0.53125,7.03125 l -118.8125,58.5625 -6.3125,33.0625 31.8125,11.09375 109.625,-73.28125 c 5.74781,4.9014 12.6694,8.46648 20.28125,10.21875 L 450.46877,511 461.25002,346.9375 c 7.43345,-1.71121 14.2085,-5.14982 19.875,-9.875 L 590.25003,410 l 31.7812,-11.09375 -6.2812,-33.0625 -117.96875,-58.15625 c 0.37949,-2.42811 0.59375,-4.90324 0.59375,-7.4375 0,-5.1476 -0.83966,-10.10197 -2.34375,-14.75 l 136.99995,-91.59375 -148.1562,73.03125 c -4.89507,-5.05472 -10.88168,-9.04555 -17.59375,-11.5625 L 475.96878,123 Z m 0,184.75 c 7.728,0 14,6.772 14,14.5 0,7.728 -6.272,14.125 -14,14.125 -7.728,0 -14.5,-6.397 -14.5,-14.125 0,-7.728 6.772,-14.5 14.5,-14.5 z"
     id="path2491"
     style="fill:#ffd700;stroke:none" />
</svg>
