<?xml version="1.0" encoding="UTF-8" standalone="no"?>
<svg
   xmlns:dc="http://purl.org/dc/elements/1.1/"
   xmlns:cc="http://creativecommons.org/ns#"
   xmlns:rdf="http://www.w3.org/1999/02/22-rdf-syntax-ns#"
   xmlns:svg="http://www.w3.org/2000/svg"
   xmlns="http://www.w3.org/2000/svg"
   xmlns:sodipodi="http://sodipodi.sourceforge.net/DTD/sodipodi-0.dtd"
   xmlns:inkscape="http://www.inkscape.org/namespaces/inkscape"
   width="1005"
   height="701"
   viewBox="0 0 1005 701"
   version="1.1"
   id="svg2"
   inkscape:version="0.91 r13725"
   sodipodi:docname="Flag_of_JCP.svg">
  <metadata
     id="metadata117">
    <rdf:RDF>
      <cc:Work
         rdf:about="">
        <dc:format>image/svg+xml</dc:format>
        <dc:type
           rdf:resource="http://purl.org/dc/dcmitype/StillImage" />
        <dc:title></dc:title>
      </cc:Work>
    </rdf:RDF>
  </metadata>
  <defs
     id="defs115" />
  <sodipodi:namedview
     pagecolor="#ffffff"
     bordercolor="#666666"
     borderopacity="1"
     objecttolerance="10"
     gridtolerance="10"
     guidetolerance="10"
     inkscape:pageopacity="0"
     inkscape:pageshadow="2"
     inkscape:window-width="1366"
     inkscape:window-height="715"
     id="namedview113"
     showgrid="false"
     inkscape:zoom="0.63880597"
     inkscape:cx="385.53728"
     inkscape:cy="416.86341"
     inkscape:window-x="-8"
     inkscape:window-y="-8"
     inkscape:window-maximized="1"
     inkscape:current-layer="svg2" />
  <g
     id="surface1"><path
   style="stroke:#000000;fill-rule:nonzero;fill:rgb(89%, 13%, 24%);fill-opacity:1"
   d="M 0 42.011719 L 58 360.011719 C 58 360.011719 93.105469 347.960938 163 347.011719 C 263.910156 345.636719 280.765625 375.277344 379 375.011719 C 446.613281 374.828125 485 360.011719 485 360.011719 L 427 42.011719 C 427 42.011719 381.667969 54.839844 323 54.011719 C 219.488281 52.550781 183.273438 26.410156 113 27.011719 C 51.175781 27.539062 0 42.011719 0 42.011719 Z "
   id="path5" />
<path
   style="stroke:#000000;fill-rule:nonzero;fill:rgb(89%, 13%, 24%);fill-opacity:1"
   d="M 436 14.011719 L 495 333.011719 C 495 333.011719 534.308594 323.734375 600 320.011719 C 682.042969 315.359375 706.1875 349.238281 816 348.011719 C 883.609375 347.253906 922 333.011719 922 333.011719 L 864 15.011719 C 864 15.011719 818.667969 28.839844 760 28.011719 C 656.488281 26.550781 625.527344 -0.101562 550 0.0117188 C 471.773438 0.125 436 14.011719 436 14.011719 Z "
   id="path7" />
<path
   style="stroke:#000000;fill-rule:nonzero;fill:rgb(89%, 13%, 24%);fill-opacity:1"
   d="M 86 366 L 143 685 C 143 685 188.648438 672.363281 245 671 C 350.429688 668.449219 372.316406 701.769531 458 700 C 512.214844 698.878906 569 687 569 687 L 515 367 C 515 367 433.273438 385.304688 376 386 C 303.742188 386.875 234.558594 358.386719 166 357 C 129.910156 356.269531 86 366 86 366 Z "
   id="path9" />
<path
   style="stroke:#000000;fill-rule:nonzero;fill:rgb(89%, 13%, 24%);fill-opacity:1"
   d="M 525 342.011719 L 578 656.011719 C 578 656.011719 617.308594 646.734375 683 643.011719 C 765.042969 638.359375 800.765625 671.277344 899 671.011719 C 966.613281 670.828125 1005 656.011719 1005 656.011719 L 947 338.011719 C 947 338.011719 894.746094 357.328125 831 359.011719 C 727.515625 361.742188 690.894531 335.011719 623.972656 330.839844 C 562.265625 326.992188 525 342.011719 525 342.011719 Z "
   id="path11" />
<path
   style="stroke:#000000;fill-rule:nonzero;fill:rgb(73%, 88%, 90%);fill-opacity:1"
   d="M 515.46484 193.98047 C 514.69267 193.94667 513.94214 194.0315 513.27734 194.26172 C 498.83095 199.26448 496.71484 232.30859 487.26953 232.03906 C 486.55954 232.01846 486.85127 232.07025 487.86133 232.17383 C 486.50126 232.23238 485.14188 232.30664 483.7832 232.39648 C 484.52674 232.2548 486.92034 231.78232 486.30469 231.91406 C 477.43359 233.80859 479.26172 211.83984 462.42578 197.8125 C 460.54297 196.24609 458.21875 196.85156 453.98438 197.58594 C 449.55859 198.35156 448.33594 238.69531 439.17188 240.98828 C 438.43776 241.17194 438.88053 241.11527 440.04492 240.91016 C 439.21721 241.18331 438.3908 241.45841 437.56641 241.74414 C 430.44936 242.70732 425.57637 223.24324 406.87109 214.875 C 404.63281 213.875 402.5625 215.08984 398.68359 216.94141 C 394.62891 218.87891 393.14453 219.75 392.37891 222.13281 C 387.59461 237.05967 403.88662 257.46035 395.64453 262.77344 C 395.60943 262.77672 395.50225 262.84582 395.30078 263 C 395.08399 263.13588 395.05559 263.17481 395.13281 263.1582 C 389.10976 269.18859 379.20813 249.8301 357.72656 246.65625 C 355.30469 246.30078 353.63672 248.03125 350.40625 250.86328 C 347.02734 253.82422 345.83203 255.0625 345.74219 257.5625 C 345.16406 273.45312 366.99922 288.89453 360.19922 295 C 360.05937 295.17099 359.98999 295.27746 359.96875 295.33594 C 354.94545 302.65239 340.22296 286.90138 318.81641 289.64453 C 316.38672 289.95703 315.24609 292.07422 312.90234 295.67578 C 310.45312 299.4375 309.64063 300.95703 310.22656 303.38672 C 313.8274 318.24066 337.234 327.09197 335.04492 334.875 C 334.66759 335.69764 334.29761 336.52245 333.93359 337.34961 C 329.68103 343.03413 312.18923 333.49865 293.42578 341.46484 C 291.16797 342.42187 290.64453 344.76562 289.36328 348.86719 C 288.02344 353.15625 287.65234 354.83594 288.875 357.01953 C 296.07244 369.83263 319.40388 372.34725 321.27344 380.25195 C 321.06603 381.53798 320.87224 382.82575 320.69336 384.11523 C 316.97849 390.46063 297.74323 386.18288 281.95703 398.83203 C 280.04297 400.36328 280.17578 402.76172 280.05078 407.05859 C 279.92188 411.54687 280.01563 413.26563 281.78516 415.03516 C 292.36874 425.61139 316.17138 421.3807 320.09766 428.0957 C 320.22041 429.20093 320.35445 430.30501 320.49805 431.4082 C 318.56885 438.25246 298.95983 439.04089 286.93359 455.23047 C 285.47266 457.19922 286.20703 459.48437 287.17969 463.67188 C 288.19141 468.04688 288.71875 469.6875 290.88281 470.94922 C 303.60944 478.38093 325.09546 468.66457 331.39648 473.56836 C 331.86395 474.74906 332.34591 475.92523 332.83984 477.09766 C 331.82276 483.94794 313.525 490.09478 306.42188 508.69922 C 305.55078 510.98437 306.875 512.98828 308.94141 516.75781 C 311.10156 520.69531 312.05469 522.12891 314.47656 522.75781 C 328.99859 526.53671 347.44604 510.74783 354.63281 514.85742 C 355.38615 515.85265 356.15245 516.84151 356.92969 517.82422 C 358.54958 524.61899 342.74011 535.47911 340.94531 555.21484 C 340.72266 557.65625 342.54297 559.22266 345.55078 562.29297 C 348.69531 565.5 350 566.62109 352.50391 566.57422 C 368.13591 566.26688 382.12252 544.35976 388.61133 548.96484 C 388.70934 549.03962 388.80812 549.11296 388.90625 549.1875 C 388.46304 548.97467 388.64983 549.0995 389.24219 549.44141 C 389.54147 549.66761 389.84024 549.89509 390.14062 550.11914 C 395.17949 555.51179 381.77598 570.62769 385.52734 590.87109 C 385.97656 593.28125 388.15234 594.29687 391.87891 596.4375 C 395.77344 598.67578 397.33594 599.40234 399.73047 598.67969 C 413.80616 594.42374 421.30874 572.17181 429.09375 572.08008 C 445.45712 578.71438 462.61389 582.78247 479.95312 584.30664 C 486.56322 586.67191 483.28069 606.17147 496.79688 621.28906 C 498.42969 623.11328 500.82031 622.85156 505.11328 622.74609 C 509.60547 622.63281 511.31641 622.44531 512.98828 620.58203 C 523.60156 608.74219 516.71094 582.90313 526.51562 582.30078 C 525.79697 582.58257 526.26096 582.4602 527.41602 582.10156 C 527.38948 582.10497 527.36457 582.1035 527.33789 582.10742 C 527.38549 582.09874 527.43287 582.0888 527.48047 582.08008 C 527.466 582.08458 527.43025 582.09714 527.41602 582.10156 C 535.16602 581.10492 536.72513 601.96228 554.53516 613.30859 C 556.60156 614.625 558.83203 613.72656 562.9375 612.46094 C 567.23047 611.13672 568.82422 610.49219 569.92969 608.24609 C 576.73239 594.41343 564.12691 572.35472 571.37891 567.89453 C 572.25597 567.47705 573.13436 567.06169 574.00586 566.62891 C 582.00909 564.40101 589.36061 582.83288 608.82031 588.70703 C 611.16406 589.41406 613.06641 587.94922 616.67969 585.61719 C 620.45312 583.18359 621.81641 582.12891 622.26953 579.66797 C 625.16016 564.03516 605.81602 545.57031 613.59961 539.67188 L 613.58789 539.67969 C 613.59751 539.67101 613.60757 539.66298 613.61719 539.6543 C 613.6116 539.66093 613.60519 539.6652 613.59961 539.67188 C 613.22059 540.1544 613.4072 539.95992 613.89648 539.40039 C 614.09261 539.22272 614.28495 539.03809 614.48047 538.85938 C 620.66185 534.3491 632.81912 550.95351 653.69141 551.35547 C 656.14063 551.40234 657.57813 549.47656 660.42188 546.25391 C 663.39844 542.89063 664.42188 541.50781 664.19531 539.01562 C 662.8191 523.9405 641.35574 511.85134 643.85547 504.16016 C 644.40799 503.30508 644.95985 502.45032 645.49609 501.58789 C 651.01214 496.67187 666.89492 508.59632 686.58203 503.46875 C 688.95313 502.84766 689.8125 500.60547 691.67969 496.73438 C 693.63281 492.69141 694.24609 491.08203 693.35156 488.74609 C 687.963 474.64609 664.15408 468.808 664.20117 460.46484 C 664.51453 459.44438 664.81884 458.42137 665.11328 457.39648 C 669.20595 451.39476 687.65781 458.49555 705.16797 448.26562 C 707.28125 447.02734 707.5 444.63672 708.25391 440.40625 C 709.03906 435.98047 709.19531 434.26563 707.70312 432.25781 C 698.84873 420.34741 674.99851 420.94934 671.93359 413.16797 C 671.96659 411.91296 671.9819 410.65769 671.98828 409.40234 C 674.92602 402.82763 694.40935 404.52688 708.38281 390.05859 C 710.08203 388.29297 709.64844 385.93359 709.22656 381.65625 C 708.78516 377.18359 708.47266 375.49219 706.49219 373.96094 C 694.93166 365.03481 672.67462 371.69966 666.85352 366.09766 C 666.51964 364.7429 666.16913 363.39105 665.80273 362.04297 C 667.9829 355.34681 686.74471 351.54535 696.12891 334.12109 C 697.28906 331.96094 696.23047 329.80469 694.66797 325.80078 C 693.03125 321.61719 692.27344 320.07422 689.95312 319.13672 C 676.24899 313.60641 656.32118 326.40715 649.11719 321.51953 C 648.44978 320.34231 647.76889 319.17074 647.07227 318.00586 C 646.69487 310.69641 664.00453 301.97769 668.36328 282.48438 C 668.89844 280.09375 667.29297 278.30469 664.70703 274.87109 C 662 271.28906 660.85156 270.00391 658.36328 269.73047 C 643.5499 268.10122 627.68631 286.13789 619.61328 283.02148 C 618.76105 282.1784 617.90794 281.33781 617.04297 280.51562 C 617.0423 280.51499 617.04168 280.51431 617.04102 280.51367 C 614.78586 274.162 629.22421 261.05936 628.13672 241.01953 C 628.00391 238.57422 625.97656 237.28516 622.55859 234.68359 C 618.98437 231.96484 617.53125 231.03906 615.0625 231.44922 C 600.51624 233.86514 590.19232 255.06552 580.7168 253.89258 C 579.52488 253.2349 578.32863 252.58897 577.125 251.96094 C 573.52601 246.48527 583.8577 229.97385 577.39453 210.98828 C 576.60547 208.67188 574.30469 207.97656 570.30859 206.39844 C 566.13281 204.74609 564.48437 204.25391 562.21875 205.31641 C 547.82422 212.06641 544.07031 238.54297 535.05078 235.72656 C 533.7723 235.32749 535.99625 236.19274 539.75 237.62109 C 537.13716 236.94713 534.51241 236.33373 531.87695 235.78125 C 533.21142 235.89182 535.89375 236.10521 535.10156 236.05469 C 526.04687 235.48047 533.75391 214.82423 521.33984 196.76562 C 520.2998 195.25098 517.78136 194.08187 515.46484 193.98047 z M 395.61523 262.95703 C 395.52828 263.01685 395.44039 263.07477 395.35352 263.13477 C 395.38337 263.1016 395.42609 263.05834 395.44922 263.03125 C 395.49192 263.01363 395.56291 262.97965 395.61523 262.95703 z M 360.03125 295.36719 C 359.95766 295.45511 359.88394 295.54283 359.81055 295.63086 C 359.79975 295.64856 359.97806 295.35922 359.96484 295.38086 C 359.97361 295.3887 360.00308 295.37779 360.03125 295.36719 z M 527.22461 582.12695 C 527.09788 582.14887 526.96608 582.18909 526.83594 582.22266 C 526.85341 582.21286 526.85791 582.20342 526.84766 582.19531 C 526.97333 582.17275 527.09897 582.14979 527.22461 582.12695 z "
   id="path13" />
<path
   style=" stroke:none;fill-rule:nonzero;fill:rgb(73.33374%,88.235474%,90.588379%);fill-opacity:1;"
   d="M 431 572.5 C 440.003906 575.351562 429.398438 594.679688 439.070312 614.339844 C 440.152344 616.539062 442.523438 616.929688 446.691406 617.980469 C 451.046875 619.082031 452.746094 619.359375 454.855469 618.015625 C 468.261719 609.46875 468.574219 582.722656 478.15625 584.066406 C 483.585938 585.355469 425.480469 572.285156 431 572.5 Z "
   id="path59" />
<path
   style="stroke:#000000;fill-rule:nonzero;fill:rgb(89%, 13%, 24%);fill-opacity:1"
   d="M 559.554688 343.945312 C 595.480469 379.875 595.480469 438.125 559.554688 474.054688 C 523.625 509.980469 465.375 509.980469 429.445312 474.054688 C 393.519531 438.125 393.519531 379.875 429.445312 343.945312 C 465.375 308.019531 523.625 308.019531 559.554688 343.945312 "
   id="path101" />
<path
   style="stroke:#000000;fill-rule:nonzero;fill:rgb(96%, 68%, 0%);fill-opacity:1"
   d="M 685.25 46.25 C 678.35156 46.382812 675.23828 53.117188 672.25 53.5 C 669.03125 53.910156 669.70312 47.617188 657 49.5 C 649.14453 50.664062 644.25 58.75 644.25 58.75 C 644.25 58.75 638.73828 52.40625 630.25 54 C 624.68359 55.042969 617.5 64.75 617.5 64.75 C 617.5 64.75 612.08203 59.117188 603 63.75 C 596.60547 67.011719 592 75.25 592 75.25 C 592 75.25 581.71875 76.316406 575.5 81.25 C 571.46124 84.453242 570.90937 91.502482 570.99609 95.988281 C 529.19971 145.7805 502.47416 200.70945 493.77344 219.91406 C 491.71484 224.45703 491.32422 226.33984 490.66797 227 C 485.63672 232.05469 504.63281 180.08594 510.66797 164.33203 C 536.26562 97.503907 566.81641 67.011719 565.33203 63 C 562.76172 56.050781 528.84766 93.234375 498.33203 153 C 448.13281 251.32031 439.33203 427 439.33203 427 C 439.33203 427 439.41016 429.92969 437.75 429.8125 C 437.33963 429.7831 437.07425 426.92627 436.82031 423.47852 C 436.74224 389.99186 438.74184 308.29411 457.46875 223.67969 C 470.67969 164.00391 486.40234 140.88281 481 137.66797 C 474.75781 133.94922 453.28906 184.73438 440.75 216.60156 C 434.45004 232.60634 414.04702 288.66102 408.96289 375.07617 C 405.50692 382.70801 387.80357 431.81193 429 474 C 469.5625 515 522.25 497.5 521.25 497 L 521.05078 496.88867 C 521.20038 496.55865 536.51102 462.80732 551.5 440.25 C 563.85547 421.66016 570.74219 412.16797 589.25 392.25 C 612.19531 367.55469 634.37109 354.79688 633.5 352.25 C 630.94531 344.77734 596.83203 366.24219 585.25 374 C 563.90625 388.29297 546.16016 405.46094 529 424.75 C 509.44141 446.73828 496.5 479.25 496.5 479.25 C 496.5 479.25 495.47536 481.84765 494.75195 482.25391 L 494.24219 481.9707 C 494.16028 481.74303 494.12867 481.36736 494.11523 480.9375 C 494.1393 480.94825 494.25 481 494.25 481 C 494.25 481 499.83203 448.89844 520.25391 409 C 533.80078 382.53516 543.32031 369.81641 559.25 346 C 577.11719 319.28516 604.95703 297.26562 602.5 294 C 598.77344 289.05078 569.78125 308.03906 543.04297 332.75 C 519.89062 354.14453 514.89453 364.90625 501.75 383.96875 C 481.25391 413.69922 470.75 450 470.75 450 C 470.75 450 469.83984 453.37109 468.75 452.30078 C 468.64608 452.19919 468.90195 449.88421 469.27539 446.80078 C 474.39488 420.89192 497.08319 323.18409 564.66797 221.66797 C 593.24219 178.74219 613.86328 161.01953 614 156.66797 C 614.28125 147.71094 581.59766 173.95312 554 203 C 515.34766 243.68359 476.58203 336.35156 473.33203 334.33594 C 471.89453 333.44141 491.58594 224.55078 530 173.66797 C 535.39645 166.51989 542.62022 151.88302 556.21875 143.91797 C 559.13759 145.56989 563.80131 147.48423 569.25 147 C 578.23438 146.19922 581 136.25 581 136.25 C 581 136.25 583.69141 140.58203 589.51172 140 C 596.13672 139.33594 598.75 132 598.75 132 C 598.75 132 603.64453 137.53906 608.35156 138 C 612.96484 138.45312 618.44531 138 618.44531 138 C 618.44531 138 618 147.56641 624.78125 153 C 631.82422 158.64453 638.64844 155.62891 638.64844 155.62891 C 638.64844 155.62891 642.00391 142.73047 632.75 134 C 629.60547 131.03125 623.80859 130.69922 622.75 128 C 621.54856 124.9314 619.54725 122.9037 617.35938 121.5625 C 617.48932 121.62545 617.61647 121.69123 617.75 121.75 C 621.64062 123.46484 625.25 122.25 625.25 122.25 C 625.25 122.25 626.48828 127.55469 627.75 128 C 632.44141 129.65625 635.99219 133.01172 637.5 135.75 C 638.55469 137.66797 644.75 135.5 644.75 135.5 C 644.75 135.5 642.78516 146.82422 644.5 150.75 C 649.23047 161.59766 661.75 159.75 661.75 159.75 C 661.75 159.75 664.70312 148.48047 659.5 140 C 656.66016 135.37109 649 131.5 649 131.5 C 649 131.5 648.17969 121.30469 641.5 116.25 C 634.22266 110.74219 628 113.75 628 113.75 C 628 113.75 624.14844 107.59766 618.25 106 C 612.10547 104.33594 608.25 107.25 608.25 107.25 C 608.25 107.25 609.63011 116.87986 616.29297 120.98047 C 611.70611 118.65987 606.75 119 606.75 119 C 606.75 119 607.96484 112.71875 604.75 109 C 600.96875 104.63281 591.75 106.79687 591.75 106.79688 C 591.75 106.79688 591.30078 112.60547 589.75 117 C 588.48047 120.59766 597.75 119 597.75 119 L 598.37891 125 C 598.37891 125 591.12822 120.98705 584.7168 120.63867 C 592.4367 115.49553 590 102.5 590 102.5 C 590 102.5 583.32812 100.61719 576.75 103.25 C 575.56294 103.7254 574.45908 104.30376 573.43164 104.94922 C 572.91552 102.81683 572.95957 100.77564 574.33008 99.259766 C 578.47185 98.190035 585.78729 95.990575 590.04492 92.945312 C 589.60808 93.272441 589.17489 93.618568 588.75 94 C 586.94922 95.617188 589.25 101 589.25 101 C 589.25 101 591.91406 101.13672 591.75 104.25 C 591.72656 104.67188 596.16797 105.8125 605.5 99.75 C 606.92478 98.824954 607.63087 97.370375 607.95508 95.855469 C 608.29695 98.734883 609.21951 102.46223 611.75 102.75 C 613.08984 102.90234 616.15625 103.33594 619 104.25 C 623.94922 105.83984 623.36719 106.75391 624.75 107.25 C 629.19922 108.84766 632 106.25 632 106.25 C 632 106.25 633.21875 109.96094 634.5 110 C 635.99609 110.04688 638.51562 111.61328 640.75 113 C 644.41406 115.26953 646.43359 118.08203 647.5 120 C 648.73047 122.21875 653.25 119 653.25 119 C 653.25 119 653.60156 126.20312 656.5 130 C 665.76172 142.14062 676.25 136.25 676.25 136.25 C 676.25 136.25 677.64844 123.96484 669.5 117.5 C 663.15625 112.46484 657 112.5 657 112.5 C 657 112.5 656.72901 107.93807 655.26367 104.38867 C 661.42168 106.43899 668.5 105.25 668.5 105.25 C 668.5 105.25 667.66016 109.65625 672.5 117.75 C 676.82422 124.98438 684.25 123.5 684.25 123.5 C 684.25 123.5 683.87109 134.08594 685.75 139.5 C 689.35547 149.88281 702.25 146.75 702.25 146.75 C 702.25 146.75 705.17188 139.56641 701.75 132 C 697.46875 122.53125 690.5 119.5 690.5 119.5 C 690.5 119.5 692.39663 116.68362 690.31445 111.59766 C 697.60642 123.25289 707 119.75 707 119.75 C 707 119.75 705.17969 133.23047 707.75 138 C 711.89844 145.69922 723 145.25 723 145.25 C 723 145.25 727.19922 137.54688 723.75 129.25 C 719.79297 119.73047 710.75 117 710.75 117 C 710.75 117 712.09766 110.24219 706.5 103 C 698.84375 93.097656 692.5 95.25 692.5 95.25 C 692.5 95.25 692.62891 88.1875 684 82.25 C 683.67969 82.029513 683.36203 81.843792 683.04492 81.658203 C 689.54834 80.656633 690.5 75 690.5 75 C 690.5 75 686.86328 72.101562 679.5 72 C 671.84375 71.894531 671 76.25 671 76.25 C 671 76.25 672.64726 78.161968 674.85938 79.736328 C 672.42792 79.861066 670.76565 80.389876 670.5 79.75 C 669.32031 76.898438 667.10547 75.457031 668 75.25 C 674.44922 73.761719 674.5 68.25 674.5 68.25 C 674.5 68.25 669.67932 66.43849 663.625 66.291016 C 667.94042 65.100504 670.33555 59.419372 672.75 59.25 C 675.39844 59.0625 681.14453 63.78125 686.5 64.25 C 692.66406 64.792969 697.45313 59.429688 700.5 59.25 C 705.31041 58.963089 707.11282 63.992744 712.89258 64.671875 C 710.05034 65.142412 707.17025 66.538344 707 68.25 C 706.70703 71.210938 713.77734 70.671875 715.5 71.75 C 717.50781 73.007812 724.33594 75.832031 726.5 71.5 C 727.15485 70.193885 722.96542 65.673227 716.94336 64.6875 C 724.09093 64.108611 725.41628 60.586604 728 61 C 730.63727 61.420803 735.17675 66.126639 739.10547 68.294922 C 736.31507 68.16409 733.29066 68.523465 732.5 70.25 C 731.86328 71.644531 738.91406 72.628906 743.25 77.75 C 745.12109 79.957031 750.11328 80.167969 755 83.5 C 763.30078 89.160156 763.75 96.75 763.75 96.75 C 763.75 96.75 766.82422 98.316406 769.75 99.5 C 772.61719 100.66016 774.75 103 774.75 103 C 774.75 103 775.59766 111.31641 778.5 115 C 784.10156 122.10547 790.75 120.5 790.75 120.5 C 790.75 120.5 788.69141 131.77344 789.5 135.75 C 791.52344 145.69531 799.25 144 799.25 144 C 799.25 144 794.76953 156.54688 797.5 163 C 801.08984 171.48438 811.25 172.5 811.25 172.5 C 811.25 172.5 818.35938 164.90234 813.75 152.75 C 811.85547 147.76172 807 143.25 807 143.25 C 807 143.25 809.54688 135.98047 807 129.75 C 803.16406 120.36328 797.5 117.75 797.5 117.75 C 797.5 117.75 797.52734 107.59375 790 100.75 C 783.86328 95.171875 777.75 96.25 777.75 96.25 C 777.75 96.25 775.66797 90.125 769.25 84.5 C 763.07031 79.085938 756.75 81.25 756.75 81.25 C 756.75 81.25 752.83502 73.491647 745.98828 69.96875 C 750.76813 69.797727 754 67 754 67 C 754 67 757.16406 54.246094 742.25 50.75 C 733.59766 48.71875 731.41406 54.316406 728.5 54 C 725.17969 53.636719 723.83203 46.964844 714 47 C 704.55078 47.035156 703.0625 53.535156 700 53.5 C 696.73828 53.464844 696.90625 46.027344 685.25 46.25 z M 689.73438 64.216797 C 689.26048 64.211525 688.8418 64.223145 688.5 64.25 C 683.91406 64.613281 681.75 69.25 681.75 69.25 C 681.75 69.25 688.24219 70.46875 690 71 C 694.76562 72.4375 696.90625 74.101562 698.75 75.75 C 700.71094 77.5 702.14844 76.199219 705.75 79.25 C 708.84375 81.867188 711.75 83.25 711.75 83.25 C 711.75 83.25 714.52088 79.647735 717.90234 78.525391 C 718.96456 78.580973 725.42889 78.979175 728.5 80.75 C 732.55859 83.09375 735.75 86 735.75 86 C 735.75 86 737.98438 81.265625 740.5 79 C 742.36328 77.324219 733.75781 74.71875 729.75 74 C 722.7859 72.748473 719.64181 75.254867 718.33398 77.003906 C 716.96071 75.720663 714.12937 73.776295 711.75 72.75 C 709.92969 71.964844 702.75 70.75 702.75 70.75 C 702.75 70.75 700.94922 67.734375 700.25 66.75 C 699.06738 65.082031 693.05162 64.2537 689.73438 64.216797 z M 646.25 65 C 646.25 65 653.27303 66.335435 659.10156 66.53125 C 656.18716 66.964674 654.92325 68.963321 655 69.75 C 655.31641 73.058594 658.5 73.75 658.5 73.75 C 658.5 73.75 648.96484 74.359375 647 79.25 C 646.78906 79.769531 649 82.5 649 82.5 C 649 82.5 654.86328 82.019531 657.5 82.75 C 662.125 84.03125 666.75 83.5 666.75 83.5 C 666.75 83.5 668.71875 88.644531 669.25 89.25 C 672.86719 93.367188 671.63281 94.859375 674.25 96.5 C 684.39062 102.85547 689.5 98 689.5 98 C 689.5 98 688.83084 107.32881 689.93164 110.74805 C 689.66525 110.18719 689.36861 109.60997 689 109 C 684.47656 101.51562 672.25 99.75 672.25 99.75 C 672.25 99.75 671.57422 93.238281 662.25 87 C 655.78906 82.675781 648 85.25 648 85.25 C 648 85.25 643.60547 80.554688 639.25 80.25 C 637.51953 80.128906 642.69141 79.941406 645.75 78 C 649.11328 75.863281 648.75 72.25 648.75 72.25 C 648.75 72.25 641.01953 70.882812 635.5 72.5 C 629.61328 74.226562 632.25 78.75 632.25 78.75 L 624.75 80.75 C 624.75 80.75 621.75439 77.600816 613.28125 78.142578 C 616.96307 74.457874 618.25 70 618.25 70 C 618.25 70 625.375 73.703125 633.5 72.75 C 643.19531 71.613281 646.25 65 646.25 65 z M 758.61133 70.435547 C 755.32821 70.498299 752.5 71 752.5 71 C 752.5 71 756.98047 74.730469 758.5 79.5 C 758.55078 79.65625 763.4375 79.019531 766.75 81 C 768.98438 82.339844 772.58594 80.996094 773 80.5 C 773.89844 79.421875 772.15625 73.070312 764.5 71 C 762.71436 70.518067 760.5812 70.397896 758.61133 70.435547 z M 697.10156 78.136719 C 692.9657 78.029171 690.25 79.75 690.25 79.75 C 690.25 79.75 688.42578 83.820312 689.5 85 C 690.95312 86.601562 693.01172 89.980469 693.75 93.25 C 694.03125 94.503906 696.22656 93.347656 699 94.75 C 701.18359 95.855469 702.93359 97.742188 704.75 98.75 C 707.33203 100.18359 711 98 711 98 C 711 98 708.375 108.85156 715.75 115 C 723.27734 121.27344 727.5 119.25 727.5 119.25 C 727.5 119.25 724.06641 127.41797 725.75 133 C 729.42188 145.16797 743.5 142.5 743.5 142.5 C 743.5 142.5 746.40625 131.37109 741.5 122.5 C 741.28161 122.10521 741.06014 121.74366 740.83594 121.39648 C 744.60917 122.7501 750.25 122.5 750.25 122.5 C 750.25 122.5 746.54297 129.59766 748 140.25 C 749.04297 147.89844 763.25 148.75 763.25 148.75 C 763.25 148.75 768.80469 141.12891 766 132.75 C 761.89062 120.46484 755.25 122 755.25 122 C 755.25 122 758.00781 114.49219 752.5 105.75 C 746.08594 95.574219 738.25 96 738.25 96 C 738.25 96 735.21094 87.820312 727.75 83.25 C 720.07422 78.546875 714 84 714 84 C 714 84 712.58203 89.679688 714.75 91.75 C 715.90234 92.847656 718.70312 91.980469 723 95 C 726.39062 97.382812 728.49219 99.636719 729.5 101.5 C 730.17578 102.75391 734.75 101.25 734.75 101.25 C 734.75 101.25 734.09681 110.97295 736.85938 117.35742 C 734.44371 115.91722 732.5 116.25 732.5 116.25 C 732.5 116.25 732.1875 104.8125 724.5 98.25 C 717.33984 92.136719 712.75 94.5 712.75 94.5 C 712.75 94.5 711.9375 83.84375 703.5 79.75 C 701.15503 78.612305 698.9815 78.185604 697.10156 78.136719 z M 593.5 79.75 C 593.5 79.75 599.73141 82.674378 605.13477 82.291016 C 605.17792 84.579854 606.65606 87.448569 612.25 88.25 C 616.19141 88.8125 624 85.25 624 85.25 C 624 85.25 624.05495 87.577025 624.76367 90.027344 C 624.45006 90.058394 624.12258 90.065054 623.75 90 C 615.38815 88.536425 609.61238 91.42143 608.14453 92.265625 C 608.0277 90.809293 607.75 89.75 607.75 89.75 C 607.75 89.75 598.45268 87.066048 590.55078 92.578125 C 591.49226 91.845288 592.26439 91.071103 592.75 90.25 C 595.61719 85.402344 593.5 79.75 593.5 79.75 z M 778.80273 81.382812 C 776.18066 81.296875 774.25 81.75 774.25 81.75 C 774.25 81.75 772.23828 84.667969 773.25 85.5 C 777.03125 88.601562 779 94.5 779 94.5 C 779 94.5 782.73438 94.539062 786.5 96 C 789.83594 97.296875 792.60937 99.574219 795 97 C 798.75 92.960938 789.88672 86.113281 787.5 84.25 C 784.73828 82.09375 781.4248 81.46875 778.80273 81.382812 z M 745.17578 81.435547 C 743.35887 81.521309 741.5542 82.233398 740 84 C 736.94922 87.46875 736.32422 89.777344 739.75 93.75 C 740.30469 94.394531 743.90234 94.964844 745.75 96.25 C 749.21094 98.652344 751.0078 99.488277 753.10938 103.66016 C 753.86719 105.16016 756.75 104 756.75 104 C 756.75 104 755.09766 111.97656 757 115.75 C 762.65234 126.96875 772.25 124.5 772.25 124.5 C 772.25 124.5 766.47656 131.40234 770.75 143.25 C 773.48828 150.84766 785.25 151 785.25 151 C 785.25 151 790.23828 144.46094 787 133.5 C 784.10547 123.70703 776.5 122.75 776.5 122.75 C 776.5 122.75 778.64062 114.57812 774 106 C 770.73438 99.964844 762.25 98.5 762.25 98.5 C 762.25 98.5 762.91016 90.867188 753.25 84.25 C 751.26514 82.890137 748.20396 81.29261 745.17578 81.435547 z M 796.13281 86.273438 C 794.95213 86.301933 794.25 86.5 794.25 86.5 C 794.25 86.5 796.60156 90.261719 798 94.75 C 798.45703 96.214844 802.60547 92.886719 811 103 C 813.89453 106.48828 816.75 117 816.75 117 C 816.75 117 819.35547 116.21094 821.48828 118.01562 C 825.28516 121.23047 825.15625 121.38672 826.75 124 C 827.38402 125.04193 827.38836 126.54924 827.30078 128.36914 C 827.28262 128.3298 827.26849 128.28923 827.25 128.25 C 821.86719 116.82422 815.75 118.5 815.75 118.5 C 815.75 118.5 814.21484 110.14844 809 103 C 802.89453 94.628906 795.25 98.5 795.25 98.5 C 795.25 98.5 793.82422 102.73438 794.5 103.5 C 797.44141 106.83984 797.08594 106.93359 798 109.25 C 799.14062 112.14844 799.5 116.75 799.5 116.75 C 799.5 116.75 801.97656 119.07812 804.75 120.75 C 807.0625 122.14453 810.5 121.5 810.5 121.5 C 810.5 121.5 806.48438 131.11719 809.25 137.25 C 812.99609 145.55469 821.5 145.5 821.5 145.5 C 821.5 145.5 816.67578 152.55859 817.75 160.75 C 818.67188 167.77734 824.72266 169.09375 825.75 171.5 C 827.05859 174.56641 819.88672 177.85937 821.75 189.25 C 823.32422 198.86328 834.25 200.5 834.25 200.5 C 834.25 200.5 841.17188 194.15234 839.75 185.25 C 838.39062 176.73047 836.14844 175.73047 835.25 171.5 C 834.62109 168.53516 837.94141 165.60547 836.25 157.5 C 834.27344 148.02734 828.5 144.75 828.5 144.75 C 828.5 144.75 828.89459 142.94668 829.07617 140.36914 C 832.42301 145.95514 841 147.5 841 147.5 C 841 147.5 839.02734 156.37109 840.25 164.75 C 840.97656 169.72266 849.25 173.25 849.25 173.25 C 849.25 173.25 843.77734 177.73828 844.25 191 C 844.48828 197.74609 857 202.5 857 202.5 C 857 202.5 863.34375 198.75391 863.25 186.5 C 863.18359 178.19531 858.41016 175.14453 857.5 171.75 C 856.83594 169.26562 861.22656 166.01172 858.5 156.75 C 856.19922 148.94141 848.5 144.75 848.5 144.75 C 848.5 144.75 848.99219 135.33984 844.25 129.25 C 839.59766 123.28125 834.33594 122.5 832.25 120 C 829.92578 117.21484 832.16406 112.22266 824.5 105 C 817.55859 98.457031 815.84766 101.19531 813 99.5 C 810.47266 97.996094 811.125 93.671875 805 89.25 C 801.39893 86.649902 798.10062 86.225945 796.13281 86.273438 z M 647 94.25 C 647 94.25 647.45238 97.017339 648.90234 99.5625 C 642.19389 97.920687 635.25 98.5 635.25 98.5 C 635.25 98.5 635.16266 97.421354 634.89648 96.021484 C 640.56398 95.821482 647 94.25 647 94.25 z M 567.68359 120.73633 C 570.3302 121.92661 573.88615 122.95943 577.97656 122.69336 C 576.26153 124.63569 576.44531 127.28516 576.44531 127.28516 C 576.44531 127.28516 571.22266 126.44922 564.5 128.5 C 560.06741 129.85194 556.66041 134.75608 554.74219 138.20312 C 552.57344 138.5351 550.66797 139 550.66797 139 C 550.66797 139 556.20875 128.74144 567.68359 120.73633 z "
   id="path61" />
\
</g>
</svg>
