<svg xmlns="http://www.w3.org/2000/svg" viewBox="0 0 800 533"><defs><style>.cls-1{fill:#5db8ee;}.cls-2{fill:#07af13;stroke:#009a07;stroke-miterlimit:10;stroke-width:2px;}</style></defs><title>Asset 3 (2)</title><g id="Layer_2" data-name="Layer 2"><g id="Layer_2-2" data-name="Layer 2"><rect class="cls-1" width="800" height="533"/><path class="cls-2" d="M627.72,247l-6.7-5.59L604.26,238l-73.19-7.82S486.94,198.9,478,193.88s-32.4-8.38-38.54-9.5-14-58.66-14-58.66l-12.92,34.44L402,125.72,372,190.35s-2.62-1.17-31.94,11.91c-36.31,16.2-168.15,122.9-168.15,122.9s93.29,30.72,117.31,49.72a459.45,459.45,0,0,0,46.93,32.4l65.36-65.92,17.32,3.91c79.32,0,129-9.5,143-15.64s16.76-22.91,16.76-22.91L559,302.25l-7.82,7.27-9.5-7.83-7.82,7.83-9.5-8.38-8.94,8.38-8.94-6.15-7.82,6.15-9.49-6.71-9.5,6.71-8.38-8.38L461,309.52l-10.88-11.74-4.47,5-6.7-5,12.29-12.29L461,296.11l7-10.06,11.73,9.5,6.7-11.73L497,296.67l8.38-12.29,10,11.73,7.26-11.73,11.18,12.29,9.49-12.85,11.18,12.85,14-10.62,17.88,16.76a264.37,264.37,0,0,1,29-34.08C631.63,253.09,627.72,247,627.72,247ZM441.07,231.31l14.53-10.62,14,10.62Z"/><line class="cls-2" x1="412.57" y1="160.16" x2="419.66" y2="183.37"/></g></g></svg>