<?xml version="1.0" encoding="UTF-8" standalone="no"?>
<svg
   xmlns:dc="http://purl.org/dc/elements/1.1/"
   xmlns:cc="http://creativecommons.org/ns#"
   xmlns:rdf="http://www.w3.org/1999/02/22-rdf-syntax-ns#"
   xmlns:svg="http://www.w3.org/2000/svg"
   xmlns="http://www.w3.org/2000/svg"
   xmlns:sodipodi="http://sodipodi.sourceforge.net/DTD/sodipodi-0.dtd"
   xmlns:inkscape="http://www.inkscape.org/namespaces/inkscape"
   version="1.0"
   width="1200"
   height="600"
   id="svg3633"
   inkscape:version="0.48.2 r9819"
   sodipodi:docname="AJAX1.svg">
  <metadata
     id="metadata3647">
    <rdf:RDF>
      <cc:Work
         rdf:about="">
        <dc:format>image/svg+xml</dc:format>
        <dc:type
           rdf:resource="http://purl.org/dc/dcmitype/StillImage" />
        <dc:title />
      </cc:Work>
    </rdf:RDF>
  </metadata>
  <defs
     id="defs3645">
    <clipPath
       id="t">
      <path
         id="path138164"
         d="m 30,15 h 30 v 15 z m 0,0 V 30 H 0 z m 0,0 H 0 V 0 z m 0,0 V 0 h 30 z"
         inkscape:connector-curvature="0" />
    </clipPath>
  </defs>
  <sodipodi:namedview
     pagecolor="#ffffff"
     bordercolor="#666666"
     borderopacity="1"
     objecttolerance="10"
     gridtolerance="10"
     guidetolerance="10"
     inkscape:pageopacity="0"
     inkscape:pageshadow="2"
     inkscape:window-width="1280"
     inkscape:window-height="1004"
     id="namedview3643"
     showgrid="false"
     inkscape:zoom="0.35355339"
     inkscape:cx="631.06302"
     inkscape:cy="335.25305"
     inkscape:window-x="-8"
     inkscape:window-y="-8"
     inkscape:window-maximized="1"
     inkscape:current-layer="svg3633"
     fit-margin-top="0"
     fit-margin-left="0"
     fit-margin-right="0"
     fit-margin-bottom="0" />
  <path
     style="fill:#cf142b;fill-opacity:1;stroke:none"
     d="m 0,0 1200,0 0,600 -1200,0 z"
     id="rect3635"
     inkscape:connector-curvature="0" />
  <g
     transform="matrix(1.1266249,0,0,1.1266249,1962.7736,781.91993)"
     id="g11618-9-0-2"
     style="stroke-width:0.88760686;stroke-miterlimit:4;stroke-dasharray:none" />
  <g
     id="g13998"
     transform="translate(1775.9798,548.49637)" />
  <g
     transform="matrix(1.1266249,0,0,1.1266249,3736.3692,845.22791)"
     id="g11618-9-0-2-5"
     style="stroke-width:0.88760686;stroke-miterlimit:4;stroke-dasharray:none" />
  <g
     style="stroke-width:0.88760686;stroke-miterlimit:4;stroke-dasharray:none"
     id="g11618-9-0-2-7"
     transform="matrix(1.1266249,0,0,1.1266249,3288.1359,907.25048)" />
  <path
     inkscape:connector-curvature="0"
     id="path3124"
     d="M 599.99997,525 C 724.26406,525 825,424.26407 825,300 825,175.73593 724.26406,75 599.99997,75 475.73593,75 375,175.73593 375,300 c 0,124.26407 100.73593,225 224.99997,225 z"
     style="fill:#ffffff;fill-opacity:1;stroke:none"
     sodipodi:nodetypes="sssss" />
  <path
     inkscape:connector-curvature="0"
     id="path3124-1"
     d="m 600.00022,467.017 c 92.24109,0 167.01727,-74.77617 167.01727,-167.01724 0,-92.24108 -74.77618,-167.01724 -167.01727,-167.01724 -92.24105,0 -167.01722,74.77616 -167.01722,167.01724 0,92.24107 74.77617,167.01724 167.01722,167.01724 z"
     style="fill:#00247d;fill-opacity:1;stroke:none"
     sodipodi:nodetypes="sssss" />
  <path
     style="fill:#ffffff;stroke:none"
     inkscape:connector-curvature="0"
     d="m 674.27835,140.38118 -191.46373,190.475 114.29805,0 -123.18782,126.72792 10.55603,4.12918 231.57136,-166.4821 -110.81687,0 144.46807,-123.5 z"
     id="path3641"
     sodipodi:nodetypes="ccccccccc" />
</svg>
