<?xml version="1.0" encoding="utf-8"?>
<!-- Generator: Adobe Illustrator 16.0.0, SVG Export Plug-In . SVG Version: 6.00 Build 0)  -->
<!DOCTYPE svg PUBLIC "-//W3C//DTD SVG 1.1//EN" "http://www.w3.org/Graphics/SVG/1.1/DTD/svg11.dtd">
<svg version="1.1"
	 id="svg2" inkscape:export-ydpi="239.93182" inkscape:export-xdpi="239.93182" inkscape:export-filename="C:\Documents and Settings\Plug\Meus documentos\Minhas imagens\SVGs\Flag of Montreal.png" sodipodi:docname="Flag of Montreal.svg" sodipodi:version="0.32" sodipodi:docbase="C:\Documents and Settings\Plug\Meus documentos\Minhas imagens\SVGs" inkscape:version="0.43" xmlns:dc="http://purl.org/dc/elements/1.1/" xmlns:cc="http://web.resource.org/cc/" xmlns:rdf="http://www.w3.org/1999/02/22-rdf-syntax-ns#" xmlns:svg="http://www.w3.org/2000/svg" xmlns:sodipodi="http://inkscape.sourceforge.net/DTD/sodipodi-0.dtd" xmlns:inkscape="http://www.inkscape.org/namespaces/inkscape"
	 xmlns="http://www.w3.org/2000/svg" xmlns:xlink="http://www.w3.org/1999/xlink" x="0px" y="0px" width="440px" height="220.01px"
	 viewBox="0 0 440 220.01" enable-background="new 0 0 440 220.01" xml:space="preserve">
<sodipodi:namedview  inkscape:window-y="-4" inkscape:window-x="-4" inkscape:window-height="708" inkscape:window-width="1024" inkscape:guide-bbox="true" inkscape:current-layer="layer1" inkscape:document-units="px" inkscape:pageopacity="0.0" inkscape:pageshadow="2" showguides="false" inkscape:cy="78.268116" inkscape:cx="248.81251" inkscape:zoom="1" borderopacity="1.0" bordercolor="#666666" pagecolor="#ffffff" id="base">
	<sodipodi:guide  position="220" orientation="vertical" id="guide4124"></sodipodi:guide>
	<sodipodi:guide  position="111.5" orientation="horizontal" id="guide4126"></sodipodi:guide>
	<sodipodi:guide  position="190.5" orientation="vertical" id="guide4128"></sodipodi:guide>
	<sodipodi:guide  position="248.5" orientation="vertical" id="guide4130"></sodipodi:guide>
	<sodipodi:guide  position="140.5" orientation="horizontal" id="guide4132"></sodipodi:guide>
	<sodipodi:guide  position="82" orientation="horizontal" id="guide4134"></sodipodi:guide>
	<sodipodi:guide  position="0" orientation="vertical" id="guide4136"></sodipodi:guide>
	<sodipodi:guide  position="440" orientation="vertical" id="guide4138"></sodipodi:guide>
	<sodipodi:guide  position="222" orientation="horizontal" id="guide4142"></sodipodi:guide>
	<sodipodi:guide  position="0" orientation="horizontal" id="guide4144"></sodipodi:guide>
</sodipodi:namedview>
<g id="layer1" inkscape:groupmode="layer" inkscape:label="Layer 1">
	<rect id="rect1547" y="0.005" fill="#FFFFFF" width="440" height="220"/>
	<g id="g1551" transform="matrix(1,0,0,0.999956,-2.939487e-7,4.842991e-3)">
		<rect id="rect4140" y="81.07" fill="#CA2E32" width="440" height="58.363"/>
		<rect id="rect4150" x="190.717" y="0.45" fill="#CA2E32" stroke="#CA2E32" stroke-width="0.9" width="57.064" height="219.11"/>
	</g>
	<g id="g9384" transform="translate(-7.55e-5,-1.690105)" inkscape:label="Lancaster_rose">
		
			<path id="path4152" sodipodi:nodetypes="ccscccscscsccscccscccscsccsccscsscscsccscsccscscsscsccccccscscsssscsscsscsccscsccsscssscscscsssscccccscscssssssscsccsscccscssc" fill="#225449" stroke="#000000" stroke-width="0.9" d="
			M349.75,45.25l1.125-0.875c0,0-0.5,1-0.25,1.375s0.375-1.75,1-2.375c0,0,0.125,0.375,0.875,0.375c0.5-0.25,0.25-1.375,1-1.875
			c0.25,0.75-0.25,1.25,0.375,1.25s0.25-1.5,0.625-2.125c0,0,1,1.375,1.25,1.125s0-1.625,0.625-2.25c0,0-0.125,1,0.5,1.25
			s-0.125-1.25,0.75-1.875c0,0,0.375-0.625,1.125-0.625c0,0-0.875,1.25-0.125,1.375s2.25-0.125,2.25-1.125
			c0,0,0.375-1.125,1.125-1.125c0,0-0.75,1.625,0.063,1.495c0.417-0.977,2.361-2.303,2.008-1.684s0.089,0.795,0.089,0.795
			c2.298-0.177,2.943-1.798,2.943-1.798c0.5,2-0.729,4.567-0.604,4.567s2.125-0.375,1.25-0.125s-1.375,2.5-1.375,2.5
			c0.5-0.125,1-1.875,1-0.875s-1,2.375-1,2.375c0.875,0.25,1.375-0.375,1.375-0.375l-0.75,1.75c-0.75,1-2.75,1.25-1.875,1.25
			S366.25,46.75,366,48s-1.625,1.875-1.625,1.875c1.25,0,1.375-0.375,1.375-0.375c0.25,0.5-1.125,1.5-2.25,1.875s-1,1.75-1,1.75
			c1-0.25,1.125-0.75,1.125,0.125s-1.375,1.375-2,1.375s-1.75,1-1,1s1.875-0.875,1.625-0.375s-1.625,1-2.5,1.125s-1.5,1-0.625,0.875
			s2.25-1.25,0.75,0.125s-3.375,1.5-3.375,1.5c0.625,0.375,1.625,0,1.625,0.125s-1.25,0.75-1.25,0.75
			c-1.125,0.5-3.375,0.625-2.375,0.75s1.5,0,1.5,0l-1.125,0.625c-2.625,1.25-5.5-0.25-5.5-0.25c-3-1.875-4.625,0.625-4.625,0.625
			c-1.25,3.125-0.125,7.625-0.125,7.625s0.875,0.375,1,1.875s-0.625,2.875-2.75,3s-2.5-1.5-2.5-2.875s1.25-1.375,1.375-2.125
			s-0.5-5.125-0.5-5.125c0-3.75-7.75-3-8.75-2.625s-2.875-0.75-2.875-0.75s0.5-0.25,1.5-0.375s-1.5-0.875-1.5-0.875
			c-1.375,0.125-2.375-0.5-1.625-0.5s0.875-0.75-0.5-0.625s-2.5-0.75-1.375-0.75s-0.5-1.25-0.5-1.25
			c-1.625,0.125-2.875-1-2.375-0.75s1.625-0.875,1.125-0.875s-1-0.75-1-0.75c-1.5-0.125-2-1.875-2-1.875
			c0.875,0,1.25-0.625,0.125-0.875s-2.75-3.375-2.75-3.375c0.125,0.5,2.625,0.5,1.625,0.25s-1.375-3-1.375-3
			c-0.75-0.5-0.875-2.375-0.875-2.375s2.125,1.5,1.25,0.25s-1.25-5.625-1.25-5.625s3.375,0.75,4.25,1s2.375,1.625,2.125,1
			S324,38.25,324,38.25c1.375,0.5,2.75,2.625,2.5,1.5s-0.875-1.125,0-1s0.75,0.5,0.75,0.5c1.125,0.25,2.5,3,2.5,2.5
			s-0.375-1.125,0.75-0.375s1,1.125,1.875,1.75S332.75,42.5,332.5,42s1.5,0.875,1.5,0.875c1.75,1.875,3.25,5.625,3.25,4.625
			s-0.125-0.875-0.125-0.875c1.875,0.75,1.75,4.5,2,4s0.25-1.25,0.25-1.25c1,1.5,0.75,6.25,0.75,6.25c2.375,1.375,1.875-2,1.875-2
			c0.25-7-2.375-7.875-2.375-7.875c2.125,1.25,0.5-2.625,0.5-2.625l-11.674-7.685c-1.768,0.177-2.475-0.53-3.005-1.415
			c-0.531-0.884-3.359-0.354-3.359-0.354s1.944-1.061,2.475-2.651c0.53-1.591,1.238-0.884,1.945-1.945s3.535-14.496,3.535-14.496
			s-0.53-1.768,0-3.182c0.53-1.414,0.177-3.005,0.177-3.005s1.591,1.414,3.005,1.414c1.415,0,2.652,0.707,2.652,1.237
			c0,0,7.955,3.536,13.788,0.177c0,0,0.884-0.707,2.651-0.707c1.769,0,2.829-2.121,2.829-2.121s-0.53,2.121-0.354,3.005
			s1.061,1.945,0.354,3.182c0,0-1.237,11.314,4.772,15.203c0,0,1.061,0.53,0.884,1.945c-0.177,1.414,1.415,3.005,2.122,3.182
			c0,0-2.299-0.531-3.006,0.53c-0.707,1.061-2.121,0.884-2.828,0.354c0,0-10.964,6.707-11.964,7.832S344,45.5,344.25,45.75
			s0.875-0.375,0.875-0.375s-0.5,1.875-1,2.25S343.5,53.25,344,54.375l0,0c0,0,0.25,1.125,0.75,1.125s0.625-1,0.375-1.625
			c0,0-0.25-3.625,1.375-6.25c0,0-0.125,1,0.375,1.375s0.5-2,1.125-2.625c0,0-0.125,1,0.375,1.25s0.125-1.375,1.125-2.5l0.25,0.188"
			/>
		<path id="path1335" sodipodi:nodetypes="cccsccccccsccc" fill="none" stroke="#000000" stroke-width="0.7" d="M331,33.25
			c-1.625-1.5-4.5-1-4.5-1c2.375-2.25,2-4,2-4s3.125-12.625,3.5-13.5s0.625-2.25,0.25-3c0,0,3.125,1.125,5.875,1.375l11.893,0.041
			c0,0,2.121-0.177,2.829-0.53c0,0-0.708,2.651-0.531,4.773l0,0c0,0,5.185,13.091,5.435,13.091s0.625,2,1.625,3l0,0
			c0,0-2.5-0.25-5,1.375"/>
		<path id="path4113" fill="#C33B35" d="M338.437,8.792c-1.153,0.161-2.234,1.129-2.781,3.812c-0.028,0.271-0.406,4.676,4.75,7.844
			c0.6,0.368,1.101,1.425,0.906,2.062c-0.015,0.035-0.048,0.097-0.062,0.125c-0.043,0.079-0.114,0.162-0.188,0.219
			c-0.298,0.214-0.848,0.264-1.719-0.062c0,0-3.2-3.219-4.094-5.719c-0.893-2.5-4.647-4.281-6.969-0.531
			c0,0-0.731,2.121-0.375,3.906c0.132,0.659,0.139,1.171,0.062,1.531c-0.016,0.069-0.04,0.16-0.062,0.219
			c-0.045,0.115-0.121,0.235-0.188,0.312c-0.005,0.005-0.026,0.026-0.031,0.031c-0.005,0.005-0.025,0.026-0.031,0.031
			c-0.17,0.141-0.391,0.219-0.625,0.219c0,0-3.754,7.835,3.031,7.656c0,0,1.781,0,3.031-1.25s2.187-2.907,5-1.406
			c0.003,0,0.028,0,0.031,0c0.009,0.009,0.029,0.029,0.031,0.031c0.005,0.005,0.023,0.023,0.031,0.031
			c0.006,0.011,0.026,0.051,0.031,0.062c0.006,0.006,0.025,0.026,0.031,0.031c0,0.003,0,0.029,0,0.031c0,0.003,0,0.029,0,0.031
			c0.007,0.021,0.026,0.072,0.031,0.094c0,0.006,0,0.028,0,0.031c0.001,0.013,0.001,0.049,0,0.062
			c-0.034,0.668-0.895,1.891-3.219,2.438c0,0-7.005,1.047-6.5,5.719c0,0,0.157,2.91,3.188,2.531
			c0.225,0.028,1.808,0.259,2.344,1.125c0.03,0.052,0.071,0.131,0.094,0.188c0.036,0.095,0.053,0.204,0.062,0.312
			c0,0,3.937,6.686,7.219,0.625c0,0,0.479-4.29-0.531-6.562c0,0-0.865-4.159,1.281-3.906c0.004,0,0.028,0,0.031,0
			c0.042-0.011,0.136-0.031,0.219-0.031c0.011,0,0.047,0,0.062,0c0.062,0.007,0.152,0.035,0.219,0.062
			c0.021,0.01,0.066,0.017,0.094,0.031c0.006,0.003,0.026,0.028,0.031,0.031c0.217,0.161,0.418,0.49,0.469,1.156
			c0,0,0.506,2.55,0,3.812c-0.505,1.263-1.37,9.958,4.438,7.938c0.182-0.087,1.646-0.81,2-1.875
			c0.379-1.136,2.021-2.282,3.156-2.156c0,0,6.784-2.182,2.281-7.594c0,0-2.018-2.38-6.438-1.875c0,0-4.045-1.136-2.656-3.156
			c0.004-0.003,0.028-0.028,0.031-0.031c0.021-0.023,0.079-0.081,0.125-0.125c0.008-0.007,0.024-0.024,0.031-0.031
			c0.461-0.396,1.72-1.141,3.594,0.438c0,0,4.31,4.162,7.719,3.656c0.294,0.002,4.931-0.061,1.75-5.688
			c-0.178-0.144-1.599-1.361-1.125-2.781c0.098-0.553,1.541-9.395-5.188-7.438c0,0-3.391,1.393-4.906,5.812c0,0-1.06,1.65-2.062,2
			c-0.085,0.028-0.197,0.056-0.281,0.062c-0.063,0-0.159-0.021-0.219-0.031c-0.003,0-0.027,0-0.031,0c-0.004,0-0.026,0-0.031,0
			c-0.004,0-0.027,0-0.031,0c-0.001-0.002-0.029-0.029-0.031-0.031c-0.051-0.012-0.168-0.041-0.281-0.094
			c-0.062-0.031-0.155-0.077-0.219-0.125c-0.126-0.102-0.275-0.273-0.344-0.469c-0.002-0.006,0.002-0.024,0-0.031
			c-0.001-0.006,0.002-0.024,0-0.031c-0.009-0.046-0.026-0.113-0.031-0.156c0-0.005,0.001-0.025,0-0.031c0-0.039,0-0.091,0-0.125
			c0.01-0.25,0.095-0.564,0.281-0.938c0,0,5.155-3.531,5.281-6.688c0,0,0.84-6.467-5.281-4.312c-1.374,0.484-0.717,0.47-2.406,0.375
			c-0.003,0-0.028,0-0.031,0c-0.416-0.128-2.197-1.566-3.875-1.406C338.524,8.796,338.474,8.787,338.437,8.792z M342.687,16.261
			c0.003,0,0.028-0.001,0.031,0c0.145,0.208,1.265,1.973-0.094,5.125l-0.125-0.094C341.188,19.196,342.517,16.578,342.687,16.261z
			 M350.03,23.105c0.071-0.004,0.124,0.002,0.188,0c0.349-0.011,0.602,0.023,0.656,0.031c0,0-1.058,1.956-4.719,2l0.031-0.125
			C347.18,23.537,348.974,23.171,350.03,23.105z M334.124,23.292c0.035-0.005,0.073,0.002,0.125,0
			c0.746-0.024,3.226,0.061,4.469,1.906l0.031,0.125c-3.66-0.044-4.719-2-4.719-2C334.045,23.319,334.09,23.298,334.124,23.292z
			 M341.874,24.073c0.005-0.001,0.026,0.002,0.031,0c0.006-0.001,0.026,0.001,0.031,0c0.005-0.001,0.026,0.001,0.031,0
			c0.005,0,0.027,0,0.031,0c0.005,0,0.027,0,0.031,0s0.028,0,0.031,0c0.004,0.001,0.028-0.001,0.031,0
			c0.006,0.003,0.026,0.027,0.031,0.031c0.005,0.005,0.026,0.026,0.031,0.031c0.005,0.006,0.027,0.025,0.031,0.031
			c0.043,0.062,0.097,0.164,0.156,0.219c0.007,0.005,0.024,0.027,0.031,0.031c0.004,0.002,0.027-0.002,0.031,0
			c0.013,0.005,0.049,0.028,0.062,0.031c0.005,0.001,0.026,0,0.031,0c0.006,0.001,0.026,0,0.031,0c0.006,0,0.026,0,0.031,0
			c0.006,0,0.026,0,0.031,0s0.026,0.001,0.031,0s0.027,0.001,0.031,0c0.005-0.001,0.027-0.029,0.031-0.031s0.028,0.002,0.031,0
			c0.007-0.004,0.025-0.026,0.031-0.031c0.007-0.005,0.026-0.025,0.031-0.031c0.038-0.041,0.092-0.115,0.125-0.156
			c0.005-0.005,0.026-0.026,0.031-0.031c0.006-0.005,0.026-0.027,0.031-0.031c0.003-0.001,0.028,0.001,0.031,0
			c0.007-0.003,0.024-0.029,0.031-0.031c0.004,0,0.028,0,0.031,0c0.004,0,0.027,0,0.031,0c0.005,0,0.027,0,0.031,0
			c0.005,0.001,0.026-0.001,0.031,0c0.01,0.003,0.021,0.027,0.031,0.031c0.005,0.002,0.027-0.002,0.031,0
			c0.005,0.002,0.027,0.029,0.031,0.031c0.007,0.005,0.025,0.026,0.031,0.031c0.003,0.003,0.029-0.002,0.031,0
			c0.003,0.003-0.002,0.028,0,0.031c0.004,0.006,0.029,0.025,0.031,0.031c0.004,0.013-0.001,0.048,0,0.062
			c0.003,0.05,0.002,0.132,0,0.188c0,0.024-0.003,0.07,0,0.094c0.003,0.012,0.027,0.051,0.031,0.062
			c0.002,0.004-0.002,0.027,0,0.031c0.003,0.004,0.029,0.028,0.031,0.031c0.013,0.015,0.046,0.048,0.062,0.062
			c0.009,0.007,0.022,0.025,0.031,0.031c0.009,0.005,0.022,0.027,0.031,0.031c0.005,0.002,0.027-0.001,0.031,0
			c0.005,0.001,0.027-0.001,0.031,0c0.005,0.001,0.027,0,0.031,0c0.005,0,0.027,0,0.031,0c0.028-0.001,0.099,0.007,0.125,0
			c0.046-0.013,0.113-0.021,0.156-0.031c0.015-0.002,0.049-0.031,0.062-0.031c0.004,0,0.028,0,0.031,0
			c0.004,0.001,0.028,0.03,0.031,0.031c0.004,0.001,0.028-0.001,0.031,0c0.004,0.002,0.028,0.029,0.031,0.031
			c0.004,0.003,0.028,0.028,0.031,0.031c0.004,0.004,0.028,0.027,0.031,0.031c0.004,0.005-0.003,0.027,0,0.031
			c0.005,0.009,0.027,0.023,0.031,0.031c0.002,0.004-0.001,0.027,0,0.031c0.002,0.008,0.031,0.024,0.031,0.031
			c0,0.004,0,0.028,0,0.031c0,0.007-0.029,0.024-0.031,0.031c-0.001,0.003,0.002,0.028,0,0.031c-0.006,0.013-0.023,0.05-0.031,0.062
			c-0.025,0.036-0.064,0.087-0.094,0.125c-0.005,0.006-0.026,0.025-0.031,0.031c-0.013,0.021-0.022,0.071-0.031,0.094
			c-0.002,0.008-0.029,0.023-0.031,0.031c0,0.004,0.001,0.027,0,0.031c0,0.005,0,0.027,0,0.031c0.001,0.005,0,0.026,0,0.031
			c0.001,0.005-0.001,0.026,0,0.031c0.002,0.005,0.03,0.026,0.031,0.031c0.002,0.005-0.002,0.026,0,0.031s-0.002,0.027,0,0.031
			c0.005,0.009,0.026,0.024,0.031,0.031c0.006,0.007,0.026,0.025,0.031,0.031c0.003,0.003,0.028,0.029,0.031,0.031
			c0.026,0.021,0.065,0.049,0.094,0.062c0.06,0.024,0.136,0.038,0.188,0.062c0.007,0.003,0.025,0.027,0.031,0.031
			c0.003,0.002,0.029-0.002,0.031,0c0.003,0.002-0.002,0.029,0,0.031c0.003,0.003,0.029-0.003,0.031,0s-0.001,0.028,0,0.031
			c0.005,0.011,0.028,0.05,0.031,0.062c0.001,0.005,0,0.026,0,0.031c0.001,0.005,0,0.026,0,0.031c0,0.006,0.001,0.026,0,0.031
			c0,0.005,0.001,0.026,0,0.031c-0.003,0.014-0.026,0.051-0.031,0.062c-0.001,0.003,0.002,0.028,0,0.031
			c-0.002,0.003-0.028-0.003-0.031,0c-0.002,0.003,0.003,0.029,0,0.031c-0.002,0.002-0.028-0.002-0.031,0
			c-0.006,0.004-0.024,0.028-0.031,0.031c-0.013,0.006-0.048,0.027-0.062,0.031c-0.043,0.013-0.11,0.017-0.156,0.031
			c-0.015,0.005-0.048,0.024-0.062,0.031c-0.007,0.004-0.024,0.027-0.031,0.031c-0.003,0.002-0.027-0.002-0.031,0
			c-0.006,0.006-0.024,0.025-0.031,0.031c-0.003,0.003,0.003,0.028,0,0.031c-0.005,0.008-0.026,0.023-0.031,0.031
			c-0.007,0.014-0.025,0.046-0.031,0.062c-0.001,0.005,0.002,0.026,0,0.031c-0.001,0.005,0.001,0.027,0,0.031
			c0,0.005,0.001,0.027,0,0.031c0,0.004,0,0.027,0,0.031c0.001,0.004,0,0.027,0,0.031c0.001,0.004-0.001,0.027,0,0.031
			c0.009,0.023,0.02,0.073,0.031,0.094c0.005,0.007,0.027,0.025,0.031,0.031c0.031,0.046,0.073,0.111,0.094,0.156
			c0.005,0.013,0.029,0.049,0.031,0.062c0.001,0.003,0,0.028,0,0.031c0,0.004,0.001,0.028,0,0.031
			c-0.002,0.008-0.028,0.023-0.031,0.031c-0.001,0.004,0.002,0.027,0,0.031c-0.002,0.004-0.028,0.027-0.031,0.031
			s0.004,0.027,0,0.031c-0.003,0.004-0.027-0.004-0.031,0c-0.007,0.008-0.024,0.025-0.031,0.031
			c-0.007,0.006-0.024,0.027-0.031,0.031c-0.003,0.002-0.027-0.001-0.031,0c-0.007,0.002-0.024,0.03-0.031,0.031
			c-0.003,0-0.027,0-0.031,0c-0.082-0.003-0.188-0.067-0.281-0.094c-0.023-0.005-0.068,0.001-0.094,0c-0.004,0-0.026,0-0.031,0
			c-0.004,0-0.026,0-0.031,0c-0.004,0.001-0.026-0.001-0.031,0c-0.013,0.005-0.048,0.024-0.062,0.031
			c-0.004,0.003-0.026-0.003-0.031,0c-0.005,0.003,0.005,0.028,0,0.031c-0.008,0.007-0.023,0.024-0.031,0.031
			c-0.007,0.007-0.025,0.024-0.031,0.031c-0.005,0.007-0.026,0.024-0.031,0.031c-0.002,0.004,0.002,0.027,0,0.031
			c-0.006,0.016-0.027,0.047-0.031,0.062c-0.014,0.087-0.016,0.205-0.031,0.281c-0.002,0.007,0.003,0.025,0,0.031
			s-0.027,0.025-0.031,0.031c-0.002,0.003,0.003,0.029,0,0.031c-0.005,0.005-0.024,0.026-0.031,0.031
			c-0.003,0.002-0.027-0.002-0.031,0s-0.026,0.029-0.031,0.031s-0.025-0.001-0.031,0c-0.005,0.001-0.025-0.001-0.031,0
			c-0.005,0.001-0.026,0-0.031,0c-0.004,0-0.026,0.031-0.031,0.031c-0.008,0-0.023-0.03-0.031-0.031c-0.004,0-0.027,0.001-0.031,0
			c-0.003-0.001-0.027,0.001-0.031,0c-0.006-0.003-0.025-0.027-0.031-0.031c-0.011-0.008-0.021-0.021-0.031-0.031
			c-0.004-0.005-0.026-0.025-0.031-0.031c-0.048-0.071-0.109-0.163-0.188-0.219c-0.007-0.004-0.023-0.027-0.031-0.031
			c-0.012-0.005-0.048-0.027-0.062-0.031c-0.005-0.001-0.026,0.001-0.031,0c-0.005,0-0.025,0-0.031,0c-0.005,0-0.025,0-0.031,0
			c-0.005,0-0.025,0-0.031,0c-0.005,0-0.026,0-0.031,0c-0.004,0.001-0.026-0.001-0.031,0c-0.008,0.003-0.023,0.028-0.031,0.031
			c-0.004,0.002-0.027-0.002-0.031,0c-0.011,0.006-0.021,0.024-0.031,0.031c-0.012,0.011-0.052,0.051-0.062,0.062
			c-0.005,0.006-0.026,0.025-0.031,0.031c-0.019,0.025-0.043,0.071-0.062,0.094c-0.005,0.006-0.026,0.026-0.031,0.031
			s-0.025,0.027-0.031,0.031c-0.003,0.002-0.028-0.001-0.031,0s0.004,0.03,0,0.031c-0.003,0.001-0.027-0.001-0.031,0
			c-0.003,0.001-0.027,0-0.031,0c-0.004,0-0.026,0-0.031,0c-0.004,0-0.026,0-0.031,0c-0.004-0.001-0.026,0.001-0.031,0
			c-0.01-0.003-0.021-0.027-0.031-0.031c-0.005-0.002-0.026,0.002-0.031,0c-0.013-0.007-0.052-0.023-0.062-0.031
			c-0.006-0.005-0.026-0.025-0.031-0.031c-0.002-0.003,0.002-0.028,0-0.031c-0.003-0.006-0.028-0.025-0.031-0.031
			c-0.003-0.013,0.002-0.048,0-0.062c-0.002-0.043-0.002-0.109,0-0.156c0.001-0.024,0.002-0.07,0-0.094
			c-0.003-0.024-0.022-0.07-0.031-0.094c-0.001-0.004,0.002-0.027,0-0.031s-0.028-0.027-0.031-0.031
			c-0.003-0.003-0.027-0.027-0.031-0.031c-0.004-0.003-0.026-0.028-0.031-0.031c-0.004-0.003-0.026-0.028-0.031-0.031
			c-0.004-0.002-0.026,0.002-0.031,0c-0.004-0.002-0.026-0.029-0.031-0.031c-0.004-0.001-0.026,0.001-0.031,0
			c-0.004-0.001-0.026,0.001-0.031,0c-0.012-0.001-0.05,0-0.062,0c-0.023,0.002-0.07-0.005-0.094,0
			c-0.068,0.019-0.156,0.06-0.219,0.062c-0.003,0-0.027,0-0.031,0c-0.007-0.001-0.024-0.029-0.031-0.031
			c-0.003-0.001-0.027,0.001-0.031,0c-0.006-0.004-0.024-0.026-0.031-0.031c-0.006-0.006-0.024-0.024-0.031-0.031
			c-0.003-0.004-0.027-0.027-0.031-0.031c-0.003-0.004-0.028-0.027-0.031-0.031c-0.002-0.004,0.002-0.027,0-0.031
			c-0.001-0.004,0.001-0.027,0-0.031s-0.03-0.027-0.031-0.031c0-0.003,0-0.028,0-0.031c0.001-0.003,0.031-0.028,0.031-0.031
			c0.001-0.003-0.001-0.028,0-0.031c0.033-0.069,0.107-0.146,0.156-0.219c0.009-0.014,0.024-0.047,0.031-0.062
			c0.002-0.004-0.001-0.027,0-0.031s0.03-0.027,0.031-0.031s0-0.027,0-0.031c0.001-0.004,0-0.026,0-0.031s0.001-0.026,0-0.031
			c0-0.005,0.001-0.026,0-0.031s-0.029-0.026-0.031-0.031c-0.001-0.005,0.002-0.026,0-0.031c-0.004-0.009-0.026-0.022-0.031-0.031
			c-0.002-0.004,0.003-0.027,0-0.031c-0.005-0.007-0.025-0.025-0.031-0.031c-0.003-0.003-0.027-0.028-0.031-0.031
			c-0.083-0.067-0.196-0.084-0.281-0.125c-0.012-0.007-0.052-0.022-0.062-0.031c-0.002-0.002,0.003-0.029,0-0.031
			c-0.002-0.002-0.029,0.003-0.031,0s0.002-0.028,0-0.031c-0.003-0.007-0.028-0.023-0.031-0.031c-0.001-0.004,0.001-0.027,0-0.031
			c0-0.004,0.001-0.026,0-0.031c0-0.005,0-0.026,0-0.031c0.001-0.005,0-0.026,0-0.031c0.001-0.005-0.001-0.026,0-0.031
			c0.002-0.009,0.029-0.023,0.031-0.031c0.002-0.004-0.001-0.027,0-0.031c0.004-0.006,0.027-0.025,0.031-0.031
			c0.003-0.002-0.002-0.029,0-0.031c0.003-0.002,0.028,0.002,0.031,0c0.006-0.003,0.025-0.028,0.031-0.031
			c0.007-0.003,0.024,0.002,0.031,0c0.042-0.014,0.11-0.049,0.156-0.062c0.023-0.007,0.072-0.021,0.094-0.031
			c0.015-0.008,0.05-0.021,0.062-0.031c0.003-0.003,0.028-0.028,0.031-0.031c0.009-0.011,0.024-0.049,0.031-0.062
			c0.003-0.005,0.029-0.026,0.031-0.031s-0.001-0.026,0-0.031c0.002-0.005-0.001-0.026,0-0.031s0-0.026,0-0.031
			c0.001-0.004,0-0.026,0-0.031c0-0.004,0.001-0.027,0-0.031c0-0.004,0.001-0.027,0-0.031c-0.001-0.004,0.001-0.027,0-0.031
			c-0.005-0.015-0.023-0.048-0.031-0.062c-0.008-0.014-0.022-0.049-0.031-0.062c-0.018-0.026-0.046-0.068-0.062-0.094
			c-0.007-0.013-0.025-0.049-0.031-0.062c-0.002-0.006-0.029-0.024-0.031-0.031c0-0.003,0.001-0.028,0-0.031
			c0-0.003,0-0.028,0-0.031c0.001-0.003,0-0.027,0-0.031c0.002-0.007,0.028-0.023,0.031-0.031c0.002-0.004-0.002-0.027,0-0.031
			c0.003-0.004,0.028-0.027,0.031-0.031c0.004-0.004,0.028-0.027,0.031-0.031c0.007-0.007,0.024-0.025,0.031-0.031
			c0.004-0.002,0.028-0.029,0.031-0.031c0.004-0.001,0.028,0.001,0.031,0c0.004-0.001,0.028-0.03,0.031-0.031
			c0.004,0,0.028,0,0.031,0c0.014,0,0.049,0.028,0.062,0.031c0.062,0.017,0.15,0.042,0.219,0.062c0.023,0.006,0.069,0,0.094,0
			c0.005,0,0.027,0,0.031,0c0.005,0,0.027,0.001,0.031,0c0.005-0.001,0.027,0.001,0.031,0c0.014-0.005,0.049-0.023,0.062-0.031
			c0.005-0.003,0.027-0.028,0.031-0.031c0.009-0.006,0.024-0.024,0.031-0.031s0.025-0.024,0.031-0.031s0.027-0.024,0.031-0.031
			c0.002-0.003-0.001-0.027,0-0.031c0.006-0.015,0.028-0.047,0.031-0.062c0.004-0.023-0.001-0.07,0-0.094
			c0.002-0.071,0.01-0.161,0.031-0.219c0.003-0.006,0.027-0.025,0.031-0.031c0.003-0.002-0.002-0.028,0-0.031
			c0.003-0.002,0.028,0.002,0.031,0c0.007-0.005,0.024-0.027,0.031-0.031C341.852,24.101,341.864,24.077,341.874,24.073z
			 M344.187,30.042h0.125c2.598,0.456,3.625,3.531,3.625,3.531S345.717,33.368,344.187,30.042z M339.593,30.261
			c0.003,0,0.028,0,0.031,0c0.007,0,0.026,0,0.031,0c-0.042,0.305-0.402,2.34-3.469,3.75l-0.031-0.156
			C336.569,31.501,339.118,30.439,339.593,30.261z"/>
		
			<path id="path1435" sodipodi:nodetypes="ccscsccssccccccccscscccccccccccccccsscs" fill="none" stroke="#000000" stroke-width="0.9" d="
			M340.414,20.463c1.066,0.654,1.786,3.393-1.071,2.321c0,0-3.214-3.214-4.106-5.714c-0.894-2.5-4.644-4.286-6.965-0.536
			c0,0-0.714,2.143-0.357,3.929c0.357,1.786-0.178,2.321-0.893,2.321c0,0-3.75,7.857,3.036,7.679c0,0,1.785,0,3.035-1.25
			s2.187-2.929,5-1.429c0.535,0.285,0,2.143-3.035,2.857c0,0-6.985,1.038-6.48,5.709c0,0,0.126,2.904,3.157,2.525
			c0,0,2.398,0.252,2.525,1.642c0,0,3.914,6.692,7.197,0.631c0,0,0.505-4.293-0.505-6.566c0,0-0.885-4.167,1.263-3.915
			c0,0,1.01-0.379,1.136,1.263c0,0,0.505,2.525,0,3.788s-1.389,9.975,4.42,7.955c0,0,1.642-0.758,2.021-1.894
			c0.378-1.137,2.02-2.273,3.156-2.147c0,0,6.775-2.164,2.272-7.576c0,0-2.02-2.399-6.439-1.894c0,0-4.04-1.137-2.651-3.157
			c0,0,1.389-1.768,3.788,0.252c0,0,4.293,4.167,7.702,3.662c0,0,5.051,0.126,1.768-5.682c0,0-1.642-1.263-1.136-2.778
			c0,0,1.768-9.47-5.178-7.45c0,0-3.409,1.389-4.924,5.808l0,0c0,0-1.516,2.399-2.652,2.021c0,0-1.515-0.252-0.631-2.021
			c0,0,5.177-3.536,5.303-6.692l0,0c0,0,0.818-6.448-5.303-4.293c-1.374,0.484-0.71,0.474-2.399,0.379
			c-0.529-0.03-5.43-4.419-6.818,2.399C335.648,12.612,335.092,17.193,340.414,20.463z"/>
		<path id="path1437" fill="none" stroke="#000000" stroke-width="0.6" d="M337.542,13.117c0,0,0.253-1.326,1.579-1.515
			c1.325-0.189,2.398,0.378,2.715,1.073c0.315,0.694,2.398,0.694,2.398-0.316c0,0,0.442-0.947,1.516-0.821
			c0,0,2.589-0.631,2.589,2.083"/>
		<path id="path2312" fill="none" stroke="#000000" stroke-width="0.6" d="M352.759,17.819c0,0,1.339-0.169,1.929,1.033
			c0.59,1.202,0.381,2.398-0.182,2.914c-0.562,0.515,0.081,2.496,1.042,2.184c0,0,1.037,0.127,1.248,1.188
			c0,0,1.4,2.267-1.182,3.105"/>
		<path id="path2314" fill="none" stroke="#000000" stroke-width="0.6" d="M329.78,27.886c0,0-1.245-0.523-1.154-1.859
			c0.091-1.336,0.869-2.268,1.614-2.433c0.745-0.164,1.178-2.202,0.19-2.412c0,0-0.835-0.629-0.488-1.653
			c0,0-0.079-2.663,2.576-2.099"/>
		<path id="path2316" fill="none" stroke="#000000" stroke-width="0.6" d="M339.612,40.718c0,0-0.984,0.924-2.168,0.298
			c-1.184-0.626-1.718-1.717-1.565-2.464c0.153-0.748-1.532-1.972-2.126-1.155c0,0-0.915,0.506-1.709-0.227
			c0,0-2.465-1.011-0.869-3.207"/>
		<path id="path2318" fill="none" stroke="#000000" stroke-width="0.6" d="M354.061,34.093c0,0,0.575,1.221-0.386,2.153
			s-2.164,1.104-2.827,0.728c-0.664-0.376-2.35,0.848-1.756,1.666c0,0,0.199,1.026-0.743,1.555c0,0-1.723,2.032-3.318-0.164"/>
		<path id="path2321" fill="none" stroke="#000000" stroke-width="0.4" d="M334.03,23.319c0,0,3.215-0.312,4.688,1.875l0.045,0.134
			C335.102,25.284,334.03,23.319,334.03,23.319z M350.885,23.13c0,0-3.215-0.312-4.688,1.875l-0.045,0.134
			C349.814,25.094,350.885,23.13,350.885,23.13z M342.708,16.233c0,0-1.593,2.809-0.193,5.044l0.104,0.096
			C344.066,18.01,342.708,16.233,342.708,16.233z M339.678,30.248c0,0-3.063,1.022-3.52,3.62l0.014,0.14
			C339.497,32.478,339.678,30.248,339.678,30.248z M347.939,33.561c0,0-1.021-3.063-3.619-3.52l-0.141,0.014
			C345.708,33.381,347.939,33.561,347.939,33.561z"/>
		
			<path id="path3210" inkscape:flatsided="false" inkscape:rounded="0.5" inkscape:randomized="0" sodipodi:type="star" sodipodi:sides="10" sodipodi:cx="347.99756" sodipodi:cy="32.044975" sodipodi:r1="5.2310305" sodipodi:r2="4.0844555" sodipodi:arg1="0.52359878" sodipodi:arg2="0.83775805" fill="none" stroke="#000000" stroke-width="1.0153" d="
			M344.082,27.34c-0.226,0.285-0.422-0.141-0.725,0.06c-0.303,0.201,0.014,0.547-0.337,0.645c-0.35,0.098-0.258-0.362-0.621-0.377
			s-0.311,0.451-0.651,0.324s0.004-0.445-0.281-0.67c-0.284-0.226-0.516,0.182-0.717-0.121s0.265-0.357,0.167-0.708
			s-0.524-0.156-0.509-0.519c0.015-0.363,0.424-0.134,0.551-0.475s-0.333-0.435-0.106-0.719c0.226-0.285,0.421,0.141,0.725-0.06
			c0.303-0.201-0.015-0.547,0.336-0.645s0.259,0.362,0.622,0.377c0.363,0.016,0.31-0.45,0.65-0.324
			c0.341,0.127-0.004,0.445,0.281,0.671c0.285,0.226,0.516-0.182,0.717,0.121s-0.265,0.357-0.167,0.708
			c0.098,0.35,0.524,0.156,0.51,0.519c-0.016,0.363-0.425,0.134-0.551,0.474C343.849,26.962,344.308,27.055,344.082,27.34z"/>
		<path id="path2216" fill="none" stroke="#000000" stroke-width="0.75" stroke-linecap="round" d="M320.673,41.274
			c0,0,5.304,6.364,7.778,7.071c2.475,0.708,7.071,3.889,7.778,5.657c0.707,1.768,4.242,5.303,4.242,5.303"/>
		<path id="path5743" fill="none" stroke="#000000" stroke-width="0.45" d="M323.501,47.637c0,0,2.122-0.354,3.536,0
			c0,0,1.061-3.182-0.354-3.889"/>
		<path id="path5741" fill="none" stroke="#000000" stroke-width="0.45" d="M331.633,46.577c0,0,1.768,2.475,1.414,4.596"/>
		<path id="path5739" fill="none" stroke="#000000" stroke-width="0.45" d="M330.572,53.648c0,0,3.182,0.707,5.304,0"/>
		<path id="path5737" fill="none" stroke="#000000" stroke-width="0.45" d="M336.23,50.112c0,0,1.414,2.121,1.061,4.95"/>
		<path id="path5735" fill="none" stroke="#000000" stroke-width="0.45" d="M336.583,57.537c0,0,1.061,0.708,2.475,0.708"/>
		<path id="path5733" fill="none" stroke="#000000" stroke-width="0.45" d="M340.472,56.476c0,0-0.354,1.061-0.707,1.768"/>
		<path id="path6620" fill="none" stroke="#000000" stroke-width="0.75" stroke-linecap="round" d="M345.5,58.5c0,0,5.5-7,9-9
			s9-5.5,10-8"/>
		<path id="path6622" sodipodi:nodetypes="cs" fill="none" stroke="#000000" stroke-width="0.45" d="M353.5,56c0,0-4,1-6.5,1
			c0,0-0.625-0.25-0.562-1.625"/>
		<path id="path6624" sodipodi:nodetypes="ccc" fill="none" stroke="#000000" stroke-width="0.45" d="M351,50l-0.562,2.812
			c0,0,3.062,0.688,4.562-0.312"/>
		<path id="path6626" fill="none" stroke="#000000" d="M356,47L356,47z"/>
		<path id="path6628" sodipodi:nodetypes="csc" fill="none" stroke="#000000" stroke-width="0.45" d="M358.857,48.698
			c0,0-2.853,0.828-4.617,0.936c-1.018,0.062,1.436-1.997,1.436-1.997"/>
		<path id="path6630" fill="none" stroke="#000000" stroke-width="0.45" d="M360.624,43.395v1.768c0,0,0,0.354,2.829-0.354"/>
		<path id="path7505" fill="none" stroke="#000000" stroke-width="0.8" d="M340.625,72.75c0,0,0.625-2,3-2.125s2.25,1.25,2,1.75"/>
	</g>
	<g id="g9372" transform="translate(-7.55e-5,-1.690105)" inkscape:label="Fleur_de_lis">
		<path id="path8386" sodipodi:nodetypes="ccsscccscssscscc" fill="#035798" stroke="#000000" stroke-width="0.7" d="M97.75,55.25
			c-0.25,0.125-0.875,6.25,3.375,11.75c0,0-5.625,5.25-5.875,7s-0.625,1.75-0.875,0S88.5,67,88.5,67
			c4.25-5.5,3.625-11.625,3.688-11.562l-1.514-4.265c-0.177,0.177,2.122,2.475,1.415-3.359c-0.707-5.833-6.895-14.142-6.895-14.142
			c-3.536-4.066-3.712-15.026,1.415-18.562c5.126-3.536,7.403-8.641,8.403-8.641s3.276,5.105,8.403,8.641
			c5.127,3.536,4.95,14.496,1.415,18.562c0,0-6.188,8.309-6.895,14.142c-0.707,5.834,1.591,3.536,1.415,3.359L97.75,55.25z"/>
		<path id="path8404" sodipodi:nodetypes="cscsssscsscc" fill="#035798" stroke="#000000" stroke-width="0.7" d="M104,55
			c-0.25,1.5-3.125-6.875,4.25-8.125s6.625,7.75,6.625,7.75s6.875-1.25,7.125-8.125S118.5,34,113.875,34s-7.625,2.5-10,6
			s-3.625,8.75-4,10.5s-1.125,1.125-1.125,1.125s0.75,2.625,0.75,3.75s0.37,7.016,4.5,8.25c2.738,0.818,4.5-1.375,4.625-5.875
			C108.625,57.75,104.375,60.375,104,55z"/>
		<path id="path8406" sodipodi:nodetypes="cscsssscsscc" fill="#035798" stroke="#000000" stroke-width="0.7" d="M85.887,55
			c0.25,1.5,3.125-6.875-4.25-8.125s-6.625,7.75-6.625,7.75s-6.875-1.25-7.125-8.125s3.5-12.5,8.125-12.5s7.625,2.5,10,6
			s3.625,8.75,4,10.5s1.125,1.125,1.125,1.125s-0.75,2.625-0.75,3.75s-0.37,7.016-4.5,8.25c-2.738,0.818-4.5-1.375-4.625-5.875
			C81.262,57.75,85.512,60.375,85.887,55z"/>
		<path id="path11074" sodipodi:nodetypes="cssc" d="M73.716,49.14c0,0-1.944-2.475,0.354-5.48c2.298-3.005,5.392-2.563,6.452-2.386
			c1.061,0.177,8.22,3.624,8.22,10.783l0.177,0.088c-0.088-1.149-3.535-10.253-10.253-9.811
			C71.948,42.776,73.716,49.14,73.716,49.14z"/>
		<path id="path10190" sodipodi:nodetypes="cccc" d="M95.053,72.11c-0.669-25.25-0.045-16.375-0.045-16.375s0,0,0.006,0
			S95.579,46.86,95.053,72.11z"/>
		<path id="path11949" sodipodi:nodetypes="cssc" d="M116.17,49.14c0,0,1.944-2.475-0.354-5.48
			c-2.298-3.005-5.392-2.563-6.453-2.386c-1.061,0.177-8.22,3.624-8.22,10.783l-0.177,0.088c0.088-1.149,3.535-10.253,10.253-9.811
			C117.937,42.776,116.17,49.14,116.17,49.14z"/>
		
			<path id="path8417" sodipodi:nodetypes="ccscccscc" fill="#035798" stroke="#000000" stroke-width="0.45" stroke-linecap="round" d="
			M94.357,55.75h-7.938c-1.863,0-3.375-1.064-3.375-2.375S84.555,51,86.418,51h8.136h8.137c1.863,0,3.375,1.064,3.375,2.375
			s-1.512,2.375-3.375,2.375H94.357z"/>
		<path id="path10182" sodipodi:nodetypes="cccc" d="M95.093,51.25C93.797,26,95.005,9,95.005,9s0,0,0.012,0S96.11,26,95.093,51.25z
			"/>
		<path id="path11960" fill="none" stroke="#000000" stroke-width="0.3" d="M85.313,59.25c0,0,2.188,0.438,3.438-3.562"/>
		<path id="path11962" fill="none" stroke="#000000" stroke-width="0.3" d="M104.25,59.25c0,0-2.188,0.438-3.438-3.562"/>
	</g>
	<g id="g9411" transform="translate(-7.55e-5,-1.690105)" inkscape:label="Shamrock">
		<path id="path11964" sodipodi:nodetypes="cssssssssssssssssscsssssss" fill="#1D5143" stroke="#000000" d="M346.25,190
			c2-1.125,3,1.375,5.5,5.125s6.875,2.5,6.875,2.5c7.875-2.375,7.375-9,7.375-9c0.277-0.836,0.125-6.125,1-6.875
			s0.875-4.125,0.875-5s-0.625-7.25-6.25-7.25s-10.75,5.75-11.125,6.125s-2.625,1-2.875-1.375s4.75-5.75,5.75-6.375
			s4.875-3.5,5.125-8.625s-3.125-7.5-5.875-8.75s-5.375,0.25-6,0.75s-3,1.25-5.25-0.25s-4.5-1-5.25-0.875s-4.5,1.5-7.125,6.75
			s3.375,11.625,4.625,12.125s4.75,3.25,5.625,5.125S338,176,338,176s-0.5,0.875-1.5-0.375s-6-7.875-10.875-6.875
			s-5.375,5.5-5.375,6.75s0.125,4.75,1.25,6.5s1.375,3.125,1.125,4.5s-0.875,4.125-0.25,6.25s3.74,5.911,10.125,4
			c0,0,1-0.125,2-1.125s2.625-5.875,5.75-5.875s2.125,4.5,2.125,4.5s-0.754,13.812-2.168,16.199s-0.442,3.801,0.618,3.801
			s4.508-0.441,4.95-3.359c0.441-2.916,0-6.098,0.707-7.159c0.707-1.061,0.884-1.591,0.884-1.591s-0.442,0.619-1.061,0.619
			C345.687,202.759,345.599,191.18,346.25,190z"/>
		<path id="path4417" fill="none" stroke="#000000" stroke-linejoin="bevel" d="M342.875,156.875c0,0,1,23.625,0.875,30.5"/>
		<path id="path4419" fill="none" stroke="#000000" stroke-linejoin="bevel" d="M325.125,179.75c0,0,1.625,1.75,4.375,1.25
			s10.125-1.25,14.125,5.5"/>
		<path id="path4421" fill="none" stroke="#000000" stroke-linejoin="bevel" d="M361.25,182.25c0,0-1.375-2.125-4.875-2.5
			s-8.875-0.25-12.625,5.875"/>
		<path id="path4423" fill="none" stroke="#000000" stroke-width="0.7" d="M339.5,160.625c0,0,2.875,0.25,3.75,4.375
			c0,0,0.5-3.375,2.625-4.5"/>
		<path id="path4425" fill="none" stroke="#000000" stroke-width="0.7" d="M339,165.25c0,0,3.875,1.25,4.5,5.375
			c0,0,0-3.5,3.125-5.25"/>
		<path id="path4427" fill="none" stroke="#000000" stroke-width="0.7" d="M338.375,170.75c0,0,5.25,3.625,5.25,6.875
			c0,0,0.5-4.375,4.625-8.25"/>
		<path id="path4429" fill="none" stroke="#000000" stroke-width="0.7" d="M326.875,177.375c0,0,1.875,2,4.75,3.625
			c0.125,0.375-0.5,1.5-2.5,2.375"/>
		<path id="path4431" fill="none" stroke="#000000" stroke-width="0.7" d="M331.5,177.125c0,0,2.125,2.875,4.875,4
			c0,0,2.375,1.5-2.625,4.875"/>
		<path id="path4433" fill="none" stroke="#000000" stroke-width="0.7" d="M337.375,178.75c0,0,1.125,2.875,3.375,4.5"/>
		<path id="path4435" fill="none" stroke="#000000" stroke-width="0.7" d="M350.5,178.875c-1,0.5-2.5,2.25-2.5,2.25
			s3.125,1,4.625,3.25"/>
		<path id="path4437" fill="none" stroke="#000000" stroke-width="0.7" d="M354.375,177.75c0,0-0.25,1.25-1.5,2.125
			C353,180,354.625,180,355.75,183"/>
		<path id="path4439" fill="none" stroke="#000000" stroke-width="0.7" d="M359.125,178.25c0,0,0.125,0.75-2.25,1.5"/>
		<path id="path5316" fill="none" stroke="#000000" d="M339.556,212.58c0,0,0.833-2.752,3.668-2.752
			c2.834,0,1.751,2.251,1.751,2.251"/>
	</g>
	<g id="g1605">
		<path id="path6203" sodipodi:nodetypes="cssssscssscc" fill="#4E1B66" d="M87.312,169.56c-0.688-1-0.312-3.125-0.312-3.125
			s0.375-1.25-2.75-4.125s-5.25-6.125-3.375-9.125s5.5-2.25,7-1.125c0,0,1.627,1.099,1.938-0.688
			c0.177-1.017,4.315-1.205,5.224-1.166c0.345,0.016,4.573,0.346,4.838,1.354c0,0,0.375,1.062,1.062,0.938s3.875-2.875,8.188-0.25
			s-0.312,7.688-1,8.75s-3.5,3.188-3.688,4.375c0,0-0.375,0.75-0.375,1.438c0,0,0.125,1.438-0.312,3.125"/>
		
			<linearGradient id="path6723_1_" gradientUnits="userSpaceOnUse" x1="96.3398" y1="50.3613" x2="95.9023" y2="65.1743" gradientTransform="matrix(1 0 0 -1 0 219.3203)">
			<stop  offset="0" style="stop-color:#7B4493"/>
			<stop  offset="1" style="stop-color:#563067;stop-opacity:0"/>
		</linearGradient>
		<path id="path6723" fill="url(#path6723_1_)" d="M87.438,172.872c-0.938-0.938-0.312-5.438-0.312-5.438c-0.75-3-1-2.75-1-2.75
			c-0.188-0.312-2-4.688,0-6.25s3.625,1.312,3.625,1.312s1.375,0.625,1.875-0.062s-0.125-3.125,3.875-3.312
			c0,0,3.688-0.125,3.375,3.812c0,0,0.062,1.812,1.688,1.375c0,0,1.125,0.062,1.438-0.812s0-2.875,1.75-2.875s5,1.75,2.062,4.938
			c0,0-2.25,2.688-1.812,3.062c0,0-0.188,1.875,0.062,2.688c0,0-0.188,2.562-0.875,4.25"/>
		<path id="path7598" sodipodi:nodetypes="cssssscssscc" fill="none" stroke="#000000" d="M87.312,169.56
			c-0.688-1-0.312-3.125-0.312-3.125s0.375-1.25-2.75-4.125s-5.25-6.125-3.375-9.125s5.5-2.25,7-1.125c0,0,1.627,1.099,1.938-0.688
			c0.177-1.017,4.315-1.205,5.224-1.166c0.345,0.016,4.573,0.346,4.838,1.354c0,0,0.375,1.062,1.062,0.938s3.875-2.875,8.188-0.25
			s-0.312,7.688-1,8.75s-3.5,3.188-3.688,4.375c0,0-0.375,0.75-0.375,1.438c0,0,0.125,1.438-0.312,3.125"/>
		<path id="path2250" fill="#134C42" stroke="#000000" stroke-width="0.6" d="M87.688,172.06c0,0-2.562-0.5-1-5.75
			c0,0,2.875,2.062,2.25,5.562"/>
		<path id="path2252" sodipodi:nodetypes="cccc" fill="#134C42" stroke="#000000" stroke-width="0.6" d="M91.438,172.118
			c0.188-0.5,0.125-1.562,0.125-1.562c0.562-3.062-1.25-4.625-1.25-4.625c-1.938,2.688-0.729,5.375-0.729,5.375
			s-0.842,1.479,0.484,1.479"/>
		<path id="path2254" sodipodi:nodetypes="ccc" fill="#134C42" stroke="#000000" stroke-width="0.6" d="M92.651,171.388
			c0,0-1.312-2.25,0.438-5c0,0,2.5,2.375,1.312,5.312"/>
		<path id="path2258" sodipodi:nodetypes="ccc" fill="#134C42" stroke="#000000" stroke-width="0.6" d="M97.404,172.784
			c-0.619-2.032,0.221-2.244,0.221-2.244s-0.761-2.625,2.239-4.625c0,0,1.114,3.375-0.323,4.812c0,0,0.25,2.322-0.635,2.941"/>
		<path id="path2262" fill="#134C42" stroke="#000000" stroke-width="0.6" d="M103.25,171.31c2.438-1.062,1.062-4.625,1.062-4.625
			c-0.625,0.562-1.125,2-1.125,2s-0.25,0.312-0.312,1.188"/>
		<path id="path2260" sodipodi:nodetypes="ccc" fill="#134C42" stroke="#000000" stroke-width="0.6" d="M100.5,171.997
			c0,0-1-3.25,1.688-5.438c0,0,1.875,3.062,0.312,5.125"/>
		<path id="path3155" fill="#134C42" stroke="#000000" stroke-width="0.6" d="M86.812,172.497c0,0,0.25-1.125,0.688-1.75
			c0,0,1.625,0.938,1,3.438"/>
		<path id="path3140" fill="#134C42" stroke="#000000" stroke-width="0.6" d="M86.188,177.685c0,0-2.312-1.438-0.312-6.25
			c0,0,2.5,1.688,2.25,6.188"/>
		<path id="path3157" fill="#134C42" stroke="#000000" stroke-width="0.6" d="M90.438,173.935c-0.688-1.812,0.5-3.312,0.5-3.312
			s1.312,1.75,0.438,3.312"/>
		<path id="path3142" fill="#134C42" stroke="#000000" stroke-width="0.6" d="M88.875,177.06c0,0-1.938-2.438,0.188-6.062
			c0,0,2.625,2,1.25,6.125"/>
		<path id="path3159" fill="#134C42" stroke="#000000" stroke-width="0.6" d="M93,173.497c-0.75-1.562,0.688-3.375,0.688-3.375
			s1.188,1.5,0.688,3.375"/>
		
			<radialGradient id="path8481_1_" cx="59.7593" cy="261.877" r="1.3847" gradientTransform="matrix(1.7217 -5.688528e-06 -1.200167e-05 -3.6325 -7.2849 1115.6006)" gradientUnits="userSpaceOnUse">
			<stop  offset="0" style="stop-color:#A773BE"/>
			<stop  offset="1" style="stop-color:#563067;stop-opacity:0"/>
		</radialGradient>
		<path id="path8481" sodipodi:nodetypes="cccsc" fill="url(#path8481_1_)" d="M94.75,166.06c-1.5-2.25,0.625-5.25,0.625-5.25
			s2.625,1.875,0.938,6.125c0,0-0.125,0.5-0.688,0.125S94.75,166.06,94.75,166.06z"/>
		<path id="path2256" sodipodi:nodetypes="ccc" fill="#134C42" stroke="#000000" stroke-width="0.6" d="M95.453,171.398
			c0,0-1.75-1.5,1.25-5.188c0,0,1.625,3.812,0.188,5.562"/>
		<path id="path3144" fill="#134C42" stroke="#000000" stroke-width="0.6" d="M91.5,177.31c0,0-2.062-2.938,0.75-6.5
			c0,0,2.312,3.5,0.562,6.625"/>
		<path id="path3163" fill="#134C42" stroke="#000000" stroke-width="0.6" d="M96.625,173.747c-1.688-1.688,0.562-4.25,0.562-4.25
			s1.062,2.438,0.312,4.25"/>
		<path id="path3146" fill="#134C42" stroke="#000000" stroke-width="0.6" d="M94.438,176.872c0,0-1.312-2,0.438-6.25
			c0,0,2.625,2.75,0.812,6.438"/>
		<path id="path3165" fill="#134C42" stroke="#000000" stroke-width="0.6" d="M99.062,173.935c-1.562-1.688,0.75-3.938,0.75-3.938
			s0.812,3.188,0.125,4.312"/>
		<path id="path3148" fill="#134C42" stroke="#000000" stroke-width="0.6" d="M97.125,177.372c0,0-1.75-2.562,1.062-5.812
			c0,0,2.312,2.938-0.062,5.812"/>
		<path id="path3168" fill="#134C42" stroke="#000000" stroke-width="0.6" d="M101.625,174.372c-1-2.125,0.562-3.75,0.562-3.75
			s1.375,2.375,0.375,3.812"/>
		<path id="path3150" fill="#134C42" stroke="#000000" stroke-width="0.6" d="M100,177.435c0,0-1.625-2.25,0.625-5.75
			c0,0,2.438,2.375,0.438,5.625"/>
		<path id="path3152" fill="#134C42" stroke="#000000" stroke-width="0.6" d="M102.438,177.435c0,0-1-2.25,1.062-6.062
			c0,0,2.125,3.688,0.188,6.062"/>
		<path id="path4059" fill="#134C42" stroke="#000000" stroke-width="0.6" d="M88.375,179.872C86.5,179.31,88,175.935,88,175.935
			s1.438,0.938,1.688,3.062"/>
		<path id="path4045" sodipodi:nodetypes="ccc" fill="#134C42" stroke="#000000" stroke-width="0.6" d="M87,182.622
			c0,0-2.438-1.25-1-5.5c0,0,3,1.25,3.312,5.625"/>
		<path id="path4061" fill="#134C42" stroke="#000000" stroke-width="0.6" d="M90.5,179.122c-0.875-1.062,0.562-3.188,0.562-3.188
			s1.125,2.062,0.312,3.188"/>
		<path id="path4047" fill="#134C42" stroke="#000000" stroke-width="0.6" d="M89.562,181.935c0,0-1.812-1.75-0.125-5.5
			c0,0,2.375,2.125,1.312,5.562"/>
		<path id="path4063" fill="#134C42" stroke="#000000" stroke-width="0.6" d="M93.688,179.435c-1.438-0.688,0.062-3.812,0.062-3.812
			s1.688,2.75,0.375,3.875"/>
		<path id="path4049" sodipodi:nodetypes="ccc" fill="#134C42" stroke="#000000" stroke-width="0.6" d="M92.938,182.185
			c1.75-2.312-0.438-6-0.438-6c-2.188,3.375-1,6.125-1,6.125s0,0.5,0.375,0.938"/>
		<path id="path4065" fill="#134C42" stroke="#000000" stroke-width="0.6" d="M96.125,179.247c-0.812-1.25,0.875-3.312,0.875-3.312
			s1.938,2.5-0.125,3.75"/>
		<path id="path4051" fill="#134C42" stroke="#000000" stroke-width="0.6" d="M95.438,182.685c1.938-1.25,0-6.812,0-6.812
			c-2.938,3.875-1,6.375-1,6.375s-0.625,1.938,0.562,1.875"/>
		<path id="path4068" fill="#134C42" stroke="#000000" stroke-width="0.6" d="M99.188,180.372c-1.625-1.875,0.75-4.188,0.75-4.188
			s1.875,2.938-0.312,4.375"/>
		<path id="path4070" fill="#134C42" stroke="#000000" stroke-width="0.6" d="M101.062,180.372c-1-2.125,1.25-3.875,1.25-3.875
			s2,1.625,0.188,4.062"/>
		<path id="path4055" sodipodi:nodetypes="ccc" fill="#134C42" stroke="#000000" stroke-width="0.6" d="M100.438,183.185
			c2.5-1.812,0.875-6.062,0.875-6.062c-2.5,2.125-2.188,5.25-2.188,5.25s-0.688,1.5,0.125,1.938"/>
		<path id="path4057" fill="#134C42" stroke="#000000" stroke-width="0.6" d="M102,183.247c0,0-0.938-3,2.25-6.312
			c0,0,1.375,4.5-1.688,6"/>
		<path id="path4053" sodipodi:nodetypes="ccc" fill="#134C42" stroke="#000000" stroke-width="0.6" d="M96.75,182.435
			c0,0-1.688-0.688,1.562-5.938c0,0,1.875,4.688-0.062,6.438"/>
		<path id="path5324" fill="#134C42" stroke="#000000" stroke-width="0.8" d="M96,188.31c-0.625,3.875-0.125,10.875-0.125,9.5
			s1.75-3,1.75-3c-0.25,1.625,2.125,2.125,1.625,1.375s0-2.125,0-2.125c4.875,1.375,3-2.375,3-2.375
			c-1.5-1.25-0.875-2.875-0.875-2.875c2.625,0.25,2.5-2.125,2.5-2.125c-0.125-2.375,0.75-4.625,1-3.25s1.25,0.25,1.25,0.25
			c1.75-0.125,1.25-2.875,1.25-2.875c-2.125-1.625-1.5-4.25-1.5-4.25c-0.125,0.625,2,0.875,1.5,0.125s-0.5-4.25-0.625-5.5
			s1.125-0.375,1.125-0.375s-0.5-2.75,0-1.5s0.875,0.25,0.875,0.25c1.875-5.875,5.5-6.625,5.5-6.625c-4.625,5.875-1,7.25-1,7.25
			c-0.75,0.25-0.625,1.375-0.625,1.375c-0.125,1.875,3,2.5,3,2.5c-1.125,0.5-3,3.375-1.125,3.625s2.25,1.75,2.25,1.75
			c-3,2.875-0.75,7.75-0.75,7.75c-2.625,0.125-2.125,2.375-2.125,2.375c0.375,2,2.125,1.125,2.125,1.125
			c-1.125,0.75-0.5,2.25-0.5,2.25c-0.875,1.75-1.75,1.75-3.375,1.875s-2.375,1.75-1.875,3.5s3.625,0.375,3.625,0.375s0,2.5-1.375,4
			s-2.875,0.125-2.875,0.125c-1-1.5-2.625-1.25-3.5,0.125s0.75,1.875,0.75,1.875c-1.75,2.75-3.25,0.375-3.25,0.375
			c-2.25-3.75-3.5-2.25-3.5-2.25c-1.125,0.375-0.875,4.5-0.875,4s-1-1.625-1-1.625c-1.375-4.25-3-1.75-3-1.75
			c-0.5,1.125-0.375,5.625,0.25,8.375s-0.25,3.25-0.25,3.25c-2.875,1.25-4.75-1.625-4.75-1.625c-1.25-2.875,0.625-3.375,0.625-3.375
			c0.625-0.75,0.375-2.875,0.625-5.75s-1.625-0.875-1.625-0.875c-1.625,4.5-4.25,2.75-4.25,2.75c1.125-0.75,0.25-2.25,0.25-2.25
			c0-2.25-1.75-0.125-1.75-0.125c-2.75,3.125-5.875,0.25-5.875,0.25c1-0.125,1.25-0.625,1.25-0.625
			c2.375-2.625-0.125-2.625-0.125-2.625c-5,1.625-6.125-2.625-6.125-2.625c2.125-0.125,3-1.25,3-1.25c1.375-2.25-0.75-3.5-0.75-3.5
			c-1.125,0.25-3.375-0.875-3.25-2.125s-1.125-3.375-1.125-3.375c0.75,1,1.25,0.125,1.25,0.125c1.5,0.125,0.625-1.625,0.625-1.625
			c-1.625-0.25-1.875-3.625-1.875-3.625c1,0.25,1.375-1,1.375-1c0-2.625,2.375-4.625,2.375-4.625c1.625-3.125-1-4.25-1-4.25
			c1.5-1.375,2.625-0.875,2.625-0.875c3.125-3.75-0.25-9.375-0.25-9.375s4.75,0.625,6,7.5c0,0,1.5-1.625,2.125,0.625
			c0,0-1.75,0-1.875,1.875s-0.125,3.875,0.75,4.5c0,0,0.5,0.75,1.25,0.75c0,0-3.875,0.875-2.125,4.625c0,0,0.75,1.5,2.375,1.375
			c0,0-2.125,4.625,2.5,4.125c0,0-0.125,2.125-2.125,3.25c0,0-1.25,1.875,0.375,2.125s1.5-1.375,1.5-1.375s0.625,3.25,2.375,1
			c0,0,0.5,3.125,0.5,4s1.125,1.75,1.125,0.125c0,0,1-0.5,0.75-9.5c0,0-0.076-0.529-0.96-0.795
			c-0.884-0.265-3.624-0.354-4.419-4.684c0,0-0.088-0.442-0.088-0.885c0-0.441,2.74,1.592,3.005,2.21
			c0.265,0.619-0.265-1.768,0.088-2.651c0,0,2.033,1.237,2.475,3.094c0,0,0.354-2.21,1.414-3.271c0,0,0.973,1.679,1.061,3.624
			c0.088,1.944,0.442-3.006,1.237-3.624c0,0,1.149,0.796,1.061,3.447c0,0,0.619-2.033,1.502-2.563c0,0,0.708,1.414,0.354,2.74
			c0,0,1.326-1.945,3.712-2.74c0,0,1.503,4.331-3.536,4.773C98.906,186.485,96.167,186.927,96,188.31z"/>
		<path id="path4074" fill="none" stroke="#000000" stroke-width="0.8" d="M79.549,171.724c0,0,0.53,6.541-0.707,9.016
			c0,0-1.591,10.165,1.591,13.966c0,0,2.74,5.215,10.784,5.215"/>
		<path id="path4076" fill="none" stroke="#000000" stroke-width="0.8" d="M110.839,171.901c0,0-0.884,9.811-0.088,11.755
			c0,0,0.354,7.071-2.652,9.104c0,0-2.651,6.806-10.96,7.336"/>
		<path id="path4080" fill="none" stroke="#000000" stroke-width="0.5" d="M81.759,185.954c0,0-3.624,2.033-2.21,7.602"/>
		<path id="path4082" fill="none" stroke="#000000" stroke-width="0.5" d="M75.572,188.96c0,0,2.563,1.855,4.154,4.685"/>
		<path id="path4084" fill="none" stroke="#000000" stroke-width="0.5" d="M78.666,198.063c0,0,1.944-0.973,5.568,0.089"/>
		<path id="path4086" fill="none" stroke="#000000" stroke-width="0.5" d="M78.135,177.204c0,0,0.707,1.591,0.53,5.303"/>
		<path id="path4088" fill="none" stroke="#000000" stroke-width="0.5" d="M80.875,177.911c0,0-2.122,2.21-2.298,4.596"/>
		<path id="path5836" sodipodi:nodetypes="cc" fill="none" stroke="#000000" stroke-width="0.5" d="M108.453,180.828
			c0,0,2.209,2.386,2.209,5.215"/>
		<path id="path5838" fill="none" stroke="#000000" stroke-width="0.5" d="M106.95,186.927c0,0,2.387,3.801,0.442,7.336"/>
		<path id="path5840" fill="none" stroke="#000000" stroke-width="0.5" d="M111.634,190.374c0,0-2.209,0.707-3.624,2.917"/>
		<path id="path5842" fill="none" stroke="#000000" stroke-width="0.5" d="M108.188,198.063c0,0-3.094-0.795-6.364,0.973"/>
		<path id="path5846" fill="none" stroke="#000000" stroke-width="0.5" d="M90.625,211.56c0,0,3.125-1.5,4,2.5"/>
		<path id="path5848" d="M95.5,161.997c0,0-0.875,2.062,0.062,2.625C96.938,163.872,95.5,161.997,95.5,161.997z"/>
		<path id="path1433" sodipodi:nodetypes="ccc" fill="none" stroke="#000000" stroke-width="0.5" d="M75.125,178.385
			c0,0,0.125,3.625,2.875,5.125c0,0-4.25,0-4.25,2.5"/>
		<path id="path1603" sodipodi:nodetypes="ccc" fill="none" stroke="#000000" stroke-width="0.5" d="M115.5,179.635
			c0,0-1.625,3.5-3.875,4.875c0,0,1.375,0,3.375,2.25"/>
	</g>
</g>
</svg>
