<?xml version="1.0" encoding="UTF-8" standalone="no"?>
<svg
   xmlns:dc="http://purl.org/dc/elements/1.1/"
   xmlns:cc="http://creativecommons.org/ns#"
   xmlns:rdf="http://www.w3.org/1999/02/22-rdf-syntax-ns#"
   xmlns:svg="http://www.w3.org/2000/svg"
   xmlns="http://www.w3.org/2000/svg"
   xmlns:sodipodi="http://sodipodi.sourceforge.net/DTD/sodipodi-0.dtd"
   xmlns:inkscape="http://www.inkscape.org/namespaces/inkscape"
   height="600"
   width="900"
   version="1.1"
   id="svg8893"
   sodipodi:docname="Flag_of_Katanga_resized.svg"
   inkscape:version="0.92.4 (5da689c313, 2019-01-14)">
  <metadata
     id="metadata8899">
    <rdf:RDF>
      <cc:Work
         rdf:about="">
        <dc:format>image/svg+xml</dc:format>
        <dc:type
           rdf:resource="http://purl.org/dc/dcmitype/StillImage" />
        <dc:title></dc:title>
      </cc:Work>
    </rdf:RDF>
  </metadata>
  <defs
     id="defs8897" />
  <sodipodi:namedview
     pagecolor="#ffffff"
     bordercolor="#666666"
     borderopacity="1"
     objecttolerance="10"
     gridtolerance="10"
     guidetolerance="10"
     inkscape:pageopacity="0"
     inkscape:pageshadow="2"
     inkscape:window-width="1024"
     inkscape:window-height="548"
     id="namedview8895"
     showgrid="false"
     fit-margin-top="0"
     fit-margin-left="0"
     fit-margin-right="0"
     fit-margin-bottom="0"
     inkscape:zoom="0.30053339"
     inkscape:cx="450"
     inkscape:cy="296"
     inkscape:window-x="-8"
     inkscape:window-y="-8"
     inkscape:window-maximized="1"
     inkscape:current-layer="g8891" />
  <g
     transform="matrix(2.2516912,0,0,2.252229,-0.67550272,-75.437352)"
     id="g8891">
    <path
       d="M 0.29999794,299.89728 H 399.99957 V 33.49453 H 0.29999794 Z"
       id="path8877"
       inkscape:connector-curvature="0"
       style="fill:#ffffff;stroke-width:1.00673413" />
    <path
       d="M 0.29999794,33.49453 H 399.99957 L 0.29999794,299.89728 Z"
       id="path8879"
       inkscape:connector-curvature="0"
       style="fill:#ce1126;fill-rule:evenodd;stroke-width:1.00673413" />
    <path
       d="M 0.29999794,269.69238 360.11726,33.49453 h 39.88231 V 63.699426 L 40.182307,299.89728 H 0.29999794 Z"
       id="path8881"
       inkscape:connector-curvature="0"
       style="fill:#14b53a;fill-rule:evenodd;stroke-width:1.00673413" />
    <g
       id="g8889"
       style="fill:#ce1126"
       transform="translate(0,-0.42686903)">
      <path
         d="m 350.83917,226.73823 c -1.98104,-1.98006 -5.18736,-1.98006 -7.16841,0 -0.12381,0.12374 -0.24562,0.26531 -0.35395,0.39808 -2.45207,2.70015 -8.58889,11.68535 -11.08448,14.3518 -0.0759,0.0815 -0.17434,0.21856 -0.24334,0.28752 -0.30135,0.28987 -0.69334,0.44184 -1.08412,0.46438 -0.0598,0.003 -0.11744,0.002 -0.17698,0 -0.39429,-0.0204 -0.78034,-0.17166 -1.08411,-0.46438 -0.006,-0.006 -0.0164,-0.0163 -0.0221,-0.0221 -0.0149,-0.0149 -0.03,-0.0289 -0.0442,-0.0442 -0.0531,-0.0541 -0.11988,-0.16001 -0.17695,-0.22118 -2.44326,-2.60824 -8.39687,-11.22998 -10.95174,-14.13066 -0.15135,-0.20605 -0.30035,-0.43282 -0.48677,-0.61915 -1.98105,-1.98006 -5.20949,-1.95795 -7.19053,0.0221 -1.98104,1.98005 -1.98104,5.18477 0,7.16484 0.12381,0.12375 0.26537,0.24557 0.39827,0.35378 2.7015,2.45085 11.69117,8.58462 14.35894,11.07897 0.0816,0.0759 0.21867,0.17427 0.28766,0.24323 0.29529,0.30647 0.42418,0.70813 0.44249,1.10568 0.0188,0.44826 -0.12991,0.91348 -0.46462,1.26047 -0.006,0.006 -0.0163,0.0164 -0.0221,0.0221 -0.0149,0.0149 -0.0289,0.03 -0.0442,0.0442 -0.0541,0.0531 -0.16016,0.11975 -0.22127,0.17688 -2.60953,2.44203 -11.23557,8.39269 -14.1377,10.94629 -0.20616,0.15129 -0.43304,0.30021 -0.61946,0.48654 -1.98103,1.98005 -1.95891,5.20689 0.0221,7.18695 1.98104,1.98006 5.18736,1.98006 7.16841,0 0.12381,-0.12374 0.24562,-0.26531 0.35395,-0.39808 2.45207,-2.70015 8.58889,-11.68536 11.08448,-14.3518 0.0759,-0.0816 0.17434,-0.21856 0.24334,-0.28752 0.34731,-0.3344 0.81262,-0.48321 1.2611,-0.46438 0.39778,0.0183 0.79978,0.14696 1.10624,0.44227 0.006,0.006 0.0163,0.0163 0.0221,0.0221 0.0149,0.0149 0.03,0.0289 0.0442,0.0442 0.0531,0.0541 0.11987,0.16001 0.17696,0.22119 2.44323,2.60822 8.39686,11.22997 10.95172,14.13066 0.15136,0.20605 0.30036,0.43282 0.48678,0.61915 1.98105,1.98005 5.20949,1.95794 7.19054,-0.0221 1.98103,-1.98006 1.98103,-5.18478 0,-7.16484 -0.12383,-0.12375 -0.26539,-0.24557 -0.39828,-0.35378 -2.70151,-2.45086 -11.69117,-8.58464 -14.35894,-11.07898 -0.0815,-0.0759 -0.21866,-0.17426 -0.28766,-0.24321 -0.29265,-0.30384 -0.44416,-0.68951 -0.46462,-1.08357 -0.002,-0.0596 -0.003,-0.11712 0,-0.17692 0.0225,-0.39059 0.17434,-0.78263 0.46462,-1.08356 0.006,-0.006 0.0163,-0.0164 0.0221,-0.0221 0.0149,-0.0149 0.0289,-0.03 0.0442,-0.0442 0.0541,-0.0531 0.16016,-0.11976 0.22128,-0.17688 2.60952,-2.44204 11.23556,-8.39269 14.13769,-10.94629 0.20616,-0.15128 0.43304,-0.3002 0.61946,-0.48653 1.98103,-1.98007 1.95891,-5.2069 -0.0221,-7.18696 z"
         id="path8883"
         inkscape:connector-curvature="0" />
      <path
         d="m 266.77607,226.73823 c -1.98104,-1.98006 -5.18737,-1.98006 -7.16841,0 -0.12381,0.12374 -0.24563,0.26531 -0.35396,0.39808 -2.45207,2.70015 -8.58888,11.68535 -11.08447,14.3518 -0.0759,0.0815 -0.17434,0.21856 -0.24333,0.28752 -0.30135,0.28987 -0.69335,0.44184 -1.08412,0.46438 -0.0598,0.003 -0.11746,0.002 -0.17699,0 -0.3943,-0.0204 -0.78035,-0.17166 -1.08411,-0.46438 -0.006,-0.006 -0.0164,-0.0163 -0.0221,-0.0221 -0.0149,-0.0149 -0.03,-0.0289 -0.0442,-0.0442 -0.0531,-0.0541 -0.11988,-0.16001 -0.17697,-0.22118 -2.44325,-2.60824 -8.39686,-11.22998 -10.95172,-14.13066 -0.15136,-0.20605 -0.30036,-0.43282 -0.48678,-0.61915 -1.98104,-1.98006 -5.20949,-1.95795 -7.19052,0.0221 -1.98105,1.98005 -1.98105,5.18477 0,7.16484 0.12381,0.12375 0.26537,0.24557 0.39827,0.35378 2.70149,2.45085 11.69116,8.58462 14.35893,11.07897 0.0816,0.0759 0.21866,0.17427 0.28766,0.24323 0.29529,0.30647 0.42418,0.70813 0.4425,1.10568 0.0188,0.44826 -0.12992,0.91348 -0.46463,1.26047 -0.006,0.006 -0.0163,0.0164 -0.0221,0.0221 -0.0149,0.0149 -0.0289,0.03 -0.0442,0.0442 -0.0541,0.0531 -0.16016,0.11975 -0.22128,0.17688 -2.60953,2.44203 -11.23556,8.39269 -14.13768,10.94629 -0.20616,0.15129 -0.43304,0.30021 -0.61946,0.48654 -1.98103,1.98005 -1.95892,5.20689 0.0221,7.18695 1.98103,1.98006 5.18736,1.98006 7.1684,0 0.12382,-0.12374 0.24563,-0.26531 0.35396,-0.39808 2.45207,-2.70015 8.58888,-11.68536 11.08448,-14.3518 0.0759,-0.0816 0.17434,-0.21856 0.24333,-0.28752 0.34731,-0.3344 0.81262,-0.48321 1.26111,-0.46438 0.39777,0.0183 0.79978,0.14696 1.10624,0.44227 l 0.0221,0.0221 c 0.0149,0.0149 0.03,0.0289 0.0442,0.0442 0.0531,0.0541 0.11987,0.16001 0.17697,0.22119 2.44324,2.60822 8.39686,11.22997 10.95171,14.13066 0.15137,0.20605 0.30037,0.43282 0.48679,0.61915 1.98104,1.98005 5.20949,1.95794 7.19052,-0.0221 1.98105,-1.98006 1.98105,-5.18478 0,-7.16484 -0.12381,-0.12375 -0.26538,-0.24557 -0.39827,-0.35378 -2.7015,-2.45086 -11.69116,-8.58464 -14.35893,-11.07898 -0.0815,-0.0759 -0.21866,-0.17426 -0.28766,-0.24321 -0.29265,-0.30384 -0.44417,-0.68951 -0.46462,-1.08357 -0.002,-0.0596 -0.003,-0.11712 0,-0.17692 0.0225,-0.39059 0.17434,-0.78263 0.46462,-1.08356 0.006,-0.006 0.0163,-0.0164 0.0221,-0.0221 0.0149,-0.0149 0.0289,-0.03 0.0442,-0.0442 0.0541,-0.0531 0.16016,-0.11976 0.22127,-0.17688 2.60953,-2.44204 11.23556,-8.39269 14.13769,-10.94629 0.20615,-0.15128 0.43303,-0.3002 0.61944,-0.48653 1.98105,-1.98007 1.95893,-5.2069 -0.0221,-7.18696 z"
         id="path8885"
         inkscape:connector-curvature="0" />
      <path
         d="m 308.80761,168.38404 c -1.98104,-1.98005 -5.18736,-1.98005 -7.16841,0 -0.12381,0.12375 -0.24562,0.26531 -0.35395,0.39808 -2.45208,2.70015 -8.58888,11.68534 -11.08448,14.35178 -0.0759,0.0815 -0.17434,0.21856 -0.24333,0.28752 -0.30134,0.28987 -0.69335,0.44184 -1.08411,0.46438 -0.0598,0.003 -0.11746,0.002 -0.17699,0 -0.3943,-0.0204 -0.78035,-0.17166 -1.08412,-0.46438 -0.006,-0.006 -0.0164,-0.0163 -0.0221,-0.0221 -0.0149,-0.0149 -0.03,-0.0289 -0.0442,-0.0442 -0.0531,-0.0541 -0.11988,-0.16001 -0.17696,-0.22118 -2.44325,-2.60822 -8.39686,-11.22995 -10.95173,-14.13064 -0.15135,-0.20605 -0.30035,-0.43282 -0.48678,-0.61915 -1.98104,-1.98005 -5.20948,-1.95794 -7.19052,0.0221 -1.98104,1.98006 -1.98104,5.18477 0,7.16483 0.12382,0.12375 0.26537,0.24557 0.39827,0.35378 2.7015,2.45085 11.69116,8.58462 14.35894,11.07896 0.0816,0.0759 0.21866,0.17426 0.28765,0.24322 0.29529,0.30647 0.42419,0.70813 0.44249,1.10568 0.0188,0.44826 -0.1299,0.91349 -0.46462,1.26048 -0.006,0.006 -0.0163,0.0164 -0.0221,0.0221 -0.0149,0.0149 -0.0289,0.03 -0.0442,0.0442 -0.0541,0.0531 -0.16016,0.11975 -0.22127,0.17687 -2.60953,2.44203 -11.23556,8.39268 -14.13769,10.94628 -0.20615,0.15128 -0.43303,0.3002 -0.61945,0.48653 -1.98104,1.98006 -1.95892,5.20689 0.0221,7.18695 1.98104,1.98005 5.18737,1.98005 7.1684,0 0.12382,-0.12375 0.24564,-0.26531 0.35397,-0.39808 2.45207,-2.70015 8.58887,-11.68534 11.08447,-14.35179 0.0759,-0.0816 0.17433,-0.21855 0.24334,-0.28751 0.34731,-0.3344 0.81262,-0.4832 1.2611,-0.46438 0.39777,0.0183 0.79977,0.14696 1.10624,0.44227 0.006,0.006 0.0163,0.0163 0.0221,0.0221 0.0149,0.0149 0.03,0.0289 0.0442,0.0442 0.0531,0.0541 0.11987,0.16001 0.17696,0.22118 2.44324,2.60823 8.39686,11.22997 10.95172,14.13064 0.15135,0.20605 0.30037,0.43282 0.48678,0.61915 1.98105,1.98005 5.20948,1.95794 7.19053,-0.0221 1.98105,-1.98004 1.98105,-5.18477 0,-7.16483 -0.12381,-0.12375 -0.26538,-0.24557 -0.39828,-0.35378 -2.7015,-2.45085 -11.69116,-8.58461 -14.35893,-11.07896 -0.0815,-0.0759 -0.21866,-0.17426 -0.28766,-0.24321 -0.29265,-0.30384 -0.44416,-0.68951 -0.46462,-1.08357 -0.002,-0.0596 -0.003,-0.11712 0,-0.17691 0.0225,-0.3906 0.17435,-0.78263 0.46462,-1.08357 0.006,-0.006 0.0163,-0.0164 0.0221,-0.0221 0.0149,-0.0149 0.0289,-0.03 0.0442,-0.0442 0.0541,-0.0531 0.16016,-0.11975 0.22128,-0.17687 2.60953,-2.44203 11.23557,-8.39268 14.13768,-10.94628 0.20616,-0.15128 0.43305,-0.3002 0.61946,-0.48653 1.98105,-1.98006 1.95893,-5.20689 -0.0221,-7.18695 z"
         id="path8887"
         inkscape:connector-curvature="0" />
    </g>
  </g>
</svg>
