<svg xmlns="http://www.w3.org/2000/svg" width="1184.4692" height="691.21942">
  <path style="opacity:.98000004;fill:#006521;fill-opacity:1;stroke:#000;stroke-width:.10024142;stroke-linecap:square;stroke-linejoin:miter;stroke-miterlimit:4;stroke-dasharray:none;stroke-dashoffset:0;stroke-opacity:1" d="M-746.46863 212.52026h1184.3657v691.1123h-1184.3657z" transform="translate(746.53199 -212.46349)"/>
  <g style="stroke:#fff">
    <path style="fill:none;fill-rule:evenodd;stroke:#fff;stroke-width:.1388889;stroke-linecap:butt;stroke-linejoin:miter;stroke-miterlimit:4;stroke-dasharray:none;stroke-opacity:1" d="m46.869438 7.172716 3.24817 3.248171M46.903602 6.0578502l3.471547 3.4715485M46.631708 4.5180619l4.060415 4.0604159M47.087358 3.7652495l4.060415 4.0604159M47.797112 3.1986187l3.583235 3.6725882M48.422569 2.6848505l3.583235 3.6725882M49.281915 2.2807497l3.24817 3.248171" transform="matrix(34.8349 0 0 34.8349 -1115.69001 107.41974)"/>
  </g>
  <g style="fill:#ff0;fill-opacity:1">
    <path style="color:#000;font-style:normal;font-variant:normal;font-weight:400;font-stretch:normal;font-size:medium;line-height:normal;font-family:sans-serif;text-indent:0;text-align:start;text-decoration:none;text-decoration-line:none;text-decoration-style:solid;text-decoration-color:#000;letter-spacing:normal;word-spacing:normal;text-transform:none;direction:ltr;block-progression:tb;writing-mode:lr-tb;baseline-shift:baseline;text-anchor:start;white-space:normal;clip-rule:nonzero;display:inline;overflow:visible;visibility:visible;opacity:1;isolation:auto;mix-blend-mode:normal;color-interpolation:sRGB;color-interpolation-filters:linearRGB;solid-color:#000;solid-opacity:1;fill:#ffdb43;fill-opacity:1;fill-rule:evenodd;stroke:#1a1a1a;stroke-width:.06944445;stroke-linecap:butt;stroke-linejoin:miter;stroke-miterlimit:4;stroke-dasharray:none;stroke-dashoffset:0;stroke-opacity:1;color-rendering:auto;image-rendering:auto;shape-rendering:auto;text-rendering:auto;enable-background:accumulate" d="M51.28125 1.2714844c-.360612.054535-.710996.1850435-1.037109.3320312-.652228.2939754-1.26736.6678022-1.806641.828125-.616524.1832865-1.197266.09375-1.197266.09375l-.126953.7890625s.738405.1229513 1.552735-.1191406c.691579-.2055996 1.32203-.601912 1.90625-.8652344.584219-.2633224 1.065942-.3831172 1.509765-.2011719.09472.038832.262122.087691.38053.230165.118407.1424743.214235.3797359.232092.4749132.02778.1480592-.0276.5023806-.119141.7871094-.09154.2847287-.195312.5019531-.195312.5019531l.627309.3417969s.125495-.260944.234375-.5996094c.10888-.3386655.224645-.7507102.144531-1.1777344-.054871-.2924703-.136184-.5479469-.321962-.7714844-.185778-.2235374-.409474-.4146168-.679687-.5253906-.372158-.1525661-.742904-.1736758-1.103516-.1191406Z" transform="matrix(34.8349 0 0 34.8349 -1115.69001 107.41974)"/>
    <path d="m52.881795 3.8799592-.304365.011706-1.872221 8.6718478.306885-.0048c.07436.01087.822474-.0557.948809-.711777l.05358-.278264 1.202185-7.1863968-.251154-.4744013z" style="fill:#ffdb43;fill-opacity:1;fill-rule:evenodd;stroke:#1a1a1a;stroke-width:.06944445;stroke-linecap:butt;stroke-linejoin:miter;stroke-miterlimit:4;stroke-dasharray:none;stroke-opacity:1" transform="matrix(34.8349 0 0 34.8349 -1115.69001 107.41974)"/>
    <path style="fill:#ffdb43;fill-opacity:1;fill-rule:evenodd;stroke:#1a1a1a;stroke-width:.06944445;stroke-linecap:butt;stroke-linejoin:miter;stroke-miterlimit:4;stroke-dasharray:none;stroke-opacity:1" d="m49.226114 12.586627 1.78598-.02791 1.869701-8.6787538-.725555.027906z" transform="matrix(34.8349 0 0 34.8349 -1115.69001 107.41974)"/>
    <path d="m49.992484 10.316712-.591867 1.753053c1.316514.238616 1.731767-1.314695.591867-1.753053z" style="fill:#ffdb43;fill-opacity:1;fill-rule:evenodd;stroke:#1a1a1a;stroke-width:.06944445;stroke-linecap:butt;stroke-linejoin:miter;stroke-miterlimit:4;stroke-dasharray:none;stroke-opacity:1" transform="matrix(34.8349 0 0 34.8349 -1115.69001 107.41974)"/>
    <path style="fill:#ffdb43;fill-opacity:1;fill-rule:evenodd;stroke:#1a1a1a;stroke-width:.06944445;stroke-linecap:butt;stroke-linejoin:miter;stroke-miterlimit:4;stroke-dasharray:none;stroke-opacity:1" d="M49.571501 11.738107c-.462542-.331386-1.232804-.063089-2.088124-1.001155-1.470031-1.6122437-1.206085-5.2844849-2.917654-5.8639111-.199889-1.1214242 2.397919-.7576289 2.459982-2.1739377.01536-.3505137-.365724-.8329295-.715111-.8009245-1.085314.099418-.689137 1.1441778-.51488 1.1441778.0049.2359528-.444779.1762693-.543484.085813-.315032.4992942-.666422.4319927-.743719.3146488.432456-.3972864.05007-1.4854859.68465-2.0047564.356213-.2914885.877175-.4713927 1.546496-.2549945 1.055868.3413728 1.013526 1.5498808.764942 2.9923356-.32049 1.8596965-.827213 4.693831.436445 6.075272.894766.978165 1.973706.457671 1.973706.457671.237571.127437.525213.958677-.343249 1.029761zM51.997011 4.3248054c.263691-.2641328 1.03895-.411583 1.198354.3574038.41284.003.417361-.4624723.294333-.7148077-.119068-.2442116-.552796-.635458-1.214121-.4572668-.351687.0947607-.673146.5566082-.278566.8146707Z" transform="matrix(34.8349 0 0 34.8349 -1115.69001 107.41974)"/>
  </g>
</svg>
