<?xml version="1.0" encoding="UTF-8" standalone="no"?>
<svg
   xmlns:dc="http://purl.org/dc/elements/1.1/"
   xmlns:cc="http://creativecommons.org/ns#"
   xmlns:rdf="http://www.w3.org/1999/02/22-rdf-syntax-ns#"
   xmlns:svg="http://www.w3.org/2000/svg"
   xmlns="http://www.w3.org/2000/svg"
   version="1.1"
   id="svg2"
   viewBox="0 0 443.48828 234.03339"
   height="66.049423mm"
   width="125.16224mm">
  <defs
     id="defs4" />
  <metadata
     id="metadata7">
    <rdf:RDF>
      <cc:Work
         rdf:about="">
        <dc:format>image/svg+xml</dc:format>
        <dc:type
           rdf:resource="http://purl.org/dc/dcmitype/StillImage" />
        <dc:title></dc:title>
      </cc:Work>
    </rdf:RDF>
  </metadata>
  <g
     transform="translate(-340.64494,-474.73441)"
     id="layer1">
    <g
       id="text3396"
       style="font-style:normal;font-variant:normal;font-weight:normal;font-stretch:normal;font-size:231.55610657px;line-height:125%;font-family:KaiTi;-inkscape-font-specification:'KaiTi, Normal';text-align:start;letter-spacing:0px;word-spacing:0px;writing-mode:lr-tb;text-anchor:start;fill:#000000;fill-opacity:1;stroke:none;stroke-width:1px;stroke-linecap:butt;stroke-linejoin:miter;stroke-opacity:1">
      <path
         id="path3401"
         style=""
         d="m 492.37999,562.53524 q 4.52258,-0.90452 9.04516,-2.71355 5.42709,-1.80903 10.85419,0.90452 5.4271,2.71354 -1.80903,6.33161 -6.33161,2.71355 -18.09032,1.80903 -0.90452,13.56774 -1.80903,28.04 7.23612,-0.90452 11.7587,-2.71355 5.4271,-1.80903 9.94968,1.80903 4.52258,2.71355 1.80903,5.4271 -1.80903,1.80903 -8.14064,2.71355 -6.33161,0.90451 -15.37677,0 -5.4271,32.56257 -17.18581,48.84386 -11.75871,16.28129 -24.42193,21.70839 -11.75871,6.33161 -0.90452,-4.52258 11.75871,-10.8542 20.80387,-31.65807 9.94968,-20.80386 11.75871,-59.69805 1.80903,-39.79871 -2.71355,-46.13032 -4.52258,-7.23613 -0.90452,-7.23613 4.52258,-0.90452 8.14065,0 4.52258,0.90452 17.1858,-1.80903 12.66323,-3.61807 15.37678,-6.33161 2.71354,-2.71355 9.04516,-0.90452 6.33161,1.80903 11.75871,6.33161 6.33161,4.52258 3.61806,9.04516 -2.71355,4.52258 -4.52258,17.18581 -1.80903,11.75871 -1.80903,35.27612 0,22.6129 0.90451,40.70322 1.80904,18.09033 1.80904,29.84903 0,10.8542 -2.71355,18.99484 -1.80903,8.14064 -6.33162,12.66323 -4.52258,4.52258 -7.23612,-5.4271 -2.71355,-9.94968 -13.56774,-18.99484 -10.8542,-9.94967 0,-6.33161 10.85419,2.71355 12.66322,2.71355 2.71355,-0.90452 2.71355,-10.85419 0.90451,-9.94968 0.90451,-48.84387 0,-39.79871 -1.80903,-55.17548 -0.90451,-15.37677 -6.33161,-15.37677 -4.52258,0 -24.42193,5.42709 l 0,28.94452 z m -41.60774,62.4116 q 8.14064,8.14065 -1.80903,9.04516 -9.94968,0.90452 -32.56258,5.4271 -1.80903,11.75871 -4.52258,13.56774 -1.80903,0.90452 -3.61806,-7.23613 -1.80904,-8.14064 -4.52258,-23.51741 -1.80904,-16.28129 -6.33162,-21.70839 -3.61806,-5.4271 0.90452,-5.4271 5.4271,0 9.94968,1.80904 4.52258,0.90451 18.99483,-1.80904 2.71355,-11.7587 5.4271,-29.84902 -6.33161,0.90451 -13.56774,1.80903 -6.33161,0 -11.75871,-3.61807 -4.52258,-3.61806 2.71355,-4.52258 7.23613,-1.80903 24.42193,-6.33161 3.61806,-18.99484 5.4271,-35.27612 1.80903,-16.28129 -1.80904,-22.61291 -2.71354,-7.23612 4.52259,-5.42709 7.23612,1.80903 12.66322,5.42709 6.33161,3.61807 2.71355,9.04516 -3.61807,5.4271 -10.85419,45.22581 l 14.47225,-3.61807 q 5.4271,-1.80903 9.94968,1.80903 5.42709,3.61807 0,6.33162 -5.4271,2.71355 -26.23097,9.04516 -3.61806,15.37677 -8.14064,29.84903 7.23613,-1.80904 9.94968,-3.61807 3.61806,-2.71355 8.14064,0 5.4271,1.80903 9.04516,5.4271 4.52258,3.61806 -0.90452,8.14064 -5.42709,4.52258 -12.66322,22.6129 z m -67.8387,0 q -4.52258,15.37678 -6.33162,30.75355 -0.90451,14.47226 -8.14064,8.14064 -6.33161,-6.33161 -9.94968,-14.47225 -2.71354,-8.14065 0.90452,-9.94968 4.52258,-1.80903 10.85419,-12.66322 7.23613,-11.75871 14.47226,-28.04 8.14064,-16.28129 5.42709,-2.71355 -1.80903,12.66323 -7.23612,28.94451 z m 29.84903,-18.99483 q 0.90451,14.47225 1.80903,26.23096 13.56774,-2.71355 28.04,-6.33161 0.90451,-11.75871 1.80903,-18.99484 0.90451,-8.14064 -6.33162,-7.23612 -6.33161,0.90451 -25.32644,6.33161 z m -24.42194,-75.07483 q -10.85419,-12.66323 -12.66322,-17.18581 -0.90452,-5.4271 9.04516,-2.71355 10.85419,1.80904 15.37677,7.23613 4.52258,4.52258 1.80903,14.47226 -2.71354,9.94967 -13.56774,-1.80903 z m -31.65806,33.46709 q -4.52258,-7.23613 1.80903,-6.33161 7.23613,0 13.56774,2.71355 7.23613,2.71354 9.04516,8.14064 1.80904,4.52258 -0.90451,11.75871 -2.71355,6.33161 -10.85419,-0.90452 -8.14065,-8.14064 -12.66323,-15.37677 z" />
      <path
         id="path3403"
         style=""
         d="m 686.85094,529.97266 q 14.47225,-2.71355 23.51741,-5.4271 9.94968,-2.71354 15.37678,2.71355 5.42709,4.52258 -7.23613,8.14065 -11.75871,3.61806 -34.37161,7.23612 -3.61807,11.75871 -6.33161,23.51742 27.13548,-4.52258 38.89419,-6.33161 12.66322,-2.71355 19.89935,-5.4271 7.23613,-2.71355 13.56774,0.90452 6.33161,2.71355 14.47226,9.04516 9.04516,5.4271 2.71354,13.56774 -6.33161,7.23613 -6.33161,41.60774 0,33.46709 -1.80903,46.13032 -1.80903,12.66322 -9.94968,23.51741 -7.23613,10.8542 -11.75871,0 -4.52258,-10.85419 -16.28128,-20.80387 -10.8542,-10.85419 0,-6.33161 11.7587,3.61807 16.28128,3.61807 4.52258,-0.90452 6.33162,-8.14065 1.80903,-8.14064 2.71354,-25.32645 1.80904,-18.09032 1.80904,-31.65806 0.90451,-13.56774 -0.90452,-23.51742 -1.80903,-9.94967 -9.04516,-11.7587 -6.33161,-1.80904 -16.28129,0 -9.04516,1.80903 -24.42193,4.52258 9.04516,5.42709 4.52258,9.94967 -3.61807,4.52258 -13.56774,20.80387 7.23613,-1.80903 13.56774,-3.61806 7.23613,-2.71355 11.75871,1.80903 4.52258,4.52258 -3.61807,7.23613 -8.14064,2.71355 -29.84903,7.23613 3.61807,5.42709 2.71355,9.04516 -0.90451,3.61806 -0.90451,8.14064 16.28128,-4.52258 24.42193,-7.23613 8.14064,-2.71355 15.37677,2.71355 7.23613,5.4271 -5.42709,7.23613 -11.75871,1.80903 -34.37161,6.33161 0,21.70839 -1.80904,33.46709 -0.90451,10.8542 -3.61806,12.66323 -2.71355,2.71355 -5.4271,-8.14065 -1.80903,-10.85419 -1.80903,-35.27612 -15.37677,3.61806 -22.6129,5.4271 -7.23613,1.80903 -14.47226,-1.80904 -6.33161,-4.52258 0.90452,-5.42709 8.14064,-0.90452 36.18064,-7.23613 0,-9.94968 -1.80903,-17.18581 -9.04516,2.71355 -14.47226,3.61807 -4.52258,0 -10.85419,-2.71355 -6.33161,-3.61806 2.71355,-4.52258 9.04516,-1.80903 35.27612,-9.04516 8.14065,-23.51742 3.61807,-31.65806 -28.04,4.52258 -67.83871,12.66322 0.90452,28.04 1.80904,56.08 0.90451,27.13548 -1.80904,36.18064 -2.71354,9.04516 -8.14064,-1.80903 -4.52258,-9.94968 -2.71355,-20.80387 2.71355,-10.85419 1.80903,-36.18064 -0.90451,-25.32645 -7.23612,-33.4671 -5.4271,-9.04516 0.90451,-9.04516 6.33161,0 11.75871,0.90452 5.4271,0.90451 54.27096,-8.14065 3.61807,-14.47225 5.4271,-23.51741 -9.04516,0.90451 -15.37677,0.90451 -6.33162,-0.90451 -14.47226,-3.61806 -8.14064,-3.61807 0.90452,-4.52258 9.04516,-0.90452 30.75354,-4.52258 6.33161,-30.75355 1.80903,-37.98968 -3.61806,-7.23612 3.61807,-5.42709 8.14064,1.80903 14.47225,6.33161 7.23613,3.61806 2.71355,9.04516 -4.52258,4.52258 -9.94967,25.32645 z m -40.70323,55.17548 q -1.80903,-8.14065 7.23613,-2.71355 9.94968,4.52258 9.94968,11.75871 0,6.33161 -3.61807,8.14064 -2.71354,1.80904 -7.23612,-3.61806 -3.61807,-6.33161 -6.33162,-13.56774 z" />
    </g>
  </g>
</svg>
