<?xml version="1.0"?>
<svg xmlns:rdf="http://www.w3.org/1999/02/22-rdf-syntax-ns#" xmlns="http://www.w3.org/2000/svg" xmlns:cc="http://creativecommons.org/ns#" xmlns:dc="http://purl.org/dc/elements/1.1/" xmlns:svg="http://www.w3.org/2000/svg" id="svg2" viewBox="0 0 185.1 377.14" version="1.0">
  <g id="layer2" transform="translate(-101.05 -8.6852)">
    <path id="path2403" stroke-width="1.2406px" stroke="#000" fill-rule="evenodd" d="m108.36 17.329c-9.793 5.107-8.404 17.976 1.36 20.961 0.4 4.426 13.75 10.065 1.93 10.902-9.82 4.489 8.66 3.105 10.78 2.155 8.23 9.359 25.42 9.808 30.99 24.218 14.75 8.795 28.72-4.398 40.2-12.518 8.11-10.27 24.7-11.381 34.71-3 9.31 4.605 15.3 25.253-0.19 23.746-6.51-3.694-8.35-18.908-18.76-8.264-4.46 10.626-3.48 23.251-5.94 34.711-1.05 13.64-4.45 27.86-0.98 41.29 3.84 7.27 5.34 8.6-2.22 11.36-1.58 5.36 21.12 2.88 9.11 8.14-13.75 3.45 0.9 6.88 7.27 6.17-3.36 3.17-9.32 13.22 1.68 9.98 19.26-9.34-11.08-28.17-8.99-42.48-1.17-15.77-1.07-32.34 5.39-47.099 14.37-4.405 17.85 14.499 12.25 24.349-2.21 11.6-4.44 25.3 5.23 34.3 7.4 9.46 22.75 18.94 16.38 32.86-9.3 9.8-23.33 11.34-35.6 15.19-11.41 5.86-13.48 23.84-6.66 33.92 9.87 7 10.37 19.78-3.87 16.73-12.19 14.43 15.9 10.96 11.97 29.83 2.82 15.85 9.71 34.31-0.22 48.96-10.46 3.7-37.55 12.22-23.9 23.04 1.25-7.82 8.17-14.88 7.49-2.41 7.61 17.97 0.07-18.43 12.11-6.69 9.68 9.29 1-10.32 10.16-11.05 14.34-14.8 1.97-35.91 1.05-53.32-1.52-8.36-8.17-25.87 7.46-18.82 12.43 11.77 14.1 30.1 19.02 45.61 2.45 16.51-0.41 34.96-13.21 46.71-10.77 11.68-25.07 18.72-40.95 19.2-22.77 0.72-43.51-12.1-60.73-25.75-14.78-7.97-0.68-29.98 12.03-20.96 7.79 8.27-2.4 14.93-8.62 6.81-4.67 13.88 17.83 14.29 19.01 2.01 4.5 1.11 19.35 19.64 15.15 6.14-4.96-11.81-17.17-13.24-25.38-21.56-14.42-8.53-25.55 7.9-25.5 19.96-12.85 1.05-20.998 16.22-13.24 27.08 4.68 6.4 13.29 4.43 18.11 10.5 4.76 1.97 26.19 9.97 14.61 0.26-5.68-6.39-21.77-4.34-12.77-15.42-4.04-11.82-8.94 12.34-14.95-0.93-5.09-18.31 19.73-13.27 26.41-3.3 10.96 10.12 25.53 14.71 39.4 19.32 12 2.11 24.75 1.45 36.48-1.2 11.27-3.94 22.12-9.31 29.41-19.13 8.43-10.84 16.26-22.56 16.98-36.67 3.88-16.23-1.06-32.37-6.8-47.44-7.6-8.66-1.18-36.89 11.15-21.25 4.05 18.91 0.88 38.71 7.27 57.24 4.63 13.24-11.93 32.4 5.44 40.29 9.85 2.36 8.79-8.4-0.08-7.95-10.26-9.08 14.87-0.09 4.45-9.86-9.15-2.48-4.77-9.97 3.2-7.05 5.29-6.14-10.62-7.26-7.02-16.4-4.46-17.14-5.89-34.98-4.24-52.61 9.97-12.69-9.06-31.75-21.63-25.6-5.81 10.37-20.66 15.21-22.38-0.69-4.73-17.88 16.99-17.48 27.67-22.38 11.45-5.52 16.13-17.43 16.11-29.5 1.8-13.04-10.19-21.82-18.68-29.69-9.43-6.27-18.15-32.78-0.34-28 0.68 13.94 19.87 15.36 21.81 0.85 1.21-16.04 8.23-31.704-2.11-46.995-4.07-7.314-1.21-11.257 6.44-9.237 5.89-8.997-21.02-6.388-7.68-13.895 12.63 1.879 4.63-9.398-3.85-7.085 1.36-3.342 17.1-5.928 5.18-9.46-18.47 0.113-13.16 24.024-7.09 34.545 1.77 12.406 8.86 29.917-0.82 39.557-13.47-5.16-12.26-20.132-12.86-32.489 0.26-15.446-11.04-29.738-25.4-34.569-14.98-0.289-31.11 3.453-41.76 14.639-6.61 8.807-26.76 17.623-29 1.103-4.93-19.203 21.33-13.942 28.94-24.487 8.27-21.194 30.8-10.83 47.44-14.613 7.86-5.973 22.48-2.941 27.5-7.284-12.91-10.243-25.44 5.24-39.27 1.982-13.58-5.1709-28.12-6.5003-38.21 6.296-11.95 13.547-24.93-2.432-36.42-3.668-8.25-0.887-23.6-2.875-25.9 12.369-6.95 2.642-15.75-5.379-12.51-12.51zm22.94 23.456c2.91 14.531 26.86 7.104 22.61-6.321-4.2-13.362-25.13-7.666-22.61 6.321z"/>
  </g>
  <metadata>
    <rdf:RDF>
      <cc:Work>
        <dc:format>image/svg+xml</dc:format>
        <dc:type rdf:resource="http://purl.org/dc/dcmitype/StillImage"/>
        <cc:license rdf:resource="http://creativecommons.org/licenses/publicdomain/"/>
        <dc:publisher>
          <cc:Agent rdf:about="http://openclipart.org/">
            <dc:title>Openclipart</dc:title>
          </cc:Agent>
        </dc:publisher>
        <dc:title>Chinese dragon</dc:title>
        <dc:date>2008-08-08T11:43:44</dc:date>
        <dc:description>The contour of a chinese dragon on the seal of Emperor Qianlong</dc:description>
        <dc:source>http://openclipart.org/detail/18339/chinese-dragon-by-motudo</dc:source>
        <dc:creator>
          <cc:Agent>
            <dc:title>motudo</dc:title>
          </cc:Agent>
        </dc:creator>
        <dc:subject>
          <rdf:Bag>
            <rdf:li>chinese</rdf:li>
            <rdf:li>clip art</rdf:li>
            <rdf:li>clipart</rdf:li>
            <rdf:li>contour</rdf:li>
            <rdf:li>dragon</rdf:li>
            <rdf:li>image</rdf:li>
            <rdf:li>media</rdf:li>
            <rdf:li>png</rdf:li>
            <rdf:li>public domain</rdf:li>
            <rdf:li>qianlong</rdf:li>
            <rdf:li>seal</rdf:li>
            <rdf:li>svg</rdf:li>
          </rdf:Bag>
        </dc:subject>
      </cc:Work>
      <cc:License rdf:about="http://creativecommons.org/licenses/publicdomain/">
        <cc:permits rdf:resource="http://creativecommons.org/ns#Reproduction"/>
        <cc:permits rdf:resource="http://creativecommons.org/ns#Distribution"/>
        <cc:permits rdf:resource="http://creativecommons.org/ns#DerivativeWorks"/>
      </cc:License>
    </rdf:RDF>
  </metadata>
</svg>
