<?xml version="1.0" encoding="UTF-8" standalone="no"?>
<!-- Created with Inkscape (http://www.inkscape.org/) -->

<svg
   xmlns:dc="http://purl.org/dc/elements/1.1/"
   xmlns:cc="http://creativecommons.org/ns#"
   xmlns:rdf="http://www.w3.org/1999/02/22-rdf-syntax-ns#"
   xmlns:svg="http://www.w3.org/2000/svg"
   xmlns="http://www.w3.org/2000/svg"
   version="1.1"
   width="450"
   height="300"
   id="svg4158">
  <defs
     id="defs4160" />
  <metadata
     id="metadata4163">
    <rdf:RDF>
      <cc:Work
         rdf:about="">
        <dc:format>image/svg+xml</dc:format>
        <dc:type
           rdf:resource="http://purl.org/dc/dcmitype/StillImage" />
        <dc:title></dc:title>
      </cc:Work>
    </rdf:RDF>
  </metadata>
  <g
     transform="translate(-125,-382.36218)"
     id="layer1">
    <path
       d="m 125,382.36218 450,0 0,300 -450,0 z"
       id="rect4634"
       style="fill:#ed020f;fill-opacity:1;stroke:none" />
    <g
       transform="translate(153.22513,-119.64496)"
       id="g4096"
       style="fill:#ffffff">
      <g
         id="g4092"
         style="fill:#ffffff">
        <path
           d="m 110.96491,742.27446 c 1.79287,5.07478 5.16969,9.57721 9.53948,12.7193 5.30151,3.81204 12.04333,5.56731 18.5307,4.82456 l 22.14912,-40.46052 -2.74123,-11.62281 5.59211,-8.00439 -11.73246,-7.56578 -7.67544,10.74561 -9.75877,1.31579 -23.90351,38.04824"
           id="path4074"
           style="fill:#ffffff;fill-opacity:1;stroke:none" />
        <path
           d="m 218.85965,711.13412 c 13.25267,-2.37806 26.34199,-7.73409 35.75141,-17.36483 9.67691,-9.90451 14.75054,-23.66941 16.00298,-37.45974 1.36246,-15.00177 -1.53038,-30.23531 -7.28999,-44.15423 -5.75961,-13.91891 -14.32275,-26.568 -24.28896,-37.86331 -10.17433,-11.53118 -21.8541,-21.7325 -34.64913,-30.26316 13.21381,11.77909 24.26925,25.97188 32.45615,41.66667 10.23061,19.61271 15.97369,42.15548 12.62706,64.02152 -1.07363,7.01484 -3.1434,14.04532 -7.36391,19.7504 -3.00133,4.05706 -7.00405,7.31237 -11.39626,9.79756 -4.39221,2.48518 -9.17431,4.22287 -14.04233,5.55332 -22.2005,6.06747 -46.64037,3.51167 -67.10527,-7.01754 l -8.33333,13.15789 c 10.12295,8.40757 22.03219,14.65381 34.70395,18.20175 13.91122,3.89498 28.70853,4.52518 42.92763,1.9737"
           id="path4068"
           style="fill:#ffffff;fill-opacity:1;stroke:none" />
      </g>
      <g
         id="g4088"
         style="fill:#ffffff">
        <path
           d="m 165.03035,599.56573 5.93133,-4.94277 4.41941,0 106.84135,126.20539 c 0.55227,2.39184 0.47178,4.92681 -0.23111,7.2788 -0.70289,2.35199 -2.02653,4.51545 -3.80063,6.21205 -1.98019,1.89369 -4.51819,3.19687 -7.21105,3.70264 -2.69285,0.50576 -5.53073,0.21226 -8.06308,-0.8339 l -97.88622,-133.78429 0,-3.83792"
           id="path4076"
           style="fill:#ffffff;fill-opacity:1;stroke:none" />
        <path
           d="m 227.01849,610.57551 -57.84009,42.02323 -7.90843,0 -15.6618,-19.84861 2.17094,-9.9243 44.65938,-33.6496 19.53848,1.3956 15.04152,20.00368"
           id="path4080"
           style="fill:#ffffff;fill-opacity:1;stroke:none" />
      </g>
    </g>
  </g>
</svg>
