<?xml version="1.0" encoding="UTF-8" standalone="no"?>
<svg xmlns:svg="http://www.w3.org/2000/svg" xmlns="http://www.w3.org/2000/svg" version="1.0" width="271.70837" height="259.70862">
  <defs/>
  <g transform="matrix(.80902 .58772 .58779 -.80892 -314.1675 53.894036)">
    <path d="M416.11264 48.028131c-14.78982 17.79993-24.12293 43.410292-24.12293 71.923589 0 28.5133 9.33311 54.08318 24.12293 71.88311 14.79462-17.80032 24.16342-43.36451 24.16342-71.88311 0-28.518594-9.3688-54.123273-24.16342-71.923589z" style="fill:#3b8536;fill-opacity:1;fill-rule:evenodd;stroke:none;stroke-width:1.29519119pt;stroke-opacity:1"/>
    <path d="M551.76518 147.38427c-21.49905-8.56549-48.74004-9.52775-75.85779-.71667-27.11777 8.8111-48.55208 25.58894-60.91053 45.15538 21.50092 8.56992 48.70903 9.5804 75.83182.76767 27.1228-8.81273 48.57918-25.63527 60.9365-45.20638z" style="fill:#3b8536;fill-opacity:1;fill-rule:evenodd;stroke:none;stroke-width:1.29519119pt;stroke-opacity:1"/>
    <path d="M500.81551 307.43828c1.50269-23.09369-6.00007-49.29877-22.75976-72.36651-16.7597-23.06775-39.33994-38.26835-61.7677-43.97557-1.50633 23.09684 5.94041 49.28554 22.70322 72.35757 16.76281 23.07203 39.39238 38.27981 61.82424 43.98451z" style="fill:#3b8536;fill-opacity:1;fill-rule:evenodd;stroke:none;stroke-width:1.29519119pt;stroke-opacity:1"/>
    <path d="M331.4528 307.43873c22.42776-5.7072 45.03179-20.94056 61.79149-44.0083 16.7597-23.06775 24.23865-49.24008 22.73598-72.33377-22.43188 5.70471-45.03765 20.87973-61.80046 43.95177-16.76281 23.07202-24.23334 49.29349-22.72701 72.3903z" style="fill:#3b8536;fill-opacity:1;fill-rule:evenodd;stroke:none;stroke-width:1.29519119pt;stroke-opacity:1"/>
    <path d="M280.49474 148.42584c12.35843 19.56643 33.83124 36.35678 60.949 45.16787 27.11776 8.8111 54.32025 7.83631 75.8193-.72916-12.35733-19.57113-33.7752-36.38115-60.898-45.19388-27.12279-8.81273-54.36941-7.81475-75.8703.75517z" style="fill:#3b8536;fill-opacity:1;fill-rule:evenodd;stroke:none;stroke-width:1.29519119pt;stroke-opacity:1"/>
  </g>
  <g transform="matrix(1 0 0 -.99989 -48.099295 955.07769)">
    <g transform="rotate(-36 1253.90344707 860.0805431)">
      <path d="M418.92891 303.53125c55.12795 0 57.16232-28.06077 50.53984-39.53125-6.66272-11.54017-14.9122-22.39953-22.375-33.59375-25.53331-40.65634-35.19091-38.29853-57.1875 0C382.44343 241.60047 374.16272 252.45983 367.5 264c-6.62249 11.47048-2.23029 39.53125 51.42891 39.53125z" style="fill:#d60000;fill-opacity:1;fill-rule:evenodd;stroke:#000000;stroke-width:0.12500708;stroke-dasharray:none;stroke-opacity:1"/>
      <g>
        <g>
          <path d="M406.04416 260.98771c7.2058 3.07746 6.58139 3.19144 12.80841 0-2.13474 3.69747-4.26947 7.39493-6.40421 11.0924-2.13473-3.69747-4.26947-7.39493-6.4042-11.0924z" transform="matrix(.86033 0 0 1.47758 63.78796 -129.2292)" style="fill:#000000;fill-opacity:1;fill-rule:evenodd;stroke:none;stroke-width:0.375"/>
          <path d="M420.95335 251.54879c0 2.51006-2.03715 4.54721-4.5472 4.54721-2.51006 0-4.54721-2.03715-4.54721-4.54721 0-2.51006 2.87923-6.90502 4.54721-9.76808 1.33114 2.69464 4.5472 7.25802 4.5472 9.76808z" transform="translate(2.225189)" style="fill:#3c4919;fill-opacity:1;fill-rule:evenodd;stroke:none;stroke-width:0.375"/>
        </g>
        <g>
          <path d="M468.0879 269.76388c.61752 8.16993-.7298 18.44325-17.34675 22.37293-8.06383 2.17421-18.38531-1.93677-32.10982-1.51573-13.72452-.42104-24.046 3.68994-32.10983 1.51573-16.61695-3.92968-17.96427-14.203-17.34675-21.7124-.61752 6.18834.7298 16.46166 17.34675 20.39134 8.06383 2.17421 18.38531-1.93677 32.10983-1.51573 13.72451-.42104 24.04599 3.68994 32.10982 1.51573 16.61695-3.92968 17.96427-14.203 17.34675-21.05187z" style="fill:#000000;fill-opacity:1;fill-rule:evenodd;stroke:none;stroke-width:0.375;stroke-opacity:1"/>
          <path d="M468.0879 267.26388c.61752 8.16993-.7298 18.44325-17.34675 22.37293-8.06383 2.17421-18.38531-1.93677-32.10982-1.51573-13.72452-.42104-24.046 3.68994-32.10983 1.51573-16.61695-3.92968-17.96427-14.203-17.34675-21.7124-.61752 6.18834 1.23505 14.94592 17.852 18.8756 8.06383 2.17421 17.71164-5.97873 31.43616-5.55769 13.72451-.42104 23.87758 7.7319 31.94141 5.55769 16.61695-3.92968 18.3011-12.68726 17.68358-19.53613z" style="fill:#630000;fill-opacity:1;fill-rule:evenodd;stroke:none;stroke-width:0.375;stroke-opacity:1"/>
        </g>
      </g>
    </g>
    <g transform="rotate(36 -650.87183956 138.77233581)">
      <path d="M418.92891 303.53125c55.12795 0 57.16232-28.06077 50.53984-39.53125-6.66272-11.54017-14.9122-22.39953-22.375-33.59375-25.53331-40.65634-35.19091-38.29853-57.1875 0C382.44343 241.60047 374.16272 252.45983 367.5 264c-6.62249 11.47048-2.23029 39.53125 51.42891 39.53125z" style="fill:#d60000;fill-opacity:1;fill-rule:evenodd;stroke:#000000;stroke-width:0.12500708;stroke-dasharray:none;stroke-opacity:1"/>
      <g>
        <g>
          <path d="M406.04416 260.98771c7.2058 3.07746 6.58139 3.19144 12.80841 0-2.13474 3.69747-4.26947 7.39493-6.40421 11.0924-2.13473-3.69747-4.26947-7.39493-6.4042-11.0924z" transform="matrix(.86033 0 0 1.47758 63.78796 -129.2292)" style="fill:#000000;fill-opacity:1;fill-rule:evenodd;stroke:none;stroke-width:0.375"/>
          <path d="M420.95335 251.54879c0 2.51006-2.03715 4.54721-4.5472 4.54721-2.51006 0-4.54721-2.03715-4.54721-4.54721 0-2.51006 2.87923-6.90502 4.54721-9.76808 1.33114 2.69464 4.5472 7.25802 4.5472 9.76808z" transform="translate(2.225189)" style="fill:#3c4919;fill-opacity:1;fill-rule:evenodd;stroke:none;stroke-width:0.375"/>
        </g>
        <g>
          <path d="M468.0879 269.76388c.61752 8.16993-.7298 18.44325-17.34675 22.37293-8.06383 2.17421-18.38531-1.93677-32.10982-1.51573-13.72452-.42104-24.046 3.68994-32.10983 1.51573-16.61695-3.92968-17.96427-14.203-17.34675-21.7124-.61752 6.18834.7298 16.46166 17.34675 20.39134 8.06383 2.17421 18.38531-1.93677 32.10983-1.51573 13.72451-.42104 24.04599 3.68994 32.10982 1.51573 16.61695-3.92968 17.96427-14.203 17.34675-21.05187z" style="fill:#000000;fill-opacity:1;fill-rule:evenodd;stroke:none;stroke-width:0.375;stroke-opacity:1"/>
          <path d="M468.0879 267.26388c.61752 8.16993-.7298 18.44325-17.34675 22.37293-8.06383 2.17421-18.38531-1.93677-32.10982-1.51573-13.72452-.42104-24.046 3.68994-32.10983 1.51573-16.61695-3.92968-17.96427-14.203-17.34675-21.7124-.61752 6.18834 1.23505 14.94592 17.852 18.8756 8.06383 2.17421 17.71164-5.97873 31.43616-5.55769 13.72451-.42104 23.87758 7.7319 31.94141 5.55769 16.61695-3.92968 18.3011-12.68726 17.68358-19.53613z" style="fill:#630000;fill-opacity:1;fill-rule:evenodd;stroke:none;stroke-width:0.375;stroke-opacity:1"/>
        </g>
      </g>
    </g>
    <g transform="rotate(108 74.71365178 413.73363891)">
      <path d="M418.92891 303.53125c55.12795 0 57.16232-28.06077 50.53984-39.53125-6.66272-11.54017-14.9122-22.39953-22.375-33.59375-25.53331-40.65634-35.19091-38.29853-57.1875 0C382.44343 241.60047 374.16272 252.45983 367.5 264c-6.62249 11.47048-2.23029 39.53125 51.42891 39.53125z" style="fill:#d60000;fill-opacity:1;fill-rule:evenodd;stroke:#000000;stroke-width:0.12500708"/>
      <g>
        <g>
          <path d="M406.04416 260.98771c7.2058 3.07746 6.58139 3.19144 12.80841 0-2.13474 3.69747-4.26947 7.39493-6.40421 11.0924-2.13473-3.69747-4.26947-7.39493-6.4042-11.0924z" transform="matrix(.86033 0 0 1.47758 63.78796 -129.2292)" style="fill:#000000;fill-opacity:1;fill-rule:evenodd;stroke:none;stroke-width:0.375"/>
          <path d="M420.95335 251.54879c0 2.51006-2.03715 4.54721-4.5472 4.54721-2.51006 0-4.54721-2.03715-4.54721-4.54721 0-2.51006 2.87923-6.90502 4.54721-9.76808 1.33114 2.69464 4.5472 7.25802 4.5472 9.76808z" transform="translate(2.225189)" style="fill:#3c4919;fill-opacity:1;fill-rule:evenodd;stroke:none;stroke-width:0.375"/>
        </g>
        <g>
          <path d="M468.0879 269.76388c.61752 8.16993-.7298 18.44325-17.34675 22.37293-8.06383 2.17421-18.38531-1.93677-32.10982-1.51573-13.72452-.42104-24.046 3.68994-32.10983 1.51573-16.61695-3.92968-17.96427-14.203-17.34675-21.7124-.61752 6.18834.7298 16.46166 17.34675 20.39134 8.06383 2.17421 18.38531-1.93677 32.10983-1.51573 13.72451-.42104 24.04599 3.68994 32.10982 1.51573 16.61695-3.92968 17.96427-14.203 17.34675-21.05187z" style="fill:#000000;fill-opacity:1;fill-rule:evenodd;stroke:none;stroke-width:0.375;stroke-opacity:1"/>
          <path d="M468.0879 267.26388c.61752 8.16993-.7298 18.44325-17.34675 22.37293-8.06383 2.17421-18.38531-1.93677-32.10982-1.51573-13.72452-.42104-24.046 3.68994-32.10983 1.51573-16.61695-3.92968-17.96427-14.203-17.34675-21.7124-.61752 6.18834 1.23505 14.94592 17.852 18.8756 8.06383 2.17421 17.71164-5.97873 31.43616-5.55769 13.72451-.42104 23.87758 7.7319 31.94141 5.55769 16.61695-3.92968 18.3011-12.68726 17.68358-19.53613z" style="fill:#630000;fill-opacity:1;fill-rule:evenodd;stroke:none;stroke-width:0.375;stroke-opacity:1"/>
        </g>
      </g>
    </g>
    <g transform="rotate(180 300.363 499.52105)">
      <path d="M418.92891 303.53125c55.12795 0 57.16232-28.06077 50.53984-39.53125-6.66272-11.54017-14.9122-22.39953-22.375-33.59375-25.53331-40.65634-35.19091-38.29853-57.1875 0C382.44343 241.60047 374.16272 252.45983 367.5 264c-6.62249 11.47048-2.23029 39.53125 51.42891 39.53125z" style="fill:#d60000;fill-opacity:1;fill-rule:evenodd;stroke:#000000;stroke-width:0.12500708;stroke-dasharray:none;stroke-opacity:1"/>
      <g>
        <g>
          <path d="M406.04416 260.98771c7.2058 3.07746 6.58139 3.19144 12.80841 0-2.13474 3.69747-4.26947 7.39493-6.40421 11.0924-2.13473-3.69747-4.26947-7.39493-6.4042-11.0924z" transform="matrix(.86033 0 0 1.47758 63.78796 -129.2292)" style="fill:#000000;fill-opacity:1;fill-rule:evenodd;stroke:none;stroke-width:0.375"/>
          <path d="M420.95335 251.54879c0 2.51006-2.03715 4.54721-4.5472 4.54721-2.51006 0-4.54721-2.03715-4.54721-4.54721 0-2.51006 2.87923-6.90502 4.54721-9.76808 1.33114 2.69464 4.5472 7.25802 4.5472 9.76808z" transform="translate(2.225189)" style="fill:#3c4919;fill-opacity:1;fill-rule:evenodd;stroke:none;stroke-width:0.375"/>
        </g>
        <g>
          <path d="M468.0879 269.76388c.61752 8.16993-.7298 18.44325-17.34675 22.37293-8.06383 2.17421-18.38531-1.93677-32.10982-1.51573-13.72452-.42104-24.046 3.68994-32.10983 1.51573-16.61695-3.92968-17.96427-14.203-17.34675-21.7124-.61752 6.18834.7298 16.46166 17.34675 20.39134 8.06383 2.17421 18.38531-1.93677 32.10983-1.51573 13.72451-.42104 24.04599 3.68994 32.10982 1.51573 16.61695-3.92968 17.96427-14.203 17.34675-21.05187z" style="fill:#000000;fill-opacity:1;fill-rule:evenodd;stroke:none;stroke-width:0.375;stroke-opacity:1"/>
          <path d="M468.0879 267.26388c.61752 8.16993-.7298 18.44325-17.34675 22.37293-8.06383 2.17421-18.38531-1.93677-32.10982-1.51573-13.72452-.42104-24.046 3.68994-32.10983 1.51573-16.61695-3.92968-17.96427-14.203-17.34675-21.7124-.61752 6.18834 1.23505 14.94592 17.852 18.8756 8.06383 2.17421 17.71164-5.97873 31.43616-5.55769 13.72451-.42104 23.87758 7.7319 31.94141 5.55769 16.61695-3.92968 18.3011-12.68726 17.68358-19.53613z" style="fill:#630000;fill-opacity:1;fill-rule:evenodd;stroke:none;stroke-width:0.375;stroke-opacity:1"/>
        </g>
      </g>
    </g>
    <g transform="rotate(-108 525.64411106 584.27620777)">
      <path d="M418.92891 303.53125c55.12795 0 57.16232-28.06077 50.53984-39.53125-6.66272-11.54017-14.9122-22.39953-22.375-33.59375-25.53331-40.65634-35.19091-38.29853-57.1875 0C382.44343 241.60047 374.16272 252.45983 367.5 264c-6.62249 11.47048-2.23029 39.53125 51.42891 39.53125z" style="fill:#d60000;fill-opacity:1;fill-rule:evenodd;stroke:#000000;stroke-width:0.12500708"/>
      <g>
        <g>
          <path d="M406.04416 260.98771c7.2058 3.07746 6.58139 3.19144 12.80841 0-2.13474 3.69747-4.26947 7.39493-6.40421 11.0924-2.13473-3.69747-4.26947-7.39493-6.4042-11.0924z" transform="matrix(.86033 0 0 1.47758 63.78796 -129.2292)" style="fill:#000000;fill-opacity:1;fill-rule:evenodd;stroke:none;stroke-width:0.375"/>
          <path d="M420.95335 251.54879c0 2.51006-2.03715 4.54721-4.5472 4.54721-2.51006 0-4.54721-2.03715-4.54721-4.54721 0-2.51006 2.87923-6.90502 4.54721-9.76808 1.33114 2.69464 4.5472 7.25802 4.5472 9.76808z" transform="translate(2.225189)" style="fill:#3c4919;fill-opacity:1;fill-rule:evenodd;stroke:none;stroke-width:0.375"/>
        </g>
        <g>
          <path d="M468.0879 269.76388c.61752 8.16993-.7298 18.44325-17.34675 22.37293-8.06383 2.17421-18.38531-1.93677-32.10982-1.51573-13.72452-.42104-24.046 3.68994-32.10983 1.51573-16.61695-3.92968-17.96427-14.203-17.34675-21.7124-.61752 6.18834.7298 16.46166 17.34675 20.39134 8.06383 2.17421 18.38531-1.93677 32.10983-1.51573 13.72451-.42104 24.04599 3.68994 32.10982 1.51573 16.61695-3.92968 17.96427-14.203 17.34675-21.05187z" style="fill:#000000;fill-opacity:1;fill-rule:evenodd;stroke:none;stroke-width:0.375;stroke-opacity:1"/>
          <path d="M468.0879 267.26388c.61752 8.16993-.7298 18.44325-17.34675 22.37293-8.06383 2.17421-18.38531-1.93677-32.10982-1.51573-13.72452-.42104-24.046 3.68994-32.10983 1.51573-16.61695-3.92968-17.96427-14.203-17.34675-21.7124-.61752 6.18834 1.23505 14.94592 17.852 18.8756 8.06383 2.17421 17.71164-5.97873 31.43616-5.55769 13.72451-.42104 23.87758 7.7319 31.94141 5.55769 16.61695-3.92968 18.3011-12.68726 17.68358-19.53613z" style="fill:#630000;fill-opacity:1;fill-rule:evenodd;stroke:none;stroke-width:0.375;stroke-opacity:1"/>
        </g>
      </g>
    </g>
  </g>
  <g transform="matrix(.17055 .52485 .5249 -.17053 -32.149375 -42.617161)">
    <g>
      <path d="M418.92891 303.53125c55.12795 0 57.16232-28.06077 50.53984-39.53125-6.66272-11.54017-14.9122-22.39953-22.375-33.59375-25.53331-40.65634-35.19091-38.29853-57.1875 0C382.44343 241.60047 374.16272 252.45983 367.5 264c-6.62249 11.47048-2.23029 39.53125 51.42891 39.53125z" style="fill:#d60000;fill-opacity:1;fill-rule:evenodd;stroke:#000000;stroke-width:0.12500708;stroke-dasharray:none;stroke-opacity:1"/>
      <g>
        <g>
          <path d="M406.04416 260.98771c7.2058 3.07746 6.58139 3.19144 12.80841 0-2.13474 3.69747-4.26947 7.39493-6.40421 11.0924-2.13473-3.69747-4.26947-7.39493-6.4042-11.0924z" transform="matrix(.86033 0 0 1.47758 63.78796 -129.2292)" style="fill:#000000;fill-opacity:1;fill-rule:evenodd;stroke:none;stroke-width:0.375"/>
          <path d="M420.95335 251.54879c0 2.51006-2.03715 4.54721-4.5472 4.54721-2.51006 0-4.54721-2.03715-4.54721-4.54721 0-2.51006 2.87923-6.90502 4.54721-9.76808 1.33114 2.69464 4.5472 7.25802 4.5472 9.76808z" transform="translate(2.225189)" style="fill:#3c4919;fill-opacity:1;fill-rule:evenodd;stroke:none;stroke-width:0.375"/>
        </g>
        <g>
          <path d="M468.0879 269.76388c.61752 8.16993-.7298 18.44325-17.34675 22.37293-8.06383 2.17421-18.38531-1.93677-32.10982-1.51573-13.72452-.42104-24.046 3.68994-32.10983 1.51573-16.61695-3.92968-17.96427-14.203-17.34675-21.7124-.61752 6.18834.7298 16.46166 17.34675 20.39134 8.06383 2.17421 18.38531-1.93677 32.10983-1.51573 13.72451-.42104 24.04599 3.68994 32.10982 1.51573 16.61695-3.92968 17.96427-14.203 17.34675-21.05187z" style="fill:#000000;fill-opacity:1;fill-rule:evenodd;stroke:none;stroke-width:0.375;stroke-opacity:1"/>
          <path d="M468.0879 267.26388c.61752 8.16993-.7298 18.44325-17.34675 22.37293-8.06383 2.17421-18.38531-1.93677-32.10982-1.51573-13.72452-.42104-24.046 3.68994-32.10983 1.51573-16.61695-3.92968-17.96427-14.203-17.34675-21.7124-.61752 6.18834 1.23505 14.94592 17.852 18.8756 8.06383 2.17421 17.71164-5.97873 31.43616-5.55769 13.72451-.42104 23.87758 7.7319 31.94141 5.55769 16.61695-3.92968 18.3011-12.68726 17.68358-19.53613z" style="fill:#630000;fill-opacity:1;fill-rule:evenodd;stroke:none;stroke-width:0.375;stroke-opacity:1"/>
        </g>
      </g>
    </g>
    <g transform="rotate(72 418.69946569 189.97607617)">
      <path d="M418.92891 303.53125c55.12795 0 57.16232-28.06077 50.53984-39.53125-6.66272-11.54017-14.9122-22.39953-22.375-33.59375-25.53331-40.65634-35.19091-38.29853-57.1875 0C382.44343 241.60047 374.16272 252.45983 367.5 264c-6.62249 11.47048-2.23029 39.53125 51.42891 39.53125z" style="fill:#d60000;fill-opacity:1;fill-rule:evenodd;stroke:#000000;stroke-width:0.12500708;stroke-dasharray:none;stroke-opacity:1"/>
      <g>
        <g>
          <path d="M406.04416 260.98771c7.2058 3.07746 6.58139 3.19144 12.80841 0-2.13474 3.69747-4.26947 7.39493-6.40421 11.0924-2.13473-3.69747-4.26947-7.39493-6.4042-11.0924z" transform="matrix(.86033 0 0 1.47758 63.78796 -129.2292)" style="fill:#000000;fill-opacity:1;fill-rule:evenodd;stroke:none;stroke-width:0.375"/>
          <path d="M420.95335 251.54879c0 2.51006-2.03715 4.54721-4.5472 4.54721-2.51006 0-4.54721-2.03715-4.54721-4.54721 0-2.51006 2.87923-6.90502 4.54721-9.76808 1.33114 2.69464 4.5472 7.25802 4.5472 9.76808z" transform="translate(2.225189)" style="fill:#3c4919;fill-opacity:1;fill-rule:evenodd;stroke:none;stroke-width:0.375"/>
        </g>
        <g>
          <path d="M468.0879 269.76388c.61752 8.16993-.7298 18.44325-17.34675 22.37293-8.06383 2.17421-18.38531-1.93677-32.10982-1.51573-13.72452-.42104-24.046 3.68994-32.10983 1.51573-16.61695-3.92968-17.96427-14.203-17.34675-21.7124-.61752 6.18834.7298 16.46166 17.34675 20.39134 8.06383 2.17421 18.38531-1.93677 32.10983-1.51573 13.72451-.42104 24.04599 3.68994 32.10982 1.51573 16.61695-3.92968 17.96427-14.203 17.34675-21.05187z" style="fill:#000000;fill-opacity:1;fill-rule:evenodd;stroke:none;stroke-width:0.375;stroke-opacity:1"/>
          <path d="M468.0879 267.26388c.61752 8.16993-.7298 18.44325-17.34675 22.37293-8.06383 2.17421-18.38531-1.93677-32.10982-1.51573-13.72452-.42104-24.046 3.68994-32.10983 1.51573-16.61695-3.92968-17.96427-14.203-17.34675-21.7124-.61752 6.18834 1.23505 14.94592 17.852 18.8756 8.06383 2.17421 17.71164-5.97873 31.43616-5.55769 13.72451-.42104 23.87758 7.7319 31.94141 5.55769 16.61695-3.92968 18.3011-12.68726 17.68358-19.53613z" style="fill:#630000;fill-opacity:1;fill-rule:evenodd;stroke:none;stroke-width:0.375;stroke-opacity:1"/>
        </g>
      </g>
    </g>
    <g transform="rotate(144 417.2479273 189.0097677)">
      <path d="M418.92891 303.53125c55.12795 0 57.16232-28.06077 50.53984-39.53125-6.66272-11.54017-14.9122-22.39953-22.375-33.59375-25.53331-40.65634-35.19091-38.29853-57.1875 0C382.44343 241.60047 374.16272 252.45983 367.5 264c-6.62249 11.47048-2.23029 39.53125 51.42891 39.53125z" style="fill:#d60000;fill-opacity:1;fill-rule:evenodd;stroke:#000000;stroke-width:0.12500708"/>
      <g>
        <g>
          <path d="M406.04416 260.98771c7.2058 3.07746 6.58139 3.19144 12.80841 0-2.13474 3.69747-4.26947 7.39493-6.40421 11.0924-2.13473-3.69747-4.26947-7.39493-6.4042-11.0924z" transform="matrix(.86033 0 0 1.47758 63.78796 -129.2292)" style="fill:#000000;fill-opacity:1;fill-rule:evenodd;stroke:none;stroke-width:0.375"/>
          <path d="M420.95335 251.54879c0 2.51006-2.03715 4.54721-4.5472 4.54721-2.51006 0-4.54721-2.03715-4.54721-4.54721 0-2.51006 2.87923-6.90502 4.54721-9.76808 1.33114 2.69464 4.5472 7.25802 4.5472 9.76808z" transform="translate(2.225189)" style="fill:#3c4919;fill-opacity:1;fill-rule:evenodd;stroke:none;stroke-width:0.375"/>
        </g>
        <g>
          <path d="M468.0879 269.76388c.61752 8.16993-.7298 18.44325-17.34675 22.37293-8.06383 2.17421-18.38531-1.93677-32.10982-1.51573-13.72452-.42104-24.046 3.68994-32.10983 1.51573-16.61695-3.92968-17.96427-14.203-17.34675-21.7124-.61752 6.18834.7298 16.46166 17.34675 20.39134 8.06383 2.17421 18.38531-1.93677 32.10983-1.51573 13.72451-.42104 24.04599 3.68994 32.10982 1.51573 16.61695-3.92968 17.96427-14.203 17.34675-21.05187z" style="fill:#000000;fill-opacity:1;fill-rule:evenodd;stroke:none;stroke-width:0.375;stroke-opacity:1"/>
          <path d="M468.0879 267.26388c.61752 8.16993-.7298 18.44325-17.34675 22.37293-8.06383 2.17421-18.38531-1.93677-32.10982-1.51573-13.72452-.42104-24.046 3.68994-32.10983 1.51573-16.61695-3.92968-17.96427-14.203-17.34675-21.7124-.61752 6.18834 1.23505 14.94592 17.852 18.8756 8.06383 2.17421 17.71164-5.97873 31.43616-5.55769 13.72451-.42104 23.87758 7.7319 31.94141 5.55769 16.61695-3.92968 18.3011-12.68726 17.68358-19.53613z" style="fill:#630000;fill-opacity:1;fill-rule:evenodd;stroke:none;stroke-width:0.375;stroke-opacity:1"/>
        </g>
      </g>
    </g>
    <g transform="rotate(-144 417.51581445 189.6970935)">
      <path d="M418.92891 303.53125c55.12795 0 57.16232-28.06077 50.53984-39.53125-6.66272-11.54017-14.9122-22.39953-22.375-33.59375-25.53331-40.65634-35.19091-38.29853-57.1875 0C382.44343 241.60047 374.16272 252.45983 367.5 264c-6.62249 11.47048-2.23029 39.53125 51.42891 39.53125z" style="fill:#d60000;fill-opacity:1;fill-rule:evenodd;stroke:#000000;stroke-width:0.12500708;stroke-dasharray:none;stroke-opacity:1"/>
      <g>
        <g>
          <path d="M406.04416 260.98771c7.2058 3.07746 6.58139 3.19144 12.80841 0-2.13474 3.69747-4.26947 7.39493-6.40421 11.0924-2.13473-3.69747-4.26947-7.39493-6.4042-11.0924z" transform="matrix(.86033 0 0 1.47758 63.78796 -129.2292)" style="fill:#000000;fill-opacity:1;fill-rule:evenodd;stroke:none;stroke-width:0.375"/>
          <path d="M420.95335 251.54879c0 2.51006-2.03715 4.54721-4.5472 4.54721-2.51006 0-4.54721-2.03715-4.54721-4.54721 0-2.51006 2.87923-6.90502 4.54721-9.76808 1.33114 2.69464 4.5472 7.25802 4.5472 9.76808z" transform="translate(2.225189)" style="fill:#3c4919;fill-opacity:1;fill-rule:evenodd;stroke:none;stroke-width:0.375"/>
        </g>
        <g>
          <path d="M468.0879 269.76388c.61752 8.16993-.7298 18.44325-17.34675 22.37293-8.06383 2.17421-18.38531-1.93677-32.10982-1.51573-13.72452-.42104-24.046 3.68994-32.10983 1.51573-16.61695-3.92968-17.96427-14.203-17.34675-21.7124-.61752 6.18834.7298 16.46166 17.34675 20.39134 8.06383 2.17421 18.38531-1.93677 32.10983-1.51573 13.72451-.42104 24.04599 3.68994 32.10982 1.51573 16.61695-3.92968 17.96427-14.203 17.34675-21.05187z" style="fill:#000000;fill-opacity:1;fill-rule:evenodd;stroke:none;stroke-width:0.375;stroke-opacity:1"/>
          <path d="M468.0879 267.26388c.61752 8.16993-.7298 18.44325-17.34675 22.37293-8.06383 2.17421-18.38531-1.93677-32.10982-1.51573-13.72452-.42104-24.046 3.68994-32.10983 1.51573-16.61695-3.92968-17.96427-14.203-17.34675-21.7124-.61752 6.18834 1.23505 14.94592 17.852 18.8756 8.06383 2.17421 17.71164-5.97873 31.43616-5.55769 13.72451-.42104 23.87758 7.7319 31.94141 5.55769 16.61695-3.92968 18.3011-12.68726 17.68358-19.53613z" style="fill:#630000;fill-opacity:1;fill-rule:evenodd;stroke:none;stroke-width:0.375;stroke-opacity:1"/>
        </g>
      </g>
    </g>
    <g transform="rotate(-72 417.90607538 189.30147582)">
      <path d="M418.92891 303.53125c55.12795 0 57.16232-28.06077 50.53984-39.53125-6.66272-11.54017-14.9122-22.39953-22.375-33.59375-25.53331-40.65634-35.19091-38.29853-57.1875 0C382.44343 241.60047 374.16272 252.45983 367.5 264c-6.62249 11.47048-2.23029 39.53125 51.42891 39.53125z" style="fill:#d60000;fill-opacity:1;fill-rule:evenodd;stroke:#000000;stroke-width:0.12500708;stroke-dasharray:none;stroke-opacity:1"/>
      <g>
        <g>
          <path d="M406.04416 260.98771c7.2058 3.07746 6.58139 3.19144 12.80841 0-2.13474 3.69747-4.26947 7.39493-6.40421 11.0924-2.13473-3.69747-4.26947-7.39493-6.4042-11.0924z" transform="matrix(.86033 0 0 1.47758 63.78796 -129.2292)" style="fill:#000000;fill-opacity:1;fill-rule:evenodd;stroke:none;stroke-width:0.375"/>
          <path d="M420.95335 251.54879c0 2.51006-2.03715 4.54721-4.5472 4.54721-2.51006 0-4.54721-2.03715-4.54721-4.54721 0-2.51006 2.87923-6.90502 4.54721-9.76808 1.33114 2.69464 4.5472 7.25802 4.5472 9.76808z" transform="translate(2.225189)" style="fill:#3c4919;fill-opacity:1;fill-rule:evenodd;stroke:none;stroke-width:0.375"/>
        </g>
        <g>
          <path d="M468.0879 269.76388c.61752 8.16993-.7298 18.44325-17.34675 22.37293-8.06383 2.17421-18.38531-1.93677-32.10982-1.51573-13.72452-.42104-24.046 3.68994-32.10983 1.51573-16.61695-3.92968-17.96427-14.203-17.34675-21.7124-.61752 6.18834.7298 16.46166 17.34675 20.39134 8.06383 2.17421 18.38531-1.93677 32.10983-1.51573 13.72451-.42104 24.04599 3.68994 32.10982 1.51573 16.61695-3.92968 17.96427-14.203 17.34675-21.05187z" style="fill:#000000;fill-opacity:1;fill-rule:evenodd;stroke:none;stroke-width:0.375;stroke-opacity:1"/>
          <path d="M468.0879 267.26388c.61752 8.16993-.7298 18.44325-17.34675 22.37293-8.06383 2.17421-18.38531-1.93677-32.10982-1.51573-13.72452-.42104-24.046 3.68994-32.10983 1.51573-16.61695-3.92968-17.96427-14.203-17.34675-21.7124-.61752 6.18834 1.23505 14.94592 17.852 18.8756 8.06383 2.17421 17.71164-5.97873 31.43616-5.55769 13.72451-.42104 23.87758 7.7319 31.94141 5.55769 16.61695-3.92968 18.3011-12.68726 17.68358-19.53613z" style="fill:#630000;fill-opacity:1;fill-rule:evenodd;stroke:none;stroke-width:0.375;stroke-opacity:1"/>
        </g>
      </g>
    </g>
  </g>
  <g transform="rotate(-36 236.67896754 335.8972255) scale(.63735)">
    <g>
      <path d="M416.11264 48.028131c-14.78982 17.79993-24.12293 43.410292-24.12293 71.923589 0 28.5133 9.33311 54.08318 24.12293 71.88311 14.79462-17.80032 24.16342-43.36451 24.16342-71.88311 0-28.518594-9.3688-54.123273-24.16342-71.923589z" style="fill:#3b8536;fill-rule:evenodd"/>
      <path d="M551.76518 147.38427c-21.49905-8.56549-48.74004-9.52775-75.85779-.71667-27.11777 8.8111-48.55208 25.58894-60.91053 45.15538 21.50092 8.56992 48.70903 9.5804 75.83182.76767 27.1228-8.81273 48.57918-25.63527 60.9365-45.20638z" style="fill:#3b8536;fill-rule:evenodd"/>
      <path d="M500.81551 307.43828c1.50269-23.09369-6.00007-49.29877-22.75976-72.36651-16.7597-23.06775-39.33994-38.26835-61.7677-43.97557-1.50633 23.09684 5.94041 49.28554 22.70322 72.35757 16.76281 23.07203 39.39238 38.27981 61.82424 43.98451z" style="fill:#3b8536;fill-rule:evenodd"/>
      <path d="M331.4528 307.43873c22.42776-5.7072 45.03179-20.94056 61.79149-44.0083 16.7597-23.06775 24.23865-49.24008 22.73598-72.33377-22.43188 5.70471-45.03765 20.87973-61.80046 43.95177-16.76281 23.07202-24.23334 49.29349-22.72701 72.3903z" style="fill:#3b8536;fill-rule:evenodd"/>
      <path d="M280.49474 148.42584c12.35843 19.56643 33.83124 36.35678 60.949 45.16787 27.11776 8.8111 54.32025 7.83631 75.8193-.72916-12.35733-19.57113-33.7752-36.38115-60.898-45.19388-27.12279-8.81273-54.36941-7.81475-75.8703.75517z" style="fill:#3b8536;fill-rule:evenodd"/>
    </g>
    <g>
      <g>
        <g>
          <path d="M418.92891 303.53125c55.12795 0 57.16232-28.06077 50.53984-39.53125-6.66272-11.54017-14.9122-22.39953-22.375-33.59375-25.53331-40.65634-35.19091-38.29853-57.1875 0C382.44343 241.60047 374.16272 252.45983 367.5 264c-6.62249 11.47048-2.23029 39.53125 51.42891 39.53125z" style="fill:#ffffff;fill-rule:evenodd;stroke:#000000;stroke-width:0.125"/>
          <g>
            <g>
              <path d="M406.04416 260.98771c7.2058 3.07746 6.58139 3.19144 12.80841 0-2.13474 3.69747-4.26947 7.39493-6.40421 11.0924-2.13473-3.69747-4.26947-7.39493-6.4042-11.0924z" transform="matrix(.86033 0 0 1.47758 63.78796 -129.2292)" style="fill:#000000;fill-rule:evenodd"/>
              <path d="M420.95335 251.54879c0 2.51006-2.03715 4.54721-4.5472 4.54721-2.51006 0-4.54721-2.03715-4.54721-4.54721 0-2.51006 2.87923-6.90502 4.54721-9.76808 1.33114 2.69464 4.5472 7.25802 4.5472 9.76808z" transform="translate(2.225189)" style="fill:#3c4919;fill-rule:evenodd"/>
            </g>
            <g>
              <path d="M468.0879 269.76388c.61752 8.16993-.7298 18.44325-17.34675 22.37293-8.06383 2.17421-18.38531-1.93677-32.10982-1.51573-13.72452-.42104-24.046 3.68994-32.10983 1.51573-16.61695-3.92968-17.96427-14.203-17.34675-21.7124-.61752 6.18834.7298 16.46166 17.34675 20.39134 8.06383 2.17421 18.38531-1.93677 32.10983-1.51573 13.72451-.42104 24.04599 3.68994 32.10982 1.51573 16.61695-3.92968 17.96427-14.203 17.34675-21.05187z" style="fill:#000000;fill-rule:evenodd"/>
              <path d="M468.0879 267.26388c.61752 8.16993-.7298 18.44325-17.34675 22.37293-8.06383 2.17421-18.38531-1.93677-32.10982-1.51573-13.72452-.42104-24.046 3.68994-32.10983 1.51573-16.61695-3.92968-17.96427-14.203-17.34675-21.7124-.61752 6.18834 1.23505 14.94592 17.852 18.8756 8.06383 2.17421 17.71164-5.97873 31.43616-5.55769 13.72451-.42104 23.87758 7.7319 31.94141 5.55769 16.61695-3.92968 18.3011-12.68726 17.68358-19.53613z" style="fill:#3a6673;fill-rule:evenodd"/>
            </g>
          </g>
        </g>
        <g transform="rotate(72 418.69946569 189.97607617)">
          <path d="M418.92891 303.53125c55.12795 0 57.16232-28.06077 50.53984-39.53125-6.66272-11.54017-14.9122-22.39953-22.375-33.59375-25.53331-40.65634-35.19091-38.29853-57.1875 0C382.44343 241.60047 374.16272 252.45983 367.5 264c-6.62249 11.47048-2.23029 39.53125 51.42891 39.53125z" style="fill:#ffffff;fill-rule:evenodd;stroke:#000000;stroke-width:0.125"/>
          <g>
            <g>
              <path d="M406.04416 260.98771c7.2058 3.07746 6.58139 3.19144 12.80841 0-2.13474 3.69747-4.26947 7.39493-6.40421 11.0924-2.13473-3.69747-4.26947-7.39493-6.4042-11.0924z" transform="matrix(.86033 0 0 1.47758 63.78796 -129.2292)" style="fill:#000000;fill-rule:evenodd"/>
              <path d="M420.95335 251.54879c0 2.51006-2.03715 4.54721-4.5472 4.54721-2.51006 0-4.54721-2.03715-4.54721-4.54721 0-2.51006 2.87923-6.90502 4.54721-9.76808 1.33114 2.69464 4.5472 7.25802 4.5472 9.76808z" transform="translate(2.225189)" style="fill:#3c4919;fill-rule:evenodd"/>
            </g>
            <g>
              <path d="M468.0879 269.76388c.61752 8.16993-.7298 18.44325-17.34675 22.37293-8.06383 2.17421-18.38531-1.93677-32.10982-1.51573-13.72452-.42104-24.046 3.68994-32.10983 1.51573-16.61695-3.92968-17.96427-14.203-17.34675-21.7124-.61752 6.18834.7298 16.46166 17.34675 20.39134 8.06383 2.17421 18.38531-1.93677 32.10983-1.51573 13.72451-.42104 24.04599 3.68994 32.10982 1.51573 16.61695-3.92968 17.96427-14.203 17.34675-21.05187z" style="fill:#000000;fill-rule:evenodd"/>
              <path d="M468.0879 267.26388c.61752 8.16993-.7298 18.44325-17.34675 22.37293-8.06383 2.17421-18.38531-1.93677-32.10982-1.51573-13.72452-.42104-24.046 3.68994-32.10983 1.51573-16.61695-3.92968-17.96427-14.203-17.34675-21.7124-.61752 6.18834 1.23505 14.94592 17.852 18.8756 8.06383 2.17421 17.71164-5.97873 31.43616-5.55769 13.72451-.42104 23.87758 7.7319 31.94141 5.55769 16.61695-3.92968 18.3011-12.68726 17.68358-19.53613z" style="fill:#3a6673;fill-rule:evenodd"/>
            </g>
          </g>
        </g>
        <g transform="rotate(144 417.2479273 189.0097677)">
          <path d="M418.92891 303.53125c55.12795 0 57.16232-28.06077 50.53984-39.53125-6.66272-11.54017-14.9122-22.39953-22.375-33.59375-25.53331-40.65634-35.19091-38.29853-57.1875 0C382.44343 241.60047 374.16272 252.45983 367.5 264c-6.62249 11.47048-2.23029 39.53125 51.42891 39.53125z" style="fill:#ffffff;fill-rule:evenodd;stroke:#000000;stroke-width:0.125"/>
          <g>
            <g>
              <path d="M406.04416 260.98771c7.2058 3.07746 6.58139 3.19144 12.80841 0-2.13474 3.69747-4.26947 7.39493-6.40421 11.0924-2.13473-3.69747-4.26947-7.39493-6.4042-11.0924z" transform="matrix(.86033 0 0 1.47758 63.78796 -129.2292)" style="fill:#000000;fill-rule:evenodd"/>
              <path d="M420.95335 251.54879c0 2.51006-2.03715 4.54721-4.5472 4.54721-2.51006 0-4.54721-2.03715-4.54721-4.54721 0-2.51006 2.87923-6.90502 4.54721-9.76808 1.33114 2.69464 4.5472 7.25802 4.5472 9.76808z" transform="translate(2.225189)" style="fill:#3c4919;fill-rule:evenodd"/>
            </g>
            <g>
              <path d="M468.0879 269.76388c.61752 8.16993-.7298 18.44325-17.34675 22.37293-8.06383 2.17421-18.38531-1.93677-32.10982-1.51573-13.72452-.42104-24.046 3.68994-32.10983 1.51573-16.61695-3.92968-17.96427-14.203-17.34675-21.7124-.61752 6.18834.7298 16.46166 17.34675 20.39134 8.06383 2.17421 18.38531-1.93677 32.10983-1.51573 13.72451-.42104 24.04599 3.68994 32.10982 1.51573 16.61695-3.92968 17.96427-14.203 17.34675-21.05187z" style="fill:#000000;fill-rule:evenodd"/>
              <path d="M468.0879 267.26388c.61752 8.16993-.7298 18.44325-17.34675 22.37293-8.06383 2.17421-18.38531-1.93677-32.10982-1.51573-13.72452-.42104-24.046 3.68994-32.10983 1.51573-16.61695-3.92968-17.96427-14.203-17.34675-21.7124-.61752 6.18834 1.23505 14.94592 17.852 18.8756 8.06383 2.17421 17.71164-5.97873 31.43616-5.55769 13.72451-.42104 23.87758 7.7319 31.94141 5.55769 16.61695-3.92968 18.3011-12.68726 17.68358-19.53613z" style="fill:#3a6673;fill-rule:evenodd"/>
            </g>
          </g>
        </g>
        <g transform="rotate(-144 417.51581445 189.6970935)">
          <path d="M418.92891 303.53125c55.12795 0 57.16232-28.06077 50.53984-39.53125-6.66272-11.54017-14.9122-22.39953-22.375-33.59375-25.53331-40.65634-35.19091-38.29853-57.1875 0C382.44343 241.60047 374.16272 252.45983 367.5 264c-6.62249 11.47048-2.23029 39.53125 51.42891 39.53125z" style="fill:#ffffff;fill-rule:evenodd;stroke:#000000;stroke-width:0.125"/>
          <g>
            <g>
              <path d="M406.04416 260.98771c7.2058 3.07746 6.58139 3.19144 12.80841 0-2.13474 3.69747-4.26947 7.39493-6.40421 11.0924-2.13473-3.69747-4.26947-7.39493-6.4042-11.0924z" transform="matrix(.86033 0 0 1.47758 63.78796 -129.2292)" style="fill:#000000;fill-rule:evenodd"/>
              <path d="M420.95335 251.54879c0 2.51006-2.03715 4.54721-4.5472 4.54721-2.51006 0-4.54721-2.03715-4.54721-4.54721 0-2.51006 2.87923-6.90502 4.54721-9.76808 1.33114 2.69464 4.5472 7.25802 4.5472 9.76808z" transform="translate(2.225189)" style="fill:#3c4919;fill-rule:evenodd"/>
            </g>
            <g>
              <path d="M468.0879 269.76388c.61752 8.16993-.7298 18.44325-17.34675 22.37293-8.06383 2.17421-18.38531-1.93677-32.10982-1.51573-13.72452-.42104-24.046 3.68994-32.10983 1.51573-16.61695-3.92968-17.96427-14.203-17.34675-21.7124-.61752 6.18834.7298 16.46166 17.34675 20.39134 8.06383 2.17421 18.38531-1.93677 32.10983-1.51573 13.72451-.42104 24.04599 3.68994 32.10982 1.51573 16.61695-3.92968 17.96427-14.203 17.34675-21.05187z" style="fill:#000000;fill-rule:evenodd"/>
              <path d="M468.0879 267.26388c.61752 8.16993-.7298 18.44325-17.34675 22.37293-8.06383 2.17421-18.38531-1.93677-32.10982-1.51573-13.72452-.42104-24.046 3.68994-32.10983 1.51573-16.61695-3.92968-17.96427-14.203-17.34675-21.7124-.61752 6.18834 1.23505 14.94592 17.852 18.8756 8.06383 2.17421 17.71164-5.97873 31.43616-5.55769 13.72451-.42104 23.87758 7.7319 31.94141 5.55769 16.61695-3.92968 18.3011-12.68726 17.68358-19.53613z" style="fill:#3a6673;fill-rule:evenodd"/>
            </g>
          </g>
        </g>
        <g transform="rotate(-72 417.90607538 189.30147582)">
          <path d="M418.92891 303.53125c55.12795 0 57.16232-28.06077 50.53984-39.53125-6.66272-11.54017-14.9122-22.39953-22.375-33.59375-25.53331-40.65634-35.19091-38.29853-57.1875 0C382.44343 241.60047 374.16272 252.45983 367.5 264c-6.62249 11.47048-2.23029 39.53125 51.42891 39.53125z" style="fill:#ffffff;fill-rule:evenodd;stroke:#000000;stroke-width:0.125"/>
          <g>
            <g>
              <path d="M406.04416 260.98771c7.2058 3.07746 6.58139 3.19144 12.80841 0-2.13474 3.69747-4.26947 7.39493-6.40421 11.0924-2.13473-3.69747-4.26947-7.39493-6.4042-11.0924z" transform="matrix(.86033 0 0 1.47758 63.78796 -129.2292)" style="fill:#000000;fill-rule:evenodd"/>
              <path d="M420.95335 251.54879c0 2.51006-2.03715 4.54721-4.5472 4.54721-2.51006 0-4.54721-2.03715-4.54721-4.54721 0-2.51006 2.87923-6.90502 4.54721-9.76808 1.33114 2.69464 4.5472 7.25802 4.5472 9.76808z" transform="translate(2.225189)" style="fill:#3c4919;fill-rule:evenodd"/>
            </g>
            <g>
              <path d="M468.0879 269.76388c.61752 8.16993-.7298 18.44325-17.34675 22.37293-8.06383 2.17421-18.38531-1.93677-32.10982-1.51573-13.72452-.42104-24.046 3.68994-32.10983 1.51573-16.61695-3.92968-17.96427-14.203-17.34675-21.7124-.61752 6.18834.7298 16.46166 17.34675 20.39134 8.06383 2.17421 18.38531-1.93677 32.10983-1.51573 13.72451-.42104 24.04599 3.68994 32.10982 1.51573 16.61695-3.92968 17.96427-14.203 17.34675-21.05187z" style="fill:#000000;fill-rule:evenodd"/>
              <path d="M468.0879 267.26388c.61752 8.16993-.7298 18.44325-17.34675 22.37293-8.06383 2.17421-18.38531-1.93677-32.10982-1.51573-13.72452-.42104-24.046 3.68994-32.10983 1.51573-16.61695-3.92968-17.96427-14.203-17.34675-21.7124-.61752 6.18834 1.23505 14.94592 17.852 18.8756 8.06383 2.17421 17.71164-5.97873 31.43616-5.55769 13.72451-.42104 23.87758 7.7319 31.94141 5.55769 16.61695-3.92968 18.3011-12.68726 17.68358-19.53613z" style="fill:#3a6673;fill-rule:evenodd"/>
            </g>
          </g>
        </g>
      </g>
      <g transform="matrix(.44651 -.3244 .3244 .44651 171.4232 243.8542)">
        <g>
          <path d="M418.92891 303.53125c55.12795 0 57.16232-28.06077 50.53984-39.53125-6.66272-11.54017-14.9122-22.39953-22.375-33.59375-25.53331-40.65634-35.19091-38.29853-57.1875 0C382.44343 241.60047 374.16272 252.45983 367.5 264c-6.62249 11.47048-2.23029 39.53125 51.42891 39.53125z" style="fill:#ffffff;fill-rule:evenodd;stroke:#000000;stroke-width:0.125"/>
          <g>
            <g>
              <path d="M406.04416 260.98771c7.2058 3.07746 6.58139 3.19144 12.80841 0-2.13474 3.69747-4.26947 7.39493-6.40421 11.0924-2.13473-3.69747-4.26947-7.39493-6.4042-11.0924z" transform="matrix(.86033 0 0 1.47758 63.78796 -129.2292)" style="fill:#000000;fill-rule:evenodd"/>
              <path d="M420.95335 251.54879c0 2.51006-2.03715 4.54721-4.5472 4.54721-2.51006 0-4.54721-2.03715-4.54721-4.54721 0-2.51006 2.87923-6.90502 4.54721-9.76808 1.33114 2.69464 4.5472 7.25802 4.5472 9.76808z" transform="translate(2.225189)" style="fill:#3c4919;fill-rule:evenodd"/>
            </g>
            <g>
              <path d="M468.0879 269.76388c.61752 8.16993-.7298 18.44325-17.34675 22.37293-8.06383 2.17421-18.38531-1.93677-32.10982-1.51573-13.72452-.42104-24.046 3.68994-32.10983 1.51573-16.61695-3.92968-17.96427-14.203-17.34675-21.7124-.61752 6.18834.7298 16.46166 17.34675 20.39134 8.06383 2.17421 18.38531-1.93677 32.10983-1.51573 13.72451-.42104 24.04599 3.68994 32.10982 1.51573 16.61695-3.92968 17.96427-14.203 17.34675-21.05187z" style="fill:#000000;fill-rule:evenodd"/>
              <path d="M468.0879 267.26388c.61752 8.16993-.7298 18.44325-17.34675 22.37293-8.06383 2.17421-18.38531-1.93677-32.10982-1.51573-13.72452-.42104-24.046 3.68994-32.10983 1.51573-16.61695-3.92968-17.96427-14.203-17.34675-21.7124-.61752 6.18834 1.23505 14.94592 17.852 18.8756 8.06383 2.17421 17.71164-5.97873 31.43616-5.55769 13.72451-.42104 23.87758 7.7319 31.94141 5.55769 16.61695-3.92968 18.3011-12.68726 17.68358-19.53613z" style="fill:#3a6673;fill-rule:evenodd"/>
            </g>
          </g>
        </g>
        <g transform="rotate(72 418.69946569 189.97607617)">
          <path d="M418.92891 303.53125c55.12795 0 57.16232-28.06077 50.53984-39.53125-6.66272-11.54017-14.9122-22.39953-22.375-33.59375-25.53331-40.65634-35.19091-38.29853-57.1875 0C382.44343 241.60047 374.16272 252.45983 367.5 264c-6.62249 11.47048-2.23029 39.53125 51.42891 39.53125z" style="fill:#ffffff;fill-rule:evenodd;stroke:#000000;stroke-width:0.125"/>
          <g>
            <g>
              <path d="M406.04416 260.98771c7.2058 3.07746 6.58139 3.19144 12.80841 0-2.13474 3.69747-4.26947 7.39493-6.40421 11.0924-2.13473-3.69747-4.26947-7.39493-6.4042-11.0924z" transform="matrix(.86033 0 0 1.47758 63.78796 -129.2292)" style="fill:#000000;fill-rule:evenodd"/>
              <path d="M420.95335 251.54879c0 2.51006-2.03715 4.54721-4.5472 4.54721-2.51006 0-4.54721-2.03715-4.54721-4.54721 0-2.51006 2.87923-6.90502 4.54721-9.76808 1.33114 2.69464 4.5472 7.25802 4.5472 9.76808z" transform="translate(2.225189)" style="fill:#3c4919;fill-rule:evenodd"/>
            </g>
            <g>
              <path d="M468.0879 269.76388c.61752 8.16993-.7298 18.44325-17.34675 22.37293-8.06383 2.17421-18.38531-1.93677-32.10982-1.51573-13.72452-.42104-24.046 3.68994-32.10983 1.51573-16.61695-3.92968-17.96427-14.203-17.34675-21.7124-.61752 6.18834.7298 16.46166 17.34675 20.39134 8.06383 2.17421 18.38531-1.93677 32.10983-1.51573 13.72451-.42104 24.04599 3.68994 32.10982 1.51573 16.61695-3.92968 17.96427-14.203 17.34675-21.05187z" style="fill:#000000;fill-rule:evenodd"/>
              <path d="M468.0879 267.26388c.61752 8.16993-.7298 18.44325-17.34675 22.37293-8.06383 2.17421-18.38531-1.93677-32.10982-1.51573-13.72452-.42104-24.046 3.68994-32.10983 1.51573-16.61695-3.92968-17.96427-14.203-17.34675-21.7124-.61752 6.18834 1.23505 14.94592 17.852 18.8756 8.06383 2.17421 17.71164-5.97873 31.43616-5.55769 13.72451-.42104 23.87758 7.7319 31.94141 5.55769 16.61695-3.92968 18.3011-12.68726 17.68358-19.53613z" style="fill:#3a6673;fill-rule:evenodd"/>
            </g>
          </g>
        </g>
        <g transform="rotate(144 417.2479273 189.0097677)">
          <path d="M418.92891 303.53125c55.12795 0 57.16232-28.06077 50.53984-39.53125-6.66272-11.54017-14.9122-22.39953-22.375-33.59375-25.53331-40.65634-35.19091-38.29853-57.1875 0C382.44343 241.60047 374.16272 252.45983 367.5 264c-6.62249 11.47048-2.23029 39.53125 51.42891 39.53125z" style="fill:#ffffff;fill-rule:evenodd;stroke:#000000;stroke-width:0.125"/>
          <g>
            <g>
              <path d="M406.04416 260.98771c7.2058 3.07746 6.58139 3.19144 12.80841 0-2.13474 3.69747-4.26947 7.39493-6.40421 11.0924-2.13473-3.69747-4.26947-7.39493-6.4042-11.0924z" transform="matrix(.86033 0 0 1.47758 63.78796 -129.2292)" style="fill:#000000;fill-rule:evenodd"/>
              <path d="M420.95335 251.54879c0 2.51006-2.03715 4.54721-4.5472 4.54721-2.51006 0-4.54721-2.03715-4.54721-4.54721 0-2.51006 2.87923-6.90502 4.54721-9.76808 1.33114 2.69464 4.5472 7.25802 4.5472 9.76808z" transform="translate(2.225189)" style="fill:#3c4919;fill-rule:evenodd"/>
            </g>
            <g>
              <path d="M468.0879 269.76388c.61752 8.16993-.7298 18.44325-17.34675 22.37293-8.06383 2.17421-18.38531-1.93677-32.10982-1.51573-13.72452-.42104-24.046 3.68994-32.10983 1.51573-16.61695-3.92968-17.96427-14.203-17.34675-21.7124-.61752 6.18834.7298 16.46166 17.34675 20.39134 8.06383 2.17421 18.38531-1.93677 32.10983-1.51573 13.72451-.42104 24.04599 3.68994 32.10982 1.51573 16.61695-3.92968 17.96427-14.203 17.34675-21.05187z" style="fill:#000000;fill-rule:evenodd"/>
              <path d="M468.0879 267.26388c.61752 8.16993-.7298 18.44325-17.34675 22.37293-8.06383 2.17421-18.38531-1.93677-32.10982-1.51573-13.72452-.42104-24.046 3.68994-32.10983 1.51573-16.61695-3.92968-17.96427-14.203-17.34675-21.7124-.61752 6.18834 1.23505 14.94592 17.852 18.8756 8.06383 2.17421 17.71164-5.97873 31.43616-5.55769 13.72451-.42104 23.87758 7.7319 31.94141 5.55769 16.61695-3.92968 18.3011-12.68726 17.68358-19.53613z" style="fill:#3a6673;fill-rule:evenodd"/>
            </g>
          </g>
        </g>
        <g transform="rotate(-144 417.51581445 189.6970935)">
          <path d="M418.92891 303.53125c55.12795 0 57.16232-28.06077 50.53984-39.53125-6.66272-11.54017-14.9122-22.39953-22.375-33.59375-25.53331-40.65634-35.19091-38.29853-57.1875 0C382.44343 241.60047 374.16272 252.45983 367.5 264c-6.62249 11.47048-2.23029 39.53125 51.42891 39.53125z" style="fill:#ffffff;fill-rule:evenodd;stroke:#000000;stroke-width:0.125"/>
          <g>
            <g>
              <path d="M406.04416 260.98771c7.2058 3.07746 6.58139 3.19144 12.80841 0-2.13474 3.69747-4.26947 7.39493-6.40421 11.0924-2.13473-3.69747-4.26947-7.39493-6.4042-11.0924z" transform="matrix(.86033 0 0 1.47758 63.78796 -129.2292)" style="fill:#000000;fill-rule:evenodd"/>
              <path d="M420.95335 251.54879c0 2.51006-2.03715 4.54721-4.5472 4.54721-2.51006 0-4.54721-2.03715-4.54721-4.54721 0-2.51006 2.87923-6.90502 4.54721-9.76808 1.33114 2.69464 4.5472 7.25802 4.5472 9.76808z" transform="translate(2.225189)" style="fill:#3c4919;fill-rule:evenodd"/>
            </g>
            <g>
              <path d="M468.0879 269.76388c.61752 8.16993-.7298 18.44325-17.34675 22.37293-8.06383 2.17421-18.38531-1.93677-32.10982-1.51573-13.72452-.42104-24.046 3.68994-32.10983 1.51573-16.61695-3.92968-17.96427-14.203-17.34675-21.7124-.61752 6.18834.7298 16.46166 17.34675 20.39134 8.06383 2.17421 18.38531-1.93677 32.10983-1.51573 13.72451-.42104 24.04599 3.68994 32.10982 1.51573 16.61695-3.92968 17.96427-14.203 17.34675-21.05187z" style="fill:#000000;fill-rule:evenodd"/>
              <path d="M468.0879 267.26388c.61752 8.16993-.7298 18.44325-17.34675 22.37293-8.06383 2.17421-18.38531-1.93677-32.10982-1.51573-13.72452-.42104-24.046 3.68994-32.10983 1.51573-16.61695-3.92968-17.96427-14.203-17.34675-21.7124-.61752 6.18834 1.23505 14.94592 17.852 18.8756 8.06383 2.17421 17.71164-5.97873 31.43616-5.55769 13.72451-.42104 23.87758 7.7319 31.94141 5.55769 16.61695-3.92968 18.3011-12.68726 17.68358-19.53613z" style="fill:#3a6673;fill-rule:evenodd"/>
            </g>
          </g>
        </g>
        <g transform="rotate(-72 417.90607538 189.30147582)">
          <path d="M418.92891 303.53125c55.12795 0 57.16232-28.06077 50.53984-39.53125-6.66272-11.54017-14.9122-22.39953-22.375-33.59375-25.53331-40.65634-35.19091-38.29853-57.1875 0C382.44343 241.60047 374.16272 252.45983 367.5 264c-6.62249 11.47048-2.23029 39.53125 51.42891 39.53125z" style="fill:#ffffff;fill-rule:evenodd;stroke:#000000;stroke-width:0.125"/>
          <g>
            <g>
              <path d="M406.04416 260.98771c7.2058 3.07746 6.58139 3.19144 12.80841 0-2.13474 3.69747-4.26947 7.39493-6.40421 11.0924-2.13473-3.69747-4.26947-7.39493-6.4042-11.0924z" transform="matrix(.86033 0 0 1.47758 63.78796 -129.2292)" style="fill:#000000;fill-rule:evenodd"/>
              <path d="M420.95335 251.54879c0 2.51006-2.03715 4.54721-4.5472 4.54721-2.51006 0-4.54721-2.03715-4.54721-4.54721 0-2.51006 2.87923-6.90502 4.54721-9.76808 1.33114 2.69464 4.5472 7.25802 4.5472 9.76808z" transform="translate(2.225189)" style="fill:#3c4919;fill-rule:evenodd"/>
            </g>
            <g>
              <path d="M468.0879 269.76388c.61752 8.16993-.7298 18.44325-17.34675 22.37293-8.06383 2.17421-18.38531-1.93677-32.10982-1.51573-13.72452-.42104-24.046 3.68994-32.10983 1.51573-16.61695-3.92968-17.96427-14.203-17.34675-21.7124-.61752 6.18834.7298 16.46166 17.34675 20.39134 8.06383 2.17421 18.38531-1.93677 32.10983-1.51573 13.72451-.42104 24.04599 3.68994 32.10982 1.51573 16.61695-3.92968 17.96427-14.203 17.34675-21.05187z" style="fill:#000000;fill-rule:evenodd"/>
              <path d="M468.0879 267.26388c.61752 8.16993-.7298 18.44325-17.34675 22.37293-8.06383 2.17421-18.38531-1.93677-32.10982-1.51573-13.72452-.42104-24.046 3.68994-32.10983 1.51573-16.61695-3.92968-17.96427-14.203-17.34675-21.7124-.61752 6.18834 1.23505 14.94592 17.852 18.8756 8.06383 2.17421 17.71164-5.97873 31.43616-5.55769 13.72451-.42104 23.87758 7.7319 31.94141 5.55769 16.61695-3.92968 18.3011-12.68726 17.68358-19.53613z" style="fill:#3a6673;fill-rule:evenodd"/>
            </g>
          </g>
        </g>
      </g>
    </g>
    <g style="fill:#eed706;fill-opacity:1">
      <g style="fill:#eed706;fill-opacity:1">
        <path d="M415.39126 165.06467c.00157 1.18625-.63039 2.28307-1.65745 2.87664-1.02707.59358-2.29291.59358-3.31998 0-1.02706-.59357-1.65902-1.69039-1.65745-2.87664-.00157-1.18625.63039-2.28307 1.65745-2.87664 1.02707-.59358 2.29291-.59358 3.31998 0 1.02706.59357 1.65902 1.69039 1.65745 2.87664z" transform="translate(-82.77179 -31.83592) scale(1.21037)" style="fill:#eed706;fill-rule:evenodd;stroke:#6b2910;stroke-width:1pt"/>
        <path d="M415.39126 165.06467c.00157 1.18625-.63039 2.28307-1.65745 2.87664-1.02707.59358-2.29291.59358-3.31998 0-1.02706-.59357-1.65902-1.69039-1.65745-2.87664-.00157-1.18625.63039-2.28307 1.65745-2.87664 1.02707-.59358 2.29291-.59358 3.31998 0 1.02706.59357 1.65902 1.69039 1.65745 2.87664z" transform="translate(-63.57801 9.513637) scale(1.21037)" style="fill:#eed706;fill-rule:evenodd;stroke:#6b2910;stroke-width:1pt"/>
        <path d="M415.39126 165.06467c.00157 1.18625-.63039 2.28307-1.65745 2.87664-1.02707.59358-2.29291.59358-3.31998 0-1.02706-.59357-1.65902-1.69039-1.65745-2.87664-.00157-1.18625.63039-2.28307 1.65745-2.87664 1.02707-.59358 2.29291-.59358 3.31998 0 1.02706.59357 1.65902 1.69039 1.65745 2.87664z" transform="translate(-70.56834 13.66044) scale(1.21037)" style="fill:#eed706;fill-rule:evenodd;stroke:#6b2910;stroke-width:1pt"/>
        <path d="M415.39126 165.06467c.00157 1.18625-.63039 2.28307-1.65745 2.87664-1.02707.59358-2.29291.59358-3.31998 0-1.02706-.59357-1.65902-1.69039-1.65745-2.87664-.00157-1.18625.63039-2.28307 1.65745-2.87664 1.02707-.59358 2.29291-.59358 3.31998 0 1.02706.59357 1.65902 1.69039 1.65745 2.87664z" transform="translate(-78.74347 15.55612) scale(1.21037)" style="fill:#eed706;fill-rule:evenodd;stroke:#6b2910;stroke-width:1pt"/>
        <path d="M415.39126 165.06467c.00157 1.18625-.63039 2.28307-1.65745 2.87664-1.02707.59358-2.29291.59358-3.31998 0-1.02706-.59357-1.65902-1.69039-1.65745-2.87664-.00157-1.18625.63039-2.28307 1.65745-2.87664 1.02707-.59358 2.29291-.59358 3.31998 0 1.02706.59357 1.65902 1.69039 1.65745 2.87664z" transform="translate(-87.51099 13.8974) scale(1.21037)" style="fill:#eed706;fill-rule:evenodd;stroke:#6b2910;stroke-width:1pt"/>
        <path d="M415.39126 165.06467c.00157 1.18625-.63039 2.28307-1.65745 2.87664-1.02707.59358-2.29291.59358-3.31998 0-1.02706-.59357-1.65902-1.69039-1.65745-2.87664-.00157-1.18625.63039-2.28307 1.65745-2.87664 1.02707-.59358 2.29291-.59358 3.31998 0 1.02706.59357 1.65902 1.69039 1.65745 2.87664z" transform="translate(-94.73828 10.343) scale(1.21037)" style="fill:#eed706;fill-rule:evenodd;stroke:#6b2910;stroke-width:1pt"/>
        <path d="M415.39126 165.06467c.00157 1.18625-.63039 2.28307-1.65745 2.87664-1.02707.59358-2.29291.59358-3.31998 0-1.02706-.59357-1.65902-1.69039-1.65745-2.87664-.00157-1.18625.63039-2.28307 1.65745-2.87664 1.02707-.59358 2.29291-.59358 3.31998 0 1.02706.59357 1.65902 1.69039 1.65745 2.87664z" transform="translate(-100.3069 4.537467) scale(1.21037)" style="fill:#eed706;fill-rule:evenodd;stroke:#6b2910;stroke-width:1pt"/>
        <path d="M415.39126 165.06467c.00157 1.18625-.63039 2.28307-1.65745 2.87664-1.02707.59358-2.29291.59358-3.31998 0-1.02706-.59357-1.65902-1.69039-1.65745-2.87664-.00157-1.18625.63039-2.28307 1.65745-2.87664 1.02707-.59358 2.29291-.59358 3.31998 0 1.02706.59357 1.65902 1.69039 1.65745 2.87664z" transform="translate(-103.0319 -2.689813) scale(1.21037)" style="fill:#eed706;fill-rule:evenodd;stroke:#6b2910;stroke-width:1pt"/>
        <path d="M415.39126 165.06467c.00157 1.18625-.63039 2.28307-1.65745 2.87664-1.02707.59358-2.29291.59358-3.31998 0-1.02706-.59357-1.65902-1.69039-1.65745-2.87664-.00157-1.18625.63039-2.28307 1.65745-2.87664 1.02707-.59358 2.29291-.59358 3.31998 0 1.02706.59357 1.65902 1.69039 1.65745 2.87664z" transform="translate(-103.6243 -10.39102) scale(1.21037)" style="fill:#eed706;fill-rule:evenodd;stroke:#6b2910;stroke-width:1pt"/>
        <path d="M415.39126 165.06467c.00157 1.18625-.63039 2.28307-1.65745 2.87664-1.02707.59358-2.29291.59358-3.31998 0-1.02706-.59357-1.65902-1.69039-1.65745-2.87664-.00157-1.18625.63039-2.28307 1.65745-2.87664 1.02707-.59358 2.29291-.59358 3.31998 0 1.02706.59357 1.65902 1.69039 1.65745 2.87664z" transform="translate(-101.2547 -18.80311) scale(1.21037)" style="fill:#eed706;fill-rule:evenodd;stroke:#6b2910;stroke-width:1pt"/>
        <path d="M415.39126 165.06467c.00157 1.18625-.63039 2.28307-1.65745 2.87664-1.02707.59358-2.29291.59358-3.31998 0-1.02706-.59357-1.65902-1.69039-1.65745-2.87664-.00157-1.18625.63039-2.28307 1.65745-2.87664 1.02707-.59358 2.29291-.59358 3.31998 0 1.02706.59357 1.65902 1.69039 1.65745 2.87664z" transform="translate(-96.27854 -25.31951) scale(1.21037)" style="fill:#eed706;fill-rule:evenodd;stroke:#6b2910;stroke-width:1pt"/>
        <path d="M415.39126 165.06467c.00157 1.18625-.63039 2.28307-1.65745 2.87664-1.02707.59358-2.29291.59358-3.31998 0-1.02706-.59357-1.65902-1.69039-1.65745-2.87664-.00157-1.18625.63039-2.28307 1.65745-2.87664 1.02707-.59358 2.29291-.59358 3.31998 0 1.02706.59357 1.65902 1.69039 1.65745 2.87664z" transform="translate(-90.11756 -30.1772) scale(1.21037)" style="fill:#eed706;fill-rule:evenodd;stroke:#6b2910;stroke-width:1pt"/>
        <path d="M415.39126 165.06467c.00157 1.18625-.63039 2.28307-1.65745 2.87664-1.02707.59358-2.29291.59358-3.31998 0-1.02706-.59357-1.65902-1.69039-1.65745-2.87664-.00157-1.18625.63039-2.28307 1.65745-2.87664 1.02707-.59358 2.29291-.59358 3.31998 0 1.02706.59357 1.65902 1.69039 1.65745 2.87664z" transform="translate(-74.59666 -31.83592) scale(1.21037)" style="fill:#eed706;fill-rule:evenodd;stroke:#6b2910;stroke-width:1pt"/>
        <path d="M415.39126 165.06467c.00157 1.18625-.63039 2.28307-1.65745 2.87664-1.02707.59358-2.29291.59358-3.31998 0-1.02706-.59357-1.65902-1.69039-1.65745-2.87664-.00157-1.18625.63039-2.28307 1.65745-2.87664 1.02707-.59358 2.29291-.59358 3.31998 0 1.02706.59357 1.65902 1.69039 1.65745 2.87664z" transform="translate(-58.60185 2.878747) scale(1.21037)" style="fill:#eed706;fill-rule:evenodd;stroke:#6b2910;stroke-width:1pt"/>
        <path d="M415.39126 165.06467c.00157 1.18625-.63039 2.28307-1.65745 2.87664-1.02707.59358-2.29291.59358-3.31998 0-1.02706-.59357-1.65902-1.69039-1.65745-2.87664-.00157-1.18625.63039-2.28307 1.65745-2.87664 1.02707-.59358 2.29291-.59358 3.31998 0 1.02706.59357 1.65902 1.69039 1.65745 2.87664z" transform="translate(-56.11377 -5.296383) scale(1.21037)" style="fill:#eed706;fill-rule:evenodd;stroke:#6b2910;stroke-width:1pt"/>
        <path d="M415.39126 165.06467c.00157 1.18625-.63039 2.28307-1.65745 2.87664-1.02707.59358-2.29291.59358-3.31998 0-1.02706-.59357-1.65902-1.69039-1.65745-2.87664-.00157-1.18625.63039-2.28307 1.65745-2.87664 1.02707-.59358 2.29291-.59358 3.31998 0 1.02706.59357 1.65902 1.69039 1.65745 2.87664z" transform="translate(-56.35073 -13.35302) scale(1.21037)" style="fill:#eed706;fill-rule:evenodd;stroke:#6b2910;stroke-width:1pt"/>
        <path d="M415.39126 165.06467c.00157 1.18625-.63039 2.28307-1.65745 2.87664-1.02707.59358-2.29291.59358-3.31998 0-1.02706-.59357-1.65902-1.69039-1.65745-2.87664-.00157-1.18625.63039-2.28307 1.65745-2.87664 1.02707-.59358 2.29291-.59358 3.31998 0 1.02706.59357 1.65902 1.69039 1.65745 2.87664z" transform="translate(-60.37905 -21.64663) scale(1.21037)" style="fill:#eed706;fill-rule:evenodd;stroke:#6b2910;stroke-width:1pt"/>
        <path d="M415.39126 165.06467c.00157 1.18625-.63039 2.28307-1.65745 2.87664-1.02707.59358-2.29291.59358-3.31998 0-1.02706-.59357-1.65902-1.69039-1.65745-2.87664-.00157-1.18625.63039-2.28307 1.65745-2.87664 1.02707-.59358 2.29291-.59358 3.31998 0 1.02706.59357 1.65902 1.69039 1.65745 2.87664z" transform="translate(-66.77698 -27.92608) scale(1.21037)" style="fill:#eed706;fill-rule:evenodd;stroke:#6b2910;stroke-width:1pt"/>
      </g>
      <g transform="translate(3.559399 3.243637)" style="fill:#eed706;fill-opacity:1">
        <path d="M434.51074 188.39317c0 10.60349-8.59582 19.19931-19.19931 19.19931s-19.19931-8.59582-19.19931-19.19931 8.59582-19.19931 19.19931-19.19931 19.19931 8.59582 19.19931 19.19931z" style="fill:#eed706;fill-rule:evenodd;stroke:#6b2910;stroke-width:1pt"/>
        <g style="fill:#eed706;fill-opacity:1">
          <path d="M424.74267 188.39317c0 5.20873-4.22251 9.43124-9.43124 9.43124-5.20873 0-9.43124-4.22251-9.43124-9.43124 0-5.20873 4.22251-9.43124 9.43124-9.43124 5.20873 0 9.43124 4.22251 9.43124 9.43124z" style="fill:#eed706;fill-rule:evenodd;stroke:#6b2910;stroke-width:1pt"/>
        </g>
      </g>
    </g>
  </g>
</svg>