<?xml version="1.0" encoding="UTF-8" standalone="no"?>
<!-- Created with Inkscape (http://www.inkscape.org/) -->

<svg
   width="150mm"
   height="100mm"
   viewBox="0 0 150 100"
   version="1.1"
   id="svg5"
   inkscape:version="1.2 (dc2aedaf03, 2022-05-15)"
   sodipodi:docname="shogunate.svg"
   xmlns:inkscape="http://www.inkscape.org/namespaces/inkscape"
   xmlns:sodipodi="http://sodipodi.sourceforge.net/DTD/sodipodi-0.dtd"
   xmlns="http://www.w3.org/2000/svg"
   xmlns:svg="http://www.w3.org/2000/svg">
  <sodipodi:namedview
     id="namedview7"
     pagecolor="#ffffff"
     bordercolor="#666666"
     borderopacity="1.0"
     inkscape:showpageshadow="2"
     inkscape:pageopacity="0.0"
     inkscape:pagecheckerboard="0"
     inkscape:deskcolor="#d1d1d1"
     inkscape:document-units="mm"
     showgrid="false"
     inkscape:zoom="0.18641099"
     inkscape:cx="-544.49581"
     inkscape:cy="1126.5431"
     inkscape:window-width="1920"
     inkscape:window-height="1017"
     inkscape:window-x="-8"
     inkscape:window-y="-8"
     inkscape:window-maximized="1"
     inkscape:current-layer="layer1" />
  <defs
     id="defs2" />
  <g
     inkscape:label="Layer 1"
     inkscape:groupmode="layer"
     id="layer1"
     transform="translate(-10.645162,-60.677647)">
    <rect
       style="fill:#000000;fill-opacity:1;stroke:none;stroke-width:6.38754;stroke-linecap:round;stroke-linejoin:round"
       id="rect401"
       width="150"
       height="100"
       x="10.645162"
       y="60.677647" />
    <rect
       style="fill:#ffffff;stroke:none;stroke-width:7.07107;paint-order:fill markers stroke"
       id="rect471"
       width="25"
       height="100"
       x="20.645163"
       y="60.677647" />
    <rect
       style="fill:#ffffff;stroke:none;stroke-width:7.07106;paint-order:fill markers stroke"
       id="rect471-7"
       width="25"
       height="100"
       x="125.64516"
       y="60.677647" />
    <path
       style="fill:#ffffff;fill-opacity:1;stroke-width:0.177353"
       d="m 83.38594,133.32539 c -1.58992,-0.14811 -3.99066,-0.69015 -5.49061,-1.23966 -1.25781,-0.46082 -3.59022,-1.63006 -4.68534,-2.34878 -5.61181,-3.68301 -9.16834,-9.36276 -10.14836,-16.20681 -0.17838,-1.24566 -0.14829,-4.77026 0.052,-6.0966 0.74678,-4.94437 2.94655,-9.311226 6.46069,-12.825365 3.51414,-3.514138 7.881,-5.713915 12.82536,-6.460697 1.32635,-0.200328 4.85094,-0.230414 6.0966,-0.05204 4.51652,0.646737 8.396117,2.334292 11.70011,5.089329 2.45637,2.048242 4.40059,4.527791 5.82973,7.434923 1.10417,2.24606 1.65743,3.94445 2.07206,6.36067 0.26667,1.55409 0.33169,4.76234 0.13,6.4153 -1.27007,10.40903 -9.406434,18.57896 -19.77404,19.85561 -1.02559,0.12629 -4.0357,0.17031 -5.06824,0.0741 z m 5.33453,-4.01135 c 4.10982,-0.6948 7.634057,-2.54476 10.537816,-5.53158 0.913474,-0.9396 1.897044,-2.11408 1.821754,-2.17536 -0.0175,-0.0143 -0.27394,-0.1543 -0.56981,-0.31118 -0.29586,-0.15687 -0.724484,-0.42185 -0.952504,-0.58883 l -0.41457,-0.30361 0.16509,-0.47802 c 0.20154,-0.58357 0.20884,-0.79654 0.041,-1.19815 -0.12526,-0.29979 -0.12285,-0.31099 0.0672,-0.31288 0.27654,-0.003 0.881724,-0.2946 1.085204,-0.52331 0.0939,-0.10559 0.23878,-0.19197 0.32186,-0.19197 0.32357,0 1.58726,-0.37344 2.1653,-0.63988 0.69313,-0.31948 0.68528,-0.30494 1.10614,-2.0498 0.49716,-2.06127 0.63167,-4.58481 0.35697,-6.69719 -0.72038,-5.5395 -3.80849,-10.4345 -8.51421,-13.496004 -2.27924,-1.482854 -5.44181,-2.611014 -8.0618,-2.875829 -0.16016,-0.01619 -0.17334,0.05708 -0.19049,1.058479 -0.0206,1.205348 -0.0659,1.389449 -0.34187,1.390168 -0.38825,0.0011 -0.88154,0.196905 -1.16071,0.460943 -0.15763,0.149085 -0.2332,0.243237 -0.16791,0.209224 0.097,-0.05053 0.0981,-0.02894 0.006,0.11809 -0.10764,0.172356 -0.12268,0.165703 -0.35719,-0.158032 -0.14049,-0.193948 -0.42972,-0.425726 -0.67874,-0.543921 -0.26653,-0.126512 -0.66851,-0.457761 -1.04204,-0.858704 -0.33447,-0.359007 -0.8851,-0.836871 -1.22362,-1.061919 l -0.61548,-0.409178 -1.01779,0.263071 c -5.91187,1.528058 -10.75054,5.826854 -12.92564,11.483462 -0.8545,2.22221 -1.24422,4.31765 -1.25061,6.7242 -0.007,2.38837 0.35827,4.47838 1.15339,6.6113 0.53254,1.42854 0.41922,1.35055 1.20317,0.8281 0.36893,-0.24586 0.84418,-0.51358 1.05611,-0.59494 0.3776,-0.14494 0.38814,-0.14391 0.52504,0.0515 0.26357,0.3763 0.84275,0.72474 1.20468,0.72474 h 0.33985 l -0.12861,0.24655 c -0.14503,0.27802 -0.17013,0.89066 -0.0495,1.20795 0.0584,0.15375 0.0188,0.39246 -0.1463,0.87998 -0.17306,0.51112 -0.23732,0.92039 -0.27232,1.73434 l -0.0458,1.06534 0.83205,0.80174 c 2.93606,2.82907 6.7449,4.69861 10.53502,5.17101 0.4438,0.0553 0.90777,0.1178 1.03104,0.13886 0.51309,0.0876 3.76576,-0.0324 4.57246,-0.16881 z m 1.85136,-2.17354 c -0.11335,-0.0301 0.14221,-0.19553 0.80691,-0.52227 0.53504,-0.263 1.1103,-0.56985 1.27836,-0.68189 l 0.30557,-0.20372 -0.0736,0.26433 c -0.0405,0.14539 -0.0834,0.46607 -0.0953,0.71262 l -0.0216,0.44828 -1.01721,0.0134 c -0.55946,0.007 -1.09185,-0.007 -1.1831,-0.0307 z M 79.00654,127.048 c -0.20928,-0.0313 -0.24626,-0.0725 -0.2054,-0.22878 0.0465,-0.17783 -0.0438,-0.74257 -0.17228,-1.07737 -0.0356,-0.0927 0.21826,0.0169 0.69179,0.29886 0.41141,0.24496 0.95983,0.53334 1.21872,0.64087 0.25888,0.10752 0.47069,0.22314 0.47069,0.25692 0,0.14469 -1.29522,0.21547 -2.00352,0.1095 z m 14.28639,-0.0478 c 0,-0.0235 0.16138,-0.14943 0.35862,-0.27996 0.25247,-0.16708 0.35863,-0.20039 0.35863,-0.11255 0,0.0686 -0.0507,0.16682 -0.11258,0.21821 -0.12452,0.10335 -0.60467,0.24175 -0.60467,0.1743 z m -15.39078,-0.17605 c -0.16514,-0.0532 -0.30419,-0.16946 -0.33265,-0.27832 -0.0269,-0.10286 -0.0404,-0.1943 -0.03,-0.20319 0.0104,-0.009 0.21984,0.12048 0.46548,0.28747 0.44989,0.30585 0.42004,0.36223 -0.10277,0.19404 z m 11.42384,-0.18286 c -0.28335,-0.15968 -0.70329,-0.44897 -0.93321,-0.64289 l -0.41802,-0.35257 0.81641,-0.20535 c 0.44904,-0.11294 1.16932,-0.34765 1.60064,-0.52158 0.43132,-0.17392 0.79849,-0.31622 0.81593,-0.31622 0.0174,0 -0.0953,0.18465 -0.2506,0.41033 -0.15527,0.22568 -0.44157,0.75017 -0.63621,1.16553 -0.19464,0.41536 -0.38222,0.75471 -0.41683,0.75412 -0.0346,-5.3e-4 -0.29476,-0.13171 -0.57811,-0.29137 z m -7.94632,-0.34456 c -0.11241,-0.2899 -0.4023,-0.83028 -0.64421,-1.20084 l -0.43983,-0.67375 0.3348,0.14544 c 0.76475,0.33221 2.10617,0.76353 2.53113,0.81386 l 0.45553,0.054 -0.20523,0.22392 c -0.21766,0.23748 -1.21588,0.90348 -1.59928,1.06702 -0.22078,0.0942 -0.23547,0.0796 -0.43291,-0.4296 z m 11.64429,0.33722 c 0,-0.39053 0.29218,-1.06249 0.57166,-1.31471 1.25935,-1.13646 1.95136,-1.70679 1.78418,-1.47044 -0.10782,0.15243 -0.43279,0.72678 -0.72214,1.27632 -0.49153,0.93352 -0.56248,1.02269 -1.0799,1.35711 -0.5339,0.34508 -0.5538,0.35053 -0.5538,0.15172 z M 77.9325,126.30252 c -0.46252,-0.31171 -0.5716,-0.44788 -0.95217,-1.18862 -0.2364,-0.46011 -0.54138,-1.0133 -0.67774,-1.2293 -0.24013,-0.3804 -0.22395,-0.37141 0.51543,0.28643 0.41983,0.37353 0.88677,0.77041 1.03763,0.88195 0.32201,0.23807 0.66629,0.97624 0.62684,1.34404 l -0.0276,0.25755 z m 12.60585,0.1876 c 0.0887,-0.33918 0.78714,-1.49069 1.39718,-2.30353 0.32354,-0.43108 1.05381,-1.25183 1.62283,-1.82387 1.01858,-1.024 1.05056,-1.04703 2.06773,-1.48951 l 1.033137,-0.44944 0.38133,0.16629 0.38132,0.16628 -0.29377,0.4102 c -1.820207,2.54162 -4.634747,4.93121 -6.425907,5.45573 -0.18826,0.0551 -0.20854,0.0387 -0.16385,-0.13215 z m 3.74079,0.0546 c 0,-0.39671 1.61594,-3.2633 2.686807,-4.76623 0.6569,-0.92193 0.68331,-0.95398 1.101159,-1.33563 0.46133,-0.42138 0.30268,-1.05027 -0.34966,-1.38603 -0.157869,-0.0813 -0.203599,-0.0711 -0.252619,0.056 -0.0385,0.0998 -0.005,0.18727 0.0952,0.24491 0.234979,0.13582 0.484629,0.39195 0.484629,0.49718 0,0.15413 -0.427859,0.53389 -0.601099,0.53353 -0.43416,-8.7e-4 -1.0127,-0.65393 -1.0127,-1.14307 0,-0.25188 0.35804,-0.74645 0.71406,-0.98637 0.610559,-0.41146 0.975059,-0.37832 1.517829,0.138 0.59468,0.56571 0.58759,1.09809 -0.0282,2.12078 -0.17513,0.29083 -0.3418,0.67328 -0.37037,0.84989 -0.0681,0.42108 -0.598569,1.7507 -1.058049,2.65217 -0.44777,0.87849 -1.450467,1.91842 -2.269217,2.35347 -0.61839,0.32859 -0.65776,0.33884 -0.65776,0.17136 z m -17.64677,-0.30585 c -0.78811,-0.47743 -1.38105,-1.01443 -1.85779,-1.68252 -0.46443,-0.65085 -1.30745,-2.52758 -1.4643,-3.25985 -0.0568,-0.26509 -0.25153,-0.72223 -0.43278,-1.01587 -0.25759,-0.41734 -0.33799,-0.65078 -0.36827,-1.0693 l -0.0387,-0.53541 0.41614,-0.39873 c 0.35876,-0.34375 0.46848,-0.39869 0.79562,-0.3984 0.66876,5.3e-4 1.4105,0.65548 1.4105,1.24535 0,0.78654 -0.93259,1.41113 -1.37577,0.92141 -0.2325,-0.25691 -0.18478,-0.54091 0.12002,-0.71436 0.32678,-0.18595 0.37902,-0.51002 0.0678,-0.42072 -0.28535,0.0819 -0.69543,0.54725 -0.69165,0.78493 0.004,0.27234 0.20107,0.60765 0.42773,0.72895 0.66181,0.3542 4.07891,6.15073 3.6259,6.15073 -0.0437,0 -0.32919,-0.15129 -0.63444,-0.33621 z m 4.10873,0.20289 c -0.63626,-0.22462 -1.59525,-0.76089 -2.33402,-1.30519 -0.9789,-0.72124 -2.54091,-2.28683 -3.52457,-3.53267 l -0.77494,-0.9815 0.42536,-0.1617 0.42535,-0.16169 0.98622,0.42594 c 0.95995,0.4146 1.01371,0.4534 2.01858,1.45699 1.19656,1.19504 2.21415,2.50899 2.7653,3.57067 0.21315,0.41057 0.37381,0.75853 0.35702,0.77322 -0.0168,0.0147 -0.17172,-0.0231 -0.3443,-0.0841 z m 6.4754,-1.78414 c -0.37367,-0.56835 -0.73766,-1.31853 -0.73718,-1.51931 1.8e-4,-0.0735 0.33977,-0.10865 1.14312,-0.11812 0.62857,-0.007 1.34206,-0.0541 1.58553,-0.10364 l 0.44266,-0.0901 -0.5081,0.44569 c -0.27946,0.24513 -0.73454,0.78599 -1.01128,1.20192 -0.27676,0.41593 -0.51108,0.75623 -0.52073,0.75623 -0.01,0 -0.18696,-0.25768 -0.39402,-0.57262 z m 1.06352,0.21925 c 0.46502,-0.82739 1.75486,-2.10661 2.23357,-2.21518 0.71255,-0.1616 2.46197,-0.69976 3.18279,-0.97911 0.0986,-0.0382 -0.14363,0.27032 -0.53834,0.68563 -0.39471,0.41532 -0.8938,0.9652 -1.10908,1.22196 -0.34468,0.41111 -0.51052,0.51719 -1.38926,0.88861 -1.15238,0.48709 -1.96629,0.7498 -2.326,0.75078 l -0.25229,6.7e-4 0.19861,-0.35338 z m -5.5665,0.12766 c -0.51922,-0.12753 -1.79416,-0.62225 -2.44121,-0.94727 -0.21062,-0.1058 -0.56309,-0.39956 -0.78325,-0.6528 -0.22016,-0.25325 -0.71891,-0.7906 -1.10835,-1.19412 l -0.70804,-0.73368 0.97386,0.34061 c 0.53562,0.18733 1.33697,0.43349 1.78077,0.54702 0.69327,0.17735 0.88897,0.27292 1.38966,0.67861 0.59454,0.48173 1.13364,1.10297 1.51085,1.74105 0.24606,0.41623 0.22015,0.42553 -0.61429,0.22058 z m 0.85187,-0.50307 c -0.19393,-0.31417 -0.63079,-0.84944 -0.97082,-1.18947 -0.43428,-0.43428 -0.55525,-0.59904 -0.40654,-0.55369 0.11643,0.0355 0.82796,0.0872 1.58116,0.11479 1.34218,0.0492 1.36832,0.054 1.31217,0.23989 -0.10375,0.34345 -0.66567,1.36351 -0.91687,1.66441 l -0.24653,0.2953 z m 3.45571,-1.86084 c -0.20934,-0.0584 -0.19409,-0.0812 0.3138,-0.46947 1.35712,-1.03742 3.21652,-2.01754 5.27151,-2.77869 0.69673,-0.25807 0.71556,-0.25991 2.06214,-0.20185 l 1.35898,0.0586 0.193077,0.48776 0.19307,0.48776 -0.596567,0.26936 c -2.57345,1.16197 -5.13561,1.92313 -7.17338,2.13105 -1.02258,0.10434 -1.29477,0.10694 -1.62263,0.0155 z m -4.85193,-0.23723 c -0.9058,-0.14121 -1.95269,-0.40114 -3.13154,-0.7775 -1.47842,-0.47201 -3.85521,-1.45764 -3.85521,-1.59872 0,-0.0364 0.0603,-0.18169 0.13393,-0.32294 0.0737,-0.14124 0.13418,-0.34757 0.13449,-0.45852 5.5e-4,-0.2011 0.005,-0.20173 1.49357,-0.20173 h 1.49302 l 1.03976,0.4138 c 1.91731,0.76305 4.58119,2.2583 5.15542,2.89377 l 0.17079,0.18901 -0.93287,-0.009 c -0.51307,-0.005 -1.27869,-0.0626 -1.70136,-0.12849 z m 4.18759,-0.43245 c -0.0305,-0.25378 -0.0558,-0.7788 -0.0562,-1.16671 -6.7e-4,-0.69125 0.003,-0.70398 0.20094,-0.6396 0.67948,0.22125 1.76957,0.48455 2.02256,0.48851 0.38337,0.006 0.32496,0.0849 -0.36077,0.48735 -0.30992,0.18188 -0.8307,0.54697 -1.15728,0.81129 l -0.59379,0.48058 z m -1.53632,0.0573 c -0.3996,-0.34925 -1.24045,-0.9375 -1.77014,-1.23836 l -0.34703,-0.19712 0.81906,-0.14985 c 0.45048,-0.0824 1.0253,-0.22821 1.27737,-0.32399 0.25208,-0.0958 0.46742,-0.16502 0.47853,-0.15387 0.0111,0.0111 -0.007,0.55047 -0.0395,1.19846 l -0.0597,1.17817 z m 3.13796,-1.77984 c -0.70425,-0.13864 -1.38967,-0.37652 -1.38967,-0.48231 0,-0.0933 1.0074,-0.57638 1.56898,-0.75241 0.97127,-0.30444 1.51953,-0.34766 2.44769,-0.19295 0.47827,0.0797 1.152,0.17401 1.49717,0.20953 l 0.6276,0.0646 -0.49311,0.16622 c -0.27121,0.0914 -1.00075,0.38255 -1.6212,0.64697 -1.24569,0.53087 -1.5018,0.56392 -2.63746,0.34036 z m -6.67937,-0.33592 c -0.46845,-0.21435 -1.16537,-0.50321 -1.54872,-0.64192 -0.38334,-0.13871 -0.68485,-0.26432 -0.67004,-0.27914 0.0552,-0.0552 2.54633,-0.39479 2.89925,-0.39526 0.53698,-7.4e-4 1.69039,0.31614 2.43505,0.66894 0.3575,0.16937 0.65001,0.33217 0.65001,0.36177 0,0.16714 -1.32256,0.51241 -2.37588,0.62025 -0.50115,0.0513 -0.59619,0.0284 -1.38967,-0.33464 z m 4.98951,-1.11508 c -0.0769,-0.8142 -0.0731,-1.38972 0.009,-1.34779 0.57412,0.29381 1.28678,0.5912 1.88547,0.78678 l 0.74236,0.24253 -0.60788,0.14941 c -0.33433,0.0822 -0.90456,0.29 -1.26719,0.46183 -0.36262,0.17183 -0.66946,0.31242 -0.68187,0.31242 -0.0124,0 -0.0483,-0.27233 -0.0797,-0.60518 z m -1.35845,0.3291 c -0.37242,-0.23996 -1.15285,-0.52714 -1.79117,-0.6591 l -0.53599,-0.1108 0.67047,-0.20282 c 0.36877,-0.11155 0.96866,-0.34018 1.33311,-0.50806 0.36445,-0.16788 0.67712,-0.30523 0.69483,-0.30523 0.0177,0 0.0322,0.4438 0.0322,0.98621 0,0.54242 -0.0302,0.98327 -0.0672,0.97967 -0.037,-0.004 -0.18828,-0.0845 -0.33622,-0.17987 z m 8.65181,-0.26868 c -1.85042,-0.13948 -3.7638,-0.47925 -5.03244,-0.89366 -0.81332,-0.26568 -1.96073,-0.7883 -1.96073,-0.89307 0,-0.12509 1.41766,-0.36734 2.73926,-0.46808 0.99272,-0.0757 1.74755,-0.0782 2.78639,-0.009 1.25325,0.0831 1.48099,0.12297 1.89131,0.3309 0.25657,0.13001 0.95977,0.43915 1.56268,0.68698 0.602907,0.24783 1.113997,0.46841 1.135767,0.49018 0.0218,0.0218 -0.0868,0.18354 -0.24132,0.35951 -0.1545,0.17595 -0.2809,0.35886 -0.2809,0.40646 0,0.0998 -1.205897,0.0951 -2.600017,-0.01 z m -18.20017,-0.16937 c 0,-0.0476 -0.12499,-0.2289 -0.27776,-0.40289 -0.25269,-0.2878 -0.2628,-0.32166 -0.11207,-0.37514 0.0911,-0.0323 0.81122,-0.33975 1.60019,-0.68316 1.02384,-0.44563 1.61415,-0.64919 2.06209,-0.71105 0.96376,-0.13311 4.50898,-0.0364 5.42315,0.14791 1.09303,0.2204 1.1166,0.24987 0.46334,0.57963 -1.28339,0.64785 -3.31836,1.14692 -5.68221,1.39354 -1.48763,0.1552 -3.47673,0.18447 -3.47673,0.0512 z m 23.338186,-0.84919 c -0.41103,-0.19137 -0.47743,-0.2611 -0.56765,-0.59616 -0.16338,-0.60675 0.0491,-1.35075 0.4698,-1.64546 0.26264,-0.18396 0.82945,-0.17823 1.15087,0.0117 0.734324,0.43377 0.382344,1.35477 -0.36923,0.96612 -0.19691,-0.10183 -0.31235,-0.11813 -0.37723,-0.0533 -0.24782,0.24782 0.63477,0.66087 0.997434,0.46678 0.25345,-0.13564 0.45363,-0.45038 0.49333,-0.77567 0.0414,-0.3396 1.07478,-2.41073 1.81911,-3.64611 0.58354,-0.96852 1.54531,-2.32656 1.72737,-2.43907 0.15531,-0.096 0.12177,1.57897 -0.0445,2.22355 -0.20926,0.81111 -0.69379,1.66532 -1.3681,2.41193 -0.61406,0.67989 -1.62599,1.9105 -2.14739,2.61143 -0.30742,0.41326 -0.746224,0.68337 -1.107714,0.68186 -0.11582,-5.3e-4 -0.42005,-0.0984 -0.67607,-0.21759 z M 71.52516,117.6767 c -0.15955,-0.11095 -0.44083,-0.40822 -0.62505,-0.6606 -0.34076,-0.46681 -1.33693,-1.68824 -2.20323,-2.70142 -0.58601,-0.68539 -1.01821,-1.54853 -1.19147,-2.37948 -0.14106,-0.67655 -0.13395,-1.90167 0.0111,-1.90167 0.12367,0 0.87365,1.01751 1.56499,2.12324 0.76354,1.22121 1.97662,3.64161 1.97673,3.94407 4e-5,0.13182 0.10453,0.36381 0.23219,0.51552 0.28006,0.33283 0.6528,0.36427 1.09834,0.0926 0.24858,-0.15155 0.28067,-0.2051 0.18907,-0.31548 -0.0974,-0.11737 -0.13473,-0.11696 -0.31866,0.004 -0.31924,0.20918 -0.64958,0.17423 -0.76588,-0.081 -0.17201,-0.37752 -0.0263,-0.6716 0.43357,-0.87502 0.35395,-0.15656 0.4627,-0.16823 0.75423,-0.0809 0.45865,0.13742 0.72999,0.5346 0.78038,1.14236 0.0559,0.67371 -0.0939,0.97891 -0.58779,1.19736 -0.53365,0.23605 -0.98687,0.22826 -1.34845,-0.0232 z m 24.50228,-0.14486 c -2.09179,-0.88483 -4.54018,-2.27079 -6.2311,-3.52725 -0.95629,-0.7106 -3.14857,-2.86178 -2.9753,-2.91954 0.16007,-0.0533 1.35953,0.22532 2.30288,0.53502 2.01368,0.6611 5.59425,2.70472 7.736127,4.41542 0.73586,0.58773 0.83816,0.72587 0.943129,1.27357 0.0523,0.27261 0.0389,0.28736 -0.384549,0.42587 -0.24127,0.0789 -0.47143,0.1423 -0.51148,0.14086 -0.04,-10e-4 -0.43592,-0.15622 -0.879707,-0.34395 z m -21.74158,0.12243 c -0.12328,-0.0705 -0.29613,-0.12956 -0.38412,-0.1313 -0.14064,-0.003 -0.15272,-0.0601 -0.0999,-0.47388 0.033,-0.25888 0.0647,-0.47467 0.0703,-0.47954 0.56646,-0.48836 2.13586,-1.6538 2.99071,-2.22093 1.94135,-1.28792 3.8772,-2.27923 5.61491,-2.87525 0.73871,-0.25338 2.22089,-0.6053 2.28391,-0.54228 0.0644,0.0643 -0.68049,0.89924 -1.4629,1.63986 -1.36347,1.29064 -3.15041,2.52083 -5.34895,3.68239 -0.95706,0.50564 -3.23407,1.53923 -3.37555,1.53224 -0.0353,-0.002 -0.16514,-0.0608 -0.28842,-0.13131 z m 11.92425,-2.11522 v -1.17384 l 0.4683,0.42105 c 0.25756,0.23157 0.86271,0.65423 1.34479,0.93925 l 0.8765,0.51821 -0.60514,0.0647 c -0.33282,0.0356 -0.90409,0.14117 -1.26948,0.23458 -0.36539,0.0934 -0.69824,0.16984 -0.73966,0.16984 -0.0414,0 -0.0753,-0.52822 -0.0753,-1.17383 z m -1.25519,0.98176 c -0.31406,-0.12758 -1.47901,-0.34586 -1.84584,-0.34586 -0.16824,0 -0.30591,-0.0337 -0.30591,-0.075 0,-0.0412 0.35741,-0.28654 0.79424,-0.54511 0.43683,-0.25857 1.00166,-0.65158 1.25518,-0.87336 l 0.46095,-0.40323 v 1.17248 c 0,0.64486 -0.0302,1.16992 -0.0672,1.1668 -0.037,-0.003 -0.16811,-0.0466 -0.29139,-0.0967 z m 7.21731,-0.17 c -0.29586,-0.0367 -0.98795,-0.0711 -1.53796,-0.0765 l -1.00002,-0.01 -0.7931,-0.41659 c -1.26105,-0.66239 -2.24273,-1.38628 -2.12915,-1.57005 0.0675,-0.10931 1.67112,-0.0926 2.34306,0.0244 0.45824,0.0798 0.73884,0.20854 1.39701,0.64095 0.45298,0.29759 1.20661,0.75697 1.67473,1.02084 0.46813,0.26387 0.79089,0.47383 0.71725,0.46658 -0.0736,-0.007 -0.37595,-0.0432 -0.67182,-0.0799 z m 4.572447,-0.73253 c -0.54241,-0.43719 -1.174767,-0.9245 -1.405237,-1.08291 -0.48973,-0.33663 -1.20596,-1.41932 -2.14775,-3.24667 -0.57892,-1.12328 -1.2436,-2.83212 -1.2436,-3.19719 0,-0.15306 0.0741,-0.1254 0.56035,0.20928 1.56453,1.07675 3.891737,3.95115 5.402026,6.67219 l 0.25347,0.45666 -0.18489,0.39507 c -0.10169,0.21729 -0.19912,0.43858 -0.21652,0.49176 -0.0174,0.0532 -0.475429,-0.26101 -1.017849,-0.69819 z M 73.74759,116.1077 c -1.8e-4,-0.0863 -0.0824,-0.2915 -0.1827,-0.45602 l -0.18237,-0.29911 0.32992,-0.59745 c 0.51096,-0.92528 1.91813,-3.02511 2.59335,-3.86988 1.07797,-1.34865 3.12955,-3.21841 3.32115,-3.02681 0.0282,0.0282 -0.0945,0.48882 -0.27267,1.02354 -0.65314,1.96001 -2.24886,4.7945 -3.07098,5.45503 -1.24644,1.00144 -2.44048,1.9276 -2.48514,1.9276 -0.0276,0 -0.0504,-0.0706 -0.0505,-0.1569 z m 5.02107,0.13259 c 0.0247,-0.0273 0.34742,-0.22013 0.71725,-0.42858 0.36983,-0.20845 1.06882,-0.63951 1.55331,-0.95792 0.76262,-0.50119 0.97326,-0.59538 1.56897,-0.70162 0.71163,-0.12691 1.6611,-0.14988 2.11243,-0.0511 l 0.2588,0.0566 -0.39853,0.36705 c -0.39268,0.36168 -1.2137,0.87695 -2.09151,1.31265 -0.38518,0.19118 -0.61865,0.23038 -1.65863,0.27847 -0.66569,0.0308 -1.41209,0.0825 -1.65864,0.11499 -0.24655,0.0325 -0.4281,0.0367 -0.40345,0.009 z m 21.41138,-0.73393 c -0.13229,-0.11496 -0.285034,-0.22385 -0.339404,-0.24198 -0.0581,-0.0194 -0.13784,-0.4996 -0.19323,-1.16295 -0.0905,-1.08382 -0.085,-1.16505 0.13394,-1.98769 0.451874,-1.69775 1.283154,-3.62622 2.050174,-4.75618 0.20891,-0.30777 0.38891,-0.49114 0.43593,-0.44412 0.14753,0.14753 0.19673,1.66663 0.0851,2.62821 -0.18416,1.58676 -0.83768,3.79404 -1.63968,5.53808 l -0.29231,0.63566 z m -29.3364,-0.60427 c -0.7325,-1.60738 -1.28849,-3.37112 -1.53475,-4.86858 -0.13483,-0.81989 -0.16719,-2.77447 -0.0527,-3.18279 0.0611,-0.21781 0.0721,-0.21148 0.39034,0.22414 0.7604,1.04087 1.58212,2.90856 2.11569,4.80876 0.25941,0.92385 0.26128,0.94714 0.16648,2.0749 -0.0528,0.6273 -0.12585,1.14055 -0.16249,1.14055 -0.0367,0 -0.19123,0.10485 -0.34353,0.23301 l -0.27691,0.233 z m 26.829437,-0.82243 -0.68541,-1.19109 -0.16087,-1.15856 c -0.20121,-1.44924 -0.22653,-4.30059 -0.0484,-5.45388 l 0.12335,-0.79874 0.16663,0.21597 c 0.30016,0.38905 0.885999,1.6704 1.193709,2.61091 0.51536,1.57515 0.97493,4.03947 1.09335,5.86278 l 0.0588,0.90592 -0.3934,0.048 c -0.21637,0.0264 -0.45391,0.0709 -0.52788,0.0989 -0.0986,0.0373 -0.31764,-0.26735 -0.819899,-1.14018 z M 73.0077,115.09159 c -0.0866,-0.0504 -0.31859,-0.0982 -0.51552,-0.106 -0.41371,-0.0165 -0.39584,0.0669 -0.26641,-1.24427 0.14592,-1.47828 0.51776,-3.56607 0.85293,-4.78901 0.34465,-1.25751 0.66079,-2.06242 1.16226,-2.95914 0.39712,-0.71012 0.4411,-0.67872 0.57795,0.41264 0.22982,1.83287 0.018,5.7034 -0.35552,6.49669 -0.14081,0.29905 -0.98619,1.79371 -1.22817,2.17145 -0.05,0.0781 -0.11515,0.0831 -0.22752,0.0177 z m 13.20239,-1.92901 c 1e-5,-0.39937 0.0258,-1.03132 0.0573,-1.40433 l 0.0573,-0.6782 0.39266,0.52236 c 0.21597,0.28731 0.80829,0.91926 1.31627,1.40434 l 0.92359,0.88197 H 87.58361 86.21 Z m -2.71286,-0.25789 c 0.55032,-0.52362 1.18412,-1.1962 1.40844,-1.49463 l 0.40787,-0.54258 v 1.48991 1.48992 l -0.24655,-0.065 c -0.33713,-0.0889 -1.97826,-0.0876 -2.30501,0.002 -0.21145,0.0579 -0.0621,-0.12067 0.73525,-0.87941 z m 10.11183,0.4721 c -0.3932,-0.25078 -1.12852,-0.67487 -1.63402,-0.94242 -0.8191,-0.43353 -0.96799,-0.55159 -1.3683,-1.08504 -0.71335,-0.9506 -1.22,-1.98824 -0.97081,-1.98824 0.21908,0 1.44741,0.62982 2.23523,1.14611 0.65533,0.42946 0.81842,0.58708 1.05761,1.02217 0.15554,0.28292 0.515,0.869 0.7988,1.30239 0.60566,0.92488 0.66088,1.01395 0.62411,1.00656 -0.0152,-0.003 -0.34942,-0.21076 -0.74262,-0.46153 z M 77.203,113.65921 c 0.0295,-0.0477 0.30989,-0.47273 0.62315,-0.94453 0.31325,-0.47181 0.68326,-1.07501 0.82224,-1.34046 0.21445,-0.40959 0.37495,-0.56296 1.06063,-1.01349 0.8715,-0.57263 1.399,-0.8576 1.94233,-1.0493 0.45648,-0.16106 0.45479,-0.0537 -0.0133,0.84287 -0.6048,1.1585 -1.07817,1.66062 -2.01326,2.13551 -0.44623,0.22663 -1.18575,0.64696 -1.64337,0.93408 -0.45762,0.28711 -0.80792,0.48301 -0.77845,0.43532 z m -7.93884,-1.63089 c -0.17205,-0.30106 -0.51899,-0.83737 -0.77096,-1.19179 -0.43444,-0.61108 -0.46039,-0.67958 -0.50178,-1.32469 -0.0402,-0.62637 -0.0312,-0.67366 0.11276,-0.59658 0.3249,0.17388 0.88795,0.91615 0.94098,1.2405 0.0293,0.17932 0.16644,0.79 0.30473,1.35708 0.13829,0.56707 0.24596,1.0382 0.23927,1.04695 -0.007,0.009 -0.15295,-0.23041 -0.325,-0.53147 z m 32.7739,0.4259 c 0.0314,-0.0986 0.15526,-0.62311 0.27524,-1.16553 0.11999,-0.54241 0.23846,-1.07801 0.26328,-1.1902 0.0505,-0.22818 0.60421,-0.87618 0.87052,-1.0187 0.16615,-0.0889 0.17049,-0.0658 0.10958,0.58408 -0.0605,0.64505 -0.0933,0.72237 -0.70319,1.65506 -0.35188,0.53813 -0.69215,1.05405 -0.75615,1.14651 -0.11165,0.16128 -0.11405,0.16082 -0.0593,-0.0112 z m -27.08958,-0.44828 c 0.098,-0.49905 0.3236,-2.50209 0.3236,-2.87279 0,-0.44714 0.49246,-1.20164 1.35407,-2.07458 0.70189,-0.71112 0.76936,-0.64887 0.62486,0.57639 -0.14219,1.20565 -0.45765,2.08469 -0.98694,2.75016 -0.23838,0.29972 -0.64379,0.84754 -0.9009,1.21737 -0.36998,0.53215 -0.45647,0.61631 -0.41469,0.40345 z m 20.78902,-0.89745 c -0.88994,-1.18875 -1.0986,-1.61196 -1.31769,-2.67264 -0.15057,-0.72896 -0.18914,-1.76444 -0.0657,-1.76444 0.11169,0 1.18271,1.14313 1.56137,1.6665 0.312867,0.43243 0.334867,0.50932 0.423267,1.47932 0.0513,0.56275 0.13663,1.31913 0.18966,1.68084 0.053,0.36171 0.083,0.67084 0.0667,0.68696 -0.0164,0.0161 -0.40225,-0.46833 -0.857577,-1.07654 z m -23.68256,0.89745 c -0.006,-0.0986 -0.23358,-0.83732 -0.50575,-1.64154 l -0.49487,-1.46224 0.099,-1.00331 c 0.1042,-1.05636 0.27475,-1.99549 0.44255,-2.43684 0.11505,-0.30259 0.12577,-0.29264 0.53357,0.49531 0.34898,0.6743 0.64551,1.68563 0.66217,2.25839 0.008,0.26013 -0.0965,0.9571 -0.23132,1.54883 -0.13479,0.59173 -0.30118,1.37846 -0.36975,1.7483 -0.0685,0.36982 -0.12956,0.59172 -0.13555,0.4931 z m 27.262736,-0.60781 c -0.0589,-0.40537 -0.20797,-1.15314 -0.33137,-1.66171 -0.27235,-1.12244 -0.27847,-1.48211 -0.04,-2.34956 0.19186,-0.69795 0.77003,-1.97063 0.89525,-1.97063 0.183364,0 0.508954,1.58012 0.588304,2.85499 l 0.0539,0.86573 -0.491194,1.46078 c -0.27014,0.80342 -0.50843,1.47802 -0.52951,1.4991 -0.0211,0.0211 -0.0865,-0.29334 -0.14533,-0.6987 z M 89.24939,111.277 c -0.62134,-0.21629 -1.43833,-0.44236 -1.81553,-0.50237 -0.3772,-0.06 -0.68476,-0.13029 -0.68347,-0.15615 0.003,-0.0602 2.33358,-1.37494 2.36365,-1.33337 0.0124,0.0171 0.11234,0.2716 0.22208,0.56549 0.10975,0.29388 0.39542,0.82845 0.63483,1.18794 0.2394,0.35948 0.42918,0.64868 0.42172,0.64266 -0.007,-0.006 -0.52193,-0.18791 -1.14328,-0.4042 z m -7.7777,-0.1726 c 0.35907,-0.49253 0.7135,-1.16814 0.87561,-1.66908 l 0.10655,-0.32922 1.04881,0.59021 c 1.537,0.86493 1.48467,0.77844 0.57807,0.95554 -0.65482,0.12792 -2.04348,0.54411 -2.75489,0.82567 -0.1381,0.0546 -0.10582,-0.0279 0.14585,-0.37312 z m 10.4764,-0.90436 c -0.52942,-0.36794 -1.36563,-0.81043 -1.86037,-0.98445 -0.25888,-0.0911 -0.47069,-0.18672 -0.47069,-0.21259 0,-0.0589 1.88605,-1.10765 1.91284,-1.06369 0.0108,0.0177 0.0883,0.30569 0.17233,0.64006 0.084,0.33437 0.2583,0.87177 0.3873,1.19422 0.129,0.32245 0.22056,0.59938 0.20346,0.6154 -0.0171,0.016 -0.17229,-0.069 -0.34487,-0.18895 z m -12.40502,-0.74425 c 0.16566,-0.44101 0.3453,-1.00751 0.39921,-1.25888 l 0.098,-0.45703 0.37282,0.21784 c 0.20504,0.11982 0.65197,0.37101 0.99317,0.55821 0.58524,0.3211 0.60808,0.34524 0.40345,0.42641 -0.67261,0.26681 -1.44576,0.6503 -1.9385,0.96149 -0.30813,0.1946 -0.57579,0.35382 -0.59479,0.35382 -0.019,0 0.10098,-0.36083 0.26663,-0.80186 z m 4.7693,0.0707 -1.2253,-0.71326 0.46424,-0.64706 c 0.25533,-0.35589 0.58264,-0.90841 0.72735,-1.22783 l 0.26309,-0.58075 0.10792,0.62759 c 0.14737,0.85704 0.35782,1.64152 0.66944,2.49537 0.14422,0.39517 0.2524,0.72765 0.2404,0.73885 -0.012,0.0112 -0.57321,-0.30061 -1.24714,-0.69291 z m 1.92407,0.4332 c 0.29322,-0.76413 0.6308,-1.93248 0.75772,-2.62249 0.0855,-0.46482 0.17605,-0.84498 0.20122,-0.84479 0.0251,1.7e-4 0.12443,0.19182 0.22058,0.42586 0.0962,0.23404 0.39074,0.74284 0.65466,1.13066 0.26391,0.38782 0.46766,0.71357 0.45278,0.72389 -0.076,0.0526 -1.94003,1.1176 -2.12516,1.21411 -0.18583,0.0969 -0.20799,0.0931 -0.1618,-0.0272 z m 17.55518,-0.15355 c 0.005,-0.12152 0.0384,-0.3218 0.0744,-0.44508 0.0638,-0.21835 0.0673,-0.21635 0.13485,0.0771 0.052,0.22616 0.0335,0.33715 -0.0745,0.44508 -0.13194,0.13194 -0.14304,0.12559 -0.13484,-0.0772 z m -36.15833,-0.064 c -0.10741,-0.12438 -0.1165,-0.22194 -0.0438,-0.4707 0.0504,-0.17258 0.10279,-0.25327 0.11642,-0.17931 0.0333,0.18027 0.0921,0.80691 0.0759,0.80691 -0.007,0 -0.0739,-0.0706 -0.14842,-0.1569 z m 18.08408,-0.24655 c -0.25163,-0.57367 -0.66173,-2.30973 -0.80173,-3.3939 -0.29294,-2.26877 -0.25972,-5.00601 0.0913,-7.522907 0.13714,-0.983264 0.1421,-0.996244 0.50249,-1.316065 l 0.36398,-0.323007 0.34688,0.317078 c 0.33542,0.306604 0.35131,0.348128 0.481,1.257202 0.53234,3.731469 0.32458,7.842279 -0.52716,10.430259 l -0.29948,0.90996 z m 16.94461,-1.35905 v -1.29573 l 0.20159,0.25151 c 0.11088,0.13834 0.34927,0.53186 0.52976,0.8745 0.30862,0.58585 0.31833,0.62859 0.16292,0.71724 -0.0909,0.0519 -0.32928,0.24141 -0.52976,0.42125 l -0.36451,0.32696 z m -8.87594,0.71788 c -0.29587,-0.27422 -0.79165,-0.6805 -1.10175,-0.90285 l -0.56381,-0.40427 0.85694,-0.48276 c 0.47132,-0.26553 0.87633,-0.48277 0.90002,-0.48277 0.0237,0 0.0431,0.24377 0.0431,0.54171 0,0.5602 0.22049,1.80021 0.36967,2.07895 0.12042,0.22501 0.0956,0.20784 -0.50415,-0.34801 z m -25.19333,0.14385 c -0.14794,-0.15763 -0.38141,-0.33515 -0.51885,-0.3945 l -0.24987,-0.10789 0.32751,-0.63669 c 0.18013,-0.35017 0.43378,-0.76419 0.56367,-0.92004 l 0.23617,-0.28336 -0.0238,0.88196 c -0.0131,0.48508 -0.0333,1.07662 -0.0448,1.31454 l -0.0211,0.43257 z m 8.85224,-0.47816 c 0.0895,-0.35108 0.17047,-0.9692 0.17989,-1.37361 l 0.0172,-0.73527 0.69796,0.37665 c 0.38387,0.20716 0.7818,0.43977 0.88427,0.51691 0.18349,0.13812 0.1807,0.14398 -0.18295,0.38463 -0.2031,0.13441 -0.68198,0.51993 -1.06417,0.85671 l -0.69488,0.61232 z m 4.21606,-0.55472 -0.99612,-0.58543 0.40185,-0.37041 c 0.22101,-0.20373 0.60851,-0.63548 0.86109,-0.95945 0.25258,-0.32397 0.48225,-0.61677 0.51039,-0.65067 0.0282,-0.0339 0.0561,0.47041 0.0621,1.1207 0.006,0.65028 0.0542,1.36279 0.10703,1.58336 0.0528,0.22056 0.0857,0.41144 0.0729,0.42417 -0.0127,0.0127 -0.47141,-0.24029 -1.01927,-0.56227 z m 7.43579,0.16294 c 0.0511,-0.18491 0.11845,-0.87163 0.14967,-1.52603 l 0.0568,-1.18982 0.47356,0.62163 c 0.26046,0.3419 0.63365,0.76627 0.82932,0.94304 0.19566,0.17677 0.35575,0.33837 0.35575,0.35912 0,0.0357 -1.86833,1.12827 -1.92929,1.12827 -0.0158,0 0.0131,-0.15129 0.0642,-0.33621 z m 11.5648,-0.60383 c -0.0614,-0.51705 -0.20532,-1.26343 -0.31979,-1.65864 -0.1476,-0.50962 -0.17643,-0.71855 -0.0991,-0.71855 0.18275,0 1.32419,0.61126 1.64815,0.88262 l 0.30473,0.25525 -0.36337,0.48452 c -0.19986,0.26649 -0.51215,0.75686 -0.694,1.0897 -0.18183,0.33285 -0.33834,0.60518 -0.34778,0.60518 -0.009,0 -0.0674,-0.42303 -0.12881,-0.94008 z m -30.14397,0.33192 c -0.12181,-0.23061 -0.43051,-0.7112 -0.686,-1.06797 l -0.46455,-0.64868 0.42515,-0.31209 c 0.42537,-0.31225 1.14662,-0.70051 1.49715,-0.80594 0.1863,-0.056 0.1863,-0.056 -0.0164,0.55029 -0.11149,0.33348 -0.26679,1.0678 -0.34512,1.63182 -0.0783,0.56402 -0.15287,1.03593 -0.16562,1.04868 -0.0127,0.0128 -0.12283,-0.1655 -0.24463,-0.39611 z m 12.428,0.32246 c -0.0196,-0.0648 -0.0619,-0.19769 -0.0942,-0.29539 -0.0322,-0.0977 -0.0574,-0.80698 -0.0559,-1.57616 l 0.003,-1.39851 0.787,-1.52536 0.787,-1.52537 -1.8e-4,2.02565 -1.7e-4,2.02565 -0.27575,0.63395 c -0.26584,0.61117 -0.86531,1.59909 -1.03335,1.70295 -0.0448,0.0277 -0.0975,-0.003 -0.11706,-0.0674 z m 5.29806,-0.4868 c -0.21945,-0.33944 -0.51385,-0.87941 -0.65422,-1.19993 l -0.2552,-0.58276 -0.002,-2.02867 -0.002,-2.02867 0.68181,1.33137 c 0.375,0.73225 0.72274,1.38291 0.77276,1.4459 0.24243,0.30531 0.19254,3.34472 -0.0591,3.59629 -0.0517,0.0517 -0.2358,-0.15175 -0.48264,-0.53353 z m 7.62908,0.0761 c -0.18306,-0.24005 -0.57617,-0.66855 -0.87357,-0.95222 -0.29741,-0.28368 -0.54074,-0.53112 -0.54074,-0.54987 0,-0.13369 2.024327,-1.09673 2.114917,-1.00614 0.0268,0.0267 0.003,0.21732 -0.0524,0.42353 -0.0555,0.20621 -0.14921,0.85782 -0.20819,1.44803 l -0.10723,1.07311 z m -20.59961,-0.3346 c -0.007,-0.68575 -0.1776,-1.87521 -0.31971,-2.22934 -0.0576,-0.14369 -0.0368,-0.15827 0.14817,-0.10353 0.2628,0.0778 1.36566,0.61061 1.75253,0.84673 l 0.28207,0.17216 -0.68921,0.70182 c -0.37906,0.386 -0.7966,0.84302 -0.92786,1.01561 l -0.23865,0.3138 z m 23.048706,0.0369 c -0.13801,-0.46062 -0.636619,-1.53063 -0.944089,-2.02596 l -0.23296,-0.37529 0.38269,-0.0505 c 0.502109,-0.0663 1.080309,-0.0901 1.654919,-0.0683 l 0.46531,0.0177 -0.39912,0.75026 c -0.21951,0.41264 -0.47205,1.03743 -0.56118,1.38841 -0.0891,0.35097 -0.18305,0.65914 -0.20872,0.68481 -0.0257,0.0257 -0.0963,-0.11883 -0.15685,-0.32109 z M 72.92217,107.09597 c -0.0843,-0.35671 -0.3327,-0.99872 -0.55193,-1.42669 -0.32152,-0.62766 -0.37281,-0.78802 -0.2652,-0.82932 0.31736,-0.12178 2.27048,-0.0102 2.27048,0.12975 0,0.0365 -0.13942,0.29783 -0.30981,0.58079 -0.17039,0.28297 -0.43452,0.82243 -0.58696,1.19881 -0.15243,0.37637 -0.30552,0.75427 -0.3402,0.83977 -0.0428,0.10542 -0.11239,-0.0533 -0.21638,-0.49311 z m 6.31688,-0.58392 c -0.45595,-0.27909 -0.82664,-0.52885 -0.82375,-0.55501 0.003,-0.0262 0.28877,-0.22912 0.63528,-0.45102 0.34651,-0.2219 0.82829,-0.61285 1.07061,-0.86878 0.24233,-0.25593 0.44059,-0.45083 0.44059,-0.43311 0,0.0177 -0.0636,0.28064 -0.14143,0.58427 -0.0778,0.30362 -0.18887,0.92983 -0.24685,1.39157 l -0.10544,0.83953 z m 1.35556,-0.33361 c 0.11963,-1.72912 1.01408,-4.32343 2.36473,-6.858679 0.77289,-1.450773 0.90006,-1.632127 1.10006,-1.568652 0.0947,0.03004 0.31471,0.01525 0.48899,-0.03287 0.36165,-0.09985 0.36246,-0.09782 0.2331,0.584289 -0.0461,0.242958 -0.14827,0.998243 -0.22711,1.678412 -0.13696,1.18176 -0.16363,1.27713 -0.60068,2.1481 -0.89385,1.7813 -2.17268,3.67463 -3.03791,4.49768 l -0.377,0.35862 z m 9.93132,0.17352 c -0.74113,-0.80789 -1.91203,-2.57176 -2.6446,-3.9839 l -0.58138,-1.1207 -0.14623,-1.290442 c -0.0804,-0.709744 -0.18443,-1.491897 -0.23113,-1.738115 -0.0467,-0.246217 -0.0849,-0.47822 -0.0849,-0.515559 0,-0.03734 0.16814,-0.03011 0.37364,0.01607 0.20551,0.04617 0.42596,0.06388 0.48989,0.03935 0.1553,-0.0596 0.34986,0.229866 1.04928,1.561104 1.46886,2.795782 2.45471,5.780982 2.37306,7.185772 l -0.0272,0.46824 -0.57043,-0.62181 z m 1.02923,-0.0576 c -0.0527,-0.56677 -0.23147,-1.50178 -0.3782,-1.97778 -0.0269,-0.0871 0.15251,0.0544 0.39858,0.31464 0.24608,0.26019 0.75137,0.67191 1.12286,0.91493 l 0.67544,0.44186 -0.82494,0.47358 c -0.45372,0.26046 -0.84942,0.47478 -0.87932,0.47627 -0.0299,0.001 -0.0814,-0.28809 -0.11442,-0.6435 z m 2.24116,-1.03486 c -0.0481,-0.35495 -0.38835,-1.4365 -0.63126,-2.00629 -0.0414,-0.0972 0.2528,0.012 0.88155,0.32715 0.51906,0.26019 1.14683,0.52513 1.39505,0.58875 0.24821,0.0636 0.45005,0.13829 0.44852,0.16595 -0.006,0.11441 -1.84864,1.35031 -2.01288,1.35031 -0.0129,0 -0.0493,-0.19164 -0.081,-0.42587 z m -17.03475,-0.299 -0.97605,-0.6321 0.70708,-0.24527 c 0.3889,-0.1349 1.01976,-0.40933 1.40192,-0.60985 0.38216,-0.20052 0.69482,-0.35975 0.6948,-0.35384 -1e-5,0.006 -0.13647,0.39401 -0.30325,0.86246 -0.16677,0.46846 -0.33168,1.0232 -0.36648,1.23277 -0.0348,0.20957 -0.09,0.38034 -0.12261,0.37948 -0.0326,-8.7e-4 -0.49858,-0.286 -1.03541,-0.63365 z m 1.46916,0.45216 c 0,-0.35649 0.2808,-1.28428 0.60009,-1.98279 0.26985,-0.59033 0.38251,-0.73496 0.77675,-0.99707 0.2536,-0.16862 0.85572,-0.61527 1.33802,-0.99255 0.48231,-0.37728 0.89354,-0.68596 0.91385,-0.68596 0.0203,0 -0.13809,0.39473 -0.352,0.87718 -0.2139,0.48244 -0.43911,1.04472 -0.50047,1.2495 -0.20891,0.69731 -1.42522,1.96689 -2.41995,2.52597 l -0.35629,0.20024 z m 14.60541,-0.18702 c -0.70655,-0.45534 -1.67871,-1.44156 -1.9423,-1.9704 -0.15827,-0.31753 -0.48516,-1.07963 -1.08693,-2.53406 -0.0188,-0.0455 0.21242,0.12249 0.51393,0.3734 0.3015,0.25092 0.94671,0.74074 1.4338,1.0885 l 0.8856,0.63228 0.37549,0.94273 c 0.32627,0.81914 0.56907,1.83762 0.43807,1.83762 -0.0239,0 -0.30182,-0.16653 -0.61766,-0.37007 z m -17.73405,-1.56061 c -0.22352,-0.25458 -0.99554,-1.63106 -0.99554,-1.77502 0,-0.0186 0.39337,-0.0566 0.87415,-0.0844 0.49054,-0.0284 1.12819,-0.13091 1.45306,-0.23355 0.3184,-0.10059 0.59407,-0.16774 0.6126,-0.14921 0.0185,0.0185 -0.17594,0.30043 -0.43216,0.62645 -0.25621,0.32602 -0.63803,0.89494 -0.8485,1.26426 l -0.38267,0.67148 z m 1.05828,-0.28163 c 0.90659,-1.70094 3.28194,-4.079041 6.05361,-6.060646 l 0.71082,-0.508197 0.17173,0.288814 c 0.0944,0.15885 0.24598,0.349337 0.33674,0.423302 0.15702,0.127955 0.13291,0.190351 -0.49654,1.285148 -0.36387,0.632865 -0.67389,1.180321 -0.68895,1.216569 -0.049,0.11799 -1.35159,1.13258 -2.22393,1.73223 -1.36887,0.94096 -2.98121,1.79606 -3.93266,2.08568 -0.2106,0.0641 -0.21016,0.0612 0.0692,-0.4629 z m 19.04725,0.32214 c -1.28048,-0.49244 -3.22325,-1.65514 -4.75635,-2.84657 -0.94438,-0.73391 -0.91372,-0.69619 -1.71267,-2.107624 l -0.60089,-1.061555 0.38272,-0.398684 0.38272,-0.398685 0.60315,0.429195 c 1.88903,1.344224 4.04206,3.309423 5.08678,4.643023 0.56791,0.72495 1.29027,1.93154 1.1512,1.92294 -0.0415,-0.002 -0.283,-0.0845 -0.53666,-0.18204 z m 0.77839,-0.32882 c -0.15185,-0.28353 -0.48707,-0.79408 -0.74492,-1.13455 -0.25786,-0.34047 -0.51953,-0.68646 -0.58148,-0.76887 -0.0942,-0.12531 -0.006,-0.11412 0.53794,0.0684 0.4305,0.14439 0.946277,0.2345 1.524717,0.26639 0.48078,0.0265 0.87327,0.0726 0.87221,0.10238 -0.009,0.24004 -1.12435,1.9802 -1.2704,1.98133 -0.0341,1.8e-4 -0.18623,-0.23151 -0.338067,-0.51504 z M 74.4604,101.20928 c 0.24162,-0.33933 1.11377,-1.07792 2.06686,-1.750337 0.56287,-0.397113 0.77467,-0.491667 1.30001,-0.580367 0.34518,-0.05828 1.02842,-0.204011 1.51832,-0.323845 0.4899,-0.119836 0.90446,-0.204146 0.92125,-0.187356 0.0168,0.0168 -0.16214,0.186732 -0.39761,0.377652 -0.23548,0.190919 -0.8331,0.739172 -1.32804,1.218338 -0.87497,0.847085 -0.92318,0.879015 -1.74079,1.152935 -0.60552,0.20287 -1.07966,0.29598 -1.69389,0.33262 l -0.85299,0.0509 z m 21.20841,0.12938 c -1.09378,-0.2412 -1.52564,-0.46639 -2.2632,-1.18016 -0.38249,-0.37016 -0.98866,-0.91804 -1.34703,-1.21751 -0.35836,-0.299467 -0.6355,-0.560567 -0.61585,-0.580219 0.0196,-0.01965 0.4339,0.06465 0.92055,0.187334 0.48665,0.122686 1.16724,0.271163 1.51241,0.32995 0.51115,0.08705 0.74765,0.18955 1.27467,0.552444 0.82715,0.569571 1.913617,1.495791 2.114877,1.802951 l 0.156,0.23809 -0.60725,-0.007 c -0.33398,-0.004 -0.849307,-0.0605 -1.145177,-0.12575 z m -21.78686,-0.18092 c -0.0949,-0.3206 -0.14708,-1.969245 -0.0661,-2.085863 0.0623,-0.08968 0.22768,-0.09257 0.78992,-0.01378 0.39454,0.05529 0.98938,0.07256 1.33619,0.0388 l 0.62508,-0.06085 -0.58025,0.426156 c -0.31914,0.234386 -0.91135,0.752117 -1.31604,1.150507 -0.63671,0.62682 -0.74291,0.7002 -0.78883,0.54503 z m 23.355837,-0.34936 c -0.27121,-0.29077 -0.79569,-0.76899 -1.165517,-1.062706 -0.36983,-0.293723 -0.71277,-0.572333 -0.76208,-0.619135 -0.0567,-0.05385 0.12431,-0.06363 0.49311,-0.02665 0.320517,0.03215 0.885247,0.01601 1.254967,-0.03587 0.4354,-0.06109 0.702919,-0.06361 0.759379,-0.0071 0.11259,0.11258 0.11175,1.968991 -6.7e-4,2.145681 -0.0697,0.10926 -0.178249,0.0354 -0.578889,-0.39419 z m -22.720467,-2.098086 -0.26165,-0.06292 0.4858,-0.374566 c 1.4371,-1.108075 3.88077,-1.979314 6.72837,-2.39886 0.52409,-0.07722 1.07559,-0.140394 1.22555,-0.140394 0.26853,0 0.27133,0.0048 0.18567,0.315001 -0.0479,0.17325 -0.0666,0.347911 -0.0418,0.388134 0.0249,0.04023 -0.39208,0.382122 -0.92653,0.759776 -0.913,0.645139 -1.03332,0.702419 -1.99067,0.947662 -0.56042,0.143561 -1.40222,0.327987 -1.87067,0.409837 -0.92287,0.161248 -3.11113,0.258046 -3.5341,0.156332 z m 20.34459,0.01225 c -0.91572,-0.11046 -2.20007,-0.352706 -3.08242,-0.581386 -0.94272,-0.244327 -1.08931,-0.313142 -1.9276,-0.904891 -0.499,-0.35225 -0.91199,-0.642822 -0.91776,-0.645719 -0.006,-0.0029 -0.0316,-0.202026 -0.0575,-0.442514 l -0.047,-0.43725 0.59544,0.05919 c 1.35618,0.134813 3.2677,0.538945 4.51843,0.955281 0.89776,0.298839 2.305347,1.008538 2.935707,1.480159 l 0.58276,0.436016 -0.26897,0.0596 c -0.28218,0.06253 -1.869547,0.07718 -2.331057,0.02151 z M 73.97714,98.312733 c 0.11371,-0.367047 0.50432,-1.091885 0.82688,-1.53439 0.25028,-0.343351 0.3327,-0.40602 0.39279,-0.298649 0.0641,0.114496 0.48896,0.306591 1.06103,0.479707 0.0794,0.02403 -0.12184,0.17531 -0.49372,0.371158 -0.34526,0.18183 -0.90274,0.522944 -1.23886,0.758032 -0.52494,0.367171 -0.60222,0.398773 -0.54812,0.224142 z m 23.079337,-0.320531 c -0.27011,-0.181675 -0.77332,-0.479277 -1.118237,-0.661341 -0.38269,-0.201996 -0.57489,-0.348027 -0.49311,-0.37465 0.0737,-0.024 0.29541,-0.09214 0.49265,-0.151431 0.197237,-0.05929 0.423287,-0.164094 0.502317,-0.232897 0.12653,-0.110148 0.17092,-0.08396 0.37151,0.219149 0.27706,0.418681 0.80821,1.459253 0.76626,1.501203 -0.0166,0.01665 -0.25129,-0.118357 -0.52139,-0.300033 z M 83.82419,97.353091 c -0.50201,-0.21361 -0.7788,-0.955172 -0.53354,-1.429454 0.1195,-0.231071 0.19847,-0.279859 0.45307,-0.279859 0.33801,0 0.49395,0.180441 0.49395,0.571578 0,0.267176 0.16536,0.398643 0.28225,0.224397 0.12962,-0.193231 0.0147,-0.709798 -0.21145,-0.950555 -0.22449,-0.238969 -0.37482,-0.24078 -1.46046,-0.0176 -0.34725,0.07138 -1.45963,0.113557 -3.13796,0.118967 -2.43578,0.0079 -3.45176,-0.0511 -3.45176,-0.200307 0,-0.127915 0.97278,-0.6398 1.64418,-0.86518 0.96179,-0.322863 1.83566,-0.372291 3.24467,-0.183524 0.63961,0.08569 1.34448,0.218847 1.56638,0.295905 0.22193,0.07707 0.74641,0.146808 1.16572,0.155004 0.97971,0.01915 1.39095,0.199056 1.62302,0.710026 0.20393,0.448998 0.21701,1.020351 0.0295,1.288064 -0.28929,0.413025 -1.28671,0.741611 -1.70757,0.562534 z m 3.1603,-0.04753 c -0.19048,-0.0679 -0.46281,-0.235063 -0.60518,-0.371464 -0.21869,-0.209518 -0.25884,-0.318444 -0.25872,-0.701924 1.7e-4,-0.557381 0.22235,-1.022742 0.58939,-1.234473 0.15566,-0.0898 0.62415,-0.197566 1.07587,-0.24749 1.08977,-0.12044 1.86901,-0.238862 3.08136,-0.468274 0.90276,-0.170831 1.11821,-0.182433 1.79313,-0.09657 0.42189,0.05367 0.98983,0.181319 1.26209,0.283655 0.58421,0.219599 1.45084,0.726638 1.49907,0.877065 0.0621,0.193906 -0.78631,0.253027 -3.47341,0.242024 -1.7431,-0.0071 -2.7977,-0.04818 -3.09314,-0.120368 -1.2511,-0.305711 -1.56019,-0.189348 -1.63762,0.616527 -0.0412,0.428401 -0.0293,0.470849 0.12363,0.441846 0.11971,-0.0227 0.17785,-0.12348 0.1989,-0.344785 0.0381,-0.400026 0.15584,-0.537562 0.46045,-0.537562 0.7208,0 0.72534,1.285056 0.006,1.657118 -0.32004,0.165499 -0.56736,0.166631 -1.02167,0.0047 z m -11.0794,-0.710985 c -0.16962,-0.06129 -0.31832,-0.148991 -0.33046,-0.194905 -0.0121,-0.04591 0.23595,-0.206777 0.55132,-0.357474 0.53308,-0.254729 0.6162,-0.269239 1.18219,-0.206329 0.33484,0.03722 0.95172,0.07189 1.37086,0.07704 l 0.76208,0.0094 -0.72845,0.215476 c -0.40066,0.118513 -0.94532,0.297898 -1.21036,0.398635 -0.53756,0.204315 -1.13274,0.225994 -1.59718,0.05818 z m 18.23957,-0.07035 c -0.24655,-0.09739 -0.77104,-0.272672 -1.16552,-0.389508 l -0.71725,-0.21243 0.8069,-0.01525 c 0.44379,-0.0084 1.06608,-0.0408 1.38284,-0.07201 0.51918,-0.05117 0.63127,-0.03026 1.13736,0.212205 0.30878,0.147932 0.550897,0.309313 0.538027,0.358624 -0.0384,0.147246 -0.606437,0.303959 -1.085797,0.299564 -0.24655,-0.0023 -0.65001,-0.0838 -0.89656,-0.181189 z M 75.61583,95.888165 c 0.20219,-0.211926 0.3545,-0.298779 0.4707,-0.268396 0.0945,0.02471 0.17176,0.05971 0.17176,0.07778 0,0.01807 -0.21181,0.138852 -0.47069,0.268396 l -0.47069,0.235532 z m 20.20988,0.02699 c -0.42836,-0.194445 -0.45439,-0.231288 -0.2087,-0.295535 0.11267,-0.02947 0.25813,0.0445 0.42022,0.213683 0.291747,0.304522 0.284877,0.307177 -0.21152,0.08185 z"
       id="path2853"
       inkscape:connector-curvature="0" />
  </g>
</svg>
