<?xml version="1.0" encoding="UTF-8" standalone="no"?>
<!-- Created with Inkscape (http://www.inkscape.org/) -->

<svg
   width="150mm"
   height="100mm"
   viewBox="0 0 150 100"
   version="1.1"
   id="svg5"
   inkscape:version="1.2 (dc2aedaf03, 2022-05-15)"
   sodipodi:docname="kyoto.svg"
   xmlns:inkscape="http://www.inkscape.org/namespaces/inkscape"
   xmlns:sodipodi="http://sodipodi.sourceforge.net/DTD/sodipodi-0.dtd"
   xmlns="http://www.w3.org/2000/svg"
   xmlns:svg="http://www.w3.org/2000/svg">
  <sodipodi:namedview
     id="namedview7"
     pagecolor="#ffffff"
     bordercolor="#666666"
     borderopacity="1.0"
     inkscape:showpageshadow="2"
     inkscape:pageopacity="0.0"
     inkscape:pagecheckerboard="0"
     inkscape:deskcolor="#d1d1d1"
     inkscape:document-units="mm"
     showgrid="false"
     inkscape:zoom="0.26362494"
     inkscape:cx="-616.40601"
     inkscape:cy="546.23056"
     inkscape:window-width="1920"
     inkscape:window-height="1017"
     inkscape:window-x="-8"
     inkscape:window-y="-8"
     inkscape:window-maximized="1"
     inkscape:current-layer="layer1" />
  <defs
     id="defs2" />
  <g
     inkscape:label="Layer 1"
     inkscape:groupmode="layer"
     id="layer1"
     transform="translate(-10.645162,-60.677647)">
    <rect
       width="150"
       height="100"
       x="10.645162"
       y="60.677647"
       id="rect2532"
       style="fill:#ffffff;stroke:none;stroke-width:0.166666" />
    <path
       d="m 80.473294,81.208895 c -8.36744,1.48328 -15.51322,6.445 -19.91667,13.34376 l 10.00521,4.93229 c 2.57725,-3.471 6.3147,-6.02984 10.64063,-7.09376 l -0.72917,-11.14583 c -6.3e-4,-0.0125 3.4e-4,-0.024 0,-0.0365 z m 10.5,0 c -3.3e-4,0.0125 6.3e-4,0.024 0,0.0365 l -0.72916,11.14584 c 4.30359,1.05811 8.02795,3.59347 10.604166,7.03646 l 9.96873,-4.91667 c -4.39008,-6.87454 -11.502076,-11.82165 -19.843736,-13.30209 z m -14.60417,14.88542 -1.0625,2.98958 3.39584,3.562495 2.78645,-1.80208 -1.96354,-4.442705 z m 18.82813,0.0469 -3.15104,0.36459 -1.8125,4.515615 2.72396,1.71876 3.35938,-3.635425 z m 16.979166,0.71876 -9.21875,6.161445 c 1.05314,2.35131 1.64062,4.95565 1.64062,7.69792 0,1.80237 -0.257,3.53909 -0.72916,5.18229 l 9.84374,4.85417 c 0.0297,0.0146 0.0607,0.0297 0.0885,0.0469 1.11951,-3.1446 1.72916,-6.53844 1.72916,-10.08333 0,-4.99854 -1.20886,-9.71421 -3.35416,-13.859375 z m -52.973956,0.0573 c -2.13668,4.132335 -3.34896,8.824525 -3.34896,13.802075 0,3.52757 0.61022,6.90461 1.72396,10.03646 10e-4,-6.3e-4 0.004,6.3e-4 0.005,0 l 9.97395,-4.91667 c -0.45906,-1.624 -0.70832,-3.34166 -0.70832,-5.11979 0,-2.71359 0.57642,-5.28809 1.60937,-7.6198 z m 11.21875,10.427075 -1.94792,2.5 1.94792,2.5 4.70833,-0.67709 v -3.27083 z m 30.604156,0.16666 -4.708316,1.03125 v 3.25001 l 4.708316,0.71874 1.94792,-2.5 z m -21.505206,11.85938 -2.96354,3.70312 1.19272,2.9375 3.13541,-0.4375 1.42709,-4.71874 z m 12.41147,0.0625 -2.88021,1.51042 1.42708,4.70833 3.125,0.52604 1.27084,-2.90625 z m -19.86459,4.23437 -9.23437,6.17708 c -0.0133,0.009 -0.028,0.0127 -0.0417,0.0209 5.20183,6.20597 12.89534,10.24782 21.57813,10.63021 l -0.73438,-11.18229 c -4.53093,-0.49041 -8.58228,-2.55449 -11.56771,-5.64583 z m 27.2448,0.0625 c -2.97894,3.05431 -7.00203,5.09641 -11.5,5.58333 l -0.73438,11.18229 c 8.65865,-0.3821 16.320906,-4.40356 21.505206,-10.58333 -0.0417,-0.0199 -0.0807,-0.0418 -0.1198,-0.0677 z"
       id="path2489-1"
       style="fill:#610051;stroke:none;stroke-width:0.166666" />
    <path
       id="path13"
       style="fill:#bae1e6;fill-opacity:1;fill-rule:nonzero;stroke:#000000;stroke-width:0.166666"
       d="m 89.087874,74.941315 c -0.1287,-0.006 -0.25378,0.009 -0.36458,0.0469 -2.40773,0.83379 -2.76042,6.34114 -4.33463,6.29622 -0.11834,-0.003 -0.0697,0.005 0.0986,0.0225 -0.22667,0.01 -0.45323,0.0221 -0.67968,0.0371 0.12392,-0.0236 0.52285,-0.10236 0.42024,-0.0804 -1.47851,0.31575 -1.17383,-3.34571 -3.97981,-5.6836 -0.31381,-0.26106 -0.70118,-0.16016 -1.4069,-0.0377 -0.73763,0.1276 -0.94141,6.85156 -2.46875,7.23372 -0.12236,0.0306 -0.0486,0.0212 0.1455,-0.013 -0.13795,0.0455 -0.27569,0.0914 -0.41309,0.139 -1.18617,0.16053 -1.99834,-3.08349 -5.11588,-4.4782 -0.37304,-0.16666 -0.71809,0.0358 -1.36458,0.34441 -0.67578,0.32291 -0.92318,0.4681 -1.05078,0.86523 -0.79739,2.48781 1.91795,5.88793 0.54427,6.77344 -0.006,5e-4 -0.0237,0.0121 -0.0573,0.0377 -0.0362,0.0226 -0.0409,0.0291 -0.028,0.0264 -1.00384,1.00507 -2.65412,-2.22135 -6.23437,-2.75032 -0.40365,-0.0593 -0.68165,0.22917 -1.22006,0.70117 -0.56315,0.49349 -0.76237,0.69987 -0.77734,1.11654 -0.0963,2.64843 3.54283,5.22201 2.4095,6.23958 -0.0233,0.0285 -0.0349,0.0462 -0.0384,0.056 -0.83722,1.2194 -3.29098,-1.40576 -6.85873,-0.94857 -0.40494,0.0521 -0.59505,0.40495 -0.98567,1.00521 -0.40821,0.62695 -0.54362,0.88021 -0.44597,1.28516 0.60015,2.47565 4.50124,3.95088 4.1364,5.24804 -0.0629,0.13711 -0.12456,0.27458 -0.18522,0.41244 -0.70877,0.94742 -3.62407,-0.64182 -6.75131,0.68587 -0.3763,0.15951 -0.46354,0.550125 -0.67708,1.233715 -0.22331,0.71484 -0.28516,0.9948 -0.0814,1.35873 1.19957,2.13551 5.08815,2.55462 5.39974,3.87207 -0.0346,0.21434 -0.0669,0.42897 -0.0967,0.64388 -0.61915,1.05756 -3.82503,0.34461 -6.45605,2.4528 -0.31901,0.25521 -0.29688,0.65495 -0.31772,1.37109 -0.0215,0.74805 -0.006,1.03451 0.28907,1.32943 1.76392,1.7627 5.73103,1.05759 6.38542,2.17676 0.0205,0.1842 0.0428,0.36821 0.0667,0.55208 -0.32154,1.14071 -3.58971,1.27212 -5.59408,3.97038 -0.24348,0.32812 -0.1211,0.70898 0.041,1.4069 0.16862,0.72916 0.25651,1.0026 0.61719,1.21289 2.1211,1.23861 5.70211,-0.38078 6.75228,0.43652 0.0779,0.19679 0.15823,0.39281 0.24056,0.58822 -0.16952,1.14171 -3.21915,2.16619 -4.403,5.26692 -0.14518,0.38087 0.0755,0.71485 0.41992,1.3431 0.36003,0.65625 0.51888,0.89519 0.92253,1 2.42033,0.62982 5.49491,-2.00165 6.69271,-1.31673 0.12556,0.16587 0.25327,0.33069 0.38281,0.49447 0.26998,1.13245 -2.36493,2.94249 -2.66406,6.23177 -0.0371,0.4069 0.26628,0.66797 0.76757,1.17969 0.52409,0.5345 0.74154,0.72135 1.15886,0.71354 2.60533,-0.0512 4.93643,-3.70241 6.0179,-2.93489 0.0163,0.0125 0.0328,0.0247 0.0491,0.0371 -0.0739,-0.0355 -0.0428,-0.0147 0.056,0.0423 0.0499,0.0377 0.0997,0.0756 0.14974,0.11295 0.83982,0.89878 -1.3941,3.4181 -0.76887,6.79199 0.0749,0.40169 0.4375,0.57096 1.05859,0.92773 0.64909,0.37305 0.90951,0.49414 1.30859,0.3737 2.34594,-0.70932 3.59638,-4.41797 4.89388,-4.43326 0.19399,0.0787 0.39326,0.13889 0.58854,0.21321 0.99452,0.79092 -0.4234,3.78582 1.07423,6.83008 0.18033,0.36653 0.57552,0.43164 1.27018,0.60677 0.72591,0.18359 1.00911,0.22981 1.36068,0.006 2.19738,-1.4009 2.28406,-5.73528 3.80533,-5.66536 0.12617,0.0127 0.25132,0.0361 0.37761,0.0472 1.10168,0.39421 0.55459,3.64414 2.80729,6.16373 0.27213,0.30403 0.67057,0.26042 1.38607,0.24284 0.74869,-0.0189 1.03385,-0.0502 1.3125,-0.36068 1.76887,-1.9733 0.62044,-6.27981 2.25455,-6.38021 -0.11977,0.047 -0.0424,0.0266 0.15007,-0.0332 -0.004,5e-4 -0.009,3.3e-4 -0.013,0.001 0.008,-0.001 0.0158,-0.003 0.0237,-0.004 -0.003,6.3e-4 -0.008,0.003 -0.0108,0.004 1.29166,-0.16611 1.55152,3.31012 4.51985,5.20117 0.34441,0.2194 0.71615,0.0697 1.4004,-0.14128 0.71549,-0.2207 0.98111,-0.32813 1.16536,-0.70247 1.13378,-2.30544 -0.96713,-5.98189 0.24154,-6.72526 0.14617,-0.0696 0.29257,-0.13881 0.43782,-0.21094 1.333866,-0.37131 2.559126,2.70067 5.802406,3.67969 0.39063,0.11783 0.70769,-0.1263 1.3099,-0.51497 0.6289,-0.4056 0.85612,-0.58138 0.93164,-0.99154 0.48177,-2.60546 -2.74225,-5.68295 -1.44499,-6.66602 l -0.002,0.001 c 0.002,-0.001 0.003,-0.003 0.005,-0.004 -0.0485,0.0626 -0.03,0.0452 0.0466,-0.0423 0.0327,-0.0296 0.0647,-0.0604 0.0973,-0.0902 1.03023,-0.75171 3.05645,2.0157 6.53515,2.08269 0.40821,0.008 0.64779,-0.31315 1.12175,-0.85026 0.49609,-0.56055 0.66667,-0.79102 0.62891,-1.20638 -0.22937,-2.51252 -3.8066,-4.52739 -3.38998,-5.80925 0.0921,-0.14251 0.18407,-0.28497 0.27344,-0.42871 0.91934,-0.81934 3.56648,1.16807 6.84765,0.31348 0.39519,-0.10352 0.53842,-0.47722 0.84962,-1.1224 0.32552,-0.67382 0.42773,-0.94206 0.27864,-1.33138 -0.89809,-2.34999 -4.86625,-3.32302 -4.8584,-4.71354 0.0522,-0.17008 0.10295,-0.34058 0.15202,-0.51139 0.68211,-1.00029 3.75743,0.18317 6.67578,-1.52182 0.35222,-0.20637 0.38868,-0.60481 0.51433,-1.30989 0.13086,-0.73763 0.1569,-1.02344 -0.0918,-1.35807 -1.47573,-1.98506 -5.45077,-1.88475 -5.96159,-3.18164 0.006,-0.20917 0.008,-0.41838 0.009,-0.62761 0.48963,-1.09578 3.73685,-0.81257 6.06576,-3.22396 0.28321,-0.29427 0.21094,-0.68749 0.14062,-1.40039 -0.0736,-0.74544 -0.12565,-1.02734 -0.45572,-1.28255 -1.92675,-1.48768 -5.63627,-0.37688 -6.60645,-1.31054 -0.0556,-0.2258 -0.11406,-0.4511 -0.17513,-0.67578 0.36336,-1.11603 3.49033,-1.74961 5.05436,-4.653645 0.19336,-0.36002 0.0169,-0.71941 -0.24349,-1.38672 -0.27278,-0.69727 -0.39908,-0.95443 -0.7858,-1.11068 -2.28402,-0.92172 -5.60533,1.21174 -6.806,0.39714 -0.11123,-0.1962 -0.22471,-0.39147 -0.34081,-0.58561 -0.0629,-1.21824 2.82204,-2.67138 3.5485,-5.92025 0.0892,-0.39844 -0.17839,-0.69662 -0.60937,-1.26888 -0.45118,-0.597 -0.64259,-0.8112 -1.05729,-0.85677 -2.4689,-0.27154 -5.11284,2.73457 -6.45834,2.21517 -0.14204,-0.14051 -0.28422,-0.28061 -0.42839,-0.41765 l -3.3e-4,-3.3e-4 c -0.37586,-1.05861 2.03053,-3.24239 1.84929,-6.58236 -0.0221,-0.40754 -0.36003,-0.62239 -0.92969,-1.05598 -0.5957,-0.45313 -0.83789,-0.60743 -1.24935,-0.53907 -2.42437,0.40266 -4.14503,3.93606 -5.724276,3.74057 -0.19866,-0.10962 -0.39803,-0.21728 -0.59864,-0.32194 -0.59983,-0.91262 1.122116,-3.66453 0.0449,-6.82879 -0.13151,-0.38612 -0.51497,-0.50201 -1.18099,-0.76504 -0.69596,-0.27538 -0.97071,-0.35742 -1.34831,-0.18034 -2.39908,1.12501 -3.02474,5.53777 -4.52799,5.06836 -0.21308,-0.0665 0.15758,0.0777 0.7832,0.31576 -0.43547,-0.11232 -0.87293,-0.21456 -1.31217,-0.30664 0.22241,0.0185 0.66946,0.054 0.53743,0.0456 -1.50911,-0.0957 -0.22461,-3.53841 -2.29362,-6.54817 -0.17333,-0.25244 -0.59308,-0.4473 -0.97916,-0.4642 z m -19.97494,11.4961 c -0.0145,0.01 -0.0292,0.0196 -0.0437,0.0296 0.005,-0.006 0.0121,-0.0127 0.0159,-0.0173 0.007,-0.003 0.019,-0.009 0.0276,-0.0123 z m 16.53224,0.98307 a 23.629487,23.25722 0 0 1 23.629546,23.257155 23.629487,23.25722 0 0 1 -23.629546,23.25717 23.629487,23.25722 0 0 1 -23.62957,-23.25717 23.629487,23.25722 0 0 1 23.62957,-23.257155 z m -22.4629,4.41862 c -0.0123,0.0147 -0.0246,0.0293 -0.0368,0.044 -0.002,0.003 0.0279,-0.0453 0.0257,-0.0416 10e-4,0.001 0.006,-5e-4 0.0111,-0.003 z m 27.86557,47.793285 c -0.0211,0.004 -0.0431,0.0103 -0.0648,0.0159 0.003,-0.002 0.004,-0.003 0.002,-0.004 0.0209,-0.004 0.0419,-0.008 0.0628,-0.0114 z" />
    <path
       d="m 85.723294,77.510985 -4.25,3.66666 1.44792,22.062495 c -1.1421,0.42828 -2.15934,1.11145 -2.98438,1.97917 l -24.79687,-12.223955 22.95833,15.348955 c -0.23336,0.74995 -0.35937,1.54846 -0.35937,2.375 0,0.39878 0.0321,0.78874 0.0885,1.17187 l -19.80209,9.76042 -1.05208,5.51042 5.30209,1.84896 18.27082,-12.21355 c 0.95798,0.8169 2.11158,1.41108 3.38022,1.70313 l 1.79687,27.34375 1.79687,-27.34375 c 1.23891,-0.28521 2.36809,-0.8583 3.31251,-1.64584 l 18.187496,12.15626 5.29686,-1.84896 -1.04686,-5.51042 -19.661456,-9.69271 c 0.0632,-0.40468 0.099,-0.81721 0.099,-1.23958 0,-0.85793 -0.13995,-1.68366 -0.39062,-2.45834 L 116.15037,92.995355 91.457674,105.16723 c -0.81585,-0.84246 -1.81361,-1.5076 -2.93229,-1.92709 l 1.44791,-22.062495 z m 0,30.791655 c 1.288,0 2.33333,1.12867 2.33333,2.41667 0,1.288 -1.04533,2.35417 -2.33333,2.35417 -1.288,0 -2.41666,-1.06617 -2.41666,-2.35417 0,-1.288 1.12866,-2.41667 2.41666,-2.41667 z"
       id="path2491-8"
       style="fill:#ffd700;stroke:none;stroke-width:0.166666" />
  </g>
</svg>
