<?xml version="1.0" encoding="UTF-8" standalone="no"?>
<!-- Created with Inkscape (http://www.inkscape.org/) -->

<svg
   width="150mm"
   height="100mm"
   viewBox="0 0 150 100"
   version="1.1"
   id="svg5"
   inkscape:version="1.2 (dc2aedaf03, 2022-05-15)"
   sodipodi:docname="azanianpeoplesrepublic.svg"
   xml:space="preserve"
   xmlns:inkscape="http://www.inkscape.org/namespaces/inkscape"
   xmlns:sodipodi="http://sodipodi.sourceforge.net/DTD/sodipodi-0.dtd"
   xmlns="http://www.w3.org/2000/svg"
   xmlns:svg="http://www.w3.org/2000/svg"><sodipodi:namedview
     id="namedview7"
     pagecolor="#ffffff"
     bordercolor="#666666"
     borderopacity="1.0"
     inkscape:showpageshadow="2"
     inkscape:pageopacity="0.0"
     inkscape:pagecheckerboard="0"
     inkscape:deskcolor="#d1d1d1"
     inkscape:document-units="mm"
     showgrid="false"
     inkscape:zoom="0.37282197"
     inkscape:cx="-295.04699"
     inkscape:cy="386.24333"
     inkscape:window-width="1920"
     inkscape:window-height="1017"
     inkscape:window-x="-8"
     inkscape:window-y="-8"
     inkscape:window-maximized="1"
     inkscape:current-layer="layer1" /><defs
     id="defs2" /><g
     inkscape:label="Layer 1"
     inkscape:groupmode="layer"
     id="layer1"
     transform="translate(-10.645162,-60.677647)"><rect
       style="fill:#ffcc00;fill-opacity:1;stroke:none;stroke-width:6.38754;stroke-linecap:round;stroke-linejoin:round"
       id="rect401"
       width="150"
       height="100"
       x="10.645162"
       y="60.677647" /><path
       inkscape:connector-curvature="0"
       style="fill:#000000;fill-opacity:1;stroke:none;stroke-width:0;stroke-miterlimit:4;stroke-dasharray:none;stroke-opacity:1"
       d="m 98.742684,138.22203 c -1.361481,-0.0476 -1.829592,-0.11895 -1.894611,-0.28839 -0.09675,-0.25211 0.06368,-1.6136 0.660823,-5.60825 0.223778,-1.497 0.549127,-3.76651 0.722987,-5.04336 0.173866,-1.27686 0.428086,-2.98914 0.564952,-3.80509 0.136864,-0.81595 0.198264,-1.57247 0.136454,-1.68113 -0.305774,-0.53758 -1.820063,-2.80092 -4.149162,-6.20159 -4.485613,-6.54934 -6.906238,-10.15053 -7.178299,-10.67919 -0.41788,-0.81202 -0.320761,-1.15958 0.740205,-2.64912 0.548598,-0.7702 1.32166,-1.87183 1.717923,-2.448096 1.990021,-2.893951 5.571961,-7.939126 5.87183,-8.270473 0.144025,-0.159145 0.388745,-0.289357 0.543835,-0.289357 0.25642,0 9.812279,4.153468 11.513789,5.004482 0.45516,0.227652 0.77214,0.51458 0.866,0.783848 0.17458,0.500911 -0.168,3.201256 -0.4561,3.595266 -0.21955,0.30025 -0.84947,0.43066 -3.81986,0.79087 -2.84591,0.34509 -3.1951,0.23844 -4.865966,-1.486253 -0.634528,-0.654964 -1.222356,-1.14841 -1.306274,-1.096553 -0.181664,0.112271 0.165696,1.545246 0.500514,2.064796 0.657427,1.02016 0.403993,1.4959 -0.910669,1.70949 -1.003057,0.16294 -1.383345,0.37668 -1.124548,0.63202 0.08366,0.0825 1.281093,0.57617 2.660976,1.09695 1.855597,0.70032 2.615127,1.06771 2.916887,1.41096 0.2244,0.25526 0.41029,0.5078 0.41307,0.56122 0.003,0.0534 0.35716,0.70183 0.7875,1.44095 6.62663,11.38141 6.47743,11.10938 6.35697,11.58934 -0.0606,0.24137 -0.46878,0.64372 -1.06128,1.04608 -0.52955,0.35961 -0.91796,0.72645 -0.86311,0.81517 0.0548,0.0888 0.47094,0.13883 0.92466,0.11137 l 0.82497,-0.0499 -0.0391,1.52102 c -0.0215,0.83656 -0.22065,3.71849 -0.44259,6.40427 -0.66109,8.00035 -0.71357,8.5378 -0.85631,8.76874 -0.12937,0.20933 -6.36024,0.36898 -9.756513,0.24999 z m 11.614756,-0.0234 c -0.63617,-0.0731 -0.80054,-0.51214 -0.69034,-1.84335 0.32458,-3.92097 0.58308,-6.83695 0.65532,-7.39218 0.0458,-0.35222 0.22331,-2.14757 0.39442,-3.98965 0.1711,-1.84206 0.38354,-3.4217 0.4721,-3.51024 0.10795,-0.10802 0.40106,-0.10605 0.88935,0.006 0.40058,0.0916 0.76375,0.10939 0.80704,0.0393 0.0433,-0.0701 -0.34288,-0.83495 -0.85815,-1.6998 -0.51527,-0.86487 -1.46192,-2.47307 -2.10367,-3.5738 -0.64174,-1.10074 -1.32887,-2.2535 -1.52695,-2.56172 -0.19808,-0.3082 -1.2795,-2.13217 -2.40317,-4.05327 -1.41473,-2.41874 -1.9918,-3.54414 -1.87647,-3.65947 0.11534,-0.11531 0.602,-0.10863 1.58248,0.0219 1.1452,0.15232 1.82921,0.37337 3.57738,1.15609 3.44907,1.54427 3.54242,1.60479 5.38242,3.49006 1.13591,1.16384 1.83869,1.76396 2.06568,1.76396 0.37277,0 1.03389,-0.43777 4.06716,-2.69309 1.08714,-0.80832 2.04129,-1.46969 2.12031,-1.46969 0.3189,0 0.29913,0.56534 -0.10455,2.98867 -0.98795,5.93057 -2.13891,8.81713 -4.58619,11.50185 l -1.12446,1.23352 0.0944,6.92668 c 0.0864,6.34341 0.0719,6.94532 -0.17278,7.148 -0.20623,0.17085 -0.94616,0.22133 -3.24406,0.22133 -1.63729,0 -3.17506,-0.0228 -3.41726,-0.0507 z m 4.78194,-28.14228 c -1.17025,-1.2514 -1.39723,-1.57504 -1.28085,-1.82644 0.0778,-0.16804 0.79658,-1.01145 1.59735,-1.87425 0.80078,-0.8628 1.76035,-1.921 2.13234,-2.35159 0.37203,-0.43057 0.7788,-0.88525 0.90395,-1.0104 0.12515,-0.12517 0.95483,-1.04632 1.84375,-2.04706 0.88894,-1.000731 1.70876,-1.855022 1.82184,-1.898429 0.39841,-0.152885 4.09035,4.178689 4.09035,4.799019 0,0.22245 -0.51262,0.67878 -3.75336,3.34135 -1.39335,1.14477 -3.15422,2.60317 -3.91302,3.2409 -0.7588,0.63775 -1.52376,1.15688 -1.69988,1.15368 -0.19352,-0.003 -0.88291,-0.6076 -1.74247,-1.52678 z m -5.29634,-3.36516 c -1.22959,-0.57122 -2.27103,-1.07398 -2.31432,-1.11728 -0.21979,-0.21979 0.59503,-1.42428 4.22694,-6.248313 4.47663,-5.946024 4.58897,-6.080095 4.93108,-5.88436 0.51605,0.295218 4.59805,4.366472 4.59805,4.585916 0,0.357568 -0.17104,0.561689 -5.93239,7.080017 -0.934,1.05669 -1.83453,2.08338 -2.00119,2.28151 -0.46896,0.5575 -1.05939,0.44012 -3.50817,-0.69749 z m -6.89049,-2.64558 c -2.69186,-1.01106 -3.036203,-1.20125 -2.81696,-1.55587 0.10943,-0.177 0.29942,-0.18137 1.05625,-0.0243 1.00595,0.20884 1.91308,0.13791 4.08226,-0.31928 2.94883,-0.62148 3.16922,-0.57478 2.63186,0.55761 -0.3417,0.72008 -1.8399,2.32671 -2.15747,2.31363 -0.12883,-0.006 -1.387,-0.44264 -2.79594,-0.97184 z m 6.56666,-5.644868 c 0.0705,-1.127959 0.0535,-1.931166 -0.0446,-2.106415 -0.0872,-0.155784 -0.97791,-0.686264 -1.97939,-1.178845 -1.06495,-0.523789 -1.84076,-1.003726 -1.86883,-1.156089 -0.0462,-0.250646 3.67087,-6.020835 4.03345,-6.261391 0.55018,-0.365016 0.96165,-0.08288 3.4313,2.352727 l 2.50987,2.475262 -0.25369,0.453506 c -0.13954,0.249425 -1.14852,1.603199 -2.2422,3.008391 -1.09369,1.405192 -2.2732,2.933154 -2.62112,3.395453 -0.97886,1.300659 -1.09976,1.177519 -0.9648,-0.982599 z m -5.52597,-5.02914 c -0.97677,-0.328018 -5.867117,-2.500931 -5.961139,-2.648701 -0.185162,-0.291003 -0.189598,-0.282816 1.106427,-2.040536 0.676137,-0.916999 1.731482,-2.351726 2.345232,-3.188284 1.38983,-1.894412 1.85479,-2.401602 2.20162,-2.401602 0.3199,0 1.77189,1.03744 3.63659,2.598335 1.10334,0.923576 1.31058,1.16965 1.2278,1.457861 -0.12999,0.45266 -3.91846,6.158257 -4.14362,6.240491 -0.095,0.0347 -0.28081,0.02679 -0.41291,-0.01757 z"
       id="path5187" /><rect
       style="fill:#008000;fill-opacity:1;stroke-width:10;paint-order:fill markers stroke"
       id="rect17606"
       width="50"
       height="100"
       x="10.645162"
       y="60.677647" /><path
       sodipodi:type="star"
       style="fill:#ff0000;fill-opacity:1;stroke:#ffffff;stroke-width:10;paint-order:fill markers stroke"
       id="path17660-9"
       inkscape:flatsided="false"
       sodipodi:sides="5"
       sodipodi:cx="-574.00049"
       sodipodi:cy="30.845821"
       sodipodi:r1="104.64195"
       sodipodi:r2="39.763943"
       sodipodi:arg1="-1.5707963"
       sodipodi:arg2="-0.9424778"
       inkscape:rounded="0"
       inkscape:randomized="0"
       d="m -574.00049,-73.796131 23.37266,72.4722469 76.14775,-0.1664335 -61.70265,44.6238726 23.68924,72.369385 -61.507,-44.893176 -61.507,44.893176 23.68924,-72.369384 -61.70265,-44.6238789 76.14775,0.1664389 z"
       transform="matrix(0.12169613,0,0,0.12169613,105.4988,141.04882)"
       inkscape:transform-center-x="-4.2758847e-06"
       inkscape:transform-center-y="-1.2160383" /><path
       sodipodi:type="star"
       style="fill:#ff0000;fill-opacity:1;stroke:#ffffff;stroke-width:10;paint-order:fill markers stroke"
       id="path17660-9-3"
       inkscape:flatsided="false"
       sodipodi:sides="5"
       sodipodi:cx="-574.00049"
       sodipodi:cy="30.845821"
       sodipodi:r1="104.64195"
       sodipodi:r2="39.763943"
       sodipodi:arg1="-1.5707963"
       sodipodi:arg2="-0.9424778"
       inkscape:rounded="0"
       inkscape:randomized="0"
       d="m -574.00049,-73.796131 23.37266,72.4722469 76.14775,-0.1664335 -61.70265,44.6238726 23.68924,72.369385 -61.507,-44.893176 -61.507,44.893176 23.68924,-72.369384 -61.70265,-44.6238789 76.14775,0.1664389 z"
       transform="matrix(0.12169613,0,0,0.12169613,105.4988,72.798831)"
       inkscape:transform-center-x="-4.2758847e-06"
       inkscape:transform-center-y="-1.2160383" /><path
       sodipodi:type="star"
       style="fill:#ff0000;fill-opacity:1;stroke:#ffffff;stroke-width:10;paint-order:fill markers stroke"
       id="path17660-9-3-0"
       inkscape:flatsided="false"
       sodipodi:sides="5"
       sodipodi:cx="-574.00049"
       sodipodi:cy="30.845821"
       sodipodi:r1="104.64195"
       sodipodi:r2="39.763943"
       sodipodi:arg1="-1.5707963"
       sodipodi:arg2="-0.9424778"
       inkscape:rounded="0"
       inkscape:randomized="0"
       d="m -574.00049,-73.796131 23.37266,72.4722469 76.14775,-0.1664335 -61.70265,44.6238726 23.68924,72.369385 -61.507,-44.893176 -61.507,44.893176 23.68924,-72.369384 -61.70265,-44.6238789 76.14775,0.1664389 z"
       transform="matrix(0.12169613,0,0,0.12169613,105.4988,106.92383)"
       inkscape:transform-center-x="-4.2758847e-06"
       inkscape:transform-center-y="-1.2160383" /></g></svg>
