<?xml version="1.0" encoding="UTF-8" standalone="no"?>
<!-- Created with Inkscape (http://www.inkscape.org/) -->

<svg
   width="150mm"
   height="100mm"
   viewBox="0 0 150 100"
   version="1.1"
   id="svg5"
   inkscape:version="1.2 (dc2aedaf03, 2022-05-15)"
   sodipodi:docname="khrysodont.svg"
   xmlns:inkscape="http://www.inkscape.org/namespaces/inkscape"
   xmlns:sodipodi="http://sodipodi.sourceforge.net/DTD/sodipodi-0.dtd"
   xmlns="http://www.w3.org/2000/svg"
   xmlns:svg="http://www.w3.org/2000/svg">
  <sodipodi:namedview
     id="namedview7"
     pagecolor="#ffffff"
     bordercolor="#666666"
     borderopacity="1.0"
     inkscape:showpageshadow="2"
     inkscape:pageopacity="0.0"
     inkscape:pagecheckerboard="0"
     inkscape:deskcolor="#d1d1d1"
     inkscape:document-units="mm"
     showgrid="false"
     inkscape:zoom="0.125"
     inkscape:cx="2788"
     inkscape:cy="-1176"
     inkscape:window-width="1920"
     inkscape:window-height="1017"
     inkscape:window-x="-8"
     inkscape:window-y="-8"
     inkscape:window-maximized="1"
     inkscape:current-layer="layer1" />
  <defs
     id="defs2">
    <inkscape:path-effect
       effect="spiro"
       id="path-effect1829"
       is_visible="true"
       lpeversion="1" />
    <inkscape:path-effect
       effect="spiro"
       id="path-effect1029"
       is_visible="true"
       lpeversion="1" />
    <inkscape:path-effect
       effect="spiro"
       id="path-effect929"
       is_visible="true"
       lpeversion="1" />
    <inkscape:path-effect
       effect="spiro"
       id="path-effect925"
       is_visible="true"
       lpeversion="1" />
    <inkscape:path-effect
       effect="spiro"
       id="path-effect1029-7"
       is_visible="true"
       lpeversion="1" />
  </defs>
  <g
     inkscape:label="Layer 1"
     inkscape:groupmode="layer"
     id="layer1"
     transform="translate(-10.645162,-60.677647)">
    <rect
       style="fill:#000000;fill-opacity:1;stroke:none;stroke-width:6.38754;stroke-linecap:round;stroke-linejoin:round"
       id="rect401"
       width="150"
       height="100"
       x="10.645162"
       y="60.677647" />
    <g
       id="g1825" />
    <g
       id="g2207"
       transform="matrix(0.54585046,0,0,0.54585046,140.74964,46.082278)">
      <circle
         style="fill:none;stroke:#d4aa00;stroke-width:10;stroke-linecap:square;stroke-opacity:1;paint-order:fill markers stroke"
         id="path392"
         cx="-100.95161"
         cy="118.33894"
         r="23.951612" />
      <circle
         style="fill:#d4aa00;stroke:none;stroke-width:10;stroke-linecap:square;paint-order:fill markers stroke"
         id="path550"
         cx="-100.95161"
         cy="118.33894"
         r="5.9435453" />
      <path
         sodipodi:type="star"
         style="fill:#d4aa00;fill-opacity:1;stroke:none;stroke-width:10;stroke-linecap:square;paint-order:fill markers stroke"
         id="path660"
         inkscape:flatsided="false"
         sodipodi:sides="3"
         sodipodi:cx="-504.97876"
         sodipodi:cy="-43.622578"
         sodipodi:r1="29.805113"
         sodipodi:r2="59.610226"
         sodipodi:arg1="0.52359878"
         sodipodi:arg2="1.5707963"
         inkscape:rounded="0"
         inkscape:randomized="0"
         d="m -479.16677,-28.720021 -25.81199,44.707669 -25.81198,-44.707669 -25.81199,-44.707668 51.62397,-2e-6 51.62397,-10e-7 z"
         transform="matrix(0.13016091,0,0,-0.26458333,-35.223113,71.825399)" />
      <path
         id="path1827"
         style="fill:#d5aa00;fill-opacity:1;stroke:none;stroke-width:0.264583px;stroke-linecap:butt;stroke-linejoin:miter;stroke-opacity:1"
         d="m -75.511074,77.522292 c -1.13408,-0.430008 -2.35043,-0.645252 -3.56445,-0.651761 -1.61868,-0.0086 -3.23172,0.349197 -4.72016,0.985446 -2.97688,1.27248 -5.40221,3.626744 -7.17993,6.332431 -1.42859,2.174264 -2.47032,4.581704 -3.25657,7.064734 l 8.25666,3.00518 c -0.15706,-2.24563 0.31428,-4.53674 1.39157,-6.51282 0.49138,-0.90129 1.1086,-1.74088 1.87177,-2.42747 0.76316,-0.6866 1.67618,-1.217412 2.67041,-1.473059 0.99421,-0.25563 2.07006,-0.227021 3.02672,0.145328 0.95664,0.372351 1.78364,1.098561 2.21604,2.029601 0.20724,0.44623 0.32381,0.93626 0.3221,1.42827 -0.002,0.49202 -0.12379,0.9857 -0.36703,1.41339 -0.24323,0.42765 -0.60889,0.78755 -1.04879,1.00791 -0.43989,0.22037 -0.95317,0.29746 -1.43539,0.19959 -0.45192,-0.0917 -0.85902,-0.32809 -1.28625,-0.50168 -0.21381,-0.0863 -0.43505,-0.15855 -0.66384,-0.18713 -0.22882,-0.0286 -0.4659,-0.0124 -0.68054,0.0719 -0.29184,0.11446 -0.52841,0.352991 -0.66087,0.637151 -0.13247,0.28416 -0.16417,0.61042 -0.11083,0.91929 0.0535,0.30892 0.18906,0.600579 0.37245,0.85486 0.18337,0.25426 0.41364,0.47254 0.66394,0.66129 0.80235,0.60486 1.81383,0.907129 2.81862,0.916449 1.00476,0.009 2.00148,-0.264979 2.89736,-0.72006 1.34297,-0.68219 2.47095,-1.77486 3.21195,-3.086299 0.74098,-1.31145 1.09504,-2.835521 1.02816,-4.340321 -0.0669,-1.504825 -0.55233,-2.986656 -1.37199,-4.250438 -0.81967,-1.26376 -1.97006,-2.308002 -3.29753,-3.019912 -0.35665,-0.191213 -0.72561,-0.358483 -1.10363,-0.501828 z"
         sodipodi:nodetypes="ssssccsssssscssssscssssssssss" />
      <path
         id="path1827-5"
         style="fill:#d5aa00;fill-opacity:1;stroke:none;stroke-width:0.264583px;stroke-linecap:butt;stroke-linejoin:miter;stroke-opacity:1"
         d="m -126.39214,77.522292 c 1.13408,-0.430008 2.35043,-0.645252 3.56445,-0.651761 1.61868,-0.0086 3.23172,0.349197 4.72016,0.985446 2.97688,1.27248 5.40221,3.626744 7.17993,6.332431 1.42859,2.174264 2.47032,4.581704 3.25657,7.064734 l -8.25666,3.00518 c 0.15706,-2.24563 -0.31428,-4.53674 -1.39157,-6.51282 -0.49138,-0.90129 -1.1086,-1.74088 -1.87177,-2.42747 -0.76316,-0.6866 -1.67618,-1.217412 -2.67041,-1.473059 -0.99421,-0.25563 -2.07006,-0.227021 -3.02672,0.145328 -0.95664,0.372351 -1.78364,1.098561 -2.21604,2.029601 -0.20724,0.44623 -0.32381,0.93626 -0.3221,1.42827 0.002,0.49202 0.12379,0.9857 0.36703,1.41339 0.24323,0.42765 0.60889,0.78755 1.04879,1.00791 0.43989,0.22037 0.95317,0.29746 1.43539,0.19959 0.45192,-0.0917 0.85902,-0.32809 1.28625,-0.50168 0.21381,-0.0863 0.43505,-0.15855 0.66384,-0.18713 0.22882,-0.0286 0.4659,-0.0124 0.68054,0.0719 0.29184,0.11446 0.52841,0.352991 0.66087,0.637151 0.13247,0.28416 0.16417,0.61042 0.11083,0.91929 -0.0535,0.30892 -0.18906,0.600579 -0.37245,0.85486 -0.18337,0.25426 -0.41364,0.47254 -0.66394,0.66129 -0.80235,0.60486 -1.81383,0.907129 -2.81862,0.916449 -1.00476,0.009 -2.00148,-0.264979 -2.89736,-0.72006 -1.34297,-0.68219 -2.47095,-1.77486 -3.21195,-3.086299 -0.74098,-1.31145 -1.09504,-2.835521 -1.02816,-4.340321 0.0669,-1.504825 0.55233,-2.986656 1.37199,-4.250438 0.81967,-1.26376 1.97006,-2.308002 3.29753,-3.019912 0.35665,-0.191213 0.72561,-0.358483 1.10363,-0.501828 z"
         sodipodi:nodetypes="ssssccsssssscssssscssssssssss" />
    </g>
    <path
       style="fill:#d4aa00;fill-opacity:1;stroke:none;stroke-width:0.0747773"
       inkscape:connector-curvature="0"
       d="m 85.645159,123.37766 12.947652,19.00988 1.484159,-8.41707 7.73283,10.71728 0.44116,-0.72374 -9.253053,-19.21501 -1.438944,8.16071 -7.218904,-12.24265 z"
       id="path3641"
       sodipodi:nodetypes="ccccccccc" />
    <path
       style="fill:#d4aa00;fill-opacity:1;stroke:none;stroke-width:0.0747773"
       inkscape:connector-curvature="0"
       d="m 85.645159,123.37766 -12.94765,19.00989 -1.484162,-8.41708 -7.732831,10.71728 -0.441154,-0.72374 9.253048,-19.21501 1.438947,8.16071 7.218905,-12.24265 z"
       id="path3641-5"
       sodipodi:nodetypes="ccccccccc" />
    <rect
       style="fill:none;fill-opacity:1;stroke:#d4aa00;stroke-width:5;stroke-linecap:square;stroke-dasharray:none;stroke-opacity:1;paint-order:fill markers stroke"
       id="rect1687"
       width="126.20625"
       height="83.872917"
       x="22.542028"
       y="68.741188" />
  </g>
</svg>
