<?xml version="1.0" encoding="UTF-8" standalone="no"?>
<!-- Created with Inkscape (http://www.inkscape.org/) -->

<svg
   width="150mm"
   height="100mm"
   viewBox="0 0 150 100"
   version="1.1"
   id="svg5"
   inkscape:version="1.2 (dc2aedaf03, 2022-05-15)"
   sodipodi:docname="lwagu.svg"
   xmlns:inkscape="http://www.inkscape.org/namespaces/inkscape"
   xmlns:sodipodi="http://sodipodi.sourceforge.net/DTD/sodipodi-0.dtd"
   xmlns="http://www.w3.org/2000/svg"
   xmlns:svg="http://www.w3.org/2000/svg">
  <sodipodi:namedview
     id="namedview7"
     pagecolor="#ffffff"
     bordercolor="#666666"
     borderopacity="1.0"
     inkscape:showpageshadow="2"
     inkscape:pageopacity="0.0"
     inkscape:pagecheckerboard="0"
     inkscape:deskcolor="#d1d1d1"
     inkscape:document-units="mm"
     showgrid="false"
     inkscape:zoom="0.18641099"
     inkscape:cx="206.53289"
     inkscape:cy="670.56134"
     inkscape:window-width="1920"
     inkscape:window-height="1017"
     inkscape:window-x="-8"
     inkscape:window-y="-8"
     inkscape:window-maximized="1"
     inkscape:current-layer="layer1" />
  <defs
     id="defs2">
	
	
	
</defs>
  <g
     inkscape:label="Layer 1"
     inkscape:groupmode="layer"
     id="layer1"
     transform="translate(-10.645162,-60.677647)">
    <rect
       style="fill:#ffeeaa;fill-opacity:1;stroke:none;stroke-width:6.38754;stroke-linecap:round;stroke-linejoin:round"
       id="rect401"
       width="150"
       height="100"
       x="10.645162"
       y="60.677647" />
    <rect
       style="fill:#3a6bb8;fill-opacity:1;stroke:none;stroke-width:4;paint-order:stroke markers fill"
       id="rect387"
       width="40"
       height="100"
       x="10.645162"
       y="60.677647" />
    <g
       id="XMLID_1120_"
       transform="matrix(0.0210616,0,0,0.0210616,59.493246,69.276397)"
       style="fill:#3a6bb8;fill-opacity:1">
		<g
   id="g8"
   style="fill:#3a6bb8;fill-opacity:1"
   transform="translate(45.845992,674.855)">
			<path
   class="st1"
   d="m 2641.4,1546.6 c 50.8,-133.1 125,-355 48.8,-379.5 -0.1,-0.1 -0.3,-0.1 -0.3,-0.1 -0.5,-0.2 -0.7,-0.3 -0.7,-0.3 h -0.3 c -189.8,-47.4 -183.9,117.5 -247.4,252.8 0,0 -44.4,78.3 -99.8,91.6 -168.9,-383.7 126.6,-1112.8 -94.1,-1210.5 -173,-10 -15.8,317.1 -202.7,816.1 -3.9,-18.5 -9.4,-39.5 -16.5,-63 -10.7,-38.4 -11.3,-112.5 -11.3,-112.5 -6.2,-311.7 69.2,-711.3 -100.4,-696 -143.4,-0.5 -83.6,334.6 -86.9,637.9 0,56.3 -25.6,214 -25.6,214 l -40.3,-186.6 -43,-270.3 C 1709,547.8 1697.6,462.3 1683.8,400 v -2.9 h -0.6 c -12.9,-57.8 -27.9,-95.1 -47.4,-98.7 -3.1,-0.9 -9.7,-0.2 -9.7,-0.2 -174.7,5.6 -119.6,305.4 -70.3,559.6 13.4,69 26.3,134.6 34.1,190.1 0,0 13.1,130.5 -12.7,204.1 0,0 -85.9,-161.8 -108.3,-225.5 -22.4,-63.7 -47.9,-151.2 -50.9,-164.2 -20.2,-85.5 -19.4,-121 -54.2,-128 v -0.1 c -0.3,0 -0.6,-0.1 -0.9,-0.1 -2.7,-0.5 -5.5,-0.8 -8.6,-1 -189.1,-15.7 21.8,437.3 64.9,677.4 0,0 7.1,51.4 7.4,77.6 3.3,290.8 2.2,357.9 116.7,694.9 5.7,81.5 114.5,227.3 413.2,110.1 231.2,48.8 348.5,-61 382.2,-127.7 z"
   id="path6"
   style="fill:#3a6bb8;fill-opacity:1" />

		</g>

	</g>
    <g
       id="XMLID_1111_"
       transform="matrix(0.03102367,0,0,0.03102367,-29.954924,28.135518)">
		<polygon
   id="XMLID_1058_"
   class="st2"
   points="1576.6,1714.8 1548.6,1800.1 1628.6,1749 1708.9,1799.7 1680.4,1714.5 1758.1,1660.6 1660.4,1659 1628.1,1574.9 1596.3,1659.1 1498.6,1661.2 "
   style="fill:#fdba45" />

		<polygon
   id="XMLID_1057_"
   class="st2"
   points="1898.7,1709.9 1870.6,1795.2 1950.5,1744.2 2030.9,1794.9 2002.3,1709.7 2080,1655.7 1982.4,1654.1 1950,1570.1 1918.2,1654.3 1820.7,1656.3 "
   style="fill:#fdba45" />

		<polygon
   id="XMLID_1056_"
   class="st2"
   points="2198.5,1795.2 2278.6,1744.2 2358.9,1794.9 2330.4,1709.7 2408.1,1655.7 2310.4,1654.1 2278.1,1570.1 2246.2,1654.3 2148.6,1656.3 2226.6,1709.9 "
   style="fill:#fdba45" />

		<polygon
   id="XMLID_1055_"
   class="st2"
   points="1795.3,2039.6 1875.6,2090.3 1847.1,2005.1 1924.6,1951.1 1827.1,1949.5 1794.8,1865.6 1762.9,1949.7 1665.3,1951.7 1743.3,2005.3 1715.2,2090.6 "
   style="fill:#fdba45" />

		<polygon
   id="XMLID_1054_"
   class="st2"
   points="2105.9,2044.1 2186.3,2094.8 2157.7,2009.6 2235.4,1955.6 2137.7,1954 2105.4,1870.1 2073.6,1954.2 1975.9,1956.2 2053.9,2009.8 2025.9,2095.1 "
   style="fill:#fdba45" />

		<polygon
   id="XMLID_1053_"
   class="st2"
   points="1760.2,1295.7 1728.4,1379.8 1630.7,1381.8 1708.7,1435.4 1680.7,1520.7 1760.7,1469.7 1841.1,1520.4 1812.5,1435.2 1890.2,1381.2 1792.5,1379.6 "
   style="fill:#fdba45" />

		<polygon
   id="XMLID_1052_"
   class="st2"
   points="2070.9,1300.2 2039.1,1384.3 1941.4,1386.3 2019.4,1439.9 1991.4,1525.2 2071.4,1474.2 2151.7,1524.8 2123.2,1439.7 2200.9,1385.7 2103.2,1384.1 "
   style="fill:#fdba45" />

	</g>
  </g>
</svg>
