<?xml version="1.0" encoding="UTF-8" standalone="no"?>
<!-- Created with Inkscape (http://www.inkscape.org/) -->

<svg
   width="147.49661mm"
   height="147.32944mm"
   viewBox="0 0 147.49661 147.32944"
   version="1.1"
   id="svg5"
   sodipodi:docname="Recruits.svg"
   inkscape:version="1.3 (0e150ed6c4, 2023-07-21)"
   xmlns:inkscape="http://www.inkscape.org/namespaces/inkscape"
   xmlns:sodipodi="http://sodipodi.sourceforge.net/DTD/sodipodi-0.dtd"
   xmlns="http://www.w3.org/2000/svg"
   xmlns:svg="http://www.w3.org/2000/svg">
  <sodipodi:namedview
     id="namedview7"
     pagecolor="#2c2e2f"
     bordercolor="#666666"
     borderopacity="1.0"
     inkscape:showpageshadow="2"
     inkscape:pageopacity="0"
     inkscape:pagecheckerboard="0"
     inkscape:deskcolor="#d1d1d1"
     inkscape:document-units="mm"
     showgrid="false"
     inkscape:zoom="0.38440306"
     inkscape:cx="-232.82853"
     inkscape:cy="602.23246"
     inkscape:window-width="1920"
     inkscape:window-height="1017"
     inkscape:window-x="-8"
     inkscape:window-y="-8"
     inkscape:window-maximized="1"
     inkscape:current-layer="layer1" />
  <defs
     id="defs2">
    <inkscape:path-effect
       effect="mirror_symmetry"
       start_point="91.033882,68.972044"
       end_point="91.033882,172.73276"
       center_point="91.033882,120.8524"
       id="path-effect1733"
       is_visible="true"
       lpeversion="1.2"
       lpesatellites=""
       mode="free"
       discard_orig_path="false"
       fuse_paths="false"
       oposite_fuse="false"
       split_items="false"
       split_open="false"
       link_styles="false" />
    <pattern
       id="EMFhbasepattern"
       patternUnits="userSpaceOnUse"
       width="6"
       height="6"
       x="0"
       y="0" />
    <pattern
       id="EMFhbasepattern-7"
       patternUnits="userSpaceOnUse"
       width="6"
       height="6"
       x="0"
       y="0" />
    <pattern
       id="EMFhbasepattern-9"
       patternUnits="userSpaceOnUse"
       width="6"
       height="6"
       x="0"
       y="0" />
    <pattern
       id="EMFhbasepattern-6"
       patternUnits="userSpaceOnUse"
       width="6"
       height="6"
       x="0"
       y="0" />
    <pattern
       id="EMFhbasepattern-1"
       patternUnits="userSpaceOnUse"
       width="6"
       height="6"
       x="0"
       y="0" />
  </defs>
  <g
     inkscape:label="shadow"
     inkscape:groupmode="layer"
     id="g2"
     style="display:inline;opacity:1;fill:#008000"
     transform="matrix(1.0241692,0,0,1,122.32482,-10.595276)">
    <path
       id="path3"
       style="color:#000000;fill:#000000;stroke:#000000;stroke-width:4.94065;stroke-dasharray:none"
       d="m -56.079902,30.833834 -4.42154,0.214974 -5.621407,0.970483 -5.093627,1.379244 -4.964961,1.767334 -3.599598,1.552877 -4.019399,2.046904 -0.0061,0.0036 c 0,0 -1.043716,0.655394 -2.101532,1.316715 -0.528908,0.330662 -1.060477,0.663815 -1.466782,0.915707 -0.203153,0.125946 -0.376204,0.231395 -0.500029,0.306958 -0.06191,0.03778 -0.110808,0.06885 -0.146325,0.08992 -0.01776,0.01054 -0.03321,0.01776 -0.04289,0.02325 -0.0097,0.0055 -0.0215,0.01047 -0.0061,0.0041 -0.03404,0.01395 -0.03242,0.01682 -0.04491,0.02532 -0.01249,0.0085 -0.02707,0.02007 -0.04491,0.03307 -0.03569,0.026 -0.08398,0.06073 -0.142793,0.10542 -0.11762,0.08939 -0.27805,0.214914 -0.468745,0.363285 -0.381392,0.296741 -0.879995,0.688033 -1.374952,1.07797 -0.989914,0.779875 -1.966811,1.554944 -1.966811,1.554944 l -0.0035,0.0021 -2.674217,2.480469 -2.042496,2.113049 -2.232715,2.740401 -2.253917,3.257683 -2.33766,4.117061 -2.54707,5.713346 -1.97842,6.38049 -0.98845,4.527372 -0.71497,4.933549 -0.50558,5.945373 -0.0843,5.859591 0.35774,7.191292 0.77703,6.609411 1.62926,11.16005 -2.17772,1.91409 -1.67417,1.82418 -0.81639,1.42989 -0.25783,1.43143 v 2.06654 l 0.67208,1.28726 0.98644,1.23042 1.13679,0.76946 0.75585,0.3514 1.14032,0.31058 1.8109,-0.0233 1.31592,-0.15037 1.73672,-0.39068 2.65606,-0.92966 9.42989,-4.00027 4.197007,-1.44126 8.697261,-3.26956 9.259856,-3.46077 7.871281,-2.6877 7.634638,-2.21278 4.906431,-0.92398 3.685374,-0.51366 5.431689,-0.10749 16.339972,-0.3886 14.1773873,-0.57981 8.08975968,-0.36535 7.00190802,-0.66818 5.849976,-0.99219 4.599654,-1.33945 1.982452,-1.09192 1.099457,-1.1467 0.60952,-1.18133 0.126646,-2.21485 -0.150361,-0.824239 -0.306778,-0.76171 -0.484387,-0.609782 -0.343612,-0.257349 -0.593878,-0.224793 -2.357347,-0.474906 -2.71862,-0.81442 L 11.304822,95.306384 9.4888776,94.472844 7.5962382,93.300822 6.1839488,92.025448 5.7369004,91.462691 4.8851874,89.847803 3.902791,87.148226 0.92028194,77.515739 l 0.002018,0.0021 -1.42994934,-4.908227 -2.12272298,-6.285405 -2.1035494,-5.34386 -2.4022543,-4.831746 -2.9492082,-4.058667 -3.685878,-4.138766 -4.357461,-3.902087 -4.86102,-3.556889 -4.525482,-2.738334 -5.303023,-2.650484 -5.134497,-1.789038 -3.181814,-1.013375 -5.831812,-1.077971 -3.853396,-0.324528 z" />
  </g>
  <g
     inkscape:label="Layer 1"
     inkscape:groupmode="layer"
     id="layer1"
     style="display:inline;opacity:1;fill:#008000"
     transform="matrix(1.0241692,0,0,1,122.32482,-10.595276)">
    <path
       style="display:inline;opacity:1;fill:#7b8c42;fill-opacity:1;stroke:#000000;stroke-width:0.261442px;stroke-linecap:butt;stroke-linejoin:miter;stroke-opacity:1"
       d="m 0.79580258,77.553627 2.98223802,9.636152 0.987079,2.710169 0.861068,1.634704 0.462037,0.58075 1.428111,1.290556 1.91116,1.18301 1.8271404,0.838861 2.310189,0.88188 2.73021,0.817354 2.35219,0.473202 0.56705,0.215093 0.31502,0.236604 0.46204,0.580749 0.29402,0.731314 0.14701,0.795845 -0.12601,2.17244 -0.58804,1.13999 -1.07109,1.11848 -1.95315,1.07546 -4.57837,1.33358 -5.8384654,0.98942 -6.99355802,0.66679 -8.08564528,0.36566 -14.1761323,0.58075 -16.339305,0.38716 -5.439433,0.10755 -3.696295,0.51623 -4.914392,0.92489 -7.644611,2.21546 -7.875629,2.68866 -9.261741,3.46299 -8.694696,3.26941 -4.200331,1.44112 -9.429751,4.00072 -2.64621,0.9249 -1.72214,0.38717 -1.3021,0.15056 -1.78514,0.0215 -1.11309,-0.30113 -0.73506,-0.34415 -1.11309,-0.75282 -0.96608,-1.20452 -0.65105,-1.24754 v -2.02187 l 0.25202,-1.3981 0.79806,-1.3981 1.65913,-1.80678 2.22619,-1.95734 -1.63814,-11.22784 -0.77706,-6.60335 -0.35703,-7.184097 0.084,-5.850522 0.50404,-5.936556 0.71406,-4.925624 0.98708,-4.516945 1.97415,-6.366746 2.5412,-5.699952 2.3312,-4.10827 2.247177,-3.2479 2.226172,-2.73168 2.037164,-2.10791 2.667215,-2.47357 c 0,0 3.906308,-3.09733 4.01132,-3.14035 0.105002,-0.043 4.284341,-2.66715 4.284341,-2.66715 l 4.01132,-2.04338 3.591281,-1.54867 4.956397,-1.76376 5.082406,-1.37659 5.607449,-0.96792 4.410351,-0.21509 5.250419,0.0645 3.843307,0.32264 5.817463,1.07546 3.171255,1.01094 5.124409,1.78527 5.292422,2.64564 4.515361,2.73168 4.851388,3.54902 4.347347,3.89318 3.675292,4.12978 2.9402346,4.04375 2.394192,4.81807 2.100168,5.3343 2.12116898,6.280706 z"
       id="path945" />
    <path
       style="opacity:0.5;fill:#4d4d4d;stroke:none;stroke-width:0.261443px;stroke-linecap:butt;stroke-linejoin:miter;stroke-opacity:1"
       d="m -15.93745,54.849048 c 0,0 -11.097798,-13.67363 -18.817505,-16.93108 -8.696822,-3.66976 -18.922359,-3.53886 -28.165988,-1.75637 -10.384394,2.00247 -28.774675,13.62355 -28.774675,13.62355 0,0 22.200246,-7.03897 33.677385,-7.43512 6.971889,-0.24064 13.995033,1.15323 20.708111,3.09565 7.461709,2.15904 21.372672,9.40337 21.372672,9.40337 z"
       id="path1867"
       sodipodi:nodetypes="caacaac" />
  </g>
</svg>
