<?xml version="1.0" encoding="UTF-8" standalone="no"?>
<!-- Created with Inkscape (http://www.inkscape.org/) -->

<svg
   width="150mm"
   height="100mm"
   viewBox="0 0 150 100"
   version="1.1"
   id="svg5"
   inkscape:version="1.2 (dc2aedaf03, 2022-05-15)"
   sodipodi:docname="epiros.svg"
   xmlns:inkscape="http://www.inkscape.org/namespaces/inkscape"
   xmlns:sodipodi="http://sodipodi.sourceforge.net/DTD/sodipodi-0.dtd"
   xmlns="http://www.w3.org/2000/svg"
   xmlns:svg="http://www.w3.org/2000/svg">
  <sodipodi:namedview
     id="namedview7"
     pagecolor="#ffffff"
     bordercolor="#666666"
     borderopacity="1.0"
     inkscape:showpageshadow="2"
     inkscape:pageopacity="0.0"
     inkscape:pagecheckerboard="0"
     inkscape:deskcolor="#d1d1d1"
     inkscape:document-units="mm"
     showgrid="false"
     inkscape:zoom="0.26362494"
     inkscape:cx="237.07924"
     inkscape:cy="788.9997"
     inkscape:window-width="1920"
     inkscape:window-height="1017"
     inkscape:window-x="-8"
     inkscape:window-y="-8"
     inkscape:window-maximized="1"
     inkscape:current-layer="layer1" />
  <defs
     id="defs2" />
  <g
     inkscape:label="Layer 1"
     inkscape:groupmode="layer"
     id="layer1"
     transform="translate(-10.645162,-60.677647)">
    <rect
       style="fill:#ffffff;fill-opacity:1;stroke:none;stroke-width:6.38754;stroke-linecap:round;stroke-linejoin:round"
       id="rect401"
       width="150"
       height="100"
       x="10.645162"
       y="60.677647" />
    <rect
       style="fill:#800080;stroke:none;stroke-width:10;stroke-linecap:square;paint-order:fill markers stroke"
       id="rect340"
       width="150"
       height="10"
       x="10.645162"
       y="70.677643" />
    <rect
       style="fill:#800080;stroke:none;stroke-width:10;stroke-linecap:square;paint-order:fill markers stroke"
       id="rect340-7-9"
       width="150"
       height="10"
       x="10.645162"
       y="140.67764" />
    <path
       style="fill:#d4aa00;stroke-width:0.148312"
       d="m 85.154691,87.734513 v 1.03819 1.03818 h -1.01965 c -1.11337,0 -1.16342,0.0373 -1.12624,0.88988 l 0.0231,0.51909 1.06135,0.0464 1.06137,0.0417 v 1.03355 1.02892 h 0.74155 0.74157 v -1.03819 -1.03819 h 1.03818 1.03819 v -0.74155 -0.74157 h -1.03819 -1.03818 v -1.03818 -1.03819 h -0.74157 z m -3.45289,7.90689 c -0.0342,-0.007 -0.0938,0.0321 -0.19467,0.11588 -0.16722,0.13883 -0.57351,0.17969 -1.37189,0.13903 -3.23087,-0.16449 -3.81449,-0.0453 -4.21762,0.85744 -0.0983,0.22 -0.366,0.55757 -0.59325,0.75083 -0.47817,0.40663 -0.84816,1.06003 -0.84816,1.49702 0,0.38895 0.0358,0.38178 0.774,-0.10659 0.53629,-0.35479 0.74851,-0.40217 1.63144,-0.38006 1.3676,0.0343 2.21382,0.44484 2.83647,1.38579 0.51897,0.784277 0.68331,0.730327 0.69058,-0.2271 0.007,-0.91191 0.14536,-1.03184 0.83425,-0.74156 0.31774,0.13389 1.0419,0.27558 1.6129,0.31516 0.99828,0.0692 1.02596,0.0653 0.63959,-0.15758 -0.22099,-0.1275 -0.60924,-0.53631 -0.86206,-0.90377 -0.25282,-0.36747 -0.64252,-0.78048 -0.86206,-0.91769 -0.21955,-0.1372 -0.41854,-0.26098 -0.44494,-0.27808 -0.0264,-0.0171 0.057,-0.23377 0.18539,-0.48202 0.12837,-0.24824 0.23174,-0.56345 0.23174,-0.69984 0,-0.10532 -0.008,-0.15955 -0.0417,-0.16686 z m 8.12472,0.004 c -0.0752,-0.0115 -0.0582,0.0654 0.004,0.26881 0.0588,0.19054 0.20104,0.53114 0.31516,0.75547 0.14955,0.29398 0.1582,0.40786 0.0324,0.40786 -0.096,0 -0.65285,0.50055 -1.23747,1.11234 l -1.06136,1.11234 0.67667,-0.004 c 0.3726,-0.003 1.04375,-0.13417 1.49239,-0.29199 1.05057,-0.36955 1.03819,-0.3711 1.03819,0.12977 0,0.23452 0.0417,0.63496 0.0927,0.889877 0.11425,0.57126 0.2793,0.58781 0.55618,0.0556 0.45309,-0.870917 1.18935,-1.326307 2.47959,-1.534097 1.04499,-0.16829 1.83171,0.0159 2.41934,0.56081 l 0.38469,0.35687 v -0.45884 c 0,-0.60897 -0.33955,-1.2402 -0.87597,-1.62217 -0.2405,-0.17124 -0.4608,-0.45722 -0.48665,-0.63495 -0.0265,-0.18241 -0.26968,-0.45149 -0.56081,-0.62106 -0.5372,-0.31291 -1.17082,-0.35463 -3.56412,-0.23638 -0.71229,0.0352 -1.23728,-0.0146 -1.45996,-0.1344 -0.1225,-0.0659 -0.20052,-0.10435 -0.24563,-0.11124 z m -12.23575,0.70448 c 0.0652,0 0.13325,0.0544 0.24564,0.16685 0.13351,0.13351 0.20233,0.34869 0.15294,0.47738 -0.0494,0.12869 -0.23032,0.23174 -0.39858,0.23174 -0.40679,0 -0.54424,-0.4059 -0.24101,-0.70912 0.11239,-0.1124 0.17583,-0.16685 0.24101,-0.16685 z m 16.35605,0.0464 c 0.21897,-0.006 0.4136,0.17269 0.37541,0.4403 -0.0569,0.39877 -0.63534,0.50965 -0.774,0.14831 -0.0549,-0.14321 -0.0105,-0.34634 0.10197,-0.45884 0.0886,-0.0886 0.19709,-0.12723 0.29662,-0.12977 z m -24.18416,3.06357 c -1.17079,-0.006 -3.26435,0.32262 -3.74024,0.588607 -0.17454,0.0976 -0.1266,0.15928 0.22246,0.29199 0.55349,0.21045 0.32949,0.36599 -0.74156,0.50983 -0.81689,0.10971 -5.73995,1.27044 -5.85833,1.38116 -0.14044,0.13133 1.22067,1.21662 2.00222,1.59899 1.08247,0.52961 2.15342,0.79721 3.65682,0.90841 l 1.27919,0.0927 0.10196,1.01964 c 0.0916,0.92974 0.13371,1.03803 0.52837,1.24211 0.23767,0.12292 0.85538,0.25715 1.36725,0.30127 1.83174,0.15785 1.89271,0.18243 2.14126,0.77863 0.43688,1.04798 0.7394,1.33904 1.49702,1.44141 1.26525,0.17097 1.6803,0.36066 1.89562,0.87597 0.26093,0.62449 0.43461,0.75096 1.34408,0.96403 0.53543,0.12544 0.93936,0.34894 1.36725,0.7601 0.33375,0.3207 0.70129,0.58398 0.81572,0.58398 0.26042,0 0.39395,-0.91533 0.39395,-2.66962 0,-0.98016 0.0561,-1.34123 0.22711,-1.48312 0.12433,-0.10319 0.26258,-0.15454 0.30589,-0.11124 0.0433,0.0433 0.11841,1.1445 0.16685,2.44716 l 0.0881,2.36836 -1.24675,0.1066 c -1.04539,0.0882 -1.49713,0.21723 -2.80403,0.81571 -1.97397,0.90397 -2.8365,1.18367 -4.3474,1.40433 l -1.2143,0.17612 1.03818,0.36152 c 0.83208,0.28901 1.31792,0.36133 2.44715,0.35224 1.70423,-0.0137 2.31836,-0.20728 4.49572,-1.42287 0.88082,-0.49176 1.63546,-0.86267 1.67778,-0.82035 0.0423,0.0423 0.17157,0.53505 0.28735,1.0938 0.24033,1.15965 0.71896,2.52205 1.1865,3.38801 0.2547,0.47174 0.28945,0.6945 0.18539,1.07989 -0.14653,0.54282 -1.00206,1.24527 -1.86317,1.52947 l -0.533,0.17612 0.39859,0.28736 c 0.46152,0.33619 0.42467,0.42872 -0.38469,1.01501 -0.88303,0.63966 -1.1012,0.58853 -1.22357,-0.30126 -0.0908,-0.66042 -0.13071,-0.72421 -0.37541,-0.59325 -0.3331,0.17827 -0.33005,0.17887 -0.71839,-1.13088 -0.3718,-1.25401 -0.39739,-1.95256 -0.0834,-2.4008 0.25833,-0.36882 0.17414,-0.62421 -0.20393,-0.6257 -0.13793,-4.4e-4 -0.36309,-0.20452 -0.50519,-0.4542 -0.20576,-0.36155 -0.34163,-0.44533 -0.6674,-0.40786 -0.34545,0.0397 -0.41819,0.12566 -0.45884,0.55153 -0.0275,0.28767 -0.17985,0.61214 -0.35688,0.75547 -0.35669,0.28883 -0.27328,0.73997 0.13905,0.74156 0.37803,0.002 0.86117,0.80118 1.21894,2.02076 0.38147,1.30043 0.37896,1.39042 0.009,1.39042 -0.37559,0 -0.36871,0.0744 0.037,0.64423 0.18183,0.25537 0.36538,0.76274 0.40786,1.13088 0.0649,0.5627 0.14505,0.70311 0.51909,0.88061 0.24472,0.11613 0.53301,0.33216 0.63959,0.48201 0.31456,0.44225 0.60178,0.32727 0.69986,-0.28272 0.0492,-0.30589 0.11711,-0.69958 0.15294,-0.87597 0.0765,-0.37635 1.89152,-1.45516 2.22932,-1.32554 0.11856,0.0455 0.28325,0.25939 0.36615,0.47739 l 0.14831,0.39858 0.4264,-0.67204 c 0.42829,-0.67537 1.29793,-1.45068 1.6268,-1.45068 0.0978,0 0.5884,0.34415 1.0938,0.76474 2.07607,1.72772 2.8806,1.72575 5.08432,-0.0278 l 0.99647,-0.79254 0.53764,0.3059 c 0.2945,0.16847 0.77845,0.64643 1.07526,1.06599 0.51206,0.7238 0.54398,0.74727 0.63033,0.40323 0.13978,-0.55693 0.57675,-0.60241 1.38116,-0.14369 1.16119,0.66219 1.37652,0.91594 1.37652,1.63144 0,0.75987 0.20871,0.933 0.64423,0.53763 0.1775,-0.16113 0.52002,-0.38661 0.76473,-0.50055 0.38238,-0.17805 0.4469,-0.28958 0.45421,-0.79718 0.006,-0.37637 0.15683,-0.82192 0.41249,-1.22357 l 0.39859,-0.63033 h -0.38005 c -0.296,0 -0.36773,-0.0588 -0.30589,-0.25955 0.0439,-0.14275 0.22381,-0.72673 0.39859,-1.29773 0.37122,-1.21279 0.7545,-1.81603 1.2004,-1.88171 0.43996,-0.0648 0.496,-0.3492 0.12977,-0.66277 -0.16863,-0.1444 -0.30589,-0.43396 -0.30589,-0.64423 0,-0.82936 -0.94098,-1.0576 -1.22821,-0.29663 -0.11899,0.31523 -0.27017,0.44494 -0.50983,0.44494 -0.38849,0 -0.4349,0.261 -0.1205,0.67668 0.31508,0.41656 0.28088,0.97596 -0.15758,2.38226 -0.37264,1.19519 -0.52518,1.42142 -0.72766,1.0938 -0.1862,-0.30128 -0.37078,0.0332 -0.37078,0.67668 0,0.81903 -0.23896,0.85761 -1.23284,0.19929 -0.76365,-0.50582 -0.86239,-0.77509 -0.37078,-1.03818 0.30782,-0.16474 0.28499,-0.19838 -0.49592,-0.59325 -0.88675,-0.44839 -1.60826,-1.17026 -1.60826,-1.61754 0,-0.15221 0.133,-0.50594 0.29662,-0.78327 0.40792,-0.69138 0.97474,-2.35633 1.19577,-3.51778 0.10091,-0.53021 0.20192,-0.98467 0.22247,-1.01038 0.0206,-0.0257 0.92701,0.41667 2.01612,0.98257 2.41609,1.25541 3.5104,1.51491 5.26508,1.24212 0.614259,-0.0955 1.394789,-0.29728 1.733399,-0.44494 l 0.61642,-0.26881 -1.2143,-0.17149 c -1.451849,-0.20532 -2.619149,-0.58204 -4.324229,-1.39969 -1.00115,-0.4801 -1.54499,-0.6422 -2.57229,-0.7601 l -1.307,-0.14832 v -2.43325 c 0,-2.23619 0.0209,-2.42791 0.25954,-2.38226 0.31457,0.0602 0.45378,0.89836 0.47275,2.90136 0.0119,1.2573 0.0359,1.37188 0.30126,1.37188 0.15921,0 0.52295,-0.24095 0.81108,-0.53762 0.38362,-0.39501 0.77479,-0.60799 1.45531,-0.79255 0.81582,-0.22125 0.96319,-0.31886 1.22358,-0.80645 0.36503,-0.68352 0.58148,-0.80707 1.72876,-0.99183 1.010469,-0.16274 1.296709,-0.40275 1.696319,-1.42288 0.26715,-0.68196 0.17054,-0.64596 2.31738,-0.85279 1.48984,-0.14353 1.73818,-0.38031 1.7473,-1.64071 0.002,-0.32628 0.0559,-0.66583 0.11588,-0.75546 0.0599,-0.0896 0.67594,-0.20731 1.37188,-0.25955 2.11798,-0.15895 3.9894,-0.88481 5.13995,-2.00221 l 0.55153,-0.53763 -2.58619,-0.63033 c -1.42303,-0.34574 -2.97276,-0.66954 -3.44363,-0.72302 -1.00201,-0.11381 -1.1616,-0.2586 -0.60251,-0.55154 0.39589,-0.20743 0.37163,-0.22219 -1.03355,-0.546897 -1.83414,-0.42383 -3.8507,-0.37772 -4.792339,0.11124 -1.26492,0.656817 -1.82689,1.709857 -1.64071,3.068197 0.0719,0.52492 -10e-4,0.81489 -0.41249,1.67315 -0.60369,1.25969 -1.34076,2.02898 -2.44252,2.54448 -0.77351,0.36193 -0.97244,0.38844 -2.98015,0.38932 -2.44754,0.001 -2.88201,-0.13823 -4.03223,-1.28846 -0.49848,-0.49848 -0.64943,-0.57792 -0.84353,-0.4403 -0.1305,0.0925 -0.52506,0.34343 -0.87133,0.55617 l -0.62569,0.38468 -0.82962,-0.57007 -0.82963,-0.57008 -0.77864,0.7601 c -1.11813,1.08805 -1.84168,1.29856 -4.14347,1.20504 -1.15324,-0.0469 -2.05216,-0.16304 -2.49813,-0.32443 -0.96634,-0.34971 -1.90395,-1.22837 -2.49814,-2.33592 -0.44503,-0.82956 -0.50574,-1.07279 -0.51909,-2.12272 -0.0175,-1.36866 -0.24753,-1.93104 -1.03355,-2.53058 -0.77422,-0.590517 -1.49426,-0.789947 -2.85964,-0.797167 z m 20.78225,0.0186 c -0.0862,-0.004 -0.24788,0.0697 -0.5469,0.19466 -0.3015,0.12597 -0.98231,0.22246 -1.57118,0.22246 h -1.03819 l -0.3198,0.630327 c -0.17545,0.34668 -0.4504,0.81844 -0.61179,1.04746 -0.16138,0.22902 -0.26827,0.44084 -0.23637,0.47274 0.0319,0.0319 0.65375,-0.0681 1.38116,-0.2271 0.7274,-0.15896 1.33648,-0.29199 1.35334,-0.29199 0.0169,0 0.0753,0.32678 0.12978,0.72302 0.0545,0.39624 0.22634,0.93076 0.38469,1.19114 0.27807,0.45726 0.57934,0.50568 0.57934,0.0927 0,-0.11032 0.22494,-0.72795 0.50056,-1.37189 0.44009,-1.02822 0.47621,-1.20507 0.29662,-1.45068 -0.11247,-0.15381 -0.20393,-0.49946 -0.20393,-0.769367 0,-0.32066 0.0135,-0.45741 -0.0973,-0.46347 z m -9.46417,0.0231 -0.1993,0.676667 c -0.26908,0.93355 -0.26217,0.96152 0.29663,2.42398 0.27221,0.71241 0.53879,1.2964 0.59788,1.29773 0.18016,0.004 0.55326,-0.83061 0.72302,-1.62216 0.0883,-0.41193 0.18098,-0.75083 0.20857,-0.75083 0.0276,0 0.63113,0.13767 1.33944,0.30589 0.70832,0.16823 1.31039,0.28396 1.33945,0.25491 0.029,-0.029 -0.14101,-0.34803 -0.38006,-0.70912 -0.23904,-0.36108 -0.51323,-0.84389 -0.60715,-1.07063 -0.16341,-0.394517 -0.21639,-0.410957 -1.22821,-0.421747 -0.5815,-0.006 -1.2908,-0.0964 -1.57581,-0.1993 z m 2.1737,2.804027 -0.16222,0.64423 c -0.0896,0.35565 -0.36663,0.87883 -0.61642,1.16332 -0.24979,0.28449 -0.52047,0.75957 -0.60252,1.05673 -0.082,0.29715 -0.42035,0.83723 -0.75083,1.19576 -0.56798,0.61619 -0.58357,0.6502 -0.25028,0.64887 0.61968,-0.003 1.81711,-0.67431 2.47033,-1.38579 0.34836,-0.37943 0.66651,-0.69058 0.70912,-0.69058 0.0426,0 0.44507,0.2771 0.89451,0.61642 l 0.82034,0.61642 0.89451,-0.63033 0.89915,-0.63495 0.61642,0.6674 c 0.65433,0.70782 1.51815,1.213 2.42861,1.42751 0.30716,0.0724 0.57869,0.14011 0.60715,0.14831 0.0285,0.008 -0.25411,-0.29507 -0.63032,-0.67668 -0.41121,-0.4171 -0.75193,-0.93469 -0.85743,-1.29773 -0.0965,-0.33214 -0.33633,-0.75738 -0.52837,-0.94086 -0.39301,-0.37549 -0.77863,-1.20421 -0.77863,-1.67314 0,-0.25576 -0.0596,-0.29185 -0.33371,-0.20393 -1.28127,0.41102 -2.86601,0.46746 -4.06468,0.14831 z m 29.351909,0.0788 -0.72303,0.74156 c -0.39649,0.40707 -0.94082,0.85505 -1.2143,0.99647 -0.37404,0.19343 -0.44594,0.28737 -0.28735,0.37541 0.29207,0.16215 3.91478,0.72331 5.62195,0.87134 3.86548,0.33518 6.79946,0.0996 8.09693,-0.6535 1.21262,-0.70385 1.14717,-0.75823 -1.01502,-0.87134 -2.43301,-0.12726 -5.78506,-0.55024 -8.4538,-1.06599 z m -53.577779,0.004 -1.65461,0.30589 c -0.91104,0.16784 -2.07744,0.37942 -2.59083,0.46811 -1.6325,0.28204 -4.49316,0.58389 -6.47012,0.68595 l -1.91415,0.10196 0.35687,0.29199 c 0.56077,0.46176 1.77952,0.97482 2.66499,1.12161 2.25262,0.37344 8.51609,-0.0414 11.37369,-0.75083 l 0.63032,-0.15295 -0.6535,-0.43566 c -0.36026,-0.23863 -0.9019,-0.70316 -1.2004,-1.03355 z m 49.503819,2.69742 c -0.11489,0.004 -0.20291,0.016 -0.25954,0.0371 -0.19272,0.0716 -0.90285,0.17011 -1.57581,0.21783 l -1.22358,0.0881 v 0.77864 c 0,0.75204 0.0185,0.78834 0.48201,0.93622 1.73306,0.55302 5.81526,1.25861 8.1201,1.39969 3.1116,0.19048 4.44839,-0.006 6.30326,-0.92231 0.65257,-0.32221 1.42009,-0.83412 1.7056,-1.13551 l 0.51909,-0.54691 -0.79718,0.10197 c -2.39051,0.30148 -6.5126,0.0202 -11.53127,-0.78327 -0.8009,-0.12823 -1.39798,-0.1856 -1.74268,-0.17149 z m -45.707959,0.11124 c -1.03224,0.004 -2.08694,0.12533 -3.84684,0.39395 -3.14365,0.47984 -5.72469,0.64345 -8.08302,0.51447 -0.93807,-0.0513 -1.72473,-0.0751 -1.7473,-0.0556 -0.0226,0.0195 0.2061,0.2703 0.50518,0.5608 0.70646,0.68618 2.0728,1.36736 3.46681,1.72877 1.28817,0.33397 2.19555,0.36704 4.83868,0.15758 2.2635,-0.17938 4.07447,-0.46993 6.33571,-1.01501 l 1.65461,-0.40323 0.0464,-0.82498 0.0417,-0.82499 -1.22821,-0.1205 c -0.75038,-0.0732 -1.36432,-0.11395 -1.98367,-0.11124 z m 3.54096,2.48886 c -0.1792,-0.001 -0.40483,0.0434 -0.77401,0.13905 -3.27786,0.84938 -6.73498,1.38975 -9.17218,1.4275 -0.83611,0.0129 -1.5202,0.0838 -1.5202,0.15758 0,0.21316 1.30642,0.98182 2.13199,1.25602 0.41461,0.13772 1.12535,0.2973 1.57581,0.35225 1.79246,0.21865 6.20071,-0.43897 10.00644,-1.4924 0.89947,-0.24897 1.68583,-0.50522 1.74731,-0.56544 0.0615,-0.0602 0.0249,-0.22721 -0.0834,-0.37541 -0.15174,-0.20752 -0.51185,-0.30084 -1.57118,-0.39859 -0.75655,-0.0698 -1.57831,-0.22863 -1.8261,-0.35225 -0.19926,-0.0994 -0.33526,-0.14712 -0.51445,-0.14831 z m 38.774369,0.0278 c -0.17236,0.009 -0.30599,0.0516 -0.48202,0.12513 -0.28263,0.1181 -1.12356,0.27941 -1.87244,0.35688 -1.24831,0.12915 -1.60093,0.26915 -1.60826,0.6396 -0.003,0.16662 0.56209,0.35886 2.73451,0.92695 2.33191,0.6098 4.84895,1.06464 6.75284,1.21894 1.75286,0.14207 3.095,0.008 4.15273,-0.40786 0.8231,-0.32397 1.77975,-0.95428 1.77975,-1.17259 0,-0.065 -0.98442,-0.15564 -2.1876,-0.20393 -2.22005,-0.0891 -4.74015,-0.48201 -7.72614,-1.20504 -0.86271,-0.20889 -1.25612,-0.29276 -1.54337,-0.27808 z m -3.99053,1.84926 -0.52836,0.35688 c -0.37645,0.25547 -0.730509,0.35688 -1.242119,0.35688 -0.57365,0 -0.7479,0.0626 -0.8806,0.31053 -0.091,0.17013 -0.14287,0.33157 -0.11587,0.35687 0.027,0.0253 0.91398,0.36128 1.974409,0.7462 2.29009,0.83127 4.84682,1.49963 6.42377,1.68242 1.33679,0.15494 2.14286,0.0834 3.36483,-0.29663 0.98815,-0.30731 2.0403,-0.86541 2.06247,-1.0938 0.008,-0.0816 -0.28643,-0.16382 -0.6535,-0.18539 -2.10951,-0.12395 -5.79766,-0.87439 -9.17219,-1.86781 z m -30.853569,0.0695 c -0.12674,0.0136 -0.28561,0.0619 -0.533,0.13904 -3.1818,0.99213 -7.94352,1.98734 -9.54296,1.99295 -1.04682,0.004 -1.10489,0.17932 -0.23638,0.69985 0.68177,0.4086 1.72678,0.7552 2.92454,0.9733 1.47742,0.26902 6.56693,-0.91648 9.70054,-2.26177 0.6916,-0.2969 0.71079,-0.32559 0.47275,-0.58861 -0.16332,-0.18047 -0.52153,-0.29549 -1.03819,-0.33833 -0.49968,-0.0414 -0.93388,-0.18134 -1.18649,-0.38006 -0.23606,-0.18567 -0.34958,-0.25898 -0.56081,-0.23637 z m 3.4529,1.99758 c -0.0907,0.0105 -0.20024,0.0475 -0.35225,0.1066 -2.91092,1.13195 -7.62452,2.39617 -8.93117,2.39617 -0.33872,0 -0.37523,0.0394 -0.22711,0.21783 0.25308,0.30495 1.26421,0.65808 2.30348,0.80645 1.26114,0.18005 1.27283,0.18003 2.84574,0.004 2.53112,-0.28223 5.8104,-1.46551 6.70649,-2.41934 l 0.34761,-0.37541 -0.35225,-0.0695 c -0.19386,-0.0398 -0.65005,-0.11241 -1.01501,-0.16222 -0.36494,-0.0498 -0.78262,-0.20351 -0.93159,-0.33833 -0.14459,-0.13086 -0.2428,-0.18434 -0.39394,-0.16685 z m 24.10999,0.0417 c -0.14093,0.002 -0.23889,0.0492 -0.37541,0.12977 -0.21282,0.12566 -0.65629,0.27147 -0.98257,0.32443 -1.55061,0.25173 -1.57799,0.31133 -0.48201,1.03819 1.38235,0.91679 3.8385,1.73805 6.020549,2.01149 1.88787,0.23657 4.38172,-0.11493 5.20019,-0.73229 l 0.34761,-0.26419 -0.87134,-0.10196 c -2.09349,-0.24552 -4.94346,-0.99681 -7.452679,-1.96514 -0.81902,-0.31606 -1.16944,-0.44298 -1.40434,-0.4403 z m -15.05832,11.49419 -0.17149,0.6396 c -0.27936,1.0495 -1.19375,2.63584 -2.05319,3.56413 l -0.80645,0.87133 0.3059,0.3059 c 0.39095,0.39095 1.25983,0.40696 2.03929,0.037 0.31454,-0.14925 1.07606,-0.75196 1.69168,-1.34408 0.61562,-0.59212 1.12883,-1.06395 1.14479,-1.04745 0.016,0.0165 -0.11992,0.49499 -0.3059,1.06599 -0.48569,1.4912 -0.72131,2.98717 -0.64886,4.12493 0.0718,1.12718 0.37149,1.65893 1.16333,2.06247 0.52079,0.26541 0.93824,0.23307 1.64996,-0.12514 0.97532,-0.49088 1.13247,-2.88105 0.35225,-5.39486 -0.2152,-0.69335 -0.43278,-1.39413 -0.48202,-1.55727 -0.0512,-0.16969 0.42223,0.1918 1.10771,0.84353 0.65906,0.6266 1.39112,1.23853 1.62216,1.35798 0.7262,0.37542 1.64513,0.36803 2.11345,-0.0139 l 0.3198,-0.25955 -0.79718,-0.83889 c -0.82308,-0.86853 -1.71966,-2.40176 -2.04392,-3.49925 -0.10244,-0.34667 -0.21742,-0.63032 -0.25492,-0.63032 -0.0375,0 -0.30231,0.20803 -0.59325,0.46348 -1.51689,1.33185 -3.16754,1.34232 -4.63475,0.0231 l -0.71839,-0.64887 z"
       id="path3029"
       inkscape:connector-curvature="0"
       sodipodi:nodetypes="cccsccccccccccccccccccccscccssscscssssssssssccsscccsssssccssssssccscsssscscscccsssscccssssssssssssccscccsssssscccssssscsscscssssssscscccsscccsssssscccscsssssssssssssssscsssccsccssssssssssccscccssssccscssccccccsscsccsssccssssssssssssccsccssssscccccscscsscccccscsssscccccsssssccccscccscccccccccscsccccsccssssssscccccsssccssssscsssscsscsscssscccscsssscsccsscsssssssccscsccccsscccccsscccscccccsssssssssssscccsssccc" />
  </g>
</svg>
