<?xml version="1.0" encoding="UTF-8" standalone="no"?>
<!-- Created with Inkscape (http://www.inkscape.org/) -->

<svg
   width="150mm"
   height="100mm"
   viewBox="0 0 150 100"
   version="1.1"
   id="svg5"
   inkscape:version="1.2 (dc2aedaf03, 2022-05-15)"
   sodipodi:docname="khedivate.svg"
   xmlns:inkscape="http://www.inkscape.org/namespaces/inkscape"
   xmlns:sodipodi="http://sodipodi.sourceforge.net/DTD/sodipodi-0.dtd"
   xmlns="http://www.w3.org/2000/svg"
   xmlns:svg="http://www.w3.org/2000/svg">
  <sodipodi:namedview
     id="namedview7"
     pagecolor="#ffffff"
     bordercolor="#666666"
     borderopacity="1.0"
     inkscape:showpageshadow="2"
     inkscape:pageopacity="0.0"
     inkscape:pagecheckerboard="0"
     inkscape:deskcolor="#d1d1d1"
     inkscape:document-units="mm"
     showgrid="false"
     inkscape:zoom="0.26362494"
     inkscape:cx="1098.151"
     inkscape:cy="637.26898"
     inkscape:window-width="1920"
     inkscape:window-height="1017"
     inkscape:window-x="-8"
     inkscape:window-y="-8"
     inkscape:window-maximized="1"
     inkscape:current-layer="layer1" />
  <defs
     id="defs2" />
  <g
     inkscape:label="Layer 1"
     inkscape:groupmode="layer"
     id="layer1"
     transform="translate(-10.645162,-60.677647)">
    <rect
       style="fill:#ffcc00;fill-opacity:1;stroke:none;stroke-width:6.38754;stroke-linecap:round;stroke-linejoin:round"
       id="rect401"
       width="150"
       height="100"
       x="10.645162"
       y="60.677647" />
    <path
       id="path446"
       style="fill:#ffffff;stroke:none;stroke-width:3.96416;paint-order:fill markers stroke"
       d="M 36.163598,70.490438 A 17.864309,18.426959 0 0 0 18.299122,88.917442 17.864309,18.426959 0 0 0 36.163598,107.34447 17.864309,18.426959 0 0 0 51.607111,98.175597 14.7697,14.7697 0 0 1 40.102115,103.68742 14.7697,14.7697 0 0 1 25.33257,88.917442 14.7697,14.7697 0 0 1 40.102115,74.147896 14.7697,14.7697 0 0 1 51.607521,79.658053 17.864309,18.426959 0 0 0 36.163598,70.490438 Z" />
    <path
       id="path446-3"
       style="fill:#ffffff;stroke:none;stroke-width:3.96416;paint-order:fill markers stroke"
       d="m 36.163598,113.34377 a 17.864309,18.426959 0 0 0 -17.864476,18.427 17.864309,18.426959 0 0 0 17.864476,18.427 17.864309,18.426959 0 0 0 15.443513,-9.16885 14.7697,14.7697 0 0 1 -11.504996,5.5118 14.7697,14.7697 0 0 1 -14.769545,-14.76995 14.7697,14.7697 0 0 1 14.769545,-14.76955 14.7697,14.7697 0 0 1 11.505406,5.51015 17.864309,18.426959 0 0 0 -15.443923,-9.1676 z" />
    <path
       id="path446-3-3"
       style="fill:#ffffff;stroke:none;stroke-width:3.96416;paint-order:fill markers stroke"
       d="m 73.016779,92.250637 a 17.864309,18.426959 0 0 0 -17.864477,18.427023 17.864309,18.426959 0 0 0 17.864477,18.427 17.864309,18.426959 0 0 0 15.443513,-9.16884 14.7697,14.7697 0 0 1 -11.504997,5.5118 14.7697,14.7697 0 0 1 -14.769544,-14.76996 14.7697,14.7697 0 0 1 14.769544,-14.769563 14.7697,14.7697 0 0 1 11.505407,5.510173 17.864309,18.426959 0 0 0 -15.443923,-9.167633 z" />
    <path
       sodipodi:type="star"
       style="fill:#ffffff;fill-opacity:1;stroke:none;stroke-width:4.99999;paint-order:fill markers stroke"
       id="path1453"
       inkscape:flatsided="false"
       sodipodi:sides="5"
       sodipodi:cx="-380.87885"
       sodipodi:cy="-77.785118"
       sodipodi:r1="37.575375"
       sodipodi:r2="14.278642"
       sodipodi:arg1="-1.5707963"
       sodipodi:arg2="-0.9424778"
       inkscape:rounded="0"
       inkscape:randomized="0"
       d="m -380.87884,-115.36049 8.39277,26.023708 27.34353,-0.05976 -22.15651,16.023771 8.50646,25.986774 -22.08626,-16.120475 -22.08625,16.120474 8.50646,-25.986773 -22.15651,-16.023773 27.34353,0.05977 z"
       transform="matrix(0.30891883,0,0,0.30891883,158.22856,113.20112)"
       inkscape:transform-center-y="-1.1084354"
       inkscape:transform-center-x="1.9529843e-06" />
    <path
       sodipodi:type="star"
       style="fill:#ffffff;fill-opacity:1;stroke:none;stroke-width:4.99999;paint-order:fill markers stroke"
       id="path1453-5"
       inkscape:flatsided="false"
       sodipodi:sides="5"
       sodipodi:cx="-380.87885"
       sodipodi:cy="-77.785118"
       sodipodi:r1="37.575375"
       sodipodi:r2="14.278642"
       sodipodi:arg1="-1.5707963"
       sodipodi:arg2="-0.9424778"
       inkscape:rounded="0"
       inkscape:randomized="0"
       d="m -380.87884,-115.36049 8.39277,26.023708 27.34353,-0.05976 -22.15651,16.023771 8.50646,25.986774 -22.08626,-16.120475 -22.08625,16.120474 8.50646,-25.986773 -22.15651,-16.023773 27.34353,0.05977 z"
       transform="matrix(0.30891883,0,0,0.30891883,194.93452,135.81539)"
       inkscape:transform-center-y="-1.1084369" />
    <path
       sodipodi:type="star"
       style="fill:#ffffff;fill-opacity:1;stroke:none;stroke-width:4.99999;paint-order:fill markers stroke"
       id="path1453-3"
       inkscape:flatsided="false"
       sodipodi:sides="5"
       sodipodi:cx="-380.87885"
       sodipodi:cy="-77.785118"
       sodipodi:r1="37.575375"
       sodipodi:r2="14.278642"
       sodipodi:arg1="-1.5707963"
       sodipodi:arg2="-0.9424778"
       inkscape:rounded="0"
       inkscape:randomized="0"
       d="m -380.87884,-115.36049 8.39277,26.023708 27.34353,-0.05976 -22.15651,16.023771 8.50646,25.986774 -22.08626,-16.120475 -22.08625,16.120474 8.50646,-25.986773 -22.15651,-16.023773 27.34353,0.05977 z"
       transform="matrix(0.30891883,0,0,0.30891883,160.07313,156.9085)"
       inkscape:transform-center-x="-9.8594082e-06"
       inkscape:transform-center-y="-1.1084335" />
  </g>
</svg>
